<?xml version="1.0" encoding="iso-8859-1"?>
<!-- Generator: Adobe Illustrator 16.0.4, SVG Export Plug-In . SVG Version: 6.00 Build 0)  -->
<!DOCTYPE svg PUBLIC "-//W3C//DTD SVG 1.1//EN" "http://www.w3.org/Graphics/SVG/1.1/DTD/svg11.dtd">
<svg version="1.1" id="Layer_2" xmlns="http://www.w3.org/2000/svg" xmlns:xlink="http://www.w3.org/1999/xlink" x="0px" y="0px"
	 width="400px" height="300px" viewBox="0 0 400 300" style="enable-background:new 0 0 400 300;" xml:space="preserve">
<path style="fill:none;stroke:#000000;stroke-miterlimit:10;" d="M17.167,293l11.142-40.539c0,0,7.428-23.661,36.079-27.905
	c28.651-4.244,67.383-12.203,67.383-12.203l23.876-19.631l-4.245,56.241l0.531,15.917"/>
<path style="fill:none;stroke:#000000;stroke-miterlimit:10;" d="M249.358,289.827l-2.982-58.904l-6.898-38.202l6.898,7.958
	l12.203,7.959L370,240.473c0,0,6.367-3.714,12.203,45.099"/>
<polyline style="fill:none;stroke:#000000;stroke-miterlimit:10;" points="155.659,199.321 193.849,235.5 199.686,235.5 
	239.5,192.721 239.5,152 "/>
<path style="fill:none;stroke:#000000;stroke-miterlimit:10;" d="M155.5,193v-13.543l10.155,13.265c0,0,38.996,18.57,64.464-23.345
	l9.267-16.573l0,0"/>
<path style="fill:none;stroke:#000000;stroke-miterlimit:10;" d="M162.369,163.007c0,0,29.89,2.123,40.501-1.061"/>
<path style="fill:none;stroke:#000000;stroke-miterlimit:10;" d="M139.201,51.408c0,0,55.533-62.255,84.362-23.169"/>
<path style="fill:none;stroke:#000000;stroke-miterlimit:10;" d="M139.201,51.408c0,0-24.583,29.359-5.306,59.424l8.525,17.245"/>
<path style="fill:none;stroke:#000000;stroke-miterlimit:10;" d="M239.023,152.746L239.023,152.746c0,0,11.952,7.428,15.312,0
	c3.359-7.428,9.195-24.406,9.195-24.406s4.422-26.705-15.209-1.945l-5.483,3.539c2.123-22.642-9.825-45.629-9.825-45.629
	l-1.514,0.711v4.77l-18.472-20.248l-0.393-0.62c-16.801-13.795-60.239,5.483-60.239,5.483l-3.149,2.123l-1.311,8.489l1.336,3.539
	c-2.829-0.707-7.601-11.143-7.601-11.143l-1.412,3.712c0,0-0.357,81.623,15.386,97.626"/>
<path style="fill:none;stroke:#000000;stroke-miterlimit:10;" d="M248.227,137.324"/>
<path style="fill:none;stroke:#000000;stroke-miterlimit:10;" d="M223.562,28.239c0,0,57.656,26.176,39.792,82.593l-2.344,5.069l0,0
	"/>
<path style="fill:none;stroke:#000000;stroke-miterlimit:10;" d="M197.563,112.069c0,0,12.734-12.734,21.4,0"/>
<path style="fill:none;stroke:#000000;stroke-miterlimit:10;" d="M151.934,116.313c0,0,12.734-12.734,21.4,0"/>
<path style="fill:none;stroke:#000000;stroke-miterlimit:10;" d="M146.628,104.994c0,0,16.625-15.386,30.597,1.416"/>
<path style="fill:none;stroke:#000000;stroke-miterlimit:10;" d="M190.312,108.354c0,0,20.163-18.212,31.128-1.236"/>
<polyline style="fill:none;stroke:#000000;stroke-miterlimit:10;" points="169.62,143.373 178.286,147.971 189.428,144.081 "/>
<circle cx="209.501" cy="111.809" r="3.449"/>
<circle cx="162.811" cy="114.992" r="3.449"/>
</svg>
