<?xml version="1.0" encoding="iso-8859-1"?>
<!-- Generator: Adobe Illustrator 16.0.4, SVG Export Plug-In . SVG Version: 6.00 Build 0)  -->
<!DOCTYPE svg PUBLIC "-//W3C//DTD SVG 1.1//EN" "http://www.w3.org/Graphics/SVG/1.1/DTD/svg11.dtd">
<svg version="1.1" id="Layer_2" xmlns="http://www.w3.org/2000/svg" xmlns:xlink="http://www.w3.org/1999/xlink" x="0px" y="0px"
	 width="400px" height="300px" viewBox="0 0 400 300" style="enable-background:new 0 0 400 300;" xml:space="preserve">
<path style="fill:none;stroke:#000000;stroke-miterlimit:10;" d="M152.405,37.233c-14.542,7.699-9.838,71.287-9.838,71.287"/>
<path style="fill:none;stroke:#000000;stroke-miterlimit:10;" d="M125.459,108.52c0,0-8.84-61.592,26.946-71.287"/>
<path style="fill:none;stroke:#000000;stroke-miterlimit:10;" d="M152.405,37.233c0,0,36.355-19.817,63.729,1.141"/>
<path style="fill:none;stroke:#000000;stroke-miterlimit:10;" d="M216.135,38.374c23.952,6.416,29.94,57.314,29.94,57.314
	l-0.568,9.767"/>
<path style="fill:none;stroke:#000000;stroke-miterlimit:10;" d="M33.5,239.4l7.699-21.386l-3.85-10.265l8.554-24.38
	c0,0-1.711-6.416,8.554-9.41c10.266-2.994,37.211-14.114,37.211-14.114l40.765-18.333"/>
<path style="fill:none;stroke:#000000;stroke-miterlimit:10;" d="M251.208,142.737l22.669,18.392l65.869,16.253
	c0,0,15.397,2.139,17.536,19.675c2.139,17.537,12.832,53.893,12.832,53.893"/>
<polyline style="fill:none;stroke:#000000;stroke-miterlimit:10;" points="134.869,111.086 159.393,115.648 204.159,113.082 
	214.14,111.086 255.201,104.243 "/>
<path style="fill:none;stroke:#000000;stroke-miterlimit:10;" d="M199.133,134.61c0,0-8.554,12.725,3.743,11.334"/>
<line style="fill:none;stroke:#000000;stroke-miterlimit:10;" x1="199.556" y1="167.117" x2="226.4" y2="162.626"/>
<path style="fill:none;stroke:#000000;stroke-miterlimit:10;" d="M214.14,111.086c0,0,1.995,17.68,12.26,17.109
	c10.267-0.57,13.545-1.568,13.545-1.568s9.837-0.357,7.984-21.173"/>
<path style="fill:none;stroke:#000000;stroke-miterlimit:10;" d="M168.373,115.133c0,0-2.849,18.765,8.7,18.623
	c11.548-0.143,18.676-1.284,18.676-1.284s7.27-0.642,7.128-6.522c-0.141-5.88,0-12.582,0-12.582"/>
<path style="fill:none;stroke:#000000;stroke-miterlimit:10;" d="M146.443,163.817"/>
<path style="fill:none;stroke:#000000;stroke-miterlimit:10;" d="M244.852,123.562c11.831,16.246,3.362,35.326-0.381,53.098
	c-2.999,14.248-11.535,30.121-26.677,34.997c-4.673,1.505-9.347,3.011-14.021,4.515c-8.417,2.712-20.532-7.906-26.5-12.891
	c-9.812-8.195-16.12-15.943-24.595-29.107"/>
<polyline style="fill:none;stroke:#000000;stroke-miterlimit:10;" points="152.678,173.244 161.67,209.175 166.803,231.132 "/>
<line style="fill:none;stroke:#000000;stroke-miterlimit:10;" x1="239.034" y1="193.483" x2="242.369" y2="242.822"/>
<path style="fill:none;stroke:#000000;stroke-miterlimit:10;" d="M175.074,113.367c0,0,3.707-5.988,24.481-3.421"/>
<path style="fill:none;stroke:#000000;stroke-miterlimit:10;" d="M216.135,108.52c0,0,18.054-11.406,24.567-10.265"/>
<ellipse cx="185.647" cy="117.97" rx="3.021" ry="2.443"/>
<ellipse cx="231.146" cy="113.393" rx="3.02" ry="2.444"/>
<path style="fill:none;stroke:#000000;stroke-miterlimit:10;" d="M185.646,184.439c0,0,31.705,31.438,49.167,0"/>
<path style="fill:none;stroke:#000000;stroke-miterlimit:10;" d="M152.678,173.424l-5.833-17.924h-5.988
	c-3.358-6-10.628-17.29-13.986-22.528c-3.268-5.095-6.976-9-6.673-15.406c0.503-10.709,14.541-4.689,19.807-1.783"/>
<path style="fill:none;stroke:#000000;stroke-miterlimit:10;" d="M145.253,161.959"/>
<path style="fill:none;stroke:#000000;stroke-miterlimit:10;" d="M220.805,132.899c0,0,10.158,12.725-4.446,11.334"/>
</svg>
