<?xml version="1.0" encoding="iso-8859-1"?>
<!-- Generator: Adobe Illustrator 16.0.4, SVG Export Plug-In . SVG Version: 6.00 Build 0)  -->
<!DOCTYPE svg PUBLIC "-//W3C//DTD SVG 1.1//EN" "http://www.w3.org/Graphics/SVG/1.1/DTD/svg11.dtd">
<svg version="1.1" id="Layer_2" xmlns="http://www.w3.org/2000/svg" xmlns:xlink="http://www.w3.org/1999/xlink" x="0px" y="0px"
	 width="400px" height="300px" viewBox="0 0 400 300" style="enable-background:new 0 0 400 300;" xml:space="preserve">
<polyline style="fill:none;stroke:#000000;stroke-miterlimit:10;" points="35.5,289.015 42.5,274.5 39,239 47,229 90.5,208.5 
	147,193 158,180.5 163,193 172,234.758 185.75,282.985 "/>
<polyline style="fill:none;stroke:#000000;stroke-miterlimit:10;" points="249.94,262.647 248,218.5 242.291,186.988 255,193 
	354,220.5 361.5,230 373.63,271.076 "/>
<path style="fill:none;stroke:#000000;stroke-miterlimit:10;" d="M157.946,180.5l-3.849-41.125L151.5,120v-10
	c0,0,2.355-24.516,6.625-31.25c2.235-3.526,9.947-7.808,13.5-10c2.854-1.761,8.75-5.473,12.062-6
	c3.558-0.566,10.68,2.098,14.281,2.125c4.477,0.033,13.299-2.077,17.766-2.375c3.929-0.262,11.823,0.139,15.758,0
	c2.707-0.096,8.092-1.179,10.795-1c2.101,0.139,6.312,1.44,7.961,2.75c2.484,1.974,5.873,7.7,6.751,10.75
	C258.313,79.564,257,94,257,94l-2.5,19l-0.25,13l6,7.75L265,130c0,0,3.085-6.072,3.75-6.5c0.438-0.281,5.092-1.583,6.5-0.75
	c1.227,0.726,1.733,4.094,1.5,5.5c-1.006,6.057-5.455,17.924-9.25,22.75c-2.166,2.756-7.909,6.947-10.75,9
	c-1.251,0.904-4.255,2.07-5.25,3.25c-3.954,4.688-9.209,22.738-9.209,22.738l-5.041,21.043l-7,7.031l-23.5,16.312l-27-19.375
	l-11.25-17.5H163"/>
<path style="fill:none;stroke:#000000;stroke-miterlimit:10;" d="M151.625,112.25l-6.562-5.5c0,0-1.301-7.018-1.156-9.375
	C144.164,93.163,147.484,85.188,148,81c0.214-1.737-0.536-5.334,0-7c2.43-7.545,18.5-25.75,18.5-25.75s15.502-22.51,23-27.375
	c4.091-2.654,13.921-4.696,18.75-5.375c5.014-0.704,15.464-1.649,20.25,0c1.84,0.634,5.75,4.5,5.75,5.25s7.499-0.926,10-0.75
	c2.406,0.169,6.978,1.941,9.25,2.75c2.297,0.817,7.053,2.284,9,3.75c3.197,2.407,8.19,8.931,10,12.5
	c1.844,3.638,4.25,15.75,4.25,15.75l5.375,13l1.375,15V106l-3,20.75l-3.875,10.75c0,0-3.266,10.574-5.438,13.5
	c-1.007,1.355-5.219,4.25-5.219,4.25l-14.234,14.5l-6.242,8"/>
<path style="fill:none;stroke:#000000;stroke-miterlimit:10;" d="M171.667,165.5c0,0,13.25,8.834,42.708,7.167"/>
<path style="fill:none;stroke:#000000;stroke-miterlimit:10;" d="M180,150.167c0,0,12.833,15.666,27.333,4.833"/>
<path style="fill:none;stroke:#000000;stroke-miterlimit:10;" d="M188.5,121.167c0,0,11.699-1.188,14.865,2.979"/>
<path style="fill:none;stroke:#000000;stroke-miterlimit:10;" d="M156.667,118c0,0,1-6.167,8.833-5.5s19,3.229,19,3.229
	s5.333,0.771,3.333,9.771s-7.166,8.333-7.166,8.333l-16-2C164.667,131.833,154.501,131.333,156.667,118z"/>
<circle cx="172.917" cy="123.279" r="3.083"/>
<line style="fill:none;stroke:#000000;stroke-miterlimit:10;" x1="152.394" y1="108.07" x2="157.375" y2="115.196"/>
<path style="fill:none;stroke:#000000;stroke-miterlimit:10;" d="M234.795,128.609c0,0,0.774-6.199-6.93-7.762
	c-7.705-1.562-19.142-2.243-19.142-2.243s-5.335-0.759-5.946,8.44s4.534,10.011,4.534,10.011l15.917,2.579
	C223.229,139.635,233.125,142.014,234.795,128.609z"/>
<polyline style="fill:none;stroke:#000000;stroke-miterlimit:10;" points="234,126.5 238.5,126.5 254.143,118.589 "/>
<circle cx="222.917" cy="128.279" r="3.083"/>
<line style="fill:none;stroke:#000000;stroke-miterlimit:10;" x1="161.5" y1="105.75" x2="185.75" y2="113.506"/>
<line style="fill:none;stroke:#000000;stroke-miterlimit:10;" x1="217.25" y1="115.196" x2="234.5" y2="118.279"/>
<path style="fill:none;stroke:#000000;stroke-miterlimit:10;" d="M163.25,118.589c0,0,12.25-5.546,20,4.558"/>
<path style="fill:none;stroke:#000000;stroke-miterlimit:10;" d="M214.375,125.5c0,0,7.625-6.816,17.875,1.779"/>
<path style="fill:none;stroke:#000000;stroke-miterlimit:10;" d="M168.826,194.007c0,0,6.54,5.821,9.174,6.993
	c3.703,1.648,11.88,2.909,15.933,3c3.993,0.09,12.023-1.003,15.817-2.25c6.137-2.018,17.522-8.455,22.75-12.25
	c4.193-3.044,14.997-14.307,14.997-14.307"/>
</svg>
