<?xml version="1.0" encoding="iso-8859-1"?>
<!-- Generator: Adobe Illustrator 16.0.4, SVG Export Plug-In . SVG Version: 6.00 Build 0)  -->
<!DOCTYPE svg PUBLIC "-//W3C//DTD SVG 1.1//EN" "http://www.w3.org/Graphics/SVG/1.1/DTD/svg11.dtd">
<svg version="1.1" id="Layer_2" xmlns="http://www.w3.org/2000/svg" xmlns:xlink="http://www.w3.org/1999/xlink" x="0px" y="0px"
	 width="400px" height="300px" viewBox="0 0 400 300" style="enable-background:new 0 0 400 300;" xml:space="preserve">
<path style="fill:none;stroke:#000000;stroke-miterlimit:10;" d="M201.76,123.183c0,0,24.248-18.943,31.826-5.683"/>
<path style="fill:none;stroke:#000000;stroke-miterlimit:10;" d="M185.086,125.078c0,0-23.113-13.262-28.796,0"/>
<path style="fill:none;stroke:#000000;stroke-miterlimit:10;" d="M180.919,179.259c0,0,21.598,7.2,34.102,0"/>
<path style="fill:none;stroke:#000000;stroke-miterlimit:10;" d="M249.928,167.352c4.848,4.639,8.511,8.106,12.607,12.024
	c2.967,2.839,7.782,2.979,11.693,3.917c11.371,2.729,22.812,5.236,34.078,8.376c11.944,3.327,23.928,6.26,35.474,10.782
	c3.36,1.316,6.718,2.632,10.08,3.948c2.3,0.901,2.303,3.527,3.044,5.807c1.934,5.966,2.095,10.366,2.095,16.688"/>
<path style="fill:none;stroke:#000000;stroke-miterlimit:10;" d="M255.625,105.607c1.126-14.191,1.505-28.917-1.459-42.932
	c-0.936-4.42-2.129-9.492-4.857-13.223c-10.044-13.754-21.558-26.081-39.986-24.022c-7.357,0.823-14.857,0.893-22.248,1.303
	c-2.032,0.112-4.688-0.223-6.593,0.59c-7.021,2.998-14.191,4.232-21.523,6.094c-7.019,1.781-18.202,10.721-18.202,18.615
	c0,6.556-0.57,12.942-1.137,19.481c-0.732,8.438-1.463,16.876-2.192,25.313c-0.528,6.084,6.216,15.82,1.117,20.188
	c-3.022,2.585,4.682,18.281,5.893,21.882c1.354,4.028,2.708,8.057,4.062,12.084c0.936,2.784,1.702,3.084,3.898,0.403"/>
<line style="fill:none;stroke:#000000;stroke-miterlimit:10;" x1="162.865" y1="182.551" x2="152.123" y2="150.563"/>
<path style="fill:none;stroke:#000000;stroke-miterlimit:10;" d="M185.086,157.663c0,0,11.717,9.851,23.289,0"/>
<path style="fill:none;stroke:#000000;stroke-miterlimit:10;" d="M140.442,115.415c1.335,1.917,2.671,3.837,4.009,5.753
	c1.948-7.183,1.61-13.906,1.61-21.362c0-6.453,4.727-13.287,7.948-18.528c2.073-3.376,2.91-3.921,6.512-5.715
	c3.993-1.984,5.921-1.167,10.421-0.366c7.209,1.283,14.852-0.266,22.113-0.834c6.806-0.535,13.591-1.235,20.385-1.91
	c5.772-0.574,11.423-2.693,17.238-1.074c10.276,2.86,15.398,18.498,14.473,28.221c-0.478,5.002,0.666,10.139,1.471,15.322
	c0.407,2.627,0.691,4.28,2.497,6.151c0.376-2.554,0.511-3.914,0.813-6.476c0.242-2.074,4.941-12.123,7.662-7.839
	c3.128,4.927,2.135,12.806,2.135,18.47c0,3.096,0.507,5.068,0.149,9.195c-0.285,3.27,0.126,5.682,0.126,8.969
	c0,2.004-1.275,6.604-2.758,7.954c-2.906,2.645-3.114-0.372-4.463,1.391c-1.823,2.381-1.799,8.873-2.404,11.858
	c-1.13,5.567-5.6,11.276-7.999,16.565c-3.312,7.306-6.332,13.517-10.946,20.034c-4.161,5.88-11.147,8.763-17.235,12.503
	c-2.011,1.235-4.343,3.451-6.773,3.451c-4.798,0-6.536-1.044-10.785-3.407c-13.419-7.467-26.899-17.113-33.778-31.19
	c-17.188,10.293-37.839,14.51-56.855,20.598c-7.431,2.38-14.559,5.455-21.79,8.389c-2,0.81-10.09,2.668-10.898,4.798
	c-1.779,4.692-3.557,9.383-5.337,14.075"/>
<path style="stroke:#000000;stroke-miterlimit:10;" d="M174.246,128.5c0,1-3.574,2-3.574,0S174.246,126.5,174.246,128.5
	C174.246,129.5,174.246,126.5,174.246,128.5z"/>
<path style="stroke:#000000;stroke-miterlimit:10;" d="M220.469,123.5c0,1-3.572,3-3.572,0
	C216.897,122.5,220.469,122.5,220.469,123.5S220.469,122.5,220.469,123.5z"/>
<path style="fill:none;stroke:#000000;stroke-miterlimit:10;" d="M247.204,171.977c3.026,7.165,6.092,14.075,9.118,21.239
	c0.977,2.312,0.179,6.225,0.179,8.686c0,3.693,0,12.099,0,12.099"/>
<path style="fill:none;stroke:#000000;stroke-miterlimit:10;" d="M168.415,228.895c0-13.106-0.655-26.117-1.303-39.211"/>
</svg>
