<?xml version="1.0" encoding="iso-8859-1"?>
<!-- Generator: Adobe Illustrator 16.0.4, SVG Export Plug-In . SVG Version: 6.00 Build 0)  -->
<!DOCTYPE svg PUBLIC "-//W3C//DTD SVG 1.1//EN" "http://www.w3.org/Graphics/SVG/1.1/DTD/svg11.dtd">
<svg version="1.1" id="Layer_2" xmlns="http://www.w3.org/2000/svg" xmlns:xlink="http://www.w3.org/1999/xlink" x="0px" y="0px"
	 width="400px" height="300px" viewBox="0 0 400 300" style="enable-background:new 0 0 400 300;" xml:space="preserve">
<path style="fill:none;stroke:#000000;stroke-miterlimit:10;" d="M61,282.5c0,0,17-44.5,41.5-46.5s51.04-12.602,51.04-12.602"/>
<polyline style="fill:none;stroke:#000000;stroke-miterlimit:10;" points="230.25,66.875 194.625,91.188 203.938,89.844 202,93.5 
	207,93.5 206.5,97.75 246,73 "/>
<path style="fill:none;stroke:#000000;stroke-miterlimit:10;" d="M166.666,123.167c0,0,14.168-11.333,21,2.167"/>
<path style="fill:none;stroke:#000000;stroke-miterlimit:10;" d="M212.75,120.834c0,0,15.584-13.334,24.416-1.584"/>
<path style="fill:none;stroke:#000000;stroke-miterlimit:10;" d="M208.666,115.167c0,0,20.499-18,32.666-2.833"/>
<path style="fill:none;stroke:#000000;stroke-miterlimit:10;" d="M173,110.712c0,0,15.665,2.218,17.832,8.003"/>
<path style="fill:none;stroke:#000000;stroke-miterlimit:10;" d="M248.722,191.97c3.834-3.333,21.446-54.802,21.446-54.802l4.832-14
	c24.668-59.833-59.801-104-59.801-104l-2.449-0.917c-85,1-86.5,101-86.5,101l2.749,0.75c0,0,28.333,27.333,21.833,38l4.668-2.352
	l1.959,2.481"/>
<path style="fill:none;stroke:#000000;stroke-miterlimit:10;" d="M225.15,70.355c-8.1-6.145-19.9,4.895-19.9,4.895L204,76.5
	c-4.666,10.667-43.332,38.667-43.332,38.667l-2.834,2.704l-2.334,5.296V147l0.5,1.5c0,0,5.5,35.5,17,39.25l3,0.75
	c0,0,34.832,35,68.332-6.833l3.025-2.5c0,0,7.477,0.834,8.143-31.833v-1.666c0,0,12.502-6.167,13.168-21.667L271,113.168
	c0.668-21-12.5,1.241-12.5,1.241L257,112c-0.5-13.167-19.166-31.667-19.166-31.667"/>
<line style="fill:none;stroke:#000000;stroke-miterlimit:10;" x1="218.834" y1="150.334" x2="233.668" y2="163.252"/>
<line style="fill:none;stroke:#000000;stroke-miterlimit:10;" x1="186.834" y1="148.5" x2="176" y2="166.334"/>
<path style="fill:none;stroke:#000000;stroke-miterlimit:10;" d="M186,169.666c0,0,22,8.584,36.5-1.541"/>
<path style="fill:none;stroke:#000000;stroke-miterlimit:10;" d="M190,153.167c0,0,13,11.167,26,0"/>
<path style="fill:none;stroke:#000000;stroke-miterlimit:10;" d="M142.168,230.333l27.082-16.666c0,0,2.25-4,2.25-5v-1l1.25-19.917"
	/>
<path style="fill:none;stroke:#000000;stroke-miterlimit:10;" d="M142.168,230.333c0,0,28.5,46,46.832,40.5
	c18.334-5.5,85.168-39.833,85.168-39.833s8.906-6.131,6.332-7.333c-37.918-17.707-33.143-44.5-33.143-44.5"/>
<path style="fill:none;stroke:#000000;stroke-miterlimit:10;" d="M280.967,224.327l42.367,13.006c0,0,19,6.334,25.166,16.667
	c6.168,10.333,14,23,14,23"/>
<circle cx="177.653" cy="122.045" r="2.356"/>
<circle cx="226.653" cy="119.045" r="2.356"/>
</svg>
