<?xml version="1.0" encoding="iso-8859-1"?>
<!-- Generator: Adobe Illustrator 16.0.4, SVG Export Plug-In . SVG Version: 6.00 Build 0)  -->
<!DOCTYPE svg PUBLIC "-//W3C//DTD SVG 1.1//EN" "http://www.w3.org/Graphics/SVG/1.1/DTD/svg11.dtd">
<svg version="1.1" id="Layer_2" xmlns="http://www.w3.org/2000/svg" xmlns:xlink="http://www.w3.org/1999/xlink" x="0px" y="0px"
	 width="400px" height="300px" viewBox="0 0 400 300" style="enable-background:new 0 0 400 300;" xml:space="preserve">
<polyline style="fill:none;stroke:#000000;stroke-miterlimit:10;" points="44.049,211.917 50.205,202.402 71.472,197.365 
	117.924,190.09 152.622,186.732 171.091,174.42 166.615,188.971 164.935,202.402 164.375,227.588 "/>
<polyline style="fill:none;stroke:#000000;stroke-miterlimit:10;" points="372.948,242.666 369.68,232.049 367.485,225.341 
	341.764,215.271 297.562,203.521 253.876,184.912 256.5,201.003 256.5,216.114 256.5,232 "/>
<path style="fill:none;stroke:#000000;stroke-miterlimit:10;" d="M168.853,49.059c0,0,20.147-31.902,62.682-31.902"/>
<path style="fill:none;stroke:#000000;stroke-miterlimit:10;" d="M231.534,17.156c0,0,70.655,21.828,54.565,96.961"/>
<path style="fill:none;stroke:#000000;stroke-miterlimit:10;" d="M193.896,174.42c0,0,33.58,5.177,44.492,3.917"/>
<path style="fill:none;stroke:#000000;stroke-miterlimit:10;" d="M156.261,100.266c0,0-6.716-4.756-7.836,0
	c-1.119,4.757,0,12.593,0,12.593l3.669,32.18c0,0,4.167,7.275,8.363,6.996c4.197-0.28,6.156-2.519,6.156-2.519l1.399-1.959
	l3.078,26.863"/>
<path style="fill:none;stroke:#000000;stroke-miterlimit:10;" d="M156.261,100.266c0,0,1.398-40.294,12.592-51.207"/>
<path style="fill:none;stroke:#000000;stroke-miterlimit:10;" d="M161.575,104.919l3.359,14.581h3.358l6.157-20.965l4.478-12.908
	l4.756-11.848l2.519-24.114l22.386-7.86c0,0,15.95,19.872,45.472,20.433"/>
<polyline style="fill:none;stroke:#000000;stroke-miterlimit:10;" points="208.448,152.908 219.22,160.5 222.859,160.5 
	233.211,156.705 "/>
<path style="fill:none;stroke:#000000;stroke-miterlimit:10;" d="M260.009,49.059c0,0,20.214,13.987,17.976,65.059"/>
<path style="fill:none;stroke:#000000;stroke-miterlimit:10;" d="M216.143,107.646c0,0,4.688,4.372,4.688,8.849
	c0,2.609,0.071,2.239-2.729,10.074c-2.798,7.836-14.829,13.712-14.829,13.712s-6.996,0.84-15.111,0.279
	c-8.114-0.561-10.913-9.514-10.913-9.514s-0.281-3.079,0-11.894c0.28-8.814,12.592-14.13,12.592-14.13L216.143,107.646l30.37,3.027
	l13.496,1.346c0,0,15.505,6.156,13.383,16.229c-2.122,10.074-2.122,10.074-2.122,10.074s-1.119,6.436-17.21,5.596
	c-16.089-0.839-21.604-7.835-22.345-12.592l-0.181-9.374c0,0,2.136-12.702,10.532-11.724"/>
<line style="fill:none;stroke:#000000;stroke-miterlimit:10;" x1="171.091" y1="110.619" x2="178.083" y2="115.491"/>
<path style="fill:none;stroke:#000000;stroke-miterlimit:10;" d="M187.741,109.5c0,0,22.386-2.239,25.743,4.617"/>
<path style="fill:none;stroke:#000000;stroke-miterlimit:10;" d="M238.809,115.491c0,0,19.309-2.354,24.766,5.202"/>
<polyline style="fill:none;stroke:#000000;stroke-miterlimit:10;" points="173.5,180 173.5,190.09 201.817,224.285 207.816,230.5 
	219.501,230.5 236.012,217.992 246.03,203.753 "/>
<path style="fill:none;stroke:#000000;stroke-miterlimit:10;" d="M187.751,192.748c13.394,11.361,30.729,22.689,47.923,10.741
	c17.41-12.099,22.682-28.907,30.334-47.784c3.012,9.632,12.834,8.4,15.318-0.679c1.845-6.734,2.757-13.935,5.007-20.515
	c2.172-6.354,10.872-16.205,2.846-20.395c-6.963-3.635-12.789,3.287-17.053,7.233"/>
<path d="M202.282,116c0,3-5.335,3-5.335,0C196.947,112,202.282,112,202.282,116z"/>
<path d="M251.1,121c0,2-5.334,2-5.334,0C245.766,117,251.1,117,251.1,121z"/>
</svg>
