<?xml version="1.0" encoding="iso-8859-1"?>
<!-- Generator: Adobe Illustrator 16.0.4, SVG Export Plug-In . SVG Version: 6.00 Build 0)  -->
<!DOCTYPE svg PUBLIC "-//W3C//DTD SVG 1.1//EN" "http://www.w3.org/Graphics/SVG/1.1/DTD/svg11.dtd">
<svg version="1.1" id="Layer_2" xmlns="http://www.w3.org/2000/svg" xmlns:xlink="http://www.w3.org/1999/xlink" x="0px" y="0px"
	 width="400px" height="300px" viewBox="0 0 400 300" style="enable-background:new 0 0 400 300;" xml:space="preserve">
<polyline style="fill:none;stroke:#000000;stroke-miterlimit:10;" points="9.5,264 9.5,247 90.591,214.834 135.636,189.334 
	138.659,195.5 141.67,204.5 151.176,218.5 167.179,232.5 189.682,242.5 192.682,242.5 216.182,226.917 226.682,216.625 
	233.682,198.562 230.182,183.031 233.682,185.516 248.182,191.008 289.682,206.504 320.682,211.002 345.182,218.501 373.591,229 
	389.5,236.09 389.5,248 389.5,257 392.591,270.5 399.864,279 "/>
<path style="fill:none;stroke:#000000;stroke-miterlimit:10;" d="M126.182,62.375c0,0,9.125-6.438,11.375-6.188
	s10.312-2.469,10.312-2.469l5.531,1.516l3.766,2.883l8.758,2.379l7.754-1.248l7.252-4.249l10.752-1.249
	c0,0,19.909-1.75,22.159,4.375S221.5,70.25,221.5,70.25V85v9l5.091,6.5l3.295,6.625l2.545,5.375h7.25l4.25-5.75l-1.25-25.875
	c0,0,3.25-21.062,1.25-24.562s-12.75-25.031-37-31.781s-40.5-4.266-40.5-4.266s-28.75,7.992-32.5,11.992s-12.25,13.746-12.25,13.746
	s-4.5,13.998-5,14.998s-3,4.897-3,4.897l5.5,1.851l3.75-1.852L126.182,62.375z"/>
<path style="fill:none;stroke:#000000;stroke-miterlimit:10;" d="M121.289,66.71c0,0-5.75,26.79,0,47.79"/>
<ellipse style="fill:none;stroke:#000000;stroke-miterlimit:10;" cx="191.432" cy="124.625" rx="14.75" ry="15.625"/>
<ellipse style="fill:none;stroke:#000000;stroke-miterlimit:10;" cx="144.432" cy="124.625" rx="15.75" ry="15.625"/>
<path style="fill:none;stroke:#000000;stroke-miterlimit:10;" d="M163.182,120.25c0,0,5.25-8.25,11.25,0"/>
<path style="fill:none;stroke:#000000;stroke-miterlimit:10;" d="M153.932,176.5c0,0,29.25,3.75,34.25,0"/>
<polyline style="fill:none;stroke:#000000;stroke-miterlimit:10;" points="147.932,193.179 156.682,205.25 165.932,210.5 
	188.182,211.5 203.182,202.34 222.682,179.75 230.761,165.491 "/>
<polyline style="fill:none;stroke:#000000;stroke-miterlimit:10;" points="239.682,112.5 245.966,114.625 247.5,122.25 247.5,129 
	244.491,140.25 242.136,152 238.409,154.25 231.42,153 229.926,182 "/>
<polyline style="fill:none;stroke:#000000;stroke-miterlimit:10;" points="121.289,114.5 116.119,118.417 113.65,120.5 
	115.138,136.896 122.432,156.5 124.682,156.5 126.432,154.5 129.182,163.5 131.516,176.5 135.182,189.334 "/>
<polyline style="fill:none;stroke:#000000;stroke-miterlimit:10;" points="206,120.5 209.682,120.5 232.591,112.5 "/>
<circle cx="146.335" cy="118.045" r="2.356"/>
<circle cx="195.335" cy="116.045" r="2.356"/>
<path style="fill:none;stroke:#000000;stroke-miterlimit:10;" d="M128.682,110c0,0,17-13.25,25.25-2.75"/>
<path style="fill:none;stroke:#000000;stroke-miterlimit:10;" d="M188.932,104.25c0,0,9.622-3.282,16.5,6.75"/>
<line style="fill:none;stroke:#000000;stroke-miterlimit:10;" x1="121.289" y1="114.5" x2="131.516" y2="115.688"/>
<polyline style="fill:none;stroke:#000000;stroke-miterlimit:10;" points="160.182,150.75 168.807,153.75 174.432,150 
	179.132,151.917 "/>
</svg>
