<?xml version="1.0" encoding="iso-8859-1"?>
<!-- Generator: Adobe Illustrator 16.0.4, SVG Export Plug-In . SVG Version: 6.00 Build 0)  -->
<!DOCTYPE svg PUBLIC "-//W3C//DTD SVG 1.1//EN" "http://www.w3.org/Graphics/SVG/1.1/DTD/svg11.dtd">
<svg version="1.1" id="Layer_2" xmlns="http://www.w3.org/2000/svg" xmlns:xlink="http://www.w3.org/1999/xlink" x="0px" y="0px"
	 width="400px" height="300px" viewBox="0 0 400 300" style="enable-background:new 0 0 400 300;" xml:space="preserve">
<path style="fill:none;stroke:#000000;stroke-miterlimit:10;" d="M200,12.333c0,0-67.556,12.761-60.223,113.714"/>
<polyline style="fill:none;stroke:#000000;stroke-miterlimit:10;" points="169.5,206 169.5,218 206.389,251.167 217.75,249 
	251.43,214.586 249.346,195.299 "/>
<polyline style="fill:none;stroke:#000000;stroke-miterlimit:10;" points="41.11,293.332 47.11,281.334 145.777,229.584 
	172.751,202.782 "/>
<polyline style="fill:none;stroke:#000000;stroke-miterlimit:10;" points="379.833,294.739 374.443,274.334 251.443,214.586 "/>
<path style="fill:none;stroke:#000000;stroke-miterlimit:10;" d="M139.777,126.047l10.666,15.453h5.667l11-39.25l16.667-5.837
	l21.333-24.017l12.667,13.969l28.666,5.984l20,14.326l5.334,41.329C329.11,5,200,12.333,200,12.333"/>
<path style="fill:none;stroke:#000000;stroke-miterlimit:10;" d="M139.777,126.047c0,0-5.167,1.844-0.557,13.953
	c3.381,8.878,13.89,29.5,13.89,29.5h3.333c0,0,14,44.833,38.667,51.5l29.5,2.209l7.833-5.041c0,0,36-44.081,39.334-70.164"/>
<line style="fill:none;stroke:#000000;stroke-miterlimit:10;" x1="200" y1="187.5" x2="236" y2="187.5"/>
<path style="fill:none;stroke:#000000;stroke-miterlimit:10;" d="M172.751,124.593c0,0,6.524-19.924,37.775-8.092"/>
<path style="fill:none;stroke:#000000;stroke-miterlimit:10;" d="M232.443,116.501c0,0,19.048-8.958,32.667,4.684"/>
<path style="fill:none;stroke:#000000;stroke-miterlimit:10;" d="M181.777,126.367c0,0,8.666-10.633,18.333,0"/>
<path style="fill:none;stroke:#000000;stroke-miterlimit:10;" d="M232.443,126.367c0,0,14.668-11.94,23.334,3.68"/>
<path style="fill:none;stroke:#000000;stroke-miterlimit:10;" d="M205.777,162.334c0,0,16.666,11.805,23.333,1.235"/>
<line style="fill:none;stroke:#000000;stroke-miterlimit:10;" x1="262.532" y1="221" x2="255.777" y2="274.334"/>
<line style="fill:none;stroke:#000000;stroke-miterlimit:10;" x1="157.267" y1="218.168" x2="172.751" y2="278.333"/>
<circle cx="191.653" cy="127.044" r="2.356"/>
<circle cx="243.653" cy="127.045" r="2.356"/>
</svg>
