<?xml version="1.0" encoding="iso-8859-1"?>
<!-- Generator: Adobe Illustrator 16.0.4, SVG Export Plug-In . SVG Version: 6.00 Build 0)  -->
<!DOCTYPE svg PUBLIC "-//W3C//DTD SVG 1.1//EN" "http://www.w3.org/Graphics/SVG/1.1/DTD/svg11.dtd">
<svg version="1.1" id="Layer_2" xmlns="http://www.w3.org/2000/svg" xmlns:xlink="http://www.w3.org/1999/xlink" x="0px" y="0px"
	 width="400px" height="300px" viewBox="0 0 400 300" style="enable-background:new 0 0 400 300;" xml:space="preserve">
<path style="fill:none;stroke:#000000;stroke-miterlimit:10;" d="M130.5,119c-13.25-4.75-11.25,6.5-11.25,6.5l4.752,15.167
	L130.5,150c0,0,8.002,14.78,10.002,16.273s4.832,1.227,4.832,1.227h1.791l13.312,29.392c0,0,15.562,21.241,59.312,41.491
	c2.325,1.076,10.25,0.059,10.25,0.059l23.75-27.221l2.75-6.721V195"/>
<line style="fill:none;stroke:#000000;stroke-miterlimit:10;" x1="228.5" y1="26.25" x2="224.75" y2="35.55"/>
<path style="fill:none;stroke:#000000;stroke-miterlimit:10;" d="M207.25,56c0,0-55.75,9.25-57,23.25"/>
<path style="fill:none;stroke:#000000;stroke-miterlimit:10;" d="M191.25,172.75c0,0,32,6.041,54.75-13.375"/>
<path style="fill:none;stroke:#000000;stroke-miterlimit:10;" d="M172.5,91c0,0,48.75-19.5,61.5-16.5"/>
<path style="fill:none;stroke:#000000;stroke-miterlimit:10;" d="M196.5,143.75c0,0,0.875,7.5,5.312,7.25s9.688-1.25,10.438-1
	s9,0.012,10.25,1.006s8-3.628,8-3.628l3.5-4.878"/>
<path style="fill:none;stroke:#000000;stroke-miterlimit:10;" d="M196.5,23.333c0,0,44.002,13.167,56.502,38.167"/>
<path style="fill:none;stroke:#000000;stroke-miterlimit:10;" d="M228.5,26.25c-9.793-12.166-33.332-13.75-33.332-13.75h-2.5
	c0,0-93.835,7.277-69.168,105.33"/>
<path style="fill:none;stroke:#000000;stroke-miterlimit:10;" d="M228.5,26.25c0,0,48.834,5.416,37.502,76.25l-0.252,26.25
	c0,0,14.25,39-6,61.25"/>
<polyline style="fill:none;stroke:#000000;stroke-miterlimit:10;" points="234.668,132.666 255.336,150 256.5,159.375 "/>
<path style="fill:none;stroke:#000000;stroke-miterlimit:10;" d="M182.168,173.639c0,0-4.332-9.641,4.168-15.307"/>
<path style="fill:none;stroke:#000000;stroke-miterlimit:10;" d="M181.063,191.832c0,0,17.104,18.666,28.604,18.833
	s19.168,0,19.168,0s18.747-3.832,30.914-20.665"/>
<polyline style="fill:none;stroke:#000000;stroke-miterlimit:10;" points="130.25,116.24 150.25,130.333 163.566,132.666 "/>
<polyline style="fill:none;stroke:#000000;stroke-miterlimit:10;" points="255.668,118.688 258,118.5 266.002,102.5 "/>
<path style="fill:none;stroke:#000000;stroke-miterlimit:10;" d="M163.002,127.333c-0.752,2.743,1.162,7.698,2.831,10
	c1.226,1.69,3.657,4.448,6.667,5.167c5.241,1.251,18.221,0.591,23.333-2c3.248-1.646,10.009-6.976,11.417-10.333
	c1.449-3.456-0.728-11.753-3.082-14.667c-2.168-2.68-4.362-2.578-6-2.667c-8.172-0.44-31.166,10-31.166,10
	S163.398,125.882,163.002,127.333z"/>
<path style="fill:none;stroke:#000000;stroke-miterlimit:10;" d="M218.504,115.5c-6.219-2.833-12.967,2.33-12.967,2.33"/>
<path style="fill:none;stroke:#000000;stroke-miterlimit:10;" d="M220.834,109.5"/>
<path style="fill:none;stroke:#000000;stroke-miterlimit:10;" d="M224.75,106.667c0,0-9.853,3.167-4.968,12.667
	c4.886,9.5,9.72,9.417,9.72,9.417s7.071,3.394,21.416-2.417c1.748-0.708,4.75-2.933,4.75-2.933l-1-13.9c0,0-1.835-8.5-9.334-7
	C235.847,104.396,224.75,106.667,224.75,106.667z"/>
<path style="fill:none;stroke:#000000;stroke-miterlimit:10;" d="M160.002,118.5c0,0,15.166-12.167,37.5-8.167"/>
<path style="fill:none;stroke:#000000;stroke-miterlimit:10;" d="M218.625,105.833c0,0,29.543-19.667,31.543-8.5"/>
<path style="fill:none;stroke:#000000;stroke-miterlimit:10;" d="M167.5,165.985c0,0-2.498,16.015,11.252,19.765"/>
<circle cx="186.653" cy="121.045" r="2.356"/>
<circle cx="239.653" cy="108.045" r="2.356"/>
<path style="fill:none;stroke:#000000;stroke-miterlimit:10;" d="M140.25,80.5l11,23.167c0,0-10.5,4.49-8,16.412"/>
<path style="fill:none;stroke:#000000;stroke-miterlimit:10;" d="M140.25,80.5c0,0,4.734-20.115,7.867-17.558
	s5.383,6.308,5.383,6.308s48.5-20.75,49.75-18s1.608-22.768,5.648-23.359"/>
<polyline style="fill:none;stroke:#000000;stroke-miterlimit:10;" points="152.602,179.591 140.25,191.832 27.333,228.334 
	11.333,277.001 "/>
<polyline style="fill:none;stroke:#000000;stroke-miterlimit:10;" points="160.438,196.892 189.01,251.667 200,287.667 "/>
<polyline style="fill:none;stroke:#000000;stroke-miterlimit:10;" points="264.002,294.739 263.082,185.75 275.333,196.892 
	391.333,233.667 395,300 "/>
</svg>
