<?xml version="1.0" encoding="iso-8859-1"?>
<!-- Generator: Adobe Illustrator 16.0.4, SVG Export Plug-In . SVG Version: 6.00 Build 0)  -->
<!DOCTYPE svg PUBLIC "-//W3C//DTD SVG 1.1//EN" "http://www.w3.org/Graphics/SVG/1.1/DTD/svg11.dtd">
<svg version="1.1" id="Layer_2" xmlns="http://www.w3.org/2000/svg" xmlns:xlink="http://www.w3.org/1999/xlink" x="0px" y="0px"
	 width="400px" height="300px" viewBox="0 0 400 300" style="enable-background:new 0 0 400 300;" xml:space="preserve">
<path style="fill:none;stroke:#000000;stroke-miterlimit:10;" d="M93.834,264.166c1.441-5.285,1.871-15.197,6.324-18.63
	c8.549-6.588,17.098-13.176,25.646-19.763c11.894-9.167,26.213-14.577,39.695-21.106c0,11.57,0,23.141,0,34.711
	c0,4.786-7,5.479-7,10.861c0,6.18-1.076,11.069-2.583,17.095"/>
<path style="fill:none;stroke:#000000;stroke-miterlimit:10;" d="M246.584,172.667c6.926,1.795,11.062,1.819,15.275,7.428
	c5.136,6.837,10.271,13.673,15.406,20.509c0.826,1.102,3.078,1.944,4.223,2.654c4.07,2.526,8.142,5.053,12.213,7.579
	c7.291,4.523,14.58,9.048,21.871,13.571c12.979,8.054,25.52,16.907,38.248,25.35c3.828,2.539,8.811,4.851,12.016,8.193
	c5.555,5.794,11.109,11.589,16.664,17.383"/>
<line style="fill:none;stroke:#000000;stroke-miterlimit:10;" x1="163.667" y1="172.667" x2="207" y2="170.332"/>
<path style="fill:none;stroke:#000000;stroke-miterlimit:10;" d="M131.678,118.605c-2.469-7.427-4.994-14.571-6.43-22.259
	c-1.367-7.327-0.748-14.968-0.748-22.411c0-6.184,2.374-12.621,4.937-18.169c2.178-4.714,4.355-9.429,6.533-14.144
	c1.005-2.176,1.757-5.395,3.703-6.91c6.587-5.131,12.142-10.957,20.296-12.921c6.841-1.647,15.09,0.608,21.383-1.812
	c3.713-1.428,7.752-3.7,11.648-4.48c3.52-0.704,7.262,0.391,10.826-0.41c3.59-0.808,6.855-2.242,10.396-1.159
	c2.837,0.868,8.618,1.413,10.761,3.502c4.844,4.725,12.857,9.986,16.031,15.947c4.35,8.174,8.701,16.348,13.052,24.522
	c7.35,13.809,9.075,27.434,10.921,42.661c1.059,8.734-12.252,4.009-15.244,9.729c-1.844,3.522-1.242,7.13-1.242,11.093
	c0,2.813,1.018,7.607-0.083,10.032c-0.92,2.025-6.917,5.396-6.917,1.679c0-4.066-0.44-8.389,0.039-12.428
	c0.398-3.354,0.798-6.708,1.195-10.062c0.609-5.11,0.246-6.823-1.664-11.608c-2.273-5.698-7.768-11.292-7.824-17.34
	c-0.082-8.747-0.164-17.494-0.245-26.241c-0.013-1.27-17.225-9.43-19.351-9.75c-3.09-0.466-7.772,1.316-10.828,1.833
	c-3.58,0.606-7.426,0.888-10.926,1.86c-7.936,2.205-15.869,4.409-23.805,6.614c-6.363,1.768-12.118,7.015-17.881,10.117
	c-5.799,3.121-13.711,8.771-13.711,16.229c0,7.45,0,14.9,0,22.351c0,6.568,0,13.138,0,19.706c0,5.327,2.477,10.991,3.833,16.122
	c-5.415,0.999-5.771-4.782-6.253-8.771c-0.645-5.332-0.824-8.536-3.663-13c20.313-1.998,40.626-3.997,60.94-5.995
	c11.006-1.083,22.014-2.166,33.021-3.248c1.742-0.172,3.485-0.332,5.227-0.521c4.141-0.449,9.065,4.009,12.607,6.034"/>
<path style="fill:none;stroke:#000000;stroke-miterlimit:10;" d="M194.75,144.001c7.844,6.552,18.719,12.442,22.249,22.334"/>
<path style="fill:none;stroke:#000000;stroke-miterlimit:10;" d="M246.584,152.5c-0.027,8.039-0.055,16.078-0.082,24.116
	c-0.01,2.666-2.113,6.122-3.02,8.587c-1.021,2.772-1.757,7.436-3.695,9.715c-5.848,6.872-11.693,13.745-17.541,20.617
	c-3.975,4.674-10.312,7.839-15.285,11.335c-4.274,3.004-8.549,6.009-12.822,9.013c-1.271,0.894-5.188,4.797-6.806,4.784
	c-2.016-0.017-7.416-6.507-8.949-7.852c-3.159-2.771-4.458-4.411-6.426-8.147c-2.169-4.117-2.458-5.661-2.458-10.348
	c0-4.691-1.338-7.104-3.406-11.406c-1.6-3.326-6.305-5.4-8.65-8.729c-3.713-5.272-6.337-11.312-8.604-17.321
	c-1.875-4.972-3.514-10.051-4.84-15.197"/>
<path style="fill:none;stroke:#000000;stroke-miterlimit:10;" d="M131.777,120.87c-4.637,5.548-1.138,15.895,1.301,21.993
	c2.936,7.34,5.423,12.969,10.922,18.803"/>
<path style="fill:none;stroke:#000000;stroke-miterlimit:10;" d="M138.349,134.703c3.336,1.895,7.185,5.275,11.081,5.426
	c5.498,0.212,9.518,0.81,14.529-1.334c9.139-3.909,6.541-15.584,6.541-23.795"/>
<path style="fill:none;stroke:#000000;stroke-miterlimit:10;" d="M187.5,113c0,4.028-1.18,14.727,1.584,18.084
	c3.283,3.99,12.979,2.416,17.416,2.416c3.055,0,6.109,0,9.164,0c4.471,0,3.575-1.195,4.447-5.556
	c1.139-5.694,0.389-12.14,0.389-17.944"/>
<path style="fill:none;stroke:#000000;stroke-miterlimit:10;" d="M142.001,111.667c0,0,16.666-13,26.333,0"/>
<path style="fill:none;stroke:#000000;stroke-miterlimit:10;" d="M190.667,105.889c0,0,22.831-7.778,26.332,0"/>
<path d="M163.489,122c0,4-6.354,4-6.354,0S163.489,118,163.489,122z"/>
<path d="M210.641,119c0,4-6.354,4-6.354,0S210.641,115,210.641,119z"/>
<path style="fill:none;stroke:#000000;stroke-miterlimit:10;" d="M261.334,106.336c1.809,5.032,4.52,11.512,3.086,16.805
	c-0.861,3.179-1.43,6.051-1.833,9.314c-0.304,2.455,0.114,8.296-1.382,10.303c-1.744,2.338-3.986,7.182-6.455,8.658
	c-0.774,0.463-8.078,0.775-8.21,1.238c-1.804,6.328-3.477,12.59-5.891,18.707c-2.989,7.577-5.104,11.315-10.592,17.289
	c-4.046,4.405-9.056,7.881-14.358,10.697c-2.967,1.576-6.449,4.312-9.699,5.152c-3.059,0.79-7.35,0-10.496,0
	c-6.502,0-13.003,0-19.504,0"/>
<line style="fill:none;stroke:#000000;stroke-miterlimit:10;" x1="170.5" y1="148.667" x2="190.667" y2="147.667"/>
</svg>
