<?xml version="1.0" encoding="iso-8859-1"?>
<!-- Generator: Adobe Illustrator 16.0.4, SVG Export Plug-In . SVG Version: 6.00 Build 0)  -->
<!DOCTYPE svg PUBLIC "-//W3C//DTD SVG 1.1//EN" "http://www.w3.org/Graphics/SVG/1.1/DTD/svg11.dtd">
<svg version="1.1" id="Layer_2" xmlns="http://www.w3.org/2000/svg" xmlns:xlink="http://www.w3.org/1999/xlink" x="0px" y="0px"
	 width="400px" height="300px" viewBox="0 0 400 300" style="enable-background:new 0 0 400 300;" xml:space="preserve">
<path style="fill:none;stroke:#000000;stroke-miterlimit:10;" d="M234.955,177.613l12.209,21.946l80.228,33.72l36.626,19.185
	c0,0,6.979,2.907,8.142,14.534"/>
<path style="fill:none;stroke:#000000;stroke-miterlimit:10;" d="M128.716,139.039l2.25-18.574l-1.2-21.497l4.634-12.976
	l9.865-9.491h8.14l3.486-6.344l10.465-3.608l5.231,3.428l4.652,0.552l4.068-0.597c0,0,8.139-0.008,12.209-3.496
	s5.233-5.817,5.233-5.817s9.302-4.072,11.626-0.002c2.325,4.07,0,6.395,0,6.395l4.069,11.627l8.14,1.743l5.232,5.814l3.842,17.441
	l3.842,6.395v21.8l3.145,1.745l2.855-4.36v-7.849l6-2.615v12.208v18.313c0,0-0.542,7.851-5.191,8.431
	c-4.65,0.581-4.631,0.597-4.631,0.597l-1.724,19.201h11.63l7.916-11.659v-6.104l-3.668-5.522l-0.963-5.232l2.606-6.976l2.024-8.43
	v-15.698l10.284-21.8l-6.194-5.232c0,0,1.845-30.812-15.016-43.021c-16.858-12.208-57.505-29.65-80.178-25.581
	c-22.674,4.07-17.415,8.14-17.415,8.14l-17.279,8.72c0,0-8.864,7.557-10.607,16.859c-1.744,9.302-8.718,18.604-8.718,18.604
	l-4.068,2.907l-2.904,8.139l2.907,9.302l1.744,12.789l5.231,5.232l0.583,5.814l0.581,6.395l4.068,8.43l6.396,9.011l1.163,5.814
	L128.716,139.039z"/>
<path style="fill:none;stroke:#000000;stroke-miterlimit:10;" d="M125.079,148.4c0,0,9.404,35.463,15.457,37.788
	c6.053,2.326,8.961,5.813,8.961,5.813l4.649,18.022"/>
<polyline style="fill:none;stroke:#000000;stroke-miterlimit:10;" points="161.179,201.688 172.751,210.5 183.798,210.5 
	201.236,210.117 210.54,201.688 "/>
<path style="fill:none;stroke:#000000;stroke-miterlimit:10;" d="M134.381,119.914c0,0,18.021-24.998,36.045-6.179"/>
<path style="fill:none;stroke:#000000;stroke-miterlimit:10;" d="M189.028,106.719c0,0,24.998-16.683,31.394,0"/>
<line style="fill:none;stroke:#000000;stroke-miterlimit:10;" x1="166.938" y1="177.613" x2="192.517" y2="172.817"/>
<polyline style="fill:none;stroke:#000000;stroke-miterlimit:10;" points="154.146,179.794 170.426,164.679 183.687,161.771 
	204.725,175.215 "/>
<polyline style="fill:none;stroke:#000000;stroke-miterlimit:10;" points="166.793,149.062 176.239,153.5 179.438,153.5 
	189.028,149.246 "/>
<circle cx="156.462" cy="119.661" r="2.055"/>
<circle cx="204.424" cy="115.301" r="2.055"/>
<polyline style="fill:none;stroke:#000000;stroke-miterlimit:10;" points="154.146,210.024 156.462,238.511 154.433,257.696 "/>
<path style="fill:none;stroke:#000000;stroke-miterlimit:10;" d="M225.075,257.696l6.396-16.278l6.976-14.824l-3.491-48.98
	c-1.744,16.278-13.371,35.318-13.371,35.318l-36.044,25.579l-18.604-13.952l-8.72-6.977l-4.069-7.558l-9.884,4.069l-52.903,18.604
	l-34.301,13.372l-10.941,11.627"/>
</svg>
