<?xml version="1.0" encoding="iso-8859-1"?>
<!-- Generator: Adobe Illustrator 16.0.4, SVG Export Plug-In . SVG Version: 6.00 Build 0)  -->
<!DOCTYPE svg PUBLIC "-//W3C//DTD SVG 1.1//EN" "http://www.w3.org/Graphics/SVG/1.1/DTD/svg11.dtd">
<svg version="1.1" id="Layer_2" xmlns="http://www.w3.org/2000/svg" xmlns:xlink="http://www.w3.org/1999/xlink" x="0px" y="0px"
	 width="400px" height="300px" viewBox="0 0 400 300" style="enable-background:new 0 0 400 300;" xml:space="preserve">
<polyline style="fill:none;stroke:#000000;stroke-miterlimit:10;" points="27.319,280.511 31.498,256.355 155.5,196.386 
	155.5,223.43 155.5,261 "/>
<polyline style="fill:none;stroke:#000000;stroke-miterlimit:10;" points="242.499,178.704 250.82,212.509 239.378,280.45 "/>
<ellipse style="fill:none;stroke:#000000;stroke-miterlimit:10;" cx="213.765" cy="111.614" rx="16.772" ry="16.123"/>
<ellipse style="fill:none;stroke:#000000;stroke-miterlimit:10;" cx="162.797" cy="111.614" rx="16.772" ry="16.123"/>
<path style="fill:none;stroke:#000000;stroke-miterlimit:10;" d="M141.5,117.335V85.09c0,0,3.693-36.405,18.255-39.006
	c14.562-2.6,46.312,0,46.312,0l16.136,2.081l20.289,20.803l2.604,48.367l5.723,3.12c0,0,5.721-19.243,10.922-18.723
	s4.681-81.652-57.208-84.253c-61.889-2.6-79.623,48.368-77.023,78.012C130.11,125.136,141.5,117.335,141.5,117.335z"/>
<path style="fill:none;stroke:#000000;stroke-miterlimit:10;" d="M143.685,123.056c0,0,17.683,71.771,35.885,73.331
	c18.203,1.56,24.964,0.52,30.165-4.681c5.201-5.201,29.644-48.864,29.644-48.864"/>
<line style="fill:none;stroke:#000000;stroke-miterlimit:10;" x1="159.061" y1="169.862" x2="155.646" y2="196.386"/>
<polyline style="fill:none;stroke:#000000;stroke-miterlimit:10;" points="155.646,190.666 195.404,225.511 239.378,190.666 
	242.499,178.704 261.742,200.027 378.239,255.675 385,290.001 "/>
<line style="fill:none;stroke:#000000;stroke-miterlimit:10;" x1="238.347" y1="144.676" x2="242.499" y2="178.704"/>
<path style="fill:none;stroke:#000000;stroke-miterlimit:10;" d="M148.625,97.051c0,0,17.423-18.202,27.044-1.56"/>
<path style="fill:none;stroke:#000000;stroke-miterlimit:10;" d="M198.553,92.765c0,0,6.761-12.08,24.703-4.287"/>
<circle cx="211.554" cy="108.233" r="3.381"/>
<circle cx="164.748" cy="108.233" r="3.38"/>
<path style="fill:none;stroke:#000000;stroke-miterlimit:10;" d="M155.646,110.313c0,0,4.94-14.822,15.602-4.16"/>
<path style="fill:none;stroke:#000000;stroke-miterlimit:10;" d="M202.453,108.233c0,0,7.542-11.182,19.503,0"/>
<path style="fill:none;stroke:#000000;stroke-miterlimit:10;" d="M133.201,115.899l7.103,23.538c0,0,3.322,4.62,5.72,2.601
	c2.399-2.019,2.399-2.019,2.399-2.019"/>
<path style="fill:none;stroke:#000000;stroke-miterlimit:10;" d="M175.409,161.689c13.543,6.9,16.363,5.404,32.505-1.637"/>
<path style="fill:none;stroke:#000000;stroke-miterlimit:10;" d="M262.707,102.224c0,0,8.396,8.35-1.745,24.473
	c-10.142,16.122-12.222,15.561-16.902,15.853c-4.681,0.292-4.681,0.292-4.681,0.292"/>
<path style="fill:none;stroke:#000000;stroke-miterlimit:10;" d="M195.404,126.35c0,0,3.235,3.12,3.149,3.987
	c-0.086,0.866-0.432,10.055-2.339,9.536"/>
<path style="fill:none;stroke:#000000;stroke-miterlimit:10;" d="M177.672,104.167c0,0,14.771-3.938,20.47,1.581"/>
<line style="fill:none;stroke:#000000;stroke-miterlimit:10;" x1="140.812" y1="102.224" x2="146.959" y2="106.304"/>
<line style="fill:none;stroke:#000000;stroke-miterlimit:10;" x1="228" y1="103.5" x2="244" y2="103.5"/>
<path style="fill:none;stroke:#000000;stroke-miterlimit:10;" d="M166.222,152.526l1.906,9.164c0,0,23.691-9.097,42.776-2.575
	c2.747,0.938,2.86-8.841,2.86-8.841S177.664,138.137,166.222,152.526z"/>
</svg>
