<?xml version="1.0" encoding="iso-8859-1"?>
<!-- Generator: Adobe Illustrator 16.0.4, SVG Export Plug-In . SVG Version: 6.00 Build 0)  -->
<!DOCTYPE svg PUBLIC "-//W3C//DTD SVG 1.1//EN" "http://www.w3.org/Graphics/SVG/1.1/DTD/svg11.dtd">
<svg version="1.1" id="Layer_2" xmlns="http://www.w3.org/2000/svg" xmlns:xlink="http://www.w3.org/1999/xlink" x="0px" y="0px"
	 width="400px" height="300px" viewBox="0 0 400 300" style="enable-background:new 0 0 400 300;" xml:space="preserve">
<polyline style="fill:none;stroke:#000000;stroke-miterlimit:10;" points="26,278.43 33.536,264.999 58.971,251.811 91,237.196 
	125.252,224.492 151.29,214.427 162.113,205.558 166.362,201.831 162.113,221.666 173.898,265.941 178.609,278.43 "/>
<polyline style="fill:none;stroke:#000000;stroke-miterlimit:10;" points="267.5,282 267.5,205.181 248.725,237.196 
	232.271,254.637 218.629,261.231 172.006,227.789 166.83,211.774 168.507,186.681 "/>
<polyline style="fill:none;stroke:#000000;stroke-miterlimit:10;" points="205,161.5 209.696,161.5 213.464,163.5 217.232,163.5 
	221,163.5 225.239,162.438 230.898,161.498 "/>
<path style="fill:none;stroke:#000000;stroke-miterlimit:10;" d="M157.884,107.5h3.768l4.848-10.653V74.709l8.996-15.072
	L192.5,51.63v5.181l14.841-5.311h7.065l3.533,2.42l20.018,2.387l16.015-1.867l10.362,3.776l10.833,11.309l9.892,15.545
	l-4.239,27.791l8.478,10.362l5.181-17.426c0,0,8.007-24.022-2.826-40.979c-10.833-16.957-31.558-40.759-48.043-40.759
	c-16.486,0-28.732-2.06-28.732-2.06s-26.848,8.434-36.268,16.912c-9.42,8.479-14.131,12.718-14.131,12.718
	s-11.775,18.515-10.833,27.464S157.884,107.5,157.884,107.5z"/>
<path style="fill:none;stroke:#000000;stroke-miterlimit:10;" d="M288.697,122.491l1.777,2.381l2.355-1.648c0,0,2.826-1.648,5.652,0
	s-1.155,13.896-1.155,13.896l-4.026,8.478l-1.413,7.449l-2.355,6.917c0,0,0,0-3.297,7.065c-3.297,7.065-10.428,4.945-10.428,4.945
	l-8.308,17.192v16.015l19.848,9.42l81.047,22.596"/>
<polyline style="fill:none;stroke:#000000;stroke-miterlimit:10;" points="195.145,180.38 217.232,182.5 239,182.5 "/>
<path style="fill:none;stroke:#000000;stroke-miterlimit:10;" d="M248.319,205.181c-2.355-0.472-6.594,6.594-39.094,6.594
	c-15.551,0-26.377-7.065-33.913-12.246c-7.536-5.182-13.198-40.979-13.198-40.979s-8.575,1.413-8.521-7.065
	c0.053-8.478,1.466-11.304,1.466-11.304l-1.466-12.247l-2.302-12.246c0,0-2.591-12.011,6.123-4.71l0.471-3.769l12.717,5.888
	c0,0,6.358-1.413,11.54-0.941c5.181,0.471,12.953,0.471,12.953,0.471l14.366,2.826c0,0,8.007,1.884,7.537,5.652
	c-0.471,3.768-2.355,8.007-2.355,8.007s-5.652,10.362-8.243,10.834c-2.59,0.471-6.774,0.941-6.774,0.941l-18.425-1.884
	c0,0-8.714-1.884-8.714-7.771s0.209-6.567,0.471-8.74c0.388-3.216,3.216-9.722,6.749-10.428"/>
<path style="fill:none;stroke:#000000;stroke-miterlimit:10;" d="M217,121.5h11.5v5.021c0,0,5.199,16.721,10.38,17.662
	c5.181,0.942,20.027,3.198,20.027,3.198s11.544,1.276,14.842-9.085c3.297-10.363,2.357-18.135-3.53-18.605
	s-21.901-2.591-21.901-2.591s-17.536-2.587-20.362,4.319"/>
<line style="fill:none;stroke:#000000;stroke-miterlimit:10;" x1="183.083" y1="107.209" x2="211.344" y2="113.804"/>
<line style="fill:none;stroke:#000000;stroke-miterlimit:10;" x1="244" y1="115.5" x2="262" y2="115.5"/>
<path d="M199.794,122c0,4-5.986,4-5.986,0S199.794,118,199.794,122z"/>
<path d="M251.749,126c0,3-5.985,3-5.985,0C245.763,122,251.749,122,251.749,126z"/>
</svg>
