<?xml version="1.0" encoding="iso-8859-1"?>
<!-- Generator: Adobe Illustrator 16.0.4, SVG Export Plug-In . SVG Version: 6.00 Build 0)  -->
<!DOCTYPE svg PUBLIC "-//W3C//DTD SVG 1.1//EN" "http://www.w3.org/Graphics/SVG/1.1/DTD/svg11.dtd">
<svg version="1.1" id="Layer_2" xmlns="http://www.w3.org/2000/svg" xmlns:xlink="http://www.w3.org/1999/xlink" x="0px" y="0px"
	 width="400px" height="300px" viewBox="0 0 400 300" style="enable-background:new 0 0 400 300;" xml:space="preserve">
<path style="fill:none;stroke:#000000;stroke-miterlimit:10;" d="M56.719,273.001l8-37.334l10.666-4.666l76.667-24.667L170.385,184
	c0,0,5.001,35.667,14.334,40.334s9.333,4.667,9.333,4.667l19.667,19.666"/>
<path style="fill:none;stroke:#000000;stroke-miterlimit:10;" d="M213.719,248.667c0,0,13-23.666,28-28.666S245.386,184,245.386,184
	l15.333,13.001l101.334,31.666l24,64.667"/>
<path style="fill:none;stroke:#000000;stroke-miterlimit:10;" d="M154.719,109.329c0,0-16.666-82.995,57.333-94.995
	c0,0,60.333,22.001,58.667,63.667l-2.666,28l-3.334,8.333l-4.666,7.333L256.552,125v-23.666c-7-5-7.521-21.958-7.521-21.958
	c-14.666-3-23.52-12.292-23.52-12.292c-9,4.667-51.543,0.084-51.543,0.084l-14.249,30.166l3,17.667l-2.333,6.333L154.719,109.329
	c0,0-3.667-6.513-5-3.254s0,11.259,0,11.259s4.167,25.333,8.501,24.333c4.332-1,2.332,0.028,2.332,0.028v4.388
	c0,0,3.729,55.417,39.448,55.417c16.427,0,15.052,0,15.052,0s36.667-3,39.667-51h4.333c0,0,4.334,0.167,7.334-7.166
	s4.367-12.667,4.367-12.667l3.3-13.666c0,0,1.4-6-3.3-7s-4.7,2.333-4.7,2.333"/>
<path style="fill:none;stroke:#000000;stroke-miterlimit:10;" d="M168.719,113.334c0,0,8.333-16.333,28,0"/>
<path style="fill:none;stroke:#000000;stroke-miterlimit:10;" d="M210.235,113.334c0,0,20.483-15.374,35.15-3.521"/>
<path style="fill:none;stroke:#000000;stroke-miterlimit:10;" d="M184.386,166.001c0,0,29.333,3.334,39,0"/>
<path style="fill:none;stroke:#000000;stroke-miterlimit:10;" d="M193.719,145.667c0,0,15.668-4.332,21.334,1.334"/>
<path d="M184.685,116c0,3-4.889,3-4.889,0S184.685,113,184.685,116z"/>
<path d="M229.896,116c0,4-4.89,4-4.89,0C225.006,113,229.896,113,229.896,116z"/>
</svg>
