<?xml version="1.0" encoding="iso-8859-1"?>
<!-- Generator: Adobe Illustrator 16.0.4, SVG Export Plug-In . SVG Version: 6.00 Build 0)  -->
<!DOCTYPE svg PUBLIC "-//W3C//DTD SVG 1.1//EN" "http://www.w3.org/Graphics/SVG/1.1/DTD/svg11.dtd">
<svg version="1.1" id="Layer_2" xmlns="http://www.w3.org/2000/svg" xmlns:xlink="http://www.w3.org/1999/xlink" x="0px" y="0px"
	 width="400px" height="300px" viewBox="0 0 400 300" style="enable-background:new 0 0 400 300;" xml:space="preserve">
<path style="fill:none;stroke:#000000;stroke-miterlimit:10;" d="M255.5,173.806c-4.869,6.585-6,8.952-6,8.952s0,25.246,2.25,25.996
	s17.854,66.261,17.854,66.261"/>
<path style="fill:none;stroke:#000000;stroke-miterlimit:10;" d="M260.75,143c-2.275,6.913-2.653,27.295-5.25,30.806"/>
<path style="fill:none;stroke:#000000;stroke-miterlimit:10;" d="M269.322,133.83"/>
<path style="fill:none;stroke:#000000;stroke-miterlimit:10;" d="M146.5,98v48l-4.25-7l-5.875-14l-3.562-12L128.5,99.5v-6H127
	l-1.75-1.75c0,0,6.75-75.375,65.75-76.125s78.5,25.438,81.25,39.688s2.25,52.219,2.25,52.219s-0.827,9.062-5.178,26.299"/>
<path style="fill:none;stroke:#000000;stroke-miterlimit:10;" d="M146.5,98l8-19.25V89l5.25-1.75l2.5-5L164,86l4.75-4.625L176,70.5
	h7l2.25,3.5l5.5-0.25l2.75,3.75l2.75,2.5l4.75,1.812l-2.75-9.312c0,0,3.75-1.25,12.5,7s3.5,1,3.5,1l-2.25-10l2.25-4.5l9.5,11.5
	l6.75,0.75l-5.75-17.5L238.5,83l2-6.062l4.25,2.812L250.5,85v-8l9,16.156V110l0.75,15.5l0.5,17.5l8.854-9.605"/>
<path style="fill:none;stroke:#000000;stroke-miterlimit:10;" d="M182.5,166c0,0,39-2.5,49.5-1.75"/>
<path style="fill:none;stroke:#000000;stroke-miterlimit:10;" d="M134.536,118.806c0,0-5.536,7.069-1.786,14.569
	s7.664,19.912,12.5,24.938c1.336,1.389,5.568,2.196,6.75,3.719c2.651,3.417,3.263,12.643,5.25,16.484
	c2.398,4.637,9.586,12.706,14,15.492c4.799,3.028,16.135,5.672,21.75,6.492c5.938,0.867,18.102,1.102,24,0
	c2.043-0.382,32.5-15.665,32.5-17.742"/>
<polyline style="fill:none;stroke:#000000;stroke-miterlimit:10;" points="163.5,186 163.5,201 177.916,228.5 185.5,266.75 "/>
<path style="fill:none;stroke:#000000;stroke-miterlimit:10;" d="M165,120.5c0,0,13.75-16.75,27.75,0"/>
<path style="fill:none;stroke:#000000;stroke-miterlimit:10;" d="M218,116.5c0,0,13.75-16.75,27.75,0"/>
<circle cx="233" cy="114.806" r="3.75"/>
<circle cx="178" cy="118.806" r="3.75"/>
<path style="fill:none;stroke:#000000;stroke-miterlimit:10;" d="M157,111.056c0,0,20-22.194,37.5,2"/>
<path style="fill:none;stroke:#000000;stroke-miterlimit:10;" d="M218,104.75c0,0,20.25-17.889,32.5,4.306"/>
<path style="fill:none;stroke:#000000;stroke-miterlimit:10;" d="M194.5,138.5c0,0-10,4.75-3.25,11.75"/>
<path style="fill:none;stroke:#000000;stroke-miterlimit:10;" d="M163.5,202L149,215.333c0,0-62.035-6.946-79.666,2.334
	c-18.998,9.999-47.885,64.267-47.885,64.267"/>
<path style="fill:none;stroke:#000000;stroke-miterlimit:10;" d="M249.5,189c0,0,8.781,5.059,11.25,7.333
	c5.275,4.859,17.584,22.667,17.584,22.667s59.766-0.271,74.999,11c12.675,9.379,25.396,51.934,25.396,51.934"/>
</svg>
