<?xml version="1.0" encoding="iso-8859-1"?>
<!-- Generator: Adobe Illustrator 16.0.4, SVG Export Plug-In . SVG Version: 6.00 Build 0)  -->
<!DOCTYPE svg PUBLIC "-//W3C//DTD SVG 1.1//EN" "http://www.w3.org/Graphics/SVG/1.1/DTD/svg11.dtd">
<svg version="1.1" id="Layer_2" xmlns="http://www.w3.org/2000/svg" xmlns:xlink="http://www.w3.org/1999/xlink" x="0px" y="0px"
	 width="400px" height="300px" viewBox="0 0 400 300" style="enable-background:new 0 0 400 300;" xml:space="preserve">
<path style="fill:none;stroke:#000000;stroke-miterlimit:10;" d="M17.584,287.121l23.209-58.6c0,0,5.271-20.19,29.938-24.19
	s24.636-4.021,24.636-4.021l28.651-6.01l20.241-7.34l6.241,6.662v12.33l8.836,39.67"/>
<path style="fill:none;stroke:#000000;stroke-miterlimit:10;" d="M217.336,275.623c2.309-16.376,0.592-41.982,9.897-55.812
	c6.513-9.68,13.024-19.357,19.536-29.037c4.99-7.418,17.66,0.265,25.405,2.356c24.097,6.508,43.363-3.763,61.181,16.868
	c12.262,14.198,18.604,37.336,26.646,54.292"/>
<path style="fill:none;stroke:#000000;stroke-miterlimit:10;" d="M137.581,189.383l-18.248-10.429c0,0-18-8.334-14-44.667
	s6.334-49.333,6.334-49.333S116,57.62,142,39.287s24-16.666,24-16.666s21-4.411,33.5-0.039s23.833,10.372,23.833,10.372l29,24.333
	c0,0,17,18.667,17.667,49.667s0,22.333,0,22.333s7,18.667-4,28.667s-15.333,11-15.333,11l-3.897,21.819"/>
<path style="fill:none;stroke:#000000;stroke-miterlimit:10;" d="M166.666,177.624c0,0,17.334,12.329,44.334,2.663"/>
<path style="fill:none;stroke:#000000;stroke-miterlimit:10;" d="M250.667,168.954l0.666-3.333l-3.667-1.334l-0.333-4.333
	l-9.667-3.333l9.667-11L255,123.644l-6-4.356l-7.334-4.666l-14-4.667l-10.33-4.333l-6.336,6l-5.334-5.334l-3.333-2.482L192,101.287
	l-6.334-2.666l-6.666,1l-6-2.334l-9.667,6.518c0,0-8.333,2.816-24,12.482S131,150,131,150l4.666,18.287L143,186.961"/>
<path style="fill:none;stroke:#000000;stroke-miterlimit:10;" d="M177.5,159.62c0,0-3.667-4.666,0-6s4.833,0,4.833,0l2,2.704
	c0,0,2.282,2.795,4.142,1.962c1.858-0.833,2.358-3,2.358-3s2.666-2.332,4-1.166s2.5,2.204,2.5,2.204s1.5,1.796-0.833,3.296"/>
<path style="fill:none;stroke:#000000;stroke-miterlimit:10;" d="M177,115.286c0,0-19.016-9.608-25.645-5.92"/>
<path style="fill:none;stroke:#000000;stroke-miterlimit:10;" d="M200.667,113.953c0,0,25.167-5,29.5,2.5"/>
<path style="fill:none;stroke:#000000;stroke-miterlimit:10;" d="M150.5,193.623c0,0,10.987,13.428,16.166,17.663
	c4.379,3.581,14.619,8.668,25.477,5.334c10.856-3.334,18.857-8.094,18.857-8.094l10.333-5.24l12-14l2.333-8.48l2.333-4.853"/>
<path d="M162.489,122c0,4-6.354,4-6.354,0S162.489,118,162.489,122z"/>
<path d="M218.641,124c0,4-6.354,4-6.354,0S218.641,120,218.641,124z"/>
</svg>
