<?xml version="1.0" encoding="iso-8859-1"?>
<!-- Generator: Adobe Illustrator 16.0.4, SVG Export Plug-In . SVG Version: 6.00 Build 0)  -->
<!DOCTYPE svg PUBLIC "-//W3C//DTD SVG 1.1//EN" "http://www.w3.org/Graphics/SVG/1.1/DTD/svg11.dtd">
<svg version="1.1" id="Layer_2" xmlns="http://www.w3.org/2000/svg" xmlns:xlink="http://www.w3.org/1999/xlink" x="0px" y="0px"
	 width="400px" height="300px" viewBox="0 0 400 300" style="enable-background:new 0 0 400 300;" xml:space="preserve">
<path style="fill:none;stroke:#000000;stroke-miterlimit:10;" d="M18.449,276.798l14.179-27.967l121.872-34.39v-20.339
	c0,0-6.98-23.552-8.05-26.228c-1.071-2.676-6.11,0.553-8.04,0c-4.55-1.305-13.354-25.93-13.059-34.76
	c0.268-8.028,4.487-10.201,4.487-10.201l-1.875-13.353c0,0-2.063-23.104,0.267-30.538c5.62-17.931,17.785-31.632,26.227-40.144
	c4.49-4.526,15.751-10.477,22.48-12.043c9.817-2.285,31.289-1.448,41.214,1.338c6.457,1.812,19.024,8.515,24.622,13.649
	c5.102,4.681,11.688,12.82,13.917,16.324c4.148,6.522,7.493,27.298,7.493,27.298l1.606,19.27c0,0,4.169,0.363,5.352,1.041
	c1.403,0.803,2.761,5.436,3.211,6.987c2.804,9.651-2.943,31.58-2.943,31.58s-1.093,3.65-1.874,4.282
	c-0.745,0.602-1.693,3.812-3.211,4.817c-2.439,1.617-10.624,0-10.624,0L251.5,166.57v8.53l0.721,24.89l10.129,16.593l55.244,17.663
	l50.906,24.621l9.127,8.029l5.367,22.48"/>
<line style="fill:none;stroke:#000000;stroke-miterlimit:10;" x1="146.428" y1="270.107" x2="152.893" y2="214.883"/>
<line style="fill:none;stroke:#000000;stroke-miterlimit:10;" x1="192.459" y1="242.495" x2="154.457" y2="214.441"/>
<polyline style="fill:none;stroke:#000000;stroke-miterlimit:10;" points="162.485,194.638 176.938,203.201 192.459,206.413 
	208.517,203.201 226.18,194.638 "/>
<path style="fill:none;stroke:#000000;stroke-miterlimit:10;" d="M180.149,167.875c0,0,24.086-4.282,33.453-1.873"/>
<path style="fill:none;stroke:#000000;stroke-miterlimit:10;" d="M185.233,106.589c0,0,15.522-1.672,17.396,0.202"/>
<path style="fill:none;stroke:#000000;stroke-miterlimit:10;" d="M183.896,144.324c0,0,18.734,4.817,24.086,0"/>
<path style="fill:none;stroke:#000000;stroke-miterlimit:10;" d="M144.555,58.952c0,0,34.791-51.384,93.937-13.649"/>
<path style="fill:none;stroke:#000000;stroke-miterlimit:10;" d="M150.175,100.701c0,0-8.365,3.819-10.571,5.888
	c-1.51,1.416-0.47,4.144-0.669,6.202c-0.768,7.924,11.273,25.11,17.931,26.181c6.177,0.993,9.958-0.683,15.79-2.944
	c2.175-0.842,7.218-2.943,7.218-2.943c1.676-1.737,4.396-5.815,5.36-8.029c1.044-2.396,2.409-10.169,2.409-10.169
	s-1.426-11.345-3.747-14.185c-1.84-2.251-7.874-3.887-10.705-4.55c-2.606-0.61-8.07-0.472-10.705,0
	C159.255,96.729,150.175,100.701,150.175,100.701z"/>
<path style="fill:none;stroke:#000000;stroke-miterlimit:10;" d="M202.5,104.181v9.634c0,0,0.977,9.101,2.206,11.775
	c0.92,2.006,4.582,5.755,4.582,5.755s7.535,2.976,10.186,3.345c2.072,0.289,6.111-0.251,8.305-1.07
	c3.06-1.144,8.483-5.369,10.709-7.761c1.541-1.656,3.487-5.096,4.551-7.093c1.351-2.534,3.831-7.906,4.015-11.106
	c0.142-2.439-0.419-8.312-2.14-10.304c-1.292-1.495-4.325-3.226-6.422-3.797c-2.582-0.705-10.705-2.059-10.705-2.059h-9.635
	c0,0-8.801,3.245-10.234,3.969C204.5,97.192,202.5,104.181,202.5,104.181z"/>
<line style="fill:none;stroke:#000000;stroke-miterlimit:10;" x1="246.589" y1="99.192" x2="255.386" y2="104.716"/>
<line style="fill:none;stroke:#000000;stroke-miterlimit:10;" x1="138.834" y1="110.269" x2="135.649" y2="113.279"/>
<path style="fill:none;stroke:#000000;stroke-miterlimit:10;" d="M152.851,113.279c0,0,11.508-14.986,24.086-2.408"/>
<path style="fill:none;stroke:#000000;stroke-miterlimit:10;" d="M213.602,105.757c0,0,20.607-5.802,21.678,3.805"/>
<circle cx="166.396" cy="116.004" r="2.522"/>
<circle cx="223.133" cy="112.793" r="2.522"/>
<polyline style="fill:none;stroke:#000000;stroke-miterlimit:10;" points="215.476,242.495 245.449,217.118 249.731,199.99 "/>
<path style="fill:none;stroke:#000000;stroke-miterlimit:10;" d="M260,118.5h-4.5v-8.967c0,0-0.125-50.379-17.019-64.029"/>
<path style="fill:none;stroke:#000000;stroke-miterlimit:10;" d="M259.901,118.632c0,0-0.535-13.381,5.888-13.916"/>
<path style="fill:none;stroke:#000000;stroke-miterlimit:10;" d="M129.835,122.914l6.958,13.113l4.549,1.606l-2.574-6.691
	c0,0-13.216-54.327,5.785-71.99"/>
</svg>
