<?xml version="1.0" encoding="iso-8859-1"?>
<!-- Generator: Adobe Illustrator 16.0.4, SVG Export Plug-In . SVG Version: 6.00 Build 0)  -->
<!DOCTYPE svg PUBLIC "-//W3C//DTD SVG 1.1//EN" "http://www.w3.org/Graphics/SVG/1.1/DTD/svg11.dtd">
<svg version="1.1" id="Layer_2" xmlns="http://www.w3.org/2000/svg" xmlns:xlink="http://www.w3.org/1999/xlink" x="0px" y="0px"
	 width="400px" height="300px" viewBox="0 0 400 300" style="enable-background:new 0 0 400 300;" xml:space="preserve">
<path style="fill:none;stroke:#000000;stroke-miterlimit:10;" d="M118.073,136.681c0,0,9.796-18.256,33.618-3.562"/>
<path style="fill:none;stroke:#000000;stroke-miterlimit:10;" d="M169.726,132.673c0,0,21.818-18.702,34.731-9.351"/>
<line style="fill:none;stroke:#000000;stroke-miterlimit:10;" x1="179.967" y1="153.602" x2="199.114" y2="178.092"/>
<polyline style="fill:none;stroke:#000000;stroke-miterlimit:10;" points="230.001,158.5 237.853,158.5 253.438,163.398 
	269.913,172.748 297.966,186.552 322.011,195.013 351.399,213.714 366.017,227.072 369.501,234.196 369.501,252 "/>
<polyline style="fill:none;stroke:#000000;stroke-miterlimit:10;" points="126.26,187.152 55.958,220.836 49.501,228.408 
	49.501,239.54 49.501,252 "/>
<circle cx="138.692" cy="138.947" r="2.099"/>
<circle cx="189.454" cy="132.713" r="2.099"/>
<path style="fill:none;stroke:#000000;stroke-miterlimit:10;" d="M146.127,187.156c0,0,38.013-1.05,45.426-2.831"/>
<polyline style="fill:none;stroke:#000000;stroke-miterlimit:10;" points="151.691,172.155 162.751,176.607 177.49,170.374 "/>
<path style="fill:none;stroke:#000000;stroke-miterlimit:10;" d="M156.367,215.495l33.396,0.445c0,0,12.468-6.234,17.812-16.03"/>
<path style="fill:none;stroke:#000000;stroke-miterlimit:10;" d="M241.359,99.778l4.063,6.734l-2.031,34.985
	c0,0-3.312,9.002-10.437,9.002h-2.454v24.92l-8.568,17.366l-32.561,39.185l-9.823,4.452l-8.629-4.007l-14.419-12.913v-4.008
	l-6.301-4.008l-10.721-5.788l-9.367-12.69l-8.919-15.362l-6.692-21.819v-6.233l-4.447-7.57c0,0-2.67-6.234-5.342-12.468
	s0.002-15.14,0.002-15.14c-2.672-7.57-1.188-39.63-1.188-39.63l3.416-4.453c55.659-77.924,89.501-33.493,89.501-33.493l4.661,0.988
	c20.483-6.679,33.159,22.709,33.159,22.709l7.097,18.702l-0.501,14.249l-0.33,4.898c-11.577,0.445-16.027,28.052-16.027,28.052
	v7.061h-3v-7.061l-8.529-22.14c0,0-3.601-10.365-14.732-22.833s-31.643,0-31.643,0l-6.715,3.562l-7.185-0.445
	c0,0-1.895-3.132-7.237-3.117c-32.072,0.089-31.839,39.63-31.839,39.63l0.89,28.498"/>
</svg>
