<?xml version="1.0" encoding="iso-8859-1"?>
<!-- Generator: Adobe Illustrator 16.0.4, SVG Export Plug-In . SVG Version: 6.00 Build 0)  -->
<!DOCTYPE svg PUBLIC "-//W3C//DTD SVG 1.1//EN" "http://www.w3.org/Graphics/SVG/1.1/DTD/svg11.dtd">
<svg version="1.1" id="Layer_2" xmlns="http://www.w3.org/2000/svg" xmlns:xlink="http://www.w3.org/1999/xlink" x="0px" y="0px"
	 width="400px" height="300px" viewBox="0 0 400 300" style="enable-background:new 0 0 400 300;" xml:space="preserve">
<polyline style="fill:none;stroke:#000000;stroke-miterlimit:10;" points="246.811,178.719 268.433,184.179 298.298,198.125 
	322.303,206.5 329.632,206.5 335.788,206.5 347.516,229.514 "/>
<path style="fill:none;stroke:#000000;stroke-miterlimit:10;" d="M168.501,239v-26.787v-28.145
	c-9,0.878-91.878,31.432-91.878,31.432h-7.622l-13.5,5.509v9.676l-5.233,13.999l-4.409,13.54"/>
<polyline style="fill:none;stroke:#000000;stroke-miterlimit:10;" points="224.97,260.002 230.247,238.308 234.351,224.06 
	243.731,211.335 246.811,181.432 252.527,155.046 257.805,159.15 262.495,157.978 267.187,151.527 270.705,134.816 "/>
<path style="fill:none;stroke:#000000;stroke-miterlimit:10;" d="M143.904,122.722c0,1.525-2.553,3.874-2.931,5.352
	c-0.417,1.633-0.542,5.146,0,6.741c0.387,1.138,2.312,2.783,2.933,3.813c1.319,2.192,2.903,7.134,4.251,9.308
	c0.981,1.584,3.01,4.875,4.691,5.678c0.595,0.283,2.638-0.113,2.638-0.113h3.518c0,0-1.467,4.367,0,7.297
	c1.467,2.932,3.227,8.852,3.227,8.852l4.104,9.042l2.784,5.364"/>
<path style="fill:none;stroke:#000000;stroke-miterlimit:10;" d="M182.753,172.05c0,0,15.831,23.453,42.217,0"/>
<path style="fill:none;stroke:#000000;stroke-miterlimit:10;" d="M169.118,115.76c0,0,21.257-8.795,22.43,0"/>
<path style="fill:none;stroke:#000000;stroke-miterlimit:10;" d="M216.175,122.722c0,0,19.056-15.906,30.636,0"/>
<path style="fill:none;stroke:#000000;stroke-miterlimit:10;" d="M200.929,163.841c0,0,14.658,1.389,15.246-10.445"/>
<polyline style="fill:none;stroke:#000000;stroke-miterlimit:10;" points="169.118,183.932 191.548,211.5 210.017,211.5 
	240.214,189.287 "/>
<path style="fill:none;stroke:#000000;stroke-miterlimit:10;" d="M143.632,122.722c-8.943-13.578-2.794-43.792-2.794-43.792
	s-13.857-8.905,6.665-33.532c20.521-24.626,56.324-28.73,56.324-28.73l23.471,8.795l27.567,18.763l25.217,16.418l4.692,7.036
	c0,0-2.345,7.036-4.689,1.172s-4.104-2.931-4.104-2.931l8.796,29.317l-6.45,39.701l-3.227,0.561h-7.328l-7.32,5.814l-3.951-2.981
	v-10.845l-1.985-15.636l-3.89-7.379l-4.316-8.647l-6.809-2.348v-9.966l-8.363-2.932l-17.525,9.968l11.25-12.693l-8.689,0.645
	h-12.312l-21.36,5.303v-6.155l-9,2.637v9.677l-4.206-4.105l-6.755,14.072l-8.039,19.055v12.313L143.632,122.722z"/>
<ellipse cx="181.308" cy="126.062" rx="3.106" ry="2.511"/>
<ellipse cx="230.727" cy="129.272" rx="3.105" ry="2.513"/>
<path style="fill:none;stroke:#000000;stroke-miterlimit:10;" d="M171.317,125.88c0,0,13.486-11.533,17.884,2.512"/>
<path style="fill:none;stroke:#000000;stroke-miterlimit:10;" d="M221.158,128.392c0,0,13.484-10.777,17.003,2.513"/>
</svg>
