<?xml version="1.0" encoding="iso-8859-1"?>
<!-- Generator: Adobe Illustrator 16.0.4, SVG Export Plug-In . SVG Version: 6.00 Build 0)  -->
<!DOCTYPE svg PUBLIC "-//W3C//DTD SVG 1.1//EN" "http://www.w3.org/Graphics/SVG/1.1/DTD/svg11.dtd">
<svg version="1.1" id="Layer_2" xmlns="http://www.w3.org/2000/svg" xmlns:xlink="http://www.w3.org/1999/xlink" x="0px" y="0px"
	 width="400px" height="300px" viewBox="0 0 400 300" style="enable-background:new 0 0 400 300;" xml:space="preserve">
<path style="fill:none;stroke:#000000;stroke-miterlimit:10;" d="M54.499,243v-21l23.25-13l31.625-13l30.062-19.5
	c0,0,19.531,38.75,25.531,40.25s11.266,2,13.266,1.75s10.258-1,10.258-1s36.004-12,40.254-39s4.002-28.125,4.002-28.125
	l0.005-18.875c0,0,0.797-0.665,1.247-1c1.047-0.779,2.5-4.001,2.5-4.001V112v-11c0,0-1.25-2.75-5.5-3"/>
<path style="fill:none;" d="M122.249,60.5c0,0-3.75,24.25,1.5,48.5"/>
<path style="fill:none;stroke:#000000;stroke-miterlimit:10;" d="M168.249,166.5c0,0,25.252,0.25,31.751-4.75"/>
<polyline style="fill:none;stroke:#000000;stroke-miterlimit:10;" points="171.249,148.5 175.999,144.5 181.249,146.5 
	186.249,143.25 191.499,145.875 "/>
<path style="fill:none;stroke:#000000;stroke-miterlimit:10;" d="M139.521,176.5c-3.016-9.877-6.031-19.753-9.048-29.63
	c-0.399-1.307-0.591-2.231-1.468-3.271c-2.723-3.229-4.564-5.594-5.48-9.907c-0.91-4.284-1.098-8.706-1.156-13.072
	c-0.04-3.061-0.61-7.59,2.719-9.248c-0.309,0.153-2.821-9.337-2.919-9.781c-1.683-7.689-2.578-15.634-2.159-23.507
	c1.065-20.053,15.273-36.021,29.18-49.359c2.863-2.745,4.163-3.606,7.912-4.733c6.695-2.012,13.609-4.308,20.576-5.131
	c3.717-0.439,7.652,0.142,11.354,0.516c2.217,0.224,4.613,0.088,6.523,1.287c6.805,4.275,13.227,8.654,18.955,14.385
	c11.302,11.307,18.988,26.063,20.377,42.093c0.331,3.818,0.344,7.705-0.169,11.509c-0.397,2.95-2.434,5.618-3.78,8.213
	c-1.063,2.046-2.126,4.093-3.188,6.139c-1.628-7.769-3.256-15.538-4.884-23.307c-0.378-1.802-0.752-3.502-1.342-5.245
	c-1.869-5.522-3.722-13.969-8.397-17.708c-6.01-4.807-16.788-3.521-23.634-1.185c-3.673,1.254-7.236,3.043-10.814,4.548
	c-2.809,1.181-5.146,3.944-7.459,5.896c-1.067-3.934-1.555-10.11-6.471-10.415c-2.398-0.148-4.836,0.198-7.193,0.606
	c-0.675,0.117-3.514,0.24-3.953,0.841c-4.42,6.03-8.84,12.062-13.26,18.092c-1.697,2.316-5.454,4.104-7.772,5.825
	c-1.14,0.845-1.536,6.12-1.855,7.438c-1.849,7.648-3.698,15.298-5.547,22.946"/>
<path style="fill:none;stroke:#000000;stroke-miterlimit:10;" d="M143.999,143.5h12c0,0,12.084-3.166,15.167-10.499
	s3.333-10.667,3.333-10.667V111l-6.15-2.34l-25.159,2.041l-5.524,1.3C137.665,112.001,137.666,143.5,143.999,143.5z"/>
<line style="fill:none;stroke:#000000;stroke-miterlimit:10;" x1="137.999" y1="112.5" x2="123.749" y2="109"/>
<path style="fill:none;stroke:#000000;stroke-miterlimit:10;" d="M141.998,100.497c0,0,21.166-16.5,24.833,0"/>
<path style="fill:none;stroke:#000000;stroke-miterlimit:10;" d="M188.498,100.497c0,0,13.334-16.167,27.167-3.667"/>
<path style="fill:none;stroke:#000000;stroke-miterlimit:10;" d="M174.499,111l8.25-0.654c0.834-1.667,8.75-3.484,8.75-3.484
	s11.332-0.969,18.666-1.969s11.333,9.729,11.333,9.729s0,3.958-1,13.792s-8.499,9.086-8.499,9.086h-6.834c0,0-0.25-0.085-8.25-0.418
	S182.499,113,182.499,113v-2"/>
<line style="fill:none;stroke:#000000;stroke-miterlimit:10;" x1="215.665" y1="106.421" x2="227.748" y2="103"/>
<polyline style="fill:none;stroke:#000000;stroke-miterlimit:10;" points="230.599,166.502 332.999,194.5 342.499,200.5 
	352.499,238.667 "/>
<path style="fill:none;stroke:#000000;stroke-miterlimit:10;" d="M164.666,195.834c0,0,5.668,14.999,14.834,14.333
	s11.833,0.021,11.833,0.021s13.833-2.021,17.5-16.188"/>
<path d="M158.685,119c0,3-4.889,3-4.889,0S158.685,116,158.685,119z"/>
<path d="M204.896,112c0,4-4.89,4-4.89,0C200.006,109,204.896,109,204.896,112z"/>
</svg>
