<?xml version="1.0" encoding="iso-8859-1"?>
<!-- Generator: Adobe Illustrator 16.0.4, SVG Export Plug-In . SVG Version: 6.00 Build 0)  -->
<!DOCTYPE svg PUBLIC "-//W3C//DTD SVG 1.1//EN" "http://www.w3.org/Graphics/SVG/1.1/DTD/svg11.dtd">
<svg version="1.1" id="Layer_2" xmlns="http://www.w3.org/2000/svg" xmlns:xlink="http://www.w3.org/1999/xlink" x="0px" y="0px"
	 width="400px" height="300px" viewBox="0 0 400 300" style="enable-background:new 0 0 400 300;" xml:space="preserve">
<polyline style="fill:none;stroke:#000000;stroke-miterlimit:10;" points="47.501,237 47.501,222.34 55.56,213.901 110.931,188.582 
	136.365,179.579 162.687,164.414 "/>
<polyline style="fill:none;stroke:#000000;stroke-miterlimit:10;" points="264.414,161.012 343.538,194.987 356.477,200.472 
	360.979,210.525 363.793,239.22 "/>
<path style="fill:none;stroke:#000000;stroke-miterlimit:10;" d="M203.001,208.5h26.881h5.064l29.423-47.867l2.132-8.342V149.5
	h3.047c0,0,1.969-0.644,2.252-3.177c0.281-2.531,0-6.159,0-6.159l0.188-8.943"/>
<path style="fill:none;stroke:#000000;stroke-miterlimit:10;" d="M165.44,68.526l-1.939,21.029v17.161l-3,12.94v12.378l-9.477,1.689
	l-3.331-3.938l-3.917-8.44c0,0-2.804-41.637,5.354-57.109c8.159-15.472,11.864-20.255,11.864-20.255s19.372-25.376,34-25.348
	c14.629,0.029,14.279,0.029,14.279,0.029"/>
<path style="fill:none;stroke:#000000;stroke-miterlimit:10;" d="M162.97,164.258l6.216,18.768c0,0,3.651,8.231,4.995,10.906
	c1.146,2.285,5.081,8.453,5.081,8.453s10.013,13.954,14.62,17.222c2.272,1.611,10.4,4,10.4,4s14.204,0.801,18.848,0
	c2.428-0.419,7.486-1.62,9.285-3.305c7.608-7.132,18.645-37.319,18.645-37.319"/>
<path style="fill:none;stroke:#000000;stroke-miterlimit:10;" d="M150.126,133.723c0,0-1.319,9.782,0,12.66
	c0.493,1.076,3.588,3.094,3.588,3.094l4.607,1.689l2.627,5.907l2.021,7.185"/>
<path style="fill:none;stroke:#000000;stroke-miterlimit:10;" d="M174.181,116.282c0,0,14.629-13.786,30.384,0"/>
<path style="fill:none;stroke:#000000;stroke-miterlimit:10;" d="M226.507,116.282c0,0,18.85-12.098,31.789,0"/>
<polyline style="fill:none;stroke:#000000;stroke-miterlimit:10;" points="208.188,164.258 218.63,170.365 230.444,164.258 "/>
<line style="fill:none;stroke:#000000;stroke-miterlimit:10;" x1="197.251" y1="181.83" x2="237.399" y2="183.236"/>
<path style="fill:none;stroke:#000000;stroke-miterlimit:10;" d="M165.927,68.526l23.446-13.854c0,0,4.499,9.847,15.191,9.002
	c10.688-0.845,21.942-1.97,21.942-1.97s5.346-1.125,8.722-5.626c3.376-4.501,0-6.753,3.376-4.501
	c3.376,2.25,19.691,21.381,19.691,21.381s5.908,18.729,6.19,24.073c0.282,5.346,0.279,35.469,5.062,35.469h7.596l1.97-5.367
	l1.688-7.537c0,0,7.465-53.751-32.071-85.071c-21.661-17.16-31.507-15.808-39.104-15.808"/>
<ellipse cx="190.519" cy="123.636" rx="2.98" ry="2.41"/>
<ellipse cx="234.564" cy="123.339" rx="2.98" ry="2.413"/>
</svg>
