<?xml version="1.0" encoding="iso-8859-1"?>
<!-- Generator: Adobe Illustrator 16.0.4, SVG Export Plug-In . SVG Version: 6.00 Build 0)  -->
<!DOCTYPE svg PUBLIC "-//W3C//DTD SVG 1.1//EN" "http://www.w3.org/Graphics/SVG/1.1/DTD/svg11.dtd">
<svg version="1.1" id="Layer_2" xmlns="http://www.w3.org/2000/svg" xmlns:xlink="http://www.w3.org/1999/xlink" x="0px" y="0px"
	 width="400px" height="300px" viewBox="0 0 400 300" style="enable-background:new 0 0 400 300;" xml:space="preserve">
<polyline style="fill:none;stroke:#000000;stroke-miterlimit:10;" points="36.66,264.132 43,243 107,225.91 144,201 155,188 "/>
<path style="fill:none;stroke:#000000;stroke-miterlimit:10;" d="M159.5,273"/>
<polyline style="fill:none;stroke:#000000;stroke-miterlimit:10;" points="155,188 154.5,215 154.5,232 154.5,256 "/>
<path style="fill:none;stroke:#000000;stroke-miterlimit:10;" d="M259.771,226.8c6.815-21.983,1.547-36.96-13.979-52.669"/>
<path style="fill:none;stroke:#000000;stroke-miterlimit:10;" d="M247.186,168.788c7.296,4.474,12.006,7.926,16.096,15.696
	c2.49,4.732,5.558,13.222,11,15.146c18.529,6.548,37.06,13.097,55.589,19.645c7.329,2.591,35.23,7.528,38.815,14.883"/>
<path style="fill:none;stroke:#000000;stroke-miterlimit:10;" d="M182,164.5c0,0,25-10.5,35,0"/>
<path style="fill:none;stroke:#000000;stroke-miterlimit:10;" d="M166.5,159.833l-7-8.667l-5,2.334l-9,4c0,0,4,27,14,36.5
	s13.5,12,13.5,12s22.5,12,34.5,8.5S225,207,225,207s12-9.5,14.5-14s4.5-12,4.5-12l9-34.5l-11-2l-6.5,15.333l-3.5,2.334
	c0,0-8.832-22.211-32-22.675C184,139.172,166.5,159.833,166.5,159.833z"/>
<path style="fill:none;stroke:#000000;stroke-miterlimit:10;" d="M153.75,47.25C144.561,64.272,142.217,75.886,142.5,95
	c0.246,16.551-0.189,18.164-12.75,29c-1.978-19.228-10.777-42.913-3.281-62c4.305-10.961,16.031-47.5,94.818-45
	c14.096,0.447,26.582,18.445,33.778,30.235C264.721,63.054,269.471,82.142,271,100.5c-28.656,4.582-19.503-50.354-44.5-61.771
	C202.885,27.942,175.4,34.035,153.75,47.25"/>
<path style="fill:none;stroke:#000000;stroke-miterlimit:10;" d="M129.75,124c0,0-0.576,0.024-1.256,1.5
	c-4.494,9.75,1.006,14,1.006,14s6.509,17.979,12.5,18.333c0.854,0.051,3.5-0.333,3.5-0.333"/>
<path style="fill:none;stroke:#000000;stroke-miterlimit:10;" d="M253,146.5c15.443,0.379,25.43-36.242,18-46"/>
<path style="fill:none;stroke:#000000;stroke-miterlimit:10;" d="M182,133c0,0,28-4.5,30,0"/>
<line style="fill:none;stroke:#000000;stroke-miterlimit:10;" x1="191.051" y1="96.693" x2="202.495" y2="96.097"/>
<path style="fill:none;stroke:#000000;stroke-miterlimit:10;" d="M202.5,92c0,0,0.068,6.751,0,9c-0.314,10.25,14.5,19.5,14.5,19.5
	s13.012,1.469,17,0c2.487-0.916,5.677-4.839,7.5-7.5c1.423-2.076,5.5-9.75,5.5-9.75s1.23-25.637-19-22.75
	c-6.229,0.889-16,3.25-16,3.25S202.5,86.25,202.5,92z"/>
<path style="fill:none;stroke:#000000;stroke-miterlimit:10;" d="M154.25,95.375L149.5,99v10l6,15l7.625,1.75l12.062-1.75
	l11.281-2.848l3.766-4.652l2.758-9.5l-2.496-13.25c0,0-1.623-8.5-10.873-6.5S154.25,95.375,154.25,95.375z"/>
<line style="fill:none;stroke:#000000;stroke-miterlimit:10;" x1="149.5" y1="103.5" x2="142.5" y2="106.348"/>
<path style="fill:none;stroke:#000000;stroke-miterlimit:10;" d="M154.5,188.591c5.624,19.025,8.852,28.578,22.012,43.2
	c3.025,3.36,3.749-0.91,5.488,0.459c2.947,2.32,5.455,5.849,8.002,8.58c4.26,4.566,13.238,19.6,19.123,15.338
	c6.947-5.031,13.887-10.072,20.809-15.138c6.013-4.399,9.701-17.144,13.162-23.702c9.126-17.296,7.695-25.06,2.696-43.197"/>
<path style="fill:none;stroke:#000000;stroke-miterlimit:10;" d="M155,103.5c0,0,17.808-15.701,27-3"/>
<path style="fill:none;stroke:#000000;stroke-miterlimit:10;" d="M212,90.5c0,0,18-4,24,0"/>
<path d="M175.489,103c0,4-6.354,4-6.354,0S175.489,99,175.489,103z"/>
<path d="M227.641,97c0,4-6.354,4-6.354,0S227.641,93,227.641,97z"/>
</svg>
