<?xml version="1.0" encoding="iso-8859-1"?>
<!-- Generator: Adobe Illustrator 16.0.4, SVG Export Plug-In . SVG Version: 6.00 Build 0)  -->
<!DOCTYPE svg PUBLIC "-//W3C//DTD SVG 1.1//EN" "http://www.w3.org/Graphics/SVG/1.1/DTD/svg11.dtd">
<svg version="1.1" id="Layer_2" xmlns="http://www.w3.org/2000/svg" xmlns:xlink="http://www.w3.org/1999/xlink" x="0px" y="0px"
	 width="400px" height="300px" viewBox="0 0 400 300" style="enable-background:new 0 0 400 300;" xml:space="preserve">
<path style="fill:none;stroke:#000000;stroke-miterlimit:10;" d="M270.166,100.335"/>
<path style="fill:none;stroke:#000000;stroke-miterlimit:10;" d="M234.832,99.503c0,0,20.334-12.17,23.5,0.832"/>
<path style="fill:none;stroke:#000000;stroke-miterlimit:10;" d="M184.665,111.003c0,0,2.334-12.333,21.167-8.333"/>
<line style="fill:none;stroke:#000000;stroke-miterlimit:10;" x1="217.332" y1="141.67" x2="234.832" y2="139.837"/>
<path style="fill:none;stroke:#000000;stroke-miterlimit:10;" d="M209.999,163.836c0,0,26.333-7.166,39.5-4.333"/>
<path style="fill:none;stroke:#000000;stroke-miterlimit:10;" d="M210.832,147.669l-3.666,13.669c0,0,37-9.336,41.5-4.669
	s-8.834-14.166-8.834-14.166L210.832,147.669z"/>
<path style="fill:none;stroke:#000000;stroke-miterlimit:10;" d="M217.333,22.502c-32.5-0.667-55,38.834-55,38.834
	c-5.828,8.634,0.336,40.536,0.336,40.536s2.437,8.55,6.76,23.529l5.736-7.401V91.002c0,0,15.926-1.695,22.594-10.695
	c0,0,23.428,2.138,39.594-4.862c0,0,12.354-2.39,20.188,8.444c0,0,10.376,4.887,11.376,16.221l4.919-1.774l4.663-14.499
	c1.333-46.5-46.332-59.167-46.332-59.167L217.333,22.502z"/>
<polyline style="fill:none;stroke:#000000;stroke-miterlimit:10;" points="81.915,264.5 88.665,231.5 102.165,223.75 
	163.915,198.75 180.165,190 185.665,184.502 "/>
<path style="fill:none;stroke:#000000;stroke-miterlimit:10;" d="M267.081,175.502l3.415-41.668c0,0,0.9-0.127,2.066-0.293
	s1.884-1.771,1.884-1.771l1.719-24.604V101c0,0-0.328-2.563-2.165-2.665"/>
<path style="fill:none;stroke:#000000;stroke-miterlimit:10;" d="M209.999,189c0,0,31.166,16.75,56.833-13.75"/>
<path style="fill:none;stroke:#000000;stroke-miterlimit:10;" d="M169.665,125.5c0,0-1.819,1.316-2,2
	c-1.683,6.372,1.06,21.568,7.003,24.416c0.568,0.272,2.442,0.379,2.442,0.379l0.78,3.211c3.535,12.198,6.384,31.983,11.774,39.996
	c0,0,19.667,30.666,37.167,30.833s11.667,0,11.667,0s30-16.667,31.333-37l16.083,14.915l48.75,13.5l35,14c0,0,6.25,11,6.75,21.75
	s7.5,20.583,7.5,20.583"/>
<path d="M204.685,114c0,3-4.889,3-4.889,0S204.685,111,204.685,114z"/>
<path d="M246.896,108c0,4-4.89,4-4.89,0C242.006,105,246.896,105,246.896,108z"/>
<line style="fill:none;stroke:#000000;stroke-miterlimit:10;" x1="230.499" y1="115.502" x2="232.832" y2="124.335"/>
<line style="fill:none;stroke:#000000;stroke-miterlimit:10;" x1="269.832" y1="189.335" x2="267.101" y2="175.25"/>
</svg>
