<?xml version="1.0" encoding="iso-8859-1"?>
<!-- Generator: Adobe Illustrator 16.0.4, SVG Export Plug-In . SVG Version: 6.00 Build 0)  -->
<!DOCTYPE svg PUBLIC "-//W3C//DTD SVG 1.1//EN" "http://www.w3.org/Graphics/SVG/1.1/DTD/svg11.dtd">
<svg version="1.1" id="Layer_2" xmlns="http://www.w3.org/2000/svg" xmlns:xlink="http://www.w3.org/1999/xlink" x="0px" y="0px"
	 width="400px" height="300px" viewBox="0 0 400 300" style="enable-background:new 0 0 400 300;" xml:space="preserve">
<path style="fill:none;stroke:#000000;stroke-miterlimit:10;" d="M28.438,294.934L32.5,279.75l3-7.25V254L146,214.241L164.5,195v-16
	l-6.5-5.977L151.25,156l-3.25-2.125l-6.188-10.25l-7.344-15.25l-0.734-3.875l-0.492-8.625l2.754-3.375l-2.623-9.875l-2.123-28.75
	l4.75-21c0,0,14.625-37.25,54.625-37.25s50.25,9.625,62,27.125s11,52.375,11,52.375l-9.25,17c0,0-18.926-76.054-36.875-64.125"/>
<polyline style="fill:none;stroke:#000000;stroke-miterlimit:10;" points="165,179 185.75,196.125 220,197.5 250.375,169.125 
	251.375,202 213.125,239.625 169.75,210.875 165,195 "/>
<path style="fill:none;stroke:#000000;stroke-miterlimit:10;" d="M152.625,107.875c0,0,22.25-19.25,37.125,1.875"/>
<path style="fill:none;stroke:#000000;stroke-miterlimit:10;" d="M200.75,107c0,0,22.75-20.775,37-2.2"/>
<path style="fill:none;stroke:#000000;stroke-miterlimit:10;" d="M181.375,163.375c0,0,22.25,1.5,45.25-6.625"/>
<path style="fill:none;stroke:#000000;stroke-miterlimit:10;" d="M135.883,112.064l3.867,1.311l3.875,11.75l0.75-29.375l5.5-4.25
	l-1.75-16.375c0,0-0.058-23.137,24.375-12.125c8.875,4,8.375,2.625,13.5,2.5"/>
<line style="fill:none;stroke:#000000;stroke-miterlimit:10;" x1="186" y1="65.5" x2="217.5" y2="48"/>
<path style="fill:none;stroke:#000000;stroke-miterlimit:10;" d="M159.5,115.375c0,0,14.125-16.125,26.5-2.125"/>
<path style="fill:none;stroke:#000000;stroke-miterlimit:10;" d="M206.5,109.75c0,0,9-12.75,26.75-2.75"/>
<circle cx="174.895" cy="112.354" r="3.73"/>
<circle cx="219.895" cy="107.354" r="3.73"/>
<polyline style="fill:none;stroke:#000000;stroke-miterlimit:10;" points="186,143.5 191.5,143.5 199.875,147.125 205.125,143.125 
	212.625,140.188 "/>
<path style="fill:none;stroke:#000000;stroke-miterlimit:10;" d="M263.115,96.062c0,0,3.638,4.229,4.135,5.977
	c0.845,2.97-0.625,12.336-0.625,12.336l-3.24,21c0,0-0.885,10.375-7.885,10.625v12l-5.375,11.125"/>
<polyline style="fill:none;stroke:#000000;stroke-miterlimit:10;" points="250.375,192 263.635,209.5 291,221.5 334,239.625 
	373.5,251 380.135,288.015 "/>
<polyline style="fill:none;stroke:#000000;stroke-miterlimit:10;" points="160.941,199.013 159.5,218.33 174.895,295.934 "/>
<polyline style="fill:none;stroke:#000000;stroke-miterlimit:10;" points="250.375,286.396 258.943,212.036 254.659,197.654 "/>
</svg>
