<?xml version="1.0" encoding="iso-8859-1"?>
<!-- Generator: Adobe Illustrator 16.0.4, SVG Export Plug-In . SVG Version: 6.00 Build 0)  -->
<!DOCTYPE svg PUBLIC "-//W3C//DTD SVG 1.1//EN" "http://www.w3.org/Graphics/SVG/1.1/DTD/svg11.dtd">
<svg version="1.1" id="Layer_2" xmlns="http://www.w3.org/2000/svg" xmlns:xlink="http://www.w3.org/1999/xlink" x="0px" y="0px"
	 width="399.999px" height="300px" viewBox="0 0 399.999 300" style="enable-background:new 0 0 399.999 300;" xml:space="preserve"
	>
<path style="fill:none;stroke:#000000;stroke-miterlimit:10;" d="M152.5,137.5v-29.17l4.002-4.83h9.902l4.243-9h24.615h18.674
	c0,0,16.127-2.775,20.654-13.526c4.525-10.751,9.053,22.591,9.053,22.591l3.396,11.295c0,0,9.055-7.368,7.923-13.592
	c-1.133-6.225-5.093-18.679-5.093-18.679s-18.674-74.13-66.206-60.549s-51.494,58.849-52.06,68.468s3.961,36.369,3.961,36.369
	l9.62,10.623H152.5z"/>
<path style="fill:none;stroke:#000000;stroke-miterlimit:10;" d="M247.039,114.838c0,0-9.62,72.437-12.448,73.848
	c-3.024,1.509-4.527,12.733-4.527,12.733l-6.791,7.927l-13.58,6.799l-27.727-8.47l-20.938-27.632l-4.525-18.543h-2.547
	l-18.39-26.443l3.12-4.627"/>
<polyline style="fill:none;stroke:#000000;stroke-miterlimit:10;" points="52.666,243.004 57.193,223.966 161.027,179.982 "/>
<polyline style="fill:none;stroke:#000000;stroke-miterlimit:10;" points="237.445,178.045 329.655,208.487 340.124,223.966 
	345.499,246.399 "/>
<path style="fill:none;stroke:#000000;stroke-miterlimit:10;" d="M181.966,178.045c0,0,41.307,5.261,45.834-2.095"/>
<path style="fill:none;stroke:#000000;stroke-miterlimit:10;" d="M194.697,159.823c0,0,16.692,8.204,25.181-1.698"/>
<path style="fill:none;stroke:#000000;stroke-miterlimit:10;" d="M165.555,122.476c0,0,19.005-9.62,27.752,0"/>
<path style="fill:none;stroke:#000000;stroke-miterlimit:10;" d="M211.673,120.338c0,0,12.449-11.223,20.937-2.138"/>
<circle cx="179.69" cy="127.042" r="2"/>
<circle cx="222.13" cy="122.798" r="2"/>
<polyline style="fill:none;stroke:#000000;stroke-miterlimit:10;" points="160.887,180.478 161.735,194.058 170.082,211.493 
	191.303,229.706 "/>
<path style="fill:none;stroke:#000000;stroke-miterlimit:10;" d="M234.591,188.686"/>
</svg>
