<svg xmlns="http://www.w3.org/2000/svg" xmlns:xlink="http://www.w3.org/1999/xlink" width="480" height="360" viewBox="0 0 480 360"><g><path d="M163 2315.518h306v65h-306zM163 2381.518h-164v-66h164v66zm-163-1h162v-64h-162v64zM95.675 2793.541h5.823v20.6c2.07-1.863 4.356-2.795 6.858-2.795 2.847 0 5.124.924 6.832 2.77 1.449 1.604 2.174 4.166 2.174 7.686v15.45h-5.823v-14.906c0-2.019-.358-3.48-1.074-4.387-.716-.905-1.868-1.358-3.455-1.358-2.036 0-3.468.63-4.296 1.889-.811 1.277-1.216 3.469-1.216 6.574v12.188h-5.823v-43.711zM146.102 2826.02h-18.063c.155 2.07.828 3.719 2.019 4.943 1.19 1.207 2.717 1.811 4.581 1.811 1.449 0 2.648-.344 3.597-1.035.932-.689 1.993-1.967 3.183-3.83l4.917 2.744c-.759 1.293-1.562 2.402-2.407 3.325-.846.923-1.751 1.682-2.717 2.277-.966.595-2.01 1.03-3.131 1.307-1.122.276-2.338.414-3.649.414-3.761 0-6.78-1.208-9.058-3.623-2.277-2.433-3.416-5.659-3.416-9.679 0-3.985 1.104-7.211 3.312-9.679 2.226-2.433 5.176-3.649 8.851-3.649 3.709 0 6.642 1.183 8.799 3.546 2.139 2.347 3.209 5.599 3.209 9.757l-.027 1.371zm-5.978-4.762c-.811-3.105-2.769-4.658-5.875-4.658-.708 0-1.372.107-1.993.323s-1.187.526-1.695.932-.944.894-1.307 1.462c-.362.57-.639 1.217-.828 1.941h11.698zM157.348 2817.479v19.771h-5.823v-19.771h-2.484v-5.435h2.484v-9.238h5.823v9.238h4.529v5.435h-4.529zM171.85 2802.961c0-1.396.496-2.588 1.488-3.57.992-.984 2.187-1.476 3.584-1.476 1.449 0 2.661.483 3.636 1.449.974.966 1.462 2.165 1.462 3.597 0 1.433-.496 2.648-1.488 3.649s-2.195 1.501-3.61 1.501c-1.38 0-2.571-.509-3.571-1.527-1.001-1.018-1.501-2.225-1.501-3.623zm.466 45.832v-37.68h9.239v37.68h-9.239zM214.72 2824.26c0 1.881-.367 3.666-1.1 5.357-.734 1.69-1.799 3.209-3.196 4.555-1.415 1.346-2.998 2.363-4.749 3.053-1.751.69-3.61 1.035-5.577 1.035-2.001 0-3.878-.345-5.628-1.035-1.751-.689-3.317-1.707-4.697-3.053-1.38-1.312-2.433-2.816-3.157-4.517-.725-1.698-1.087-3.497-1.087-5.396 0-1.915.358-3.718 1.074-5.408.715-1.691 1.772-3.209 3.17-4.555 1.363-1.328 2.92-2.33 4.671-3.002 1.751-.674 3.636-1.01 5.655-1.01s3.899.336 5.642 1.01c1.742.672 3.304 1.674 4.684 3.002 1.415 1.363 2.484 2.89 3.209 4.58.724 1.692 1.086 3.486 1.086 5.384zm-9.161 0c0-1.949-.492-3.484-1.475-4.606-.983-1.121-2.312-1.683-3.985-1.683-1.691 0-3.024.562-3.999 1.683-.975 1.122-1.462 2.657-1.462 4.606s.483 3.48 1.449 4.594c.966 1.112 2.303 1.669 4.011 1.669 1.69 0 3.023-.557 3.999-1.669.974-1.114 1.462-2.645 1.462-4.594zM245.246 2811.113v13.354c0 2.95-.238 5.137-.712 6.561-.476 1.423-1.272 2.688-2.394 3.791-1.157 1.156-2.597 2.019-4.322 2.588-1.726.569-3.752.854-6.082.854-2.312 0-4.326-.284-6.042-.854-1.717-.569-3.179-1.432-4.387-2.588-1.122-1.069-1.915-2.324-2.381-3.766-.466-1.439-.699-3.636-.699-6.586v-13.354h8.799v13.949c0 2.191.362 3.773 1.087 4.748s1.897 1.463 3.52 1.463c1.639 0 2.816-.479 3.533-1.437.715-.958 1.074-2.55 1.074-4.774v-13.949h9.006zM250.332 2837.251v-26.138h8.695v6.159c.897-2.243 2.123-3.925 3.676-5.046s3.433-1.683 5.641-1.683c.363 0 .729.013 1.101.039.37.025.745.064 1.126.116l-.881 8.385c-.552-.189-1.096-.328-1.63-.414-.535-.086-1.053-.129-1.553-.129-2.243 0-3.973.686-5.188 2.057-1.217 1.372-1.824 3.317-1.824 5.836v10.817h-9.163zM272.37 2837.251v-26.138h8.437v5.305c1.225-2.121 2.64-3.674 4.244-4.658 1.604-.982 3.527-1.475 5.771-1.475 1.689 0 3.195.271 4.516.815 1.32.543 2.394 1.324 3.222 2.342.69.88 1.182 1.95 1.476 3.209.293 1.26.439 3.14.439 5.642v14.958h-9.238v-14.001c0-2.087-.342-3.605-1.023-4.555-.682-.948-1.771-1.423-3.273-1.423-1.914 0-3.312.708-4.191 2.122-.881 1.415-1.32 3.709-1.32 6.884v10.973h-9.06zM333.406 2811.113v26.138h-8.462v-4.244c-1.208 1.812-2.566 3.14-4.075 3.985-1.511.846-3.283 1.268-5.318 1.268-3.486 0-6.271-1.271-8.359-3.816s-3.131-5.957-3.131-10.235c0-4.261 1.09-7.647 3.273-10.157 2.182-2.511 5.119-3.766 8.812-3.766 1.967 0 3.661.418 5.085 1.255s2.645 2.127 3.662 3.869v-4.296h8.513zm-8.099 13.043c0-2.035-.543-3.648-1.631-4.84-1.086-1.189-2.57-1.785-4.451-1.785s-3.359.592-4.438 1.772c-1.078 1.183-1.617 2.8-1.617 4.853 0 2.036.543 3.641 1.63 4.813s2.562 1.76 4.425 1.76c1.881 0 3.365-.587 4.451-1.76 1.088-1.172 1.631-2.777 1.631-4.813zM366.805 2811.113v26.138h-8.462v-4.244c-1.208 1.812-2.566 3.14-4.075 3.985-1.511.846-3.283 1.268-5.318 1.268-3.486 0-6.271-1.271-8.359-3.816s-3.131-5.957-3.131-10.235c0-4.261 1.09-7.647 3.273-10.157 2.182-2.511 5.119-3.766 8.812-3.766 1.967 0 3.661.418 5.085 1.255s2.645 2.127 3.662 3.869v-4.296h8.513zm-8.1 13.043c0-2.035-.543-3.648-1.631-4.84-1.086-1.189-2.57-1.785-4.451-1.785s-3.359.592-4.438 1.772c-1.078 1.183-1.617 2.8-1.617 4.853 0 2.036.543 3.641 1.63 4.813s2.562 1.76 4.425 1.76c1.881 0 3.365-.587 4.451-1.76 1.088-1.172 1.631-2.777 1.631-4.813zM372.436 2837.251v-40.112h9.238v40.112h-9.238zM87.651 2805.834v6.547l-22.101 9.084 22.101 9.006v6.573l-30.485-12.577v-6.029l30.485-12.604zM395.909 2837.44v-6.548l22.101-9.083-22.101-9.006v-6.573l30.485 12.577v6.03l-30.485 12.603zM81 3164.518h120v72h-120zM81 3246.518h307v72h-307z"/><g fill="#fff"><path d="M112.43 3227.178v-22.436h-8.884v22.436h-10.691v-53.604h10.691v21.532h8.884v-21.532h10.691v53.604h-10.691zM131.397 3227.178v-53.604h24.694v9.637h-14.003v12.121h12.046v9.637h-12.046v12.573h14.003v9.637h-24.694zM179.729 3183.21v43.968h-10.691v-43.968h-9.034v-9.637h28.759v9.637h-9.034z"/></g><g fill="#fff"><path d="M112.731 3306.724c-2.861 3.012-6.701 4.668-12.272 4.668-4.818 0-8.884-1.731-11.745-4.593l7.378-7.228c.753 1.054 2.56 2.184 4.367 2.184 3.237 0 5.496-2.259 5.496-6.399v-38.171h10.691v38.171c0 4.516-1.28 8.582-3.915 11.368zM150.446 3306.046c-2.484 2.937-5.797 5.346-11.82 5.346s-9.185-2.409-11.669-5.346c-4.291-5.119-3.99-14.831-3.99-22.059s-.301-16.939 3.99-22.06c2.484-2.936 5.646-5.346 11.669-5.346s9.336 2.41 11.82 5.346c4.292 5.12 3.99 14.832 3.99 22.06s.301 16.94-3.99 22.059zm-8.131-37.719c-.603-1.204-1.732-2.108-3.689-2.108s-2.936.904-3.538 2.108c-1.28 2.484-1.431 9.186-1.431 15.66s.15 13.175 1.431 15.659c.602 1.205 1.581 2.108 3.538 2.108s3.087-.903 3.689-2.108c1.28-2.484 1.43-9.185 1.43-15.659s-.15-13.175-1.43-15.66zM187.031 3306.949c-2.861 2.937-6.625 4.442-11.143 4.442s-8.282-1.506-11.143-4.442c-2.56-2.635-3.99-6.249-3.99-10.54v-39.225h10.691v39.752c0 3.463 2.033 4.818 4.442 4.818s4.442-1.355 4.442-4.818v-39.752h10.691v39.225c0 4.291-1.431 7.905-3.99 10.54zM219.702 3310.789l-6.55-20.854h-3.539v20.854h-10.691v-53.604h15.283c11.669 0 14.907 6.099 14.907 16.338 0 5.722-.903 10.841-6.098 14.078l7.83 23.188h-11.142zm-5.572-43.968h-4.517v13.477h4.517c4.065 0 4.292-3.689 4.292-6.775 0-3.087-.226-6.702-4.292-6.702zM258.922 3310.789l-11.368-26.2v26.2h-10.691v-53.604h9.335l11.143 26.2v-26.2h10.69v53.604h-9.109zM299.572 3310.789l-1.732-8.356h-12.347l-1.731 8.356h-11.143l13.777-53.604h10.54l13.778 53.604h-11.142zm-7.905-37.869l-4.141 19.876h8.281l-4.14-19.876zM339.168 3310.789l-1.731-8.356h-12.347l-1.732 8.356h-11.142l13.777-53.604h10.54l13.777 53.604h-11.142zm-7.905-37.869l-4.141 19.876h8.281l-4.14-19.876zM354.898 3310.789v-53.604h10.69v43.968h14.004v9.637h-24.694z"/></g><path d="M113 3674.518h261v15h-261zM133.43 3660.178v-22.436h-8.884v22.436h-10.691v-53.604h10.691v21.532h8.884v-21.532h10.691v53.604h-10.691zM152.397 3660.178v-53.604h24.694v9.637h-14.003v12.121h12.046v9.637h-12.046v12.573h14.003v9.637h-24.694zM200.729 3616.21v43.968h-10.691v-43.968h-9.034v-9.637h28.759v9.637h-9.034zM120.017 3754.724c-2.861 3.012-6.701 4.668-12.272 4.668-4.818 0-8.884-1.731-11.745-4.593l7.378-7.228c.753 1.054 2.56 2.184 4.367 2.184 3.237 0 5.496-2.259 5.496-6.399v-38.171h10.691v38.171c0 4.516-1.281 8.582-3.915 11.368zM157.731 3754.046c-2.484 2.937-5.797 5.346-11.82 5.346s-9.185-2.409-11.669-5.346c-4.291-5.119-3.99-14.831-3.99-22.059s-.301-16.939 3.99-22.06c2.484-2.936 5.646-5.346 11.669-5.346s9.336 2.41 11.82 5.346c4.292 5.12 3.99 14.832 3.99 22.06s.302 16.94-3.99 22.059zm-8.13-37.719c-.603-1.204-1.732-2.108-3.689-2.108s-2.936.904-3.538 2.108c-1.28 2.484-1.431 9.186-1.431 15.66s.15 13.175 1.431 15.659c.602 1.205 1.581 2.108 3.538 2.108s3.087-.903 3.689-2.108c1.28-2.484 1.43-9.185 1.43-15.659s-.151-13.175-1.43-15.66zM194.316 3754.949c-2.861 2.937-6.625 4.442-11.143 4.442s-8.282-1.506-11.143-4.442c-2.56-2.635-3.99-6.249-3.99-10.54v-39.225h10.691v39.752c0 3.463 2.033 4.818 4.442 4.818s4.442-1.355 4.442-4.818v-39.752h10.691v39.225c.001 4.291-1.43 7.905-3.99 10.54zM226.987 3758.789l-6.55-20.854h-3.539v20.854h-10.691v-53.604h15.283c11.669 0 14.907 6.099 14.907 16.338 0 5.722-.903 10.841-6.098 14.078l7.83 23.188h-11.142zm-5.571-43.968h-4.517v13.477h4.517c4.065 0 4.292-3.689 4.292-6.775 0-3.087-.227-6.702-4.292-6.702zM266.207 3758.789l-11.368-26.2v26.2h-10.69v-53.604h9.336l11.142 26.2v-26.2h10.691v53.604h-9.111zM306.857 3758.789l-1.732-8.356h-12.347l-1.731 8.356h-11.143l13.777-53.604h10.54l13.779 53.604h-11.143zm-7.905-37.869l-4.141 19.876h8.281l-4.14-19.876zM346.453 3758.789l-1.731-8.356h-12.347l-1.732 8.356h-11.142l13.777-53.604h10.54l13.777 53.604h-11.142zm-7.905-37.869l-4.141 19.876h8.281l-4.14-19.876zM362.184 3758.789v-53.604h10.69v43.968h14.004v9.637h-24.694zM111.542 4178.176v-15.028h-15.532v15.028h-9.645v-37.402h9.645v13.963h15.533v-13.963h9.646v37.402h-9.647zM127.921 4178.176v-37.402h27.421v8.411h-17.776v5.832h17.383v8.411h-17.383v6.337h17.776v8.411h-27.421zM169.308 4178.176v-28.991h-10.486v-8.411h30.561v8.411h-10.43v28.991h-9.645zM83.168 4219.129l4.037-7.347c1.346 1.122 3.141 2.188 5.383 2.188 3.028 0 4.991-1.963 4.991-5.103v-24.449h9.645v24.561c0 9.253-5.607 13.515-13.794 13.515-3.757-.001-7.458-.898-10.262-3.365zM112.05 4203.147c0-11.384 8.58-19.347 20.019-19.347s19.963 7.963 19.963 19.347c0 11.383-8.524 19.346-19.963 19.346s-20.019-7.963-20.019-19.346zm30.169 0c0-6.112-3.981-10.823-10.15-10.823s-10.206 4.711-10.206 10.823c0 6.056 4.037 10.822 10.206 10.822s10.15-4.766 10.15-10.822zM156.915 4206.68v-22.262h9.813v21.926c0 4.43 2.692 7.626 7.907 7.626 5.159 0 7.851-3.196 7.851-7.626v-21.926h9.757v22.206c0 9.309-5.607 15.869-17.608 15.869-12.001 0-17.72-6.617-17.72-15.813zM219.836 4221.82l-6.281-12.561h-4.935v12.561h-9.645v-37.402h18.729c8.299 0 13.01 5.495 13.01 12.448 0 6.505-3.925 9.981-7.458 11.216l7.626 13.738h-11.046zm1.065-25.009c0-2.58-2.075-3.981-4.654-3.981h-7.626v8.019h7.626c2.579-.001 4.654-1.403 4.654-4.038zM261.504 4221.82l-15.813-21.646v21.646h-9.645v-37.402h9.925l15.141 20.579v-20.579h9.701v37.402h-9.309zM302.947 4221.82l-1.85-5.383h-14.747l-1.851 5.383h-10.936l14.075-37.402h12.169l14.075 37.402h-10.935zm-9.196-27.87l-4.767 14.075h9.478l-4.711-14.075zM342.036 4221.82l-1.851-5.383h-14.747l-1.851 5.383h-10.936l14.075-37.402h12.169l14.075 37.402h-10.934zm-9.196-27.87l-4.767 14.075h9.478l-4.711-14.075zM355.554 4221.82v-37.402h9.646v28.991h15.028v8.411h-24.674zM83 4233.518h53v7h-53zM66.997 2325.807v47.988h-14.73v-18.668h-11.25v18.668h-14.73v-47.988h14.73v17.648h11.25v-17.648h14.73zM98.461 2360.963l13.078.879c-.773 3.516-2.748 6.51-5.924 8.982-3.176 2.473-7.471 3.709-12.885 3.709-6.024 0-10.828-1.74-14.414-5.221s-5.379-7.799-5.379-12.955c0-5.344 1.77-9.855 5.309-13.535 3.539-3.68 8.262-5.52 14.168-5.52 5.718 0 10.341 1.734 13.869 5.203 3.527 3.469 5.291 8.191 5.291 14.168 0 .492-.012 1.172-.035 2.039h-23.941c.047 2.25.445 3.92 1.195 5.01.75 1.09 2.18 1.635 4.289 1.635 3.047 0 4.84-1.464 5.379-4.394zm-.949-9.281c-.023-2.414-.508-4.037-1.454-4.869s-2.12-1.248-3.521-1.248c-3.317 0-4.975 2.039-4.975 6.117h9.95zM139.137 2338.041v9.105h-7.137v13.184c0 1.805.339 2.877 1.02 3.217.68.34 1.383.51 2.109.51 1.125 0 2.461-.199 4.008-.598v9.984c-2.766.539-5.484.809-8.156.809-4.312 0-7.483-.926-9.51-2.777-2.027-1.852-3.041-4.805-3.041-8.859l.035-4.184v-11.285h-5.344v-9.105h5.344l.211-11.637 13.324-.211v11.848h7.137z"/><g fill="#fff"><path d="M196.867 2325.807v30.234c0 4.641-.417 8.174-1.248 10.6-.832 2.426-2.456 4.348-4.869 5.766-2.414 1.418-5.684 2.127-9.809 2.127-3.633 0-6.914-.387-9.844-1.16v-11.461c2.062.586 3.984.879 5.766.879 2.109 0 3.609-.486 4.5-1.459.891-.973 1.336-2.736 1.336-5.291v-30.234h14.168zM221.722 2374.533c-5.93 0-10.641-1.846-14.133-5.537-3.493-3.691-5.238-8.021-5.238-12.99 0-5.344 1.822-9.797 5.467-13.359 3.644-3.562 8.385-5.344 14.221-5.344 5.883 0 10.611 1.758 14.186 5.273 3.574 3.516 5.362 7.922 5.362 13.219 0 5.344-1.811 9.803-5.432 13.377s-8.433 5.361-14.433 5.361zm.211-8.508c2.18 0 3.51-1.131 3.99-3.393.48-2.262.721-4.623.721-7.084 0-3.352-.34-5.766-1.02-7.242-.68-1.477-1.898-2.215-3.656-2.215-1.617 0-2.801.762-3.551 2.285-.75 1.523-1.125 4.031-1.125 7.523 0 4.102.387 6.814 1.16 8.139s1.934 1.987 3.481 1.987zM281.805 2338.041v35.754h-12.973v-5.871c-1.898 4.406-5.603 6.609-11.109 6.609-3.398 0-6.029-.943-7.893-2.83s-2.795-4.588-2.795-8.104v-25.559h14.027v22.5c0 1.406.193 2.396.58 2.971s1.143.861 2.268.861c1.195 0 2.167-.428 2.918-1.283.75-.855 1.125-2.057 1.125-3.604v-21.445h13.852zM302.617 2373.795h-13.43v-35.754h11.672v7.383c1.336-5.367 4.441-8.051 9.316-8.051.492 0 1.172.047 2.039.141v12.48c-.984-.234-1.863-.352-2.637-.352-4.641 0-6.961 2.59-6.961 7.77v16.383zM351.555 2373.795h-14.027v-22.5c0-1.852-.287-3.035-.861-3.551-.575-.516-1.296-.773-2.162-.773-2.555 0-3.832 1.781-3.832 5.344v21.48h-14.027v-35.754h13.008v5.062c1.921-3.867 5.355-5.801 10.301-5.801 2.602 0 4.799.498 6.592 1.494s3.076 2.285 3.85 3.867 1.16 4.33 1.16 8.244v22.888zM394.972 2373.795h-13.359c-.328-1.523-.492-3.188-.492-4.992-2.531 3.82-6.363 5.73-11.496 5.73-4.218 0-7.377-1.078-9.474-3.234-2.098-2.156-3.146-4.629-3.146-7.418 0-3.773 1.717-6.826 5.15-9.158 3.433-2.332 9.521-3.732 18.263-4.201v-.809c0-1.57-.357-2.613-1.072-3.129s-1.764-.773-3.146-.773c-3.234 0-5.039 1.301-5.414 3.902l-12.796-1.195c1.828-7.477 8.051-11.215 18.667-11.215 2.883 0 5.531.287 7.945.861s4.324 1.471 5.73 2.689 2.35 2.508 2.83 3.867.721 3.973.721 7.84v14.273c-.001 2.72.362 5.04 1.089 6.962zm-14.555-16.734c-5.977.633-8.965 2.543-8.965 5.73 0 2.156 1.184 3.234 3.551 3.234 1.5 0 2.777-.445 3.832-1.336s1.582-2.859 1.582-5.906v-1.722zM437.194 2373.795h-13.359c-.328-1.523-.492-3.188-.492-4.992-2.531 3.82-6.363 5.73-11.496 5.73-4.219 0-7.377-1.078-9.475-3.234s-3.146-4.629-3.146-7.418c0-3.773 1.717-6.826 5.15-9.158s9.521-3.732 18.264-4.201v-.809c0-1.57-.357-2.613-1.072-3.129s-1.764-.773-3.146-.773c-3.234 0-5.039 1.301-5.414 3.902l-12.797-1.195c1.828-7.477 8.051-11.215 18.668-11.215 2.883 0 5.531.287 7.945.861s4.324 1.471 5.73 2.689 2.35 2.508 2.83 3.867.721 3.973.721 7.84v14.273c-.001 2.72.363 5.04 1.089 6.962zm-14.554-16.734c-5.977.633-8.965 2.543-8.965 5.73 0 2.156 1.184 3.234 3.551 3.234 1.5 0 2.777-.445 3.832-1.336s1.582-2.859 1.582-5.906v-1.722zM457.198 2325.807v47.988h-13.816v-47.988h13.816z"/></g><path stroke="#000" stroke-miterlimit="10" fill="none" d="M51.626 1868.734h376.748v100.316h-376.748z"/><path d="M77.893 1947.842c.879.156 1.522.258 1.93.306.409.048.769.071 1.083.071 2.197 0 3.759-.707 4.686-2.119.926-1.413 1.389-3.861 1.389-7.346v-64.037h14.785v63.943c0 7.91-1.326 13.678-3.979 17.304s-6.836 5.438-12.549 5.438c-.974 0-1.97-.079-2.989-.235-1.021-.157-2.174-.424-3.461-.8l-.895-12.525zM110.24 1918.318c0-7.22 1.868-12.902 5.604-17.045 3.735-4.145 8.82-6.217 15.256-6.217 6.404 0 11.474 2.072 15.209 6.217 3.735 4.143 5.604 9.825 5.604 17.045 0 7.189-1.86 12.84-5.58 16.951-3.72 4.112-8.797 6.168-15.232 6.168-6.467 0-11.56-2.056-15.279-6.168-3.721-4.111-5.582-9.761-5.582-16.951zm13.42 0c0 4.395.627 7.73 1.884 10.006 1.255 2.275 3.107 3.414 5.556 3.414s4.309-1.146 5.58-3.438 1.907-5.619 1.907-9.982c0-4.395-.645-7.746-1.931-10.053-1.287-2.308-3.14-3.461-5.557-3.461-2.448 0-4.301 1.153-5.556 3.461-1.256 2.307-1.883 5.659-1.883 10.053zM184.59 1934.986c-1.883 2.293-3.83 3.94-5.839 4.945-2.009 1.004-4.331 1.506-6.969 1.506-4.175 0-7.361-1.475-9.559-4.426s-3.296-7.22-3.296-12.808v-28.252h12.949v26.321c0 3.234.4 5.533 1.2 6.898.801 1.365 2.127 2.048 3.979 2.048 1.507 0 2.849-.533 4.025-1.601 1.178-1.067 2.346-2.81 3.508-5.227v-28.44h13.043v44.638h-12.854l-.187-5.602zM207.333 1940.59v-44.638h12.478v14.832c1.633-5.21 3.422-9.118 5.368-11.724 1.945-2.605 4.033-3.908 6.263-3.908 1.318 0 2.629.234 3.932.705s2.598 1.178 3.885 2.119l-3.061 11.961c-.816-.691-1.656-1.201-2.52-1.531s-1.734-.494-2.613-.494c-3.171 0-5.729 2.307-7.675 6.922-1.946 4.614-2.92 10.814-2.92 18.6v7.156h-13.137zM243.59 1940.59v-44.638h12.854l.188 5.603c1.883-2.291 3.829-3.946 5.839-4.967 2.009-1.02 4.332-1.531 6.969-1.531 4.175 0 7.36 1.477 9.559 4.427 2.197 2.952 3.296 7.236 3.296 12.854v28.252h-13.043v-26.321c0-3.296-.393-5.618-1.178-6.969-.785-1.35-2.087-2.024-3.908-2.024-1.506 0-2.871.55-4.096 1.648-1.225 1.098-2.401 2.84-3.531 5.227v28.439h-12.949zM312.289 1935.787c-2.26 2.072-4.332 3.571-6.216 4.497-1.883.926-3.829 1.39-5.838 1.39-3.297 0-5.973-1.045-8.028-3.133-2.057-2.086-3.085-4.81-3.085-8.168 0-4.018 1.695-7.432 5.086-10.242 3.39-2.809 9.182-5.533 17.375-8.17v-3.672c0-1.193-.369-2.072-1.106-2.637-.737-.565-1.907-.848-3.508-.848-2.575 0-5.109.541-7.604 1.624-2.496 1.083-4.906 2.692-7.229 4.827v-10.125c2.699-2.07 5.486-3.617 8.358-4.637 2.872-1.021 5.893-1.531 9.063-1.531 5.274 0 9.088 1.139 11.442 3.414s3.531 5.957 3.531 11.042v19.493c0 .565.095.966.283 1.201.188.235.501.354.941.354.345 0 .801-.125 1.365-.377.565-.25 1.271-.643 2.119-1.178v8.382c-2.166 1.538-4.066 2.653-5.697 3.343-1.633.691-3.14 1.037-4.521 1.037-1.789 0-3.233-.488-4.332-1.461-1.097-.972-1.898-2.446-2.399-4.425zm-.706-6.498v-10.688c-3.484 1.193-6.027 2.48-7.628 3.861-1.602 1.382-2.401 2.981-2.401 4.803 0 1.538.329 2.669.988 3.39.659.723 1.68 1.084 3.061 1.084.942 0 1.923-.213 2.942-.637 1.02-.424 2.032-1.028 3.038-1.813zM355.703 1935.787c-2.261 2.072-4.332 3.571-6.216 4.497s-3.831 1.39-5.839 1.39c-3.296 0-5.973-1.045-8.027-3.133-2.057-2.086-3.085-4.81-3.085-8.168 0-4.018 1.695-7.432 5.085-10.242 3.391-2.809 9.183-5.533 17.375-8.17v-3.672c0-1.193-.369-2.072-1.105-2.637-.738-.565-1.907-.848-3.509-.848-2.574 0-5.109.541-7.604 1.624-2.497 1.083-4.906 2.692-7.229 4.827v-10.125c2.699-2.07 5.484-3.617 8.358-4.637 2.871-1.021 5.893-1.531 9.063-1.531 5.273 0 9.088 1.139 11.442 3.414s3.531 5.957 3.531 11.042v19.493c0 .565.094.966.282 1.201s.502.354.942.354c.345 0 .8-.125 1.365-.377.564-.25 1.271-.643 2.119-1.178v8.382c-2.166 1.538-4.066 2.653-5.698 3.343-1.633.691-3.14 1.037-4.52 1.037-1.79 0-3.234-.488-4.332-1.461-1.096-.972-1.897-2.446-2.398-4.425zm-.707-6.498v-10.688c-3.484 1.193-6.026 2.48-7.628 3.861-1.601 1.382-2.401 2.981-2.401 4.803 0 1.538.33 2.669.989 3.39.659.723 1.679 1.084 3.061 1.084.941 0 1.923-.213 2.942-.637 1.02-.424 2.032-1.028 3.037-1.813zM378.634 1940.59v-65.873h13.043v65.873h-13.043zM73.296 1575.375c0 4.429-.62 7.343-1.858 8.738-1.239 1.398-3.836 2.097-7.791 2.097-4.008 0-6.617-.685-7.83-2.057-1.213-1.37-1.818-4.296-1.818-8.778v-16.373h7.514v18.357c0 1.367.514 2.049 1.543 2.049.974 0 1.462-.685 1.462-2.055v-55.682h8.779v53.704zM124.625 1575.77c0 4.324-.633 7.146-1.898 8.463-1.266 1.318-4.033 1.978-8.305 1.978-4.219 0-6.987-.673-8.305-2.017-1.318-1.345-1.977-4.152-1.977-8.424v-43.895c0-4.271.658-7.079 1.977-8.424 1.317-1.344 4.086-2.017 8.305-2.017 4.271 0 7.039.659 8.305 1.978s1.898 4.14 1.898 8.463v43.895zm-8.779 1.664v-47.223c0-1.316-.475-1.975-1.424-1.975-1.002 0-1.503.658-1.503 1.975v47.223c0 1.316.501 1.975 1.503 1.975.95-.001 1.424-.659 1.424-1.975zM175.955 1575.77c0 4.324-.633 7.146-1.898 8.463-1.266 1.318-4.033 1.978-8.305 1.978-4.219 0-6.987-.673-8.305-2.017-1.318-1.345-1.977-4.152-1.977-8.424v-54.098h8.778v55.762c0 1.316.501 1.975 1.503 1.975.949 0 1.424-.658 1.424-1.975v-55.762h8.779v54.098zM227.285 1585.894h-8.779v-25.388c0-1.477-.633-2.215-1.898-2.215h-1.028v27.603h-8.78v-64.222h12.18c3.269 0 5.47.765 6.604 2.293 1.133 1.53 1.7 4.482 1.7 8.859v12.416c0 4.166-1.318 7.066-3.955 8.701 2.637 1.371 3.955 4.086 3.955 8.146v23.807zm-8.78-37.246v-17.968c0-1.471-.633-2.207-1.898-2.207h-1.028v22.304h1.028c1.266 0 1.898-.709 1.898-2.129zM279.088 1585.894h-7.355l-5.773-34.167h-.633l.475 34.167h-7.672v-64.222h7.355l5.615 31.32h.633l-.316-31.32h7.672v64.222zM332.633 1585.894h-8.779l-.633-14.632h-3.877l-.553 14.632h-8.857l4.824-64.222h13.049l4.826 64.222zm-9.651-21.434l-1.582-33.218h-.236l-1.504 33.218h3.322zM386.176 1585.894h-8.779l-.633-14.632h-3.877l-.553 14.632h-8.857l4.824-64.222h13.049l4.826 64.222zm-9.651-21.434l-1.582-33.218h-.236l-1.504 33.218h3.322zM431.02 1585.894h-14v-64.222h8.779v57.42h5.221v6.802z"/><text transform="translate(22.102 771.252)" font-family="EurostileExt-Bla" font-size="101.444" letter-spacing="-3">nieuws</text><text transform="translate(139.6 -816.069)" font-family="EurostileCon-Reg" font-size="77.897" letter-spacing="-2">TELEVISIE</text><text transform="translate(157.555 -739.87)" font-family="EurostileCon-Reg" font-size="77.897" letter-spacing="-2">NIEUWS</text><text transform="translate(148.577 -363.077)" font-family="EurostileCon-Hea" font-size="77.897" letter-spacing="-2">TELEVISIE</text><text transform="translate(148.577 -286.878)" font-family="EurostileCon-Hea" font-size="77.897" letter-spacing="-2">JOURNAAL</text><text transform="translate(724.798 -370.089)" font-family="EurostileCon-Hea" font-size="77.897" letter-spacing="-2">TELEVISIE</text><text transform="translate(724.798 -293.89)" font-family="EurostileCon-Hea" font-size="77.897" letter-spacing="-2">JOURNAAL</text><text transform="translate(1237.545 -320.502)" font-family="AGaramondPro-Regular" font-size="77.897" letter-spacing="-2">TV-NIEUWS</text><g enable-background="new"><defs><path id="a" enable-background="new" d="M1805.444-184.081l47.707-89.788h363.346l47.707 89.788z"/></defs><clipPath id="b"><use xlink:href="#a" overflow="visible"/></clipPath><g clip-path="url(#b)"><path d="M1916.42-273.142h-19.292l-24.19 64.569-.43.291 10.596-64.86h-30.336l-46.704 87.892h24.062l32.839-71.741h.277l-15.337 71.741h38.14l30.375-87.892M1947.036-273.142h-20.769l-27.847 87.892h26.097l22.519-87.892M1996.93-273.142h-40.06l-19.998 87.892h52.198l2.016-18.98h-24.947l3.975-23.817h20.154l1.693-14.731h-19.391l2.888-17.295h20.025l1.447-13.069M2058.431-273.142h-20.771l.527 63.68c.009 1.072-.112 2-.374 2.791-.263.792-.662 1.444-1.208 1.961-.545.518-1.233.9-2.069 1.153-.837.253-1.822.377-2.958.377-1.177 0-2.191-.124-3.05-.377-.854-.252-1.552-.635-2.099-1.153-.547-.517-.941-1.169-1.193-1.961-.251-.791-.36-1.719-.334-2.791l1.555-63.68h-20.755l-5.362 63.085c-.403 4.761-.286 8.77.512 12.107.811 3.39 2.32 6.062 4.681 8.119 2.382 2.076 5.617 3.514 9.854 4.432 4.254.922 9.493 1.317 15.863 1.317 3.485 0 6.566-.104 9.299-.326 2.73-.221 5.107-.559 7.192-1.024 2.081-.466 3.866-1.058 5.411-1.79 1.542-.729 2.847-1.596 3.967-2.608 1.159-1.014 2.139-2.191 2.942-3.544.799-1.344 1.424-2.857 1.884-4.551.452-1.68.744-3.532.881-5.564.133-2.014.115-4.201-.047-6.567l-4.348-63.086M2160.383-273.142h-20.101l15.392 72.259h-.34l-29.215-72.259h-28.047l3.203 72.259h-.147l-17.22-72.259h-20.084l20.145 87.892h36.943l-6.151-75.502h.274l27.903 75.502h36.947l-19.502-87.892M2188.913-273.869c-5.044 0-9.028.209-12.073.751-3.057.544-5.18 1.424-6.498 2.771-1.327 1.358-1.844 3.196-1.664 5.662.182 2.5 1.082 5.663 2.593 9.656l1.827 4.833c.863 2.279 1.723 4.291 2.617 6.071.898 1.797 1.829 3.354 2.817 4.708.997 1.366 2.055 2.524 3.202 3.521 1.156 1.001 2.402 1.837 3.772 2.553 1.287.688 2.443 1.255 3.673 1.76 1.234.507 2.541.95 4.123 1.389 1.586.441 3.453.879 5.803 1.373 2.355.497 5.201 1.05 8.746 1.723 2.352.473 4.237.895 5.781 1.348 1.546.455 2.752.939 3.74 1.537.994.6 1.771 1.312 2.465 2.223.695.914 1.311 2.029 1.969 3.435l4.912 10.427c.508 1.079.812 1.986.9 2.738.09.755-.045 1.354-.414 1.817-.373.465-.981.791-1.845 1.003-.864.212-1.981.305-3.368.305-1.625 0-2.945-.085-4.066-.345-1.122-.26-2.041-.693-2.873-1.385-.828-.69-1.564-1.637-2.313-2.922-.749-1.277-1.507-2.885-2.381-4.898l-2.986-6.871h-22.356l2.988 7.9c1.936 5.117 3.926 9.356 6.234 12.835 2.35 3.539 5.005 6.263 8.248 8.32 3.271 2.081 7.119 3.467 11.816 4.335 4.717.873 10.271 1.215 16.941 1.215 6.543 0 11.668-.425 15.461-1.48 3.773-1.05 6.209-2.715 7.396-5.181 1.175-2.438 1.122-5.641-.036-9.762-1.14-4.041-3.332-8.933-6.441-14.786-2.816-5.3-5.15-9.363-7.506-12.575-2.321-3.159-4.682-5.521-7.555-7.413-2.848-1.874-6.21-3.296-10.539-4.571-4.303-1.267-9.562-2.39-16.211-3.66-1.999-.371-3.587-.712-4.881-1.093-1.29-.379-2.285-.798-3.104-1.327-.811-.527-1.445-1.162-2.01-1.973-.562-.808-1.053-1.789-1.586-3.009l-2.256-5.16c-.491-1.125-.814-2.029-.941-2.751-.125-.721-.051-1.262.253-1.665.306-.402.837-.666 1.636-.829.797-.163 1.859-.227 3.221-.227 1.289 0 2.297.036 3.135.192.836.157 1.504.436 2.107.923.604.487 1.146 1.186 1.736 2.182.593 1.003 1.237 2.314 2.045 4.026l1.778 3.776h19.838l-4.884-9.29c-1.43-2.727-3.023-4.971-4.908-6.804-1.863-1.814-4.021-3.232-6.599-4.319-2.56-1.08-5.546-1.832-9.083-2.315-3.528-.481-7.618-.697-12.396-.697"/></g></g><image width="1136" height="718" xlink:href="5BD6CDD4C4169ED1.png" transform="matrix(.5 0 0 .5 1052.972 4.668)" overflow="visible"/><circle cx="235.355" cy="175.649" r="81.093"/><path d="M438-1.482h-371v172h29.873c22.887-53 77.791-89.418 141.895-89.418s119.007 36.418 141.894 89.418h57.338v-172zM36 363.518h372v-172h-29.304c-22.887 53-77.791 89.418-141.894 89.418-64.104 0-119.007-36.418-141.895-89.418h-58.907v172zM-1-.482h41v171h-41zM438 192.518h41v171h-41z"/><path d="M181 127.518v103h46v-16.081s10.199 12.574 14.81 15.067c3.447 1.862 15.511 2.947 15.511 2.947s13.49-1.249 17.745-2.621c2.72-.876 10.184-5.24 10.184-5.24l-.641-44.872s-14.403 6.224-23.248 4.912c-4.299-.637-10.246-8.252-12.77-11.791-3.076-4.314-8.515-19.407-8.515-19.407s-6.14-11.675-11.136-18.239c-4.881-6.412-16.048-7.676-16.048-7.676h-31.892z" fill="#fff"/><path d="M284.296 129.84s-29.78.062-32.128 25.881c-2.499 27.488 30.343 28.558 32.1 11.958l.028-37.839z" fill="#fff" stroke="#000"/><circle cx="272.49" cy="163.614" r="11.156" stroke="#fff"/><path d="M162.424 1078.83h5.896v-36.78h-5.896v-10.536l28.108.076c2.611 0 5.001.463 7.17 1.389 2.168.926 4.038 2.182 5.61 3.766 1.572 1.585 2.796 3.436 3.67 5.553.875 2.117 1.312 4.368 1.312 6.752 0 2.789-.489 5.096-1.464 6.922-.977 1.826-2.365 3.297-4.165 4.412 1.902 1.217 3.404 2.72 4.507 4.508 1.103 1.787 1.654 3.962 1.654 6.522 0 2.612-.45 5.009-1.35 7.188-.9 2.182-2.13 4.064-3.689 5.648-1.56 1.586-3.404 2.814-5.534 3.689s-4.425 1.312-6.884 1.312h-28.945v-10.421zm18.524-36.78v12.933h9.052c.71 0 1.382-.178 2.016-.533.633-.354 1.185-.83 1.654-1.426s.843-1.268 1.122-2.016c.279-.748.418-1.527.418-2.34 0-.785-.14-1.572-.418-2.357-.279-.786-.653-1.496-1.122-2.131-.469-.633-1.021-1.146-1.654-1.54-.634-.394-1.306-.59-2.016-.59h-9.052zm0 23.354v13.426h9.585c.735 0 1.426-.189 2.073-.57.647-.381 1.204-.881 1.674-1.502.469-.621.843-1.344 1.122-2.168.279-.824.418-1.68.418-2.568 0-.938-.14-1.807-.418-2.605-.279-.799-.66-1.496-1.141-2.092-.482-.596-1.046-1.064-1.693-1.407-.646-.343-1.325-.513-2.035-.513h-9.585zM212.805 1031.59h30.504c2.967 0 5.617.444 7.949 1.332 2.334.887 4.299 2.072 5.896 3.556s2.82 3.208 3.67 5.173 1.273 4.013 1.273 6.143c0 1.953-.209 3.664-.627 5.135s-1.027 2.777-1.826 3.918-1.781 2.148-2.947 3.023-2.498 1.668-3.994 2.377c1.293.66 2.436 1.668 3.424 3.024s1.736 3.112 2.244 5.269l1.939 7.492h4.754l.076 11.221h-16.734l-2.283-13.693c-.229-1.622-.576-3.023-1.045-4.202-.471-1.179-1.098-2.143-1.883-2.892-.787-.747-1.744-1.299-2.872-1.654-1.129-.354-2.467-.532-4.013-.532h-4.906v12.552h5.286v10.422h-23.886v-10.422h5.972v-36.78h-5.972v-10.462zm18.6 10.46v13.959h7.568c1.445 0 2.744-.133 3.898-.399s2.143-.685 2.967-1.255c.824-.571 1.459-1.286 1.902-2.149.443-.861.666-1.889.666-3.08 0-2.231-.799-3.969-2.396-5.211s-3.943-1.864-7.037-1.864h-7.568zM278.551 1078.83h5.973v-37.16h-7v7.455h-12.398v-17.535h52.451v17.535h-12.475v-7.455h-7.951v37.16h6.086v10.422h-24.686v-10.422zM34.267 1103.59h21.794v11.562h-4.032v39.558c-.558 2.054-1.369 3.937-2.434 5.647-1.065 1.713-2.111 3.266-3.138 4.66-1.027 1.395-2.466 3.156-4.317 5.287l-10.612-.57c1.496-2.283 2.668-4.166 3.518-5.648.85-1.484 1.705-3.119 2.567-4.906.862-1.789 1.534-3.696 2.016-5.725v-38.303h-5.363v-11.562zM85.293 1162.279c-2.612 0-5.109-.355-7.493-1.065-2.384-.71-4.609-1.712-6.675-3.005-2.067-1.293-3.943-2.846-5.629-4.659-1.687-1.812-3.125-3.829-4.317-6.048-1.192-2.219-2.118-4.596-2.777-7.131-.66-2.536-.989-5.186-.989-7.95 0-2.763.329-5.42.989-7.968.659-2.549 1.584-4.932 2.777-7.151 1.191-2.218 2.63-4.234 4.317-6.048 1.686-1.812 3.562-3.365 5.629-4.659 2.066-1.293 4.292-2.294 6.675-3.005 2.383-.709 4.881-1.064 7.493-1.064s5.116.355 7.512 1.064c2.396.711 4.627 1.712 6.694 3.005 2.066 1.294 3.942 2.847 5.629 4.659 1.686 1.813 3.131 3.83 4.336 6.048 1.204 2.22 2.136 4.603 2.795 7.151.659 2.548.989 5.205.989 7.968 0 2.739-.33 5.382-.989 7.931-.66 2.549-1.591 4.932-2.795 7.15-1.205 2.219-2.65 4.235-4.336 6.048-1.687 1.813-3.563 3.366-5.629 4.659-2.067 1.293-4.298 2.295-6.694 3.005-2.395.71-4.9 1.065-7.512 1.065zm0-11.943c2.206 0 4.228-.476 6.067-1.426 1.838-.951 3.417-2.244 4.735-3.881 1.318-1.635 2.339-3.537 3.062-5.705s1.084-4.469 1.084-6.903c0-2.459-.368-4.779-1.103-6.96-.736-2.181-1.769-4.09-3.1-5.725-1.331-1.636-2.91-2.929-4.735-3.88-1.826-.95-3.829-1.427-6.01-1.427s-4.184.477-6.009 1.427c-1.826.951-3.398 2.244-4.716 3.88-1.319 1.635-2.353 3.544-3.1 5.725-.748 2.181-1.122 4.501-1.122 6.96 0 2.435.374 4.735 1.122 6.903.748 2.168 1.781 4.07 3.1 5.705 1.318 1.637 2.891 2.93 4.716 3.881 1.826.95 3.829 1.426 6.009 1.426zM116.124 1103.59h23.125v10.46h-5.287v23.925c0 2.181.248 4.031.742 5.553.495 1.521 1.185 2.764 2.073 3.728.887.964 1.939 1.667 3.157 2.11 1.217.444 2.548.666 3.994.666 1.496 0 2.859-.189 4.089-.57 1.229-.381 2.282-1.033 3.157-1.959.875-.926 1.546-2.161 2.016-3.709.469-1.546.704-3.485.704-5.818v-23.925h-6.124v-10.46h23.125v10.46h-4.603v22.44c0 4.059-.583 7.664-1.75 10.822-1.167 3.156-2.771 5.825-4.812 8.006-2.042 2.182-4.438 3.842-7.188 4.982-2.752 1.141-5.7 1.712-8.843 1.712-3.119 0-6.035-.564-8.748-1.692-2.714-1.129-5.078-2.764-7.094-4.906-2.016-2.143-3.607-4.748-4.773-7.816-1.167-3.068-1.75-6.543-1.75-10.422v-23.126h-5.211v-10.461zM175.519 1103.59h30.504c2.967 0 5.617.444 7.949 1.332 2.334.887 4.299 2.072 5.896 3.556s2.82 3.208 3.67 5.173 1.273 4.013 1.273 6.143c0 1.953-.209 3.664-.627 5.135s-1.027 2.777-1.826 3.918-1.781 2.148-2.947 3.023-2.498 1.668-3.994 2.377c1.293.66 2.436 1.668 3.424 3.024s1.736 3.112 2.244 5.269l1.939 7.492h4.754l.076 11.221h-16.734l-2.283-13.693c-.229-1.622-.576-3.023-1.045-4.202-.471-1.179-1.098-2.143-1.883-2.892-.787-.747-1.744-1.299-2.872-1.654-1.129-.354-2.467-.532-4.013-.532h-4.906v12.552h5.287v10.422h-23.886v-10.422h5.972v-36.78h-5.972v-10.462zm18.599 10.46v13.959h7.569c1.445 0 2.745-.133 3.898-.399 1.154-.266 2.143-.685 2.967-1.255.824-.571 1.459-1.286 1.902-2.149.443-.861.666-1.889.666-3.08 0-2.231-.799-3.969-2.396-5.211s-3.944-1.864-7.037-1.864h-7.569zM267.813 1103.59h21.908v10.46h-4.678v47.202h-12.629l-24-37.275v26.854h4.83v10.422h-21.87v-10.422h4.754v-36.78h-4.678v-10.46h17.42l23.848 37.77v-27.31h-4.906v-10.461zM323.292 1150.83h5.742l-2.586-8.291h-17.725l-2.586 8.291h6.086v10.422h-21.871v-10.422h4.299l15.707-47.24h15.254l15.365 47.24h4.184v10.422h-21.869v-10.422zm-11.563-18.029h11.639l-5.857-18.751-5.782 18.751zM377.665 1150.83h5.744l-2.586-8.291h-17.725l-2.588 8.291h6.086v10.422h-21.869v-10.422h4.297l15.709-47.24h15.252l15.367 47.24h4.184v10.422h-21.871v-10.422zm-11.562-18.029h11.639l-5.857-18.751-5.782 18.751zM402.372 1103.59h24.686v10.46h-6.086v36.78h12.551c.33 0 .652-.095.971-.285.316-.189.596-.438.836-.742s.438-.633.59-.988.229-.697.229-1.027v-7.721h12.324v21.186h-46.1v-10.422h5.971v-36.78h-5.971v-10.461zM181 1504.518v-62h11.011c4.706 0 6.989 3.496 6.989 8.748v11.469c0 3.691-1.126 6.119-3.252 7.421l-2.329 1.398 2.454 1.217c2.058 1.05 3.127 3.278 3.127 6.81v15.977c0 4.522-.938 6.305-1.646 7.161-1.109 1.314-3.477 1.8-6.846 1.8h-9.508zm6-4h2.638c2.096 0 3.362-.816 3.362-3.055v-19.471c0-2.734-1.719-4.475-3.362-4.475h-2.638v27.001zm0-31h2.638c2.096 0 3.362-1.137 3.362-3.373v-14.966c0-2.732-1.719-4.661-3.362-4.661h-2.638v23zM244 1504.518v-23.514c0-2.738-1.39-4.486-3.033-4.486h-2.967v28h-5v-62h10.34c2.753 0 4.498 1.145 5.329 2.265.64.863 1.331 3.524 1.331 8.54v12.418c0 3.643-.989 6.072-3.173 7.425l-2.205 1.389 2.284 1.217c2.119 1.103 3.094 3.331 3.094 6.815v21.932h-6zm-6-32h2.967c2.096 0 3.033-1.131 3.033-3.369v-17.969c0-2.733-1.39-4.662-3.033-4.662h-2.967v26zM288 1504.518v-58h-4v-4h14v4h-4v58zM-570.658 1733.838c0 8.688-1.372 14.688-4.115 18.002-3.086 3.659-8.803 5.486-17.145 5.486h-23.146v-139.215h26.403c12.001 0 18.002 6.574 18.002 19.717v24.859c0 9.146-2.802 15.43-8.401 18.859 5.599 2.857 8.401 8.743 8.401 17.658v34.634zm-19.031-63.76v-32.441c0-3.188-1.372-4.781-4.115-4.781h-2.229v41.833h2.229c2.743-.001 4.115-1.535 4.115-4.611zm0 67.891v-42.209c0-3.188-1.372-4.783-4.115-4.783h-2.229v51.605h2.229c2.743 0 4.115-1.538 4.115-4.613zM-515.968 1757.326h-19.031v-55.035c0-3.198-1.371-4.8-4.114-4.8h-2.229v59.835h-19.03v-139.215h26.402c7.085 0 11.857 1.658 14.316 4.972 2.457 3.316 3.686 9.716 3.686 19.202v26.917c0 9.03-2.858 15.317-8.572 18.859 5.714 2.974 8.572 8.858 8.572 17.659v51.606zm-19.031-80.735v-38.95c0-3.188-1.371-4.785-4.114-4.785h-2.229v48.348h2.229c2.743-.001 4.114-1.538 4.114-4.613zM-446.421 1638.227h-17.402v118.928h-19.031v-118.433l-20.046.247v-20.857h56.479v20.115z"/><path d="M-673.255 1765.869c-2.708 0-4.745-1.402-5.316-3.659-.498-1.974-.165-4.013.939-5.745 1.069-1.678 2.735-2.874 4.693-3.369.53-.134 1.077-.201 1.625-.201 2.613 0 4.67 1.456 5.24 3.711.481 1.904.206 3.891-.774 5.593-.998 1.731-2.601 2.95-4.513 3.435-.622.155-1.26.235-1.894.235zM-673.255 1764.869c.552 0 1.107-.07 1.648-.207 1.648-.416 3.03-1.469 3.892-2.963.85-1.476 1.088-3.197.671-4.85-.454-1.795-2.13-2.955-4.27-2.955-.465 0-.93.057-1.38.171-1.709.433-3.163 1.475-4.095 2.937-.955 1.498-1.243 3.26-.813 4.963.453 1.791 2.119 2.904 4.347 2.904z" fill="#0B080B"/><path d="M-724.963 1863.365c-2.479 0-4.272-1.466-4.918-4.021-2.449-9.693 12.055-24.998 21.035-33.352l22.292-48.781 13.245-3.346-14.775 32.451c6.342-6.031 15.182-15.021 21.944-22.645 5.752-8.613 13.968-15.881 19.556-17.293.467-.117.942-.178 1.413-.178 2.557 0 4.702 1.689 5.338 4.205 1.165 4.609-.533 12.221-4.672 21.118 5.765-4.272 21.352-25.522 24.298-30.396l.346-.77 13.68-3.454-16.675 35.116c-.876 1.766-2.276 5.551-2.586 7.034 2.032-.942 6.52-7.202 10.914-16.647l12.512-26.555 13.707-3.464-17.646 36.354c-.875 1.764-2.28 5.563-2.583 7.035 4.272-1.535 19.663-16.438 25.641-26.633 2.857-5.472 5.217-10.259 7.004-14.208-1.086-1.138-1.564-2.644-1.732-3.308-1.289-5.101 2.384-11.841 5.94-12.74.334-.084.67-.127 1-.127 1.919 0 3.472 1.429 4.053 3.728.282 1.117.216 2.495-.222 4.317 1.262-.709 2.654-1.367 4.419-1.812.408-.104.835-.155 1.272-.155 2.548 0 4.966 1.673 5.506 3.808 1.074 4.251-2.646 12.361-6.953 21.752-2.311 5.038-5.705 12.438-5.877 15.125 2.457-.994 7.928-6.886 16-20.564l-.181.046 2.57-4.182.389-.693.054-.014c6.569-10.405 18.451-22.89 22.896-24.015.604-.152 1.198-.229 1.765-.229 1.396 0 4.782.543 6.055 5.577l.044.188c3.272-4.634 7.483-9.414 11.457-10.418.544-.137 1.083-.206 1.604-.206 1.336 0 4.575.517 5.783 5.296 1.626 6.438-3.567 16.104-8.148 24.633-1.865 3.474-4.559 8.488-4.99 10.621 2.086-1.025 15.015-15.167 25.447-27.879 6.085-11.205 17.084-21.758 22.163-23.041.467-.117.951-.178 1.439-.178 1.341 0 2.654.453 3.716 1.252l.896-1.869 13.324-3.366-16.895 35.3c-.797 1.667-2.146 6.126-2.404 7.792 4.81-2.347 19.662-17.943 25.123-27.421l.151-.262c1.683-3.122 3.523-5.795 4.767-7.484 5.875-7.967 13.394-14.756 17.491-15.791.468-.119.953-.179 1.44-.179 1.341 0 2.653.452 3.716 1.251l.896-1.868 13.324-3.365-16.895 35.299c-.803 1.679-2.165 6.187-2.409 7.825 4.384-1.781 16.036-11.379 22.479-20.098 2.283-7.953 6.527-18.459 11.66-28.865 3.8-7.702 16.941-33.021 26.49-35.434.413-.104.838-.156 1.264-.156 2.321 0 4.329 1.532 4.883 3.727 1.241 4.916-1.872 12.504-9.519 23.201-6.456 9.031-14.024 17.258-16.377 19.759-7.042 15.792-11.529 27.676-12.182 30.644 4.223-1.535 13.296-13.969 19.863-25.184l.422-.723 7.339-1.854-2.347 4.088c-1.589 2.771-15.771 27.125-24.302 29.281-.654.164-1.326.248-1.996.248-2.664 0-5.865-1.401-6.858-5.335-.245-.971-.332-2.146-.26-3.555-4.642 4.813-14.635 14.642-20.095 16.021-.649.163-1.319.247-1.991.247-3.326 0-5.89-1.967-6.69-5.133l-.041-.166c-2.802 3.989-6.41 8.141-9.737 8.981-.521.131-1.049.197-1.571.197-3.142 0-5.936-2.374-6.794-5.774-.409-1.621-.579-3.363-.509-5.207-6.09 7.456-15.134 17.584-20.274 18.883-.649.164-1.319.247-1.991.247-3.327 0-5.89-1.967-6.69-5.132l-.041-.167c-2.802 3.989-6.411 8.142-9.737 8.981-.519.131-1.048.197-1.572.197-3.142 0-5.935-2.374-6.794-5.773-.427-1.693-.595-3.517-.501-5.451-.516.611-1.03 1.216-1.543 1.812-9.335 10.868-15.698 16.791-18.91 17.603-.667.168-1.321.253-1.947.253-3.051 0-5.466-2.058-6.303-5.37-2.335-9.244 4.75-21.113 9.438-28.968.846-1.416 2.161-3.619 2.986-5.221-3.627 3.504-10.138 13.584-12.888 19.352l-11.605 23.863-13.654 3.451 18.946-39.731.348-.72c.365-.738.739-1.492.871-2.218-3.467 2.382-12.386 10.757-18.09 20.021-6.859 12.256-16.44 27.255-23.012 28.917-.84.211-1.74.323-2.604.323-3.67 0-6.362-1.979-7.2-5.293-2.41-9.541 4.9-21.941 9.738-30.146.531-.902 1.09-1.85 1.594-2.733-1.094.728-2.375 1.503-3.897 2.104-1.334 3.002-3.081 6.636-5.313 11.05l.293-.074-2.337 4.072-.383.744-.099.023c-3.374 5.061-21.659 27.982-29.58 29.982-.651.165-1.323.248-1.996.248-2.421 0-5.286-1.158-6.534-4.322-2.976 4.281-5.728 6.698-8.377 7.368-.652.164-1.323.247-1.995.248-2.665 0-5.865-1.401-6.859-5.335-1.109-4.391-.509-8.129 2.385-14.689-6.121 7.643-10.673 11.873-13.57 12.605-.942.238-1.786.354-2.579.354-.233 0-.463-.011-.688-.031-4.46 7.854-11.114 16.523-16.825 17.967-.531.134-1.077.201-1.621.201-3.133 0-5.981-2.272-6.772-5.404-.83-3.285-.896-6.851-.199-10.635-7.064 7.075-14.997 14.023-20.498 18.508l-7.272 16.018c-5.433 11.885-13.685 26.499-22.148 28.639-.67.17-1.306.255-1.896.255zm8.806-21.283c-5.327 7.055-8.189 13.113-8.412 15.674 1.215-1.062 3.473-5.15 4.382-6.797l4.03-8.877zm70.101-69.664c-4.023 4.676-18.675 30.972-18.801 37.453 2.66-1.516 7.267-7.081 12.177-16.891.321-.643.574-1.242 1.513-3.476.646-1.534 1.607-3.817 3.125-7.385 1.752-4.115 2.244-7.754 1.986-9.701zm181.669-46.349l-.063.009c-.858.354-4.877 5.277-11.08 17.55-5.142 10.174-7.382 16.737-7.783 19.144 2.558-2.018 7.656-9.291 8.364-10.845l9.114-19.211c1.325-2.694 1.85-5.763 1.718-6.341-.046-.18-.157-.306-.27-.306zm47.542-12.019c-3.248 1.05-18.154 30.387-18.915 36.736 2.541-1.955 7.707-9.322 8.419-10.888l9.114-19.212c1.325-2.694 1.849-5.763 1.718-6.339-.045-.181-.156-.307-.269-.307l-.067.01zm59.992-44.892c-2.5 2.049-7.374 10.846-12.25 21.988 6.49-9.244 11.689-18.496 12.25-21.988z" fill="#fff"/><path d="M-361.458 1689.375c7.361-10.297 10.511-17.826 9.362-22.375-.442-1.75-2.051-2.971-3.913-2.971-.343 0-.686.042-1.019.126-7.258 1.834-18.106 19.234-25.838 34.907-4.742 9.611-9.227 20.381-11.645 28.87-6.585 8.981-19.554 19.757-23.838 20.839l-.198.029c-.057 0-.231 0-.374-.562-.214-1.038 1.618-7.016 2.525-8.913l15.974-33.376-10.802 2.729-1.289 2.688c-.938-1.164-2.422-1.925-4.021-1.925-.405 0-.808.05-1.195.147-3.835.969-11.272 7.74-16.931 15.416-1.433 1.943-3.147 4.5-4.706 7.389l-.151.264c-5.547 9.625-21.856 26.985-26.442 28.145l-.198.028c-.058 0-.232 0-.374-.562-.213-1.037 1.618-7.016 2.526-8.914l15.974-33.376-10.802 2.729-1.289 2.688c-.938-1.164-2.422-1.926-4.022-1.926-.405 0-.807.05-1.194.147-4.584 1.159-15.413 11.238-21.574 22.632-9.808 11.956-23.98 27.735-26.109 28.32-.34.086-.61.127-.827.127-.209 0-.299-.041-.348-.145-.44-1.741 2.382-6.996 5.112-12.077 4.496-8.369 9.591-17.854 8.06-23.916-.999-3.951-3.444-4.541-4.813-4.541-.439 0-.896.06-1.359.176-4.526 1.144-9.579 7.896-12.624 12.601.126-1.346.094-2.363-.091-3.096-1.061-4.196-3.641-4.822-5.085-4.822-.484 0-.996.066-1.52.199-3.915.989-15.663 12.924-22.507 23.914l-.027.007-.199.354-1.28 2.083.104-.027c-7.774 13.49-14.654 22.317-18.139 23.197-.182.046-.341.069-.476.069-.258 0-.323-.049-.383-.289-.575-2.276 2.866-9.778 5.902-16.398 4.052-8.835 7.88-17.181 6.893-21.089-.426-1.684-2.461-3.054-4.537-3.054-.355 0-.701.042-1.027.124-2.359.596-4.047 1.617-5.681 2.604l-.661.398c.984-2.911 1.271-4.879.93-6.23-.47-1.861-1.623-2.973-3.083-2.973-.247 0-.5.033-.754.097-2.806.71-6.441 6.673-5.215 11.524.3 1.189.955 2.534 1.973 3.299-1.825 4.086-4.295 9.117-7.352 14.969-5.949 10.146-22.013 26.037-26.515 27.176-.162.041-.311.062-.441.062-.297 0-.489-.079-.591-.479-.206-1.01 1.874-6.384 2.727-8.103l16.708-34.423-11.166 2.822-12.308 26.123c-4.369 9.39-9.347 16.661-11.837 17.291-.163.041-.311.061-.442.061-.296 0-.487-.078-.588-.479-.207-1.01 1.873-6.385 2.73-8.111l15.764-33.197-6.676 1.688-4.41 1.113v.001l-.067.017-.171.381c-2.723 4.533-21.491 30.416-26.235 31.615-.314.08-.629.125-.938.137 4.766-9.541 6.888-17.959 5.692-22.694-.522-2.063-2.277-3.45-4.369-3.45-.389 0-.782.05-1.168.146-5.053 1.277-13.135 8.12-19.007 16.937-7.778 8.772-19.094 20.19-25.72 26.168l15.985-35.107-10.762 2.719-22.176 48.525c-7.211 6.693-23.31 22.94-20.892 32.51.532 2.106 1.934 3.267 3.948 3.267.507 0 1.061-.074 1.645-.223 8.078-2.041 16.141-16.396 21.482-28.082l7.369-16.23c5.684-4.622 15.223-12.945 23.135-21.17-1.37 4.592-1.769 9.271-.656 13.679.681 2.694 3.122 4.649 5.803 4.649.462 0 .925-.057 1.376-.171 5.576-1.409 12.291-10.46 16.536-18.087.385.08.794.121 1.223.121.708 0 1.471-.105 2.333-.323 4.191-1.06 11.891-10.43 18.278-19.12l-3.41 7.577c-2.908 6.521-3.531 10.143-2.468 14.352.854 3.377 3.601 4.58 5.889 4.58.59-.001 1.179-.073 1.75-.218 2.752-.695 5.729-3.604 9.052-8.858.049.426.122.827.216 1.203.854 3.376 3.602 4.579 5.888 4.579.59 0 1.179-.072 1.751-.217 7.519-1.9 26.09-24.957 29.202-29.889l.042-.011.196-.38 1.163-2.026-.141.036c2.799-5.477 4.924-9.867 6.457-13.346 2.07-.752 3.709-1.881 5.044-2.801.81-.557 1.535-1.057 2.16-1.338-.438 1.217-1.942 3.768-3.294 6.062-4.754 8.064-11.938 20.252-9.629 29.394.729 2.884 3 4.538 6.23 4.538.785 0 1.601-.102 2.359-.293 6.552-1.656 16.843-18.535 22.405-28.471 6.465-10.5 17.349-20.33 19.781-21.094.036.058.083.154.116.286.35 1.385-.33 2.759-.93 3.972l-.341.707-18.03 37.809 11.14-2.814 11.398-23.438c3.117-6.538 11.913-20.254 15.27-21.104.06 0 .228.087.268.247.187.866-2.065 4.637-3.874 7.668-4.604 7.713-11.562 19.367-9.328 28.211.73 2.891 2.724 4.615 5.333 4.615.544 0 1.117-.075 1.702-.223 3.748-.947 12.073-9.922 18.397-17.284 1.229-1.431 2.469-2.905 3.699-4.392-.556 2.922-.598 5.776.074 8.436.747 2.955 3.142 5.02 5.825 5.02.441 0 .888-.056 1.327-.166 3.746-.947 8.104-6.876 10.545-10.635.08.848.228 1.674.447 2.543.693 2.742 2.832 4.378 5.721 4.378.589 0 1.177-.073 1.746-.216 5.079-1.283 15.059-12.601 21.9-21.225-.515 2.779-.581 5.588.098 8.272.746 2.956 3.141 5.02 5.825 5.02.441 0 .888-.057 1.326-.167 3.746-.947 8.105-6.875 10.546-10.635.08.848.228 1.675.447 2.544.693 2.741 2.831 4.378 5.72 4.378.59 0 1.177-.073 1.746-.217 5.008-1.266 14.953-10.675 21.661-17.9-.408 2.547-.47 4.659-.091 6.158.853 3.377 3.601 4.58 5.889 4.58.59 0 1.179-.074 1.75-.218 8.265-2.089 23.055-27.718 23.68-28.809l1.173-2.044-4.646 1.173-.211.362c-5.661 9.666-15.865 24.498-20.778 25.739-.162.04-.311.062-.442.062-.297 0-.488-.079-.583-.448-.194-1.772 5.484-16.351 12.415-31.88 2.35-2.497 9.919-10.709 16.405-19.781zm5.582-21.42c.896 3.542-8.47 19.039-17.343 30.45 5.469-13.728 13.388-29.767 16.858-30.643l.215-.03c.168 0 .227.049.27.223zm-61.447 53.16l-9.107 19.197c-.684 1.502-7.254 11.232-9.89 11.898l-.114.016c-.059 0-.196 0-.285-.352-1.126-4.459 15.751-37.814 19.63-38.795.104-.026.209-.039.312-.039.58 0 1.078.427 1.239 1.062.226.902-.42 4.236-1.785 7.013zm-47.609 12.03l-9.107 19.196c-.684 1.503-7.256 11.233-9.891 11.899l-.114.016c-.059 0-.196 0-.285-.352-.416-1.644 2.214-9.467 7.906-20.728 5.685-11.248 10.283-17.704 11.723-18.067.104-.027.21-.04.312-.04.58 0 1.078.427 1.239 1.062.229.9-.418 4.236-1.783 7.014zm-180.866 37.722c.147 0 .492.292.612.77.5 1.977.095 6.105-1.935 10.875-1.518 3.564-2.479 5.848-3.124 7.381-.95 2.258-1.205 2.864-1.541 3.535-4.909 9.808-10.41 16.953-13.696 17.783-.046 0-.218-.13-.277-.365-1.501-5.94 17.152-38.605 19.942-39.977l.019-.002zm-66.32 64.737l-7.194 15.839c-1.574 2.85-3.953 7.156-5.389 7.521-.286 0-.814-.376-.866-.559-.325-3.189 4.691-13.01 13.449-22.801z" fill="#0B080B"/><text transform="translate(849 1610.518)" font-family="FranklinGothic-Heavy" font-size="51.325">JOURNAAL</text><image width="612" height="522" xlink:href="5BD6CDD4C4169ED3.png" transform="matrix(.5 0 0 .5 1280 1256.252)" overflow="visible"/></g></svg>