<?xml version="1.0" encoding="iso-8859-1"?>
<!-- Generator: Adobe Illustrator 16.0.4, SVG Export Plug-In . SVG Version: 6.00 Build 0)  -->
<!DOCTYPE svg PUBLIC "-//W3C//DTD SVG 1.1//EN" "http://www.w3.org/Graphics/SVG/1.1/DTD/svg11.dtd">
<svg version="1.1" xmlns="http://www.w3.org/2000/svg" xmlns:xlink="http://www.w3.org/1999/xlink" x="0px" y="0px" width="480px"
	 height="360px" viewBox="0 0 480 360" style="enable-background:new 0 0 480 360;" xml:space="preserve">
<g id="Layer_1">
</g>
<g id="Layer_1_1_">
	<g>
		<rect x="-588" y="978.518" width="306" height="65"/>
	</g>
	<g>
		<path d="M-588,1044.518h-164v-66h164V1044.518z M-751,1043.518h162v-64h-162V1043.518z"/>
	</g>
	<g>
		<path d="M-655.325,1456.771h5.823v20.6c2.07-1.863,4.356-2.795,6.858-2.795c2.847,0,5.124,0.924,6.832,2.77
			c1.449,1.604,2.174,4.166,2.174,7.686v15.45h-5.823v-14.906c0-2.019-0.358-3.48-1.074-4.387c-0.716-0.905-1.868-1.358-3.455-1.358
			c-2.036,0-3.468,0.63-4.296,1.889c-0.811,1.277-1.216,3.469-1.216,6.574v12.188h-5.823V1456.771z"/>
		<path d="M-604.898,1489.25h-18.063c0.155,2.07,0.828,3.719,2.019,4.943c1.19,1.207,2.717,1.811,4.581,1.811
			c1.449,0,2.648-0.344,3.597-1.035c0.932-0.689,1.993-1.967,3.183-3.83l4.917,2.744c-0.759,1.293-1.562,2.402-2.407,3.325
			c-0.846,0.923-1.751,1.682-2.717,2.277c-0.966,0.595-2.01,1.03-3.131,1.307c-1.122,0.276-2.338,0.414-3.649,0.414
			c-3.761,0-6.78-1.208-9.058-3.623c-2.277-2.433-3.416-5.659-3.416-9.679c0-3.985,1.104-7.211,3.312-9.679
			c2.226-2.433,5.176-3.649,8.851-3.649c3.709,0,6.642,1.183,8.799,3.546c2.139,2.347,3.209,5.599,3.209,9.757L-604.898,1489.25z
			 M-610.876,1484.488c-0.811-3.105-2.769-4.658-5.875-4.658c-0.708,0-1.372,0.107-1.993,0.323s-1.187,0.526-1.695,0.932
			s-0.944,0.894-1.307,1.462c-0.362,0.57-0.639,1.217-0.828,1.941H-610.876z"/>
		<path d="M-593.652,1480.71v19.771h-5.823v-19.771h-2.484v-5.435h2.484v-9.238h5.823v9.238h4.529v5.435H-593.652z"/>
	</g>
	<g>
		<path d="M-579.15,1466.191c0-1.396,0.496-2.588,1.488-3.57c0.992-0.984,2.187-1.476,3.584-1.476c1.449,0,2.661,0.483,3.636,1.449
			c0.974,0.966,1.462,2.165,1.462,3.597c0,1.433-0.496,2.648-1.488,3.649s-2.195,1.501-3.61,1.501c-1.38,0-2.571-0.509-3.571-1.527
			C-578.65,1468.797-579.15,1467.59-579.15,1466.191z M-578.684,1512.023v-37.68h9.239v37.68H-578.684z"/>
		<path d="M-536.28,1487.49c0,1.881-0.367,3.666-1.1,5.357c-0.734,1.69-1.799,3.209-3.196,4.555
			c-1.415,1.346-2.998,2.363-4.749,3.053c-1.751,0.69-3.61,1.035-5.577,1.035c-2.001,0-3.878-0.345-5.628-1.035
			c-1.751-0.689-3.317-1.707-4.697-3.053c-1.38-1.312-2.433-2.816-3.157-4.517c-0.725-1.698-1.087-3.497-1.087-5.396
			c0-1.915,0.358-3.718,1.074-5.408c0.715-1.691,1.772-3.209,3.17-4.555c1.363-1.328,2.92-2.33,4.671-3.002
			c1.751-0.674,3.636-1.01,5.655-1.01s3.899,0.336,5.642,1.01c1.742,0.672,3.304,1.674,4.684,3.002
			c1.415,1.363,2.484,2.89,3.209,4.58C-536.642,1483.799-536.28,1485.593-536.28,1487.49z M-545.441,1487.49
			c0-1.949-0.492-3.484-1.475-4.606c-0.983-1.121-2.312-1.683-3.985-1.683c-1.691,0-3.024,0.562-3.999,1.683
			c-0.975,1.122-1.462,2.657-1.462,4.606s0.483,3.48,1.449,4.594c0.966,1.112,2.303,1.669,4.011,1.669
			c1.69,0,3.023-0.557,3.999-1.669C-545.929,1490.971-545.441,1489.439-545.441,1487.49z"/>
		<path d="M-505.754,1474.344v13.354c0,2.95-0.238,5.137-0.712,6.561c-0.476,1.423-1.272,2.688-2.394,3.791
			c-1.157,1.156-2.597,2.019-4.322,2.588c-1.726,0.569-3.752,0.854-6.082,0.854c-2.312,0-4.326-0.284-6.042-0.854
			c-1.717-0.569-3.179-1.432-4.387-2.588c-1.122-1.069-1.915-2.324-2.381-3.766c-0.466-1.439-0.699-3.636-0.699-6.586v-13.354h8.799
			v13.949c0,2.191,0.362,3.773,1.087,4.748s1.897,1.463,3.52,1.463c1.639,0,2.816-0.479,3.533-1.437
			c0.715-0.958,1.074-2.55,1.074-4.774v-13.949H-505.754z"/>
		<path d="M-500.668,1500.481v-26.138h8.695v6.159c0.897-2.243,2.123-3.925,3.676-5.046s3.433-1.683,5.641-1.683
			c0.363,0,0.729,0.013,1.101,0.039c0.37,0.025,0.745,0.064,1.126,0.116l-0.881,8.385c-0.552-0.189-1.096-0.328-1.63-0.414
			c-0.535-0.086-1.053-0.129-1.553-0.129c-2.243,0-3.973,0.686-5.188,2.057c-1.217,1.372-1.824,3.317-1.824,5.836v10.817H-500.668z"
			/>
		<path d="M-478.63,1500.481v-26.138h8.437v5.305c1.225-2.121,2.64-3.674,4.244-4.658c1.604-0.982,3.527-1.475,5.771-1.475
			c1.689,0,3.195,0.271,4.516,0.815c1.32,0.543,2.394,1.324,3.222,2.342c0.69,0.88,1.182,1.95,1.476,3.209
			c0.293,1.26,0.439,3.14,0.439,5.642v14.958h-9.238v-14.001c0-2.087-0.342-3.605-1.023-4.555c-0.682-0.948-1.771-1.423-3.273-1.423
			c-1.914,0-3.312,0.708-4.191,2.122c-0.881,1.415-1.32,3.709-1.32,6.884v10.973H-478.63z"/>
		<path d="M-417.594,1474.344v26.138h-8.462v-4.244c-1.208,1.812-2.566,3.14-4.075,3.985c-1.511,0.846-3.283,1.268-5.318,1.268
			c-3.486,0-6.271-1.271-8.359-3.816s-3.131-5.957-3.131-10.235c0-4.261,1.09-7.647,3.273-10.157
			c2.182-2.511,5.119-3.766,8.812-3.766c1.967,0,3.661,0.418,5.085,1.255s2.645,2.127,3.662,3.869v-4.296H-417.594z
			 M-425.693,1487.387c0-2.035-0.543-3.648-1.631-4.84c-1.086-1.189-2.57-1.785-4.451-1.785s-3.359,0.592-4.438,1.772
			c-1.078,1.183-1.617,2.8-1.617,4.853c0,2.036,0.543,3.641,1.63,4.813s2.562,1.76,4.425,1.76c1.881,0,3.365-0.587,4.451-1.76
			C-426.236,1491.027-425.693,1489.423-425.693,1487.387z"/>
		<path d="M-384.195,1474.344v26.138h-8.462v-4.244c-1.208,1.812-2.566,3.14-4.075,3.985c-1.511,0.846-3.283,1.268-5.318,1.268
			c-3.486,0-6.271-1.271-8.359-3.816s-3.131-5.957-3.131-10.235c0-4.261,1.09-7.647,3.273-10.157
			c2.182-2.511,5.119-3.766,8.812-3.766c1.967,0,3.661,0.418,5.085,1.255s2.645,2.127,3.662,3.869v-4.296H-384.195z
			 M-392.295,1487.387c0-2.035-0.543-3.648-1.631-4.84c-1.086-1.189-2.57-1.785-4.451-1.785s-3.359,0.592-4.438,1.772
			c-1.078,1.183-1.617,2.8-1.617,4.853c0,2.036,0.543,3.641,1.63,4.813s2.562,1.76,4.425,1.76c1.881,0,3.365-0.587,4.451-1.76
			C-392.838,1491.027-392.295,1489.423-392.295,1487.387z"/>
		<path d="M-378.564,1500.481v-40.112h9.238v40.112H-378.564z"/>
	</g>
	<g>
		<path d="M-663.349,1469.064v6.547l-22.101,9.084l22.101,9.006v6.573l-30.485-12.577v-6.029L-663.349,1469.064z"/>
	</g>
	<g>
		<path d="M-355.091,1500.671v-6.548l22.101-9.083l-22.101-9.006v-6.573l30.485,12.577v6.03L-355.091,1500.671z"/>
	</g>
	<g>
		<rect x="-670" y="1827.518" width="120" height="72"/>
	</g>
	<g>
		<rect x="-670" y="1909.518" width="307" height="72"/>
	</g>
	<g>
		<path style="fill:#FFFFFF;" d="M-638.57,1890.408v-22.436h-8.884v22.436h-10.691v-53.604h10.691v21.532h8.884v-21.532h10.691
			v53.604H-638.57z"/>
		<path style="fill:#FFFFFF;" d="M-619.603,1890.408v-53.604h24.694v9.637h-14.003v12.121h12.046v9.637h-12.046v12.573h14.003v9.637
			H-619.603z"/>
		<path style="fill:#FFFFFF;" d="M-571.271,1846.44v43.968h-10.691v-43.968h-9.034v-9.637h28.759v9.637H-571.271z"/>
	</g>
	<g>
		<path style="fill:#FFFFFF;" d="M-638.269,1969.954c-2.861,3.012-6.701,4.668-12.272,4.668c-4.818,0-8.884-1.731-11.745-4.593
			l7.378-7.228c0.753,1.054,2.56,2.184,4.367,2.184c3.237,0,5.496-2.259,5.496-6.399v-38.171h10.691v38.171
			C-634.354,1963.103-635.634,1967.168-638.269,1969.954z"/>
		<path style="fill:#FFFFFF;" d="M-600.554,1969.276c-2.484,2.937-5.797,5.346-11.82,5.346s-9.185-2.409-11.669-5.346
			c-4.291-5.119-3.99-14.831-3.99-22.059s-0.301-16.939,3.99-22.06c2.484-2.936,5.646-5.346,11.669-5.346s9.336,2.41,11.82,5.346
			c4.292,5.12,3.99,14.832,3.99,22.06S-596.263,1964.157-600.554,1969.276z M-608.685,1931.558
			c-0.603-1.204-1.732-2.108-3.689-2.108s-2.936,0.904-3.538,2.108c-1.28,2.484-1.431,9.186-1.431,15.66s0.15,13.175,1.431,15.659
			c0.602,1.205,1.581,2.108,3.538,2.108s3.087-0.903,3.689-2.108c1.28-2.484,1.43-9.185,1.43-15.659
			S-607.405,1934.042-608.685,1931.558z"/>
		<path style="fill:#FFFFFF;" d="M-563.969,1970.18c-2.861,2.937-6.625,4.442-11.143,4.442s-8.282-1.506-11.143-4.442
			c-2.56-2.635-3.99-6.249-3.99-10.54v-39.225h10.691v39.752c0,3.463,2.033,4.818,4.442,4.818s4.442-1.355,4.442-4.818v-39.752
			h10.691v39.225C-559.979,1963.931-561.41,1967.545-563.969,1970.18z"/>
		<path style="fill:#FFFFFF;" d="M-531.298,1974.02l-6.55-20.854h-3.539v20.854h-10.691v-53.604h15.283
			c11.669,0,14.907,6.099,14.907,16.338c0,5.722-0.903,10.841-6.098,14.078l7.83,23.188H-531.298z M-536.87,1930.052h-4.517v13.477
			h4.517c4.065,0,4.292-3.689,4.292-6.775C-532.578,1933.666-532.804,1930.052-536.87,1930.052z"/>
		<path style="fill:#FFFFFF;" d="M-492.078,1974.02l-11.368-26.2v26.2h-10.691v-53.604h9.335l11.143,26.2v-26.2h10.69v53.604
			H-492.078z"/>
		<path style="fill:#FFFFFF;" d="M-451.428,1974.02l-1.732-8.356h-12.347l-1.731,8.356h-11.143l13.777-53.604h10.54l13.778,53.604
			H-451.428z M-459.333,1936.15l-4.141,19.876h8.281L-459.333,1936.15z"/>
		<path style="fill:#FFFFFF;" d="M-411.832,1974.02l-1.731-8.356h-12.347l-1.732,8.356h-11.142l13.777-53.604h10.54l13.777,53.604
			H-411.832z M-419.737,1936.15l-4.141,19.876h8.281L-419.737,1936.15z"/>
		<path style="fill:#FFFFFF;" d="M-396.102,1974.02v-53.604h10.69v43.968h14.004v9.637H-396.102z"/>
	</g>
	<g>
		<rect x="-638" y="2337.518" width="261" height="15"/>
	</g>
	<g>
		<path d="M-617.57,2323.408v-22.436h-8.884v22.436h-10.691v-53.604h10.691v21.532h8.884v-21.532h10.691v53.604H-617.57z"/>
		<path d="M-598.603,2323.408v-53.604h24.694v9.637h-14.003v12.121h12.046v9.637h-12.046v12.573h14.003v9.637H-598.603z"/>
		<path d="M-550.271,2279.44v43.968h-10.691v-43.968h-9.034v-9.637h28.759v9.637H-550.271z"/>
	</g>
	<g>
		<path d="M-630.983,2417.954c-2.861,3.012-6.701,4.668-12.272,4.668c-4.818,0-8.884-1.731-11.745-4.593l7.378-7.228
			c0.753,1.054,2.56,2.184,4.367,2.184c3.237,0,5.496-2.259,5.496-6.399v-38.171h10.691v38.171
			C-627.068,2411.103-628.349,2415.168-630.983,2417.954z"/>
		<path d="M-593.269,2417.276c-2.484,2.937-5.797,5.346-11.82,5.346s-9.185-2.409-11.669-5.346
			c-4.291-5.119-3.99-14.831-3.99-22.059s-0.301-16.939,3.99-22.06c2.484-2.936,5.646-5.346,11.669-5.346s9.336,2.41,11.82,5.346
			c4.292,5.12,3.99,14.832,3.99,22.06S-588.977,2412.157-593.269,2417.276z M-601.399,2379.558
			c-0.603-1.204-1.732-2.108-3.689-2.108s-2.936,0.904-3.538,2.108c-1.28,2.484-1.431,9.186-1.431,15.66s0.15,13.175,1.431,15.659
			c0.602,1.205,1.581,2.108,3.538,2.108s3.087-0.903,3.689-2.108c1.28-2.484,1.43-9.185,1.43-15.659
			S-600.12,2382.042-601.399,2379.558z"/>
		<path d="M-556.684,2418.18c-2.861,2.937-6.625,4.442-11.143,4.442s-8.282-1.506-11.143-4.442c-2.56-2.635-3.99-6.249-3.99-10.54
			v-39.225h10.691v39.752c0,3.463,2.033,4.818,4.442,4.818s4.442-1.355,4.442-4.818v-39.752h10.691v39.225
			C-552.693,2411.931-554.124,2415.545-556.684,2418.18z"/>
		<path d="M-524.013,2422.02l-6.55-20.854h-3.539v20.854h-10.691v-53.604h15.283c11.669,0,14.907,6.099,14.907,16.338
			c0,5.722-0.903,10.841-6.098,14.078l7.83,23.188H-524.013z M-529.584,2378.052h-4.517v13.477h4.517
			c4.065,0,4.292-3.689,4.292-6.775C-525.292,2381.666-525.519,2378.052-529.584,2378.052z"/>
		<path d="M-484.793,2422.02l-11.368-26.2v26.2h-10.69v-53.604h9.336l11.142,26.2v-26.2h10.691v53.604H-484.793z"/>
		<path d="M-444.143,2422.02l-1.732-8.356h-12.347l-1.731,8.356h-11.143l13.777-53.604h10.54L-433,2422.02H-444.143z
			 M-452.048,2384.15l-4.141,19.876h8.281L-452.048,2384.15z"/>
		<path d="M-404.547,2422.02l-1.731-8.356h-12.347l-1.732,8.356h-11.142l13.777-53.604h10.54l13.777,53.604H-404.547z
			 M-412.452,2384.15l-4.141,19.876h8.281L-412.452,2384.15z"/>
		<path d="M-388.816,2422.02v-53.604h10.69v43.968h14.004v9.637H-388.816z"/>
	</g>
	<g>
		<path d="M-639.458,2841.406v-15.028h-15.533v15.028h-9.645v-37.402h9.645v13.963h15.533v-13.963h9.646v37.402H-639.458z"/>
		<path d="M-623.079,2841.406v-37.402h27.421v8.411h-17.776v5.832h17.383v8.411h-17.383v6.337h17.776v8.411H-623.079z"/>
		<path d="M-581.692,2841.406v-28.991h-10.486v-8.411h30.561v8.411h-10.43v28.991H-581.692z"/>
	</g>
	<g>
		<path d="M-667.832,2882.359l4.037-7.347c1.346,1.122,3.141,2.188,5.383,2.188c3.028,0,4.991-1.963,4.991-5.103v-24.449h9.645
			v24.561c0,9.253-5.607,13.515-13.794,13.515C-661.327,2885.724-665.028,2884.826-667.832,2882.359z"/>
		<path d="M-638.95,2866.378c0-11.384,8.58-19.347,20.019-19.347s19.963,7.963,19.963,19.347c0,11.383-8.524,19.346-19.963,19.346
			S-638.95,2877.761-638.95,2866.378z M-608.781,2866.378c0-6.112-3.981-10.823-10.15-10.823s-10.206,4.711-10.206,10.823
			c0,6.056,4.037,10.822,10.206,10.822S-608.781,2872.434-608.781,2866.378z"/>
		<path d="M-594.085,2869.91v-22.262h9.813v21.926c0,4.43,2.692,7.626,7.907,7.626c5.159,0,7.851-3.196,7.851-7.626v-21.926h9.757
			v22.206c0,9.309-5.607,15.869-17.608,15.869C-588.366,2885.724-594.085,2879.106-594.085,2869.91z"/>
		<path d="M-531.164,2885.051l-6.281-12.561h-4.935v12.561h-9.645v-37.402h18.729c8.299,0,13.01,5.495,13.01,12.448
			c0,6.505-3.925,9.981-7.458,11.216l7.626,13.738H-531.164z M-530.099,2860.041c0-2.58-2.075-3.981-4.654-3.981h-7.626v8.019h7.626
			C-532.174,2864.078-530.099,2862.677-530.099,2860.041z"/>
		<path d="M-489.496,2885.051l-15.813-21.646v21.646h-9.645v-37.402h9.925l15.141,20.579v-20.579h9.701v37.402H-489.496z"/>
		<path d="M-448.053,2885.051l-1.85-5.383h-14.748l-1.851,5.383h-10.936l14.075-37.402h12.169l14.075,37.402H-448.053z
			 M-457.249,2857.181l-4.767,14.075h9.478L-457.249,2857.181z"/>
		<path d="M-408.964,2885.051l-1.851-5.383h-14.747l-1.851,5.383h-10.936l14.075-37.402h12.169l14.075,37.402H-408.964z
			 M-418.16,2857.181l-4.767,14.075h9.478L-418.16,2857.181z"/>
		<path d="M-395.446,2885.051v-37.402h9.646v28.991h15.028v8.411H-395.446z"/>
	</g>
	<g>
		<rect x="-668" y="2896.518" width="53" height="7"/>
	</g>
	<g>
		<path d="M-684.003,989.037v47.988h-14.73v-18.668h-11.25v18.668h-14.73v-47.988h14.73v17.648h11.25v-17.648H-684.003z"/>
		<path d="M-652.539,1024.193l13.078,0.879c-0.773,3.516-2.748,6.51-5.924,8.982c-3.176,2.473-7.471,3.709-12.885,3.709
			c-6.024,0-10.828-1.74-14.414-5.221s-5.379-7.799-5.379-12.955c0-5.344,1.77-9.855,5.309-13.535
			c3.539-3.68,8.262-5.52,14.168-5.52c5.718,0,10.341,1.734,13.869,5.203c3.527,3.469,5.291,8.191,5.291,14.168
			c0,0.492-0.012,1.172-0.035,2.039h-23.941c0.047,2.25,0.445,3.92,1.195,5.01c0.75,1.09,2.18,1.635,4.289,1.635
			C-654.871,1028.588-653.078,1027.123-652.539,1024.193z M-653.488,1014.912c-0.023-2.414-0.508-4.037-1.454-4.869
			s-2.12-1.248-3.521-1.248c-3.317,0-4.975,2.039-4.975,6.117H-653.488z"/>
		<path d="M-611.863,1001.271v9.105H-619v13.184c0,1.805,0.339,2.877,1.02,3.217c0.68,0.34,1.383,0.51,2.109,0.51
			c1.125,0,2.461-0.199,4.008-0.598v9.984c-2.766,0.539-5.484,0.809-8.156,0.809c-4.312,0-7.483-0.926-9.51-2.777
			c-2.027-1.852-3.041-4.805-3.041-8.859l0.035-4.184v-11.285h-5.344v-9.105h5.344l0.211-11.637l13.324-0.211v11.848H-611.863z"/>
	</g>
	<g>
		<path style="fill:#FFFFFF;" d="M-554.133,989.037v30.234c0,4.641-0.417,8.174-1.248,10.6c-0.832,2.426-2.456,4.348-4.869,5.766
			c-2.414,1.418-5.684,2.127-9.809,2.127c-3.633,0-6.914-0.387-9.844-1.16v-11.461c2.062,0.586,3.984,0.879,5.766,0.879
			c2.109,0,3.609-0.486,4.5-1.459c0.891-0.973,1.336-2.736,1.336-5.291v-30.234H-554.133z"/>
		<path style="fill:#FFFFFF;" d="M-529.278,1037.764c-5.93,0-10.641-1.846-14.133-5.537c-3.493-3.691-5.238-8.021-5.238-12.99
			c0-5.344,1.822-9.797,5.467-13.359c3.644-3.562,8.385-5.344,14.221-5.344c5.883,0,10.611,1.758,14.186,5.273
			c3.574,3.516,5.362,7.922,5.362,13.219c0,5.344-1.811,9.803-5.432,13.377S-523.278,1037.764-529.278,1037.764z M-529.067,1029.256
			c2.18,0,3.51-1.131,3.99-3.393c0.48-2.262,0.721-4.623,0.721-7.084c0-3.352-0.34-5.766-1.02-7.242
			c-0.68-1.477-1.898-2.215-3.656-2.215c-1.617,0-2.801,0.762-3.551,2.285c-0.75,1.523-1.125,4.031-1.125,7.523
			c0,4.102,0.387,6.814,1.16,8.139S-530.614,1029.256-529.067,1029.256z"/>
		<path style="fill:#FFFFFF;" d="M-469.195,1001.271v35.754h-12.973v-5.871c-1.898,4.406-5.603,6.609-11.109,6.609
			c-3.398,0-6.029-0.943-7.893-2.83s-2.795-4.588-2.795-8.104v-25.559h14.027v22.5c0,1.406,0.193,2.396,0.58,2.971
			s1.143,0.861,2.268,0.861c1.195,0,2.167-0.428,2.918-1.283c0.75-0.855,1.125-2.057,1.125-3.604v-21.445H-469.195z"/>
		<path style="fill:#FFFFFF;" d="M-448.383,1037.025h-13.43v-35.754h11.672v7.383c1.336-5.367,4.441-8.051,9.316-8.051
			c0.492,0,1.172,0.047,2.039,0.141v12.48c-0.984-0.234-1.863-0.352-2.637-0.352c-4.641,0-6.961,2.59-6.961,7.77V1037.025z"/>
		<path style="fill:#FFFFFF;" d="M-399.445,1037.025h-14.027v-22.5c0-1.852-0.287-3.035-0.861-3.551
			c-0.575-0.516-1.296-0.773-2.162-0.773c-2.555,0-3.832,1.781-3.832,5.344v21.48h-14.027v-35.754h13.008v5.062
			c1.921-3.867,5.355-5.801,10.301-5.801c2.602,0,4.799,0.498,6.592,1.494s3.076,2.285,3.85,3.867s1.16,4.33,1.16,8.244V1037.025z"
			/>
		<path style="fill:#FFFFFF;" d="M-356.028,1037.025h-13.359c-0.328-1.523-0.492-3.188-0.492-4.992
			c-2.531,3.82-6.363,5.73-11.496,5.73c-4.218,0-7.377-1.078-9.474-3.234c-2.098-2.156-3.146-4.629-3.146-7.418
			c0-3.773,1.717-6.826,5.15-9.158c3.433-2.332,9.521-3.732,18.263-4.201v-0.809c0-1.57-0.357-2.613-1.072-3.129
			s-1.764-0.773-3.146-0.773c-3.234,0-5.039,1.301-5.414,3.902l-12.796-1.195c1.828-7.477,8.051-11.215,18.667-11.215
			c2.883,0,5.531,0.287,7.945,0.861s4.324,1.471,5.73,2.689s2.35,2.508,2.83,3.867s0.721,3.973,0.721,7.84v14.273
			C-357.118,1032.783-356.755,1035.104-356.028,1037.025z M-370.583,1020.291c-5.977,0.633-8.965,2.543-8.965,5.73
			c0,2.156,1.184,3.234,3.551,3.234c1.5,0,2.777-0.445,3.832-1.336s1.582-2.859,1.582-5.906V1020.291z"/>
		<path style="fill:#FFFFFF;" d="M-313.806,1037.025h-13.359c-0.328-1.523-0.492-3.188-0.492-4.992
			c-2.531,3.82-6.363,5.73-11.496,5.73c-4.219,0-7.377-1.078-9.475-3.234s-3.146-4.629-3.146-7.418c0-3.773,1.717-6.826,5.15-9.158
			s9.521-3.732,18.264-4.201v-0.809c0-1.57-0.357-2.613-1.072-3.129s-1.764-0.773-3.146-0.773c-3.234,0-5.039,1.301-5.414,3.902
			l-12.797-1.195c1.828-7.477,8.051-11.215,18.668-11.215c2.883,0,5.531,0.287,7.945,0.861s4.324,1.471,5.73,2.689
			s2.35,2.508,2.83,3.867s0.721,3.973,0.721,7.84v14.273C-314.896,1032.783-314.532,1035.104-313.806,1037.025z M-328.36,1020.291
			c-5.977,0.633-8.965,2.543-8.965,5.73c0,2.156,1.184,3.234,3.551,3.234c1.5,0,2.777-0.445,3.832-1.336s1.582-2.859,1.582-5.906
			V1020.291z"/>
		<path style="fill:#FFFFFF;" d="M-293.802,989.037v47.988h-13.816v-47.988H-293.802z"/>
	</g>
	<g>
		<rect x="-699.374" y="531.965" style="fill:none;stroke:#000000;stroke-miterlimit:10;" width="376.748" height="100.316"/>
		<g>
			<path d="M-673.107,611.072c0.879,0.156,1.522,0.258,1.93,0.306c0.409,0.048,0.769,0.071,1.083,0.071
				c2.197,0,3.759-0.707,4.686-2.119c0.926-1.413,1.389-3.861,1.389-7.346v-64.037h14.785v63.943c0,7.91-1.326,13.678-3.979,17.304
				s-6.836,5.438-12.549,5.438c-0.974,0-1.97-0.079-2.989-0.235c-1.021-0.157-2.174-0.424-3.461-0.8L-673.107,611.072z"/>
			<path d="M-640.76,581.549c0-7.22,1.868-12.902,5.604-17.045c3.735-4.145,8.82-6.217,15.256-6.217
				c6.404,0,11.474,2.072,15.209,6.217c3.735,4.143,5.604,9.825,5.604,17.045c0,7.189-1.86,12.84-5.58,16.951
				c-3.72,4.112-8.797,6.168-15.232,6.168c-6.467,0-11.56-2.056-15.279-6.168C-638.899,594.389-640.76,588.738-640.76,581.549z
				 M-627.34,581.549c0,4.395,0.627,7.73,1.884,10.006c1.255,2.275,3.107,3.414,5.556,3.414c2.449,0,4.309-1.146,5.58-3.438
				s1.907-5.619,1.907-9.982c0-4.395-0.645-7.746-1.931-10.053c-1.287-2.308-3.14-3.461-5.557-3.461
				c-2.448,0-4.301,1.153-5.556,3.461C-626.713,573.803-627.34,577.154-627.34,581.549z"/>
			<path d="M-566.41,598.217c-1.883,2.293-3.83,3.94-5.839,4.945c-2.009,1.004-4.331,1.506-6.969,1.506
				c-4.175,0-7.361-1.475-9.559-4.426s-3.296-7.22-3.296-12.808v-28.252h12.949v26.321c0,3.234,0.4,5.533,1.2,6.898
				c0.801,1.365,2.127,2.048,3.979,2.048c1.507,0,2.849-0.533,4.025-1.601c1.178-1.067,2.346-2.81,3.508-5.227v-28.44h13.043v44.638
				h-12.854L-566.41,598.217z"/>
			<path d="M-543.667,603.82v-44.638h12.478v14.832c1.633-5.21,3.422-9.118,5.368-11.724c1.945-2.605,4.033-3.908,6.263-3.908
				c1.318,0,2.629,0.234,3.932,0.705s2.598,1.178,3.885,2.119l-3.061,11.961c-0.816-0.691-1.656-1.201-2.52-1.531
				s-1.734-0.494-2.613-0.494c-3.171,0-5.729,2.307-7.675,6.922c-1.946,4.614-2.92,10.814-2.92,18.6v7.156H-543.667z"/>
			<path d="M-507.41,603.82v-44.638h12.854l0.188,5.603c1.883-2.291,3.829-3.946,5.839-4.967c2.009-1.02,4.332-1.531,6.969-1.531
				c4.175,0,7.36,1.477,9.559,4.427c2.197,2.952,3.296,7.236,3.296,12.854v28.252h-13.043v-26.321c0-3.296-0.393-5.618-1.178-6.969
				c-0.785-1.35-2.087-2.024-3.908-2.024c-1.506,0-2.871,0.55-4.096,1.648c-1.225,1.098-2.401,2.84-3.531,5.227v28.439H-507.41z"/>
			<path d="M-438.711,599.018c-2.26,2.072-4.332,3.571-6.216,4.497c-1.883,0.926-3.829,1.39-5.838,1.39
				c-3.297,0-5.973-1.045-8.028-3.133c-2.057-2.086-3.085-4.81-3.085-8.168c0-4.018,1.695-7.432,5.086-10.242
				c3.39-2.809,9.182-5.533,17.375-8.17v-3.672c0-1.193-0.369-2.072-1.106-2.637c-0.737-0.565-1.907-0.848-3.508-0.848
				c-2.575,0-5.109,0.541-7.604,1.624c-2.496,1.083-4.906,2.692-7.229,4.827v-10.125c2.699-2.07,5.486-3.617,8.358-4.637
				c2.872-1.021,5.893-1.531,9.063-1.531c5.274,0,9.088,1.139,11.442,3.414s3.531,5.957,3.531,11.042v19.493
				c0,0.565,0.095,0.966,0.283,1.201c0.188,0.235,0.501,0.354,0.941,0.354c0.345,0,0.801-0.125,1.365-0.377
				c0.565-0.25,1.271-0.643,2.119-1.178v8.382c-2.166,1.538-4.066,2.653-5.697,3.343c-1.633,0.691-3.14,1.037-4.521,1.037
				c-1.789,0-3.233-0.488-4.332-1.461C-437.409,602.471-438.21,600.996-438.711,599.018z M-439.417,592.52v-10.688
				c-3.484,1.193-6.027,2.48-7.628,3.861c-1.602,1.382-2.401,2.981-2.401,4.803c0,1.538,0.329,2.669,0.988,3.39
				c0.659,0.723,1.68,1.084,3.061,1.084c0.942,0,1.923-0.213,2.942-0.637C-441.435,593.908-440.423,593.305-439.417,592.52z"/>
			<path d="M-395.297,599.018c-2.261,2.072-4.332,3.571-6.216,4.497s-3.831,1.39-5.839,1.39c-3.296,0-5.973-1.045-8.027-3.133
				c-2.057-2.086-3.085-4.81-3.085-8.168c0-4.018,1.695-7.432,5.085-10.242c3.391-2.809,9.183-5.533,17.375-8.17v-3.672
				c0-1.193-0.369-2.072-1.105-2.637c-0.738-0.565-1.907-0.848-3.509-0.848c-2.574,0-5.109,0.541-7.604,1.624
				c-2.497,1.083-4.906,2.692-7.229,4.827v-10.125c2.699-2.07,5.484-3.617,8.358-4.637c2.871-1.021,5.893-1.531,9.063-1.531
				c5.273,0,9.088,1.139,11.442,3.414s3.531,5.957,3.531,11.042v19.493c0,0.565,0.094,0.966,0.282,1.201s0.502,0.354,0.942,0.354
				c0.345,0,0.8-0.125,1.365-0.377c0.564-0.25,1.271-0.643,2.119-1.178v8.382c-2.166,1.538-4.066,2.653-5.698,3.343
				c-1.633,0.691-3.14,1.037-4.52,1.037c-1.79,0-3.234-0.488-4.332-1.461C-393.995,602.471-394.796,600.996-395.297,599.018z
				 M-396.004,592.52v-10.688c-3.484,1.193-6.026,2.48-7.628,3.861c-1.601,1.382-2.401,2.981-2.401,4.803
				c0,1.538,0.33,2.669,0.989,3.39c0.659,0.723,1.679,1.084,3.061,1.084c0.941,0,1.923-0.213,2.942-0.637
				C-398.021,593.908-397.009,593.305-396.004,592.52z"/>
			<path d="M-372.366,603.82v-65.873h13.043v65.873H-372.366z"/>
		</g>
	</g>
	<g>
		<path d="M-677.704,238.605c0,4.429-0.62,7.343-1.858,8.738c-1.239,1.398-3.836,2.097-7.791,2.097c-4.008,0-6.617-0.685-7.83-2.057
			c-1.213-1.37-1.818-4.296-1.818-8.778v-16.373h7.514v18.357c0,1.367,0.514,2.049,1.543,2.049c0.974,0,1.462-0.685,1.462-2.055
			v-55.682h8.779V238.605z"/>
		<path d="M-626.375,239c0,4.324-0.633,7.146-1.898,8.463c-1.266,1.318-4.033,1.978-8.305,1.978c-4.219,0-6.987-0.673-8.305-2.017
			c-1.318-1.345-1.977-4.152-1.977-8.424v-43.895c0-4.271,0.658-7.079,1.977-8.424c1.317-1.344,4.086-2.017,8.305-2.017
			c4.271,0,7.039,0.659,8.305,1.978s1.898,4.14,1.898,8.463V239z M-635.154,240.664v-47.223c0-1.316-0.475-1.975-1.424-1.975
			c-1.002,0-1.503,0.658-1.503,1.975v47.223c0,1.316,0.501,1.975,1.503,1.975C-635.628,242.639-635.154,241.98-635.154,240.664z"/>
		<path d="M-575.045,239c0,4.324-0.633,7.146-1.898,8.463c-1.266,1.318-4.033,1.978-8.305,1.978c-4.219,0-6.987-0.673-8.305-2.017
			c-1.318-1.345-1.977-4.152-1.977-8.424v-54.098h8.778v55.762c0,1.316,0.501,1.975,1.503,1.975c0.949,0,1.424-0.658,1.424-1.975
			v-55.762h8.779V239z"/>
		<path d="M-523.715,249.124h-8.779v-25.388c0-1.477-0.633-2.215-1.898-2.215h-1.028v27.603h-8.778v-64.222h12.18
			c3.269,0,5.47,0.765,6.604,2.293c1.133,1.53,1.7,4.482,1.7,8.859v12.416c0,4.166-1.318,7.066-3.955,8.701
			c2.637,1.371,3.955,4.086,3.955,8.146V249.124z M-532.495,211.879v-17.968c0-1.471-0.633-2.207-1.898-2.207h-1.028v22.304h1.028
			C-533.127,214.008-532.495,213.299-532.495,211.879z"/>
		<path d="M-471.912,249.124h-7.355l-5.773-34.167h-0.633l0.475,34.167h-7.672v-64.222h7.355l5.615,31.32h0.633l-0.316-31.32h7.672
			V249.124z"/>
		<path d="M-418.367,249.124h-8.779l-0.633-14.632h-3.877l-0.553,14.632h-8.857l4.824-64.222h13.049L-418.367,249.124z
			 M-428.018,227.69l-1.582-33.218h-0.236l-1.504,33.218H-428.018z"/>
		<path d="M-364.824,249.124h-8.779l-0.633-14.632h-3.877l-0.553,14.632h-8.857l4.824-64.222h13.049L-364.824,249.124z
			 M-374.475,227.69l-1.582-33.218h-0.236l-1.504,33.218H-374.475z"/>
		<path d="M-319.98,249.124h-14v-64.222h8.779v57.42h5.221V249.124z"/>
	</g>
	<g>
		<path d="M-721.492-612.89h17.042v10.956c2.333-9.231,7.506-12.072,21.81-12.072c10.854,0,17.042,1.928,21.1,6.695
			c3.145,3.652,4.362,8.217,4.362,16.636v25.157h-17.448v-24.447c0-8.318-2.941-10.448-14.404-10.448
			c-11.666,0-15.013,3.043-15.013,13.492v21.404h-17.448V-612.89z"/>
		<path d="M-645.309-633.178h17.448v12.68h-17.448V-633.178z M-645.309-612.89h17.448v47.373h-17.448V-612.89z"/>
		<path d="M-554.114-580.632c-0.102,7-2.13,10.753-7.202,13.086c-4.463,2.13-10.144,2.84-22.926,2.84
			c-7.811,0-15.114-0.507-19.375-1.217c-5.478-1.015-10.042-4.463-12.173-8.927c-1.623-3.55-2.231-7.202-2.231-13.694
			c0-13.289,2.84-19.68,10.144-22.723c4.463-1.826,9.738-2.435,22.418-2.435c8.216,0,14.912,0.406,18.766,1.217
			c5.478,1.116,10.042,5.173,11.463,10.55c0.812,3.043,1.116,5.681,1.116,10.956v5.173h-46.155v2.232
			c0,3.449,1.217,5.782,3.348,6.999c1.623,0.812,5.985,1.319,12.68,1.319c10.246,0,12.579-1.014,12.984-5.376H-554.114z
			 M-571.055-595.138c-0.102-6.695-2.536-8.014-14.709-8.014c-7.506,0-10.55,0.507-12.375,2.231c-1.42,1.217-2.13,2.942-2.13,4.971
			v0.812H-571.055z"/>
		<path d="M-479.959-565.518h-17.042v-10.956c-2.333,9.231-7.507,12.071-21.81,12.071c-10.956,0-17.042-1.927-21.1-6.695
			c-3.145-3.652-4.362-8.217-4.362-16.636v-25.157h17.448v24.447c0,8.521,2.739,10.448,14.607,10.448
			c11.463,0,14.811-3.043,14.811-13.492v-21.404h17.447V-565.518z"/>
		<path d="M-472.246-612.89h18.563l10.955,35.301l13.188-35.301h16.738l12.883,35.301l11.463-35.301h18.665l-17.651,47.373h-24.244
			l-9.434-28.201l-9.738,28.201h-23.94L-472.246-612.89z"/>
		<path d="M-346.863-580.125c0.102,4.159,2.841,4.971,15.926,4.971c10.348,0,13.694-1.116,13.694-4.362
			c0-2.333-1.521-3.551-5.071-3.753c-1.725-0.203-4.159-0.203-9.028-0.203h-8.724c-18.97,0-24.752-3.347-24.752-14.506
			c0-7.608,3.043-12.375,8.927-14.1c4.666-1.319,12.274-1.928,23.433-1.928c14.912,0,20.897,0.71,25.157,3.043
			c3.652,1.927,5.174,5.072,5.479,11.159h-18.361c-0.405-2.739-2.638-3.348-12.173-3.348c-10.854,0-14.404,1.014-14.404,3.956
			s2.13,3.55,11.463,3.55h12.274c18.563,0,23.635,3.246,23.635,14.912c0,7.913-2.941,12.376-9.434,14.303
			c-4.768,1.42-12.68,2.029-25.969,2.029c-14.709,0-19.578-0.608-24.041-2.941c-4.362-2.232-6.391-6.29-6.492-12.782H-346.863z"/>
	</g>
	<g>
		<path d="M-596.522-2199.81h-14.333v-4.985h33.729v4.985h-14.333v46.971h-5.063V-2199.81z"/>
		<path d="M-573.387-2204.795h28.121v4.985h-23.057v17.526h21.889v4.985h-21.889v19.474h22.901v4.985h-27.965V-2204.795z"/>
		<path d="M-539.502-2204.795h5.063v46.971h22.123v4.985h-27.186V-2204.795z"/>
		<path d="M-508.266-2204.795h28.12v4.985h-23.058v17.526h21.889v4.985h-21.889v19.474h22.902v4.985h-27.965V-2204.795z"/>
		<path d="M-476.719-2204.795h5.141l14.021,46.971h0.156l14.099-46.971h5.142l-15.735,51.957h-7.089L-476.719-2204.795z"/>
		<path d="M-433.722-2204.795h5.063v51.957h-5.063V-2204.795z"/>
		<path d="M-394.93-2191.864c0-6.777-2.259-8.413-11.451-8.413c-8.802,0-10.282,1.247-10.282,8.725
			c0,8.023,1.091,9.036,10.983,9.737c7.244,0.545,9.737,1.091,11.841,2.415c2.804,1.792,3.895,5.141,3.895,12.074
			c0,11.918-3.35,15.034-16.125,15.034c-12.696,0-16.28-2.882-16.28-12.775v-4.051h4.674v3.038c0,7.711,1.48,8.802,12.074,8.802
			c9.737,0,10.594-0.857,10.594-10.75c0-3.271-0.155-4.673-0.779-5.686c-1.09-1.948-3.661-2.804-9.581-3.272l-5.375-0.467
			c-8.646-0.701-10.982-3.583-10.982-13.476c0-11.762,2.804-14.411,15.345-14.411c13.165,0,15.579,2.181,16.125,14.645h-4.674
			V-2191.864z"/>
		<path d="M-383.559-2204.795h5.063v51.957h-5.063V-2204.795z"/>
		<path d="M-370.939-2204.795h28.12v4.985h-23.058v17.526h21.89v4.985h-21.89v19.474h22.901v4.985h-27.964V-2204.795z"/>
	</g>
	<g>
		<path d="M-589.005-2128.596h8.023l23.524,46.504h0.156v-46.504h5.063v51.957h-8.023l-23.524-46.504h-0.156v46.504h-5.063
			V-2128.596z"/>
		<path d="M-544.604-2128.596h5.063v51.957h-5.063V-2128.596z"/>
		<path d="M-531.985-2128.596h28.12v4.985h-23.057v17.526h21.889v4.985h-21.889v19.474h22.901v4.985h-27.965V-2128.596z"/>
		<path d="M-463.904-2089.881c0,10.516-4.051,13.788-17.215,13.788c-12.931,0-16.981-3.272-16.981-13.788v-38.714h5.063v40.194
			c0,5.608,2.727,7.322,11.996,7.322c9.348,0,12.074-1.714,12.074-7.322v-40.194h5.062V-2089.881z"/>
		<path d="M-427.295-2123.61h-0.156l-11.606,46.971h-7.399l-13.71-51.957h4.907l12.308,46.971h0.156l11.606-46.971h7.634
			l11.606,46.971h0.155l12.308-46.971h4.908l-13.632,51.957h-7.4L-427.295-2123.61z"/>
		<path d="M-365.291-2115.665c0-6.777-2.259-8.413-11.451-8.413c-8.802,0-10.282,1.247-10.282,8.725
			c0,8.023,1.091,9.036,10.983,9.737c7.244,0.545,9.737,1.091,11.841,2.415c2.804,1.792,3.895,5.141,3.895,12.074
			c0,11.918-3.35,15.034-16.125,15.034c-12.696,0-16.28-2.882-16.28-12.775v-4.051h4.674v3.038c0,7.711,1.48,8.802,12.074,8.802
			c9.737,0,10.594-0.857,10.594-10.75c0-3.271-0.155-4.673-0.779-5.686c-1.09-1.948-3.661-2.804-9.581-3.272l-5.375-0.467
			c-8.646-0.701-10.982-3.583-10.982-13.476c0-11.762,2.804-14.411,15.345-14.411c13.165,0,15.579,2.181,16.125,14.645h-4.674
			V-2115.665z"/>
	</g>
	
		<text transform="matrix(1 0 0 1 -602.4229 -1699.8467)" style="font-family:'EurostileCon-Hea'; font-size:77.8967; letter-spacing:-2;">TELEVISIE</text>
	
		<text transform="matrix(1 0 0 1 -602.4229 -1623.6475)" style="font-family:'EurostileCon-Hea'; font-size:77.8967; letter-spacing:-2;">JOURNAAL</text>
	
		<text transform="matrix(1 0 0 1 -26.2021 -1706.8589)" style="font-family:'EurostileCon-Hea'; font-size:77.8967; letter-spacing:-2;">TELEVISIE</text>
	
		<text transform="matrix(1 0 0 1 -26.2021 -1630.6597)" style="font-family:'EurostileCon-Hea'; font-size:77.8967; letter-spacing:-2;">JOURNAAL</text>
	
		<text transform="matrix(1 0 0 1 486.5449 -1657.271)" style="font-family:'AGaramondPro-Regular'; font-size:77.8967; letter-spacing:-2;">TV-NIEUWS</text>
	<g>
		<g style="enable-background:new    ;">
			<defs>
				<polygon id="SVGID_1_" style="enable-background:new    ;" points="1054.444,-1520.851 1102.151,-1610.638 1465.497,-1610.638 
					1513.204,-1520.851 				"/>
			</defs>
			<clipPath id="SVGID_2_">
				<use xlink:href="#SVGID_1_"  style="overflow:visible;"/>
			</clipPath>
			<g style="clip-path:url(#SVGID_2_);">
				<polyline points="1165.42,-1609.911 1146.128,-1609.911 1121.938,-1545.343 1121.508,-1545.052 1132.104,-1609.911 
					1101.768,-1609.911 1055.064,-1522.02 1079.126,-1522.02 1111.965,-1593.761 1112.242,-1593.761 1096.905,-1522.02 
					1135.045,-1522.02 1165.42,-1609.911 				"/>
				<polyline points="1196.036,-1609.911 1175.267,-1609.911 1147.42,-1522.02 1173.517,-1522.02 1196.036,-1609.911 				"/>
				<polyline points="1245.93,-1609.911 1205.87,-1609.911 1185.872,-1522.02 1238.07,-1522.02 1240.086,-1541 1215.139,-1541 
					1219.114,-1564.816 1239.268,-1564.816 1240.961,-1579.548 1221.57,-1579.548 1224.458,-1596.843 1244.483,-1596.843 
					1245.93,-1609.911 				"/>
				<path d="M1307.431-1609.911h-20.771l0.527,63.68c0.009,1.072-0.112,2-0.374,2.791c-0.263,0.792-0.662,1.444-1.208,1.961
					c-0.545,0.518-1.233,0.9-2.069,1.153c-0.837,0.253-1.822,0.377-2.958,0.377c-1.177,0-2.191-0.124-3.05-0.377
					c-0.854-0.252-1.552-0.635-2.099-1.153c-0.547-0.517-0.941-1.169-1.193-1.961c-0.251-0.791-0.36-1.719-0.334-2.791l1.555-63.68
					h-20.755l-5.362,63.085c-0.403,4.761-0.286,8.77,0.512,12.107c0.811,3.39,2.32,6.062,4.681,8.119
					c2.382,2.076,5.617,3.514,9.854,4.432c4.254,0.922,9.493,1.317,15.863,1.317c3.485,0,6.566-0.104,9.299-0.326
					c2.73-0.221,5.107-0.559,7.192-1.024c2.081-0.466,3.866-1.058,5.411-1.79c1.542-0.729,2.847-1.596,3.967-2.608
					c1.159-1.014,2.139-2.191,2.942-3.544c0.799-1.344,1.424-2.857,1.884-4.551c0.452-1.68,0.744-3.532,0.881-5.564
					c0.133-2.014,0.115-4.201-0.047-6.567L1307.431-1609.911"/>
				<polyline points="1409.383,-1609.911 1389.282,-1609.911 1404.674,-1537.652 1404.334,-1537.652 1375.119,-1609.911 
					1347.072,-1609.911 1350.275,-1537.652 1350.128,-1537.652 1332.908,-1609.911 1312.824,-1609.911 1332.969,-1522.02 
					1369.912,-1522.02 1363.761,-1597.521 1364.035,-1597.521 1391.938,-1522.02 1428.885,-1522.02 1409.383,-1609.911 				"/>
				<path d="M1437.913-1610.638c-5.044,0-9.028,0.209-12.073,0.751c-3.057,0.544-5.18,1.424-6.498,2.771
					c-1.327,1.358-1.844,3.196-1.664,5.662c0.182,2.5,1.082,5.663,2.593,9.656l1.827,4.833c0.863,2.279,1.723,4.291,2.617,6.071
					c0.898,1.797,1.829,3.354,2.817,4.708c0.997,1.366,2.055,2.524,3.202,3.521c1.156,1.001,2.402,1.837,3.772,2.553
					c1.287,0.688,2.443,1.255,3.673,1.76c1.234,0.507,2.541,0.95,4.123,1.389c1.586,0.441,3.453,0.879,5.803,1.373
					c2.355,0.497,5.201,1.05,8.746,1.723c2.352,0.473,4.237,0.895,5.781,1.348c1.546,0.455,2.752,0.939,3.74,1.537
					c0.994,0.6,1.771,1.312,2.465,2.223c0.695,0.914,1.311,2.029,1.969,3.435l4.912,10.427c0.508,1.079,0.812,1.986,0.9,2.738
					c0.09,0.755-0.045,1.354-0.414,1.817c-0.373,0.465-0.981,0.791-1.845,1.003c-0.864,0.212-1.981,0.305-3.368,0.305
					c-1.625,0-2.945-0.085-4.066-0.345c-1.122-0.26-2.041-0.693-2.873-1.385c-0.828-0.69-1.564-1.637-2.313-2.922
					c-0.749-1.277-1.507-2.885-2.381-4.898l-2.986-6.871h-22.356l2.988,7.9c1.936,5.117,3.926,9.356,6.234,12.835
					c2.35,3.539,5.005,6.263,8.248,8.32c3.271,2.081,7.119,3.467,11.816,4.335c4.717,0.873,10.271,1.215,16.941,1.215
					c6.543,0,11.668-0.425,15.461-1.48c3.773-1.05,6.209-2.715,7.396-5.181c1.175-2.438,1.122-5.641-0.036-9.762
					c-1.14-4.041-3.332-8.933-6.441-14.786c-2.816-5.3-5.15-9.363-7.506-12.575c-2.321-3.159-4.682-5.521-7.555-7.413
					c-2.848-1.874-6.21-3.296-10.539-4.571c-4.303-1.267-9.562-2.39-16.211-3.66c-1.999-0.371-3.587-0.712-4.881-1.093
					c-1.29-0.379-2.285-0.798-3.104-1.327c-0.811-0.527-1.445-1.162-2.01-1.973c-0.562-0.808-1.053-1.789-1.586-3.009l-2.256-5.16
					c-0.491-1.125-0.814-2.029-0.941-2.751c-0.125-0.721-0.051-1.262,0.253-1.665c0.306-0.402,0.837-0.666,1.636-0.829
					c0.797-0.163,1.859-0.227,3.221-0.227c1.289,0,2.297,0.036,3.135,0.192c0.836,0.157,1.504,0.436,2.107,0.923
					c0.604,0.487,1.146,1.186,1.736,2.182c0.593,1.003,1.237,2.314,2.045,4.026l1.778,3.776h19.838l-4.884-9.29
					c-1.43-2.727-3.023-4.971-4.908-6.804c-1.863-1.814-4.021-3.232-6.599-4.319c-2.56-1.08-5.546-1.832-9.083-2.315
					C1446.781-1610.422,1442.691-1610.638,1437.913-1610.638"/>
			</g>
		</g>
	</g>
	<circle cx="-515.645" cy="-1161.121" r="81.093"/>
	<g>
		<path d="M-313-1338.482h-371v172h29.873c22.887-53,77.791-89.418,141.895-89.418s119.007,36.418,141.894,89.418H-313V-1338.482z"
			/>
	</g>
	<g>
		<path d="M-715-973.482h372v-172h-29.304c-22.887,53-77.791,89.418-141.894,89.418c-64.104,0-119.007-36.418-141.895-89.418H-715
			V-973.482z"/>
	</g>
	<rect x="-752" y="-1337.482" width="41" height="171"/>
	<rect x="-313" y="-1144.482" width="41" height="171"/>
	<path style="fill:#FFFFFF;" d="M-570-1209.482v103h46v-15.851c0,0,10.199,12.574,14.81,15.067
		c3.447,1.862,15.511,2.947,15.511,2.947s13.49-1.249,17.745-2.621c2.72-0.876,10.184-5.24,10.184-5.24l-0.641-44.873
		c0,0-14.403,6.223-23.248,4.912c-4.299-0.637-10.246-8.252-12.77-11.791c-3.076-4.314-8.515-19.407-8.515-19.407
		s-6.14-11.791-11.136-18.354c-4.881-6.412-16.048-7.791-16.048-7.791H-570z"/>
	<path style="fill:#FFFFFF;stroke:#000000;" d="M-466.704-1206.93c0,0-29.78,0.062-32.128,25.881
		c-2.499,27.487,30.343,28.558,32.1,11.958L-466.704-1206.93z"/>
	<circle style="stroke:#FFFFFF;" cx="-478.51" cy="-1173.156" r="11.156"/>
	<g>
		<path d="M-588.576-257.939h5.896v-36.78h-5.896v-10.536l28.108,0.076c2.611,0,5.001,0.463,7.17,1.388
			c2.168,0.926,4.038,2.181,5.61,3.766c1.572,1.585,2.796,3.436,3.67,5.553c0.875,2.117,1.312,4.368,1.312,6.751
			c0,2.79-0.489,5.097-1.464,6.922c-0.977,1.826-2.365,3.297-4.165,4.412c1.902,1.217,3.404,2.72,4.507,4.507
			s1.654,3.962,1.654,6.523c0,2.612-0.45,5.008-1.35,7.189c-0.9,2.181-2.13,4.064-3.689,5.648c-1.56,1.585-3.404,2.814-5.534,3.689
			c-2.13,0.875-4.425,1.312-6.884,1.312h-28.945V-257.939z M-570.052-294.72v12.932H-561c0.71,0,1.382-0.177,2.016-0.532
			c0.633-0.355,1.185-0.831,1.654-1.427c0.469-0.595,0.843-1.268,1.122-2.016c0.279-0.748,0.418-1.527,0.418-2.339
			c0-0.786-0.14-1.572-0.418-2.358c-0.279-0.786-0.653-1.496-1.122-2.13c-0.469-0.633-1.021-1.147-1.654-1.54
			c-0.634-0.393-1.306-0.59-2.016-0.59H-570.052z M-570.052-271.366v13.426h9.585c0.735,0,1.426-0.19,2.073-0.57
			c0.647-0.38,1.204-0.881,1.674-1.502c0.469-0.621,0.843-1.344,1.122-2.168c0.279-0.824,0.418-1.68,0.418-2.567
			c0-0.938-0.14-1.807-0.418-2.605c-0.279-0.799-0.66-1.496-1.141-2.092c-0.482-0.596-1.046-1.065-1.693-1.408
			c-0.646-0.342-1.325-0.513-2.035-0.513H-570.052z"/>
		<path d="M-538.195-305.179h30.504c2.967,0,5.617,0.444,7.949,1.331c2.334,0.888,4.299,2.073,5.896,3.556s2.82,3.208,3.67,5.173
			c0.85,1.965,1.273,4.013,1.273,6.143c0,1.953-0.209,3.664-0.627,5.135s-1.027,2.776-1.826,3.917s-1.781,2.149-2.947,3.024
			c-1.166,0.875-2.498,1.667-3.994,2.377c1.293,0.66,2.436,1.668,3.424,3.024c0.988,1.357,1.736,3.113,2.244,5.268l1.939,7.493
			h4.754l0.076,11.221h-16.734l-2.283-13.693c-0.229-1.623-0.576-3.024-1.045-4.203c-0.471-1.179-1.098-2.143-1.883-2.891
			c-0.787-0.748-1.744-1.299-2.872-1.654c-1.129-0.355-2.467-0.533-4.013-0.533h-4.906v12.552h5.286v10.422h-23.886v-10.422h5.972
			v-36.78h-5.972V-305.179z M-519.595-294.72v13.959h7.568c1.445,0,2.744-0.133,3.898-0.399c1.154-0.266,2.143-0.685,2.967-1.255
			c0.824-0.571,1.459-1.287,1.902-2.149c0.443-0.862,0.666-1.889,0.666-3.081c0-2.231-0.799-3.968-2.396-5.211
			c-1.598-1.242-3.943-1.864-7.037-1.864H-519.595z"/>
		<path d="M-472.449-257.939h5.973V-295.1h-7v7.455h-12.398v-17.534h52.451v17.534h-12.475v-7.455h-7.951v37.161h6.086v10.422
			h-24.686V-257.939z"/>
	</g>
	<g>
		<path d="M-716.733-233.179h21.794v11.562h-4.032v39.557c-0.558,2.054-1.369,3.937-2.434,5.648
			c-1.065,1.712-2.111,3.265-3.138,4.66c-1.027,1.394-2.466,3.157-4.317,5.287l-10.612-0.57c1.496-2.282,2.668-4.165,3.518-5.648
			s1.705-3.119,2.567-4.906c0.862-1.788,1.534-3.696,2.016-5.725v-38.302h-5.363V-233.179z"/>
		<path d="M-665.707-174.491c-2.612,0-5.109-0.355-7.493-1.065c-2.384-0.709-4.609-1.711-6.675-3.005
			c-2.067-1.293-3.943-2.846-5.629-4.659c-1.687-1.812-3.125-3.829-4.317-6.048c-1.192-2.218-2.118-4.596-2.777-7.131
			c-0.66-2.536-0.989-5.186-0.989-7.95c0-2.763,0.329-5.42,0.989-7.968c0.659-2.548,1.584-4.932,2.777-7.151
			c1.191-2.218,2.63-4.234,4.317-6.047c1.686-1.812,3.562-3.366,5.629-4.66c2.066-1.293,4.292-2.294,6.675-3.004
			c2.383-0.71,4.881-1.065,7.493-1.065s5.116,0.355,7.512,1.065c2.396,0.71,4.627,1.711,6.694,3.004
			c2.066,1.293,3.942,2.847,5.629,4.66c1.686,1.813,3.131,3.829,4.336,6.047c1.204,2.219,2.136,4.603,2.795,7.151
			c0.659,2.548,0.989,5.205,0.989,7.968c0,2.739-0.33,5.382-0.989,7.931c-0.66,2.548-1.591,4.932-2.795,7.15
			c-1.205,2.219-2.65,4.235-4.336,6.048c-1.687,1.813-3.563,3.366-5.629,4.659c-2.067,1.293-4.298,2.295-6.694,3.005
			C-660.59-174.846-663.095-174.491-665.707-174.491z M-665.707-186.434c2.206,0,4.228-0.476,6.067-1.426
			c1.838-0.951,3.417-2.244,4.735-3.88c1.318-1.635,2.339-3.537,3.062-5.705c0.723-2.168,1.084-4.469,1.084-6.904
			c0-2.459-0.368-4.779-1.103-6.96c-0.736-2.18-1.769-4.089-3.1-5.724c-1.331-1.636-2.91-2.929-4.735-3.88
			c-1.826-0.951-3.829-1.426-6.01-1.426s-4.184,0.476-6.009,1.426c-1.826,0.951-3.398,2.244-4.716,3.88
			c-1.319,1.635-2.353,3.544-3.1,5.724c-0.748,2.181-1.122,4.501-1.122,6.96c0,2.435,0.374,4.735,1.122,6.904
			c0.748,2.168,1.781,4.07,3.1,5.705c1.318,1.636,2.891,2.929,4.716,3.88C-669.89-186.909-667.887-186.434-665.707-186.434z"/>
		<path d="M-634.876-233.179h23.125v10.459h-5.287v23.924c0,2.181,0.248,4.032,0.742,5.553c0.495,1.521,1.185,2.764,2.073,3.728
			c0.887,0.964,1.939,1.667,3.157,2.111c1.217,0.444,2.548,0.666,3.994,0.666c1.496,0,2.859-0.19,4.089-0.57
			c1.229-0.38,2.282-1.033,3.157-1.959c0.875-0.925,1.546-2.161,2.016-3.708c0.469-1.546,0.704-3.486,0.704-5.819v-23.924h-6.124
			v-10.459h23.125v10.459h-4.603v22.441c0,4.058-0.583,7.664-1.75,10.821c-1.167,3.157-2.771,5.826-4.812,8.006
			c-2.042,2.181-4.438,3.842-7.188,4.983c-2.752,1.141-5.7,1.711-8.843,1.711c-3.119,0-6.035-0.564-8.748-1.692
			c-2.714-1.128-5.078-2.764-7.094-4.907c-2.016-2.143-3.607-4.748-4.773-7.816c-1.167-3.068-1.75-6.542-1.75-10.422v-23.125h-5.211
			V-233.179z"/>
		<path d="M-575.481-233.179h30.504c2.967,0,5.617,0.444,7.949,1.331c2.334,0.888,4.299,2.073,5.896,3.556s2.82,3.208,3.67,5.173
			c0.85,1.965,1.273,4.013,1.273,6.143c0,1.953-0.209,3.664-0.627,5.135s-1.027,2.776-1.826,3.917s-1.781,2.149-2.947,3.024
			c-1.166,0.875-2.498,1.667-3.994,2.377c1.293,0.66,2.436,1.668,3.424,3.024c0.988,1.357,1.736,3.113,2.244,5.268l1.939,7.493
			h4.754l0.076,11.221h-16.734l-2.283-13.693c-0.229-1.623-0.576-3.024-1.045-4.203c-0.471-1.179-1.098-2.143-1.883-2.891
			c-0.787-0.748-1.744-1.299-2.872-1.654c-1.129-0.355-2.467-0.533-4.013-0.533h-4.906v12.552h5.287v10.422h-23.886v-10.422h5.972
			v-36.78h-5.972V-233.179z M-556.882-222.72v13.959h7.569c1.445,0,2.745-0.133,3.898-0.399c1.154-0.266,2.143-0.685,2.967-1.255
			c0.824-0.571,1.459-1.287,1.902-2.149c0.443-0.862,0.666-1.889,0.666-3.081c0-2.231-0.799-3.968-2.396-5.211
			c-1.598-1.242-3.944-1.864-7.037-1.864H-556.882z"/>
		<path d="M-483.187-233.179h21.908v10.459h-4.678v47.202h-12.629l-24-37.275v26.853h4.83v10.422h-21.87v-10.422h4.754v-36.78
			h-4.678v-10.459h17.42l23.848,37.769v-27.31h-4.906V-233.179z"/>
		<path d="M-427.708-185.939h5.742l-2.586-8.292h-17.725l-2.586,8.292h6.086v10.422h-21.871v-10.422h4.299l15.707-47.24h15.254
			l15.365,47.24h4.184v10.422h-21.869V-185.939z M-439.271-203.968h11.639l-5.857-18.751L-439.271-203.968z"/>
		<path d="M-373.335-185.939h5.744l-2.586-8.292h-17.725l-2.588,8.292h6.086v10.422h-21.869v-10.422h4.297l15.709-47.24h15.252
			l15.367,47.24h4.184v10.422h-21.871V-185.939z M-384.897-203.968h11.639l-5.857-18.751L-384.897-203.968z"/>
		<path d="M-348.628-233.179h24.686v10.459h-6.086v36.78h12.551c0.33,0,0.652-0.095,0.971-0.285c0.316-0.19,0.596-0.438,0.836-0.742
			s0.438-0.633,0.59-0.989c0.152-0.355,0.229-0.697,0.229-1.027v-7.721h12.324v21.186h-46.1v-10.422h5.971v-36.78h-5.971V-233.179z"
			/>
	</g>
	<g>
		<path d="M-570,167.518v-62h11.011c4.706,0,6.989,3.726,6.989,8.979v11.468c0,3.691-1.126,6.119-3.252,7.421l-2.329,1.398
			l2.454,1.217c2.058,1.05,3.127,3.278,3.127,6.81v15.977c0,4.522-0.938,6.189-1.646,7.045c-1.109,1.315-3.477,1.685-6.846,1.685
			H-570z M-564,163.518h2.638c2.096,0,3.362-0.586,3.362-2.824v-19.471c0-2.733-1.719-4.705-3.362-4.705H-564V163.518z
			 M-564,132.518h2.638c2.096,0,3.362-0.906,3.362-3.143v-14.965c0-2.732-1.719-4.892-3.362-4.892H-564V132.518z"/>
		<path d="M-507,167.518v-23.283c0-2.739-1.39-4.717-3.033-4.717H-513v28h-5v-62h10.34c2.753,0,4.498,1.26,5.329,2.379
			c0.64,0.864,1.331,3.64,1.331,8.656v12.417c0,3.643-0.989,6.072-3.173,7.425l-2.205,1.389l2.284,1.217
			c2.119,1.102,3.094,3.331,3.094,6.816v21.701H-507z M-513,135.518h2.967c2.096,0,3.033-0.901,3.033-3.139V114.41
			c0-2.733-1.39-4.893-3.033-4.893H-513V135.518z"/>
		<polygon points="-463,167.518 -463,109.518 -467,109.518 -467,105.518 -453,105.518 -453,109.518 -457,109.518 -457,167.518 		"/>
	</g>
	<g>
		<path d="M-1321.658,397.068c0,8.688-1.372,14.688-4.115,18.002c-3.086,3.659-8.803,5.486-17.145,5.486h-23.146V281.342h26.403
			c12.001,0,18.002,6.574,18.002,19.717v24.859c0,9.146-2.802,15.43-8.401,18.859c5.599,2.857,8.401,8.743,8.401,17.658V397.068z
			 M-1340.689,333.309v-32.441c0-3.188-1.372-4.781-4.115-4.781h-2.229v41.833h2.229
			C-1342.061,337.919-1340.689,336.385-1340.689,333.309z M-1340.689,401.199V358.99c0-3.188-1.372-4.783-4.115-4.783h-2.229v51.605
			h2.229C-1342.061,405.812-1340.689,404.274-1340.689,401.199z"/>
		<path d="M-1266.968,420.557h-19.031v-55.035c0-3.198-1.371-4.8-4.114-4.8h-2.229v59.835h-19.03V281.342h26.402
			c7.085,0,11.857,1.658,14.316,4.972c2.457,3.316,3.686,9.716,3.686,19.202v26.917c0,9.03-2.858,15.317-8.572,18.859
			c5.714,2.974,8.572,8.858,8.572,17.659V420.557z M-1285.999,339.821v-38.95c0-3.188-1.371-4.785-4.114-4.785h-2.229v48.348h2.229
			C-1287.37,344.434-1285.999,342.896-1285.999,339.821z"/>
		<path d="M-1197.421,301.457h-17.402v118.928h-19.031V301.952l-20.046,0.247v-20.857h56.479V301.457z"/>
	</g>
	<g>
		<path style="fill:#0B080B;" d="M-1424.255,429.1c-2.708,0-4.745-1.402-5.316-3.659c-0.498-1.974-0.165-4.013,0.939-5.745
			c1.069-1.678,2.735-2.874,4.693-3.369c0.53-0.134,1.077-0.201,1.625-0.201c2.613,0,4.67,1.456,5.24,3.711
			c0.481,1.904,0.206,3.891-0.774,5.593c-0.998,1.731-2.601,2.95-4.513,3.435C-1422.983,429.02-1423.621,429.1-1424.255,429.1z"/>
		<path style="fill:#0B080B;" d="M-1424.255,428.1c0.552,0,1.107-0.07,1.648-0.207c1.648-0.416,3.03-1.469,3.892-2.963
			c0.85-1.476,1.088-3.197,0.671-4.85c-0.454-1.795-2.13-2.955-4.27-2.955c-0.465,0-0.93,0.057-1.38,0.171
			c-1.709,0.433-3.163,1.475-4.095,2.937c-0.955,1.498-1.243,3.26-0.813,4.963C-1428.149,426.986-1426.483,428.1-1424.255,428.1z"/>
		<path style="fill:#FFFFFF;" d="M-1475.963,526.596c-2.479,0-4.272-1.466-4.918-4.021c-2.449-9.693,12.055-24.998,21.035-33.352
			l22.292-48.781l13.245-3.346l-14.775,32.451c6.342-6.031,15.182-15.021,21.944-22.645c5.752-8.613,13.968-15.881,19.556-17.293
			c0.467-0.117,0.942-0.178,1.413-0.178c2.557,0,4.702,1.689,5.338,4.205c1.165,4.609-0.533,12.221-4.672,21.118
			c5.765-4.272,21.352-25.522,24.298-30.396l0.346-0.77l13.68-3.454l-16.675,35.116c-0.876,1.766-2.276,5.551-2.586,7.034
			c2.032-0.942,6.52-7.202,10.914-16.647l12.512-26.555l13.707-3.464l-17.646,36.354c-0.875,1.764-2.28,5.563-2.583,7.035
			c4.272-1.535,19.663-16.438,25.641-26.633c2.857-5.472,5.217-10.259,7.004-14.208c-1.086-1.138-1.564-2.644-1.732-3.308
			c-1.289-5.101,2.384-11.841,5.94-12.74c0.334-0.084,0.67-0.127,1-0.127c1.919,0,3.472,1.429,4.053,3.728
			c0.282,1.117,0.216,2.495-0.222,4.317c1.262-0.709,2.654-1.367,4.419-1.812c0.408-0.104,0.835-0.155,1.272-0.155
			c2.548,0,4.966,1.673,5.506,3.808c1.074,4.251-2.646,12.361-6.953,21.752c-2.311,5.038-5.705,12.438-5.877,15.125
			c2.457-0.994,7.928-6.886,16-20.564l-0.181,0.046l2.57-4.182l0.389-0.693l0.054-0.014c6.569-10.405,18.451-22.89,22.896-24.015
			c0.604-0.152,1.198-0.229,1.765-0.229c1.396,0,4.782,0.543,6.055,5.577c0.015,0.062,0.03,0.124,0.044,0.188
			c3.272-4.634,7.483-9.414,11.457-10.418c0.544-0.137,1.083-0.206,1.604-0.206c1.336,0,4.575,0.517,5.783,5.296
			c1.626,6.438-3.567,16.104-8.148,24.633c-1.865,3.474-4.559,8.488-4.99,10.621c2.086-1.025,15.015-15.167,25.447-27.879
			c6.085-11.205,17.084-21.758,22.163-23.041c0.467-0.117,0.951-0.178,1.439-0.178c1.341,0,2.654,0.453,3.716,1.252l0.896-1.869
			l13.324-3.366l-16.895,35.3c-0.797,1.667-2.146,6.126-2.404,7.792c4.81-2.347,19.662-17.943,25.123-27.421l0.151-0.262
			c1.683-3.122,3.523-5.795,4.767-7.484c5.875-7.967,13.394-14.756,17.491-15.791c0.468-0.119,0.953-0.179,1.44-0.179
			c1.341,0,2.653,0.452,3.716,1.251l0.896-1.868l13.324-3.365l-16.895,35.299c-0.803,1.679-2.165,6.187-2.409,7.825
			c4.384-1.781,16.036-11.379,22.479-20.098c2.283-7.953,6.527-18.459,11.66-28.865c3.8-7.702,16.941-33.021,26.49-35.434
			c0.413-0.104,0.838-0.156,1.264-0.156c2.321,0,4.329,1.532,4.883,3.727c1.241,4.916-1.872,12.504-9.519,23.201
			c-6.456,9.031-14.024,17.258-16.377,19.759c-7.042,15.792-11.529,27.676-12.182,30.644c4.223-1.535,13.296-13.969,19.863-25.184
			l0.422-0.723l7.339-1.854l-2.347,4.088c-1.589,2.771-15.771,27.125-24.302,29.281c-0.654,0.164-1.326,0.248-1.996,0.248
			c-2.664,0-5.865-1.401-6.858-5.335c-0.245-0.971-0.332-2.146-0.26-3.555c-4.642,4.813-14.635,14.642-20.095,16.021
			c-0.649,0.163-1.319,0.247-1.991,0.247c-3.326,0-5.89-1.967-6.69-5.133c-0.014-0.056-0.027-0.111-0.041-0.166
			c-2.802,3.989-6.41,8.141-9.737,8.981c-0.521,0.131-1.049,0.197-1.571,0.197c-3.142,0-5.936-2.374-6.794-5.774
			c-0.409-1.621-0.579-3.363-0.509-5.207c-6.09,7.456-15.134,17.584-20.274,18.883c-0.649,0.164-1.319,0.247-1.991,0.247
			c-3.327,0-5.89-1.967-6.69-5.132c-0.014-0.057-0.027-0.111-0.041-0.167c-2.802,3.989-6.411,8.142-9.737,8.981
			c-0.519,0.131-1.048,0.197-1.572,0.197c-3.142,0-5.935-2.374-6.794-5.773c-0.427-1.693-0.595-3.517-0.501-5.451
			c-0.516,0.611-1.03,1.216-1.543,1.812c-9.335,10.868-15.698,16.791-18.91,17.603c-0.667,0.168-1.321,0.253-1.947,0.253
			c-3.051,0-5.466-2.058-6.303-5.37c-2.335-9.244,4.75-21.113,9.438-28.968c0.846-1.416,2.161-3.619,2.986-5.221
			c-3.627,3.504-10.138,13.584-12.888,19.352l-11.605,23.863l-13.654,3.451l18.946-39.731c0.094-0.206,0.218-0.456,0.348-0.72
			c0.365-0.738,0.739-1.492,0.871-2.218c-3.467,2.382-12.386,10.757-18.09,20.021c-6.859,12.256-16.44,27.255-23.012,28.917
			c-0.84,0.211-1.74,0.323-2.604,0.323c-3.67,0-6.362-1.979-7.2-5.293c-2.41-9.541,4.9-21.941,9.738-30.146
			c0.531-0.902,1.09-1.85,1.594-2.733c-1.094,0.728-2.375,1.503-3.897,2.104c-1.334,3.002-3.081,6.636-5.313,11.05l0.293-0.074
			l-2.337,4.072l-0.383,0.744l-0.099,0.023c-3.374,5.061-21.659,27.982-29.58,29.982c-0.651,0.165-1.323,0.248-1.996,0.248
			c-2.421,0-5.286-1.158-6.534-4.322c-2.976,4.281-5.728,6.698-8.377,7.368c-0.652,0.164-1.323,0.247-1.995,0.248
			c-2.665,0-5.865-1.401-6.859-5.335c-1.109-4.391-0.509-8.129,2.385-14.689c-6.121,7.643-10.673,11.873-13.57,12.605
			c-0.942,0.238-1.786,0.354-2.579,0.354c-0.233,0-0.463-0.011-0.688-0.031c-4.46,7.854-11.114,16.523-16.825,17.967
			c-0.531,0.134-1.077,0.201-1.621,0.201c-3.133,0-5.981-2.272-6.772-5.404c-0.83-3.285-0.896-6.851-0.199-10.635
			c-7.064,7.075-14.997,14.023-20.498,18.508l-7.272,16.018c-5.433,11.885-13.685,26.499-22.148,28.639
			C-1474.737,526.511-1475.373,526.596-1475.963,526.596z M-1467.157,505.312c-5.327,7.055-8.189,13.113-8.412,15.674
			c1.215-1.062,3.473-5.15,4.382-6.797L-1467.157,505.312z M-1397.056,435.648c-4.023,4.676-18.675,30.972-18.801,37.453
			c2.66-1.516,7.267-7.081,12.177-16.891c0.321-0.643,0.574-1.242,1.513-3.476c0.646-1.534,1.607-3.817,3.125-7.385
			C-1397.29,441.234-1396.798,437.596-1397.056,435.648z M-1215.387,389.3c-0.014,0-0.036,0.001-0.063,0.009
			c-0.858,0.354-4.877,5.277-11.08,17.55c-5.142,10.174-7.382,16.737-7.783,19.144c2.558-2.018,7.656-9.291,8.364-10.845
			l9.114-19.211c1.325-2.694,1.85-5.763,1.718-6.341C-1215.163,389.426-1215.274,389.3-1215.387,389.3z M-1167.845,377.28
			c-3.248,1.05-18.154,30.387-18.915,36.736c2.541-1.955,7.707-9.322,8.419-10.888l9.114-19.212
			c1.325-2.694,1.849-5.763,1.718-6.339c-0.045-0.181-0.156-0.307-0.269-0.307C-1167.798,377.271-1167.821,377.274-1167.845,377.28z
			 M-1107.853,332.389c-2.5,2.049-7.374,10.846-12.25,21.988C-1113.613,345.133-1108.414,335.881-1107.853,332.389z"/>
		<path style="fill:#0B080B;" d="M-1112.458,352.605c7.361-10.297,10.511-17.826,9.362-22.375c-0.442-1.75-2.051-2.971-3.913-2.971
			c-0.343,0-0.686,0.042-1.019,0.126c-7.258,1.834-18.106,19.234-25.838,34.907c-4.742,9.611-9.227,20.381-11.645,28.87
			c-6.585,8.981-19.554,19.757-23.838,20.839c-0.075,0.02-0.142,0.029-0.198,0.029c-0.057,0-0.231,0-0.374-0.562
			c-0.214-1.038,1.618-7.016,2.525-8.913l15.974-33.376l-10.802,2.729l-1.289,2.688c-0.938-1.164-2.422-1.925-4.021-1.925
			c-0.405,0-0.808,0.05-1.195,0.147c-3.835,0.969-11.272,7.74-16.931,15.416c-1.433,1.943-3.147,4.5-4.706,7.389l-0.151,0.264
			c-5.547,9.625-21.856,26.985-26.442,28.145c-0.075,0.019-0.142,0.028-0.198,0.028c-0.058,0-0.232,0-0.374-0.562
			c-0.213-1.037,1.618-7.016,2.526-8.914l15.974-33.376l-10.802,2.729l-1.289,2.688c-0.938-1.164-2.422-1.926-4.022-1.926
			c-0.405,0-0.807,0.05-1.194,0.147c-4.584,1.159-15.413,11.238-21.574,22.632c-9.808,11.956-23.98,27.735-26.109,28.32
			c-0.34,0.086-0.61,0.127-0.827,0.127c-0.209,0-0.299-0.041-0.348-0.145c-0.44-1.741,2.382-6.996,5.112-12.077
			c4.496-8.369,9.591-17.854,8.06-23.916c-0.999-3.951-3.444-4.541-4.813-4.541c-0.439,0-0.896,0.06-1.359,0.176
			c-4.526,1.144-9.579,7.896-12.624,12.601c0.126-1.346,0.094-2.363-0.091-3.096c-1.061-4.196-3.641-4.822-5.085-4.822
			c-0.484,0-0.996,0.066-1.52,0.199c-3.915,0.989-15.663,12.924-22.507,23.914l-0.027,0.007l-0.199,0.354l-1.28,2.083l0.104-0.027
			c-7.774,13.49-14.654,22.317-18.139,23.197c-0.182,0.046-0.341,0.069-0.476,0.069c-0.258,0-0.323-0.049-0.383-0.289
			c-0.575-2.276,2.866-9.778,5.902-16.398c4.052-8.835,7.88-17.181,6.893-21.089c-0.426-1.684-2.461-3.054-4.537-3.054
			c-0.355,0-0.701,0.042-1.027,0.124c-2.359,0.596-4.047,1.617-5.681,2.604c-0.223,0.135-0.442,0.268-0.661,0.398
			c0.984-2.911,1.271-4.879,0.93-6.23c-0.47-1.861-1.623-2.973-3.083-2.973c-0.247,0-0.5,0.033-0.754,0.097
			c-2.806,0.71-6.441,6.673-5.215,11.524c0.3,1.189,0.955,2.534,1.973,3.299c-1.825,4.086-4.295,9.117-7.352,14.969
			c-5.949,10.146-22.013,26.037-26.515,27.176c-0.162,0.041-0.311,0.062-0.441,0.062c-0.297,0-0.489-0.079-0.591-0.479
			c-0.206-1.01,1.874-6.384,2.727-8.103l16.708-34.423l-11.166,2.822l-12.308,26.123c-4.369,9.39-9.347,16.661-11.837,17.291
			c-0.163,0.041-0.311,0.061-0.442,0.061h0c-0.296,0-0.487-0.078-0.588-0.479c-0.207-1.01,1.873-6.385,2.73-8.111l15.764-33.197
			l-6.676,1.688l0,0l-4.41,1.113v0.001l-0.067,0.017l-0.171,0.381c-2.723,4.533-21.491,30.416-26.235,31.615
			c-0.314,0.08-0.629,0.125-0.938,0.137c4.766-9.541,6.888-17.959,5.692-22.694c-0.522-2.063-2.277-3.45-4.369-3.45
			c-0.389,0-0.782,0.05-1.168,0.146c-5.053,1.277-13.135,8.12-19.007,16.937c-7.778,8.772-19.094,20.19-25.72,26.168l15.985-35.107
			l-10.762,2.719l-22.176,48.525c-7.211,6.693-23.31,22.94-20.892,32.51c0.532,2.106,1.934,3.267,3.948,3.267
			c0.507,0,1.061-0.074,1.645-0.223c8.078-2.041,16.141-16.396,21.482-28.082l7.369-16.23c5.684-4.622,15.223-12.945,23.135-21.17
			c-1.37,4.592-1.769,9.271-0.656,13.679c0.681,2.694,3.122,4.649,5.803,4.649c0.462,0,0.925-0.057,1.376-0.171
			c5.576-1.409,12.291-10.46,16.536-18.087c0.385,0.08,0.794,0.121,1.223,0.121c0.708,0,1.471-0.105,2.333-0.323
			c4.191-1.06,11.891-10.43,18.278-19.12l-3.41,7.577c-2.908,6.521-3.531,10.143-2.468,14.352c0.854,3.377,3.601,4.58,5.889,4.58
			c0.59-0.001,1.179-0.073,1.75-0.218c2.752-0.695,5.729-3.604,9.052-8.858c0.049,0.426,0.122,0.827,0.216,1.203
			c0.854,3.376,3.602,4.579,5.888,4.579c0.59,0,1.179-0.072,1.751-0.217c7.519-1.9,26.09-24.957,29.202-29.889l0.042-0.011
			l0.196-0.38l1.163-2.026l-0.141,0.036c2.799-5.477,4.924-9.867,6.457-13.346c2.07-0.752,3.709-1.881,5.044-2.801
			c0.81-0.557,1.535-1.057,2.16-1.338c-0.438,1.217-1.942,3.768-3.294,6.062c-4.754,8.064-11.938,20.252-9.629,29.394
			c0.729,2.884,3,4.538,6.23,4.538c0.785,0,1.601-0.102,2.359-0.293c6.552-1.656,16.843-18.535,22.405-28.471
			c6.465-10.5,17.349-20.33,19.781-21.094c0.036,0.058,0.083,0.154,0.116,0.286c0.35,1.385-0.33,2.759-0.93,3.972
			c-0.125,0.254-0.245,0.495-0.341,0.707l-18.03,37.809l11.14-2.814l11.398-23.438c3.117-6.538,11.913-20.254,15.27-21.104
			c0.06,0,0.228,0.087,0.268,0.247c0.187,0.866-2.065,4.637-3.874,7.668c-4.604,7.713-11.562,19.367-9.328,28.211
			c0.73,2.891,2.724,4.615,5.333,4.615c0.544,0,1.117-0.075,1.702-0.223c3.748-0.947,12.073-9.922,18.397-17.284
			c1.229-1.431,2.469-2.905,3.699-4.392c-0.556,2.922-0.598,5.776,0.074,8.436c0.747,2.955,3.142,5.02,5.825,5.02
			c0.441,0,0.888-0.056,1.327-0.166c3.746-0.947,8.104-6.876,10.545-10.635c0.08,0.848,0.228,1.674,0.447,2.543
			c0.693,2.742,2.832,4.378,5.721,4.378c0.589,0,1.177-0.073,1.746-0.216c5.079-1.283,15.059-12.601,21.9-21.225
			c-0.515,2.779-0.581,5.588,0.098,8.272c0.746,2.956,3.141,5.02,5.825,5.02c0.441,0,0.888-0.057,1.326-0.167
			c3.746-0.947,8.105-6.875,10.546-10.635c0.08,0.848,0.228,1.675,0.447,2.544c0.693,2.741,2.831,4.378,5.72,4.378
			c0.59,0,1.177-0.073,1.746-0.217c5.008-1.266,14.953-10.675,21.661-17.9c-0.408,2.547-0.47,4.659-0.091,6.158
			c0.853,3.377,3.601,4.58,5.889,4.58c0.59,0,1.179-0.074,1.75-0.218c8.265-2.089,23.055-27.718,23.68-28.809l1.173-2.044
			l-4.646,1.173l-0.211,0.362c-5.661,9.666-15.865,24.498-20.778,25.739c-0.162,0.04-0.311,0.062-0.442,0.062
			c-0.297,0-0.488-0.079-0.583-0.448c-0.194-1.772,5.484-16.351,12.415-31.88C-1126.513,369.89-1118.944,361.678-1112.458,352.605z
			 M-1106.876,331.186c0.896,3.542-8.47,19.039-17.343,30.45c5.469-13.728,13.388-29.767,16.858-30.643
			c0.078-0.02,0.15-0.03,0.215-0.03C-1106.978,330.963-1106.919,331.012-1106.876,331.186z M-1168.323,384.346l-9.107,19.197
			c-0.684,1.502-7.254,11.232-9.89,11.898c-0.041,0.01-0.079,0.016-0.114,0.016c-0.059,0-0.196,0-0.285-0.352
			c-1.126-4.459,15.751-37.814,19.63-38.795c0.104-0.026,0.209-0.039,0.312-0.039c0.58,0,1.078,0.427,1.239,1.062
			C-1166.312,378.234-1166.958,381.568-1168.323,384.346z M-1215.932,396.375l-9.107,19.196c-0.684,1.503-7.256,11.233-9.891,11.899
			c-0.041,0.01-0.079,0.016-0.114,0.016c-0.059,0-0.196,0-0.285-0.352c-0.416-1.644,2.214-9.467,7.906-20.728
			c5.685-11.248,10.283-17.704,11.723-18.067c0.104-0.027,0.21-0.04,0.312-0.04c0.58,0,1.078,0.427,1.239,1.062
			C-1213.92,390.262-1214.567,393.598-1215.932,396.375z M-1396.798,434.098c0.147,0,0.492,0.292,0.612,0.77
			c0.5,1.977,0.095,6.105-1.935,10.875c-1.518,3.564-2.479,5.848-3.124,7.381c-0.95,2.258-1.205,2.864-1.541,3.535
			c-4.909,9.808-10.41,16.953-13.696,17.783c-0.046,0-0.218-0.13-0.277-0.365c-1.501-5.94,17.152-38.605,19.942-39.977
			C-1396.81,434.099-1396.805,434.098-1396.798,434.098z M-1463.118,498.834l-7.194,15.839c-1.574,2.85-3.953,7.156-5.389,7.521
			c-0.286,0-0.814-0.376-0.866-0.559C-1476.892,518.446-1471.876,508.625-1463.118,498.834z"/>
	</g>
	<g>
		<path d="M608-366.518c-86.019,0-156-69.981-156-156s69.981-156,156-156s156,69.981,156,156S694.019-366.518,608-366.518z
			 M608-668.518c-80.505,0-146,65.495-146,146s65.495,146,146,146s146-65.495,146-146S688.505-668.518,608-668.518z"/>
	</g>
	<g>
		
			<image style="overflow:visible;" width="419" height="353" id="_x38_qutgS_2_" xlink:href="CD590745DD69D6C6.png"  transform="matrix(1 0 0 1 1069.5732 -658.2554)">
		</image>
	</g>
	<g>
		<g>
			<g>
				<path style="fill:none;" d="M704.45-646.213c3.169-6.319,1.561-14.203,6.589-19.925c0.452-0.515,0.317-1.604,0.335-2.429
					c0.021-0.985,0.073-2.197-1.254-2.313c-0.868-0.076-1.715,0.746-1.718,1.545c-0.024,5.575-5.819,8.823-5.695,14.562
					c0.041,1.897-1.411,3.827-2.333,6.122c-1.495-2.349-1.259-4.396-0.486-6.139c3.754-8.465,3.862-17.742,6.108-26.536
					c0.231-0.905,0.578-2.203-0.781-2.479c-1.246-0.253-1.716,0.979-1.847,1.911c-0.872,6.216-6.464,11.059-5.181,17.94
					c0.138,0.741-0.755,1.811-1.39,2.534c-1.798,2.048-3.017,4.334-3.702,6.986"/>
				<path style="fill-rule:evenodd;clip-rule:evenodd;" d="M693.096-654.433c0.686-2.651,1.904-4.938,3.702-6.986
					c0.635-0.724,1.527-1.793,1.39-2.534c-1.283-6.882,4.309-11.724,5.181-17.94c0.131-0.932,0.601-2.164,1.847-1.911
					c1.359,0.276,1.013,1.574,0.781,2.479c-2.246,8.793-2.354,18.071-6.108,26.536c-0.772,1.743-1.009,3.79,0.486,6.139
					c0.922-2.294,2.374-4.224,2.333-6.122c-0.124-5.739,5.671-8.987,5.695-14.562c0.003-0.799,0.85-1.622,1.718-1.545
					c1.327,0.117,1.274,1.329,1.254,2.313c-0.018,0.825,0.117,1.914-0.335,2.429c-5.028,5.722-3.42,13.605-6.589,19.925
					 M697.753-633.014c-1.002-0.811-2.095-2.124-3.449-0.915c-1.398,1.249-0.862,2.792,0.259,3.978
					c1.474,1.559,2.729,3.555,1.819,5.387c-2.7,5.432-2.99,11.495-4.996,17.081c-0.677,1.883-1.685,2.44-3.265,0.874
					c-0.866-0.86-1.42-2.67-3.095-1.308c-1.309,1.064-1.465,2.678-0.867,4.133c2.118,5.156,0.188,9.093-3.653,12.404
					c-2.704,2.33-3.452,4.978-2.573,8.467c0.9,3.576,0.582,6.984-3.231,9.089c-0.815,0.451-1.778,1.357-1.924,2.186
					c-1.265,7.162-6.805,12.474-8.186,19.68c-0.75,3.912-0.875,7.93-2.015,11.767c-0.348,1.17-1.76,2.726-0.06,3.462
					c1.647,0.714,1.841-1.438,2.59-2.405c0.406-0.523,0.6-1.279,1.097-1.651c1.162-0.869,0.854-4.081,3.154-2.717
					c1.53,0.907,0.494,3.097-0.2,4.594c-0.406,0.876-1.074,1.705-1.81,2.343c-4.474,3.882-4.519,10.662-9.379,14.294
					c-0.29,0.217-0.441,1.067-0.257,1.403c2.891,5.252-0.694,9.037-2.709,13.346c-8.273,17.698-18.402,34.206-30.087,49.876
					c-7.53,10.099-16.05,19.194-26.088,26.547c-12.022,8.805-24.526,17.12-39.438,20.614c-1.111,0.261-2.105,0.989-3.174,1.458
					c-14.952,6.563-32.4-0.2-38.75-15.021c-0.969-2.263-1.495-4.689,0.608-6.457c2.278-1.916,4.429-0.485,6.212,1.145
					c2.521,2.305,5.436,2.867,8.758,2.819c7.239-0.104,14.163-1.23,20.947-4.002c10.204-4.17,19.943-8.842,28.973-15.428
					c5.732-4.182,10.574-9.091,15.652-13.829c8.033-7.496,15.014-15.93,21.213-25.032c6.563-9.637,11.954-19.896,17.288-30.243
					c7.938-15.396,15.178-31.088,22.246-46.896c5.447-12.186,9.43-24.899,14.668-37.132c5.048-11.79,9.097-23.947,13.597-35.938"/>
				<path style="fill-rule:evenodd;clip-rule:evenodd;fill:none;" d="M687.63-635.042c-4.5,11.992-8.549,24.149-13.597,35.938
					c-5.238,12.233-9.221,24.946-14.668,37.132c-7.068,15.808-14.309,31.5-22.246,46.896c-5.334,10.347-10.725,20.606-17.288,30.243
					c-6.199,9.103-13.18,17.536-21.213,25.032c-5.078,4.738-9.92,9.647-15.652,13.829c-9.029,6.586-18.769,11.258-28.973,15.428
					c-6.784,2.771-13.708,3.898-20.947,4.002c-3.322,0.048-6.236-0.515-8.758-2.819c-1.783-1.63-3.934-3.061-6.212-1.145
					c-2.104,1.768-1.577,4.194-0.608,6.457c6.35,14.82,23.798,21.584,38.75,15.021c1.068-0.469,2.062-1.197,3.174-1.458
					c14.911-3.494,27.415-11.81,39.438-20.614c10.038-7.353,18.558-16.448,26.088-26.547c11.685-15.67,21.813-32.178,30.087-49.876
					c2.015-4.309,5.6-8.094,2.709-13.346c-0.185-0.336-0.033-1.187,0.257-1.403c4.86-3.632,4.905-10.412,9.379-14.294
					c0.735-0.638,1.403-1.467,1.81-2.343c0.694-1.497,1.73-3.687,0.2-4.594c-2.301-1.364-1.992,1.848-3.154,2.717
					c-0.497,0.372-0.69,1.128-1.097,1.651c-0.749,0.968-0.942,3.119-2.59,2.405c-1.7-0.736-0.288-2.292,0.06-3.462
					c1.14-3.837,1.265-7.854,2.015-11.767c1.381-7.206,6.921-12.519,8.186-19.68c0.146-0.829,1.108-1.735,1.924-2.186
					c3.813-2.105,4.132-5.514,3.231-9.089c-0.879-3.49-0.131-6.137,2.573-8.467c3.842-3.311,5.771-7.249,3.653-12.404
					c-0.598-1.456-0.441-3.069,0.867-4.133c1.675-1.363,2.229,0.448,3.095,1.308c1.58,1.566,2.588,1.009,3.265-0.874
					c2.006-5.585,2.296-11.649,4.996-17.081c0.91-1.832-0.346-3.829-1.819-5.387c-1.121-1.186-1.657-2.729-0.259-3.978
					c1.354-1.209,2.447,0.104,3.449,0.915"/>
			</g>
		</g>
	</g>
	<g>
		<path d="M72.701,188.643v28.438c0,4.364-0.392,7.688-1.174,9.969c-0.783,2.282-2.31,4.09-4.58,5.424c-2.271,1.333-5.346,2-9.226,2
			c-3.417,0-6.503-0.363-9.259-1.092v-10.779c1.939,0.551,3.747,0.826,5.423,0.826c1.984,0,3.395-0.457,4.232-1.371
			c0.838-0.915,1.257-2.574,1.257-4.977v-28.438H72.701z"/>
		<path d="M107.066,234.473c-6.349,0-11.523-2.105-15.524-6.316c-4.002-4.209-6.002-9.842-6.002-16.896
			c0-6.746,1.912-12.317,5.737-16.715c3.824-4.398,9.131-6.598,15.921-6.598c6.283,0,11.402,2.072,15.36,6.217
			c3.956,4.145,5.936,9.678,5.936,16.6c0,7.165-1.996,12.908-5.985,17.229C118.519,232.312,113.371,234.473,107.066,234.473z
			 M107,224.223c2.337,0,4.018-1.02,5.043-3.059s1.538-5.771,1.538-11.193c0-7.848-2.105-11.772-6.316-11.772
			c-4.541,0-6.812,4.476-6.812,13.425C100.453,220.022,102.636,224.223,107,224.223z"/>
		<path d="M178.401,188.643v29.893c0,5.665-1.682,9.737-5.043,12.218c-3.362,2.479-7.743,3.72-13.144,3.72
			c-5.688,0-10.257-1.19-13.707-3.571s-5.175-6.261-5.175-11.64v-30.619h14.087v28.999c0,2.161,0.456,3.737,1.368,4.729
			c0.912,0.992,2.369,1.488,4.37,1.488c1.67,0,3.038-0.358,4.104-1.075c1.066-0.716,1.704-1.525,1.913-2.43s0.313-2.668,0.313-5.291
			v-26.42H178.401z"/>
		<path d="M233.434,233.778h-15.359l-6.593-17.261h-4.369v17.261h-13.855v-45.136h23.577c5.202,0,9.242,1.218,12.119,3.653
			c2.877,2.437,4.314,5.649,4.314,9.64c0,2.602-0.528,4.898-1.587,6.895c-1.058,1.994-3.196,3.752-6.415,5.273L233.434,233.778z
			 M207.112,206.861h5.919c1.741,0,3.142-0.363,4.199-1.09c1.059-0.729,1.587-1.797,1.587-3.208c0-2.888-1.774-4.332-5.323-4.332
			h-6.382V206.861z"/>
		<path d="M286.019,233.778h-11.275l-12.361-19.942c-1.587-2.559-3.188-5.664-4.8-9.322c0.727,2.91,1.091,5.379,1.091,7.408v21.856
			H247.43v-45.136h13.095l10.517,16.531c2.095,3.285,3.681,6.174,4.761,8.665c-0.706-3.857-1.059-7.804-1.059-11.838v-13.358h11.275
			V233.778z"/>
		<path d="M326.227,233.778l-2.551-8.896h-12.092l-2.71,8.896h-11.247l13.934-45.136h14.648l14.156,45.136H326.227z
			 M313.939,215.029h7.303l-3.651-13.094L313.939,215.029z"/>
		<path d="M376.86,233.778l-2.551-8.896h-12.092l-2.71,8.896h-11.247l13.934-45.136h14.648l14.156,45.136H376.86z M364.573,215.029
			h7.303l-3.651-13.094L364.573,215.029z"/>
		<path d="M434.252,222.701v11.077h-31.646v-45.136h13.855v34.059H434.252z"/>
	</g>
</g>
</svg>
