<svg xmlns="http://www.w3.org/2000/svg" xmlns:xlink="http://www.w3.org/1999/xlink" width="480" height="360" viewBox="0 0 480 360"><g><path d="M-968 1683.518h306v65h-306zM-968 1749.518h-164v-66h164v66zm-163-1h162v-64h-162v64zM-1034.926 2161.771h5.823v20.6c2.07-1.863 4.356-2.795 6.858-2.795 2.847 0 5.124.924 6.832 2.77 1.449 1.604 2.174 4.166 2.174 7.686v15.45h-5.823v-14.906c0-2.019-.358-3.48-1.074-4.387-.716-.905-1.868-1.358-3.455-1.358-2.036 0-3.468.63-4.296 1.889-.811 1.277-1.216 3.469-1.216 6.574v12.188h-5.823v-43.711zM-984.5 2194.25h-18.063c.155 2.07.828 3.719 2.019 4.943 1.19 1.207 2.717 1.811 4.581 1.811 1.449 0 2.648-.344 3.597-1.035.932-.689 1.993-1.967 3.183-3.83l4.917 2.744c-.759 1.293-1.562 2.402-2.407 3.325-.846.923-1.751 1.682-2.717 2.277-.966.595-2.01 1.03-3.131 1.307-1.122.276-2.338.414-3.649.414-3.761 0-6.78-1.208-9.058-3.623-2.277-2.433-3.416-5.659-3.416-9.679 0-3.985 1.104-7.211 3.312-9.679 2.226-2.433 5.176-3.649 8.851-3.649 3.709 0 6.642 1.183 8.799 3.546 2.139 2.347 3.209 5.599 3.209 9.757l-.027 1.371zm-5.978-4.762c-.811-3.105-2.769-4.658-5.875-4.658-.708 0-1.372.107-1.993.323s-1.187.526-1.695.932-.944.894-1.307 1.462c-.362.57-.639 1.217-.828 1.941h11.698zM-973.254 2185.71v19.771h-5.823v-19.771h-2.484v-5.435h2.484v-9.238h5.823v9.238h4.529v5.435h-4.529zM-958.751 2171.191c0-1.396.496-2.588 1.488-3.57.992-.984 2.187-1.476 3.584-1.476 1.449 0 2.661.483 3.636 1.449.974.966 1.462 2.165 1.462 3.597 0 1.433-.496 2.648-1.488 3.649s-2.195 1.501-3.61 1.501c-1.38 0-2.571-.509-3.571-1.527-1.001-1.017-1.501-2.224-1.501-3.623zm.465 45.832v-37.68h9.239v37.68h-9.239zM-915.881 2192.49c0 1.881-.367 3.666-1.1 5.357-.734 1.69-1.799 3.209-3.196 4.555-1.415 1.346-2.998 2.363-4.749 3.053-1.751.69-3.61 1.035-5.577 1.035-2.001 0-3.878-.345-5.628-1.035-1.751-.689-3.317-1.707-4.697-3.053-1.38-1.312-2.433-2.816-3.157-4.517-.725-1.698-1.087-3.497-1.087-5.396 0-1.915.358-3.718 1.074-5.408.715-1.691 1.772-3.209 3.17-4.555 1.363-1.328 2.92-2.33 4.671-3.002 1.751-.674 3.636-1.01 5.655-1.01s3.899.336 5.642 1.01c1.742.672 3.304 1.674 4.684 3.002 1.415 1.363 2.484 2.89 3.209 4.58.723 1.693 1.086 3.487 1.086 5.384zm-9.161 0c0-1.949-.492-3.484-1.475-4.606-.983-1.121-2.312-1.683-3.985-1.683-1.691 0-3.024.562-3.999 1.683-.975 1.122-1.462 2.657-1.462 4.606s.483 3.48 1.449 4.594c.966 1.112 2.303 1.669 4.011 1.669 1.69 0 3.023-.557 3.999-1.669.974-1.113 1.462-2.645 1.462-4.594zM-885.355 2179.344v13.354c0 2.95-.238 5.137-.712 6.561-.476 1.423-1.272 2.688-2.394 3.791-1.157 1.156-2.597 2.019-4.322 2.588-1.726.569-3.752.854-6.082.854-2.312 0-4.326-.284-6.042-.854-1.717-.569-3.179-1.432-4.387-2.588-1.122-1.069-1.915-2.324-2.381-3.766-.466-1.439-.699-3.636-.699-6.586v-13.354h8.799v13.949c0 2.191.362 3.773 1.087 4.748s1.897 1.463 3.52 1.463c1.639 0 2.816-.479 3.533-1.437.715-.958 1.074-2.55 1.074-4.774v-13.949h9.006zM-880.27 2205.481v-26.138h8.695v6.159c.897-2.243 2.123-3.925 3.676-5.046s3.433-1.683 5.641-1.683c.363 0 .729.013 1.101.039.37.025.745.064 1.126.116l-.881 8.385c-.552-.189-1.096-.328-1.63-.414-.535-.086-1.053-.129-1.553-.129-2.243 0-3.973.686-5.188 2.057-1.217 1.372-1.824 3.317-1.824 5.836v10.817h-9.163zM-858.231 2205.481v-26.138h8.437v5.305c1.225-2.121 2.64-3.674 4.244-4.658 1.604-.982 3.527-1.475 5.771-1.475 1.689 0 3.195.271 4.516.815 1.32.543 2.394 1.324 3.222 2.342.69.88 1.182 1.95 1.476 3.209.293 1.26.439 3.14.439 5.642v14.958h-9.238v-14.001c0-2.087-.342-3.605-1.023-4.555-.682-.948-1.771-1.423-3.273-1.423-1.914 0-3.312.708-4.191 2.122-.881 1.415-1.32 3.709-1.32 6.884v10.973h-9.06zM-797.195 2179.344v26.138h-8.462v-4.244c-1.208 1.812-2.566 3.14-4.075 3.985-1.511.846-3.283 1.268-5.318 1.268-3.486 0-6.271-1.271-8.359-3.816s-3.131-5.957-3.131-10.235c0-4.261 1.09-7.647 3.273-10.157 2.182-2.511 5.119-3.766 8.812-3.766 1.967 0 3.661.418 5.085 1.255s2.645 2.127 3.662 3.869v-4.296h8.513zm-8.1 13.043c0-2.035-.543-3.648-1.631-4.84-1.086-1.189-2.57-1.785-4.451-1.785s-3.359.592-4.438 1.772c-1.078 1.183-1.617 2.8-1.617 4.853 0 2.036.543 3.641 1.63 4.813s2.562 1.76 4.425 1.76c1.881 0 3.365-.587 4.451-1.76 1.088-1.173 1.631-2.777 1.631-4.813zM-763.797 2179.344v26.138h-8.462v-4.244c-1.208 1.812-2.566 3.14-4.075 3.985-1.511.846-3.283 1.268-5.318 1.268-3.486 0-6.271-1.271-8.359-3.816s-3.131-5.957-3.131-10.235c0-4.261 1.09-7.647 3.273-10.157 2.182-2.511 5.119-3.766 8.812-3.766 1.967 0 3.661.418 5.085 1.255s2.645 2.127 3.662 3.869v-4.296h8.513zm-8.099 13.043c0-2.035-.543-3.648-1.631-4.84-1.086-1.189-2.57-1.785-4.451-1.785s-3.359.592-4.438 1.772c-1.078 1.183-1.617 2.8-1.617 4.853 0 2.036.543 3.641 1.63 4.813s2.562 1.76 4.425 1.76c1.881 0 3.365-.587 4.451-1.76 1.088-1.173 1.631-2.777 1.631-4.813zM-758.166 2205.481v-40.112h9.238v40.112h-9.238zM-1042.95 2174.064v6.547l-22.101 9.084 22.101 9.006v6.573l-30.485-12.577v-6.029l30.485-12.604zM-734.692 2205.671v-6.548l22.101-9.083-22.101-9.006v-6.573l30.485 12.577v6.03l-30.485 12.603zM-1050 2532.518h120v72h-120zM-1050 2614.518h307v72h-307z"/><g fill="#fff"><path d="M-1018.172 2595.408v-22.436h-8.884v22.436h-10.691v-53.604h10.691v21.532h8.884v-21.532h10.691v53.604h-10.691zM-999.204 2595.408v-53.604h24.694v9.637h-14.003v12.121h12.046v9.637h-12.046v12.573h14.003v9.637h-24.694zM-950.873 2551.44v43.968h-10.691v-43.968h-9.034v-9.637h28.759v9.637h-9.034z"/></g><g fill="#fff"><path d="M-1017.871 2674.954c-2.861 3.012-6.701 4.668-12.272 4.668-4.818 0-8.884-1.731-11.745-4.593l7.378-7.228c.753 1.054 2.56 2.184 4.367 2.184 3.237 0 5.496-2.259 5.496-6.399v-38.171h10.691v38.171c0 4.517-1.28 8.582-3.915 11.368zM-980.156 2674.276c-2.484 2.937-5.797 5.346-11.82 5.346s-9.185-2.409-11.669-5.346c-4.291-5.119-3.99-14.831-3.99-22.059s-.301-16.939 3.99-22.06c2.484-2.936 5.646-5.346 11.669-5.346s9.336 2.41 11.82 5.346c4.292 5.12 3.99 14.832 3.99 22.06s.302 16.94-3.99 22.059zm-8.131-37.718c-.603-1.204-1.732-2.108-3.689-2.108s-2.936.904-3.538 2.108c-1.28 2.484-1.431 9.186-1.431 15.66s.15 13.175 1.431 15.659c.602 1.205 1.581 2.108 3.538 2.108s3.087-.903 3.689-2.108c1.28-2.484 1.43-9.185 1.43-15.659s-.15-13.176-1.43-15.66zM-943.571 2675.18c-2.861 2.937-6.625 4.442-11.143 4.442s-8.282-1.506-11.143-4.442c-2.56-2.635-3.99-6.249-3.99-10.54v-39.225h10.691v39.752c0 3.463 2.033 4.818 4.442 4.818s4.442-1.355 4.442-4.818v-39.752h10.691v39.225c0 4.291-1.43 7.905-3.99 10.54zM-910.9 2679.02l-6.55-20.854h-3.539v20.854h-10.691v-53.604h15.283c11.669 0 14.907 6.099 14.907 16.338 0 5.722-.903 10.841-6.098 14.078l7.83 23.188h-11.142zm-5.571-43.968h-4.517v13.477h4.517c4.065 0 4.292-3.689 4.292-6.775-.001-3.088-.227-6.702-4.292-6.702zM-871.68 2679.02l-11.368-26.2v26.2h-10.691v-53.604h9.335l11.143 26.2v-26.2h10.69v53.604h-9.109zM-831.029 2679.02l-1.732-8.356h-12.347l-1.731 8.356h-11.143l13.777-53.604h10.54l13.778 53.604h-11.142zm-7.906-37.87l-4.141 19.876h8.281l-4.14-19.876zM-791.434 2679.02l-1.731-8.356h-12.347l-1.732 8.356h-11.142l13.777-53.604h10.54l13.777 53.604h-11.142zm-7.905-37.87l-4.141 19.876h8.281l-4.14-19.876zM-775.703 2679.02v-53.604h10.69v43.968h14.004v9.637h-24.694z"/></g><path d="M-1018 3042.518h261v15h-261zM-997.172 3028.408v-22.436h-8.884v22.436h-10.691v-53.604h10.691v21.532h8.884v-21.532h10.691v53.604h-10.691zM-978.204 3028.408v-53.604h24.694v9.637h-14.003v12.121h12.046v9.637h-12.046v12.573h14.003v9.637h-24.694zM-929.873 2984.44v43.968h-10.691v-43.968h-9.034v-9.637h28.759v9.637h-9.034zM-1010.585 3122.954c-2.861 3.012-6.701 4.668-12.272 4.668-4.818 0-8.884-1.731-11.745-4.593l7.378-7.228c.753 1.054 2.56 2.184 4.367 2.184 3.237 0 5.496-2.259 5.496-6.399v-38.171h10.691v38.171c0 4.517-1.28 8.582-3.915 11.368zM-972.87 3122.276c-2.484 2.937-5.797 5.346-11.82 5.346s-9.185-2.409-11.669-5.346c-4.291-5.119-3.99-14.831-3.99-22.059s-.301-16.939 3.99-22.06c2.484-2.936 5.646-5.346 11.669-5.346s9.336 2.41 11.82 5.346c4.292 5.12 3.99 14.832 3.99 22.06s.301 16.94-3.99 22.059zm-8.131-37.718c-.603-1.204-1.732-2.108-3.689-2.108s-2.936.904-3.538 2.108c-1.28 2.484-1.431 9.186-1.431 15.66s.15 13.175 1.431 15.659c.602 1.205 1.581 2.108 3.538 2.108s3.087-.903 3.689-2.108c1.28-2.484 1.43-9.185 1.43-15.659s-.15-13.176-1.43-15.66zM-936.285 3123.18c-2.861 2.937-6.625 4.442-11.143 4.442s-8.282-1.506-11.143-4.442c-2.56-2.635-3.99-6.249-3.99-10.54v-39.225h10.691v39.752c0 3.463 2.033 4.818 4.442 4.818s4.442-1.355 4.442-4.818v-39.752h10.691v39.225c0 4.291-1.431 7.905-3.99 10.54zM-903.614 3127.02l-6.55-20.854h-3.539v20.854h-10.691v-53.604h15.283c11.669 0 14.907 6.099 14.907 16.338 0 5.722-.903 10.841-6.098 14.078l7.83 23.188h-11.142zm-5.572-43.968h-4.517v13.477h4.517c4.065 0 4.292-3.689 4.292-6.775 0-3.088-.226-6.702-4.292-6.702zM-864.395 3127.02l-11.368-26.2v26.2h-10.69v-53.604h9.336l11.142 26.2v-26.2h10.691v53.604h-9.111zM-823.744 3127.02l-1.732-8.356h-12.347l-1.731 8.356h-11.143l13.777-53.604h10.54l13.778 53.604h-11.142zm-7.905-37.87l-4.141 19.876h8.281l-4.14-19.876zM-784.148 3127.02l-1.731-8.356h-12.347l-1.732 8.356h-11.142l13.777-53.604h10.54l13.777 53.604h-11.142zm-7.906-37.87l-4.141 19.876h8.281l-4.14-19.876zM-768.418 3127.02v-53.604h10.69v43.968h14.004v9.637h-24.694zM-1019.059 3546.406v-15.028h-15.533v15.028h-9.645v-37.402h9.645v13.963h15.533v-13.963h9.646v37.402h-9.646zM-1002.68 3546.406v-37.402h27.421v8.411h-17.776v5.832h17.383v8.411h-17.383v6.337h17.776v8.411h-27.421zM-961.294 3546.406v-28.991h-10.486v-8.411h30.561v8.411h-10.43v28.991h-9.645zM-1047.433 3587.359l4.037-7.347c1.346 1.122 3.141 2.188 5.383 2.188 3.028 0 4.991-1.963 4.991-5.103v-24.449h9.645v24.561c0 9.253-5.607 13.515-13.794 13.515-3.758 0-7.458-.898-10.262-3.365zM-1018.552 3571.378c0-11.384 8.58-19.347 20.019-19.347s19.963 7.963 19.963 19.347c0 11.383-8.524 19.346-19.963 19.346s-20.019-7.963-20.019-19.346zm30.169 0c0-6.112-3.981-10.823-10.15-10.823s-10.206 4.711-10.206 10.823c0 6.056 4.037 10.822 10.206 10.822s10.15-4.766 10.15-10.822zM-973.687 3574.91v-22.262h9.813v21.926c0 4.43 2.692 7.626 7.907 7.626 5.159 0 7.851-3.196 7.851-7.626v-21.926h9.757v22.206c0 9.309-5.607 15.869-17.608 15.869-12 .001-17.72-6.617-17.72-15.813zM-910.766 3590.051l-6.281-12.561h-4.935v12.561h-9.645v-37.402h18.729c8.299 0 13.01 5.495 13.01 12.448 0 6.505-3.925 9.981-7.458 11.216l7.626 13.738h-11.046zm1.066-25.01c0-2.58-2.075-3.981-4.654-3.981h-7.626v8.019h7.626c2.579-.001 4.654-1.402 4.654-4.038zM-869.098 3590.051l-15.813-21.646v21.646h-9.645v-37.402h9.925l15.141 20.579v-20.579h9.701v37.402h-9.309zM-827.654 3590.051l-1.85-5.383h-14.748l-1.851 5.383h-10.936l14.075-37.402h12.169l14.075 37.402h-10.934zm-9.197-27.87l-4.767 14.075h9.478l-4.711-14.075zM-788.565 3590.051l-1.851-5.383h-14.747l-1.851 5.383h-10.936l14.075-37.402h12.169l14.075 37.402h-10.934zm-9.197-27.87l-4.767 14.075h9.478l-4.711-14.075zM-775.048 3590.051v-37.402h9.646v28.991h15.028v8.411h-24.674zM-1048 3601.518h53v7h-53zM-1063.605 1694.037v47.988h-14.73v-18.668h-11.25v18.668h-14.73v-47.988h14.73v17.648h11.25v-17.648h14.73zM-1032.14 1729.193l13.078.879c-.773 3.516-2.748 6.51-5.924 8.982-3.176 2.473-7.471 3.709-12.885 3.709-6.024 0-10.828-1.74-14.414-5.221s-5.379-7.799-5.379-12.955c0-5.344 1.77-9.855 5.309-13.535 3.539-3.68 8.262-5.52 14.168-5.52 5.718 0 10.341 1.734 13.869 5.203 3.527 3.469 5.291 8.191 5.291 14.168 0 .492-.012 1.172-.035 2.039h-23.941c.047 2.25.445 3.92 1.195 5.01.75 1.09 2.18 1.635 4.289 1.635 3.046.001 4.839-1.464 5.379-4.394zm-.949-9.281c-.023-2.414-.508-4.037-1.454-4.869s-2.12-1.248-3.521-1.248c-3.317 0-4.975 2.039-4.975 6.117h9.95zM-991.464 1706.271v9.105h-7.137v13.184c0 1.805.339 2.877 1.02 3.217.68.34 1.383.51 2.109.51 1.125 0 2.461-.199 4.008-.598v9.984c-2.766.539-5.484.809-8.156.809-4.312 0-7.483-.926-9.51-2.777-2.027-1.852-3.041-4.805-3.041-8.859l.035-4.184v-11.285h-5.344v-9.105h5.344l.211-11.637 13.324-.211v11.848h7.137z"/><g fill="#fff"><path d="M-933.735 1694.037v30.234c0 4.641-.417 8.174-1.248 10.6-.832 2.426-2.456 4.348-4.869 5.766-2.414 1.418-5.684 2.127-9.809 2.127-3.633 0-6.914-.387-9.844-1.16v-11.461c2.062.586 3.984.879 5.766.879 2.109 0 3.609-.486 4.5-1.459.891-.973 1.336-2.736 1.336-5.291v-30.234h14.168zM-908.879 1742.764c-5.93 0-10.641-1.846-14.133-5.537-3.493-3.691-5.238-8.021-5.238-12.99 0-5.344 1.822-9.797 5.467-13.359 3.644-3.562 8.385-5.344 14.221-5.344 5.883 0 10.611 1.758 14.186 5.273 3.574 3.516 5.362 7.922 5.362 13.219 0 5.344-1.811 9.803-5.432 13.377s-8.434 5.361-14.433 5.361zm.211-8.508c2.18 0 3.51-1.131 3.99-3.393.48-2.262.721-4.623.721-7.084 0-3.352-.34-5.766-1.02-7.242-.68-1.477-1.898-2.215-3.656-2.215-1.617 0-2.801.762-3.551 2.285-.75 1.523-1.125 4.031-1.125 7.523 0 4.102.387 6.814 1.16 8.139s1.934 1.987 3.481 1.987zM-848.797 1706.271v35.754h-12.973v-5.871c-1.898 4.406-5.603 6.609-11.109 6.609-3.398 0-6.029-.943-7.893-2.83s-2.795-4.588-2.795-8.104v-25.559h14.027v22.5c0 1.406.193 2.396.58 2.971s1.143.861 2.268.861c1.195 0 2.167-.428 2.918-1.283.75-.855 1.125-2.057 1.125-3.604v-21.445h13.852zM-827.984 1742.025h-13.43v-35.754h11.672v7.383c1.336-5.367 4.441-8.051 9.316-8.051.492 0 1.172.047 2.039.141v12.48c-.984-.234-1.863-.352-2.637-.352-4.641 0-6.961 2.59-6.961 7.77v16.383zM-779.047 1742.025h-14.027v-22.5c0-1.852-.287-3.035-.861-3.551-.575-.516-1.296-.773-2.162-.773-2.555 0-3.832 1.781-3.832 5.344v21.48h-14.027v-35.754h13.008v5.062c1.921-3.867 5.355-5.801 10.301-5.801 2.602 0 4.799.498 6.592 1.494s3.076 2.285 3.85 3.867 1.16 4.33 1.16 8.244v22.888zM-735.63 1742.025h-13.359c-.328-1.523-.492-3.188-.492-4.992-2.531 3.82-6.363 5.73-11.496 5.73-4.218 0-7.377-1.078-9.474-3.234-2.098-2.156-3.146-4.629-3.146-7.418 0-3.773 1.717-6.826 5.15-9.158 3.433-2.332 9.521-3.732 18.263-4.201v-.809c0-1.57-.357-2.613-1.072-3.129s-1.764-.773-3.146-.773c-3.234 0-5.039 1.301-5.414 3.902l-12.796-1.195c1.828-7.477 8.051-11.215 18.667-11.215 2.883 0 5.531.287 7.945.861s4.324 1.471 5.73 2.689 2.35 2.508 2.83 3.867.721 3.973.721 7.84v14.273c-.001 2.72.363 5.041 1.089 6.962zm-14.555-16.734c-5.977.633-8.965 2.543-8.965 5.73 0 2.156 1.184 3.234 3.551 3.234 1.5 0 2.777-.445 3.832-1.336s1.582-2.859 1.582-5.906v-1.722zM-693.407 1742.025h-13.359c-.328-1.523-.492-3.188-.492-4.992-2.531 3.82-6.363 5.73-11.496 5.73-4.219 0-7.377-1.078-9.475-3.234s-3.146-4.629-3.146-7.418c0-3.773 1.717-6.826 5.15-9.158s9.521-3.732 18.264-4.201v-.809c0-1.57-.357-2.613-1.072-3.129s-1.764-.773-3.146-.773c-3.234 0-5.039 1.301-5.414 3.902l-12.797-1.195c1.828-7.477 8.051-11.215 18.668-11.215 2.883 0 5.531.287 7.945.861s4.324 1.471 5.73 2.689 2.35 2.508 2.83 3.867.721 3.973.721 7.84v14.273c-.001 2.72.362 5.041 1.089 6.962zm-14.555-16.734c-5.977.633-8.965 2.543-8.965 5.73 0 2.156 1.184 3.234 3.551 3.234 1.5 0 2.777-.445 3.832-1.336s1.582-2.859 1.582-5.906v-1.722zM-673.403 1694.037v47.988h-13.816v-47.988h13.816z"/></g><path stroke="#000" stroke-miterlimit="10" fill="none" d="M-1078.976 1236.965h376.748v100.316h-376.748z"/><path d="M-1052.709 1316.072c.879.156 1.522.258 1.93.306.409.048.769.071 1.083.071 2.197 0 3.759-.707 4.686-2.119.926-1.413 1.389-3.861 1.389-7.346v-64.037h14.785v63.943c0 7.91-1.326 13.678-3.979 17.304s-6.836 5.438-12.549 5.438c-.974 0-1.97-.079-2.989-.235-1.021-.157-2.174-.424-3.461-.8l-.895-12.525zM-1020.361 1286.549c0-7.22 1.868-12.902 5.604-17.045 3.735-4.145 8.82-6.217 15.256-6.217 6.404 0 11.474 2.072 15.209 6.217 3.735 4.143 5.604 9.825 5.604 17.045 0 7.189-1.86 12.84-5.58 16.951-3.72 4.112-8.797 6.168-15.232 6.168-6.467 0-11.56-2.056-15.279-6.168-3.722-4.111-5.582-9.762-5.582-16.951zm13.42 0c0 4.395.627 7.73 1.884 10.006 1.255 2.275 3.107 3.414 5.556 3.414s4.309-1.146 5.58-3.438 1.907-5.619 1.907-9.982c0-4.395-.645-7.746-1.931-10.053-1.287-2.308-3.14-3.461-5.557-3.461-2.448 0-4.301 1.153-5.556 3.461-1.256 2.307-1.883 5.658-1.883 10.053zM-946.012 1303.217c-1.883 2.293-3.83 3.94-5.839 4.945-2.009 1.004-4.331 1.506-6.969 1.506-4.175 0-7.361-1.475-9.559-4.426s-3.296-7.22-3.296-12.808v-28.252h12.949v26.321c0 3.234.4 5.533 1.2 6.898.801 1.365 2.127 2.048 3.979 2.048 1.507 0 2.849-.533 4.025-1.601 1.178-1.067 2.346-2.81 3.508-5.227v-28.44h13.043v44.638h-12.854l-.187-5.602zM-923.269 1308.82v-44.638h12.478v14.832c1.633-5.21 3.422-9.118 5.368-11.724 1.945-2.605 4.033-3.908 6.263-3.908 1.318 0 2.629.234 3.932.705s2.598 1.178 3.885 2.119l-3.061 11.961c-.816-.691-1.656-1.201-2.52-1.531s-1.734-.494-2.613-.494c-3.171 0-5.729 2.307-7.675 6.922-1.946 4.614-2.92 10.814-2.92 18.6v7.156h-13.137zM-887.012 1308.82v-44.638h12.854l.188 5.603c1.883-2.291 3.829-3.946 5.839-4.967 2.009-1.02 4.332-1.531 6.969-1.531 4.175 0 7.36 1.477 9.559 4.427 2.197 2.952 3.296 7.236 3.296 12.854v28.252h-13.043v-26.321c0-3.296-.393-5.618-1.178-6.969-.785-1.35-2.087-2.024-3.908-2.024-1.506 0-2.871.55-4.096 1.648-1.225 1.098-2.401 2.84-3.531 5.227v28.439h-12.949zM-818.312 1304.018c-2.26 2.072-4.332 3.571-6.216 4.497-1.883.926-3.829 1.39-5.838 1.39-3.297 0-5.973-1.045-8.028-3.133-2.057-2.086-3.085-4.81-3.085-8.168 0-4.018 1.695-7.432 5.086-10.242 3.39-2.809 9.182-5.533 17.375-8.17v-3.672c0-1.193-.369-2.072-1.106-2.637-.737-.565-1.907-.848-3.508-.848-2.575 0-5.109.541-7.604 1.624-2.496 1.083-4.906 2.692-7.229 4.827v-10.125c2.699-2.07 5.486-3.617 8.358-4.637 2.872-1.021 5.893-1.531 9.063-1.531 5.274 0 9.088 1.139 11.442 3.414s3.531 5.957 3.531 11.042v19.493c0 .565.095.966.283 1.201.188.235.501.354.941.354.345 0 .801-.125 1.365-.377.565-.25 1.271-.643 2.119-1.178v8.382c-2.166 1.538-4.066 2.653-5.697 3.343-1.633.691-3.14 1.037-4.521 1.037-1.789 0-3.233-.488-4.332-1.461-1.098-.972-1.899-2.447-2.399-4.425zm-.707-6.498v-10.688c-3.484 1.193-6.027 2.48-7.628 3.861-1.602 1.382-2.401 2.981-2.401 4.803 0 1.538.329 2.669.988 3.39.659.723 1.68 1.084 3.061 1.084.942 0 1.923-.213 2.942-.637 1.021-.425 2.033-1.028 3.038-1.813zM-774.898 1304.018c-2.261 2.072-4.332 3.571-6.216 4.497s-3.831 1.39-5.839 1.39c-3.296 0-5.973-1.045-8.027-3.133-2.057-2.086-3.085-4.81-3.085-8.168 0-4.018 1.695-7.432 5.085-10.242 3.391-2.809 9.183-5.533 17.375-8.17v-3.672c0-1.193-.369-2.072-1.105-2.637-.738-.565-1.907-.848-3.509-.848-2.574 0-5.109.541-7.604 1.624-2.497 1.083-4.906 2.692-7.229 4.827v-10.125c2.699-2.07 5.484-3.617 8.358-4.637 2.871-1.021 5.893-1.531 9.063-1.531 5.273 0 9.088 1.139 11.442 3.414s3.531 5.957 3.531 11.042v19.493c0 .565.094.966.282 1.201s.502.354.942.354c.345 0 .8-.125 1.365-.377.564-.25 1.271-.643 2.119-1.178v8.382c-2.166 1.538-4.066 2.653-5.698 3.343-1.633.691-3.14 1.037-4.52 1.037-1.79 0-3.234-.488-4.332-1.461-1.097-.972-1.897-2.447-2.398-4.425zm-.707-6.498v-10.688c-3.484 1.193-6.026 2.48-7.628 3.861-1.601 1.382-2.401 2.981-2.401 4.803 0 1.538.33 2.669.989 3.39.659.723 1.679 1.084 3.061 1.084.941 0 1.923-.213 2.942-.637 1.02-.425 2.032-1.028 3.037-1.813zM-751.968 1308.82v-65.873h13.043v65.873h-13.043zM-1057.305 943.605c0 4.429-.62 7.343-1.858 8.738-1.239 1.398-3.836 2.097-7.791 2.097-4.008 0-6.617-.685-7.83-2.057-1.213-1.37-1.818-4.296-1.818-8.778v-16.373h7.514v18.357c0 1.367.514 2.049 1.543 2.049.974 0 1.462-.685 1.462-2.055v-55.682h8.779v53.704zM-1005.976 944c0 4.324-.633 7.146-1.898 8.463-1.266 1.318-4.033 1.978-8.305 1.978-4.219 0-6.987-.673-8.305-2.017-1.318-1.345-1.977-4.152-1.977-8.424v-43.895c0-4.271.658-7.079 1.977-8.424 1.317-1.344 4.086-2.017 8.305-2.017 4.271 0 7.039.659 8.305 1.978s1.898 4.14 1.898 8.463v43.895zm-8.779 1.664v-47.223c0-1.316-.475-1.975-1.424-1.975-1.002 0-1.503.658-1.503 1.975v47.223c0 1.316.501 1.975 1.503 1.975.949 0 1.424-.659 1.424-1.975zM-954.647 944c0 4.324-.633 7.146-1.898 8.463-1.266 1.318-4.033 1.978-8.305 1.978-4.219 0-6.987-.673-8.305-2.017-1.318-1.345-1.977-4.152-1.977-8.424v-54.098h8.778v55.762c0 1.316.501 1.975 1.503 1.975.949 0 1.424-.658 1.424-1.975v-55.762h8.779v54.098zM-903.317 954.124h-8.779v-25.388c0-1.477-.633-2.215-1.898-2.215h-1.028v27.603h-8.778v-64.222h12.18c3.269 0 5.47.765 6.604 2.293 1.133 1.53 1.7 4.482 1.7 8.859v12.416c0 4.166-1.318 7.066-3.955 8.701 2.637 1.371 3.955 4.086 3.955 8.146v23.807zm-8.779-37.245v-17.968c0-1.471-.633-2.207-1.898-2.207h-1.028v22.304h1.028c1.265 0 1.898-.709 1.898-2.129zM-851.514 954.124h-7.355l-5.773-34.167h-.633l.475 34.167h-7.672v-64.222h7.355l5.615 31.32h.633l-.316-31.32h7.672v64.222zM-797.969 954.124h-8.779l-.633-14.632h-3.877l-.553 14.632h-8.857l4.824-64.222h13.049l4.826 64.222zm-9.65-21.434l-1.582-33.218h-.236l-1.504 33.218h3.322zM-744.426 954.124h-8.779l-.633-14.632h-3.877l-.553 14.632h-8.857l4.824-64.222h13.049l4.826 64.222zm-9.65-21.434l-1.582-33.218h-.236l-1.504 33.218h3.322zM-699.582 954.124h-14v-64.222h8.779v57.42h5.221v6.802zM-1101.094 92.11h17.042v10.956c2.333-9.231 7.506-12.072 21.81-12.072 10.854 0 17.042 1.928 21.1 6.695 3.145 3.652 4.362 8.217 4.362 16.636v25.157h-17.448v-24.447c0-8.318-2.941-10.448-14.404-10.448-11.666 0-15.013 3.043-15.013 13.492v21.404h-17.448v-47.373zM-1024.91 71.822h17.448v12.68h-17.448v-12.68zm0 20.288h17.448v47.373h-17.448v-47.373zM-933.716 124.368c-.102 7-2.13 10.753-7.202 13.086-4.463 2.13-10.144 2.84-22.926 2.84-7.811 0-15.114-.507-19.375-1.217-5.478-1.015-10.042-4.463-12.173-8.927-1.623-3.55-2.231-7.202-2.231-13.694 0-13.289 2.84-19.68 10.144-22.723 4.463-1.826 9.738-2.435 22.418-2.435 8.216 0 14.912.406 18.766 1.217 5.478 1.116 10.042 5.173 11.463 10.55.812 3.043 1.116 5.681 1.116 10.956v5.173h-46.155v2.232c0 3.449 1.217 5.782 3.348 6.999 1.623.812 5.985 1.319 12.68 1.319 10.246 0 12.579-1.014 12.984-5.376h17.143zm-16.94-14.506c-.102-6.695-2.536-8.014-14.709-8.014-7.506 0-10.55.507-12.375 2.231-1.42 1.217-2.13 2.942-2.13 4.971v.812h29.214zM-859.561 139.482h-17.042v-10.956c-2.333 9.231-7.507 12.071-21.81 12.071-10.956 0-17.042-1.927-21.1-6.695-3.145-3.652-4.362-8.217-4.362-16.636v-25.156h17.448v24.447c0 8.521 2.739 10.448 14.607 10.448 11.463 0 14.811-3.043 14.811-13.492v-21.403h17.447v47.372zM-851.848 92.11h18.563l10.955 35.301 13.188-35.301h16.738l12.883 35.301 11.463-35.301h18.665l-17.651 47.373h-24.244l-9.434-28.201-9.738 28.201h-23.94l-17.448-47.373zM-726.465 124.875c.102 4.159 2.841 4.971 15.926 4.971 10.348 0 13.694-1.116 13.694-4.362 0-2.333-1.521-3.551-5.071-3.753-1.725-.203-4.159-.203-9.028-.203h-8.724c-18.97 0-24.752-3.347-24.752-14.506 0-7.608 3.043-12.375 8.927-14.1 4.666-1.319 12.274-1.928 23.433-1.928 14.912 0 20.897.71 25.157 3.043 3.652 1.927 5.174 5.072 5.479 11.159h-18.361c-.405-2.739-2.638-3.348-12.173-3.348-10.854 0-14.404 1.014-14.404 3.956s2.13 3.55 11.463 3.55h12.274c18.563 0 23.635 3.246 23.635 14.912 0 7.913-2.941 12.376-9.434 14.303-4.768 1.42-12.68 2.029-25.969 2.029-14.709 0-19.578-.608-24.041-2.941-4.362-2.232-6.391-6.29-6.492-12.782h18.461zM-976.124-1494.81h-14.333v-4.985h33.729v4.985h-14.333v46.971h-5.063v-46.971zM-952.989-1499.795h28.121v4.985h-23.057v17.526h21.889v4.985h-21.889v19.474h22.901v4.985h-27.965v-51.955zM-919.104-1499.795h5.063v46.971h22.123v4.985h-27.186v-51.956zM-887.867-1499.795h28.12v4.985h-23.058v17.526h21.889v4.985h-21.889v19.474h22.902v4.985h-27.965v-51.955zM-856.32-1499.795h5.141l14.021 46.971h.156l14.099-46.971h5.142l-15.735 51.957h-7.089l-15.735-51.957zM-813.323-1499.795h5.063v51.957h-5.063v-51.957zM-774.531-1486.864c0-6.777-2.259-8.413-11.451-8.413-8.802 0-10.282 1.247-10.282 8.725 0 8.023 1.091 9.036 10.983 9.737 7.244.545 9.737 1.091 11.841 2.415 2.804 1.792 3.895 5.141 3.895 12.074 0 11.918-3.35 15.034-16.125 15.034-12.696 0-16.28-2.882-16.28-12.775v-4.051h4.674v3.038c0 7.711 1.48 8.802 12.074 8.802 9.737 0 10.594-.857 10.594-10.75 0-3.271-.155-4.673-.779-5.686-1.09-1.948-3.661-2.804-9.581-3.272l-5.375-.467c-8.646-.701-10.982-3.583-10.982-13.476 0-11.762 2.804-14.411 15.345-14.411 13.165 0 15.579 2.181 16.125 14.645h-4.674v-1.169zM-763.16-1499.795h5.063v51.957h-5.063v-51.957zM-750.541-1499.795h28.12v4.985h-23.058v17.526h21.89v4.985h-21.89v19.474h22.901v4.985h-27.964v-51.955zM-968.607-1423.596h8.023l23.524 46.504h.156v-46.504h5.063v51.957h-8.023l-23.524-46.504h-.156v46.504h-5.063v-51.957zM-924.206-1423.596h5.063v51.957h-5.063v-51.957zM-911.587-1423.596h28.12v4.985h-23.057v17.526h21.889v4.985h-21.889v19.474h22.901v4.985h-27.965v-51.955zM-843.506-1384.881c0 10.516-4.051 13.788-17.215 13.788-12.931 0-16.981-3.272-16.981-13.788v-38.714h5.063v40.194c0 5.608 2.727 7.322 11.996 7.322 9.348 0 12.074-1.714 12.074-7.322v-40.194h5.062v38.714zM-806.896-1418.61h-.156l-11.606 46.971h-7.399l-13.71-51.957h4.907l12.308 46.971h.156l11.606-46.971h7.634l11.606 46.971h.155l12.308-46.971h4.908l-13.632 51.957h-7.4l-11.685-46.971zM-744.893-1410.665c0-6.777-2.259-8.413-11.451-8.413-8.802 0-10.282 1.247-10.282 8.725 0 8.023 1.091 9.036 10.983 9.737 7.244.545 9.737 1.091 11.841 2.415 2.804 1.792 3.895 5.141 3.895 12.074 0 11.918-3.35 15.034-16.125 15.034-12.696 0-16.28-2.882-16.28-12.775v-4.051h4.674v3.038c0 7.711 1.48 8.802 12.074 8.802 9.737 0 10.594-.857 10.594-10.75 0-3.271-.155-4.673-.779-5.686-1.09-1.948-3.661-2.804-9.581-3.272l-5.375-.467c-8.646-.701-10.982-3.583-10.982-13.476 0-11.762 2.804-14.411 15.345-14.411 13.165 0 15.579 2.181 16.125 14.645h-4.674v-1.169z"/><text transform="translate(-982.024 -994.847)" font-family="EurostileCon-Hea" font-size="77.897" letter-spacing="-2">TELEVISIE</text><text transform="translate(-982.024 -918.648)" font-family="EurostileCon-Hea" font-size="77.897" letter-spacing="-2">JOURNAAL</text><text transform="translate(-405.804 -1001.859)" font-family="EurostileCon-Hea" font-size="77.897" letter-spacing="-2">TELEVISIE</text><text transform="translate(-405.804 -925.66)" font-family="EurostileCon-Hea" font-size="77.897" letter-spacing="-2">JOURNAAL</text><text transform="translate(106.943 -952.271)" font-family="AGaramondPro-Regular" font-size="77.897" letter-spacing="-2">TV-NIEUWS</text><g enable-background="new"><defs><path id="a" enable-background="new" d="M674.843-815.851l47.707-89.787h363.346l47.707 89.787z"/></defs><clipPath id="b"><use xlink:href="#a" overflow="visible"/></clipPath><g clip-path="url(#b)"><path d="M785.818-904.911h-19.292l-24.19 64.568-.43.291 10.596-64.859h-30.336l-46.703 87.891h24.061l32.839-71.741h.278l-15.337 71.741h38.139l30.375-87.891M816.435-904.911h-20.77l-27.847 87.891h26.097l22.52-87.891M866.328-904.911h-40.059l-19.998 87.891h52.198l2.015-18.98h-24.947l3.976-23.816h20.153l1.693-14.732h-19.39l2.887-17.295h20.026l1.446-13.068M927.829-904.911h-20.771l.527 63.68c.009 1.072-.112 2-.374 2.791-.263.792-.662 1.444-1.208 1.961-.545.518-1.233.9-2.069 1.153-.837.253-1.822.377-2.958.377-1.177 0-2.191-.124-3.05-.377-.854-.252-1.552-.635-2.099-1.153-.547-.517-.941-1.169-1.193-1.961-.251-.791-.36-1.719-.334-2.791l1.555-63.68h-20.755l-5.362 63.085c-.403 4.761-.286 8.77.512 12.107.811 3.39 2.32 6.062 4.681 8.119 2.382 2.076 5.617 3.514 9.854 4.432 4.254.922 9.493 1.317 15.863 1.317 3.485 0 6.566-.104 9.299-.326 2.73-.221 5.107-.559 7.192-1.024 2.081-.466 3.866-1.058 5.411-1.79 1.542-.729 2.847-1.596 3.967-2.608 1.159-1.014 2.139-2.191 2.942-3.544.799-1.344 1.424-2.857 1.884-4.551.452-1.68.744-3.532.881-5.564.133-2.014.115-4.201-.047-6.567l-4.348-63.086M1029.781-904.911h-20.1l15.391 72.259h-.34l-29.214-72.259h-28.047l3.203 72.259h-.148l-17.219-72.259h-20.084l20.144 87.891h36.944l-6.152-75.501h.275l27.903 75.501h36.946l-19.502-87.891M1058.312-905.638c-5.044 0-9.028.209-12.073.751-3.057.544-5.18 1.424-6.498 2.771-1.327 1.358-1.844 3.196-1.664 5.662.182 2.5 1.082 5.663 2.593 9.656l1.827 4.833c.863 2.279 1.723 4.291 2.617 6.071.898 1.797 1.829 3.354 2.817 4.708.997 1.366 2.055 2.524 3.202 3.521 1.156 1.001 2.402 1.837 3.772 2.553 1.287.688 2.443 1.255 3.673 1.76 1.234.507 2.541.95 4.123 1.389 1.586.441 3.453.879 5.803 1.373 2.355.497 5.201 1.05 8.746 1.723 2.352.473 4.237.895 5.781 1.348 1.546.455 2.752.939 3.74 1.537.994.6 1.771 1.312 2.465 2.223.695.914 1.311 2.029 1.969 3.435l4.912 10.427c.508 1.079.812 1.986.9 2.738.09.755-.045 1.354-.414 1.817-.373.465-.981.791-1.845 1.003-.864.212-1.981.305-3.368.305-1.625 0-2.945-.085-4.066-.345-1.122-.26-2.041-.693-2.873-1.385-.828-.69-1.564-1.637-2.313-2.922-.749-1.277-1.507-2.885-2.381-4.898l-2.986-6.871h-22.356l2.988 7.9c1.936 5.117 3.926 9.356 6.234 12.835 2.35 3.539 5.005 6.263 8.248 8.32 3.271 2.081 7.119 3.467 11.816 4.335 4.717.873 10.271 1.215 16.941 1.215 6.543 0 11.668-.425 15.461-1.48 3.773-1.05 6.209-2.715 7.396-5.181 1.175-2.438 1.122-5.641-.036-9.762-1.14-4.041-3.332-8.933-6.441-14.786-2.816-5.3-5.15-9.363-7.506-12.575-2.321-3.159-4.682-5.521-7.555-7.413-2.848-1.874-6.21-3.296-10.539-4.571-4.303-1.267-9.562-2.39-16.211-3.66-1.999-.371-3.587-.712-4.881-1.093-1.29-.379-2.285-.798-3.104-1.327-.811-.527-1.445-1.162-2.01-1.973-.562-.808-1.053-1.789-1.586-3.009l-2.256-5.16c-.491-1.125-.814-2.029-.941-2.751-.125-.721-.051-1.262.253-1.665.306-.402.837-.666 1.636-.829.797-.163 1.859-.227 3.221-.227 1.289 0 2.297.036 3.135.192.836.157 1.504.436 2.107.923.604.487 1.146 1.186 1.736 2.182.593 1.003 1.237 2.314 2.045 4.026l1.778 3.776h19.838l-4.884-9.29c-1.43-2.727-3.023-4.971-4.908-6.804-1.863-1.814-4.021-3.232-6.599-4.319-2.56-1.08-5.546-1.832-9.083-2.315-3.528-.481-7.618-.697-12.396-.697"/></g></g><circle cx="-895.247" cy="-456.121" r="81.093"/><path d="M-693-633.482h-371v172h30.271c22.887-53 77.791-89.418 141.895-89.418s119.007 36.418 141.894 89.418h56.94v-172zM-1095-268.482h372v-172h-28.905c-22.887 53-77.791 89.418-141.894 89.418-64.104 0-119.007-36.418-141.895-89.418h-59.306v172zM-1132-632.482h41v171h-41zM-693-439.482h41v171h-41z"/><path d="M-950-504.482v103h46v-15.851s10.398 12.574 15.009 15.067c3.447 1.862 15.61 2.947 15.61 2.947s13.54-1.249 17.795-2.621c2.72-.876 10.208-5.24 10.208-5.24l-.628-44.873s-14.397 6.223-23.242 4.912c-4.299-.637-10.243-8.252-12.766-11.791-3.076-4.314-8.513-19.407-8.513-19.407s-6.14-11.791-11.135-18.354c-4.881-6.412-16.047-7.791-16.047-7.791h-32.291z" fill="#fff"/><path d="M-846.306-501.93s-29.78.062-32.128 25.881c-2.499 27.487 30.343 28.558 32.1 11.958l.028-37.839z" fill="#fff" stroke="#000"/><circle cx="-858.111" cy="-468.156" r="11.156" stroke="#fff"/><path d="M-968.177 447.061h5.896v-36.78h-5.896v-10.536l28.108.076c2.611 0 5.001.463 7.17 1.389 2.168.926 4.038 2.182 5.61 3.766 1.572 1.585 2.796 3.436 3.67 5.553.875 2.117 1.312 4.368 1.312 6.752 0 2.789-.489 5.096-1.464 6.922-.977 1.826-2.365 3.297-4.165 4.412 1.902 1.217 3.404 2.72 4.507 4.508 1.103 1.787 1.654 3.962 1.654 6.522 0 2.612-.45 5.009-1.35 7.188-.9 2.182-2.13 4.064-3.689 5.648-1.56 1.586-3.404 2.814-5.534 3.689s-4.425 1.312-6.884 1.312h-28.945v-10.421zm18.523-36.781v12.933h9.052c.71 0 1.382-.178 2.016-.533.633-.354 1.185-.83 1.654-1.426s.843-1.268 1.122-2.016c.279-.748.418-1.527.418-2.34 0-.785-.14-1.572-.418-2.357-.279-.786-.653-1.496-1.122-2.131-.469-.633-1.021-1.146-1.654-1.54-.634-.394-1.306-.59-2.016-.59h-9.052zm0 23.355v13.426h9.585c.735 0 1.426-.189 2.073-.57.647-.381 1.204-.881 1.674-1.502.469-.621.843-1.344 1.122-2.168.279-.824.418-1.68.418-2.568 0-.938-.14-1.807-.418-2.605-.279-.799-.66-1.496-1.141-2.092-.482-.596-1.046-1.064-1.693-1.407-.646-.343-1.325-.513-2.035-.513h-9.585zM-917.797 399.82h30.504c2.967 0 5.617.444 7.949 1.332 2.334.887 4.299 2.072 5.896 3.556s2.82 3.208 3.67 5.173 1.273 4.013 1.273 6.143c0 1.953-.209 3.664-.627 5.135s-1.027 2.777-1.826 3.918-1.781 2.148-2.947 3.023-2.498 1.668-3.994 2.377c1.293.66 2.436 1.668 3.424 3.024s1.736 3.112 2.244 5.269l1.939 7.492h4.754l.076 11.221h-16.734l-2.283-13.693c-.229-1.622-.576-3.023-1.045-4.202-.471-1.179-1.098-2.143-1.883-2.892-.787-.747-1.744-1.299-2.872-1.654-1.129-.354-2.467-.532-4.013-.532h-4.906v12.552h5.286v10.422h-23.886v-10.422h5.972v-36.78h-5.972v-10.462zm18.6 10.46v13.959h7.568c1.445 0 2.744-.133 3.898-.399s2.143-.685 2.967-1.255c.824-.571 1.459-1.286 1.902-2.149.443-.861.666-1.889.666-3.08 0-2.231-.799-3.969-2.396-5.211s-3.943-1.864-7.037-1.864h-7.568zM-852.051 447.061h5.973v-37.161h-7v7.455h-12.398v-17.535h52.451v17.535h-12.475v-7.455h-7.951v37.16h6.086v10.422h-24.686v-10.421zM-1096.334 471.82h21.794v11.562h-4.032v39.558c-.558 2.054-1.369 3.937-2.434 5.647-1.065 1.713-2.111 3.266-3.138 4.66-1.027 1.395-2.466 3.156-4.317 5.287l-10.612-.57c1.496-2.283 2.668-4.166 3.518-5.648.85-1.484 1.705-3.119 2.567-4.906.862-1.789 1.534-3.696 2.016-5.725v-38.303h-5.363v-11.562zM-1045.308 530.51c-2.612 0-5.109-.355-7.493-1.065-2.384-.71-4.609-1.712-6.675-3.005-2.067-1.293-3.943-2.846-5.629-4.659-1.687-1.812-3.125-3.829-4.317-6.048-1.192-2.219-2.118-4.596-2.777-7.131-.66-2.536-.989-5.186-.989-7.95 0-2.763.329-5.42.989-7.968.659-2.549 1.584-4.932 2.777-7.151 1.191-2.218 2.63-4.234 4.317-6.048 1.686-1.812 3.562-3.365 5.629-4.659 2.066-1.293 4.292-2.294 6.675-3.005 2.383-.709 4.881-1.064 7.493-1.064s5.116.355 7.512 1.064c2.396.711 4.627 1.712 6.694 3.005 2.066 1.294 3.942 2.847 5.629 4.659 1.686 1.813 3.131 3.83 4.336 6.048 1.204 2.22 2.136 4.603 2.795 7.151.659 2.548.989 5.205.989 7.968 0 2.739-.33 5.382-.989 7.931-.66 2.549-1.591 4.932-2.795 7.15-1.205 2.219-2.65 4.235-4.336 6.048-1.687 1.813-3.563 3.366-5.629 4.659-2.067 1.293-4.298 2.295-6.694 3.005-2.396.709-4.9 1.065-7.512 1.065zm0-11.944c2.206 0 4.228-.476 6.067-1.426 1.838-.951 3.417-2.244 4.735-3.881 1.318-1.635 2.339-3.537 3.062-5.705s1.084-4.469 1.084-6.903c0-2.459-.368-4.779-1.103-6.96-.736-2.181-1.769-4.09-3.1-5.725-1.331-1.636-2.91-2.929-4.735-3.88-1.826-.95-3.829-1.427-6.01-1.427s-4.184.477-6.009 1.427c-1.826.951-3.398 2.244-4.716 3.88-1.319 1.635-2.353 3.544-3.1 5.725-.748 2.181-1.122 4.501-1.122 6.96 0 2.435.374 4.735 1.122 6.903.748 2.168 1.781 4.07 3.1 5.705 1.318 1.637 2.891 2.93 4.716 3.881 1.825.951 3.828 1.426 6.009 1.426zM-1014.478 471.82h23.125v10.46h-5.287v23.925c0 2.181.248 4.031.742 5.553.495 1.521 1.185 2.764 2.073 3.728.887.964 1.939 1.667 3.157 2.11 1.217.444 2.548.666 3.994.666 1.496 0 2.859-.189 4.089-.57 1.229-.381 2.282-1.033 3.157-1.959.875-.926 1.546-2.161 2.016-3.709.469-1.546.704-3.485.704-5.818v-23.926h-6.124v-10.46h23.125v10.46h-4.603v22.44c0 4.059-.583 7.664-1.75 10.822-1.167 3.156-2.771 5.825-4.812 8.006-2.042 2.182-4.438 3.842-7.188 4.982-2.752 1.141-5.7 1.712-8.843 1.712-3.119 0-6.035-.564-8.748-1.692-2.714-1.129-5.078-2.764-7.094-4.906-2.016-2.143-3.607-4.748-4.773-7.816-1.167-3.068-1.75-6.543-1.75-10.422v-23.126h-5.211v-10.46zM-955.083 471.82h30.504c2.967 0 5.617.444 7.949 1.332 2.334.887 4.299 2.072 5.896 3.556s2.82 3.208 3.67 5.173 1.273 4.013 1.273 6.143c0 1.953-.209 3.664-.627 5.135s-1.027 2.777-1.826 3.918-1.781 2.148-2.947 3.023-2.498 1.668-3.994 2.377c1.293.66 2.436 1.668 3.424 3.024s1.736 3.112 2.244 5.269l1.939 7.492h4.754l.076 11.221h-16.734l-2.283-13.693c-.229-1.622-.576-3.023-1.045-4.202-.471-1.179-1.098-2.143-1.883-2.892-.787-.747-1.744-1.299-2.872-1.654-1.129-.354-2.467-.532-4.013-.532h-4.906v12.552h5.287v10.422h-23.886v-10.422h5.972v-36.78h-5.972v-10.462zm18.6 10.46v13.959h7.569c1.445 0 2.745-.133 3.898-.399 1.154-.266 2.143-.685 2.967-1.255.824-.571 1.459-1.286 1.902-2.149.443-.861.666-1.889.666-3.08 0-2.231-.799-3.969-2.396-5.211s-3.944-1.864-7.037-1.864h-7.569zM-862.788 471.82h21.908v10.46h-4.678v47.202h-12.629l-24-37.275v26.854h4.83v10.422h-21.87v-10.422h4.754v-36.78h-4.678v-10.46h17.42l23.848 37.77v-27.31h-4.906v-10.461zM-807.31 519.061h5.742l-2.586-8.291h-17.725l-2.586 8.291h6.086v10.422h-21.871v-10.422h4.299l15.707-47.24h15.254l15.365 47.24h4.184v10.422h-21.869v-10.422zm-11.562-18.03h11.639l-5.857-18.751-5.782 18.751zM-752.937 519.061h5.744l-2.586-8.291h-17.725l-2.588 8.291h6.086v10.422h-21.869v-10.422h4.297l15.709-47.24h15.252l15.367 47.24h4.184v10.422h-21.871v-10.422zm-11.562-18.03h11.639l-5.857-18.751-5.782 18.751zM-728.229 471.82h24.686v10.46h-6.086v36.78h12.551c.33 0 .652-.095.971-.285.316-.189.596-.438.836-.742s.438-.633.59-.988.229-.697.229-1.027v-7.721h12.324v21.186h-46.1v-10.422h5.971v-36.78h-5.971v-10.461zM-950 872.518v-62h11.41c4.706 0 6.59 3.727 6.59 8.979v11.469c0 3.691-.927 6.119-3.053 7.421l-2.229 1.398 2.304 1.217c2.058 1.05 2.978 3.278 2.978 6.81v15.977c0 4.522-.738 6.189-1.446 7.046-1.109 1.314-3.278 1.685-6.647 1.685h-9.907zm6-4h3.037c2.096 0 2.963-.586 2.963-2.824v-19.471c0-2.734-1.32-4.705-2.963-4.705h-3.037v27zm0-31h3.037c2.096 0 2.963-.906 2.963-3.143v-14.966c0-2.732-1.32-4.892-2.963-4.892h-3.037v23.001zM-887 872.518v-23.283c0-2.738-.991-4.717-2.634-4.717h-3.366v28h-5v-62h10.738c2.753 0 4.299 1.26 5.13 2.38.64.863 1.132 3.64 1.132 8.655v12.418c0 3.643-.79 6.072-2.974 7.425l-2.105 1.389 2.135 1.217c2.119 1.103 2.944 3.331 2.944 6.815v21.701h-6zm-6-32h3.366c2.096 0 2.634-.9 2.634-3.139v-17.969c0-2.733-.991-4.893-2.634-4.893h-3.366v26.001zM-843 872.518v-58h-4v-4h14v4h-4v58zM-1701.26 1102.068c0 8.688-1.372 14.688-4.115 18.002-3.086 3.659-8.803 5.486-17.145 5.486h-23.146v-139.214h26.403c12.001 0 18.002 6.574 18.002 19.717v24.859c0 9.146-2.802 15.43-8.401 18.859 5.599 2.857 8.401 8.743 8.401 17.658v34.633zm-19.031-63.759v-32.441c0-3.188-1.372-4.781-4.115-4.781h-2.229v41.833h2.229c2.744-.001 4.115-1.535 4.115-4.611zm0 67.89v-42.209c0-3.188-1.372-4.783-4.115-4.783h-2.229v51.605h2.229c2.744 0 4.115-1.538 4.115-4.613zM-1646.57 1125.557h-19.031v-55.035c0-3.198-1.371-4.8-4.114-4.8h-2.229v59.835h-19.03v-139.215h26.402c7.085 0 11.857 1.658 14.316 4.972 2.457 3.316 3.686 9.716 3.686 19.202v26.917c0 9.03-2.858 15.317-8.572 18.859 5.714 2.974 8.572 8.858 8.572 17.659v51.606zm-19.031-80.736v-38.95c0-3.188-1.371-4.785-4.114-4.785h-2.229v48.348h2.229c2.743 0 4.114-1.538 4.114-4.613zM-1577.022 1006.457h-17.402v118.928h-19.031v-118.433l-20.046.247v-20.857h56.479v20.115z"/><path d="M-1803.857 1134.1c-2.708 0-4.745-1.402-5.316-3.659-.498-1.974-.165-4.013.939-5.745 1.069-1.678 2.735-2.874 4.693-3.369.53-.134 1.077-.201 1.625-.201 2.613 0 4.67 1.456 5.24 3.711.481 1.904.206 3.891-.774 5.593-.998 1.731-2.601 2.95-4.513 3.435-.622.155-1.259.235-1.894.235zM-1803.857 1133.1c.552 0 1.107-.07 1.648-.207 1.648-.416 3.03-1.469 3.892-2.963.85-1.476 1.088-3.197.671-4.85-.454-1.795-2.13-2.955-4.27-2.955-.465 0-.93.057-1.38.171-1.709.433-3.163 1.475-4.095 2.937-.955 1.498-1.243 3.26-.813 4.963.454 1.79 2.119 2.904 4.347 2.904z" fill="#0B080B"/><path d="M-1855.564 1231.596c-2.479 0-4.272-1.466-4.918-4.021-2.449-9.693 12.055-24.998 21.035-33.352l22.292-48.781 13.245-3.346-14.775 32.451c6.342-6.031 15.182-15.021 21.944-22.645 5.752-8.613 13.968-15.881 19.556-17.293.467-.117.942-.178 1.413-.178 2.557 0 4.702 1.689 5.338 4.205 1.165 4.609-.533 12.221-4.672 21.118 5.765-4.272 21.352-25.522 24.298-30.396l.346-.77 13.68-3.454-16.675 35.116c-.876 1.766-2.276 5.551-2.586 7.034 2.032-.942 6.52-7.202 10.914-16.647l12.512-26.555 13.707-3.464-17.646 36.354c-.875 1.764-2.28 5.563-2.583 7.035 4.272-1.535 19.663-16.438 25.641-26.633 2.857-5.472 5.217-10.259 7.004-14.208-1.086-1.138-1.564-2.644-1.732-3.308-1.289-5.101 2.384-11.841 5.94-12.74.334-.084.67-.127 1-.127 1.919 0 3.472 1.429 4.053 3.728.282 1.117.216 2.495-.222 4.317 1.262-.709 2.654-1.367 4.419-1.812.408-.104.835-.155 1.272-.155 2.548 0 4.966 1.673 5.506 3.808 1.074 4.251-2.646 12.361-6.953 21.752-2.311 5.038-5.705 12.438-5.877 15.125 2.457-.994 7.928-6.886 16-20.564l-.181.046 2.57-4.182.389-.693.054-.014c6.569-10.405 18.451-22.89 22.896-24.015.604-.152 1.198-.229 1.765-.229 1.396 0 4.782.543 6.055 5.577l.044.188c3.272-4.634 7.483-9.414 11.457-10.418.544-.137 1.083-.206 1.604-.206 1.336 0 4.575.517 5.783 5.296 1.626 6.438-3.567 16.104-8.148 24.633-1.865 3.474-4.559 8.488-4.99 10.621 2.086-1.025 15.015-15.167 25.447-27.879 6.085-11.205 17.084-21.758 22.163-23.041.467-.117.951-.178 1.439-.178 1.341 0 2.654.453 3.716 1.252l.896-1.869 13.324-3.366-16.895 35.3c-.797 1.667-2.146 6.126-2.404 7.792 4.81-2.347 19.662-17.943 25.123-27.421l.151-.262c1.683-3.122 3.523-5.795 4.767-7.484 5.875-7.967 13.394-14.756 17.491-15.791.468-.119.953-.179 1.44-.179 1.341 0 2.653.452 3.716 1.251l.896-1.868 13.324-3.365-16.895 35.299c-.803 1.679-2.165 6.187-2.409 7.825 4.384-1.781 16.036-11.379 22.479-20.098 2.283-7.953 6.527-18.459 11.66-28.865 3.8-7.702 16.941-33.021 26.49-35.434.413-.104.838-.156 1.264-.156 2.321 0 4.329 1.532 4.883 3.727 1.241 4.916-1.872 12.504-9.519 23.201-6.456 9.031-14.024 17.258-16.377 19.759-7.042 15.792-11.529 27.676-12.182 30.644 4.223-1.535 13.296-13.969 19.863-25.184l.422-.723 7.339-1.854-2.347 4.088c-1.589 2.771-15.771 27.125-24.302 29.281-.654.164-1.326.248-1.996.248-2.664 0-5.865-1.401-6.858-5.335-.245-.971-.332-2.146-.26-3.555-4.642 4.813-14.635 14.642-20.095 16.021-.649.163-1.319.247-1.991.247-3.326 0-5.89-1.967-6.69-5.133l-.041-.166c-2.802 3.989-6.41 8.141-9.737 8.981-.521.131-1.049.197-1.571.197-3.142 0-5.936-2.374-6.794-5.774-.409-1.621-.579-3.363-.509-5.207-6.09 7.456-15.134 17.584-20.274 18.883-.649.164-1.319.247-1.991.247-3.327 0-5.89-1.967-6.69-5.132l-.041-.167c-2.802 3.989-6.411 8.142-9.737 8.981-.519.131-1.048.197-1.572.197-3.142 0-5.935-2.374-6.794-5.773-.427-1.693-.595-3.517-.501-5.451-.516.611-1.03 1.216-1.543 1.812-9.335 10.868-15.698 16.791-18.91 17.603-.667.168-1.321.253-1.947.253-3.051 0-5.466-2.058-6.303-5.37-2.335-9.244 4.75-21.113 9.438-28.968.846-1.416 2.161-3.619 2.986-5.221-3.627 3.504-10.138 13.584-12.888 19.352l-11.605 23.863-13.654 3.451 18.946-39.731.348-.72c.365-.738.739-1.492.871-2.218-3.467 2.382-12.386 10.757-18.09 20.021-6.859 12.256-16.44 27.255-23.012 28.917-.84.211-1.74.323-2.604.323-3.67 0-6.362-1.979-7.2-5.293-2.41-9.541 4.9-21.941 9.738-30.146.531-.902 1.09-1.85 1.594-2.733-1.094.728-2.375 1.503-3.897 2.104-1.334 3.002-3.081 6.636-5.313 11.05l.293-.074-2.337 4.072-.383.744-.099.023c-3.374 5.061-21.659 27.982-29.58 29.982-.651.165-1.323.248-1.996.248-2.421 0-5.286-1.158-6.534-4.322-2.976 4.281-5.728 6.698-8.377 7.368-.652.164-1.323.247-1.995.248-2.665 0-5.865-1.401-6.859-5.335-1.109-4.391-.509-8.129 2.385-14.689-6.121 7.643-10.673 11.873-13.57 12.605-.942.238-1.786.354-2.579.354-.233 0-.463-.011-.688-.031-4.46 7.854-11.114 16.523-16.825 17.967-.531.134-1.077.201-1.621.201-3.133 0-5.981-2.272-6.772-5.404-.83-3.285-.896-6.851-.199-10.635-7.064 7.075-14.997 14.023-20.498 18.508l-7.272 16.018c-5.433 11.885-13.685 26.499-22.148 28.639-.671.17-1.307.255-1.896.255zm8.805-21.284c-5.327 7.055-8.189 13.113-8.412 15.674 1.215-1.062 3.473-5.15 4.382-6.797l4.03-8.877zm70.102-69.664c-4.023 4.676-18.675 30.972-18.801 37.453 2.66-1.516 7.267-7.081 12.177-16.891.321-.643.574-1.242 1.513-3.476.646-1.534 1.607-3.817 3.125-7.385 1.752-4.115 2.243-7.753 1.986-9.701zm181.669-46.348l-.063.009c-.858.354-4.877 5.277-11.08 17.55-5.142 10.174-7.382 16.737-7.783 19.144 2.558-2.018 7.656-9.291 8.364-10.845l9.114-19.211c1.325-2.694 1.85-5.763 1.718-6.341-.047-.18-.157-.306-.27-.306zm47.541-12.02c-3.248 1.05-18.154 30.387-18.915 36.736 2.541-1.955 7.707-9.322 8.419-10.888l9.114-19.212c1.325-2.694 1.849-5.763 1.718-6.339-.045-.181-.156-.307-.269-.307l-.067.01zm59.993-44.891c-2.5 2.049-7.374 10.846-12.25 21.988 6.49-9.244 11.688-18.496 12.25-21.988z" fill="#fff"/><path d="M-1492.06 1057.605c7.361-10.297 10.511-17.826 9.362-22.375-.442-1.75-2.051-2.971-3.913-2.971-.343 0-.686.042-1.019.126-7.258 1.834-18.106 19.234-25.838 34.907-4.742 9.611-9.227 20.381-11.645 28.87-6.585 8.981-19.554 19.757-23.838 20.839l-.198.029c-.057 0-.231 0-.374-.562-.214-1.038 1.618-7.016 2.525-8.913l15.974-33.376-10.802 2.729-1.289 2.688c-.938-1.164-2.422-1.925-4.021-1.925-.405 0-.808.05-1.195.147-3.835.969-11.272 7.74-16.931 15.416-1.433 1.943-3.147 4.5-4.706 7.389l-.151.264c-5.547 9.625-21.856 26.985-26.442 28.145l-.198.028c-.058 0-.232 0-.374-.562-.213-1.037 1.618-7.016 2.526-8.914l15.974-33.376-10.802 2.729-1.289 2.688c-.938-1.164-2.422-1.926-4.022-1.926-.405 0-.807.05-1.194.147-4.584 1.159-15.413 11.238-21.574 22.632-9.808 11.956-23.98 27.735-26.109 28.32-.34.086-.61.127-.827.127-.209 0-.299-.041-.348-.145-.44-1.741 2.382-6.996 5.112-12.077 4.496-8.369 9.591-17.854 8.06-23.916-.999-3.951-3.444-4.541-4.813-4.541-.439 0-.896.06-1.359.176-4.526 1.144-9.579 7.896-12.624 12.601.126-1.346.094-2.363-.091-3.096-1.061-4.196-3.641-4.822-5.085-4.822-.484 0-.996.066-1.52.199-3.915.989-15.663 12.924-22.507 23.914l-.027.007-.199.354-1.28 2.083.104-.027c-7.774 13.49-14.654 22.317-18.139 23.197-.182.046-.341.069-.476.069-.258 0-.323-.049-.383-.289-.575-2.276 2.866-9.778 5.902-16.398 4.052-8.835 7.88-17.181 6.893-21.089-.426-1.684-2.461-3.054-4.537-3.054-.355 0-.701.042-1.027.124-2.359.596-4.047 1.617-5.681 2.604l-.661.398c.984-2.911 1.271-4.879.93-6.23-.47-1.861-1.623-2.973-3.083-2.973-.247 0-.5.033-.754.097-2.806.71-6.441 6.673-5.215 11.524.3 1.189.955 2.534 1.973 3.299-1.825 4.086-4.295 9.117-7.352 14.969-5.949 10.146-22.013 26.037-26.515 27.176-.162.041-.311.062-.441.062-.297 0-.489-.079-.591-.479-.206-1.01 1.874-6.384 2.727-8.103l16.708-34.423-11.166 2.822-12.308 26.123c-4.369 9.39-9.347 16.661-11.837 17.291-.163.041-.311.061-.442.061-.296 0-.487-.078-.588-.479-.207-1.01 1.873-6.385 2.73-8.111l15.764-33.197-6.676 1.688-4.41 1.113v.001l-.067.017-.171.381c-2.723 4.533-21.491 30.416-26.235 31.615-.314.08-.629.125-.938.137 4.766-9.541 6.888-17.959 5.692-22.694-.522-2.063-2.277-3.45-4.369-3.45-.389 0-.782.05-1.168.146-5.053 1.277-13.135 8.12-19.007 16.937-7.778 8.772-19.094 20.19-25.72 26.168l15.985-35.107-10.762 2.719-22.176 48.525c-7.211 6.693-23.31 22.94-20.892 32.51.532 2.106 1.934 3.267 3.948 3.267.507 0 1.061-.074 1.645-.223 8.078-2.041 16.141-16.396 21.482-28.082l7.369-16.23c5.684-4.622 15.223-12.945 23.135-21.17-1.37 4.592-1.769 9.271-.656 13.679.681 2.694 3.122 4.649 5.803 4.649.462 0 .925-.057 1.376-.171 5.576-1.409 12.291-10.46 16.536-18.087.385.08.794.121 1.223.121.708 0 1.471-.105 2.333-.323 4.191-1.06 11.891-10.43 18.278-19.12l-3.41 7.577c-2.908 6.521-3.531 10.143-2.468 14.352.854 3.377 3.601 4.58 5.889 4.58.59-.001 1.179-.073 1.75-.218 2.752-.695 5.729-3.604 9.052-8.858.049.426.122.827.216 1.203.854 3.376 3.602 4.579 5.888 4.579.59 0 1.179-.072 1.751-.217 7.519-1.9 26.09-24.957 29.202-29.889l.042-.011.196-.38 1.163-2.026-.141.036c2.799-5.477 4.924-9.867 6.457-13.346 2.07-.752 3.709-1.881 5.044-2.801.81-.557 1.535-1.057 2.16-1.338-.438 1.217-1.942 3.768-3.294 6.062-4.754 8.064-11.938 20.252-9.629 29.394.729 2.884 3 4.538 6.23 4.538.785 0 1.601-.102 2.359-.293 6.552-1.656 16.843-18.535 22.405-28.471 6.465-10.5 17.349-20.33 19.781-21.094.036.058.083.154.116.286.35 1.385-.33 2.759-.93 3.972l-.341.707-18.03 37.809 11.14-2.814 11.398-23.438c3.117-6.538 11.913-20.254 15.27-21.104.06 0 .228.087.268.247.187.866-2.065 4.637-3.874 7.668-4.604 7.713-11.562 19.367-9.328 28.211.73 2.891 2.724 4.615 5.333 4.615.544 0 1.117-.075 1.702-.223 3.748-.947 12.073-9.922 18.397-17.284 1.229-1.431 2.469-2.905 3.699-4.392-.556 2.922-.598 5.776.074 8.436.747 2.955 3.142 5.02 5.825 5.02.441 0 .888-.056 1.327-.166 3.746-.947 8.104-6.876 10.545-10.635.08.848.228 1.674.447 2.543.693 2.742 2.832 4.378 5.721 4.378.589 0 1.177-.073 1.746-.216 5.079-1.283 15.059-12.601 21.9-21.225-.515 2.779-.581 5.588.098 8.272.746 2.956 3.141 5.02 5.825 5.02.441 0 .888-.057 1.326-.167 3.746-.947 8.105-6.875 10.546-10.635.08.848.228 1.675.447 2.544.693 2.741 2.831 4.378 5.72 4.378.59 0 1.177-.073 1.746-.217 5.008-1.266 14.953-10.675 21.661-17.9-.408 2.547-.47 4.659-.091 6.158.853 3.377 3.601 4.58 5.889 4.58.59 0 1.179-.074 1.75-.218 8.265-2.089 23.055-27.718 23.68-28.809l1.173-2.044-4.646 1.173-.211.362c-5.661 9.666-15.865 24.498-20.778 25.739-.162.04-.311.062-.442.062-.297 0-.488-.079-.583-.448-.194-1.772 5.484-16.351 12.415-31.88 2.35-2.496 9.919-10.708 16.405-19.781zm5.582-21.419c.896 3.542-8.47 19.039-17.343 30.45 5.469-13.728 13.388-29.767 16.858-30.643l.215-.03c.169 0 .227.049.27.223zm-61.447 53.16l-9.107 19.197c-.684 1.502-7.254 11.232-9.89 11.898l-.114.016c-.059 0-.196 0-.285-.352-1.126-4.459 15.751-37.814 19.63-38.795.104-.026.209-.039.312-.039.58 0 1.078.427 1.239 1.062.227.901-.42 4.235-1.785 7.013zm-47.609 12.029l-9.107 19.196c-.684 1.503-7.256 11.233-9.891 11.899l-.114.016c-.059 0-.196 0-.285-.352-.416-1.644 2.214-9.467 7.906-20.728 5.685-11.248 10.283-17.704 11.723-18.067.104-.027.21-.04.312-.04.58 0 1.078.427 1.239 1.062.229.901-.417 4.237-1.783 7.014zm-180.866 37.723c.147 0 .492.292.612.77.5 1.977.095 6.105-1.935 10.875-1.518 3.564-2.479 5.848-3.124 7.381-.95 2.258-1.205 2.864-1.541 3.535-4.909 9.808-10.41 16.953-13.696 17.783-.046 0-.218-.13-.277-.365-1.501-5.94 17.152-38.605 19.942-39.977l.019-.002zm-66.32 64.736l-7.194 15.839c-1.574 2.85-3.953 7.156-5.389 7.521-.286 0-.814-.376-.866-.559-.324-3.189 4.691-13.01 13.449-22.801z" fill="#0B080B"/><text transform="translate(-281.602 978.748)" font-family="FranklinGothic-Heavy" font-size="51.325">JOURNAAL</text><path d="M228.398 338.482c-86.019 0-156-69.981-156-156s69.981-156 156-156 156 69.981 156 156-69.981 156-156 156zm0-302c-80.505 0-146 65.495-146 146s65.495 146 146 146 146-65.495 146-146-65.495-146-146-146z"/><image width="419" height="353" xlink:href="2577D19C2161970F.png" transform="translate(689.972 46.745)" overflow="visible"/><path d="M324.849 58.787c3.169-6.319 1.561-14.203 6.589-19.925.452-.515.317-1.604.335-2.429.021-.985.073-2.197-1.254-2.313-.868-.076-1.715.746-1.718 1.545-.024 5.575-5.819 8.823-5.695 14.562.041 1.897-1.411 3.827-2.333 6.122-1.495-2.349-1.259-4.396-.486-6.139 3.754-8.465 3.862-17.742 6.108-26.536.231-.905.578-2.203-.781-2.479-1.246-.253-1.716.979-1.847 1.911-.872 6.216-6.464 11.059-5.181 17.94.138.741-.755 1.811-1.39 2.534-1.798 2.048-3.017 4.334-3.702 6.986" fill="none"/><path d="M313.494 50.567c.686-2.651 1.904-4.938 3.702-6.986.635-.724 1.527-1.793 1.39-2.534-1.283-6.882 4.309-11.724 5.181-17.94.131-.932.601-2.164 1.847-1.911 1.359.276 1.013 1.574.781 2.479-2.246 8.793-2.354 18.071-6.108 26.536-.772 1.743-1.009 3.79.486 6.139.922-2.294 2.374-4.224 2.333-6.122-.124-5.739 5.671-8.987 5.695-14.562.003-.799.85-1.622 1.718-1.545 1.327.117 1.274 1.329 1.254 2.313-.018.825.117 1.914-.335 2.429-5.028 5.722-3.42 13.605-6.589 19.925m-6.698 13.198c-1.002-.811-2.095-2.124-3.449-.915-1.398 1.249-.862 2.792.259 3.978 1.474 1.559 2.729 3.555 1.819 5.387-2.7 5.432-2.99 11.495-4.996 17.081-.677 1.883-1.685 2.44-3.265.874-.866-.86-1.42-2.67-3.095-1.308-1.309 1.064-1.465 2.678-.867 4.133 2.118 5.156.188 9.093-3.653 12.404-2.704 2.33-3.452 4.978-2.573 8.467.9 3.576.582 6.984-3.231 9.089-.815.451-1.778 1.357-1.924 2.186-1.265 7.162-6.805 12.474-8.186 19.68-.75 3.912-.875 7.93-2.015 11.767-.348 1.17-1.76 2.726-.06 3.462 1.647.714 1.841-1.438 2.59-2.405.406-.523.6-1.279 1.097-1.651 1.162-.869.854-4.081 3.154-2.717 1.53.907.494 3.097-.2 4.594-.406.876-1.074 1.705-1.81 2.343-4.474 3.882-4.519 10.662-9.379 14.293-.29.217-.441 1.068-.257 1.404 2.891 5.252-.694 9.037-2.709 13.346-8.273 17.697-18.402 34.205-30.087 49.875-7.53 10.1-16.05 19.195-26.088 26.547-12.022 8.805-24.526 17.121-39.438 20.615-1.111.26-2.105.988-3.174 1.457-14.952 6.564-32.4-.199-38.75-15.02-.969-2.264-1.495-4.689.608-6.457 2.278-1.916 4.429-.486 6.212 1.145 2.521 2.305 5.436 2.867 8.758 2.818 7.239-.104 14.163-1.23 20.947-4.002 10.204-4.17 19.943-8.842 28.973-15.428 5.732-4.182 10.574-9.09 15.652-13.828 8.033-7.496 15.014-15.93 21.213-25.033 6.563-9.637 11.954-19.896 17.288-30.242 7.938-15.397 15.178-31.088 22.246-46.896 5.447-12.186 9.43-24.899 14.668-37.132 5.048-11.79 9.097-23.947 13.597-35.938" fill-rule="evenodd" clip-rule="evenodd"/><path d="M308.028 69.958c-4.5 11.992-8.549 24.149-13.597 35.938-5.238 12.233-9.221 24.946-14.668 37.132-7.068 15.808-14.309 31.5-22.246 46.896-5.334 10.346-10.725 20.605-17.288 30.242-6.199 9.104-13.18 17.537-21.213 25.033-5.078 4.738-9.92 9.646-15.652 13.828-9.029 6.586-18.769 11.258-28.973 15.428-6.784 2.771-13.708 3.898-20.947 4.002-3.322.049-6.236-.514-8.758-2.818-1.783-1.631-3.934-3.061-6.212-1.145-2.104 1.768-1.577 4.193-.608 6.457 6.35 14.82 23.798 21.584 38.75 15.02 1.068-.469 2.062-1.197 3.174-1.457 14.911-3.494 27.415-11.811 39.438-20.615 10.038-7.352 18.558-16.447 26.088-26.547 11.685-15.67 21.813-32.178 30.087-49.875 2.015-4.309 5.6-8.094 2.709-13.346-.185-.336-.033-1.188.257-1.404 4.86-3.631 4.905-10.412 9.379-14.293.735-.638 1.403-1.467 1.81-2.343.694-1.497 1.73-3.687.2-4.594-2.301-1.364-1.992 1.848-3.154 2.717-.497.372-.69 1.128-1.097 1.651-.749.968-.942 3.119-2.59 2.405-1.7-.736-.288-2.292.06-3.462 1.14-3.837 1.265-7.854 2.015-11.767 1.381-7.206 6.921-12.519 8.186-19.68.146-.829 1.108-1.735 1.924-2.186 3.813-2.105 4.132-5.514 3.231-9.089-.879-3.49-.131-6.137 2.573-8.467 3.842-3.311 5.771-7.249 3.653-12.404-.598-1.456-.441-3.069.867-4.133 1.675-1.363 2.229.448 3.095 1.308 1.58 1.566 2.588 1.009 3.265-.874 2.006-5.585 2.296-11.649 4.996-17.081.91-1.832-.346-3.829-1.819-5.387-1.121-1.186-1.657-2.729-.259-3.978 1.354-1.209 2.447.104 3.449.915" clip-rule="evenodd" fill="none"/></g></svg>