<?xml version="1.0" encoding="iso-8859-1"?>
<!-- Generator: Adobe Illustrator 16.0.4, SVG Export Plug-In . SVG Version: 6.00 Build 0)  -->
<!DOCTYPE svg PUBLIC "-//W3C//DTD SVG 1.1//EN" "http://www.w3.org/Graphics/SVG/1.1/DTD/svg11.dtd">
<svg version="1.1" xmlns="http://www.w3.org/2000/svg" xmlns:xlink="http://www.w3.org/1999/xlink" x="0px" y="0px" width="480px"
	 height="360px" viewBox="0 0 480 360" style="enable-background:new 0 0 480 360;" xml:space="preserve">
<g id="Layer_1">
</g>
<g id="Layer_1_1_">
	<g>
		<rect x="163" y="-1194.482" width="306" height="65"/>
	</g>
	<g>
		<path d="M163-1128.482H-1v-66h164V-1128.482z M0-1129.482h162v-64H0V-1129.482z"/>
	</g>
	<g>
		<path d="M95.675-716.228h5.823v20.6c2.07-1.863,4.356-2.795,6.858-2.795c2.847,0,5.124,0.923,6.832,2.769
			c1.449,1.604,2.174,4.166,2.174,7.686v15.45h-5.823v-14.906c0-2.019-0.358-3.48-1.074-4.387c-0.716-0.905-1.868-1.358-3.455-1.358
			c-2.036,0-3.468,0.63-4.296,1.889c-0.811,1.277-1.216,3.469-1.216,6.574v12.188h-5.823V-716.228z"/>
		<path d="M146.102-683.75h-18.063c0.155,2.07,0.828,3.719,2.019,4.943c1.19,1.207,2.717,1.811,4.581,1.811
			c1.449,0,2.648-0.344,3.597-1.035c0.932-0.689,1.993-1.967,3.183-3.83l4.917,2.744c-0.759,1.293-1.562,2.402-2.407,3.325
			c-0.846,0.923-1.751,1.682-2.717,2.277c-0.966,0.595-2.01,1.03-3.131,1.307c-1.122,0.276-2.338,0.414-3.649,0.414
			c-3.761,0-6.78-1.208-9.058-3.623c-2.277-2.433-3.416-5.659-3.416-9.679c0-3.985,1.104-7.211,3.312-9.679
			c2.226-2.433,5.176-3.649,8.851-3.649c3.709,0,6.642,1.182,8.799,3.545c2.139,2.347,3.209,5.599,3.209,9.757L146.102-683.75z
			 M140.124-688.512c-0.811-3.105-2.769-4.658-5.875-4.658c-0.708,0-1.372,0.108-1.993,0.323c-0.621,0.216-1.187,0.527-1.695,0.932
			c-0.509,0.405-0.944,0.894-1.307,1.462c-0.362,0.57-0.639,1.217-0.828,1.941H140.124z"/>
		<path d="M157.348-692.29v19.771h-5.823v-19.771h-2.484v-5.435h2.484v-9.239h5.823v9.239h4.529v5.435H157.348z"/>
	</g>
	<g>
		<path d="M171.85-706.808c0-1.397,0.496-2.588,1.488-3.571s2.187-1.475,3.584-1.475c1.449,0,2.661,0.483,3.636,1.449
			c0.974,0.966,1.462,2.166,1.462,3.597c0,1.432-0.496,2.648-1.488,3.649c-0.992,1.001-2.195,1.501-3.61,1.501
			c-1.38,0-2.571-0.509-3.571-1.527C172.35-704.203,171.85-705.411,171.85-706.808z M172.316-660.977v-37.68h9.239v37.68H172.316z"
			/>
		<path d="M214.72-685.51c0,1.881-0.367,3.666-1.1,5.357c-0.734,1.69-1.799,3.209-3.196,4.555c-1.415,1.346-2.998,2.363-4.749,3.053
			c-1.751,0.69-3.61,1.035-5.577,1.035c-2.001,0-3.878-0.345-5.628-1.035c-1.751-0.689-3.317-1.707-4.697-3.053
			c-1.38-1.312-2.433-2.816-3.157-4.517c-0.725-1.698-1.087-3.497-1.087-5.396c0-1.915,0.358-3.718,1.074-5.408
			c0.715-1.691,1.772-3.209,3.17-4.555c1.363-1.328,2.92-2.329,4.671-3.002s3.636-1.009,5.655-1.009s3.899,0.336,5.642,1.009
			c1.742,0.673,3.304,1.674,4.684,3.002c1.415,1.363,2.484,2.89,3.209,4.581C214.358-689.201,214.72-687.407,214.72-685.51z
			 M205.559-685.51c0-1.949-0.492-3.484-1.475-4.606c-0.983-1.121-2.312-1.682-3.985-1.682c-1.691,0-3.024,0.561-3.999,1.682
			c-0.975,1.122-1.462,2.657-1.462,4.606s0.483,3.48,1.449,4.594c0.966,1.112,2.303,1.669,4.011,1.669
			c1.69,0,3.023-0.557,3.999-1.669C205.071-682.029,205.559-683.561,205.559-685.51z"/>
		<path d="M245.246-698.656v13.354c0,2.95-0.238,5.137-0.712,6.561c-0.476,1.423-1.272,2.688-2.394,3.791
			c-1.157,1.156-2.597,2.019-4.322,2.588c-1.726,0.569-3.752,0.854-6.082,0.854c-2.312,0-4.326-0.284-6.042-0.854
			c-1.717-0.569-3.179-1.432-4.387-2.588c-1.122-1.069-1.915-2.324-2.381-3.766c-0.466-1.439-0.699-3.636-0.699-6.586v-13.354h8.799
			v13.949c0,2.191,0.362,3.773,1.087,4.748s1.897,1.463,3.52,1.463c1.639,0,2.816-0.479,3.533-1.437
			c0.715-0.958,1.074-2.55,1.074-4.774v-13.949H245.246z"/>
		<path d="M250.332-672.519v-26.138h8.695v6.159c0.897-2.243,2.123-3.925,3.676-5.046c1.553-1.121,3.433-1.682,5.641-1.682
			c0.363,0,0.729,0.013,1.101,0.039c0.37,0.025,0.745,0.064,1.126,0.116l-0.881,8.385c-0.552-0.189-1.096-0.328-1.63-0.414
			c-0.535-0.086-1.053-0.129-1.553-0.129c-2.243,0-3.973,0.686-5.188,2.057c-1.217,1.372-1.824,3.317-1.824,5.836v10.817H250.332z"
			/>
		<path d="M272.37-672.519v-26.138h8.437v5.305c1.225-2.122,2.64-3.675,4.244-4.658s3.527-1.475,5.771-1.475
			c1.689,0,3.195,0.271,4.516,0.815c1.32,0.543,2.394,1.324,3.222,2.342c0.69,0.88,1.182,1.95,1.476,3.209
			c0.293,1.26,0.439,3.14,0.439,5.642v14.958h-9.238v-14.001c0-2.087-0.342-3.605-1.023-4.555c-0.682-0.948-1.771-1.423-3.273-1.423
			c-1.914,0-3.312,0.708-4.191,2.122c-0.881,1.415-1.32,3.709-1.32,6.884v10.973H272.37z"/>
		<path d="M333.406-698.656v26.138h-8.462v-4.244c-1.208,1.812-2.566,3.14-4.075,3.985c-1.511,0.846-3.283,1.268-5.318,1.268
			c-3.486,0-6.271-1.271-8.359-3.816s-3.131-5.957-3.131-10.235c0-4.261,1.09-7.647,3.273-10.157
			c2.182-2.511,5.119-3.766,8.812-3.766c1.967,0,3.661,0.418,5.085,1.255c1.424,0.837,2.645,2.127,3.662,3.869v-4.296H333.406z
			 M325.307-685.613c0-2.035-0.543-3.648-1.631-4.84c-1.086-1.19-2.57-1.785-4.451-1.785s-3.359,0.591-4.438,1.772
			c-1.078,1.183-1.617,2.8-1.617,4.853c0,2.036,0.543,3.641,1.63,4.813s2.562,1.76,4.425,1.76c1.881,0,3.365-0.587,4.451-1.76
			C324.764-681.973,325.307-683.577,325.307-685.613z"/>
		<path d="M366.805-698.656v26.138h-8.462v-4.244c-1.208,1.812-2.566,3.14-4.075,3.985c-1.511,0.846-3.283,1.268-5.318,1.268
			c-3.486,0-6.271-1.271-8.359-3.816s-3.131-5.957-3.131-10.235c0-4.261,1.09-7.647,3.273-10.157
			c2.182-2.511,5.119-3.766,8.812-3.766c1.967,0,3.661,0.418,5.085,1.255c1.424,0.837,2.645,2.127,3.662,3.869v-4.296H366.805z
			 M358.705-685.613c0-2.035-0.543-3.648-1.631-4.84c-1.086-1.19-2.57-1.785-4.451-1.785s-3.359,0.591-4.438,1.772
			c-1.078,1.183-1.617,2.8-1.617,4.853c0,2.036,0.543,3.641,1.63,4.813s2.562,1.76,4.425,1.76c1.881,0,3.365-0.587,4.451-1.76
			C358.162-681.973,358.705-683.577,358.705-685.613z"/>
		<path d="M372.436-672.519v-40.112h9.238v40.112H372.436z"/>
	</g>
	<g>
		<path d="M87.651-703.936v6.547l-22.101,9.083l22.101,9.006v6.573l-30.485-12.577v-6.029L87.651-703.936z"/>
	</g>
	<g>
		<path d="M395.909-672.329v-6.548l22.101-9.083l-22.101-9.006v-6.573l30.485,12.577v6.03L395.909-672.329z"/>
	</g>
	<g>
		<rect x="81" y="-345.482" width="120" height="72"/>
	</g>
	<g>
		<rect x="81" y="-263.482" width="307" height="72"/>
	</g>
	<g>
		<path style="fill:#FFFFFF;" d="M112.43-282.592v-22.436h-8.884v22.436H92.855v-53.604h10.691v21.532h8.884v-21.532h10.691v53.604
			H112.43z"/>
		<path style="fill:#FFFFFF;" d="M131.397-282.592v-53.604h24.694v9.637h-14.003v12.121h12.046v9.637h-12.046v12.573h14.003v9.637
			H131.397z"/>
		<path style="fill:#FFFFFF;" d="M179.729-326.56v43.968h-10.691v-43.968h-9.034v-9.637h28.759v9.637H179.729z"/>
	</g>
	<g>
		<path style="fill:#FFFFFF;" d="M112.731-203.046c-2.861,3.012-6.701,4.668-12.272,4.668c-4.818,0-8.884-1.731-11.745-4.593
			l7.378-7.228c0.753,1.054,2.56,2.184,4.367,2.184c3.237,0,5.496-2.259,5.496-6.399v-38.171h10.691v38.171
			C116.646-209.897,115.366-205.832,112.731-203.046z"/>
		<path style="fill:#FFFFFF;" d="M150.446-203.724c-2.484,2.937-5.797,5.346-11.82,5.346s-9.185-2.409-11.669-5.346
			c-4.291-5.119-3.99-14.831-3.99-22.059s-0.301-16.939,3.99-22.06c2.484-2.936,5.646-5.346,11.669-5.346s9.336,2.41,11.82,5.346
			c4.292,5.12,3.99,14.832,3.99,22.06S154.737-208.843,150.446-203.724z M142.315-241.442c-0.603-1.204-1.732-2.108-3.689-2.108
			s-2.936,0.904-3.538,2.108c-1.28,2.484-1.431,9.186-1.431,15.66s0.15,13.175,1.431,15.659c0.602,1.205,1.581,2.108,3.538,2.108
			s3.087-0.903,3.689-2.108c1.28-2.484,1.43-9.185,1.43-15.659S143.595-238.958,142.315-241.442z"/>
		<path style="fill:#FFFFFF;" d="M187.031-202.82c-2.861,2.937-6.625,4.442-11.143,4.442s-8.282-1.506-11.143-4.442
			c-2.56-2.635-3.99-6.249-3.99-10.54v-39.225h10.691v39.752c0,3.463,2.033,4.818,4.442,4.818s4.442-1.355,4.442-4.818v-39.752
			h10.691v39.225C191.021-209.069,189.59-205.455,187.031-202.82z"/>
		<path style="fill:#FFFFFF;" d="M219.702-198.98l-6.55-20.854h-3.539v20.854h-10.691v-53.604h15.283
			c11.669,0,14.907,6.099,14.907,16.338c0,5.722-0.903,10.841-6.098,14.078l7.83,23.188H219.702z M214.13-242.948h-4.517v13.477
			h4.517c4.065,0,4.292-3.689,4.292-6.775C218.422-239.334,218.196-242.948,214.13-242.948z"/>
		<path style="fill:#FFFFFF;" d="M258.922-198.98l-11.368-26.2v26.2h-10.691v-53.604h9.335l11.143,26.2v-26.2h10.69v53.604H258.922z
			"/>
		<path style="fill:#FFFFFF;" d="M299.572-198.98l-1.732-8.356h-12.347l-1.731,8.356h-11.143l13.777-53.604h10.54l13.778,53.604
			H299.572z M291.667-236.85l-4.141,19.876h8.281L291.667-236.85z"/>
		<path style="fill:#FFFFFF;" d="M339.168-198.98l-1.731-8.356H325.09l-1.732,8.356h-11.142l13.777-53.604h10.54l13.777,53.604
			H339.168z M331.263-236.85l-4.141,19.876h8.281L331.263-236.85z"/>
		<path style="fill:#FFFFFF;" d="M354.898-198.98v-53.604h10.69v43.968h14.004v9.637H354.898z"/>
	</g>
	<g>
		<rect x="113" y="164.518" width="261" height="15"/>
	</g>
	<g>
		<path d="M133.43,150.408v-22.436h-8.884v22.436h-10.691V96.804h10.691v21.532h8.884V96.804h10.691v53.604H133.43z"/>
		<path d="M152.397,150.408V96.804h24.694v9.637h-14.003v12.121h12.046v9.637h-12.046v12.573h14.003v9.637H152.397z"/>
		<path d="M200.729,106.44v43.968h-10.691V106.44h-9.034v-9.637h28.759v9.637H200.729z"/>
	</g>
	<g>
		<path d="M120.017,244.954c-2.861,3.012-6.701,4.668-12.272,4.668c-4.818,0-8.884-1.731-11.745-4.593l7.378-7.228
			c0.753,1.054,2.56,2.184,4.367,2.184c3.237,0,5.496-2.259,5.496-6.399v-38.171h10.691v38.171
			C123.932,238.103,122.651,242.168,120.017,244.954z"/>
		<path d="M157.731,244.276c-2.484,2.937-5.797,5.346-11.82,5.346s-9.185-2.409-11.669-5.346c-4.291-5.119-3.99-14.831-3.99-22.059
			s-0.301-16.939,3.99-22.06c2.484-2.936,5.646-5.346,11.669-5.346s9.336,2.41,11.82,5.346c4.292,5.12,3.99,14.832,3.99,22.06
			S162.023,239.157,157.731,244.276z M149.601,206.558c-0.603-1.204-1.732-2.108-3.689-2.108s-2.936,0.904-3.538,2.108
			c-1.28,2.484-1.431,9.186-1.431,15.66s0.15,13.175,1.431,15.659c0.602,1.205,1.581,2.108,3.538,2.108s3.087-0.903,3.689-2.108
			c1.28-2.484,1.43-9.185,1.43-15.659S150.88,209.042,149.601,206.558z"/>
		<path d="M194.316,245.18c-2.861,2.937-6.625,4.442-11.143,4.442s-8.282-1.506-11.143-4.442c-2.56-2.635-3.99-6.249-3.99-10.54
			v-39.225h10.691v39.752c0,3.463,2.033,4.818,4.442,4.818s4.442-1.355,4.442-4.818v-39.752h10.691v39.225
			C198.307,238.931,196.876,242.545,194.316,245.18z"/>
		<path d="M226.987,249.02l-6.55-20.854h-3.539v20.854h-10.691v-53.604h15.283c11.669,0,14.907,6.099,14.907,16.338
			c0,5.722-0.903,10.841-6.098,14.078l7.83,23.188H226.987z M221.416,205.052h-4.517v13.477h4.517c4.065,0,4.292-3.689,4.292-6.775
			C225.708,208.666,225.481,205.052,221.416,205.052z"/>
		<path d="M266.207,249.02l-11.368-26.2v26.2h-10.69v-53.604h9.336l11.142,26.2v-26.2h10.691v53.604H266.207z"/>
		<path d="M306.857,249.02l-1.732-8.356h-12.347l-1.731,8.356h-11.143l13.777-53.604h10.54L318,249.02H306.857z M298.952,211.15
			l-4.141,19.876h8.281L298.952,211.15z"/>
		<path d="M346.453,249.02l-1.731-8.356h-12.347l-1.732,8.356h-11.142l13.777-53.604h10.54l13.777,53.604H346.453z M338.548,211.15
			l-4.141,19.876h8.281L338.548,211.15z"/>
		<path d="M362.184,249.02v-53.604h10.69v43.968h14.004v9.637H362.184z"/>
	</g>
	<g>
		<path d="M111.542,668.406v-15.028H96.01v15.028h-9.645v-37.402h9.645v13.963h15.533v-13.963h9.646v37.402H111.542z"/>
		<path d="M127.921,668.406v-37.402h27.421v8.411h-17.776v5.832h17.383v8.411h-17.383v6.337h17.776v8.411H127.921z"/>
		<path d="M169.308,668.406v-28.991h-10.486v-8.411h30.561v8.411h-10.43v28.991H169.308z"/>
	</g>
	<g>
		<path d="M83.168,709.359l4.037-7.347c1.346,1.122,3.141,2.188,5.383,2.188c3.028,0,4.991-1.963,4.991-5.103v-24.449h9.645v24.561
			c0,9.253-5.607,13.515-13.794,13.515C89.673,712.724,85.972,711.826,83.168,709.359z"/>
		<path d="M112.05,693.378c0-11.384,8.58-19.347,20.019-19.347s19.963,7.963,19.963,19.347c0,11.383-8.524,19.346-19.963,19.346
			S112.05,704.761,112.05,693.378z M142.219,693.378c0-6.112-3.981-10.823-10.15-10.823s-10.206,4.711-10.206,10.823
			c0,6.056,4.037,10.822,10.206,10.822S142.219,699.434,142.219,693.378z"/>
		<path d="M156.915,696.91v-22.262h9.813v21.926c0,4.43,2.692,7.626,7.907,7.626c5.159,0,7.851-3.196,7.851-7.626v-21.926h9.757
			v22.206c0,9.309-5.607,15.869-17.608,15.869C162.634,712.724,156.915,706.106,156.915,696.91z"/>
		<path d="M219.836,712.051l-6.281-12.561h-4.935v12.561h-9.645v-37.402h18.729c8.299,0,13.01,5.495,13.01,12.448
			c0,6.505-3.925,9.981-7.458,11.216l7.626,13.738H219.836z M220.901,687.041c0-2.58-2.075-3.981-4.654-3.981h-7.626v8.019h7.626
			C218.826,691.078,220.901,689.677,220.901,687.041z"/>
		<path d="M261.504,712.051l-15.813-21.646v21.646h-9.645v-37.402h9.925l15.141,20.579v-20.579h9.701v37.402H261.504z"/>
		<path d="M302.947,712.051l-1.85-5.383H286.35l-1.851,5.383h-10.936l14.075-37.402h12.169l14.075,37.402H302.947z M293.751,684.181
			l-4.767,14.075h9.478L293.751,684.181z"/>
		<path d="M342.036,712.051l-1.851-5.383h-14.747l-1.851,5.383h-10.936l14.075-37.402h12.169l14.075,37.402H342.036z
			 M332.84,684.181l-4.767,14.075h9.478L332.84,684.181z"/>
		<path d="M355.554,712.051v-37.402h9.646v28.991h15.028v8.411H355.554z"/>
	</g>
	<g>
		<rect x="83" y="723.518" width="53" height="7"/>
	</g>
	<g>
		<path d="M66.997-1183.963v47.988h-14.73v-18.668h-11.25v18.668h-14.73v-47.988h14.73v17.648h11.25v-17.648H66.997z"/>
		<path d="M98.461-1148.807l13.078,0.879c-0.773,3.516-2.748,6.51-5.924,8.982c-3.176,2.473-7.471,3.709-12.885,3.709
			c-6.024,0-10.828-1.74-14.414-5.221s-5.379-7.799-5.379-12.955c0-5.344,1.77-9.855,5.309-13.535
			c3.539-3.679,8.262-5.52,14.168-5.52c5.718,0,10.341,1.735,13.869,5.203c3.527,3.469,5.291,8.191,5.291,14.168
			c0,0.492-0.012,1.172-0.035,2.039H87.598c0.047,2.25,0.445,3.92,1.195,5.01c0.75,1.09,2.18,1.635,4.289,1.635
			C96.129-1144.412,97.922-1145.876,98.461-1148.807z M97.512-1158.088c-0.023-2.414-0.508-4.037-1.454-4.869
			c-0.946-0.832-2.12-1.248-3.521-1.248c-3.317,0-4.975,2.039-4.975,6.117H97.512z"/>
		<path d="M139.137-1171.729v9.105H132v13.184c0,1.805,0.339,2.877,1.02,3.217c0.68,0.34,1.383,0.51,2.109,0.51
			c1.125,0,2.461-0.199,4.008-0.598v9.984c-2.766,0.539-5.484,0.809-8.156,0.809c-4.312,0-7.483-0.926-9.51-2.777
			c-2.027-1.851-3.041-4.804-3.041-8.859l0.035-4.184v-11.285h-5.344v-9.105h5.344l0.211-11.637l13.324-0.211v11.848H139.137z"/>
	</g>
	<g>
		<path style="fill:#FFFFFF;" d="M196.867-1183.963v30.234c0,4.641-0.417,8.174-1.248,10.6c-0.832,2.426-2.456,4.348-4.869,5.766
			c-2.414,1.418-5.684,2.127-9.809,2.127c-3.633,0-6.914-0.387-9.844-1.16v-11.461c2.062,0.586,3.984,0.879,5.766,0.879
			c2.109,0,3.609-0.486,4.5-1.459c0.891-0.972,1.336-2.736,1.336-5.291v-30.234H196.867z"/>
		<path style="fill:#FFFFFF;" d="M221.722-1135.236c-5.93,0-10.641-1.846-14.133-5.537c-3.493-3.691-5.238-8.021-5.238-12.99
			c0-5.344,1.822-9.796,5.467-13.359c3.644-3.562,8.385-5.344,14.221-5.344c5.883,0,10.611,1.758,14.186,5.273
			c3.574,3.516,5.362,7.922,5.362,13.219c0,5.344-1.811,9.803-5.432,13.377C232.533-1137.023,227.722-1135.236,221.722-1135.236z
			 M221.933-1143.744c2.18,0,3.51-1.13,3.99-3.393c0.48-2.262,0.721-4.623,0.721-7.084c0-3.352-0.34-5.766-1.02-7.242
			c-0.68-1.477-1.898-2.215-3.656-2.215c-1.617,0-2.801,0.762-3.551,2.285c-0.75,1.524-1.125,4.031-1.125,7.523
			c0,4.102,0.387,6.815,1.16,8.139C219.226-1144.406,220.386-1143.744,221.933-1143.744z"/>
		<path style="fill:#FFFFFF;" d="M281.805-1171.729v35.754h-12.973v-5.871c-1.898,4.407-5.603,6.609-11.109,6.609
			c-3.398,0-6.029-0.943-7.893-2.83c-1.863-1.886-2.795-4.588-2.795-8.104v-25.559h14.027v22.5c0,1.406,0.193,2.396,0.58,2.971
			c0.387,0.575,1.143,0.861,2.268,0.861c1.195,0,2.167-0.427,2.918-1.283c0.75-0.855,1.125-2.057,1.125-3.604v-21.445H281.805z"/>
		<path style="fill:#FFFFFF;" d="M302.617-1135.975h-13.43v-35.754h11.672v7.383c1.336-5.367,4.441-8.051,9.316-8.051
			c0.492,0,1.172,0.047,2.039,0.141v12.48c-0.984-0.234-1.863-0.352-2.637-0.352c-4.641,0-6.961,2.59-6.961,7.77V-1135.975z"/>
		<path style="fill:#FFFFFF;" d="M351.555-1135.975h-14.027v-22.5c0-1.851-0.287-3.035-0.861-3.551
			c-0.575-0.515-1.296-0.773-2.162-0.773c-2.555,0-3.832,1.781-3.832,5.344v21.48h-14.027v-35.754h13.008v5.062
			c1.921-3.867,5.355-5.801,10.301-5.801c2.602,0,4.799,0.498,6.592,1.494c1.793,0.997,3.076,2.285,3.85,3.867s1.16,4.33,1.16,8.244
			V-1135.975z"/>
		<path style="fill:#FFFFFF;" d="M394.972-1135.975h-13.359c-0.328-1.523-0.492-3.187-0.492-4.992
			c-2.531,3.82-6.363,5.73-11.496,5.73c-4.218,0-7.377-1.078-9.474-3.234c-2.098-2.156-3.146-4.628-3.146-7.418
			c0-3.773,1.717-6.826,5.15-9.158c3.433-2.332,9.521-3.732,18.263-4.201v-0.809c0-1.57-0.357-2.613-1.072-3.129
			c-0.715-0.515-1.764-0.773-3.146-0.773c-3.234,0-5.039,1.301-5.414,3.902l-12.796-1.195c1.828-7.476,8.051-11.215,18.667-11.215
			c2.883,0,5.531,0.287,7.945,0.861c2.414,0.575,4.324,1.471,5.73,2.689c1.406,1.219,2.35,2.508,2.83,3.867
			c0.48,1.359,0.721,3.973,0.721,7.84v14.273C393.882-1140.216,394.245-1137.896,394.972-1135.975z M380.417-1152.709
			c-5.977,0.633-8.965,2.543-8.965,5.73c0,2.157,1.184,3.234,3.551,3.234c1.5,0,2.777-0.445,3.832-1.336
			c1.055-0.891,1.582-2.859,1.582-5.906V-1152.709z"/>
		<path style="fill:#FFFFFF;" d="M437.194-1135.975h-13.359c-0.328-1.523-0.492-3.187-0.492-4.992
			c-2.531,3.82-6.363,5.73-11.496,5.73c-4.219,0-7.377-1.078-9.475-3.234c-2.098-2.156-3.146-4.628-3.146-7.418
			c0-3.773,1.717-6.826,5.15-9.158c3.434-2.332,9.521-3.732,18.264-4.201v-0.809c0-1.57-0.357-2.613-1.072-3.129
			c-0.715-0.515-1.764-0.773-3.146-0.773c-3.234,0-5.039,1.301-5.414,3.902l-12.797-1.195c1.828-7.476,8.051-11.215,18.668-11.215
			c2.883,0,5.531,0.287,7.945,0.861c2.414,0.575,4.324,1.471,5.73,2.689c1.406,1.219,2.35,2.508,2.83,3.867
			c0.48,1.359,0.721,3.973,0.721,7.84v14.273C436.104-1140.216,436.468-1137.896,437.194-1135.975z M422.64-1152.709
			c-5.977,0.633-8.965,2.543-8.965,5.73c0,2.157,1.184,3.234,3.551,3.234c1.5,0,2.777-0.445,3.832-1.336
			c1.055-0.891,1.582-2.859,1.582-5.906V-1152.709z"/>
		<path style="fill:#FFFFFF;" d="M457.198-1183.963v47.988h-13.816v-47.988H457.198z"/>
	</g>
	<rect x="62" y="-1635.518" style="fill:none;stroke:#000000;stroke-miterlimit:10;" width="273" height="65"/>
	<g>
		
			<image style="overflow:visible;" width="722" height="344" id="vLayjc_1_" xlink:href="A72E3AF5FB4CFC86.png"  transform="matrix(0.5 0 0 0.5 493.4834 -1666.3867)">
		</image>
	</g>
	
		<text transform="matrix(1 0 0 1 139.5996 -1580.3867)" style="fill:#FF0000; font-family:'Avenir-Heavy'; font-size:50; letter-spacing:-1;">Journaal</text>
	<g>
		
			<image style="overflow:visible;" width="812" height="318" id="_x36_wrLY1_1_" xlink:href="A72E3AF5FB4CFC8A.png"  transform="matrix(0.5 0 0 0.5 537 -2003.377)">
		</image>
	</g>
	<text transform="matrix(1 0 0 1 83 -1960.5176)" style="font-family:'Impact'; font-size:50; letter-spacing:-1;">JOURNAAL</text>
	<text transform="matrix(1 0 0 1 125 -2020.5176)" style="font-family:'Impact'; font-size:50; letter-spacing:-1;">BRT</text>
	<g>
		
			<image style="overflow:visible;" width="1274" height="518" id="owgFPy_1_" xlink:href="A72E3AF5FB4CFC8D.png"  transform="matrix(0.5 0 0 0.5 576.5 -2550.0176)">
		</image>
	</g>
	<g>
		
			<image style="overflow:visible;" width="1106" height="346" id="_x38_EDOti_1_" xlink:href="A72E3AF5FB4CFC8E.png"  transform="matrix(0.5 0 0 0.5 540.5 -2911.5176)">
		</image>
	</g>
	
		<text transform="matrix(1 0 0 1 22.1025 -2738.5176)" style="font-family:'EurostileExt-Bla'; font-size:101.4441; letter-spacing:-3;">nieuws</text>
	<g>
		
			<image style="overflow:visible;" width="282" height="988" id="XCu5Cb_1_" xlink:href="A72E3AF5FB4CFC8C.png"  transform="matrix(-2.185569e-08 0.5 -0.5 -2.185569e-08 1011.9834 -1463.0254)">
		</image>
	</g>
	
		<text transform="matrix(1 0 0 1 139.5996 -4325.8384)" style="font-family:'EurostileCon-Reg'; font-size:77.8967; letter-spacing:-2;">TELEVISIE</text>
	
		<text transform="matrix(1 0 0 1 157.5547 -4249.6392)" style="font-family:'EurostileCon-Reg'; font-size:77.8967; letter-spacing:-2;">NIEUWS</text>
	
		<text transform="matrix(1 0 0 1 148.5771 -3872.8467)" style="font-family:'EurostileCon-Hea'; font-size:77.8967; letter-spacing:-2;">TELEVISIE</text>
	
		<text transform="matrix(1 0 0 1 148.5771 -3796.6475)" style="font-family:'EurostileCon-Hea'; font-size:77.8967; letter-spacing:-2;">JOURNAAL</text>
	
		<text transform="matrix(1 0 0 1 724.7979 -3879.8589)" style="font-family:'EurostileCon-Hea'; font-size:77.8967; letter-spacing:-2;">TELEVISIE</text>
	
		<text transform="matrix(1 0 0 1 724.7979 -3803.6597)" style="font-family:'EurostileCon-Hea'; font-size:77.8967; letter-spacing:-2;">JOURNAAL</text>
	
		<text transform="matrix(1 0 0 1 1237.5449 -3830.271)" style="font-family:'AGaramondPro-Regular'; font-size:77.8967; letter-spacing:-2;">TV-NIEUWS</text>
	<g>
		<g style="enable-background:new    ;">
			<defs>
				<polygon id="SVGID_1_" style="enable-background:new    ;" points="1805.444,-3693.851 1853.151,-3783.638 2216.497,-3783.638 
					2264.204,-3693.851 				"/>
			</defs>
			<clipPath id="SVGID_2_">
				<use xlink:href="#SVGID_1_"  style="overflow:visible;"/>
			</clipPath>
			<g style="clip-path:url(#SVGID_2_);">
				<polyline points="1916.42,-3782.911 1897.128,-3782.911 1872.938,-3718.343 1872.508,-3718.052 1883.104,-3782.911 
					1852.768,-3782.911 1806.064,-3695.02 1830.126,-3695.02 1862.965,-3766.761 1863.242,-3766.761 1847.905,-3695.02 
					1886.045,-3695.02 1916.42,-3782.911 				"/>
				<polyline points="1947.036,-3782.911 1926.267,-3782.911 1898.42,-3695.02 1924.517,-3695.02 1947.036,-3782.911 				"/>
				<polyline points="1996.93,-3782.911 1956.87,-3782.911 1936.872,-3695.02 1989.07,-3695.02 1991.086,-3714 1966.139,-3714 
					1970.114,-3737.816 1990.268,-3737.816 1991.961,-3752.548 1972.57,-3752.548 1975.458,-3769.843 1995.483,-3769.843 
					1996.93,-3782.911 				"/>
				<path d="M2058.431-3782.911h-20.771l0.527,63.68c0.009,1.072-0.112,2-0.374,2.791c-0.263,0.792-0.662,1.444-1.208,1.961
					c-0.545,0.518-1.233,0.9-2.069,1.153c-0.837,0.253-1.822,0.377-2.958,0.377c-1.177,0-2.191-0.124-3.05-0.377
					c-0.854-0.252-1.552-0.635-2.099-1.153c-0.547-0.517-0.941-1.169-1.193-1.961c-0.251-0.791-0.36-1.719-0.334-2.791l1.555-63.68
					h-20.755l-5.362,63.085c-0.403,4.761-0.286,8.77,0.512,12.107c0.811,3.39,2.32,6.062,4.681,8.12
					c2.382,2.076,5.617,3.514,9.854,4.432c4.254,0.922,9.493,1.317,15.863,1.317c3.485,0,6.566-0.104,9.299-0.326
					c2.73-0.221,5.107-0.559,7.192-1.024c2.081-0.466,3.866-1.058,5.411-1.79c1.542-0.729,2.847-1.596,3.967-2.608
					c1.159-1.014,2.139-2.191,2.942-3.544c0.799-1.344,1.424-2.857,1.884-4.551c0.452-1.68,0.744-3.532,0.881-5.564
					c0.133-2.014,0.115-4.201-0.047-6.567L2058.431-3782.911"/>
				<polyline points="2160.383,-3782.911 2140.282,-3782.911 2155.674,-3710.652 2155.334,-3710.652 2126.119,-3782.911 
					2098.072,-3782.911 2101.275,-3710.652 2101.128,-3710.652 2083.908,-3782.911 2063.824,-3782.911 2083.969,-3695.02 
					2120.912,-3695.02 2114.761,-3770.521 2115.035,-3770.521 2142.938,-3695.02 2179.885,-3695.02 2160.383,-3782.911 				"/>
				<path d="M2188.913-3783.638c-5.044,0-9.028,0.209-12.073,0.751c-3.057,0.543-5.18,1.424-6.498,2.771
					c-1.327,1.358-1.844,3.196-1.664,5.662c0.182,2.5,1.082,5.663,2.593,9.656l1.827,4.833c0.863,2.279,1.723,4.291,2.617,6.071
					c0.898,1.797,1.829,3.353,2.817,4.708c0.997,1.366,2.055,2.524,3.202,3.522c1.156,1.001,2.402,1.836,3.772,2.552
					c1.287,0.688,2.443,1.255,3.673,1.76c1.234,0.507,2.541,0.95,4.123,1.389c1.586,0.441,3.453,0.878,5.803,1.373
					c2.355,0.497,5.201,1.05,8.746,1.723c2.352,0.473,4.237,0.895,5.781,1.348c1.546,0.455,2.752,0.939,3.74,1.537
					c0.994,0.6,1.771,1.312,2.465,2.223c0.695,0.914,1.311,2.029,1.969,3.435l4.912,10.427c0.508,1.079,0.812,1.986,0.9,2.738
					c0.09,0.755-0.045,1.354-0.414,1.817c-0.373,0.465-0.981,0.791-1.845,1.003c-0.864,0.212-1.981,0.305-3.368,0.305
					c-1.625,0-2.945-0.085-4.066-0.345c-1.122-0.26-2.041-0.693-2.873-1.385c-0.828-0.69-1.564-1.637-2.313-2.922
					c-0.749-1.277-1.507-2.885-2.381-4.898l-2.986-6.871h-22.356l2.988,7.9c1.936,5.117,3.926,9.356,6.234,12.835
					c2.35,3.539,5.005,6.263,8.248,8.32c3.271,2.081,7.119,3.467,11.816,4.335c4.717,0.873,10.271,1.215,16.941,1.215
					c6.543,0,11.668-0.425,15.461-1.48c3.773-1.05,6.209-2.715,7.396-5.181c1.175-2.438,1.122-5.641-0.036-9.762
					c-1.14-4.041-3.332-8.933-6.441-14.786c-2.816-5.3-5.15-9.363-7.506-12.575c-2.321-3.16-4.682-5.521-7.555-7.413
					c-2.848-1.874-6.21-3.296-10.539-4.571c-4.303-1.267-9.562-2.39-16.211-3.66c-1.999-0.371-3.587-0.712-4.881-1.093
					c-1.29-0.379-2.285-0.798-3.104-1.327c-0.811-0.527-1.445-1.162-2.01-1.973c-0.562-0.808-1.053-1.789-1.586-3.009l-2.256-5.161
					c-0.491-1.125-0.814-2.029-0.941-2.75c-0.125-0.721-0.051-1.262,0.253-1.665c0.306-0.402,0.837-0.666,1.636-0.829
					c0.797-0.163,1.859-0.227,3.221-0.227c1.289,0,2.297,0.036,3.135,0.192c0.836,0.157,1.504,0.436,2.107,0.923
					c0.604,0.487,1.146,1.186,1.736,2.182c0.593,1.003,1.237,2.314,2.045,4.026l1.778,3.776h19.838l-4.884-9.29
					c-1.43-2.727-3.023-4.971-4.908-6.804c-1.863-1.814-4.021-3.232-6.599-4.319c-2.56-1.079-5.546-1.832-9.083-2.315
					C2197.781-3783.422,2193.691-3783.638,2188.913-3783.638"/>
			</g>
		</g>
	</g>
	<g>
		
			<image style="overflow:visible;" width="1136" height="718" id="e2omJb_1_" xlink:href="A72E3AF5FB4CFC8B.png"  transform="matrix(0.5 0 0 0.5 1052.9717 -3505.1011)">
		</image>
	</g>
	<circle cx="235.355" cy="-3334.121" r="81.093"/>
	<g>
		<path d="M438-3511.482H67v172h29.873c22.887-53,77.791-89.418,141.895-89.418s119.007,36.418,141.894,89.418H438V-3511.482z"/>
	</g>
	<g>
		<path d="M36-3146.482h372v-172h-29.304c-22.887,53-77.791,89.418-141.894,89.418c-64.104,0-119.007-36.418-141.895-89.418H36
			V-3146.482z"/>
	</g>
	<rect x="-1" y="-3510.482" width="41" height="171"/>
	<rect x="438" y="-3317.482" width="41" height="171"/>
	<path style="fill:#FFFFFF;" d="M181-3382.482v103h46v-15.851c0,0,10.199,12.574,14.81,15.067
		c3.447,1.863,15.511,2.948,15.511,2.948s13.49-1.249,17.745-2.621c2.72-0.876,10.184-5.24,10.184-5.24l-0.641-44.873
		c0,0-14.403,6.223-23.248,4.912c-4.299-0.637-10.246-8.252-12.77-11.791c-3.076-4.314-8.515-19.407-8.515-19.407
		s-6.14-11.791-11.136-18.354c-4.881-6.412-16.048-7.791-16.048-7.791H181z"/>
	<path style="fill:#FFFFFF;stroke:#000000;" d="M284.296-3379.93c0,0-29.78,0.062-32.128,25.881
		c-2.499,27.487,30.343,28.558,32.1,11.958L284.296-3379.93z"/>
	<circle style="stroke:#FFFFFF;" cx="272.49" cy="-3346.156" r="11.156"/>
	<text transform="matrix(1 0 0 1 99 -2435.5176)" style="font-family:'Satellite'; font-size:77.8967; letter-spacing:-2;">BRT</text>
	<text transform="matrix(1 0 0 1 67 -2363.5176)" style="font-family:'Satellite'; font-size:77.8967; letter-spacing:-2;">JOURNAAL</text>
	<g>
		
			<image style="overflow:visible;" width="2160" height="1210" id="i2ZrCp_1_" xlink:href="A72E3AF5FB4CFC85.png"  transform="matrix(0.5 0 0 0.5 -1124.981 -2723.0176)">
		</image>
	</g>
</g>
</svg>
