<svg xmlns="http://www.w3.org/2000/svg" xmlns:xlink="http://www.w3.org/1999/xlink" width="480" height="360" viewBox="0 0 480 360"><g><path d="M163-1698.482h306v65h-306zM163-1632.482h-164v-66h164v66zm-163-1h162v-64h-162v64zM95.675-1220.228h5.823v20.6c2.07-1.863 4.356-2.795 6.858-2.795 2.847 0 5.124.923 6.832 2.769 1.449 1.604 2.174 4.166 2.174 7.686v15.45h-5.823v-14.906c0-2.019-.358-3.48-1.074-4.387-.716-.905-1.868-1.358-3.455-1.358-2.036 0-3.468.63-4.296 1.889-.811 1.277-1.216 3.469-1.216 6.574v12.188h-5.823v-43.71zM146.102-1187.75h-18.063c.155 2.07.828 3.719 2.019 4.943 1.19 1.207 2.717 1.811 4.581 1.811 1.449 0 2.648-.344 3.597-1.035.932-.689 1.993-1.967 3.183-3.83l4.917 2.744c-.759 1.293-1.562 2.402-2.407 3.325-.846.923-1.751 1.682-2.717 2.277-.966.595-2.01 1.03-3.131 1.307-1.122.276-2.338.414-3.649.414-3.761 0-6.78-1.208-9.058-3.623-2.277-2.433-3.416-5.659-3.416-9.679 0-3.985 1.104-7.211 3.312-9.679 2.226-2.433 5.176-3.649 8.851-3.649 3.709 0 6.642 1.182 8.799 3.545 2.139 2.347 3.209 5.599 3.209 9.757l-.027 1.372zm-5.978-4.762c-.811-3.105-2.769-4.658-5.875-4.658-.708 0-1.372.108-1.993.323-.621.216-1.187.527-1.695.932-.509.405-.944.894-1.307 1.462-.362.57-.639 1.217-.828 1.941h11.698zM157.348-1196.29v19.771h-5.823v-19.771h-2.484v-5.435h2.484v-9.239h5.823v9.239h4.529v5.435h-4.529zM171.85-1210.808c0-1.397.496-2.588 1.488-3.571s2.187-1.475 3.584-1.475c1.449 0 2.661.483 3.636 1.449.974.966 1.462 2.166 1.462 3.597 0 1.432-.496 2.648-1.488 3.649s-2.195 1.501-3.61 1.501c-1.38 0-2.571-.509-3.571-1.527-1.001-1.018-1.501-2.226-1.501-3.623zm.466 45.831v-37.68h9.239v37.68h-9.239zM214.72-1189.51c0 1.881-.367 3.666-1.1 5.357-.734 1.69-1.799 3.209-3.196 4.555-1.415 1.346-2.998 2.363-4.749 3.053-1.751.69-3.61 1.035-5.577 1.035-2.001 0-3.878-.345-5.628-1.035-1.751-.689-3.317-1.707-4.697-3.053-1.38-1.312-2.433-2.816-3.157-4.517-.725-1.698-1.087-3.497-1.087-5.396 0-1.915.358-3.718 1.074-5.408.715-1.691 1.772-3.209 3.17-4.555 1.363-1.328 2.92-2.329 4.671-3.002s3.636-1.009 5.655-1.009 3.899.336 5.642 1.009c1.742.673 3.304 1.674 4.684 3.002 1.415 1.363 2.484 2.89 3.209 4.581.724 1.692 1.086 3.486 1.086 5.383zm-9.161 0c0-1.949-.492-3.484-1.475-4.606-.983-1.121-2.312-1.682-3.985-1.682-1.691 0-3.024.561-3.999 1.682-.975 1.122-1.462 2.657-1.462 4.606s.483 3.48 1.449 4.594c.966 1.112 2.303 1.669 4.011 1.669 1.69 0 3.023-.557 3.999-1.669.974-1.113 1.462-2.645 1.462-4.594zM245.246-1202.656v13.354c0 2.95-.238 5.137-.712 6.561-.476 1.423-1.272 2.688-2.394 3.791-1.157 1.156-2.597 2.019-4.322 2.588-1.726.569-3.752.854-6.082.854-2.312 0-4.326-.284-6.042-.854-1.717-.569-3.179-1.432-4.387-2.588-1.122-1.069-1.915-2.324-2.381-3.766-.466-1.439-.699-3.636-.699-6.586v-13.354h8.799v13.949c0 2.191.362 3.773 1.087 4.748s1.897 1.463 3.52 1.463c1.639 0 2.816-.479 3.533-1.437.715-.958 1.074-2.55 1.074-4.774v-13.949h9.006zM250.332-1176.519v-26.138h8.695v6.159c.897-2.243 2.123-3.925 3.676-5.046 1.553-1.121 3.433-1.682 5.641-1.682.363 0 .729.013 1.101.039.37.025.745.064 1.126.116l-.881 8.385c-.552-.189-1.096-.328-1.63-.414-.535-.086-1.053-.129-1.553-.129-2.243 0-3.973.686-5.188 2.057-1.217 1.372-1.824 3.317-1.824 5.836v10.817h-9.163zM272.37-1176.519v-26.138h8.437v5.305c1.225-2.122 2.64-3.675 4.244-4.658s3.527-1.475 5.771-1.475c1.689 0 3.195.271 4.516.815 1.32.543 2.394 1.324 3.222 2.342.69.88 1.182 1.95 1.476 3.209.293 1.26.439 3.14.439 5.642v14.958h-9.238v-14.001c0-2.087-.342-3.605-1.023-4.555-.682-.948-1.771-1.423-3.273-1.423-1.914 0-3.312.708-4.191 2.122-.881 1.415-1.32 3.709-1.32 6.884v10.973h-9.06zM333.406-1202.656v26.138h-8.462v-4.244c-1.208 1.812-2.566 3.14-4.075 3.985-1.511.846-3.283 1.268-5.318 1.268-3.486 0-6.271-1.271-8.359-3.816s-3.131-5.957-3.131-10.235c0-4.261 1.09-7.647 3.273-10.157 2.182-2.511 5.119-3.766 8.812-3.766 1.967 0 3.661.418 5.085 1.255s2.645 2.127 3.662 3.869v-4.296h8.513zm-8.099 13.043c0-2.035-.543-3.648-1.631-4.84-1.086-1.19-2.57-1.785-4.451-1.785s-3.359.591-4.438 1.772c-1.078 1.183-1.617 2.8-1.617 4.853 0 2.036.543 3.641 1.63 4.813s2.562 1.76 4.425 1.76c1.881 0 3.365-.587 4.451-1.76 1.088-1.173 1.631-2.777 1.631-4.813zM366.805-1202.656v26.138h-8.462v-4.244c-1.208 1.812-2.566 3.14-4.075 3.985-1.511.846-3.283 1.268-5.318 1.268-3.486 0-6.271-1.271-8.359-3.816s-3.131-5.957-3.131-10.235c0-4.261 1.09-7.647 3.273-10.157 2.182-2.511 5.119-3.766 8.812-3.766 1.967 0 3.661.418 5.085 1.255s2.645 2.127 3.662 3.869v-4.296h8.513zm-8.1 13.043c0-2.035-.543-3.648-1.631-4.84-1.086-1.19-2.57-1.785-4.451-1.785s-3.359.591-4.438 1.772c-1.078 1.183-1.617 2.8-1.617 4.853 0 2.036.543 3.641 1.63 4.813s2.562 1.76 4.425 1.76c1.881 0 3.365-.587 4.451-1.76 1.088-1.173 1.631-2.777 1.631-4.813zM372.436-1176.519v-40.112h9.238v40.112h-9.238zM87.651-1207.936v6.547l-22.101 9.083 22.101 9.006v6.573l-30.485-12.577v-6.029l30.485-12.603zM395.909-1176.329v-6.548l22.101-9.083-22.101-9.006v-6.573l30.485 12.577v6.03l-30.485 12.603zM81-849.482h120v72h-120zM81-767.482h307v72h-307z"/><g fill="#fff"><path d="M112.43-786.592v-22.436h-8.884v22.436h-10.691v-53.604h10.691v21.532h8.884v-21.532h10.691v53.604h-10.691zM131.397-786.592v-53.604h24.694v9.637h-14.003v12.121h12.046v9.637h-12.046v12.573h14.003v9.637h-24.694zM179.729-830.56v43.968h-10.691v-43.968h-9.034v-9.637h28.759v9.637h-9.034z"/></g><g fill="#fff"><path d="M112.731-707.046c-2.861 3.012-6.701 4.668-12.272 4.668-4.818 0-8.884-1.731-11.745-4.593l7.378-7.228c.753 1.054 2.56 2.184 4.367 2.184 3.237 0 5.496-2.259 5.496-6.399v-38.171h10.691v38.171c0 4.517-1.28 8.582-3.915 11.368zM150.446-707.724c-2.484 2.937-5.797 5.346-11.82 5.346s-9.185-2.409-11.669-5.346c-4.291-5.119-3.99-14.831-3.99-22.059s-.301-16.939 3.99-22.06c2.484-2.936 5.646-5.346 11.669-5.346s9.336 2.41 11.82 5.346c4.292 5.12 3.99 14.832 3.99 22.06s.301 16.94-3.99 22.059zm-8.131-37.718c-.603-1.204-1.732-2.108-3.689-2.108s-2.936.904-3.538 2.108c-1.28 2.484-1.431 9.186-1.431 15.66s.15 13.175 1.431 15.659c.602 1.205 1.581 2.108 3.538 2.108s3.087-.903 3.689-2.108c1.28-2.484 1.43-9.185 1.43-15.659s-.15-13.176-1.43-15.66zM187.031-706.82c-2.861 2.937-6.625 4.442-11.143 4.442s-8.282-1.506-11.143-4.442c-2.56-2.635-3.99-6.249-3.99-10.54v-39.225h10.691v39.752c0 3.463 2.033 4.818 4.442 4.818s4.442-1.355 4.442-4.818v-39.752h10.691v39.225c0 4.291-1.431 7.905-3.99 10.54zM219.702-702.98l-6.55-20.854h-3.539v20.854h-10.691v-53.604h15.283c11.669 0 14.907 6.099 14.907 16.338 0 5.722-.903 10.841-6.098 14.078l7.83 23.188h-11.142zm-5.572-43.968h-4.517v13.477h4.517c4.065 0 4.292-3.689 4.292-6.775 0-3.088-.226-6.702-4.292-6.702zM258.922-702.98l-11.368-26.2v26.2h-10.691v-53.604h9.335l11.143 26.2v-26.2h10.69v53.604h-9.109zM299.572-702.98l-1.732-8.356h-12.347l-1.731 8.356h-11.143l13.777-53.604h10.54l13.778 53.604h-11.142zm-7.905-37.87l-4.141 19.876h8.281l-4.14-19.876zM339.168-702.98l-1.731-8.356h-12.347l-1.732 8.356h-11.142l13.777-53.604h10.54l13.777 53.604h-11.142zm-7.905-37.87l-4.141 19.876h8.281l-4.14-19.876zM354.898-702.98v-53.604h10.69v43.968h14.004v9.637h-24.694z"/></g><path d="M113-339.482h261v15h-261zM133.43-353.592v-22.436h-8.884v22.436h-10.691v-53.604h10.691v21.532h8.884v-21.532h10.691v53.604h-10.691zM152.397-353.592v-53.604h24.694v9.637h-14.003v12.121h12.046v9.637h-12.046v12.573h14.003v9.637h-24.694zM200.729-397.56v43.968h-10.691v-43.968h-9.034v-9.637h28.759v9.637h-9.034zM120.017-259.046c-2.861 3.012-6.701 4.668-12.272 4.668-4.818 0-8.884-1.731-11.745-4.593l7.378-7.228c.753 1.054 2.56 2.184 4.367 2.184 3.237 0 5.496-2.259 5.496-6.399v-38.171h10.691v38.171c0 4.517-1.281 8.582-3.915 11.368zM157.731-259.724c-2.484 2.937-5.797 5.346-11.82 5.346s-9.185-2.409-11.669-5.346c-4.291-5.119-3.99-14.831-3.99-22.059s-.301-16.939 3.99-22.06c2.484-2.936 5.646-5.346 11.669-5.346s9.336 2.41 11.82 5.346c4.292 5.12 3.99 14.832 3.99 22.06s.302 16.94-3.99 22.059zm-8.13-37.718c-.603-1.204-1.732-2.108-3.689-2.108s-2.936.904-3.538 2.108c-1.28 2.484-1.431 9.186-1.431 15.66s.15 13.175 1.431 15.659c.602 1.205 1.581 2.108 3.538 2.108s3.087-.903 3.689-2.108c1.28-2.484 1.43-9.185 1.43-15.659s-.151-13.176-1.43-15.66zM194.316-258.82c-2.861 2.937-6.625 4.442-11.143 4.442s-8.282-1.506-11.143-4.442c-2.56-2.635-3.99-6.249-3.99-10.54v-39.225h10.691v39.752c0 3.463 2.033 4.818 4.442 4.818s4.442-1.355 4.442-4.818v-39.752h10.691v39.225c.001 4.291-1.43 7.905-3.99 10.54zM226.987-254.98l-6.55-20.854h-3.539v20.854h-10.691v-53.604h15.283c11.669 0 14.907 6.099 14.907 16.338 0 5.722-.903 10.841-6.098 14.078l7.83 23.188h-11.142zm-5.571-43.968h-4.517v13.477h4.517c4.065 0 4.292-3.689 4.292-6.775 0-3.088-.227-6.702-4.292-6.702zM266.207-254.98l-11.368-26.2v26.2h-10.69v-53.604h9.336l11.142 26.2v-26.2h10.691v53.604h-9.111zM306.857-254.98l-1.732-8.356h-12.347l-1.731 8.356h-11.143l13.777-53.604h10.54l13.779 53.604h-11.143zm-7.905-37.87l-4.141 19.876h8.281l-4.14-19.876zM346.453-254.98l-1.731-8.356h-12.347l-1.732 8.356h-11.142l13.777-53.604h10.54l13.777 53.604h-11.142zm-7.905-37.87l-4.141 19.876h8.281l-4.14-19.876zM362.184-254.98v-53.604h10.69v43.968h14.004v9.637h-24.694zM111.542 164.406v-15.028h-15.532v15.028h-9.645v-37.402h9.645v13.963h15.533v-13.963h9.646v37.402h-9.647zM127.921 164.406v-37.402h27.421v8.411h-17.776v5.832h17.383v8.411h-17.383v6.337h17.776v8.411h-27.421zM169.308 164.406v-28.991h-10.486v-8.411h30.561v8.411h-10.43v28.991h-9.645zM83.168 205.359l4.037-7.347c1.346 1.122 3.141 2.188 5.383 2.188 3.028 0 4.991-1.963 4.991-5.103v-24.449h9.645v24.561c0 9.253-5.607 13.515-13.794 13.515-3.757 0-7.458-.898-10.262-3.365zM112.05 189.378c0-11.384 8.58-19.347 20.019-19.347s19.963 7.963 19.963 19.347c0 11.383-8.524 19.346-19.963 19.346s-20.019-7.963-20.019-19.346zm30.169 0c0-6.112-3.981-10.823-10.15-10.823s-10.206 4.711-10.206 10.823c0 6.056 4.037 10.822 10.206 10.822s10.15-4.766 10.15-10.822zM156.915 192.91v-22.262h9.813v21.926c0 4.43 2.692 7.626 7.907 7.626 5.159 0 7.851-3.196 7.851-7.626v-21.926h9.757v22.206c0 9.309-5.607 15.869-17.608 15.869-12.001.001-17.72-6.617-17.72-15.813zM219.836 208.051l-6.281-12.561h-4.935v12.561h-9.645v-37.402h18.729c8.299 0 13.01 5.495 13.01 12.448 0 6.505-3.925 9.981-7.458 11.216l7.626 13.738h-11.046zm1.065-25.01c0-2.58-2.075-3.981-4.654-3.981h-7.626v8.019h7.626c2.579-.001 4.654-1.402 4.654-4.038zM261.504 208.051l-15.813-21.646v21.646h-9.645v-37.402h9.925l15.141 20.579v-20.579h9.701v37.402h-9.309zM302.947 208.051l-1.85-5.383h-14.747l-1.851 5.383h-10.936l14.075-37.402h12.169l14.075 37.402h-10.935zm-9.196-27.87l-4.767 14.075h9.478l-4.711-14.075zM342.036 208.051l-1.851-5.383h-14.747l-1.851 5.383h-10.936l14.075-37.402h12.169l14.075 37.402h-10.934zm-9.196-27.87l-4.767 14.075h9.478l-4.711-14.075zM355.554 208.051v-37.402h9.646v28.991h15.028v8.411h-24.674zM83 219.518h53v7h-53zM66.997-1687.963v47.988h-14.73v-18.668h-11.25v18.668h-14.73v-47.988h14.73v17.648h11.25v-17.648h14.73zM98.461-1652.807l13.078.879c-.773 3.516-2.748 6.51-5.924 8.982-3.176 2.473-7.471 3.709-12.885 3.709-6.024 0-10.828-1.74-14.414-5.221s-5.379-7.799-5.379-12.955c0-5.344 1.77-9.855 5.309-13.535 3.539-3.679 8.262-5.52 14.168-5.52 5.718 0 10.341 1.735 13.869 5.203 3.527 3.469 5.291 8.191 5.291 14.168 0 .492-.012 1.172-.035 2.039h-23.941c.047 2.25.445 3.92 1.195 5.01.75 1.09 2.18 1.635 4.289 1.635 3.047.001 4.84-1.463 5.379-4.394zm-.949-9.281c-.023-2.414-.508-4.037-1.454-4.869-.946-.832-2.12-1.248-3.521-1.248-3.317 0-4.975 2.039-4.975 6.117h9.95zM139.137-1675.729v9.105h-7.137v13.184c0 1.805.339 2.877 1.02 3.217.68.34 1.383.51 2.109.51 1.125 0 2.461-.199 4.008-.598v9.984c-2.766.539-5.484.809-8.156.809-4.312 0-7.483-.926-9.51-2.777s-3.041-4.804-3.041-8.859l.035-4.184v-11.285h-5.344v-9.105h5.344l.211-11.637 13.324-.211v11.848h7.137z"/><g fill="#fff"><path d="M196.867-1687.963v30.234c0 4.641-.417 8.174-1.248 10.6-.832 2.426-2.456 4.348-4.869 5.766-2.414 1.418-5.684 2.127-9.809 2.127-3.633 0-6.914-.387-9.844-1.16v-11.461c2.062.586 3.984.879 5.766.879 2.109 0 3.609-.486 4.5-1.459.891-.972 1.336-2.736 1.336-5.291v-30.234h14.168zM221.722-1639.236c-5.93 0-10.641-1.846-14.133-5.537-3.493-3.691-5.238-8.021-5.238-12.99 0-5.344 1.822-9.796 5.467-13.359 3.644-3.562 8.385-5.344 14.221-5.344 5.883 0 10.611 1.758 14.186 5.273 3.574 3.516 5.362 7.922 5.362 13.219 0 5.344-1.811 9.803-5.432 13.377-3.622 3.574-8.433 5.361-14.433 5.361zm.211-8.508c2.18 0 3.51-1.13 3.99-3.393.48-2.262.721-4.623.721-7.084 0-3.352-.34-5.766-1.02-7.242-.68-1.477-1.898-2.215-3.656-2.215-1.617 0-2.801.762-3.551 2.285-.75 1.524-1.125 4.031-1.125 7.523 0 4.102.387 6.815 1.16 8.139.774 1.325 1.934 1.987 3.481 1.987zM281.805-1675.729v35.754h-12.973v-5.871c-1.898 4.407-5.603 6.609-11.109 6.609-3.398 0-6.029-.943-7.893-2.83-1.863-1.886-2.795-4.588-2.795-8.104v-25.559h14.027v22.5c0 1.406.193 2.396.58 2.971.387.575 1.143.861 2.268.861 1.195 0 2.167-.427 2.918-1.283.75-.855 1.125-2.057 1.125-3.604v-21.445h13.852zM302.617-1639.975h-13.43v-35.754h11.672v7.383c1.336-5.367 4.441-8.051 9.316-8.051.492 0 1.172.047 2.039.141v12.48c-.984-.234-1.863-.352-2.637-.352-4.641 0-6.961 2.59-6.961 7.77v16.383zM351.555-1639.975h-14.027v-22.5c0-1.851-.287-3.035-.861-3.551-.575-.515-1.296-.773-2.162-.773-2.555 0-3.832 1.781-3.832 5.344v21.48h-14.027v-35.754h13.008v5.062c1.921-3.867 5.355-5.801 10.301-5.801 2.602 0 4.799.498 6.592 1.494 1.793.997 3.076 2.285 3.85 3.867s1.16 4.33 1.16 8.244v22.888zM394.972-1639.975h-13.359c-.328-1.523-.492-3.187-.492-4.992-2.531 3.82-6.363 5.73-11.496 5.73-4.218 0-7.377-1.078-9.474-3.234-2.098-2.156-3.146-4.628-3.146-7.418 0-3.773 1.717-6.826 5.15-9.158 3.433-2.332 9.521-3.732 18.263-4.201v-.809c0-1.57-.357-2.613-1.072-3.129-.715-.515-1.764-.773-3.146-.773-3.234 0-5.039 1.301-5.414 3.902l-12.796-1.195c1.828-7.476 8.051-11.215 18.667-11.215 2.883 0 5.531.287 7.945.861 2.414.575 4.324 1.471 5.73 2.689 1.406 1.219 2.35 2.508 2.83 3.867s.721 3.973.721 7.84v14.273c-.001 2.721.362 5.041 1.089 6.962zm-14.555-16.734c-5.977.633-8.965 2.543-8.965 5.73 0 2.157 1.184 3.234 3.551 3.234 1.5 0 2.777-.445 3.832-1.336 1.055-.891 1.582-2.859 1.582-5.906v-1.722zM437.194-1639.975h-13.359c-.328-1.523-.492-3.187-.492-4.992-2.531 3.82-6.363 5.73-11.496 5.73-4.219 0-7.377-1.078-9.475-3.234-2.098-2.156-3.146-4.628-3.146-7.418 0-3.773 1.717-6.826 5.15-9.158 3.434-2.332 9.521-3.732 18.264-4.201v-.809c0-1.57-.357-2.613-1.072-3.129-.715-.515-1.764-.773-3.146-.773-3.234 0-5.039 1.301-5.414 3.902l-12.797-1.195c1.828-7.476 8.051-11.215 18.668-11.215 2.883 0 5.531.287 7.945.861 2.414.575 4.324 1.471 5.73 2.689 1.406 1.219 2.35 2.508 2.83 3.867s.721 3.973.721 7.84v14.273c-.001 2.721.363 5.041 1.089 6.962zm-14.554-16.734c-5.977.633-8.965 2.543-8.965 5.73 0 2.157 1.184 3.234 3.551 3.234 1.5 0 2.777-.445 3.832-1.336 1.055-.891 1.582-2.859 1.582-5.906v-1.722zM457.198-1687.963v47.988h-13.816v-47.988h13.816z"/></g><path stroke="#000" stroke-miterlimit="10" fill="none" d="M62-2139.518h273v65h-273z"/><image width="722" height="344" xlink:href="1FCA0C41AE895BDF.png" transform="matrix(.5 0 0 .5 493.483 -2170.387)" overflow="visible"/><text transform="translate(139.6 -2084.387)" fill="#f00" font-family="Avenir-Heavy" font-size="50" letter-spacing="-1">Journaal</text><image width="812" height="318" xlink:href="1FCA0C41AE895BDD.png" transform="matrix(.5 0 0 .5 537 -2507.377)" overflow="visible"/><text transform="translate(83 -2464.518)" font-family="Impact" font-size="50" letter-spacing="-1">JOURNAAL</text><text transform="translate(125 -2524.518)" font-family="Impact" font-size="50" letter-spacing="-1">BRT</text><image width="1274" height="518" xlink:href="1FCA0C41AE895BE3.png" transform="matrix(.5 0 0 .5 576.5 -3054.018)" overflow="visible"/><image width="1106" height="346" xlink:href="1FCA0C41AE895BE5.png" transform="matrix(.5 0 0 .5 540.5 -3415.518)" overflow="visible"/><text transform="translate(22.102 -3242.518)" font-family="EurostileExt-Bla" font-size="101.444" letter-spacing="-3">nieuws</text><image width="282" height="988" xlink:href="1FCA0C41AE895BE7.png" transform="matrix(0 .5 -.5 0 1011.983 -1967.025)" overflow="visible"/><text transform="translate(139.6 -4829.838)" font-family="EurostileCon-Reg" font-size="77.897" letter-spacing="-2">TELEVISIE</text><text transform="translate(157.555 -4753.639)" font-family="EurostileCon-Reg" font-size="77.897" letter-spacing="-2">NIEUWS</text><text transform="translate(148.577 -4376.847)" font-family="EurostileCon-Hea" font-size="77.897" letter-spacing="-2">TELEVISIE</text><text transform="translate(148.577 -4300.648)" font-family="EurostileCon-Hea" font-size="77.897" letter-spacing="-2">JOURNAAL</text><text transform="translate(724.798 -4383.859)" font-family="EurostileCon-Hea" font-size="77.897" letter-spacing="-2">TELEVISIE</text><text transform="translate(724.798 -4307.66)" font-family="EurostileCon-Hea" font-size="77.897" letter-spacing="-2">JOURNAAL</text><text transform="translate(1237.545 -4334.271)" font-family="AGaramondPro-Regular" font-size="77.897" letter-spacing="-2">TV-NIEUWS</text><g enable-background="new"><defs><path id="a" enable-background="new" d="M1805.444-4197.851l47.707-89.787h363.346l47.707 89.787z"/></defs><clipPath id="b"><use xlink:href="#a" overflow="visible"/></clipPath><g clip-path="url(#b)"><path d="M1916.42-4286.911h-19.292l-24.19 64.568-.43.291 10.596-64.859h-30.336l-46.704 87.891h24.062l32.839-71.741h.277l-15.337 71.741h38.14l30.375-87.891M1947.036-4286.911h-20.769l-27.847 87.891h26.097l22.519-87.891M1996.93-4286.911h-40.06l-19.998 87.891h52.198l2.016-18.98h-24.947l3.975-23.816h20.154l1.693-14.732h-19.391l2.888-17.295h20.025l1.447-13.068M2058.431-4286.911h-20.771l.527 63.68c.009 1.072-.112 2-.374 2.791-.263.792-.662 1.444-1.208 1.961-.545.518-1.233.9-2.069 1.153-.837.253-1.822.377-2.958.377-1.177 0-2.191-.124-3.05-.377-.854-.252-1.552-.635-2.099-1.153-.547-.517-.941-1.169-1.193-1.961-.251-.791-.36-1.719-.334-2.791l1.555-63.68h-20.755l-5.362 63.085c-.403 4.761-.286 8.77.512 12.107.811 3.39 2.32 6.062 4.681 8.12 2.382 2.076 5.617 3.514 9.854 4.432 4.254.922 9.493 1.317 15.863 1.317 3.485 0 6.566-.104 9.299-.326 2.73-.221 5.107-.559 7.192-1.024 2.081-.466 3.866-1.058 5.411-1.79 1.542-.729 2.847-1.596 3.967-2.608 1.159-1.014 2.139-2.191 2.942-3.544.799-1.344 1.424-2.857 1.884-4.551.452-1.68.744-3.532.881-5.564.133-2.014.115-4.201-.047-6.567l-4.348-63.087M2160.383-4286.911h-20.101l15.392 72.259h-.34l-29.215-72.259h-28.047l3.203 72.259h-.147l-17.22-72.259h-20.084l20.145 87.891h36.943l-6.151-75.501h.274l27.903 75.501h36.947l-19.502-87.891M2188.913-4287.638c-5.044 0-9.028.209-12.073.751-3.057.543-5.18 1.424-6.498 2.771-1.327 1.358-1.844 3.196-1.664 5.662.182 2.5 1.082 5.663 2.593 9.656l1.827 4.833c.863 2.279 1.723 4.291 2.617 6.071.898 1.797 1.829 3.353 2.817 4.708.997 1.366 2.055 2.524 3.202 3.522 1.156 1.001 2.402 1.836 3.772 2.552 1.287.688 2.443 1.255 3.673 1.76 1.234.507 2.541.95 4.123 1.389 1.586.441 3.453.878 5.803 1.373 2.355.497 5.201 1.05 8.746 1.723 2.352.473 4.237.895 5.781 1.348 1.546.455 2.752.939 3.74 1.537.994.6 1.771 1.312 2.465 2.223.695.914 1.311 2.029 1.969 3.435l4.912 10.427c.508 1.079.812 1.986.9 2.738.09.755-.045 1.354-.414 1.817-.373.465-.981.791-1.845 1.003-.864.212-1.981.305-3.368.305-1.625 0-2.945-.085-4.066-.345-1.122-.26-2.041-.693-2.873-1.385-.828-.69-1.564-1.637-2.313-2.922-.749-1.277-1.507-2.885-2.381-4.898l-2.986-6.871h-22.356l2.988 7.9c1.936 5.117 3.926 9.356 6.234 12.835 2.35 3.539 5.005 6.263 8.248 8.32 3.271 2.081 7.119 3.467 11.816 4.335 4.717.873 10.271 1.215 16.941 1.215 6.543 0 11.668-.425 15.461-1.48 3.773-1.05 6.209-2.715 7.396-5.181 1.175-2.438 1.122-5.641-.036-9.762-1.14-4.041-3.332-8.933-6.441-14.786-2.816-5.3-5.15-9.363-7.506-12.575-2.321-3.16-4.682-5.521-7.555-7.413-2.848-1.874-6.21-3.296-10.539-4.571-4.303-1.267-9.562-2.39-16.211-3.66-1.999-.371-3.587-.712-4.881-1.093-1.29-.379-2.285-.798-3.104-1.327-.811-.527-1.445-1.162-2.01-1.973-.562-.808-1.053-1.789-1.586-3.009l-2.256-5.161c-.491-1.125-.814-2.029-.941-2.75-.125-.721-.051-1.262.253-1.665.306-.402.837-.666 1.636-.829.797-.163 1.859-.227 3.221-.227 1.289 0 2.297.036 3.135.192.836.157 1.504.436 2.107.923.604.487 1.146 1.186 1.736 2.182.593 1.003 1.237 2.314 2.045 4.026l1.778 3.776h19.838l-4.884-9.29c-1.43-2.727-3.023-4.971-4.908-6.804-1.863-1.814-4.021-3.232-6.599-4.319-2.56-1.079-5.546-1.832-9.083-2.315-3.528-.481-7.618-.697-12.396-.697"/></g></g><image width="1136" height="718" xlink:href="1FCA0C41AE895BE4.png" transform="matrix(.5 0 0 .5 1052.972 -4009.101)" overflow="visible"/><circle cx="235.355" cy="-3838.121" r="81.093"/><path d="M438-4015.482h-371v172h29.873c22.887-53 77.791-89.418 141.895-89.418s119.007 36.418 141.894 89.418h57.338v-172zM36-3650.482h372v-172h-29.304c-22.887 53-77.791 89.418-141.894 89.418-64.104 0-119.007-36.418-141.895-89.418h-58.907v172zM-1-4014.482h41v171h-41zM438-3821.482h41v171h-41z"/><path d="M181-3886.482v103h46v-15.851s10.199 12.574 14.81 15.067c3.447 1.863 15.511 2.948 15.511 2.948s13.49-1.249 17.745-2.621c2.72-.876 10.184-5.24 10.184-5.24l-.641-44.873s-14.403 6.223-23.248 4.912c-4.299-.637-10.246-8.252-12.77-11.791-3.076-4.314-8.515-19.407-8.515-19.407s-6.14-11.791-11.136-18.354c-4.881-6.412-16.048-7.791-16.048-7.791h-31.892z" fill="#fff"/><path d="M284.296-3883.93s-29.78.062-32.128 25.881c-2.499 27.487 30.343 28.558 32.1 11.958l.028-37.839z" fill="#fff" stroke="#000"/><circle cx="272.49" cy="-3850.156" r="11.156" stroke="#fff"/><text transform="translate(99 -2939.518)" font-family="Satellite" font-size="77.897" letter-spacing="-2">BRT</text><text transform="translate(67 -2867.518)" font-family="Satellite" font-size="77.897" letter-spacing="-2">JOURNAAL</text><image width="2160" height="1210" xlink:href="1FCA0C41AE895BEC.png" transform="matrix(.5 0 0 .5 -1124.981 -3227.018)" overflow="visible"/></g></svg>