<?xml version="1.0" encoding="iso-8859-1"?>
<!-- Generator: Adobe Illustrator 16.0.4, SVG Export Plug-In . SVG Version: 6.00 Build 0)  -->
<!DOCTYPE svg PUBLIC "-//W3C//DTD SVG 1.1//EN" "http://www.w3.org/Graphics/SVG/1.1/DTD/svg11.dtd">
<svg version="1.1" id="Layer_1" xmlns="http://www.w3.org/2000/svg" xmlns:xlink="http://www.w3.org/1999/xlink" x="0px" y="0px"
	 width="481px" height="387px" viewBox="0 0 481 387" style="enable-background:new 0 0 481 387;" xml:space="preserve">
<path style="fill:none;stroke:#000000;stroke-miterlimit:10;" d="M256.833,295.999l-28.667,28l58.667,44l61.333-65.333
	c0,0,7.001,10.665,20.001-1.001s14.333-14,14.333-14s19.061-25.206,20-37.666c0.784-10.4,0-12,0-12
	c-2.667-46-49.001,30.667-49.001,30.667l-57.333,49.333l14.667-175.333L240.5,105.999l-7.667,173.334l63.333,38.666"/>
<polyline style="fill:none;stroke:#000000;stroke-miterlimit:10;" points="310.833,142.666 453.5,29.999 382.833,0.5 240.5,105.999 
	"/>
<polyline style="fill:none;stroke:#000000;stroke-miterlimit:10;" points="357.5,218 363.167,174.667 448.167,98.334 453.5,29.999 
	"/>
<path style="fill:none;stroke:#000000;stroke-miterlimit:10;" d="M357.5,218c0,0,21.001-30.336,32.667-41.002
	s11.667-10.666,11.667-10.666s26-24.85,40.333-18.184"/>
<line style="fill:none;stroke:#000000;stroke-miterlimit:10;" x1="410.065" y1="132.551" x2="442.167" y2="148.148"/>
<path style="fill:none;stroke:#000000;stroke-miterlimit:10;" d="M442.167,148.148c0,0,17.666,3.516,11.333,57.183
	c-3.437,29.12-33.999,78.668-33.999,78.668s-8.333,12.333-26.667,37.333s-63.667,56.999-63.667,56.999
	c-26,16.667-42.334-10.332-42.334-10.332"/>
<line style="fill:none;stroke:#000000;stroke-miterlimit:10;" x1="348.166" y1="302.666" x2="330.071" y2="288.826"/>
</svg>
