<?xml version="1.0" encoding="iso-8859-1"?>
<!-- Generator: Adobe Illustrator 16.0.4, SVG Export Plug-In . SVG Version: 6.00 Build 0)  -->
<!DOCTYPE svg PUBLIC "-//W3C//DTD SVG 1.1//EN" "http://www.w3.org/Graphics/SVG/1.1/DTD/svg11.dtd">
<svg version="1.1" id="Layer_1" xmlns="http://www.w3.org/2000/svg" xmlns:xlink="http://www.w3.org/1999/xlink" x="0px" y="0px"
	 width="481px" height="387px" viewBox="0 0 481 387" style="enable-background:new 0 0 481 387;" xml:space="preserve">
<path style="fill:none;stroke:#000000;stroke-miterlimit:10;" d="M220.5,43.5l-37,23.5c0,0-76,1-86.5,65.5"/>
<polyline style="fill:none;stroke:#000000;stroke-miterlimit:10;" points="220.5,43.5 212.845,31.605 192.5,0 "/>
<path style="fill:none;stroke:#000000;stroke-miterlimit:10;" d="M97,68.5C121,55,153,32,188,28c0,0,20.961-2.43,24.845,3.605"/>
<path style="fill:none;stroke:#000000;stroke-miterlimit:10;" d="M0,102.5c0,0,23.5-73.5,86-102"/>
<path style="fill:none;stroke:#000000;stroke-miterlimit:10;" d="M45.449,80.853"/>
<path style="fill:none;stroke:#000000;stroke-miterlimit:10;" d="M0,143.5l34,56c0,0-28-70.5,63-131"/>
<path style="fill:none;stroke:#000000;stroke-miterlimit:10;" d="M126.503,134.834c-36.333,21.999-28,38.833-28,38.833l3,2.168
	c0,0,10.167,10.834,40.667-14l2.915-1.334c0,0,9.915-9.166,10.915-22.666v-3.001c-5-11.501-22.915-2.334-22.915-2.334
	L126.503,134.834z"/>
<path style="fill:none;stroke:#000000;stroke-miterlimit:10;" d="M97.115,131.826c0,0,62.554-48.156,86.221-47.156
	c0,0,22.167-1.5,27.667,7.5l0.663,1.33c0,0,3.334,14.4,1.334,21.75v1.251c-2,19.833-36,51.5-36,51.5v0.666
	c0,0-41.301,28.951-44.666,30.833c-81.176,45.394-98.334,0-98.334,0"/>
<line style="fill:none;stroke:#000000;stroke-miterlimit:10;" x1="211.003" y1="92.17" x2="192.5" y2="61.283"/>
</svg>
