<?xml version="1.0" encoding="iso-8859-1"?>
<!-- Generator: Adobe Illustrator 16.0.4, SVG Export Plug-In . SVG Version: 6.00 Build 0)  -->
<!DOCTYPE svg PUBLIC "-//W3C//DTD SVG 1.1//EN" "http://www.w3.org/Graphics/SVG/1.1/DTD/svg11.dtd">
<svg version="1.1" id="Layer_1" xmlns="http://www.w3.org/2000/svg" xmlns:xlink="http://www.w3.org/1999/xlink" x="0px" y="0px"
	 width="481px" height="387px" viewBox="0 0 481 387" style="enable-background:new 0 0 481 387;" xml:space="preserve">
<path style="fill:none;stroke:#000000;stroke-miterlimit:10;" d="M292,76.5c0,70.859-83.333,94.5-109,94.5
	c-28,0-74.926-22.605-74.926-74.797S149.533,0.5,202,0.5C241.133,0.5,292-10.359,292,76.5z"/>
<path style="fill:none;stroke:#000000;stroke-miterlimit:10;" d="M0.5,276c0,0,50.5,23,96.5,16c0,0-38,47-38,95"/>
<path style="fill:none;stroke:#000000;stroke-miterlimit:10;" d="M462.245,0.5C462.245,0.5,477,31,425,102c0,0,68-5,66,10"/>
<path style="fill:none;stroke:#000000;stroke-miterlimit:10;" d="M237.157,306.767c0,0,21.843,30.233,76.843-0.767
	c0,0,52.057-19.184,50.057-75.184"/>
<path style="fill:none;stroke:#000000;stroke-miterlimit:10;" d="M414,303c0,71.69-91.858,92-108,92
	c-30.131,0-71.926-12.871-71.926-65.674c0-52.804,50.615-99.826,107.076-99.826S414,250.196,414,303z"/>
<path style="fill:none;stroke:#000000;stroke-miterlimit:10;" d="M109.287,80.886c0,0,34.047,52.115,75.38,36.115l32.667-16.531
	c66-42.531,30.124-98.862,30.124-98.862"/>
</svg>
