<?xml version="1.0" encoding="iso-8859-1"?>
<!-- Generator: Adobe Illustrator 16.0.4, SVG Export Plug-In . SVG Version: 6.00 Build 0)  -->
<!DOCTYPE svg PUBLIC "-//W3C//DTD SVG 1.1//EN" "http://www.w3.org/Graphics/SVG/1.1/DTD/svg11.dtd">
<svg version="1.1" id="Layer_1" xmlns="http://www.w3.org/2000/svg" xmlns:xlink="http://www.w3.org/1999/xlink" x="0px" y="0px"
	 width="481px" height="387px" viewBox="0 0 481 387" style="enable-background:new 0 0 481 387;" xml:space="preserve">
<line style="fill:none;stroke:#000000;stroke-miterlimit:10;" x1="213.9" y1="216.035" x2="480.5" y2="297.031"/>
<polygon style="fill:none;stroke:#000000;stroke-miterlimit:10;" points="43.5,275 97.5,265.5 73.5,234.5 21.5,242.5 "/>
<path style="fill:none;stroke:#000000;stroke-miterlimit:10;" d="M78,138c0,0,34.5-113.5,121-100.5"/>
<path style="fill:none;stroke:#000000;stroke-miterlimit:10;" d="M156.5,104.5c0,0-4,39.5-26.5,48"/>
<path style="fill:none;stroke:#000000;stroke-miterlimit:10;" d="M43.5,275c0,0-11.416,75.514,54,64.5
	c37.046-6.237,59.5-10.5,107.5-105c82.025-161.487-6-197-6-197l-30-20.114c0,0-78-22.886-119,100.114c0,0-15.762,53,6.619,80.5
	L78,228c0,0,24.5,32.5,85.5-10c0,0-23.555,58.283-36.5,63.5c-33.5,13.5-29.5-16-29.5-16"/>
<polyline style="fill:none;stroke:#000000;stroke-miterlimit:10;" points="21.5,243 21.5,283 56.619,329.868 "/>
<path style="fill:none;stroke:#000000;stroke-miterlimit:10;" d="M89.177,254.75c0,0,16.823-3.986,20.823-14.868"/>
<path style="fill:none;stroke:#000000;stroke-miterlimit:10;" d="M78,138c0,0-18.5,60.5,0,90"/>
<path style="fill:none;stroke:#000000;stroke-miterlimit:10;" d="M178.5,148c-13.54,26.176-13.969,35.25-32.125,35.25
	s-20.855-32.02-11.125-53c8-17.25,15.844-27.5,34-27.5S189.75,126.25,178.5,148z"/>
<line style="fill:none;stroke:#000000;stroke-miterlimit:10;" x1="0" y1="151.327" x2="44.966" y2="164.988"/>
</svg>
