<?xml version="1.0" encoding="iso-8859-1"?>
<!-- Generator: Adobe Illustrator 16.0.4, SVG Export Plug-In . SVG Version: 6.00 Build 0)  -->
<!DOCTYPE svg PUBLIC "-//W3C//DTD SVG 1.1//EN" "http://www.w3.org/Graphics/SVG/1.1/DTD/svg11.dtd">
<svg version="1.1" id="Layer_1" xmlns="http://www.w3.org/2000/svg" xmlns:xlink="http://www.w3.org/1999/xlink" x="0px" y="0px"
	 width="481px" height="387px" viewBox="0 0 481 387" style="enable-background:new 0 0 481 387;" xml:space="preserve">
<path style="fill:none;stroke:#000000;stroke-miterlimit:10;" d="M27.334,128.334c0,0,42,27.332,32-15.334l36.667,23.955
	L127.334,287l-37.333-25.333l-22-78.667l-32.667-23.333L27.334,128.334z"/>
<path style="fill:none;stroke:#000000;stroke-miterlimit:10;" d="M243.92,237.139c52.747,53.195,57.307,116.035,33.414,133.195
	c-23.894,17.16-90.191-29.634-119.938-71.053c-29.747-41.418-33.395-102.281-17.395-112.27
	C164.955,171.434,208.015,200.928,243.92,237.139z"/>
<polyline style="fill:none;stroke:#000000;stroke-miterlimit:10;" points="96.001,136.955 140.001,105.667 151.998,177.312 "/>
<polyline style="fill:none;stroke:#000000;stroke-miterlimit:10;" points="59.334,113 99.334,83 140.001,105.667 "/>
<line style="fill:none;stroke:#000000;stroke-miterlimit:10;" x1="127.334" y1="287" x2="143.839" y2="275.441"/>
<path style="fill:none;stroke:#000000;stroke-miterlimit:10;" d="M284.041,363.381l39.459-55.714V299
	c-10-156-134.75-151.333-134.75-151.333l-48.667,39.345"/>
<path style="fill:none;stroke:#000000;stroke-miterlimit:10;" d="M186,293c0,0,3.029,9.486,8.697,17.71
	c7.412,10.753,21.324,22.202,28.877,18.783c9.926-4.493,8.218-19.243,8.218-33.243c0-4.693-1.68-14.241-3.027-19
	c-2.246-7.932-5.298-16.754-10.866-23.809c-4.258-5.394-9.349-10.638-15.398-14.441c-4.131-2.599-20.9-12.068-22,16.517
	C180.5,255.517,182.678,287.025,186,293z"/>
<polyline style="fill:none;stroke:#000000;stroke-miterlimit:10;" points="27.334,128.334 69.333,98 74.334,101.5 "/>
</svg>
