<?xml version="1.0" encoding="iso-8859-1"?>
<!-- Generator: Adobe Illustrator 16.0.4, SVG Export Plug-In . SVG Version: 6.00 Build 0)  -->
<!DOCTYPE svg PUBLIC "-//W3C//DTD SVG 1.1//EN" "http://www.w3.org/Graphics/SVG/1.1/DTD/svg11.dtd">
<svg version="1.1" id="Layer_1" xmlns="http://www.w3.org/2000/svg" xmlns:xlink="http://www.w3.org/1999/xlink" x="0px" y="0px"
	 width="481px" height="387px" viewBox="0 0 481 387" style="enable-background:new 0 0 481 387;" xml:space="preserve">
<polygon style="fill:none;stroke:#000000;stroke-miterlimit:10;" points="391,113 420.5,148.5 349,313 388,305.5 470,141.5 
	439.5,108 "/>
<path style="fill:none;stroke:#000000;stroke-miterlimit:10;" d="M391,113c-22,40.5-48.5,2.5-48.5,2.5l-12,33l23.5,33l-32,89
	l27,42.5"/>
<polyline style="fill:none;stroke:#000000;stroke-miterlimit:10;" points="342.5,115.5 385.5,110.75 390.333,114.188 "/>
<polyline style="fill:none;stroke:#000000;stroke-miterlimit:10;" points="375.265,111.881 393.75,58 349,59.5 299,224.75 
	335.5,219.75 351.927,178.59 "/>
<path style="fill:none;stroke:#000000;stroke-miterlimit:10;" d="M299,224.75l-21.5-37.5L299,102.5l-17-26.25L290,44
	c0,0,20.25,29.5,37.25-11.5l45-1.5l21.5,27"/>
<line style="fill:none;stroke:#000000;stroke-miterlimit:10;" x1="349" y1="59.5" x2="327.25" y2="32.5"/>
<line style="fill:none;stroke:#000000;stroke-miterlimit:10;" x1="420.5" y1="148.5" x2="470" y2="141.5"/>
</svg>
