<?xml version="1.0" encoding="iso-8859-1"?>
<!-- Generator: Adobe Illustrator 16.0.4, SVG Export Plug-In . SVG Version: 6.00 Build 0)  -->
<!DOCTYPE svg PUBLIC "-//W3C//DTD SVG 1.1//EN" "http://www.w3.org/Graphics/SVG/1.1/DTD/svg11.dtd">
<svg version="1.1" id="Layer_1" xmlns="http://www.w3.org/2000/svg" xmlns:xlink="http://www.w3.org/1999/xlink" x="0px" y="0px"
	 width="481px" height="387px" viewBox="0 0 481 387" style="enable-background:new 0 0 481 387;" xml:space="preserve">
<line style="fill:none;stroke:#000000;stroke-miterlimit:10;" x1="0" y1="148.035" x2="368.667" y2="0"/>
<polyline style="fill:none;stroke:#000000;stroke-miterlimit:10;" points="47.333,206.032 41.667,195.365 55,197.032 
	61.333,207.365 71.667,197.032 90.333,228.032 102,213.365 69.667,154.365 60.667,165.699 47.667,163.699 57.5,152.701 
	69.667,154.365 "/>
<polyline style="fill:none;stroke:#000000;stroke-miterlimit:10;" points="90.333,228.032 78,226.701 64.916,203.783 "/>
<line style="fill:none;stroke:#000000;stroke-miterlimit:10;" x1="47.333" y1="206.032" x2="61.333" y2="207.365"/>
<path style="fill:none;stroke:#000000;stroke-miterlimit:10;" d="M79.82,172.892l8.514-0.527l10.333-11
	c0,0-5.628-29.969,7.667-19.496c5.5,4.333-0.833,27.167-0.833,27.167s-2.665,18.764-2.333,23.965
	c0.698,10.944,3.167,14.364,3.167,14.364l31-40.5l-6-12.499L116.5,170.034c0,0,11.667-48.333-8.333-49.833
	c-29.153-2.187-23.167,42-23.167,42s0.661,7.445,3.747,9.723"/>
<line style="fill:none;stroke:#000000;stroke-miterlimit:10;" x1="106" y1="207.534" x2="99" y2="207.534"/>
<path style="fill:none;stroke:#000000;stroke-miterlimit:10;" d="M69.667,154.365c0,0-0.666-28.331,22.834-35.664l17.076,0.667"/>
<path style="fill:none;stroke:#000000;stroke-miterlimit:10;" d="M90.333,192.076c0,0,1.454-23.389,3.556-25.626"/>
<path style="fill:none;stroke:#000000;stroke-miterlimit:10;" d="M47.667,163.699c0,0,4.667,24.247-6,31.666"/>
<path style="fill:none;stroke:#000000;stroke-miterlimit:10;" d="M55,197.032c0,0,12.083-8.918,5.667-31.333"/>
</svg>
