<?xml version="1.0" encoding="iso-8859-1"?>
<!-- Generator: Adobe Illustrator 16.0.4, SVG Export Plug-In . SVG Version: 6.00 Build 0)  -->
<!DOCTYPE svg PUBLIC "-//W3C//DTD SVG 1.1//EN" "http://www.w3.org/Graphics/SVG/1.1/DTD/svg11.dtd">
<svg version="1.1" id="Layer_1" xmlns="http://www.w3.org/2000/svg" xmlns:xlink="http://www.w3.org/1999/xlink" x="0px" y="0px"
	 width="481px" height="387px" viewBox="0 0 481 387" style="enable-background:new 0 0 481 387;" xml:space="preserve">
<polyline style="fill:none;stroke:#000000;stroke-miterlimit:10;" points="289,322 467,204 480.5,222 "/>
<line style="fill:none;stroke:#000000;stroke-miterlimit:10;" x1="366" y1="386.5" x2="480.5" y2="306"/>
<path style="fill:none;stroke:#000000;stroke-miterlimit:10;" d="M102.5,0.5C56.5,38.5-58,133,52,292l110-75
	c0,0-70-113.5,52.229-136.98c0,0,4.421-1.022,17.771,1.48"/>
<path style="fill:none;stroke:#000000;stroke-miterlimit:10;" d="M62,0C62,0,0.5,52,0.5,140"/>
<path style="fill:none;stroke:#000000;stroke-miterlimit:10;" d="M110.958,386.5C276,108,232,81.5,232,81.5s65,16.268,16,129
	l-76.5,176"/>
<polyline style="fill:none;stroke:#000000;stroke-miterlimit:10;" points="358.332,204 419.999,162.334 467,204 "/>
<path style="fill:none;stroke:#000000;stroke-miterlimit:10;" d="M358.332,204C439,71,377,0.5,377,0.5"/>
<line style="fill:none;stroke:#000000;stroke-miterlimit:10;" x1="287" y1="322" x2="358.332" y2="204"/>
</svg>
