<?xml version="1.0" encoding="iso-8859-1"?>
<!-- Generator: Adobe Illustrator 16.0.4, SVG Export Plug-In . SVG Version: 6.00 Build 0)  -->
<!DOCTYPE svg PUBLIC "-//W3C//DTD SVG 1.1//EN" "http://www.w3.org/Graphics/SVG/1.1/DTD/svg11.dtd">
<svg version="1.1" id="Layer_1" xmlns="http://www.w3.org/2000/svg" xmlns:xlink="http://www.w3.org/1999/xlink" x="0px" y="0px"
	 width="481px" height="387px" viewBox="0 0 481 387" style="enable-background:new 0 0 481 387;" xml:space="preserve">
<path style="fill:none;stroke:#000000;stroke-miterlimit:10;" d="M252.667,110.448c0,0,79.333-101.999,228.333-5.666"/>
<path style="fill:none;stroke:#000000;stroke-miterlimit:10;" d="M480.5,265.281c-9,6-39.25,2-39.25,2s52.5,59.5,4.75,119.25"/>
<path style="fill:none;stroke:#000000;stroke-miterlimit:10;" d="M252.667,248.781l14.083,43.25L255,317.781c0,0,48,44.25,86.5-8.5
	l-31.832-21.496l-7.001-49.337l35.333-50l-5.333-36.667l-80-41.333L262,161.781l68.493,37.291"/>
<path style="fill:none;stroke:#000000;stroke-miterlimit:10;" d="M406.25,200.031c0,0-15-12.5-32.75-12.75
	c-12.521-0.177-21.75,6.219-21.75,6.219"/>
<path style="fill:none;stroke:#000000;stroke-miterlimit:10;" d="M332.667,151.781c0,0,28.083-22.75,51.333-14.5
	c0,0-8.787-1.739,12,2.75s29,31,29,31l-1.25,11.25c-10,25.5-42.5,22.25-42.5,22.25c-7,0.5-43.25-16.083-43.25-16.083"/>
<path style="fill:none;stroke:#000000;stroke-miterlimit:10;" d="M148,335.152c-39.5-60.629,22.5-135.121,22.5-135.121l82.167,48.75
	c0,0-32.167,44,2.333,69"/>
<path style="fill:none;stroke:#000000;stroke-miterlimit:10;" d="M148,335.152c0,0,37,63.629,58,65.129"/>
</svg>
