<svg xmlns="http://www.w3.org/2000/svg" viewBox="0 0 480 360"><g><path d="M126.118 125.27h-8.412v-9.348h28.821v9.348h-8.413v42.609h-11.996v-42.609zM149.876 115.922h23.135v9.348h-11.139v11.373h10.282v8.88h-10.282v13.009h11.996v9.348h-23.992v-51.958zM178.386 115.922h11.996v42.609h11.685v9.348h-23.681v-51.957zM205.493 115.922h23.135v9.348h-11.139v11.373h10.282v8.88h-10.282v13.009h11.996v9.348h-23.992v-51.958zM231.82 115.922h12.308l4.752 45.647h.156l4.829-45.647h12.308l-7.011 51.957h-20.409l-6.933-51.957zM269.521 115.922h11.996v51.957h-11.996v-51.957zM297.33 154.559c0 4.284.467 4.985 3.583 4.985 2.648 0 3.583-.779 3.583-3.038v-5.608c0-3.116-.701-3.739-5.063-4.83-6.621-1.558-8.023-2.025-10.126-3.661-2.259-1.713-3.116-4.596-3.116-10.516v-3.193c0-10.828 2.648-13.32 14.333-13.32 11.062 0 14.8 2.57 14.8 10.126v6.231h-10.749v-2.492c0-4.596-.234-4.985-3.116-4.985-3.038 0-3.661.701-3.661 3.739v3.427c0 3.194.546 3.817 4.44 4.752 12.853 3.194 14.255 4.83 14.255 16.514 0 12.542-3.116 15.735-15.112 15.735-12.229 0-15.189-2.57-15.189-13.32v-4.284h11.14v3.738zM321.088 115.922h11.996v51.957h-11.996v-51.957zM338.77 115.922h23.135v9.348h-11.139v11.373h10.282v8.88h-10.282v13.009h11.996v9.348h-23.992v-51.958zM128.299 233.64c0 8.102-3.661 10.983-14.099 10.983-9.192 0-12.387-2.415-12.387-9.27v-9.971h10.75v7.945c0 1.48.468 1.947 1.87 1.947 1.401 0 1.869-.467 1.869-1.947v-41.207h11.996v41.52zM132.505 202.248c0-7.712 4.362-10.672 15.58-10.672 11.217 0 15.578 2.96 15.578 10.672v31.703c0 7.712-4.361 10.672-15.656 10.672-11.217 0-15.502-2.96-15.502-10.672v-31.703zm18.695.623c0-1.792-.779-2.415-3.115-2.415-2.338 0-3.117.545-3.117 2.415v30.457c0 1.869.779 2.415 3.194 2.415 2.259 0 3.038-.623 3.038-2.415v-30.457zM198.717 231.692c0 4.985-1.013 8.257-3.272 10.204-2.181 1.947-5.607 2.727-11.995 2.727-11.685 0-15.19-2.96-15.19-12.931v-39.571h11.996v39.883c0 2.259 1.014 3.271 3.271 3.271 2.182 0 3.194-1.013 3.194-3.271v-39.883h11.996v39.571zM203.936 192.121h14.878c12.932 0 16.514 2.648 16.514 12.386v6.31c0 6.854-1.947 9.348-8.179 10.516v.156c6.699 1.479 8.179 3.038 8.179 8.49v14.1h-11.996v-14.801c0-2.259-1.479-3.115-5.374-3.115h-2.025v17.916h-11.996v-51.958zm11.996 25.16h2.337c4.051 0 5.062-.935 5.062-4.518v-7.867c0-2.727-1.168-3.896-3.738-3.896h-3.661v16.281zM250.438 203.572h-.155l.701 40.506h-11.062v-51.957h17.526l8.803 40.506.155-.155-.856-40.351h11.139v51.957h-17.526l-8.725-40.506zM287.984 192.121h19.552l7.945 51.957h-12.229l-1.558-12.464h-7.79l-1.558 12.464h-12.23l7.868-51.957zm9.893 7.167h-.155l-2.805 23.446h5.765l-2.805-23.446zM325.295 192.121h19.552l7.945 51.957h-12.229l-1.558-12.464h-7.79l-1.558 12.464h-12.23l7.868-51.957zm9.893 7.167h-.155l-2.805 23.446h5.765l-2.805-23.446zM355.596 192.121h11.996v42.609h11.685v9.348h-23.681v-51.957z"/></g></svg>
