<svg xmlns="http://www.w3.org/2000/svg" width="150" height="122" viewBox="0 0 150 122"><path d="M16.89 32.145h-4.292v-4.769h14.703v4.769h-4.292v21.737h-6.12v-21.737zm12.12-4.769h11.802v4.769h-5.683v5.802h5.246v4.53h-5.246v6.636h6.12v4.769h-12.239v-26.506zm14.544 0h6.12v21.737h5.961v4.769h-12.081v-26.506zm13.829 0h11.802v4.769h-5.683v5.802h5.246v4.53h-5.246v6.636h6.12v4.769h-12.24v-26.506zm13.43 0h6.279l2.424 23.287h.08l2.463-23.287h6.279l-3.577 26.506h-10.41l-3.538-26.506zm19.234 0h6.12v26.506h-6.12v-26.506zm14.186 19.711c0 2.185.238 2.543 1.829 2.543 1.351 0 1.828-.397 1.828-1.55v-2.861c0-1.589-.358-1.907-2.583-2.464-3.378-.795-4.093-1.033-5.166-1.868-1.152-.874-1.589-2.345-1.589-5.365v-1.629c0-5.524 1.351-6.795 7.312-6.795 5.644 0 7.551 1.312 7.551 5.166v3.179h-5.484v-1.271c0-2.345-.119-2.543-1.589-2.543-1.55 0-1.868.357-1.868 1.908v1.748c0 1.629.278 1.947 2.265 2.424 6.557 1.629 7.272 2.464 7.272 8.424 0 6.398-1.589 8.027-7.709 8.027-6.239 0-7.749-1.311-7.749-6.795v-2.185h5.683l-.003 1.907zm12.121-19.711h6.12v26.506h-6.12v-26.506zm9.021 0h11.803v4.769h-5.683v5.802h5.246v4.53h-5.246v6.636h6.12v4.769h-12.239v-26.506zm-107.373 60.054c0 4.133-1.868 5.603-7.192 5.603-4.689 0-6.319-1.232-6.319-4.729v-5.086h5.484v4.053c0 .755.239.994.954.994s.954-.239.954-.994v-21.022h6.12l-.001 21.181zm2.146-16.015c0-3.934 2.225-5.444 7.948-5.444s7.947 1.51 7.947 5.444v16.173c0 3.935-2.225 5.445-7.987 5.445-5.722 0-7.908-1.51-7.908-5.445v-16.173zm9.537.318c0-.915-.397-1.232-1.589-1.232s-1.59.278-1.59 1.232v15.538c0 .954.397 1.232 1.629 1.232 1.152 0 1.55-.318 1.55-1.232v-15.538zm24.241 14.703c0 2.543-.517 4.213-1.669 5.206-1.113.994-2.86 1.392-6.119 1.392-5.961 0-7.75-1.51-7.75-6.597v-20.188h6.12v20.347c0 1.152.517 1.668 1.668 1.668 1.113 0 1.629-.517 1.629-1.668v-20.347h6.12v20.187zm2.662-20.187h7.59c6.597 0 8.424 1.351 8.424 6.319v3.219c0 3.496-.993 4.769-4.172 5.365v.079c3.417.755 4.172 1.55 4.172 4.332v7.193h-6.12v-7.551c0-1.153-.754-1.589-2.742-1.589h-1.033v9.14h-6.12l.001-26.507zm6.12 12.835h1.192c2.067 0 2.583-.478 2.583-2.305v-4.014c0-1.391-.596-1.987-1.907-1.987h-1.867v8.306zm17.603-6.993h-.079l.358 20.664h-5.644v-26.506h8.941l4.491 20.664.079-.079-.437-20.585h5.683v26.506h-8.941l-4.451-20.664zm19.155-5.842h9.975l4.053 26.506h-6.239l-.795-6.359h-3.974l-.795 6.359h-6.239l4.014-26.506zm5.047 3.656h-.079l-1.431 11.961h2.941l-1.431-11.961zm13.987-3.656h9.974l4.053 26.506h-6.238l-.795-6.359h-3.975l-.795 6.359h-6.239l4.015-26.506zm5.047 3.656h-.079l-1.431 11.961h2.941l-1.431-11.961zm10.411-3.656h6.12v21.737h5.961v4.769h-12.081v-26.506z"/></svg>