<svg xmlns="http://www.w3.org/2000/svg" viewBox="0 0 480 360"><circle cx="235.355" cy="175.649" r="81.093"/><path d="M438-1.482h-371v172h29.873c22.887-53 77.791-89.418 141.895-89.418s119.007 36.418 141.894 89.418h57.338v-172zm-402 365h372v-172h-29.305c-22.887 53-77.791 89.418-141.894 89.418-64.104 0-119.007-36.418-141.895-89.418h-58.906v172zm-37-364h41v171h-41v-171zm439 193h41v171h-41v-171z"/><path d="M181 127.518v103h46v-16.08s10.199 12.574 14.811 15.066c3.446 1.862 15.51 2.947 15.51 2.947s13.49-1.249 17.746-2.621c2.72-.876 10.184-5.24 10.184-5.24l-.641-44.872s-14.403 6.224-23.248 4.912c-4.299-.637-10.246-8.252-12.771-11.791-3.075-4.314-8.515-19.407-8.515-19.407s-6.14-11.675-11.136-18.239c-4.881-6.412-16.048-7.676-16.048-7.676l-31.892.001z" fill="#fff"/><path d="M284.296 129.84s-29.78.062-32.128 25.881c-2.499 27.488 30.343 28.558 32.1 11.958l.028-37.839z" fill="#fff" stroke="#000"/><circle cx="272.49" cy="163.614" r="11.156" stroke="#fff"/></svg>