<svg xmlns="http://www.w3.org/2000/svg" width="150" height="122" viewBox="0 0 150 122"><circle cx="74.305" cy="59.544" r="21.033"/><path d="M126.866 13.601h-96.228v44.612h7.748c5.936-13.747 20.177-23.193 36.804-23.193s30.867 9.446 36.804 23.193h14.872v-44.612zm-104.269 94.671h96.487v-44.612h-7.601c-5.937 13.747-20.177 23.193-36.804 23.193-16.627 0-30.868-9.446-36.804-23.193h-15.278v44.612zm-9.597-94.412h10.634v44.353h-10.634v-44.353zm113.866 50.059h10.634v44.353h-10.634v-44.353z"/><path d="M60.206 47.06v26.716h11.932v-4.17s2.645 3.261 3.841 3.908c.894.482 4.023.764 4.023.764s3.499-.324 4.603-.68c.705-.227 2.642-1.359 2.642-1.359l-.167-11.64s-3.736 1.614-6.03 1.274c-1.115-.166-2.657-2.141-3.312-3.059-.797-1.119-2.208-5.034-2.208-5.034s-1.593-3.028-2.889-4.731c-1.266-1.663-4.163-1.991-4.163-1.991h-8.272v.002z" fill="#fff"/><path d="M86.999 47.662s-7.724.016-8.333 6.713c-.648 7.13 7.87 7.407 8.326 3.102l.007-9.815z" fill="#fff" stroke="#000"/><circle cx="83.937" cy="56.422" r="2.894" stroke="#fff"/></svg>