<svg xmlns="http://www.w3.org/2000/svg" width="150" height="122" viewBox="0 0 150 122"><path d="M9.875 56.551h5.377v3.457c.736-2.913 2.368-3.809 6.882-3.809 3.425 0 5.377.607 6.658 2.112.993 1.151 1.376 2.593 1.376 5.249v7.938h-5.506v-7.715c0-2.624-.928-3.296-4.545-3.296-3.681 0-4.737.96-4.737 4.257v6.754h-5.505v-14.947zm24.038-6.402h5.505v4.001h-5.505v-4.001zm0 6.402h5.505v14.948h-5.505v-14.948zm28.775 10.178c-.032 2.209-.672 3.394-2.272 4.129-1.408.673-3.201.896-7.234.896-2.464 0-4.769-.16-6.114-.385-1.729-.319-3.168-1.408-3.841-2.816-.512-1.12-.704-2.272-.704-4.32 0-4.193.896-6.211 3.201-7.171 1.409-.576 3.073-.768 7.074-.768 2.592 0 4.705.127 5.921.384 1.729.352 3.169 1.633 3.617 3.329.256.96.352 1.792.352 3.457v1.632h-14.563v.704c0 1.088.384 1.824 1.057 2.208.512.257 1.889.417 4.001.417 3.233 0 3.969-.32 4.097-1.697l5.408.001zm-5.345-4.577c-.032-2.112-.8-2.529-4.641-2.529-2.369 0-3.329.16-3.905.704-.448.384-.672.928-.672 1.568v.257h9.218zm28.744 9.347h-5.377v-3.457c-.736 2.912-2.369 3.809-6.882 3.809-3.457 0-5.377-.608-6.658-2.113-.992-1.151-1.376-2.592-1.376-5.249v-7.938h5.505v7.714c0 2.688.864 3.297 4.609 3.297 3.617 0 4.673-.961 4.673-4.257v-6.754h5.505l.001 14.948zm2.434-14.948h5.857l3.457 11.139 4.161-11.139h5.281l4.065 11.139 3.617-11.139h5.89l-5.569 14.948h-7.65l-2.977-8.898-3.073 8.898h-7.554l-5.505-14.948zm39.563 10.339c.032 1.312.896 1.568 5.025 1.568 3.266 0 4.321-.352 4.321-1.376 0-.736-.48-1.12-1.6-1.185-.544-.063-1.312-.063-2.849-.063h-2.753c-5.986 0-7.81-1.057-7.81-4.578 0-2.399.96-3.904 2.817-4.449 1.472-.415 3.873-.607 7.394-.607 4.706 0 6.594.224 7.938.96 1.152.608 1.633 1.601 1.729 3.521h-5.793c-.127-.864-.833-1.057-3.841-1.057-3.425 0-4.545.32-4.545 1.249 0 .928.672 1.12 3.617 1.12h3.873c5.857 0 7.458 1.023 7.458 4.705 0 2.496-.928 3.905-2.977 4.513-1.505.449-4.001.641-8.194.641-4.642 0-6.178-.191-7.586-.928-1.376-.704-2.017-1.984-2.048-4.033h5.824v-.001z"/></svg>