<svg xmlns="http://www.w3.org/2000/svg" viewBox="0 0 480 360"><path d="M29.508 204.109h17.042v10.955c2.333-9.23 7.506-12.07 21.81-12.07 10.854 0 17.042 1.928 21.1 6.695 3.145 3.65 4.362 8.217 4.362 16.636v25.157h-17.449v-24.447c0-8.318-2.941-10.448-14.404-10.448-11.666 0-15.013 3.044-15.013 13.491v21.404h-17.448v-47.373zm76.183-20.287h17.448v12.68h-17.448v-12.68zm0 20.287h17.448v47.373h-17.448v-47.373zm91.195 32.258c-.102 7-2.13 10.754-7.202 13.086-4.463 2.131-10.144 2.841-22.926 2.841-7.811 0-15.114-.507-19.375-1.218-5.478-1.014-10.042-4.463-12.173-8.926-1.623-3.551-2.231-7.203-2.231-13.695 0-13.289 2.84-19.68 10.144-22.723 4.463-1.826 9.738-2.435 22.418-2.435 8.216 0 14.912.405 18.766 1.218 5.478 1.114 10.042 5.174 11.463 10.549.812 3.043 1.116 5.682 1.116 10.957v5.172h-46.156v2.231c0 3.449 1.217 5.782 3.348 7 1.623.812 5.985 1.318 12.68 1.318 10.246 0 12.579-1.015 12.984-5.377l17.144.002zm-16.941-14.506c-.102-6.695-2.536-8.014-14.709-8.014-7.506 0-10.55.508-12.375 2.231-1.42 1.217-2.13 2.94-2.13 4.971v.812h29.214zm91.096 29.621h-17.042v-10.955c-2.333 9.229-7.507 12.07-21.81 12.07-10.956 0-17.042-1.928-21.1-6.695-3.145-3.65-4.362-8.217-4.362-16.635v-25.158h17.448v24.447c0 8.521 2.739 10.448 14.607 10.448 11.463 0 14.811-3.044 14.811-13.491v-21.404h17.447l.001 47.373zm7.713-47.373h18.562l10.955 35.302 13.188-35.302h16.737l12.884 35.302 11.463-35.302h18.665l-17.65 47.373h-24.244l-9.435-28.201-9.737 28.201h-23.94l-17.448-47.373zm125.383 32.766c.102 4.159 2.842 4.971 15.926 4.971 10.349 0 13.694-1.115 13.694-4.361 0-2.334-1.521-3.551-5.071-3.754-1.725-.203-4.158-.203-9.027-.203h-8.725c-18.97 0-24.752-3.348-24.752-14.506 0-7.606 3.043-12.375 8.928-14.1 4.666-1.318 12.273-1.928 23.433-1.928 14.912 0 20.897.71 25.157 3.043 3.651 1.928 5.174 5.072 5.479 11.158h-18.36c-.405-2.738-2.639-3.348-12.173-3.348-10.854 0-14.404 1.014-14.404 3.957 0 2.94 2.13 3.549 11.463 3.549h12.273c18.563 0 23.636 3.246 23.636 14.912 0 7.912-2.941 12.377-9.435 14.303-4.768 1.422-12.68 2.029-25.969 2.029-14.709 0-19.578-.607-24.041-2.941-4.361-2.231-6.391-6.289-6.492-12.781h18.46z"/></svg>