<svg xmlns="http://www.w3.org/2000/svg" viewBox="0 0 480 360"><path d="M162.424 153.061h5.896v-36.78h-5.896v-10.536l28.108.076c2.611 0 5.001.463 7.17 1.388 2.168.926 4.038 2.181 5.61 3.766s2.796 3.436 3.67 5.553c.875 2.117 1.312 4.368 1.312 6.751 0 2.79-.489 5.097-1.464 6.922-.977 1.826-2.365 3.297-4.165 4.412 1.902 1.217 3.404 2.72 4.507 4.507s1.654 3.962 1.654 6.523c0 2.612-.45 5.008-1.35 7.189s-2.13 4.064-3.689 5.648c-1.56 1.585-3.404 2.814-5.534 3.689s-4.425 1.312-6.884 1.312h-28.945v-10.42zm18.524-36.781v12.932h9.052c.71 0 1.382-.177 2.016-.532.633-.355 1.185-.831 1.654-1.427.469-.595.843-1.268 1.122-2.016.279-.748.418-1.527.418-2.339 0-.786-.14-1.572-.418-2.358-.279-.786-.653-1.496-1.122-2.13-.469-.633-1.021-1.147-1.654-1.54-.634-.393-1.306-.59-2.016-.59h-9.052zm0 23.354v13.426h9.585c.735 0 1.426-.19 2.073-.57.647-.38 1.204-.881 1.674-1.502.469-.621.843-1.344 1.122-2.168.279-.824.418-1.68.418-2.567 0-.938-.14-1.807-.418-2.605-.279-.799-.66-1.496-1.141-2.092-.482-.596-1.046-1.065-1.693-1.408-.646-.342-1.325-.513-2.035-.513l-9.585-.001zm31.857-33.813h30.503c2.967 0 5.617.444 7.949 1.331 2.334.888 4.299 2.073 5.896 3.556 1.597 1.483 2.82 3.208 3.67 5.173.85 1.965 1.273 4.013 1.273 6.143 0 1.953-.209 3.664-.627 5.135-.419 1.471-1.027 2.776-1.826 3.917-.799 1.141-1.781 2.149-2.947 3.024s-2.498 1.667-3.994 2.377c1.293.66 2.436 1.668 3.424 3.024.988 1.357 1.736 3.113 2.244 5.268l1.939 7.493h4.754l.076 11.221h-16.734l-2.283-13.693c-.229-1.623-.576-3.024-1.045-4.203-.471-1.179-1.098-2.143-1.883-2.891-.787-.748-1.744-1.299-2.872-1.654-1.129-.355-2.467-.533-4.013-.533h-4.906v12.552h5.286v10.422h-23.886v-10.422h5.972v-36.78h-5.972l.002-10.46zm18.6 10.459v13.959h7.568c1.445 0 2.744-.133 3.898-.399s2.143-.685 2.967-1.255c.824-.571 1.459-1.287 1.902-2.149s.666-1.889.666-3.081c0-2.231-.799-3.968-2.396-5.211-1.598-1.242-3.943-1.864-7.037-1.864h-7.568zm47.146 36.781h5.973v-37.161h-7v7.455h-12.397v-17.534h52.451v17.534h-12.476v-7.455h-7.951v37.161h6.086v10.422h-24.686v-10.422zm-244.284 24.76h21.794v11.562h-4.032v39.559c-.558 2.054-1.369 3.937-2.434 5.646-1.065 1.713-2.111 3.266-3.138 4.66s-2.466 3.156-4.317 5.287l-10.612-.57c1.496-2.283 2.668-4.166 3.518-5.648.85-1.483 1.705-3.118 2.567-4.905.862-1.789 1.534-3.696 2.016-5.726v-38.303h-5.363l.001-11.562zm51.026 58.689c-2.612 0-5.109-.355-7.493-1.064-2.384-.711-4.609-1.713-6.675-3.006-2.067-1.293-3.943-2.846-5.629-4.658-1.687-1.812-3.125-3.829-4.317-6.049-1.192-2.219-2.118-4.596-2.777-7.131-.66-2.535-.989-5.186-.989-7.949s.329-5.42.989-7.969c.659-2.549 1.584-4.932 2.777-7.15 1.191-2.219 2.63-4.234 4.317-6.049 1.686-1.812 3.562-3.364 5.629-4.658 2.066-1.293 4.292-2.294 6.675-3.004s4.881-1.065 7.493-1.065 5.116.355 7.512 1.065 4.627 1.711 6.694 3.004c2.066 1.294 3.942 2.847 5.629 4.658 1.686 1.813 3.131 3.83 4.336 6.049 1.204 2.22 2.136 4.603 2.795 7.15.659 2.549.989 5.205.989 7.969 0 2.738-.33 5.382-.989 7.931-.66 2.549-1.591 4.933-2.795 7.149-1.205 2.22-2.65 4.235-4.336 6.049-1.687 1.812-3.563 3.365-5.629 4.658-2.067 1.293-4.298 2.295-6.694 3.006-2.395.708-4.9 1.064-7.512 1.064zm0-11.944c2.206 0 4.228-.477 6.067-1.426 1.838-.951 3.417-2.244 4.735-3.882 1.318-1.635 2.339-3.536 3.062-5.704.723-2.169 1.084-4.47 1.084-6.904 0-2.459-.368-4.778-1.103-6.959-.736-2.182-1.769-4.09-3.1-5.726s-2.91-2.929-4.735-3.88c-1.826-.95-3.829-1.427-6.01-1.427s-4.184.477-6.009 1.427c-1.826.951-3.398 2.244-4.716 3.88-1.319 1.636-2.353 3.544-3.1 5.726-.748 2.181-1.122 4.5-1.122 6.959 0 2.436.374 4.735 1.122 6.904.748 2.168 1.781 4.069 3.1 5.704 1.318 1.638 2.891 2.931 4.716 3.882 1.826.951 3.829 1.426 6.009 1.426zm30.831-46.745h23.125v10.458h-5.287v23.926c0 2.181.248 4.031.742 5.553.495 1.521 1.185 2.764 2.073 3.729.887.964 1.939 1.666 3.157 2.109 1.217.444 2.548.666 3.994.666 1.496 0 2.859-.188 4.089-.57 1.229-.381 2.282-1.032 3.157-1.959.875-.926 1.546-2.16 2.016-3.709.469-1.545.704-3.484.704-5.817v-23.927h-6.124v-10.458h23.125v10.458h-4.603v22.441c0 4.059-.583 7.663-1.75 10.821-1.167 3.156-2.771 5.825-4.812 8.006-2.042 2.183-4.438 3.843-7.188 4.981-2.752 1.142-5.7 1.713-8.843 1.713-3.119 0-6.035-.564-8.748-1.692-2.714-1.129-5.078-2.764-7.094-4.905-2.016-2.144-3.607-4.748-4.773-7.816-1.167-3.068-1.75-6.543-1.75-10.422v-23.127h-5.211l.001-10.459zm59.395 0h30.504c2.967 0 5.617.444 7.949 1.331 2.334.888 4.299 2.073 5.896 3.556 1.597 1.483 2.82 3.208 3.67 5.173s1.273 4.014 1.273 6.143c0 1.953-.209 3.664-.627 5.136-.418 1.471-1.027 2.776-1.826 3.918-.799 1.141-1.781 2.147-2.947 3.022s-2.498 1.668-3.994 2.377c1.293.66 2.436 1.668 3.424 3.024s1.736 3.112 2.244 5.269l1.939 7.492h4.754l.076 11.221h-16.734l-2.283-13.692c-.229-1.622-.576-3.022-1.045-4.202-.471-1.179-1.098-2.143-1.883-2.893-.787-.746-1.744-1.299-2.872-1.653-1.129-.354-2.467-.532-4.013-.532h-4.906v12.553h5.287v10.422h-23.886v-10.422h5.972v-36.78h-5.972v-10.463zm18.599 10.458v13.96h7.569c1.445 0 2.745-.134 3.898-.399 1.154-.266 2.143-.686 2.967-1.255.824-.571 1.459-1.286 1.902-2.149.443-.86.666-1.889.666-3.08 0-2.23-.799-3.969-2.396-5.211-1.597-1.242-3.944-1.863-7.037-1.863h-7.569v-.003zm73.694-10.458h21.908v10.458h-4.678v47.203h-12.629l-24-37.275v26.854h4.83v10.422h-21.87v-10.422h4.754v-36.779h-4.678v-10.459h17.42l23.848 37.769v-27.31h-4.905v-10.461zm55.48 47.24h5.742l-2.586-8.291h-17.726l-2.586 8.291h6.086v10.422h-21.871v-10.422h4.299l15.707-47.24h15.254l15.365 47.24h4.185v10.422h-21.869v-10.422zm-11.563-18.03h11.64l-5.856-18.752-5.784 18.752zm65.936 18.03h5.744l-2.586-8.291h-17.726l-2.588 8.291h6.086v10.422h-21.869v-10.422h4.297l15.709-47.24h15.252l15.367 47.24h4.185v10.422h-21.871v-10.422zm-11.561-18.03h11.639l-5.857-18.752-5.782 18.752zm36.268-29.21h24.686v10.458h-6.085v36.781h12.551c.329 0 .651-.096.971-.285.315-.189.596-.438.836-.742.24-.305.438-.633.59-.988s.229-.697.229-1.027v-7.721h12.323v21.186h-46.1v-10.422h5.971v-36.779h-5.971l-.001-10.461z"/></svg>