<svg xmlns="http://www.w3.org/2000/svg" width="150" height="122" viewBox="0 0 150 122"><path d="M50.813 54.117h1.838v-11.47h-1.838v-3.285l8.764.022c.814 0 1.558.146 2.235.433.676.291 1.259.682 1.748 1.174.492.494.874 1.072 1.146 1.732.272.66.41 1.364.41 2.107 0 .869-.152 1.587-.457 2.158-.305.567-.737 1.028-1.299 1.374.594.378 1.061.848 1.407 1.406.343.558.515 1.233.515 2.031 0 .816-.14 1.562-.42 2.241-.281.682-.666 1.269-1.151 1.764-.486.495-1.063.876-1.725 1.149-.665.272-1.381.408-2.147.408h-9.025v-3.244h-.001zm5.776-11.47v4.03h2.821c.222 0 .43-.054.629-.165.199-.108.371-.26.517-.444.146-.184.262-.394.35-.628.086-.235.127-.477.127-.73 0-.245-.042-.488-.127-.736-.088-.242-.205-.463-.35-.661-.146-.198-.318-.36-.517-.481s-.407-.184-.629-.184h-2.821zm0 7.281v4.188h2.989c.229 0 .444-.062.645-.177.201-.119.377-.278.523-.469.146-.196.262-.419.35-.679.086-.254.128-.521.128-.8 0-.292-.043-.562-.128-.812-.088-.248-.208-.464-.356-.65-.15-.188-.328-.334-.527-.441-.201-.104-.415-.159-.634-.159h-2.99v-.001zm9.934-10.543h9.511c.925 0 1.751.14 2.478.418.729.273 1.338.644 1.839 1.105.497.463.878 1.003 1.144 1.613.265.614.396 1.252.396 1.916 0 .609-.065 1.143-.195 1.6-.133.462-.322.869-.57 1.225-.249.355-.555.667-.92.939-.362.273-.777.521-1.245.743.405.205.762.521 1.067.944.311.42.543.969.7 1.639l.606 2.337h1.481l.024 3.5h-5.218l-.711-4.27c-.072-.508-.181-.944-.327-1.311-.146-.367-.342-.67-.587-.901-.245-.232-.544-.403-.896-.518-.353-.108-.768-.165-1.25-.165h-1.531v3.916h1.648v3.249h-7.448v-3.249h1.863v-11.468h-1.863l.004-3.262zm5.798 3.262v4.354h2.361c.451 0 .854-.044 1.214-.126.36-.083.668-.215.926-.393.256-.179.454-.401.593-.668.137-.27.208-.59.208-.961 0-.695-.249-1.236-.748-1.624-.497-.388-1.229-.582-2.193-.582h-2.361zm14.702 11.47h1.862v-11.59h-2.183v2.327h-3.865v-5.468h16.355v5.468h-3.891v-2.327h-2.479v11.59h1.896v3.249h-7.695v-3.249zm-76.169 7.719h6.795v3.605h-1.258v12.334c-.174.641-.428 1.23-.758 1.762-.331.536-.66 1.019-.978 1.45-.323.436-.768.988-1.346 1.65l-3.309-.177c.466-.711.832-1.297 1.095-1.764.267-.458.533-.967.801-1.524.271-.559.481-1.155.629-1.79v-11.94h-1.671v-3.606zm15.908 18.301c-.813 0-1.592-.114-2.336-.33-.743-.228-1.435-.536-2.08-.939-.644-.406-1.228-.889-1.754-1.453-.527-.565-.975-1.194-1.346-1.886-.374-.692-.66-1.435-.866-2.222-.207-.792-.309-1.619-.309-2.481s.102-1.69.309-2.483c.206-.8.491-1.54.866-2.234.37-.69.818-1.318 1.346-1.885.526-.565 1.11-1.048 1.754-1.452.646-.402 1.337-.713 2.08-.936s1.523-.332 2.336-.332c.818 0 1.599.109 2.342.332.748.222 1.446.534 2.088.936.647.404 1.231.886 1.758 1.452.523.564.974 1.195 1.352 1.885.375.697.666 1.437.871 2.234.203.793.308 1.621.308 2.483 0 .856-.105 1.681-.308 2.472-.206.796-.496 1.54-.871 2.23-.377.691-.828 1.32-1.352 1.886-.526.564-1.111 1.047-1.758 1.453-.642.404-1.34.712-2.088.939-.743.216-1.524.331-2.342.331zm0-3.726c.691 0 1.32-.146 1.892-.444.576-.299 1.065-.699 1.478-1.212.413-.508.73-1.102.953-1.778.228-.673.341-1.395.341-2.151 0-.769-.116-1.493-.346-2.171-.23-.68-.55-1.276-.967-1.784-.413-.51-.908-.914-1.474-1.212-.57-.295-1.195-.444-1.877-.444-.68 0-1.302.149-1.874.444-.567.298-1.06.702-1.467 1.212-.412.508-.735 1.104-.97 1.784-.23.679-.349 1.402-.349 2.171 0 .758.119 1.478.349 2.151.235.676.559 1.27.97 1.778.408.513.901.914 1.467 1.212.571.298 1.194.444 1.874.444zm9.615-14.575h7.211v3.259h-1.649v7.462c0 .68.076 1.257.229 1.73.158.477.372.861.647 1.165.278.3.605.521.984.658.381.137.794.205 1.246.205.468 0 .893-.058 1.274-.178.387-.117.712-.319.985-.609.272-.291.482-.673.628-1.155.146-.482.222-1.09.222-1.816v-7.46h-1.912v-3.26h7.212v3.26h-1.434v6.997c0 1.265-.184 2.392-.546 3.372-.363.989-.864 1.816-1.5 2.5-.639.68-1.384 1.194-2.242 1.55-.86.355-1.777.533-2.759.533-.971 0-1.88-.173-2.726-.521-.847-.355-1.583-.863-2.213-1.535-.627-.666-1.123-1.478-1.486-2.437-.367-.954-.545-2.038-.545-3.248v-7.211h-1.625v-3.261h-.001zm18.519 0h9.511c.926 0 1.751.139 2.48.413.727.279 1.34.647 1.837 1.111.499.463.88.998 1.145 1.612.265.613.396 1.25.396 1.916 0 .609-.063 1.143-.195 1.601-.128.458-.318.866-.568 1.224-.249.356-.557.668-.918.94-.364.273-.781.521-1.245.741.4.206.759.52 1.067.943.308.423.539.969.699 1.642l.605 2.336h1.482l.023 3.501h-5.217l-.713-4.271c-.072-.504-.181-.943-.327-1.311-.146-.368-.342-.667-.584-.902-.247-.229-.546-.405-.896-.514-.353-.109-.769-.166-1.251-.166h-1.529v3.917h1.646v3.25h-7.446v-3.25h1.862v-11.47h-1.862v-3.263h-.002zm5.8 3.259v4.353h2.359c.45 0 .856-.038 1.217-.121.36-.082.667-.215.924-.393s.454-.401.594-.668c.139-.271.208-.589.208-.963 0-.694-.25-1.237-.748-1.625-.498-.387-1.231-.578-2.195-.578h-2.359v-.005zm22.976-3.259h6.832v3.259h-1.459v14.721h-3.938l-7.482-11.626v8.377h1.507v3.249h-6.819v-3.249h1.481v-11.468h-1.46v-3.262h5.435l7.435 11.775v-8.513h-1.531v-3.263h-.001zm17.302 14.731h1.791l-.809-2.588h-5.525l-.807 2.588h1.899v3.249h-6.821v-3.249h1.339l4.898-14.731h4.757l4.79 14.731h1.308v3.249h-6.819v-3.249zm-3.605-5.622h3.627l-1.824-5.851-1.803 5.851zm20.555 5.622h1.792l-.803-2.588h-5.532l-.802 2.588h1.894v3.249h-6.818v-3.249h1.341l4.899-14.731h4.751l4.795 14.731h1.302v3.249h-6.82v-3.249zm-3.603-5.622h3.628l-1.826-5.851-1.802 5.851zm11.309-9.109h7.694v3.259h-1.892v11.472h3.91c.103 0 .203-.033.305-.09.097-.06.186-.136.259-.231.073-.095.134-.196.185-.31.048-.109.072-.217.072-.318v-2.409h3.837v6.608h-14.37v-3.249h1.861v-11.469h-1.861v-3.263z"/></svg>