<svg xmlns="http://www.w3.org/2000/svg" viewBox="0 0 480 360"><g><path d="M216.342 193.586c0 8.688-1.372 14.688-4.115 18.002-3.086 3.659-8.803 5.486-17.145 5.486h-23.146v-139.215h26.403c12.001 0 18.002 6.574 18.002 19.716v24.86c0 9.146-2.802 15.43-8.401 18.859 5.599 2.858 8.401 8.744 8.401 17.659v34.633zm-19.031-63.76v-32.441c0-3.188-1.372-4.782-4.115-4.782h-2.229v41.833h2.229c2.743.001 4.115-1.534 4.115-4.61zm0 67.89v-42.208c0-3.188-1.372-4.784-4.115-4.784h-2.229v51.605h2.229c2.743.001 4.115-1.537 4.115-4.613zM271.032 217.074h-19.031v-55.034c0-3.199-1.371-4.8-4.114-4.8h-2.229v59.834h-19.03v-139.215h26.402c7.085 0 11.857 1.658 14.316 4.972 2.457 3.316 3.686 9.716 3.686 19.202v26.917c0 9.03-2.858 15.318-8.572 18.859 5.714 2.973 8.572 8.859 8.572 17.659v51.606zm-19.031-80.735v-38.951c0-3.188-1.371-4.785-4.114-4.785h-2.229v48.348h2.229c2.743.001 4.114-1.537 4.114-4.612zM340.579 97.975h-17.402v118.927h-19.031v-118.432l-20.046.246v-20.857h56.479v20.116z"/><path d="M113.745 225.617c-2.708 0-4.745-1.402-5.316-3.659-.498-1.973-.165-4.013.939-5.746 1.069-1.677 2.735-2.874 4.693-3.369.53-.134 1.077-.202 1.625-.202 2.613 0 4.67 1.457 5.24 3.711.481 1.905.206 3.892-.774 5.593-.998 1.731-2.601 2.951-4.513 3.434-.622.158-1.26.238-1.894.238zM113.745 224.617c.552 0 1.107-.069 1.648-.206 1.648-.417 3.03-1.469 3.892-2.963.85-1.476 1.088-3.198.671-4.849-.454-1.795-2.13-2.956-4.27-2.956-.465 0-.93.058-1.38.171-1.709.432-3.163 1.475-4.095 2.937-.955 1.498-1.243 3.26-.813 4.963.453 1.79 2.119 2.903 4.347 2.903z" fill="#0B080B"/><path d="M62.037 323.113c-2.479 0-4.272-1.466-4.918-4.021-2.449-9.693 12.055-24.998 21.035-33.352l22.292-48.781 13.245-3.346-14.775 32.45c6.342-6.031 15.182-15.021 21.944-22.644 5.752-8.614 13.968-15.882 19.556-17.294.467-.117.942-.177 1.413-.177 2.557 0 4.702 1.689 5.338 4.205 1.165 4.61-.533 12.221-4.672 21.118 5.765-4.272 21.352-25.523 24.298-30.396l.346-.769 13.68-3.455-16.675 35.116c-.876 1.766-2.276 5.551-2.586 7.035 2.032-.942 6.52-7.202 10.914-16.647l12.512-26.555 13.707-3.463-17.646 36.354c-.875 1.763-2.28 5.563-2.583 7.035 4.272-1.535 19.663-16.438 25.641-26.633 2.857-5.471 5.217-10.258 7.004-14.208-1.086-1.138-1.564-2.644-1.732-3.308-1.289-5.1 2.384-11.84 5.94-12.74.334-.084.67-.126 1-.126 1.919 0 3.472 1.428 4.053 3.727.282 1.117.216 2.496-.222 4.317 1.262-.708 2.654-1.367 4.419-1.813.408-.103.835-.155 1.272-.155 2.548 0 4.966 1.673 5.506 3.808 1.074 4.25-2.646 12.361-6.953 21.751-2.311 5.038-5.705 12.438-5.877 15.125 2.457-.994 7.928-6.886 16-20.565l-.181.046 2.57-4.182.389-.693.054-.014c6.569-10.406 18.451-22.89 22.896-24.014.604-.152 1.198-.229 1.765-.229 1.396 0 4.782.543 6.055 5.578l.044.189c3.272-4.634 7.483-9.414 11.457-10.418.544-.137 1.083-.206 1.604-.206 1.336 0 4.575.516 5.783 5.296 1.626 6.437-3.567 16.104-8.148 24.633-1.865 3.473-4.559 8.488-4.99 10.621 2.086-1.026 15.015-15.167 25.447-27.879 6.085-11.205 17.084-21.757 22.163-23.041.467-.118.951-.177 1.439-.177 1.341 0 2.654.453 3.716 1.251l.896-1.868 13.324-3.367-16.895 35.3c-.797 1.667-2.146 6.126-2.404 7.792 4.81-2.346 19.662-17.943 25.123-27.421l.151-.262c1.683-3.122 3.523-5.795 4.767-7.483 5.875-7.968 13.394-14.757 17.491-15.792.468-.118.953-.178 1.44-.178 1.341 0 2.653.453 3.716 1.25l.896-1.868 13.324-3.365-16.895 35.299c-.803 1.678-2.165 6.186-2.409 7.825 4.384-1.781 16.036-11.378 22.479-20.097 2.283-7.953 6.527-18.459 11.66-28.865 3.8-7.703 16.941-33.021 26.49-35.434.413-.104.838-.157 1.264-.157 2.321 0 4.329 1.533 4.883 3.727 1.241 4.916-1.872 12.504-9.519 23.201-6.456 9.031-14.024 17.259-16.377 19.759-7.042 15.792-11.529 27.676-12.182 30.644 4.223-1.535 13.296-13.969 19.863-25.184l.422-.723 7.339-1.854-2.347 4.089c-1.589 2.77-15.771 27.125-24.302 29.281-.654.165-1.326.248-1.996.248-2.664 0-5.865-1.401-6.858-5.335-.245-.971-.332-2.146-.26-3.555-4.642 4.813-14.635 14.642-20.095 16.021-.649.164-1.319.247-1.991.247-3.326 0-5.89-1.967-6.69-5.132l-.041-.166c-2.802 3.989-6.41 8.14-9.737 8.981-.521.131-1.049.197-1.571.197-3.142 0-5.936-2.375-6.794-5.775-.409-1.62-.579-3.362-.509-5.206-6.09 7.456-15.134 17.583-20.274 18.883-.649.164-1.319.247-1.991.247-3.327 0-5.89-1.967-6.69-5.132l-.041-.167c-2.802 3.99-6.411 8.141-9.737 8.982-.519.131-1.048.197-1.572.197-3.142 0-5.935-2.375-6.794-5.774-.427-1.692-.595-3.516-.501-5.45-.516.61-1.03 1.215-1.543 1.812-9.335 10.868-15.698 16.791-18.91 17.603-.667.168-1.321.253-1.947.253-3.051 0-5.466-2.058-6.303-5.37-2.335-9.244 4.75-21.113 9.438-28.967.846-1.417 2.161-3.62 2.986-5.221-3.627 3.504-10.138 13.583-12.888 19.351l-11.605 23.864-13.654 3.451 18.946-39.731.348-.72c.365-.738.739-1.492.871-2.217-3.467 2.381-12.386 10.757-18.09 20.021-6.859 12.255-16.44 27.254-23.012 28.917-.84.211-1.74.323-2.604.323-3.67 0-6.362-1.979-7.2-5.292-2.41-9.541 4.9-21.941 9.738-30.147.531-.902 1.09-1.85 1.594-2.733-1.094.728-2.375 1.503-3.897 2.104-1.334 3.002-3.081 6.635-5.313 11.05l.293-.074-2.337 4.072-.383.744-.099.024c-3.374 5.06-21.659 27.981-29.58 29.982-.651.165-1.323.248-1.996.248-2.421 0-5.286-1.158-6.534-4.323-2.976 4.281-5.728 6.698-8.377 7.368-.652.164-1.323.248-1.995.248-2.665 0-5.865-1.401-6.859-5.335-1.109-4.391-.509-8.128 2.385-14.689-6.121 7.642-10.673 11.873-13.57 12.605-.942.238-1.786.354-2.579.354-.233 0-.463-.011-.688-.032-4.46 7.854-11.114 16.524-16.825 17.967-.531.134-1.077.202-1.621.202-3.133 0-5.981-2.273-6.772-5.405-.83-3.286-.896-6.851-.199-10.635-7.064 7.076-14.997 14.024-20.498 18.508l-7.272 16.018c-5.433 11.885-13.685 26.499-22.148 28.638-.67.165-1.306.25-1.896.25zm8.806-21.283c-5.327 7.056-8.189 13.114-8.412 15.674 1.215-1.062 3.473-5.15 4.382-6.796l4.03-8.878zm70.101-69.664c-4.023 4.676-18.675 30.972-18.801 37.454 2.66-1.515 7.267-7.081 12.177-16.891.321-.642.574-1.242 1.513-3.475.646-1.534 1.607-3.818 3.125-7.385 1.752-4.117 2.244-7.756 1.986-9.703zm181.669-46.349l-.063.009c-.858.354-4.877 5.278-11.08 17.55-5.142 10.174-7.382 16.737-7.783 19.144 2.558-2.018 7.656-9.291 8.364-10.845l9.114-19.211c1.325-2.695 1.85-5.763 1.718-6.34-.046-.18-.157-.307-.27-.307zm47.542-12.019c-3.248 1.05-18.154 30.387-18.915 36.736 2.541-1.955 7.707-9.322 8.419-10.888l9.114-19.212c1.325-2.695 1.849-5.762 1.718-6.339-.045-.181-.156-.307-.269-.307l-.067.01zm59.992-44.892c-2.5 2.048-7.374 10.846-12.25 21.988 6.49-9.244 11.689-18.495 12.25-21.988z" fill="#fff"/><path d="M425.542 149.123c7.361-10.297 10.511-17.826 9.362-22.375-.442-1.75-2.051-2.972-3.913-2.972-.343 0-.686.042-1.019.126-7.258 1.834-18.106 19.234-25.838 34.907-4.742 9.612-9.227 20.381-11.645 28.871-6.585 8.981-19.554 19.757-23.838 20.839l-.198.029c-.057 0-.231 0-.374-.562-.214-1.038 1.618-7.016 2.525-8.913l15.974-33.375-10.802 2.729-1.289 2.688c-.938-1.165-2.422-1.925-4.021-1.925-.405 0-.808.05-1.195.147-3.835.969-11.272 7.741-16.931 15.416-1.433 1.944-3.147 4.5-4.706 7.389l-.151.263c-5.547 9.625-21.856 26.986-26.442 28.145l-.198.029c-.058 0-.232 0-.374-.562-.213-1.037 1.618-7.016 2.526-8.914l15.974-33.376-10.802 2.729-1.289 2.688c-.938-1.165-2.422-1.926-4.022-1.926-.405 0-.807.049-1.194.147-4.584 1.159-15.413 11.238-21.574 22.631-9.808 11.957-23.98 27.736-26.109 28.321-.34.086-.61.127-.827.127-.209 0-.299-.041-.348-.145-.44-1.742 2.382-6.996 5.112-12.078 4.496-8.369 9.591-17.855 8.06-23.916-.999-3.951-3.444-4.541-4.813-4.541-.439 0-.896.059-1.359.176-4.526 1.144-9.579 7.895-12.624 12.601.126-1.347.094-2.363-.091-3.096-1.061-4.196-3.641-4.823-5.085-4.823-.484 0-.996.067-1.52.199-3.915.99-15.663 12.924-22.507 23.915l-.027.007-.199.354-1.28 2.083.104-.026c-7.774 13.49-14.654 22.317-18.139 23.197-.182.046-.341.069-.476.069-.258 0-.323-.049-.383-.289-.575-2.276 2.866-9.779 5.902-16.398 4.052-8.835 7.88-17.181 6.893-21.089-.426-1.684-2.461-3.053-4.537-3.053-.355 0-.701.042-1.027.124-2.359.596-4.047 1.617-5.681 2.604l-.661.397c.984-2.911 1.271-4.879.93-6.23-.47-1.861-1.623-2.972-3.083-2.972-.247 0-.5.032-.754.096-2.806.709-6.441 6.672-5.215 11.525.3 1.188.955 2.534 1.973 3.298-1.825 4.087-4.295 9.117-7.352 14.969-5.949 10.146-22.013 26.038-26.515 27.176-.162.041-.311.062-.441.062-.297 0-.489-.079-.591-.479-.206-1.01 1.874-6.384 2.727-8.103l16.708-34.422-11.166 2.822-12.308 26.123c-4.369 9.39-9.347 16.661-11.837 17.291-.163.041-.311.062-.442.062-.296 0-.487-.079-.588-.479-.207-1.01 1.873-6.385 2.73-8.111l15.764-33.197-6.676 1.687-4.41 1.114-.067.017-.171.381c-2.723 4.534-21.491 30.417-26.235 31.615-.314.08-.629.125-.938.136 4.766-9.541 6.888-17.959 5.692-22.694-.522-2.063-2.277-3.45-4.369-3.45-.389 0-.782.049-1.168.146-5.053 1.277-13.135 8.12-19.007 16.936-7.778 8.772-19.094 20.19-25.72 26.168l15.985-35.107-10.762 2.719-22.176 48.525c-7.211 6.693-23.31 22.941-20.892 32.51.532 2.106 1.934 3.267 3.948 3.267.507 0 1.061-.075 1.645-.222 8.078-2.042 16.141-16.396 21.482-28.082l7.369-16.231c5.684-4.622 15.223-12.945 23.135-21.169-1.37 4.591-1.769 9.271-.656 13.678.681 2.694 3.122 4.65 5.803 4.65.462 0 .925-.058 1.376-.171 5.576-1.409 12.291-10.46 16.536-18.087.385.081.794.121 1.223.121.708 0 1.471-.105 2.333-.323 4.191-1.059 11.891-10.43 18.278-19.12l-3.41 7.577c-2.908 6.521-3.531 10.143-2.468 14.352.854 3.377 3.601 4.58 5.889 4.58.59 0 1.179-.074 1.75-.218 2.752-.696 5.729-3.604 9.052-8.858.049.426.122.827.216 1.203.854 3.376 3.602 4.58 5.888 4.58.59 0 1.179-.073 1.751-.218 7.519-1.899 26.09-24.957 29.202-29.889l.042-.01.196-.38 1.163-2.026-.141.036c2.799-5.476 4.924-9.867 6.457-13.346 2.07-.752 3.709-1.881 5.044-2.8.81-.558 1.535-1.057 2.16-1.338-.438 1.217-1.942 3.767-3.294 6.062-4.754 8.065-11.938 20.252-9.629 29.394.729 2.884 3 4.538 6.23 4.538.785 0 1.601-.102 2.359-.292 6.552-1.657 16.843-18.536 22.405-28.471 6.465-10.5 17.349-20.33 19.781-21.093.036.058.083.154.116.286.35 1.385-.33 2.759-.93 3.972l-.341.707-18.03 37.81 11.14-2.815 11.398-23.438c3.117-6.539 11.913-20.254 15.27-21.104.06 0 .228.087.268.247.187.866-2.065 4.637-3.874 7.667-4.604 7.713-11.562 19.368-9.328 28.211.73 2.89 2.724 4.615 5.333 4.615.544 0 1.117-.075 1.702-.223 3.748-.947 12.073-9.922 18.397-17.284 1.229-1.43 2.469-2.905 3.699-4.391-.556 2.921-.598 5.776.074 8.436.747 2.955 3.142 5.02 5.825 5.02.441 0 .888-.056 1.327-.167 3.746-.947 8.104-6.875 10.545-10.635.08.848.228 1.675.447 2.544.693 2.741 2.832 4.377 5.721 4.377.589 0 1.177-.073 1.746-.216 5.079-1.283 15.059-12.6 21.9-21.224-.515 2.779-.581 5.587.098 8.272.746 2.956 3.141 5.02 5.825 5.02.441 0 .888-.057 1.326-.167 3.746-.947 8.105-6.875 10.546-10.634.08.848.228 1.674.447 2.543.693 2.741 2.831 4.377 5.72 4.377.59 0 1.177-.073 1.746-.216 5.008-1.266 14.953-10.675 21.661-17.9-.408 2.547-.47 4.659-.091 6.158.853 3.377 3.601 4.58 5.889 4.58.59 0 1.179-.074 1.75-.218 8.265-2.089 23.055-27.718 23.68-28.809l1.173-2.044-4.646 1.173-.211.362c-5.661 9.667-15.865 24.499-20.778 25.74-.162.041-.311.062-.442.062-.297 0-.488-.079-.583-.448-.194-1.772 5.484-16.351 12.415-31.88 2.35-2.503 9.919-10.714 16.405-19.787zm5.582-21.42c.896 3.542-8.47 19.04-17.343 30.451 5.469-13.727 13.388-29.766 16.858-30.643l.215-.03c.168 0 .227.048.27.222zm-61.447 53.16l-9.107 19.197c-.684 1.502-7.254 11.233-9.89 11.898l-.114.016c-.059 0-.196 0-.285-.352-1.126-4.458 15.751-37.815 19.63-38.795.104-.026.209-.04.312-.04.58 0 1.078.427 1.239 1.063.226.901-.42 4.236-1.785 7.013zm-47.609 12.03l-9.107 19.196c-.684 1.503-7.256 11.234-9.891 11.899l-.114.016c-.059 0-.196 0-.285-.352-.416-1.643 2.214-9.466 7.906-20.727 5.685-11.248 10.283-17.704 11.723-18.067.104-.027.21-.04.312-.04.58 0 1.078.427 1.239 1.062.229.9-.418 4.236-1.783 7.013zm-180.866 37.722c.147 0 .492.292.612.769.5 1.977.095 6.106-1.935 10.875-1.518 3.565-2.479 5.848-3.124 7.381-.95 2.257-1.205 2.864-1.541 3.535-4.909 9.808-10.41 16.954-13.696 17.783-.046 0-.218-.13-.277-.366-1.501-5.94 17.152-38.604 19.942-39.976l.019-.001zm-66.32 64.737l-7.194 15.838c-1.574 2.85-3.953 7.156-5.389 7.521-.286 0-.814-.376-.866-.56-.325-3.187 4.691-13.008 13.449-22.799z" fill="#0B080B"/></g></svg>
