<svg xmlns="http://www.w3.org/2000/svg"   viewBox="0 0 480 360"><g><path d="M216.342 194.068c0 8.688-1.372 14.688-4.115 18.002-3.086 3.658-8.803 5.486-17.145 5.486h-23.146v-139.214h26.403c12.001 0 18.002 6.574 18.002 19.716v24.86c0 9.146-2.802 15.43-8.401 18.859 5.599 2.858 8.401 8.744 8.401 17.659l.001 34.632zm-19.031-63.759v-32.441c0-3.188-1.372-4.782-4.115-4.782h-2.229v41.833h2.229c2.743 0 4.115-1.535 4.115-4.61zm0 67.89v-42.208c0-3.188-1.372-4.784-4.115-4.784h-2.229v51.605h2.229c2.743 0 4.115-1.539 4.115-4.613zM271.031 217.557h-19.03v-55.035c0-3.199-1.371-4.8-4.114-4.8h-2.229v59.834h-19.031v-139.214h26.402c7.086 0 11.856 1.658 14.316 4.972 2.456 3.316 3.686 9.716 3.686 19.202v26.917c0 9.03-2.857 15.318-8.572 18.859 5.715 2.973 8.572 8.859 8.572 17.659v51.606zm-19.03-80.736v-38.95c0-3.188-1.371-4.785-4.114-4.785h-2.229v48.348h2.229c2.743 0 4.114-1.538 4.114-4.613zM340.579 98.458h-17.402v118.927h-19.03v-118.433l-20.047.247v-20.857h56.479v20.116z"/><path d="M113.745 226.1c-2.708 0-4.745-1.401-5.316-3.658-.498-1.975-.165-4.014.939-5.746 1.069-1.678 2.735-2.873 4.693-3.368.53-.134 1.077-.201 1.625-.201 2.613 0 4.67 1.456 5.24 3.711.481 1.904.206 3.892-.774 5.593-.998 1.731-2.601 2.95-4.513 3.436-.622.153-1.26.233-1.894.233zM113.745 225.1c.552 0 1.107-.07 1.648-.207 1.648-.416 3.03-1.469 3.892-2.963.85-1.476 1.088-3.197.671-4.85-.454-1.795-2.13-2.955-4.27-2.955-.465 0-.93.057-1.38.171-1.709.433-3.163 1.476-4.095 2.937-.955 1.498-1.243 3.261-.813 4.963.453 1.79 2.119 2.904 4.347 2.904z" fill="#0B080B"/><path d="M62.037 323.596c-2.479 0-4.272-1.466-4.918-4.021-2.449-9.693 12.055-24.998 21.035-33.353l22.292-48.781 13.245-3.346-14.775 32.451c6.342-6.031 15.182-15.021 21.944-22.645 5.752-8.613 13.968-15.881 19.556-17.293.467-.117.942-.178 1.413-.178 2.557 0 4.702 1.688 5.338 4.205 1.165 4.608-.533 12.221-4.672 21.117 5.765-4.271 21.352-25.521 24.298-30.396l.346-.77 13.68-3.454-16.675 35.116c-.876 1.766-2.276 5.551-2.586 7.034 2.032-.942 6.52-7.202 10.914-16.647l12.512-26.555 13.707-3.464-17.646 36.354c-.875 1.764-2.28 5.562-2.583 7.034 4.272-1.534 19.663-16.438 25.641-26.633 2.857-5.472 5.217-10.259 7.004-14.208-1.086-1.139-1.564-2.645-1.732-3.309-1.289-5.101 2.384-11.84 5.94-12.739.334-.084.67-.127 1-.127 1.919 0 3.472 1.429 4.053 3.728.282 1.117.216 2.495-.222 4.317 1.262-.709 2.654-1.367 4.419-1.812.408-.104.835-.156 1.272-.156 2.548 0 4.966 1.674 5.506 3.809 1.074 4.251-2.646 12.361-6.953 21.752-2.311 5.038-5.705 12.438-5.877 15.125 2.457-.994 7.928-6.886 16-20.564l-.181.047 2.57-4.182.389-.693.054-.014c6.569-10.406 18.451-22.891 22.896-24.016.604-.152 1.198-.229 1.765-.229 1.396 0 4.782.543 6.055 5.576l.045.188c3.271-4.634 7.482-9.414 11.457-10.418.543-.138 1.082-.206 1.604-.206 1.336 0 4.574.518 5.783 5.296 1.625 6.438-3.567 16.104-8.148 24.633-1.865 3.474-4.56 8.488-4.99 10.621 2.086-1.024 15.015-15.167 25.447-27.879 6.085-11.205 17.084-21.758 22.162-23.041.467-.118.951-.177 1.439-.177 1.34 0 2.654.453 3.716 1.251l.896-1.869 13.324-3.367-16.895 35.3c-.797 1.668-2.146 6.127-2.404 7.793 4.811-2.348 19.662-17.943 25.123-27.422l.15-.262c1.684-3.122 3.522-5.795 4.768-7.484 5.875-7.967 13.395-14.756 17.49-15.792.469-.118.953-.178 1.44-.178 1.341 0 2.652.453 3.716 1.25l.896-1.868 13.323-3.365-16.896 35.298c-.803 1.68-2.164 6.188-2.408 7.826 4.385-1.781 16.035-11.379 22.479-20.099 2.282-7.953 6.526-18.459 11.659-28.865 3.802-7.703 16.941-33.021 26.49-35.434.414-.104.839-.157 1.265-.157 2.321 0 4.329 1.533 4.883 3.727 1.242 4.916-1.871 12.504-9.518 23.201-6.458 9.031-14.025 17.259-16.378 19.759-7.043 15.792-11.528 27.676-12.183 30.644 4.224-1.535 13.296-13.969 19.863-25.184l.423-.723 7.338-1.854-2.346 4.089c-1.59 2.77-15.771 27.125-24.303 29.28-.654.164-1.326.248-1.996.248-2.664 0-5.864-1.4-6.857-5.334-.246-.971-.332-2.146-.261-3.556-4.642 4.813-14.636 14.642-20.095 16.021-.648.163-1.318.247-1.992.247-3.325 0-5.889-1.967-6.689-5.133l-.041-.166c-2.801 3.988-6.41 8.141-9.736 8.98-.521.131-1.049.197-1.571.197-3.142 0-5.937-2.374-6.794-5.774-.409-1.62-.579-3.362-.51-5.207-6.09 7.456-15.133 17.584-20.273 18.884-.648.164-1.318.246-1.991.246-3.325 0-5.89-1.967-6.688-5.132l-.041-.167c-2.803 3.989-6.411 8.143-9.737 8.98-.519.132-1.048.197-1.571.197-3.143 0-5.936-2.373-6.795-5.772-.428-1.692-.595-3.517-.502-5.451-.516.611-1.029 1.216-1.543 1.812-9.335 10.869-15.697 16.791-18.91 17.604-.666.168-1.32.253-1.947.253-3.051 0-5.465-2.058-6.303-5.37-2.336-9.244 4.75-21.113 9.438-28.968.846-1.416 2.159-3.619 2.985-5.222-3.627 3.505-10.139 13.584-12.888 19.353l-11.604 23.863-13.654 3.45 18.945-39.73.349-.72c.364-.738.739-1.492.871-2.218-3.468 2.382-12.386 10.757-18.091 20.021-6.858 12.257-16.439 27.255-23.011 28.917-.84.211-1.74.323-2.604.323-3.67 0-6.362-1.979-7.2-5.293-2.41-9.541 4.9-21.94 9.738-30.146.531-.902 1.09-1.851 1.594-2.733-1.094.728-2.375 1.503-3.897 2.104-1.334 3.002-3.081 6.635-5.313 11.049l.293-.074-2.337 4.072-.383.744-.099.023c-3.374 5.061-21.659 27.982-29.58 29.982-.651.164-1.323.248-1.996.248-2.421 0-5.286-1.158-6.534-4.322-2.976 4.281-5.728 6.697-8.377 7.367-.652.164-1.323.248-1.995.248-2.665 0-5.865-1.4-6.859-5.334-1.109-4.392-.509-8.129 2.385-14.689-6.121 7.643-10.673 11.873-13.57 12.605-.942.237-1.786.354-2.579.354-.233 0-.463-.012-.688-.031-4.46 7.854-11.114 16.523-16.825 17.967-.531.135-1.077.201-1.621.201-3.133 0-5.981-2.271-6.772-5.404-.83-3.285-.896-6.851-.199-10.635-7.064 7.075-14.997 14.023-20.498 18.508l-7.274 16.025c-5.433 11.885-13.685 26.499-22.148 28.639-.667.172-1.303.257-1.893.257zm8.806-21.284c-5.327 7.055-8.189 13.112-8.412 15.674 1.215-1.062 3.473-5.15 4.382-6.797l4.03-8.877zm70.101-69.664c-4.023 4.676-18.675 30.972-18.801 37.453 2.66-1.517 7.267-7.082 12.177-16.892.321-.644.574-1.242 1.513-3.476.646-1.534 1.607-3.817 3.125-7.385 1.752-4.114 2.244-7.752 1.986-9.7zm181.669-46.348l-.063.009c-.858.354-4.877 5.277-11.079 17.551-5.143 10.174-7.383 16.736-7.783 19.144 2.559-2.019 7.656-9.291 8.363-10.845l9.113-19.211c1.325-2.694 1.85-5.764 1.719-6.342-.046-.18-.156-.306-.27-.306zm47.541-12.02c-3.248 1.05-18.153 30.387-18.914 36.736 2.539-1.955 7.707-9.322 8.419-10.888l9.114-19.212c1.324-2.695 1.85-5.762 1.718-6.339-.046-.181-.156-.307-.269-.307l-.068.01zm59.993-44.891c-2.501 2.048-7.374 10.846-12.251 21.988 6.491-9.244 11.69-18.496 12.251-21.988z" fill="#fff"/><path d="M425.541 149.605c7.361-10.297 10.512-17.826 9.363-22.375-.442-1.75-2.052-2.972-3.914-2.972-.342 0-.687.042-1.019.126-7.258 1.834-18.105 19.234-25.839 34.907-4.742 9.612-9.229 20.381-11.646 28.871-6.584 8.98-19.553 19.757-23.838 20.839l-.196.029c-.058 0-.231 0-.374-.562-.214-1.038 1.617-7.016 2.525-8.913l15.974-33.375-10.802 2.729-1.289 2.688c-.938-1.165-2.422-1.925-4.021-1.925-.405 0-.809.05-1.194.147-3.836.969-11.271 7.741-16.932 15.416-1.433 1.943-3.146 4.5-4.706 7.39l-.149.265c-5.547 9.625-21.857 26.984-26.442 28.145l-.198.027c-.056 0-.23 0-.373-.562-.214-1.037 1.617-7.017 2.525-8.914l15.975-33.376-10.803 2.729-1.289 2.688c-.938-1.164-2.422-1.926-4.021-1.926-.404 0-.807.05-1.193.147-4.585 1.158-15.413 11.237-21.573 22.631-9.809 11.957-23.979 27.735-26.108 28.32-.34.086-.611.127-.827.127-.21 0-.3-.041-.349-.145-.439-1.741 2.383-6.996 5.111-12.077 4.495-8.369 9.591-17.854 8.061-23.916-.998-3.951-3.443-4.541-4.812-4.541-.439 0-.896.06-1.359.176-4.524 1.144-9.578 7.896-12.623 12.601.125-1.346.094-2.362-.092-3.096-1.062-4.195-3.642-4.822-5.086-4.822-.484 0-.994.066-1.52.199-3.914.989-15.663 12.924-22.507 23.914l-.027.008-.199.354-1.28 2.083.104-.026c-7.774 13.489-14.654 22.316-18.139 23.196-.182.046-.341.069-.476.069-.258 0-.323-.049-.383-.289-.575-2.276 2.866-9.778 5.902-16.398 4.052-8.835 7.88-17.181 6.893-21.089-.426-1.685-2.461-3.054-4.537-3.054-.355 0-.701.042-1.027.124-2.359.596-4.047 1.616-5.681 2.604l-.661.397c.984-2.911 1.271-4.879.93-6.229-.47-1.861-1.623-2.974-3.083-2.974-.247 0-.5.033-.754.097-2.806.711-6.441 6.674-5.215 11.524.3 1.188.955 2.534 1.973 3.299-1.825 4.086-4.295 9.117-7.352 14.97-5.949 10.146-22.013 26.036-26.515 27.176-.162.041-.311.062-.441.062-.297 0-.489-.079-.591-.479-.206-1.01 1.874-6.383 2.727-8.103l16.708-34.423-11.166 2.822-12.308 26.123c-4.369 9.39-9.347 16.66-11.837 17.291-.163.041-.311.061-.442.061-.296 0-.487-.078-.588-.479-.207-1.01 1.873-6.385 2.73-8.111l15.764-33.197-6.676 1.688-4.41 1.113v.002l-.067.017-.171.381c-2.723 4.533-21.491 30.416-26.235 31.615-.314.079-.629.125-.938.137 4.766-9.541 6.888-17.959 5.692-22.694-.522-2.062-2.277-3.449-4.369-3.449-.389 0-.782.05-1.168.146-5.053 1.276-13.135 8.12-19.007 16.937-7.778 8.772-19.094 20.19-25.72 26.168l15.985-35.106-10.762 2.719-22.176 48.525c-7.211 6.692-23.31 22.939-20.892 32.51.532 2.106 1.934 3.267 3.948 3.267.507 0 1.061-.073 1.645-.223 8.078-2.041 16.141-16.396 21.482-28.082l7.369-16.23c5.684-4.621 15.223-12.944 23.135-21.17-1.37 4.593-1.769 9.271-.656 13.68.681 2.693 3.122 4.648 5.803 4.648.462 0 .925-.057 1.376-.17 5.576-1.41 12.291-10.461 16.536-18.088.385.08.794.121 1.223.121.708 0 1.471-.105 2.333-.322 4.191-1.061 11.891-10.431 18.278-19.121l-3.41 7.578c-2.908 6.521-3.531 10.143-2.468 14.352.854 3.377 3.601 4.58 5.889 4.58.59-.002 1.179-.073 1.75-.219 2.752-.694 5.729-3.604 9.052-8.857.049.426.122.826.216 1.203.854 3.376 3.602 4.578 5.888 4.578.59 0 1.179-.071 1.751-.217 7.519-1.899 26.09-24.957 29.202-29.889l.042-.011.196-.38 1.163-2.026-.141.036c2.799-5.477 4.924-9.867 6.457-13.346 2.07-.752 3.709-1.881 5.044-2.801.81-.558 1.535-1.058 2.16-1.338-.438 1.217-1.942 3.768-3.294 6.062-4.754 8.063-11.938 20.252-9.629 29.394.729 2.885 3 4.538 6.23 4.538.785 0 1.601-.103 2.359-.293 6.552-1.655 16.843-18.534 22.405-28.471 6.465-10.5 17.35-20.33 19.781-21.095.035.059.082.154.115.287.351 1.385-.33 2.758-.93 3.972l-.343.706-18.028 37.81 11.14-2.813 11.397-23.438c3.116-6.538 11.912-20.254 15.27-21.104.061 0 .229.088.27.248.187.865-2.065 4.637-3.875 7.668-4.604 7.713-11.562 19.367-9.326 28.211.729 2.891 2.724 4.615 5.332 4.615.545 0 1.117-.076 1.703-.224 3.748-.947 12.072-9.922 18.396-17.284 1.229-1.431 2.469-2.904 3.697-4.392-.555 2.922-.598 5.776.074 8.436.748 2.955 3.143 5.021 5.825 5.021.441 0 .888-.057 1.326-.166 3.746-.947 8.104-6.877 10.545-10.635.08.848.229 1.674.447 2.543.692 2.742 2.832 4.377 5.721 4.377.591 0 1.179-.072 1.746-.215 5.078-1.283 15.06-12.602 21.899-21.226-.516 2.779-.579 5.588.099 8.272.746 2.955 3.142 5.02 5.824 5.02.44 0 .889-.057 1.325-.167 3.746-.946 8.105-6.875 10.548-10.635.079.848.228 1.675.446 2.544.692 2.74 2.83 4.378 5.721 4.378.59 0 1.177-.073 1.746-.217 5.008-1.267 14.951-10.675 21.66-17.9-.407 2.547-.471 4.659-.092 6.158.854 3.377 3.603 4.58 5.889 4.58.591 0 1.181-.074 1.752-.218 8.265-2.09 23.055-27.718 23.681-28.81l1.173-2.044-4.646 1.173-.211.362c-5.66 9.667-15.865 24.499-20.777 25.74-.162.039-.311.062-.441.062-.297 0-.488-.079-.584-.448-.193-1.771 5.484-16.351 12.416-31.879 2.345-2.503 9.916-10.715 16.4-19.788zm5.583-21.42c.896 3.542-8.47 19.04-17.343 30.451 5.469-13.727 13.389-29.766 16.856-30.643l.216-.03c.169 0 .227.048.271.222zm-61.447 53.161l-9.106 19.197c-.684 1.502-7.254 11.232-9.891 11.898l-.113.016c-.06 0-.196 0-.285-.352-1.127-4.459 15.751-37.815 19.63-38.795.104-.026.209-.04.312-.04.58 0 1.078.427 1.238 1.063.226.901-.42 4.236-1.785 7.013zm-47.609 12.029l-9.107 19.195c-.684 1.504-7.256 11.234-9.891 11.9l-.113.016c-.059 0-.197 0-.285-.353-.416-1.644 2.215-9.467 7.906-20.728 5.686-11.248 10.283-17.704 11.723-18.067.104-.026.21-.04.312-.04.58 0 1.078.428 1.238 1.062.229.902-.417 4.238-1.783 7.015zm-180.866 37.723c.147 0 .492.293.612.771.5 1.978.095 6.104-1.935 10.875-1.518 3.563-2.479 5.848-3.124 7.381-.95 2.258-1.205 2.864-1.541 3.535-4.909 9.808-10.41 16.952-13.696 17.782-.046 0-.218-.129-.277-.364-1.501-5.94 17.152-38.604 19.942-39.978l.019-.002zm-66.32 64.736l-7.194 15.839c-1.574 2.851-3.953 7.156-5.389 7.521-.286 0-.814-.376-.866-.56-.325-3.188 4.691-13.009 13.449-22.8z" fill="#0B080B"/></g></svg>
