<svg xmlns="http://www.w3.org/2000/svg" viewBox="0 0 800 600"><path d="M370.428 241.982c0 10.859-1.715 18.359-5.144 22.502-3.857 4.574-11.004 6.857-21.431 6.857h-28.933v-174.017h33.004c15.001 0 22.502 8.217 22.502 24.645v31.075c0 11.432-3.502 19.287-10.501 23.574 6.999 3.572 10.501 10.93 10.501 22.074v43.291h.002zm-23.789-79.699v-40.551c0-3.985-1.715-5.978-5.144-5.978h-2.786v52.291h2.786c3.429.001 5.144-1.918 5.144-5.762zm0 84.862v-52.76c0-3.985-1.715-5.98-5.144-5.98h-2.786v64.506h2.786c3.429.001 5.144-1.921 5.144-5.766zm92.151 24.197h-23.788v-68.792c0-3.999-1.715-6-5.143-6h-2.787v74.792h-23.787v-174.018h33.002c8.856 0 14.821 2.073 17.896 6.215 3.071 4.145 4.607 12.145 4.607 24.002v33.646c0 11.288-3.572 19.147-10.715 23.574 7.143 3.716 10.715 11.074 10.715 22.074v64.507zm-23.788-100.918v-48.689c0-3.985-1.715-5.981-5.143-5.981h-2.787v60.435h2.787c3.428.001 5.143-1.921 5.143-5.765zm110.722-47.955h-21.752v148.658h-23.789v-148.04l-25.058.308v-26.071h70.599v25.145z"/><path fill="#0B080B" d="M242.181 282.021c-3.385 0-5.931-1.753-6.645-4.574-.623-2.466-.206-5.016 1.174-7.182 1.336-2.097 3.419-3.594 5.866-4.212.663-.167 1.346-.253 2.031-.253 3.266 0 5.837 1.822 6.55 4.639.601 2.382.257 4.865-.968 6.992-1.248 2.164-3.251 3.688-5.641 4.292-.777.199-1.574.298-2.367.298z"/><path fill="#fff" d="M177.546 403.892c-3.099 0-5.34-1.833-6.147-5.026-3.062-12.116 15.068-31.248 26.293-41.69l27.865-60.976 16.556-4.184-18.469 40.563c7.927-7.539 18.978-18.776 27.43-28.306 7.19-10.768 17.46-19.852 24.445-21.617.583-.146 1.177-.221 1.766-.221 3.196 0 5.877 2.111 6.673 5.256 1.456 5.762-.667 15.276-5.84 26.397 7.207-5.34 26.69-31.903 30.373-37.995l.433-.961 17.1-4.318-20.844 43.895c-1.095 2.207-2.845 6.938-3.233 8.794 2.54-1.178 8.15-9.003 13.643-20.81l15.64-33.193 17.134-4.328-22.058 45.441c-1.094 2.204-2.85 6.954-3.229 8.794 5.34-1.919 24.579-20.547 32.051-33.291 3.571-6.839 6.521-12.822 8.755-17.76-1.357-1.423-1.955-3.306-2.165-4.136-1.611-6.375 2.98-14.799 7.425-15.924.418-.105.838-.158 1.25-.158 2.399 0 4.34 1.785 5.066 4.658.353 1.396.27 3.121-.277 5.396 1.577-.885 3.317-1.709 5.523-2.266.51-.129 1.044-.193 1.59-.193 3.185 0 6.208 2.091 6.882 4.76 1.343 5.312-3.308 15.451-8.691 27.188-2.889 6.298-7.131 15.548-7.346 18.906 3.071-1.242 9.91-8.607 20-25.706l-.226.057 3.212-5.227.486-.867.067-.018c8.211-13.007 23.064-28.611 28.62-30.017.756-.19 1.498-.286 2.207-.286 1.745 0 5.978.678 7.568 6.973l.055.236c4.091-5.793 9.354-11.768 14.321-13.023.681-.171 1.354-.258 2.006-.258 1.67 0 5.719.646 7.229 6.621 2.032 8.046-4.459 20.129-10.186 30.791-2.331 4.341-5.698 10.609-6.237 13.275 2.607-1.281 18.769-18.958 31.809-34.848 7.606-14.007 21.355-27.197 27.704-28.802.584-.147 1.188-.221 1.799-.221 1.676 0 3.317.566 4.645 1.564l1.12-2.335 16.655-4.209-21.119 44.125c-.996 2.084-2.683 7.657-3.005 9.74 6.013-2.933 24.578-22.429 31.404-34.276l.188-.328c2.104-3.902 4.403-7.243 5.959-9.354 7.344-9.96 16.742-18.446 21.863-19.74.585-.147 1.191-.223 1.8-.223 1.677 0 3.316.566 4.646 1.562l1.12-2.335 16.654-4.206-21.118 44.124c-1.004 2.098-2.706 7.732-3.012 9.781 5.48-2.226 20.045-14.222 28.099-25.121 2.854-9.941 8.159-23.074 14.575-36.081 4.75-9.629 21.177-41.276 33.112-44.293.517-.13 1.048-.196 1.58-.196 2.901 0 5.412 1.916 6.104 4.659 1.551 6.145-2.341 15.63-11.899 29.001-8.069 11.289-17.529 21.574-20.471 24.699-8.803 19.74-14.411 34.595-15.228 38.305 5.278-1.919 16.62-17.462 24.828-31.48l.528-.904 9.173-2.317-2.934 5.111c-1.986 3.462-19.714 33.906-30.377 36.601-.817.207-1.657.311-2.495.311-3.33 0-7.331-1.752-8.572-6.669-.307-1.214-.415-2.683-.325-4.443-5.803 6.017-18.294 18.302-25.119 20.026-.812.205-1.648.309-2.488.309-4.157 0-7.362-2.459-8.362-6.415l-.052-.208c-3.503 4.986-8.013 10.176-12.171 11.227-.651.164-1.312.246-1.964.246-3.928 0-7.42-2.969-8.493-7.219-.511-2.025-.724-4.202-.636-6.508-7.612 9.32-18.918 21.979-25.343 23.604-.811.204-1.648.309-2.488.309-4.159 0-7.362-2.459-8.362-6.415l-.052-.209c-3.502 4.988-8.014 10.176-12.171 11.228-.649.164-1.311.247-1.965.247-3.928 0-7.419-2.969-8.493-7.219-.533-2.114-.743-4.395-.626-6.812-.646.764-1.287 1.52-1.929 2.266-11.669 13.585-19.623 20.988-23.638 22.004-.834.21-1.651.316-2.434.316-3.813 0-6.833-2.572-7.879-6.713-2.919-11.555 5.938-26.391 11.798-36.209 1.058-1.771 2.701-4.525 3.732-6.525-4.534 4.379-12.673 16.979-16.11 24.188l-14.506 29.831-17.068 4.313 23.683-49.664.435-.9c.456-.922.924-1.864 1.089-2.771-4.334 2.976-15.482 13.446-22.612 25.026-8.574 15.318-20.55 34.067-28.765 36.146-1.05.265-2.175.404-3.255.404-4.587 0-7.952-2.474-9-6.615-3.012-11.927 6.125-27.427 12.173-37.684.664-1.128 1.362-2.312 1.992-3.416-1.367.909-2.969 1.878-4.871 2.63-1.667 3.752-3.851 8.293-6.641 13.812l.366-.093-2.921 5.091-.479.93-.124.029c-4.217 6.325-27.074 34.977-36.975 37.478-.813.207-1.654.311-2.495.311-3.026 0-6.608-1.447-8.168-5.404-3.72 5.352-7.16 8.373-10.471 9.21-.815.205-1.654.311-2.494.311-3.331 0-7.331-1.752-8.574-6.669-1.386-5.489-.636-10.16 2.981-18.361-7.651 9.553-13.341 14.841-16.962 15.757-1.178.297-2.233.442-3.224.442-.291 0-.579-.014-.86-.04-5.575 9.817-13.893 20.654-21.031 22.458-.664.168-1.346.253-2.026.253-3.916 0-7.476-2.841-8.465-6.756-1.038-4.107-1.12-8.564-.249-13.294-8.83 8.845-18.746 17.529-25.622 23.135l-9.09 20.022c-6.791 14.856-17.106 33.124-27.685 35.798-.834.207-1.629.314-2.367.314zm11.008-26.605c-6.659 8.82-10.236 16.393-10.515 19.593 1.519-1.327 4.341-6.438 5.478-8.495l5.037-11.098zm87.626-87.08c-5.029 5.846-23.344 38.716-23.501 46.818 3.325-1.895 9.084-8.852 15.221-21.114.401-.803.718-1.553 1.891-4.344.808-1.917 2.009-4.772 3.906-9.231 2.191-5.147 2.805-9.695 2.483-12.129zm227.087-57.936l-.079.012c-1.072.441-6.097 6.597-13.85 21.938-6.428 12.717-9.228 20.92-9.729 23.93 3.198-2.523 9.57-11.614 10.455-13.557l11.393-24.014c1.656-3.369 2.312-7.203 2.147-7.925-.058-.225-.197-.384-.337-.384zm59.426-15.023c-4.06 1.312-22.692 37.984-23.644 45.92 3.177-2.444 9.634-11.652 10.524-13.61l11.392-24.015c1.657-3.369 2.312-7.203 2.147-7.924-.056-.226-.194-.384-.336-.384l-.083.013zm74.991-56.116c-3.125 2.56-9.218 13.558-15.312 27.485 8.111-11.555 14.61-23.118 15.312-27.485z"/><path fill="#0B080B" d="M631.928 186.404c9.201-12.871 13.139-22.283 11.702-27.969-.553-2.188-2.563-3.715-4.892-3.715-.429 0-.857.052-1.273.157-9.072 2.292-22.633 24.042-32.297 43.634-5.928 12.015-11.534 25.476-14.557 36.088-8.231 11.227-24.442 24.697-29.798 26.049l-.247.037c-.071 0-.289 0-.468-.703-.268-1.297 2.022-8.77 3.156-11.141l19.968-41.719-13.503 3.411-1.611 3.36c-1.172-1.456-3.027-2.406-5.026-2.406-.506 0-1.01.062-1.493.184-4.794 1.211-14.09 9.676-21.164 19.27-1.791 2.43-3.934 5.625-5.882 9.236l-.189.328c-6.934 12.031-27.319 33.732-33.053 35.182l-.247.036c-.072 0-.29 0-.468-.702-.266-1.297 2.022-8.77 3.158-11.143l19.967-41.72-13.502 3.412-1.611 3.359c-1.173-1.456-3.027-2.407-5.027-2.407-.507 0-1.009.062-1.493.185-5.729 1.448-19.266 14.047-26.967 28.288-12.261 14.946-29.976 34.67-32.637 35.401-.425.107-.763.158-1.033.158-.262 0-.374-.051-.436-.181-.55-2.178 2.978-8.745 6.39-15.098 5.62-10.462 11.989-22.319 10.075-29.896-1.248-4.938-4.305-5.676-6.016-5.676-.549 0-1.12.074-1.699.22-5.657 1.431-11.974 9.869-15.78 15.751.158-1.684.118-2.953-.113-3.869-1.326-5.245-4.552-6.029-6.356-6.029-.604 0-1.245.084-1.899.249-4.895 1.237-19.579 16.155-28.134 29.894l-.034.009-.249.442-1.6 2.604.13-.032c-9.717 16.862-18.317 27.896-22.674 28.996-.228.058-.426.087-.595.087-.323 0-.404-.062-.479-.361-.719-2.846 3.583-12.225 7.377-20.498 5.065-11.043 9.85-21.477 8.616-26.361-.532-2.104-3.076-3.816-5.671-3.816-.444 0-.876.053-1.284.156-2.948.744-5.059 2.021-7.101 3.254l-.826.496c1.23-3.639 1.589-6.098 1.163-7.787-.587-2.326-2.029-3.715-3.854-3.715-.309 0-.625.04-.942.12-3.507.886-8.051 8.34-6.519 14.406.375 1.485 1.194 3.167 2.466 4.122-2.281 5.109-5.369 11.396-9.19 18.711-7.436 12.684-27.516 32.548-33.144 33.971-.203.051-.389.077-.551.077-.371 0-.611-.099-.739-.599-.257-1.263 2.343-7.979 3.409-10.129l20.885-43.027-13.958 3.527-15.385 32.654c-5.461 11.737-11.684 20.826-14.796 21.613-.204.052-.389.078-.553.078-.37 0-.609-.1-.735-.6-.259-1.262 2.341-7.98 3.413-10.139l19.705-41.496-8.345 2.109-5.513 1.393-.083.021-.214.476c-3.404 5.667-26.864 38.021-32.794 39.519-.393.101-.786.156-1.172.17 5.958-11.926 8.61-22.448 7.115-28.367-.653-2.578-2.846-4.312-5.461-4.312-.486 0-.978.061-1.46.183-6.316 1.597-16.419 10.149-23.759 21.17-9.723 10.965-23.868 25.237-32.15 32.71l19.981-43.884-13.452 3.399-27.72 60.655c-9.014 8.366-29.138 28.677-26.115 40.638.665 2.633 2.417 4.084 4.935 4.084.634 0 1.327-.094 2.057-.277 10.097-2.553 20.176-20.495 26.853-35.103l9.211-20.289c7.105-5.777 19.029-16.181 28.919-26.461-1.712 5.738-2.211 11.589-.82 17.098.852 3.367 3.903 5.812 7.254 5.812.578 0 1.156-.073 1.72-.214 6.97-1.762 15.364-13.075 20.67-22.609.481.102.992.151 1.529.151.885 0 1.838-.131 2.916-.403 5.239-1.324 14.864-13.038 22.848-23.9l-4.263 9.472c-3.635 8.151-4.414 12.679-3.085 17.939 1.067 4.222 4.501 5.726 7.361 5.726.737 0 1.474-.093 2.188-.272 3.44-.87 7.161-4.505 11.315-11.073.061.533.152 1.034.27 1.504 1.067 4.221 4.502 5.726 7.36 5.726.738 0 1.474-.092 2.189-.272 9.398-2.374 32.612-31.197 36.502-37.361l.053-.013.245-.476 1.454-2.532-.176.046c3.499-6.846 6.155-12.334 8.071-16.684 2.588-.939 4.637-2.351 6.305-3.5 1.013-.697 1.919-1.32 2.7-1.672-.547 1.521-2.428 4.709-4.118 7.577-5.942 10.081-14.922 25.315-12.036 36.743.911 3.604 3.75 5.672 7.788 5.672.981 0 2.001-.127 2.949-.365 8.19-2.071 21.054-23.17 28.006-35.588 8.081-13.125 21.687-25.413 24.727-26.367.045.072.104.193.145.357.438 1.732-.412 3.449-1.162 4.965l-.426.885-22.538 47.262 13.926-3.519 14.247-29.298c3.896-8.174 14.891-25.316 19.087-26.379.075 0 .285.108.335.309.234 1.082-2.581 5.796-4.842 9.584-5.755 9.641-14.453 24.209-11.66 35.264.912 3.611 3.405 5.768 6.666 5.768.68 0 1.396-.094 2.128-.278 4.685-1.184 15.091-12.402 22.996-21.604 1.536-1.787 3.086-3.631 4.624-5.489-.695 3.651-.748 7.22.092 10.546.934 3.693 3.928 6.274 7.281 6.274.552 0 1.11-.07 1.659-.209 4.683-1.184 10.13-8.594 13.181-13.294.101 1.061.285 2.094.56 3.18.866 3.427 3.54 5.472 7.15 5.472.736 0 1.472-.091 2.183-.271 6.349-1.604 18.824-15.75 27.375-26.529-.644 3.474-.726 6.984.123 10.34.933 3.695 3.926 6.275 7.281 6.275.551 0 1.109-.071 1.657-.209 4.683-1.184 10.131-8.594 13.183-13.293.1 1.061.285 2.093.559 3.18.866 3.426 3.539 5.471 7.15 5.471.737 0 1.471-.092 2.183-.27 6.26-1.583 18.69-13.344 27.076-22.375-.511 3.184-.588 5.823-.114 7.697 1.066 4.221 4.501 5.725 7.361 5.725.737 0 1.474-.092 2.188-.272 10.331-2.61 28.819-34.647 29.601-36.011l1.466-2.555-5.808 1.466-.264.452c-7.076 12.084-19.831 30.624-25.973 32.176-.202.051-.389.076-.553.076-.371 0-.609-.098-.729-.559-.242-2.216 6.855-20.439 15.519-39.851 2.932-3.131 12.394-13.395 20.502-24.736zm6.977-26.775c1.12 4.427-10.588 23.8-21.679 38.063 6.836-17.159 16.734-37.208 21.072-38.304l.269-.038c.21.001.285.061.338.279zm-76.808 66.449l-11.384 23.997c-.855 1.878-9.068 14.041-12.363 14.872l-.143.021c-.073 0-.244 0-.355-.44-1.408-5.572 19.688-47.269 24.537-48.494.13-.032.262-.05.39-.05.726 0 1.348.534 1.549 1.329.282 1.126-.525 5.294-2.231 8.765zm-59.512 15.038l-11.384 23.995c-.854 1.879-9.07 14.043-12.363 14.873l-.143.021c-.074 0-.245 0-.356-.44-.521-2.053 2.768-11.832 9.883-25.908 7.105-14.061 12.854-22.13 14.653-22.584.13-.033.263-.05.39-.05.726 0 1.348.534 1.549 1.327.286 1.125-.523 5.295-2.229 8.766zm-226.083 47.153c.184 0 .615.365.765.962.625 2.471.119 7.632-2.419 13.594-1.897 4.456-3.099 7.31-3.905 9.226-1.188 2.821-1.506 3.58-1.926 4.419-6.136 12.26-13.013 21.192-17.12 22.229-.058 0-.272-.162-.346-.457-1.876-7.425 21.44-48.256 24.927-49.971l.024-.002zm-82.899 80.921l-8.993 19.797c-1.967 3.562-4.941 8.945-6.736 9.401-.357 0-1.017-.47-1.083-.7-.406-3.983 5.864-16.259 16.812-28.498z"/></svg>
