<svg xmlns="http://www.w3.org/2000/svg" width="150" height="122" viewBox="0 0 150 122"><path d="M64.547 58.607c0 3.012-.476 5.092-1.427 6.241-1.069 1.269-3.052 1.902-5.944 1.902h-8.026v-48.267h9.154c4.161 0 6.241 2.279 6.241 6.835v8.62c0 3.171-.971 5.35-2.913 6.539 1.941.991 2.913 3.032 2.913 6.123l.002 12.007zm-6.599-22.106v-11.248c0-1.105-.476-1.658-1.427-1.658h-.773v14.504h.773c.952.001 1.427-.532 1.427-1.598zm0 23.539v-14.635c0-1.105-.476-1.659-1.427-1.659h-.773v17.892h.773c.952.001 1.427-.532 1.427-1.598zm25.561 6.711h-6.599v-19.081c0-1.109-.476-1.664-1.426-1.664h-.773v20.745h-6.598v-48.268h9.154c2.457 0 4.111.575 4.964 1.724.852 1.15 1.278 3.369 1.278 6.658v9.333c0 3.131-.991 5.311-2.973 6.539 1.981 1.031 2.973 3.072 2.973 6.123v17.891zm-6.599-27.992v-13.505c0-1.105-.476-1.659-1.426-1.659h-.773v16.763h.773c.951 0 1.426-.533 1.426-1.599zm30.711-13.301h-6.033v41.234h-6.598v-41.063l-6.951.085v-7.231h19.582v6.975z"/><path d="M28.975 69.713c-.939 0-1.645-.486-1.843-1.269-.173-.684-.057-1.392.326-1.992.371-.582.948-.997 1.627-1.168.184-.046.374-.07.563-.07.906 0 1.619.505 1.817 1.287.167.661.071 1.349-.269 1.939-.346.6-.902 1.023-1.565 1.19-.215.056-.437.083-.656.083z" fill="#0B080B"/><path d="M11.047 103.517c-.86 0-1.481-.508-1.705-1.395-.85-3.36 4.179-8.667 7.293-11.563l7.729-16.913 4.592-1.161-5.123 11.251c2.198-2.091 5.264-5.208 7.608-7.851 1.995-2.987 4.843-5.506 6.781-5.996.162-.041.327-.062.49-.062.886 0 1.63.586 1.851 1.458.404 1.598-.185 4.237-1.62 7.322 1.999-1.481 7.403-8.849 8.425-10.539l.12-.267 4.743-1.198-5.782 12.177c-.304.612-.79 1.924-.897 2.439.705-.327 2.261-2.497 3.784-5.772l4.338-9.206 4.752-1.201-6.118 12.604c-.304.612-.791 1.929-.896 2.439 1.481-.532 6.818-5.699 8.89-9.234.991-1.897 1.809-3.556 2.429-4.926-.376-.395-.542-.917-.601-1.147-.447-1.768.827-4.105 2.059-4.417.116-.029.233-.044.347-.044.665 0 1.204.495 1.405 1.292.098.387.075.866-.077 1.497.438-.246.92-.474 1.532-.628.141-.036.289-.054.441-.054.883 0 1.722.58 1.909 1.32.373 1.474-.917 4.286-2.411 7.541-.801 1.747-1.978 4.313-2.038 5.244.852-.344 2.749-2.387 5.547-7.13l-.062.016.891-1.45.135-.24.019-.005c2.277-3.608 6.397-7.936 7.938-8.326.21-.053.416-.08.612-.08.484 0 1.658.188 2.099 1.935l.015.065c1.135-1.607 2.595-3.264 3.972-3.612.189-.048.376-.072.557-.072.463 0 1.586.179 2.005 1.836.563 2.232-1.237 5.583-2.826 8.541-.646 1.204-1.58 2.943-1.73 3.682.723-.355 5.206-5.258 8.823-9.666 2.109-3.886 5.923-7.544 7.685-7.989.162-.041.329-.061.499-.061.465 0 .92.157 1.289.434l.311-.647 4.62-1.167-5.858 12.239c-.276.578-.744 2.124-.833 2.702 1.668-.813 6.817-6.221 8.71-9.507l.053-.091c.583-1.082 1.221-2.009 1.652-2.594 2.037-2.763 4.644-5.117 6.064-5.476.162-.041.331-.062.499-.062.465 0 .92.157 1.289.434l.311-.648 4.619-1.167-5.857 12.239c-.279.582-.751 2.145-.835 2.713 1.52-.617 5.56-3.945 7.794-6.968.792-2.757 2.263-6.4 4.042-10.008 1.317-2.671 5.874-11.449 9.185-12.286.143-.036.291-.055.438-.055.805 0 1.501.532 1.693 1.292.43 1.705-.65 4.335-3.301 8.044-2.238 3.131-4.862 5.984-5.678 6.851-2.442 5.475-3.998 9.596-4.224 10.625 1.464-.532 4.61-4.843 6.887-8.731l.146-.25 2.544-.643-.813 1.418c-.551.96-5.468 9.404-8.426 10.152-.227.058-.46.086-.692.086-.924 0-2.034-.486-2.378-1.85-.085-.336-.115-.744-.09-1.232-1.61 1.669-5.074 5.076-6.967 5.555-.225.057-.457.085-.69.085-1.153 0-2.042-.682-2.319-1.779l-.014-.058c-.972 1.383-2.223 2.822-3.376 3.114-.18.046-.364.068-.544.068-1.09 0-2.059-.824-2.356-2.002-.142-.562-.201-1.166-.177-1.805-2.111 2.585-5.247 6.096-7.029 6.547-.225.057-.457.086-.69.086-1.153 0-2.042-.682-2.319-1.779l-.014-.058c-.972 1.383-2.224 2.822-3.376 3.114-.18.045-.363.068-.545.068-1.089 0-2.058-.824-2.355-2.002-.148-.586-.206-1.219-.174-1.89l-.535.629c-3.237 3.768-5.442 5.821-6.556 6.103-.231.058-.458.088-.675.088-1.058 0-1.895-.714-2.186-1.862-.81-3.205 1.647-7.32 3.272-10.043.294-.492.749-1.255 1.035-1.81-1.258 1.214-3.515 4.709-4.468 6.709l-4.023 8.274-4.734 1.196 6.569-13.775.121-.25c.126-.255.256-.517.302-.769-1.202.826-4.294 3.73-6.272 6.942-2.377 4.249-5.7 9.449-7.978 10.025-.292.074-.604.112-.903.112-1.272 0-2.206-.686-2.497-1.835-.835-3.308 1.699-7.607 3.376-10.452l.553-.947c-.379.252-.824.521-1.351.729-.462 1.041-1.068 2.3-1.842 3.831l.102-.026-.81 1.412-.133.258-.035.008c-1.169 1.754-7.509 9.702-10.256 10.396-.225.057-.458.086-.692.086-.839 0-1.833-.401-2.266-1.499-1.032 1.485-1.986 2.323-2.904 2.555-.226.057-.459.086-.692.086-.924 0-2.033-.486-2.378-1.85-.385-1.523-.176-2.818.827-5.093-2.122 2.649-3.7 4.116-4.705 4.37-.327.083-.62.123-.895.123l-.238-.011c-1.546 2.723-3.854 5.729-5.833 6.229-.184.046-.374.07-.562.07-1.086 0-2.074-.788-2.348-1.874-.288-1.139-.311-2.375-.069-3.687-2.449 2.453-5.2 4.862-7.107 6.417l-2.524 5.553c-1.884 4.121-4.745 9.188-7.679 9.93-.231.057-.452.087-.656.087zm3.053-7.38c-1.847 2.446-2.839 4.547-2.917 5.435.421-.368 1.204-1.786 1.52-2.356l1.397-3.079zm24.305-24.154c-1.395 1.622-6.475 10.739-6.519 12.986.922-.525 2.52-2.455 4.222-5.856.111-.223.199-.43.524-1.205.224-.531.557-1.324 1.083-2.56.609-1.428.779-2.689.69-3.365zm62.987-16.069l-.021.003c-.298.123-1.691 1.83-3.842 6.085-1.783 3.527-2.56 5.803-2.699 6.638.887-.7 2.655-3.222 2.9-3.76l3.16-6.661c.459-.934.642-1.998.596-2.198-.016-.063-.054-.107-.094-.107zm16.483-4.167c-1.126.364-6.294 10.535-6.558 12.737.881-.678 2.672-3.232 2.919-3.775l3.16-6.661c.459-.934.641-1.998.595-2.198-.016-.062-.054-.106-.093-.106l-.023.003zm20.801-15.565c-.867.71-2.557 3.761-4.247 7.624 2.25-3.206 4.052-6.413 4.247-7.624z" fill="#fff"/><path d="M137.08 43.191c2.552-3.57 3.644-6.181 3.246-7.758-.153-.607-.711-1.03-1.357-1.03-.119 0-.238.014-.353.043-2.516.636-6.278 6.669-8.958 12.103-1.644 3.333-3.199 7.066-4.038 10.01-2.283 3.114-6.78 6.85-8.265 7.225l-.068.01c-.02 0-.081 0-.129-.195-.075-.36.561-2.433.875-3.09l5.539-11.572-3.746.946-.447.932c-.325-.404-.839-.667-1.394-.667-.141 0-.28.017-.414.051-1.33.336-3.908 2.684-5.87 5.345-.497.674-1.091 1.56-1.631 2.562l-.053.091c-1.923 3.337-7.578 9.356-9.168 9.758l-.069.01c-.02 0-.08 0-.129-.195-.074-.36.561-2.433.876-3.091l5.538-11.572-3.745.946-.447.932c-.325-.404-.84-.667-1.394-.667-.141 0-.28.017-.415.051-1.589.402-5.344 3.896-7.48 7.846-3.4 4.146-8.314 9.617-9.052 9.819l-.287.044-.121-.05c-.153-.604.826-2.426 1.772-4.188 1.559-2.902 3.325-6.19 2.794-8.292-.346-1.37-1.194-1.574-1.668-1.574-.152 0-.311.021-.471.061-1.569.397-3.321 2.737-4.377 4.369.044-.467.033-.819-.031-1.073-.368-1.455-1.263-1.672-1.763-1.672-.167 0-.345.023-.527.069-1.358.343-5.43 4.481-7.804 8.292l-.009.002-.069.123-.444.723.036-.009c-2.695 4.677-5.081 7.737-6.289 8.042l-.166.024c-.089 0-.112-.017-.133-.1-.199-.789.994-3.391 2.046-5.686 1.405-3.063 2.732-5.957 2.39-7.312-.147-.583-.854-1.059-1.573-1.059-.123 0-.243.015-.356.043-.817.207-1.403.561-1.969.903l-.229.137c.341-1.009.44-1.691.323-2.16-.163-.645-.563-1.03-1.069-1.03l-.261.033c-.973.246-2.233 2.313-1.808 3.996.104.412.331.878.684 1.144-.633 1.417-1.489 3.161-2.549 5.19-2.062 3.518-7.632 9.028-9.193 9.422l-.153.021c-.103 0-.169-.027-.205-.166-.071-.351.65-2.213.945-2.81l5.793-11.934-3.872.979-4.268 9.057c-1.515 3.255-3.241 5.776-4.104 5.995l-.153.021c-.103 0-.168-.028-.204-.166-.072-.35.649-2.213.947-2.812l5.465-11.51-2.314.585-1.529.387-.024.007-.06.132c-.944 1.572-7.451 10.546-9.096 10.961-.109.028-.218.043-.326.047 1.653-3.308 2.389-6.227 1.974-7.869-.181-.715-.79-1.196-1.515-1.196-.135 0-.271.017-.405.051-1.752.443-4.554 2.815-6.59 5.872-2.697 3.042-6.62 7-8.917 9.073l5.543-12.171-3.731.943-7.689 16.824c-2.5 2.32-8.082 7.954-7.243 11.271.185.73.67 1.133 1.369 1.133.176 0 .368-.026.571-.076 2.801-.708 5.596-5.685 7.448-9.737l2.555-5.627c1.971-1.603 5.278-4.488 8.021-7.339-.475 1.591-.613 3.214-.228 4.742.236.934 1.083 1.612 2.012 1.612.16 0 .32-.02.477-.059 1.933-.489 4.261-3.626 5.733-6.271.133.028.275.042.424.042.246 0 .51-.036.809-.112 1.453-.367 4.123-3.616 6.337-6.629l-1.182 2.627c-1.008 2.261-1.225 3.517-.855 4.976.296 1.171 1.248 1.588 2.042 1.588.205 0 .409-.026.606-.076.955-.241 1.987-1.249 3.139-3.071.017.147.042.287.075.417.296 1.171 1.249 1.588 2.042 1.588.205 0 .409-.025.607-.075 2.607-.659 9.045-8.653 10.125-10.363l.015-.004.068-.132.403-.702-.048.013c.97-1.899 1.707-3.421 2.239-4.628.717-.26 1.286-.652 1.749-.971.281-.193.532-.366.749-.464-.152.422-.673 1.307-1.143 2.102-1.648 2.796-4.139 7.022-3.338 10.192.253 1 1.041 1.573 2.16 1.573.272 0 .555-.036.818-.102 2.271-.575 5.839-6.426 7.768-9.871 2.242-3.641 6.016-7.049 6.859-7.313l.041.099c.121.48-.114.957-.323 1.377l-.118.246-6.251 13.109 3.863-.976 3.952-8.126c1.081-2.267 4.13-7.022 5.294-7.317l.093.086c.065.3-.716 1.607-1.343 2.658-1.596 2.674-4.008 6.715-3.234 9.781.253 1.001.944 1.6 1.849 1.6.189 0 .388-.026.59-.077 1.3-.329 4.186-3.44 6.378-5.993.426-.496.856-1.007 1.283-1.522-.192 1.013-.208 2.003.026 2.925.259 1.024 1.089 1.74 2.02 1.74.153 0 .308-.02.46-.058 1.299-.328 2.81-2.384 3.656-3.688.028.294.079.581.155.882.24.951.982 1.518 1.983 1.518.205 0 .409-.025.605-.075 1.761-.445 5.221-4.369 7.593-7.358-.179.963-.201 1.938.034 2.868.259 1.025 1.089 1.741 2.02 1.741.153 0 .308-.02.46-.058 1.299-.329 2.81-2.384 3.657-3.688.028.294.079.581.155.882.24.95.981 1.518 1.983 1.518.204 0 .408-.026.605-.075 1.736-.439 5.184-3.702 7.51-6.207-.142.883-.163 1.615-.032 2.135.295 1.171 1.248 1.588 2.042 1.588.205 0 .409-.025.607-.075 2.865-.724 7.993-9.61 8.21-9.988l.407-.708-1.611.406-.073.125c-1.963 3.352-5.5 8.494-7.204 8.925l-.154.021c-.103 0-.168-.027-.202-.155-.067-.614 1.902-5.669 4.305-11.053.809-.87 3.434-3.717 5.683-6.863zm1.935-7.426c.311 1.228-2.937 6.602-6.013 10.557 1.896-4.759 4.642-10.32 5.845-10.624l.075-.011c.057.001.078.018.093.078zm-21.305 18.431l-3.158 6.656c-.237.521-2.515 3.895-3.429 4.125l-.04.006c-.02 0-.068 0-.099-.122-.391-1.546 5.461-13.111 6.806-13.451l.108-.014c.202 0 .374.148.43.368.079.313-.145 1.469-.618 2.432zm-16.506 4.171l-3.158 6.655c-.237.521-2.516 3.896-3.429 4.125l-.04.006c-.021 0-.068 0-.098-.122-.145-.569.768-3.282 2.741-7.186 1.971-3.9 3.565-6.138 4.064-6.264l.108-.014c.202 0 .374.148.43.368.079.313-.145 1.469-.618 2.432zm-62.71 13.079c.051 0 .17.101.212.267.173.686.033 2.117-.671 3.771-.526 1.236-.86 2.028-1.083 2.559-.33.783-.417.993-.534 1.226-1.702 3.401-3.609 5.878-4.749 6.166-.016 0-.075-.045-.096-.127-.52-2.06 5.947-13.385 6.915-13.86l.006-.002zm-22.994 22.445l-2.494 5.491c-.545.988-1.37 2.481-1.868 2.607-.099 0-.282-.13-.3-.194-.113-1.104 1.626-4.509 4.662-7.904z" fill="#0B080B"/></svg>