<svg xmlns="http://www.w3.org/2000/svg" viewBox="0 0 480 360"><path d="M72.701 188.643v28.438c0 4.364-.392 7.688-1.174 9.969-.783 2.282-2.31 4.091-4.58 5.425-2.271 1.332-5.346 2-9.226 2-3.417 0-6.503-.363-9.259-1.093v-10.778c1.939.551 3.747.826 5.423.826 1.984 0 3.395-.457 4.232-1.371.838-.916 1.257-2.574 1.257-4.978v-28.438h13.327zm34.365 45.83c-6.349 0-11.523-2.104-15.524-6.315-4.002-4.209-6.002-9.843-6.002-16.896 0-6.746 1.912-12.318 5.737-16.716 3.824-4.397 9.131-6.598 15.921-6.598 6.283 0 11.402 2.071 15.36 6.217 3.956 4.146 5.936 9.678 5.936 16.601 0 7.164-1.996 12.907-5.985 17.229-3.99 4.317-9.138 6.478-15.443 6.478zm-.066-10.25c2.337 0 4.018-1.02 5.043-3.059s1.538-5.771 1.538-11.193c0-7.848-2.105-11.771-6.316-11.771-4.541 0-6.812 4.476-6.812 13.425 0 8.396 2.183 12.598 6.547 12.598zm71.401-35.58v29.894c0 5.665-1.682 9.737-5.043 12.218-3.362 2.479-7.743 3.721-13.144 3.721-5.688 0-10.257-1.19-13.707-3.572-3.45-2.381-5.175-6.26-5.175-11.639v-30.619h14.087v28.998c0 2.162.456 3.737 1.368 4.729s2.369 1.487 4.37 1.487c1.67 0 3.038-.357 4.104-1.074 1.066-.717 1.704-1.525 1.913-2.43.209-.905.313-2.668.313-5.291v-26.42h10.914v-.002zm55.033 45.134h-15.359l-6.593-17.26h-4.369v17.26h-13.855v-45.135h23.577c5.202 0 9.242 1.217 12.119 3.652 2.877 2.438 4.314 5.648 4.314 9.641 0 2.602-.528 4.897-1.587 6.895-1.058 1.994-3.196 3.752-6.415 5.273l8.168 19.674zm-26.322-26.916h5.919c1.741 0 3.142-.363 4.199-1.09 1.059-.729 1.587-1.797 1.587-3.209 0-2.888-1.774-4.332-5.323-4.332h-6.382v8.631zm78.908 26.916h-11.275l-12.361-19.941c-1.587-2.559-3.188-5.664-4.8-9.322.728 2.91 1.091 5.379 1.091 7.408v21.855h-11.245v-45.135h13.096l10.517 16.53c2.095 3.285 3.681 6.175 4.761 8.665-.705-3.857-1.059-7.804-1.059-11.838v-13.357h11.275v45.135zm40.207 0l-2.551-8.896h-12.092l-2.71 8.896h-11.247l13.934-45.135h14.648l14.156 45.135h-14.138zm-12.288-18.748h7.303l-3.651-13.094-3.652 13.094zm62.92 18.748l-2.551-8.896h-12.092l-2.71 8.896h-11.246l13.934-45.135h14.648l14.156 45.135h-14.139zm-12.286-18.748h7.303l-3.651-13.094-3.652 13.094zm69.679 7.672v11.076h-31.646v-45.135h13.855v34.059h17.791z"/></svg>