<svg xmlns="http://www.w3.org/2000/svg" width="150" height="122" viewBox="0 0 150 122"><path d="M17.994 53.372v9.612c0 1.475-.133 2.598-.396 3.369-.265.772-.781 1.383-1.548 1.834-.768.451-1.808.676-3.119.676-1.154 0-2.197-.123-3.129-.37v-3.643c.655.187 1.267.279 1.833.279.67 0 1.147-.154 1.43-.463.284-.31.425-.87.425-1.683v-9.612h4.504zm11.615 15.491c-2.146 0-3.895-.712-5.247-2.135-1.353-1.422-2.028-3.327-2.028-5.711 0-2.28.646-4.164 1.939-5.65 1.292-1.486 3.086-2.23 5.381-2.23 2.124 0 3.854.7 5.191 2.102s2.007 3.271 2.007 5.611c0 2.421-.675 4.362-2.023 5.823-1.349 1.459-3.089 2.19-5.22 2.19zm-.022-3.466c.79 0 1.358-.344 1.705-1.034.347-.689.52-1.951.52-3.783 0-2.653-.711-3.979-2.135-3.979-1.534 0-2.303 1.512-2.303 4.537 0 2.84.738 4.259 2.213 4.259zm24.134-12.025v10.104c0 1.915-.568 3.291-1.704 4.13-1.137.837-2.617 1.257-4.443 1.257-1.922 0-3.467-.402-4.633-1.207s-1.749-2.116-1.749-3.934v-10.349h4.762v9.801c0 .73.154 1.263.462 1.599.309.335.801.502 1.478.502.564 0 1.026-.121 1.387-.363s.576-.516.646-.821c.071-.306.106-.902.106-1.788v-8.931h3.688zm18.601 15.255h-5.191l-2.229-5.833h-1.477v5.833h-4.684v-15.255h7.97c1.758 0 3.123.411 4.096 1.234.973.824 1.458 1.909 1.458 3.259 0 .879-.178 1.655-.536 2.331-.357.674-1.08 1.268-2.168 1.782l2.761 6.649zm-8.897-9.097h2.001c.589 0 1.062-.123 1.419-.369.358-.247.537-.607.537-1.084 0-.976-.6-1.464-1.8-1.464h-2.157v2.917zm26.671 9.097h-3.811l-4.178-6.74c-.537-.865-1.078-1.915-1.622-3.151.245.983.368 1.818.368 2.504v7.387h-3.801v-15.255h4.427l3.555 5.587c.708 1.11 1.244 2.087 1.608 2.929-.237-1.303-.357-2.638-.357-4.001v-4.515h3.811v15.255zm13.591 0l-.862-3.007h-4.087l-.916 3.007h-3.802l4.709-15.255h4.951l4.785 15.255h-4.778zm-4.155-6.336h2.469l-1.233-4.426-1.236 4.426zm21.268 6.336l-.862-3.007h-4.087l-.916 3.007h-3.802l4.71-15.255h4.951l4.785 15.255h-4.779zm-4.153-6.336h2.468l-1.233-4.426-1.235 4.426zm23.551 2.592v3.744h-10.696v-15.255h4.684v11.512h6.012z"/></svg>