<svg xmlns="http://www.w3.org/2000/svg"   viewBox="0 0 480 360"><path d="M228.398 338.482c-86.019 0-156-69.981-156-156 0-86.02 69.981-156 156-156s156 69.981 156 156-69.981 156-156 156zm0-302c-80.505 0-146 65.495-146 146 0 80.504 65.495 146 146 146 80.504 0 146-65.496 146-146 0-80.505-65.496-146-146-146z"/><path d="M324.85 58.787c3.168-6.319 1.561-14.203 6.588-19.925.453-.515.317-1.604.336-2.429.021-.985.072-2.197-1.254-2.313-.869-.076-1.715.746-1.719 1.545-.023 5.575-5.818 8.823-5.695 14.562.041 1.897-1.41 3.827-2.332 6.122-1.496-2.349-1.26-4.396-.486-6.139 3.754-8.465 3.861-17.742 6.107-26.536.231-.905.578-2.203-.781-2.479-1.245-.253-1.715.979-1.846 1.911-.873 6.216-6.465 11.059-5.182 17.94.139.741-.755 1.811-1.391 2.534-1.797 2.048-3.016 4.334-3.701 6.986" fill="none"/><path d="M313.494 50.567c.686-2.651 1.904-4.938 3.701-6.986.636-.724 1.527-1.793 1.391-2.534-1.283-6.882 4.309-11.724 5.182-17.94.131-.932.601-2.164 1.846-1.911 1.359.276 1.014 1.574.781 2.479-2.246 8.793-2.354 18.071-6.107 26.536-.771 1.743-1.01 3.79.486 6.139.922-2.294 2.373-4.224 2.332-6.122-.123-5.739 5.672-8.987 5.695-14.562.004-.799.85-1.622 1.719-1.545 1.326.117 1.273 1.329 1.254 2.313-.019.825.117 1.914-.336 2.429-5.027 5.722-3.42 13.605-6.588 19.925m-6.7 13.198c-1.002-.811-2.094-2.124-3.448-.915-1.397 1.249-.862 2.792.259 3.978 1.475 1.559 2.729 3.555 1.818 5.387-2.699 5.432-2.989 11.495-4.995 17.081-.677 1.883-1.685 2.44-3.265.874-.867-.86-1.42-2.67-3.096-1.308-1.309 1.064-1.465 2.678-.867 4.133 2.118 5.156.188 9.093-3.652 12.404-2.704 2.33-3.452 4.978-2.573 8.467.899 3.576.582 6.984-3.231 9.089-.814.451-1.777 1.357-1.924 2.186-1.265 7.162-6.805 12.474-8.186 19.68-.75 3.912-.875 7.93-2.016 11.767-.348 1.17-1.76 2.726-.06 3.462 1.647.714 1.841-1.438 2.59-2.405.406-.523.601-1.279 1.097-1.651 1.162-.869.854-4.081 3.154-2.717 1.53.907.494 3.097-.2 4.594-.405.876-1.073 1.705-1.81 2.343-4.475 3.882-4.52 10.662-9.379 14.293-.29.217-.441 1.067-.258 1.403 2.892 5.252-.693 9.037-2.709 13.347-8.272 17.696-18.401 34.205-30.086 49.875-7.531 10.1-16.051 19.194-26.088 26.547-12.022 8.805-24.526 17.121-39.438 20.615-1.111.26-2.105.987-3.174 1.457-14.952 6.563-32.4-.199-38.75-15.021-.969-2.265-1.495-4.688.608-6.457 2.278-1.916 4.429-.486 6.212 1.146 2.521 2.305 5.436 2.866 8.758 2.817 7.239-.104 14.163-1.229 20.947-4.002 10.204-4.17 19.943-8.843 28.973-15.429 5.732-4.182 10.574-9.09 15.652-13.827 8.033-7.496 15.014-15.931 21.213-25.033 6.563-9.638 11.954-19.896 17.289-30.242 7.938-15.397 15.178-31.088 22.245-46.896 5.447-12.186 9.431-24.899 14.668-37.132 5.048-11.79 9.097-23.947 13.597-35.938"/><path d="M308.027 69.958c-4.5 11.992-8.549 24.149-13.596 35.938-5.238 12.233-9.222 24.946-14.668 37.132-7.068 15.808-14.31 31.5-22.246 46.896-5.334 10.346-10.726 20.605-17.289 30.242-6.199 9.104-13.18 17.537-21.213 25.033-5.078 4.738-9.92 9.646-15.652 13.828-9.029 6.586-18.769 11.258-28.973 15.428-6.784 2.771-13.708 3.898-20.947 4.002-3.322.049-6.236-.514-8.758-2.818-1.783-1.631-3.934-3.061-6.212-1.145-2.104 1.768-1.577 4.193-.608 6.457 6.35 14.82 23.798 21.584 38.75 15.02 1.068-.469 2.062-1.197 3.174-1.457 14.911-3.494 27.415-11.811 39.438-20.615 10.038-7.352 18.558-16.446 26.088-26.547 11.685-15.67 21.812-32.178 30.086-49.875 2.016-4.309 5.601-8.094 2.71-13.346-.185-.336-.033-1.188.257-1.404 4.859-3.63 4.904-10.412 9.379-14.292.734-.638 1.402-1.467 1.811-2.343.693-1.497 1.729-3.687.199-4.594-2.301-1.364-1.992 1.848-3.154 2.717-.496.372-.689 1.128-1.097 1.651-.749.968-.942 3.119-2.59 2.405-1.7-.736-.288-2.292.06-3.462 1.141-3.837 1.266-7.854 2.016-11.767 1.381-7.206 6.921-12.519 8.186-19.68.146-.829 1.108-1.735 1.924-2.186 3.813-2.104 4.133-5.514 3.231-9.089-.879-3.49-.131-6.137 2.573-8.467 3.842-3.311 5.771-7.249 3.652-12.404-.598-1.456-.44-3.069.867-4.133 1.676-1.363 2.229.448 3.096 1.308 1.58 1.566 2.588 1.009 3.265-.874 2.006-5.585 2.296-11.649 4.996-17.081.91-1.832-.347-3.829-1.819-5.387-1.121-1.186-1.656-2.729-.259-3.978 1.354-1.209 2.447.104 3.449.915" fill="none"/></svg>