<svg xmlns="http://www.w3.org/2000/svg" width="150" height="122" viewBox="0 0 150 122"><path d="M75 107.5c-25.21 0-45.721-20.51-45.721-45.721s20.511-45.72 45.721-45.72c25.211 0 45.721 20.51 45.721 45.72 0 25.211-20.51 45.721-45.721 45.721zm0-88.51c-23.594 0-42.79 19.195-42.79 42.789s19.196 42.79 42.79 42.79 42.789-19.196 42.789-42.79c0-23.593-19.195-42.789-42.789-42.789z"/><path d="M103.268 25.527c.929-1.852.458-4.163 1.932-5.84.132-.151.093-.47.098-.711.007-.289.021-.644-.367-.678-.255-.022-.503.218-.504.452-.007 1.634-1.705 2.586-1.669 4.268.012.556-.413 1.122-.684 1.794-.438-.688-.369-1.289-.143-1.799 1.101-2.481 1.132-5.2 1.79-7.777.068-.266.17-.646-.229-.727-.364-.075-.502.287-.54.56-.256 1.822-1.895 3.241-1.52 5.258.041.217-.221.531-.407.743-.527.601-.884 1.271-1.085 2.047" fill="none"/><path d="M99.939 23.118c.201-.777.558-1.447 1.085-2.047.187-.212.447-.525.407-.743-.375-2.017 1.264-3.436 1.52-5.258.038-.273.176-.634.54-.56.399.081.298.461.229.727-.658 2.577-.689 5.296-1.79 7.777-.226.511-.296 1.111.143 1.799.271-.672.695-1.238.684-1.794-.036-1.682 1.662-2.634 1.669-4.268.001-.234.249-.475.504-.453.389.034.373.39.367.678-.005.242.034.561-.098.712-1.474 1.677-1.003 3.987-1.932 5.84m-1.962 3.868c-.294-.238-.614-.622-1.011-.268-.41.366-.253.818.076 1.166.432.457.799 1.042.532 1.579-.791 1.592-.876 3.369-1.464 5.006-.198.552-.493.715-.957.256-.254-.252-.416-.782-.907-.383-.384.312-.43.785-.254 1.211.62 1.511.055 2.665-1.07 3.635-.793.683-1.012 1.459-.754 2.481.263 1.048.17 2.047-.947 2.664-.238.132-.521.397-.564.641-.37 2.099-1.994 3.656-2.398 5.768-.22 1.146-.257 2.324-.591 3.449-.103.343-.517.799-.018 1.015.482.209.539-.421.759-.705.119-.153.177-.375.321-.484.341-.254.25-1.196.925-.796.448.266.145.907-.059 1.346-.119.257-.314.5-.53.687-1.312 1.138-1.325 3.125-2.749 4.189-.085.064-.129.313-.075.412.847 1.539-.204 2.648-.794 3.911-2.425 5.187-5.394 10.025-8.818 14.618-2.207 2.96-4.704 5.625-7.646 7.781-3.523 2.58-7.188 5.018-11.559 6.042-.325.076-.617.289-.931.427-4.382 1.924-9.495-.058-11.356-4.402-.284-.664-.438-1.375.178-1.893.668-.562 1.299-.143 1.821.335.739.676 1.593.84 2.566.826 2.122-.031 4.151-.36 6.14-1.173 2.99-1.222 5.845-2.592 8.491-4.521 1.68-1.226 3.099-2.664 4.587-4.053 2.354-2.197 4.4-4.669 6.218-7.336 1.923-2.825 3.503-5.831 5.066-8.863 2.326-4.513 4.448-9.111 6.52-13.744 1.597-3.572 2.764-7.297 4.299-10.883 1.479-3.456 2.666-7.018 3.985-10.533"/><path d="M98.338 28.801c-1.319 3.515-2.506 7.078-3.985 10.533-1.535 3.585-2.702 7.311-4.299 10.883-2.071 4.633-4.194 9.232-6.52 13.744-1.563 3.032-3.144 6.039-5.067 8.863-1.816 2.668-3.862 5.14-6.217 7.336-1.488 1.389-2.907 2.827-4.587 4.053-2.646 1.931-5.501 3.299-8.492 4.521-1.988.812-4.018 1.143-6.139 1.173-.974.014-1.828-.151-2.566-.826-.522-.478-1.153-.897-1.821-.335-.616.518-.462 1.229-.178 1.893 1.861 4.343 6.975 6.326 11.356 4.402.313-.138.604-.351.931-.427 4.37-1.024 8.034-3.461 11.558-6.042 2.942-2.155 5.439-4.82 7.646-7.78 3.425-4.593 6.393-9.431 8.817-14.618.591-1.263 1.642-2.372.794-3.911-.054-.099-.01-.349.075-.412 1.425-1.064 1.438-3.052 2.749-4.189.215-.187.411-.43.531-.687.203-.439.507-1.081.058-1.346-.674-.4-.584.542-.924.796-.146.109-.202.331-.321.484-.22.284-.276.914-.759.705-.499-.215-.085-.672.018-1.015.334-1.125.371-2.302.59-3.449.405-2.112 2.029-3.669 2.399-5.768.043-.243.325-.509.564-.641 1.117-.617 1.211-1.616.946-2.664-.258-1.023-.038-1.798.755-2.481 1.126-.97 1.69-2.125 1.069-3.635-.175-.427-.129-.899.255-1.211.491-.399.653.131.907.383.463.459.758.296.956-.256.589-1.637.674-3.414 1.465-5.006.267-.537-.102-1.122-.533-1.579-.328-.348-.485-.8-.076-1.166.397-.354.718.03 1.012.268" fill="none"/></svg>