<svg xmlns="http://www.w3.org/2000/svg" width="150" height="122" viewBox="0 0 150 122"><path d="M4.85 42.321h140.3v37.357h-140.3v-37.357z" stroke="#000" stroke-miterlimit="10" fill="none"/><path d="M14.631 71.781c.327.058.567.096.719.114l.403.026c.818 0 1.4-.263 1.745-.789.345-.526.518-1.438.518-2.736v-23.847h5.506v23.813c0 2.946-.494 5.093-1.481 6.444-.988 1.35-2.546 2.025-4.674 2.025-.362 0-.733-.03-1.113-.087-.38-.059-.81-.158-1.288-.298l-.335-4.665zm12.046-10.995c0-2.688.696-4.804 2.088-6.348 1.391-1.543 3.284-2.314 5.681-2.314 2.385 0 4.273.771 5.664 2.314 1.391 1.543 2.087 3.66 2.087 6.348 0 2.678-.692 4.782-2.078 6.312-1.386 1.532-3.276 2.297-5.673 2.297-2.408 0-4.305-.766-5.689-2.297-1.387-1.53-2.08-3.634-2.08-6.312zm4.998 0c0 1.637.233 2.879.701 3.727.468.847 1.157 1.271 2.069 1.271s1.604-.427 2.078-1.281.71-2.093.71-3.717c0-1.637-.24-2.885-.719-3.744-.479-.859-1.17-1.289-2.069-1.289-.912 0-1.602.43-2.069 1.289-.468.86-.701 2.108-.701 3.744zm22.69 6.208c-.701.854-1.427 1.467-2.175 1.841-.748.374-1.612.561-2.595.561-1.555 0-2.741-.55-3.56-1.648-.819-1.099-1.228-2.689-1.228-4.77v-10.521h4.822v9.801c0 1.204.148 2.061.446 2.569.299.508.792.763 1.481.763.562 0 1.062-.199 1.499-.597.439-.396.874-1.047 1.307-1.946v-10.591h4.857v16.623h-4.787l-.067-2.085zm8.47 2.086v-16.623h4.646v5.523c.608-1.94 1.274-3.396 1.999-4.366.725-.97 1.502-1.456 2.332-1.456.491 0 .979.087 1.465.263.485.176.967.438 1.446.79l-1.14 4.454c-.304-.257-.617-.447-.938-.57-.322-.123-.646-.184-.974-.184-1.181 0-2.133.859-2.858 2.577-.725 1.719-1.087 4.028-1.087 6.927v2.665h-4.891zm13.502 0v-16.623h4.786l.07 2.087c.702-.854 1.426-1.47 2.175-1.85.748-.38 1.613-.57 2.595-.57 1.556 0 2.741.549 3.561 1.648.817 1.1 1.228 2.695 1.228 4.787v10.521h-4.857v-9.802c0-1.228-.146-2.092-.438-2.595-.293-.503-.777-.754-1.455-.754-.562 0-1.069.205-1.525.614-.457.409-.895 1.058-1.315 1.947v10.59h-4.825zm25.584-1.788c-.842.771-1.614 1.33-2.315 1.674s-1.426.518-2.175.518c-1.228 0-2.225-.39-2.989-1.167-.766-.777-1.148-1.792-1.148-3.042 0-1.497.631-2.768 1.894-3.814 1.263-1.046 3.42-2.061 6.471-3.042v-1.368c0-.444-.138-.772-.412-.982-.273-.21-.709-.315-1.307-.315-.958 0-1.901.202-2.831.605s-1.827 1.002-2.692 1.797v-3.77c1.006-.771 2.043-1.347 3.112-1.727 1.07-.38 2.195-.57 3.375-.57 1.964 0 3.385.424 4.261 1.271.877.847 1.315 2.218 1.315 4.112v7.259c0 .21.035.36.105.447.069.087.187.132.35.132.129 0 .299-.047.509-.141.21-.093.473-.24.789-.439v3.122c-.807.573-1.515.988-2.121 1.245-.608.257-1.17.386-1.685.386-.666 0-1.203-.182-1.612-.544-.41-.361-.709-.911-.894-1.647zm-.264-2.42v-3.98c-1.297.444-2.244.923-2.841 1.438-.597.515-.894 1.11-.894 1.789 0 .573.122.995.367 1.263.246.27.627.404 1.141.404.351 0 .716-.08 1.096-.237.379-.16.757-.385 1.131-.677zm16.431 2.42c-.843.771-1.613 1.33-2.315 1.674-.701.345-1.427.518-2.174.518-1.228 0-2.225-.39-2.989-1.167-.767-.777-1.149-1.792-1.149-3.042 0-1.497.631-2.768 1.894-3.814 1.264-1.046 3.42-2.061 6.471-3.042v-1.368c0-.444-.138-.772-.411-.982-.275-.21-.71-.315-1.307-.315-.959 0-1.902.202-2.832.605s-1.827 1.002-2.692 1.797v-3.77c1.006-.771 2.042-1.347 3.113-1.727 1.068-.38 2.194-.57 3.374-.57 1.964 0 3.385.424 4.261 1.271.877.847 1.315 2.218 1.315 4.112v7.259c0 .21.035.36.104.447.07.087.187.132.351.132.129 0 .298-.047.508-.141.211-.093.474-.24.789-.439v3.122c-.806.573-1.514.988-2.121 1.245-.608.257-1.17.386-1.684.386-.667 0-1.204-.182-1.613-.544-.409-.361-.707-.911-.893-1.647zm-.264-2.42v-3.98c-1.298.444-2.243.923-2.841 1.438-.596.515-.894 1.11-.894 1.789 0 .573.123.995.368 1.263.245.27.625.404 1.141.404.35 0 .715-.08 1.095-.237.379-.16.757-.385 1.131-.677zm8.803 4.208v-24.531h4.857v24.531h-4.857z"/></svg>