<svg xmlns="http://www.w3.org/2000/svg" viewBox="0 0 480 360"><path d="M51.626 130.324h376.748v100.316h-376.748v-100.316z" stroke="#000" stroke-miterlimit="10" fill="none"/><path d="M77.893 209.432c.879.156 1.522.258 1.93.307.409.048.769.07 1.083.07 2.197 0 3.759-.707 4.686-2.119.926-1.412 1.389-3.86 1.389-7.346v-64.038h14.785v63.944c0 7.91-1.326 13.678-3.979 17.305-2.653 3.625-6.836 5.438-12.549 5.438-.974 0-1.97-.079-2.989-.235-1.021-.157-2.174-.424-3.461-.8l-.895-12.526zm32.347-29.524c0-7.219 1.868-12.901 5.604-17.045 3.736-4.144 8.82-6.216 15.256-6.216 6.404 0 11.474 2.072 15.209 6.216s5.604 9.826 5.604 17.045c0 7.189-1.86 12.84-5.58 16.951-3.72 4.113-8.797 6.168-15.232 6.168-6.467 0-11.56-2.055-15.279-6.168-3.721-4.111-5.582-9.761-5.582-16.951zm13.42 0c0 4.395.627 7.73 1.884 10.006 1.255 2.275 3.107 3.414 5.556 3.414s4.309-1.146 5.58-3.438c1.271-2.293 1.907-5.619 1.907-9.983 0-4.394-.645-7.746-1.931-10.053-1.287-2.307-3.14-3.461-5.557-3.461-2.448 0-4.301 1.154-5.556 3.461-1.256 2.308-1.883 5.66-1.883 10.054zm60.93 16.668c-1.883 2.293-3.83 3.939-5.839 4.945-2.009 1.004-4.331 1.506-6.969 1.506-4.175 0-7.361-1.476-9.559-4.426-2.198-2.951-3.296-7.221-3.296-12.809v-28.252h12.949v26.32c0 3.234.4 5.533 1.2 6.898.801 1.365 2.127 2.049 3.979 2.049 1.507 0 2.849-.533 4.025-1.602 1.178-1.066 2.346-2.811 3.508-5.227v-28.44h13.043v44.638h-12.854l-.187-5.6zm22.743 5.604v-44.638h12.478v14.832c1.633-5.21 3.422-9.119 5.368-11.724 1.945-2.605 4.033-3.908 6.263-3.908 1.318 0 2.629.235 3.932.706s2.598 1.177 3.885 2.119l-3.061 11.96c-.816-.69-1.656-1.201-2.521-1.531-.864-.33-1.734-.494-2.613-.494-3.171 0-5.729 2.307-7.675 6.921-1.946 4.615-2.92 10.815-2.92 18.601v7.156h-13.136zm36.257 0v-44.638h12.854l.188 5.603c1.884-2.291 3.829-3.947 5.839-4.967 2.01-1.02 4.332-1.531 6.969-1.531 4.176 0 7.36 1.476 9.56 4.426 2.196 2.952 3.296 7.236 3.296 12.854v28.252h-13.043v-26.322c0-3.296-.393-5.618-1.178-6.969-.785-1.35-2.088-2.025-3.908-2.025-1.506 0-2.871.55-4.096 1.648-1.226 1.099-2.401 2.841-3.531 5.227v28.44h-12.95v.002zm68.699-4.803c-2.26 2.072-4.332 3.571-6.216 4.497s-3.829 1.39-5.839 1.39c-3.297 0-5.973-1.045-8.027-3.133-2.057-2.086-3.085-4.811-3.085-8.168 0-4.018 1.694-7.432 5.086-10.242 3.39-2.809 9.183-5.533 17.375-8.169v-3.673c0-1.192-.369-2.072-1.106-2.637-.736-.565-1.906-.848-3.508-.848-2.574 0-5.109.542-7.604 1.625-2.496 1.083-4.906 2.692-7.229 4.827v-10.124c2.699-2.071 5.486-3.617 8.358-4.638 2.872-1.02 5.893-1.53 9.062-1.53 5.274 0 9.088 1.138 11.442 3.414 2.354 2.276 3.53 5.957 3.53 11.042v19.493c0 .565.096.966.283 1.201.188.235.502.354.941.354.346 0 .801-.125 1.365-.377.564-.25 1.271-.644 2.119-1.179v8.382c-2.166 1.538-4.066 2.653-5.697 3.344-1.633.69-3.141 1.037-4.521 1.037-1.789 0-3.232-.488-4.332-1.461-1.095-.974-1.896-2.449-2.397-4.427zm-.706-6.498v-10.689c-3.483 1.193-6.026 2.48-7.628 3.861-1.602 1.383-2.4 2.981-2.4 4.803 0 1.539.328 2.67.987 3.391.659.723 1.681 1.084 3.062 1.084.941 0 1.922-.213 2.941-.637s2.032-1.028 3.038-1.813zm44.12 6.498c-2.262 2.072-4.332 3.571-6.217 4.497-1.883.926-3.83 1.39-5.838 1.39-3.297 0-5.974-1.045-8.027-3.133-2.057-2.086-3.085-4.811-3.085-8.168 0-4.018 1.694-7.432 5.085-10.242 3.391-2.809 9.184-5.533 17.375-8.169v-3.673c0-1.192-.369-2.072-1.105-2.637-.738-.565-1.906-.848-3.509-.848-2.573 0-5.108.542-7.604 1.625s-4.905 2.692-7.229 4.827v-10.124c2.699-2.071 5.484-3.617 8.358-4.638 2.87-1.02 5.893-1.53 9.062-1.53 5.273 0 9.089 1.138 11.442 3.414 2.354 2.276 3.531 5.957 3.531 11.042v19.493c0 .565.094.966.281 1.201.188.235.502.354.942.354.345 0 .8-.125 1.364-.377.564-.25 1.271-.644 2.119-1.179v8.382c-2.166 1.538-4.065 2.653-5.697 3.344-1.633.69-3.141 1.037-4.52 1.037-1.791 0-3.234-.488-4.332-1.461-1.094-.974-1.895-2.449-2.396-4.427zm-.707-6.498v-10.689c-3.484 1.193-6.025 2.48-7.628 3.861-1.601 1.383-2.401 2.981-2.401 4.803 0 1.539.33 2.67.989 3.391.659.723 1.679 1.084 3.062 1.084.94 0 1.922-.213 2.941-.637s2.032-1.028 3.037-1.813zm23.638 11.301v-65.874h13.043v65.874h-13.043z"/></svg>