<svg xmlns="http://www.w3.org/2000/svg" width="150" height="122" viewBox="0 0 150 122"><path d="M51.588 50.777h96.255v20.446h-96.255v-20.446zm-30.199 3.114v15.095h-4.634v-5.872h-3.539v5.872h-4.633v-15.095h4.633v5.551h3.539v-5.551h4.634zm9.898 11.058l4.114.277c-.243 1.106-.864 2.047-1.863 2.825s-2.35 1.167-4.053 1.167c-1.895 0-3.406-.547-4.534-1.643-1.128-1.096-1.692-2.454-1.692-4.075 0-1.681.557-3.1 1.67-4.258 1.113-1.157 2.599-1.736 4.457-1.736 1.799 0 3.253.546 4.363 1.637 1.109 1.091 1.665 2.577 1.665 4.457l-.011.642h-7.531c.015.708.141 1.233.376 1.576.236.343.686.514 1.349.514.956-.001 1.52-.461 1.69-1.383zm-.299-2.919c-.007-.76-.16-1.27-.457-1.532s-.667-.393-1.108-.393c-1.043 0-1.565.642-1.565 1.925h3.13zm13.094-4.292v2.865h-2.245v4.147c0 .568.107.905.321 1.012.214.107.435.161.664.161.354 0 .774-.062 1.261-.188v3.14c-.87.169-1.725.255-2.565.255-1.356 0-2.354-.291-2.992-.874s-.957-1.512-.957-2.787l.011-1.316v-3.55h-1.681v-2.864h1.681l.067-3.66 4.191-.067v3.727l2.244-.001z"/><path d="M62.241 53.891v9.51c0 1.46-.131 2.571-.392 3.334-.262.763-.773 1.367-1.532 1.813-.759.446-1.788.669-3.085.669-1.143 0-2.175-.122-3.097-.365v-3.605c.648.185 1.253.277 1.814.277.664 0 1.135-.153 1.416-.459.28-.305.42-.86.42-1.665v-9.51l4.456.001zm7.818 15.327c-1.865 0-3.347-.581-4.445-1.742-1.099-1.16-1.648-2.523-1.648-4.086 0-1.681.573-3.081 1.72-4.202 1.146-1.12 2.638-1.681 4.474-1.681 1.851 0 3.338.553 4.462 1.659 1.125 1.106 1.687 2.492 1.687 4.158 0 1.681-.57 3.083-1.709 4.208-1.14 1.123-2.653 1.686-4.541 1.686zm.067-2.676c.686 0 1.104-.355 1.255-1.067s.227-1.455.227-2.229c0-1.055-.107-1.814-.321-2.278-.214-.465-.597-.697-1.15-.697-.508 0-.881.24-1.117.719-.236.48-.354 1.269-.354 2.367 0 1.291.122 2.144.365 2.56.243.416.608.625 1.095.625zm18.833-8.804v11.247h-4.081v-1.847c-.597 1.386-1.763 2.079-3.495 2.079-1.069 0-1.896-.297-2.482-.89-.587-.594-.879-1.443-.879-2.549v-8.04h4.412v7.078c0 .442.061.754.183.935.122.18.36.271.713.271.376 0 .682-.134.918-.403.236-.27.354-.647.354-1.134v-6.746h4.357v-.001zm6.547 11.247h-4.224v-11.247h3.671v2.323c.42-1.688 1.397-2.533 2.93-2.533.155 0 .369.015.641.044v3.926c-.309-.073-.586-.11-.829-.11-1.46 0-2.189.814-2.189 2.444v5.153zm15.393 0h-4.412v-7.078c0-.582-.09-.955-.271-1.117s-.407-.243-.68-.243c-.804 0-1.206.56-1.206 1.681v6.756h-4.412v-11.246h4.092v1.593c.604-1.216 1.683-1.825 3.24-1.825.818 0 1.51.156 2.074.47s.968.719 1.21 1.217c.244.498.365 1.362.365 2.593v7.2-.001zm13.658 0h-4.202c-.103-.479-.155-1.003-.155-1.57-.796 1.202-2.001 1.803-3.616 1.803-1.326 0-2.32-.339-2.98-1.018-.66-.678-.989-1.456-.989-2.333 0-1.187.54-2.147 1.62-2.88 1.08-.734 2.995-1.174 5.745-1.322v-.254c0-.494-.112-.822-.337-.984-.225-.162-.555-.243-.99-.243-1.017 0-1.584.409-1.703 1.228l-4.025-.376c.575-2.352 2.532-3.527 5.872-3.527.907 0 1.739.09 2.499.271.76.181 1.36.462 1.803.846.442.384.739.789.89 1.217.151.427.227 1.25.227 2.466v4.489c-.002.853.112 1.583.341 2.187zm-4.578-5.264c-1.88.2-2.82.8-2.82 1.803 0 .679.373 1.018 1.117 1.018.472 0 .874-.14 1.206-.42.332-.281.498-.899.498-1.858v-.543zm17.859 5.264h-4.203c-.103-.479-.155-1.003-.155-1.57-.796 1.202-2.001 1.803-3.616 1.803-1.327 0-2.32-.339-2.98-1.018-.66-.678-.99-1.456-.99-2.333 0-1.187.54-2.147 1.62-2.88 1.081-.734 2.995-1.174 5.745-1.322v-.254c0-.494-.112-.822-.336-.984-.225-.162-.555-.243-.99-.243-1.017 0-1.585.409-1.703 1.228l-4.025-.376c.575-2.352 2.532-3.527 5.872-3.527.907 0 1.74.09 2.499.271.759.181 1.36.462 1.802.846.442.384.74.789.89 1.217.151.427.228 1.25.228 2.466v4.489c-.001.853.114 1.583.342 2.187zm-4.578-5.264c-1.88.2-2.82.8-2.82 1.803 0 .679.373 1.018 1.118 1.018.472 0 .873-.14 1.205-.42.332-.281.498-.899.498-1.858v-.543zm10.871-9.83v15.095h-4.346v-15.095h4.346z" fill="#fff"/><path d="M51.588 51.091v19.817h-51.274v-19.817h51.274m.314-.314h-51.902v20.446h51.902v-20.446z"/></svg>