<svg xmlns="http://www.w3.org/2000/svg"   viewBox="0 0 480 360"><path d="M165 136.518h306v65h-306zM68.997 146.416v47.988h-14.73v-18.668h-11.25v18.668h-14.73v-47.988h14.73v17.648h11.25v-17.648h14.73zM100.461 181.572l13.078.879c-.773 3.516-2.748 6.51-5.924 8.982-3.176 2.473-7.471 3.709-12.885 3.709-6.024 0-10.828-1.74-14.414-5.222s-5.379-7.799-5.379-12.955c0-5.344 1.77-9.855 5.309-13.535 3.539-3.679 8.262-5.52 14.168-5.52 5.718 0 10.341 1.735 13.869 5.203 3.527 3.469 5.291 8.191 5.291 14.168 0 .492-.012 1.172-.035 2.039h-23.941c.047 2.25.445 3.92 1.195 5.01s2.18 1.635 4.289 1.635c3.047.002 4.84-1.463 5.379-4.393zm-.949-9.281c-.023-2.414-.508-4.037-1.454-4.869-.946-.832-2.12-1.248-3.521-1.248-3.317 0-4.975 2.039-4.975 6.117h9.95zM141.137 158.65v9.105h-7.137v13.185c0 1.805.339 2.877 1.02 3.217.68.34 1.383.51 2.109.51 1.125 0 2.461-.199 4.008-.598v9.983c-2.766.539-5.484.81-8.156.81-4.312 0-7.483-.926-9.51-2.777-2.027-1.852-3.041-4.805-3.041-8.859l.035-4.184v-11.285h-5.344v-9.105h5.344l.211-11.637 13.324-.212v11.848l7.137-.001z"/><g fill="#fff"><path d="M198.867 146.416v30.234c0 4.641-.417 8.174-1.248 10.6-.832 2.426-2.456 4.348-4.869 5.766-2.414 1.418-5.684 2.127-9.809 2.127-3.633 0-6.914-.387-9.844-1.16v-11.461c2.062.586 3.984.879 5.766.879 2.109 0 3.609-.485 4.5-1.459.891-.971 1.336-2.735 1.336-5.291v-30.234l14.168-.001zM223.722 195.143c-5.93 0-10.641-1.846-14.133-5.537-3.493-3.69-5.238-8.021-5.238-12.989 0-5.344 1.822-9.796 5.467-13.359 3.644-3.562 8.385-5.344 14.221-5.344 5.883 0 10.611 1.758 14.186 5.273 3.574 3.516 5.362 7.922 5.362 13.219 0 5.344-1.812 9.803-5.432 13.377-3.621 3.572-8.433 5.36-14.433 5.36zm.211-8.508c2.18 0 3.51-1.131 3.99-3.393s.721-4.623.721-7.084c0-3.352-.34-5.766-1.02-7.242-.68-1.477-1.898-2.215-3.656-2.215-1.617 0-2.801.762-3.551 2.285-.75 1.524-1.125 4.031-1.125 7.523 0 4.103.387 6.814 1.16 8.14.773 1.324 1.934 1.986 3.481 1.986zM283.805 158.65v35.754h-12.973v-5.871c-1.898 4.406-5.604 6.609-11.109 6.609-3.397 0-6.029-.943-7.893-2.83-1.864-1.888-2.795-4.588-2.795-8.104v-25.558h14.027v22.5c0 1.406.192 2.396.58 2.971.387.574 1.143.861 2.268.861 1.195 0 2.167-.428 2.918-1.283.75-.855 1.125-2.057 1.125-3.604v-21.445h13.852zM304.617 194.404h-13.43v-35.754h11.672v7.383c1.336-5.367 4.44-8.051 9.315-8.051.492 0 1.173.047 2.039.141v12.48c-.983-.234-1.862-.352-2.637-.352-4.642 0-6.961 2.59-6.961 7.77l.002 16.383zM353.555 194.404h-14.027v-22.5c0-1.851-.286-3.035-.86-3.551-.575-.515-1.296-.773-2.162-.773-2.555 0-3.832 1.781-3.832 5.344v21.48h-14.026v-35.754h13.008v5.062c1.921-3.867 5.354-5.801 10.301-5.801 2.602 0 4.799.498 6.592 1.494 1.793.997 3.076 2.285 3.85 3.867.774 1.582 1.16 4.33 1.16 8.244v22.888h-.004zM396.973 194.404h-13.359c-.328-1.523-.492-3.188-.492-4.992-2.531 3.82-6.363 5.73-11.496 5.73-4.218 0-7.377-1.078-9.475-3.234s-3.146-4.629-3.146-7.418c0-3.773 1.718-6.826 5.149-9.158 3.434-2.332 9.521-3.732 18.264-4.201v-.809c0-1.57-.357-2.613-1.072-3.129-.715-.515-1.764-.773-3.146-.773-3.234 0-5.039 1.301-5.414 3.902l-12.796-1.195c1.828-7.476 8.051-11.215 18.667-11.215 2.883 0 5.53.287 7.944.861 2.414.575 4.324 1.471 5.73 2.689 1.406 1.219 2.35 2.508 2.83 3.867s.721 3.973.721 7.84v14.272c0 2.721.363 5.041 1.091 6.963zm-14.556-16.734c-5.978.633-8.965 2.543-8.965 5.73 0 2.156 1.184 3.233 3.551 3.233 1.5 0 2.776-.444 3.832-1.336 1.056-.891 1.582-2.858 1.582-5.906v-1.721zM439.194 194.404h-13.359c-.328-1.523-.492-3.188-.492-4.992-2.53 3.82-6.362 5.73-11.495 5.73-4.22 0-7.378-1.078-9.476-3.234-2.099-2.156-3.146-4.629-3.146-7.418 0-3.773 1.717-6.826 5.149-9.158 3.435-2.332 9.521-3.732 18.264-4.201v-.809c0-1.57-.356-2.613-1.071-3.129-.715-.515-1.764-.773-3.146-.773-3.234 0-5.039 1.301-5.414 3.902l-12.797-1.195c1.828-7.476 8.051-11.215 18.668-11.215 2.883 0 5.531.287 7.945.861 2.414.575 4.324 1.471 5.729 2.689 1.406 1.219 2.351 2.508 2.83 3.867.48 1.359.722 3.973.722 7.84v14.272c-.001 2.721.363 5.041 1.089 6.963zm-14.554-16.734c-5.977.633-8.965 2.543-8.965 5.73 0 2.156 1.185 3.233 3.552 3.233 1.5 0 2.776-.444 3.831-1.336 1.056-.891 1.582-2.858 1.582-5.906v-1.721zM459.198 146.416v47.988h-13.816v-47.988h13.816z"/></g><path d="M165 137.518v63h-163v-63h163m1-1h-165v65h165v-65z"/></svg>