<svg xmlns="http://www.w3.org/2000/svg" viewBox="0 0 480 360"><path d="M95.675 156.772h5.823v20.6c2.07-1.863 4.356-2.795 6.858-2.795 2.847 0 5.124.923 6.832 2.769 1.449 1.604 2.174 4.166 2.174 7.686v15.45h-5.823v-14.906c0-2.02-.358-3.48-1.074-4.387-.716-.905-1.868-1.358-3.455-1.358-2.036 0-3.468.63-4.296 1.89-.811 1.276-1.216 3.469-1.216 6.573v12.188h-5.823v-43.71zm50.427 32.478h-18.063c.155 2.07.828 3.719 2.019 4.943 1.19 1.207 2.717 1.811 4.581 1.811 1.449 0 2.648-.344 3.597-1.035.932-.689 1.993-1.967 3.183-3.83l4.917 2.744c-.759 1.293-1.562 2.402-2.407 3.325-.846.923-1.751 1.683-2.717 2.276-.966.596-2.01 1.031-3.131 1.308-1.122.276-2.338.414-3.649.414-3.761 0-6.78-1.208-9.058-3.623-2.277-2.433-3.416-5.659-3.416-9.679 0-3.985 1.104-7.211 3.312-9.679 2.226-2.433 5.176-3.649 8.851-3.649 3.709 0 6.642 1.182 8.799 3.545 2.139 2.347 3.209 5.599 3.209 9.757l-.027 1.372zm-5.978-4.762c-.811-3.105-2.769-4.658-5.875-4.658-.708 0-1.372.108-1.993.323-.621.216-1.187.527-1.695.932-.509.405-.944.894-1.307 1.462-.362.57-.639 1.217-.828 1.941h11.698zm17.224-3.778v19.771h-5.823v-19.771h-2.484v-5.435h2.484v-9.239h5.823v9.239h4.529v5.435h-4.529zm14.502-14.518c0-1.397.496-2.588 1.488-3.571.992-.983 2.187-1.475 3.584-1.475 1.449 0 2.661.483 3.636 1.449.974.966 1.462 2.166 1.462 3.597 0 1.432-.496 2.648-1.488 3.649s-2.195 1.501-3.61 1.501c-1.38 0-2.571-.509-3.571-1.527-1.001-1.018-1.501-2.226-1.501-3.623zm.466 45.831v-37.681h9.239v37.681h-9.239zm42.404-24.533c0 1.881-.367 3.666-1.1 5.357-.734 1.689-1.799 3.209-3.196 4.555-1.415 1.346-2.998 2.363-4.749 3.053s-3.61 1.035-5.577 1.035c-2.001 0-3.878-.346-5.628-1.035-1.751-.689-3.317-1.707-4.697-3.053-1.38-1.312-2.433-2.816-3.157-4.518-.725-1.697-1.087-3.496-1.087-5.396 0-1.915.358-3.718 1.074-5.408.715-1.691 1.772-3.209 3.17-4.555 1.363-1.328 2.92-2.329 4.671-3.002 1.751-.673 3.636-1.009 5.655-1.009s3.899.336 5.642 1.009c1.742.673 3.304 1.674 4.684 3.002 1.415 1.363 2.484 2.89 3.209 4.582.724 1.692 1.086 3.486 1.086 5.383zm-9.161 0c0-1.949-.492-3.484-1.475-4.606-.983-1.12-2.312-1.683-3.985-1.683-1.691 0-3.024.562-3.999 1.683-.975 1.122-1.462 2.657-1.462 4.606s.483 3.48 1.449 4.594c.966 1.111 2.303 1.669 4.011 1.669 1.69 0 3.023-.558 3.999-1.669.974-1.113 1.462-2.645 1.462-4.594zm39.687-13.146v13.354c0 2.95-.238 5.137-.712 6.561-.476 1.423-1.272 2.688-2.394 3.791-1.158 1.156-2.598 2.019-4.323 2.589-1.726.568-3.752.854-6.082.854-2.312 0-4.326-.284-6.042-.854-1.717-.57-3.179-1.433-4.387-2.589-1.122-1.069-1.915-2.323-2.381-3.766-.466-1.438-.699-3.636-.699-6.586v-13.354h8.799v13.949c0 2.191.362 3.773 1.087 4.748.725.975 1.897 1.463 3.52 1.463 1.639 0 2.816-.479 3.533-1.438.715-.957 1.074-2.549 1.074-4.773v-13.949h9.007zm5.086 26.136v-26.138h8.695v6.159c.896-2.243 2.123-3.925 3.676-5.046s3.434-1.682 5.641-1.682c.363 0 .729.013 1.102.039.369.025.744.064 1.125.116l-.881 8.385c-.551-.189-1.096-.328-1.629-.414-.535-.086-1.054-.129-1.554-.129-2.243 0-3.973.686-5.188 2.057-1.217 1.372-1.823 3.316-1.823 5.836v10.816h-9.164v.001zm22.038 0v-26.138h8.437v5.305c1.226-2.122 2.641-3.675 4.244-4.658 1.604-.983 3.527-1.475 5.771-1.475 1.688 0 3.195.271 4.516.815 1.32.543 2.395 1.324 3.223 2.342.689.88 1.182 1.95 1.476 3.209.293 1.26.438 3.141.438 5.643v14.957h-9.238v-14c0-2.088-.342-3.605-1.022-4.556-.683-.948-1.771-1.423-3.272-1.423-1.914 0-3.312.708-4.191 2.122-.881 1.415-1.32 3.709-1.32 6.884v10.973h-9.062zm61.036-26.136v26.139h-8.463v-4.244c-1.207 1.812-2.565 3.14-4.074 3.984-1.512.846-3.283 1.269-5.318 1.269-3.486 0-6.271-1.271-8.359-3.816s-3.131-5.957-3.131-10.235c0-4.26 1.09-7.646 3.273-10.156 2.182-2.511 5.119-3.766 8.812-3.766 1.967 0 3.66.418 5.084 1.255s2.646 2.127 3.662 3.869v-4.296h8.514v-.003zm-8.099 13.043c0-2.035-.543-3.647-1.631-4.84-1.086-1.189-2.57-1.785-4.451-1.785s-3.358.592-4.438 1.772c-1.078 1.183-1.617 2.8-1.617 4.853 0 2.036.543 3.641 1.63 4.813 1.087 1.172 2.562 1.76 4.425 1.76 1.881 0 3.365-.587 4.451-1.76 1.088-1.173 1.631-2.777 1.631-4.813zm41.498-13.043v26.139h-8.462v-4.244c-1.208 1.812-2.565 3.14-4.075 3.984-1.511.846-3.283 1.269-5.317 1.269-3.486 0-6.271-1.271-8.359-3.816s-3.131-5.957-3.131-10.235c0-4.26 1.09-7.646 3.272-10.156 2.183-2.511 5.119-3.766 8.812-3.766 1.967 0 3.661.418 5.085 1.255 1.425.837 2.646 2.127 3.662 3.869v-4.296h8.513v-.003zm-8.1 13.043c0-2.035-.543-3.647-1.631-4.84-1.086-1.189-2.57-1.785-4.451-1.785s-3.359.592-4.438 1.772c-1.078 1.183-1.617 2.8-1.617 4.853 0 2.036.543 3.641 1.63 4.813 1.087 1.172 2.562 1.76 4.425 1.76 1.881 0 3.365-.587 4.451-1.76 1.088-1.173 1.631-2.777 1.631-4.813zm13.731 13.093v-40.111h9.238v40.111h-9.238zm-284.785-31.416v6.547l-22.101 9.083 22.101 9.007v6.573l-30.485-12.578v-6.028l30.485-12.604zm308.258 31.607v-6.548l22.101-9.083-22.101-9.006v-6.573l30.484 12.577v6.03l-30.484 12.603z"/></svg>