<svg xmlns="http://www.w3.org/2000/svg" width="150" height="122" viewBox="0 0 150 122"><path d="M19.602 50.525h2.208v7.811c.784-.705 1.651-1.06 2.601-1.06 1.079 0 1.941.35 2.59 1.051.548.607.823 1.579.823 2.914v5.859h-2.208v-5.653c0-.766-.136-1.319-.406-1.662-.273-.343-.71-.516-1.312-.516-.772 0-1.313.239-1.628.717-.308.483-.461 1.316-.461 2.493v4.621h-2.208v-16.575h.001zm19.12 12.316h-6.849c.058.785.313 1.409.765 1.873.451.458 1.03.688 1.737.688.549 0 1.004-.131 1.363-.394.354-.26.757-.745 1.208-1.451l1.864 1.041c-.288.49-.591.91-.913 1.26s-.663.639-1.031.863c-.365.227-.761.392-1.186.495-.426.105-.887.157-1.384.157-1.426 0-2.571-.458-3.434-1.374-.864-.922-1.296-2.146-1.296-3.67 0-1.511.419-2.734 1.256-3.669.844-.923 1.962-1.384 3.356-1.384 1.406 0 2.518.448 3.336 1.345.812.89 1.217 2.122 1.217 3.7l-.009.52zm-2.266-1.806c-.308-1.177-1.05-1.767-2.229-1.767-.267 0-.52.041-.755.122-.236.082-.45.2-.642.354-.194.154-.359.34-.496.554-.137.218-.242.463-.314.737h4.436zm6.53-1.433v7.498h-2.208v-7.498h-.942v-2.06h.942v-3.504h2.208v3.504h1.717v2.06h-1.717zm5.499-5.504c0-.53.187-.981.563-1.354.376-.373.83-.561 1.359-.561.55 0 1.01.185 1.379.55.369.366.555.821.555 1.364 0 .542-.189 1.005-.565 1.383-.376.381-.832.57-1.369.57-.523 0-.975-.194-1.354-.579-.379-.386-.568-.844-.568-1.373zm.177 17.377v-14.287h3.503v14.287h-3.503zm16.078-9.302c0 .714-.14 1.391-.417 2.031-.277.64-.681 1.217-1.212 1.727-.535.512-1.136.896-1.799 1.158-.665.262-1.369.394-2.115.394-.759 0-1.471-.133-2.134-.394-.664-.262-1.258-.646-1.78-1.158-.524-.497-.922-1.066-1.197-1.713-.275-.644-.413-1.325-.413-2.046 0-.726.136-1.409.407-2.051.271-.641.671-1.217 1.203-1.727.516-.503 1.107-.884 1.771-1.139.663-.255 1.378-.383 2.144-.383s1.479.128 2.139.383c.66.255 1.253.636 1.775 1.139.538.517.942 1.097 1.217 1.738.274.641.411 1.321.411 2.041zm-3.474 0c0-.739-.187-1.321-.559-1.746-.374-.424-.876-.638-1.511-.638-.641 0-1.146.213-1.516.638-.371.425-.555 1.007-.555 1.746s.183 1.319.548 1.741c.367.423.875.634 1.521.634.641 0 1.146-.211 1.516-.634.371-.421.556-1.002.556-1.741zm15.049-4.985v5.065c0 1.117-.09 1.947-.271 2.487-.18.539-.481 1.02-.907 1.437-.439.438-.985.766-1.639.982-.655.215-1.423.323-2.307.323-.877 0-1.641-.107-2.292-.323-.65-.217-1.204-.545-1.662-.982-.426-.405-.727-.881-.903-1.429-.177-.544-.266-1.378-.266-2.495v-5.065h3.336v5.29c0 .83.137 1.43.413 1.8.275.369.719.555 1.334.555.622 0 1.068-.181 1.34-.545.271-.362.407-.967.407-1.81v-5.29h3.417zm1.928 9.911v-9.911h3.295v2.336c.341-.852.807-1.488 1.395-1.913.588-.426 1.302-.639 2.14-.639l.417.016.427.043-.333 3.18c-.21-.071-.415-.124-.619-.158-.202-.031-.398-.048-.589-.048-.85 0-1.505.26-1.967.779-.46.521-.691 1.258-.691 2.214v4.102h-3.475v-.001zm8.355 0v-9.911h3.199v2.012c.465-.805 1.002-1.394 1.61-1.766.608-.374 1.336-.561 2.188-.561.64 0 1.212.103 1.712.31.501.206.908.503 1.223.888.261.334.448.739.561 1.217.109.478.165 1.191.165 2.14v5.672h-3.501v-5.31c0-.791-.129-1.367-.389-1.728-.259-.359-.67-.539-1.24-.539-.726 0-1.255.269-1.59.804-.334.538-.5 1.406-.5 2.61v4.161h-3.438v.001zm23.144-9.911v9.912h-3.209v-1.61c-.458.687-.973 1.191-1.544 1.511-.573.32-1.245.481-2.017.481-1.322 0-2.378-.482-3.169-1.448-.792-.965-1.188-2.257-1.188-3.88 0-1.615.414-2.899 1.242-3.851.828-.952 1.941-1.429 3.341-1.429.746 0 1.388.159 1.928.477s1.003.807 1.389 1.467v-1.629h3.228v-.001h-.001zm-3.071 4.946c0-.771-.206-1.383-.619-1.836-.411-.45-.974-.677-1.688-.677-.712 0-1.272.226-1.682.672-.409.449-.613 1.062-.613 1.841 0 .772.206 1.381.618 1.825.412.444.972.667 1.677.667.714 0 1.277-.222 1.688-.667.413-.445.619-1.053.619-1.825zm15.734-4.946v9.912h-3.208v-1.61c-.458.687-.973 1.191-1.545 1.511-.574.32-1.245.481-2.017.481-1.322 0-2.378-.482-3.169-1.448-.792-.965-1.187-2.257-1.187-3.88 0-1.615.412-2.899 1.239-3.851.828-.952 1.941-1.429 3.342-1.429.745 0 1.388.159 1.928.477s1.003.807 1.388 1.467v-1.629h3.228v-.001h.001zm-3.071 4.946c0-.771-.205-1.383-.618-1.836-.413-.45-.975-.677-1.688-.677s-1.274.226-1.683.672c-.408.449-.613 1.062-.613 1.841 0 .772.206 1.381.618 1.825.413.444.971.667 1.678.667.713 0 1.275-.222 1.688-.667.413-.445.618-1.053.618-1.825zm5.207 4.965v-15.209h3.502v15.209h-3.502zm-107.982-11.912v2.482l-8.379 3.443 8.379 3.416v2.491l-11.559-4.767v-2.286l11.559-4.779zm116.882 11.984v-2.483l8.38-3.443-8.38-3.414v-2.494l11.559 4.769v2.285l-11.559 4.78z"/></svg>