<svg xmlns="http://www.w3.org/2000/svg"   viewBox="0 0 480 360"><g><path d="M81 105.518h120v72h-120zM81 187.518h307v72h-307z"/><g fill="#fff"><path d="M112.43 167.926v-22.436h-8.884v22.436h-10.691v-53.604h10.691v21.532h8.884v-21.532h10.691v53.604h-10.691zM131.397 167.926v-53.604h24.694v9.637h-14.003v12.121h12.046v9.637h-12.046v12.573h14.003v9.637l-24.694-.001zM179.729 123.958v43.968h-10.691v-43.968h-9.034v-9.637h28.759v9.637h-9.034z"/></g><g fill="#fff"><path d="M112.731 247.473c-2.861 3.012-6.701 4.668-12.272 4.668-4.818 0-8.884-1.731-11.745-4.594l7.378-7.229c.753 1.055 2.56 2.185 4.367 2.185 3.237 0 5.496-2.259 5.496-6.399v-38.17h10.691v38.17c0 4.516-1.28 8.582-3.915 11.369zM150.446 246.794c-2.484 2.937-5.797 5.347-11.82 5.347s-9.185-2.41-11.669-5.347c-4.291-5.119-3.99-14.831-3.99-22.06 0-7.228-.301-16.938 3.99-22.06 2.484-2.936 5.646-5.346 11.669-5.346s9.336 2.41 11.82 5.346c4.292 5.12 3.99 14.832 3.99 22.06 0 7.229.301 16.941-3.99 22.06zm-8.131-37.719c-.603-1.204-1.732-2.108-3.689-2.108s-2.936.904-3.538 2.108c-1.28 2.483-1.431 9.186-1.431 15.659 0 6.475.15 13.176 1.431 15.66.602 1.205 1.581 2.107 3.538 2.107s3.087-.902 3.689-2.107c1.28-2.484 1.43-9.186 1.43-15.66 0-6.473-.15-13.173-1.43-15.659zM187.031 247.697c-2.861 2.937-6.625 4.441-11.143 4.441s-8.282-1.506-11.143-4.441c-2.56-2.635-3.99-6.249-3.99-10.54v-39.226h10.691v39.752c0 3.463 2.033 4.818 4.442 4.818 2.409 0 4.442-1.355 4.442-4.818v-39.752h10.691v39.226c0 4.291-1.431 7.905-3.99 10.54zM219.702 251.537l-6.55-20.854h-3.539v20.854h-10.691v-53.604h15.283c11.669 0 14.907 6.099 14.907 16.338 0 5.722-.903 10.84-6.098 14.078l7.83 23.188h-11.142zm-5.572-43.969h-4.517v13.478h4.517c4.065 0 4.292-3.688 4.292-6.774 0-3.088-.226-6.704-4.292-6.704zM258.922 251.537l-11.367-26.2v26.2h-10.692v-53.604h9.335l11.143 26.199v-26.199h10.69v53.604h-9.109zM299.572 251.537l-1.732-8.355h-12.347l-1.731 8.355h-11.143l13.777-53.604h10.539l13.778 53.604h-11.141zm-7.905-37.869l-4.142 19.876h8.281l-4.139-19.876zM339.168 251.537l-1.73-8.355h-12.348l-1.732 8.355h-11.142l13.777-53.604h10.54l13.777 53.604h-11.142zm-7.904-37.869l-4.142 19.876h8.28l-4.138-19.876zM354.898 251.537v-53.604h10.689v43.967h14.004v9.637h-24.693z"/></g></g></svg>