<svg xmlns="http://www.w3.org/2000/svg" width="150" height="122" viewBox="335 109 150 122" enable-background="new 335 109 150 122"><path d="M354.314 142.066h43.533v26.12h-43.533v-26.12zm0 29.748h111.371v26.119h-111.371v-26.119z"/><path d="M365.717 164.706v-8.139h-3.223v8.139h-3.879v-19.446h3.879v7.812h3.223v-7.812h3.878v19.446h-3.878zm6.881 0v-19.446h8.958v3.496h-5.08v4.397h4.37v3.496h-4.37v4.561h5.08v3.496h-8.958zm17.533-15.95v15.95h-3.879v-15.95h-3.277v-3.496h10.434v3.496h-3.278zm-24.305 44.808c-1.038 1.092-2.432 1.692-4.452 1.692-1.748 0-3.223-.628-4.261-1.666l2.677-2.623c.272.383.929.793 1.584.793 1.174 0 1.993-.819 1.993-2.321v-13.848h3.879v13.848c0 1.639-.465 3.114-1.42 4.125zm13.682-.247c-.901 1.065-2.104 1.939-4.288 1.939s-3.332-.874-4.233-1.939c-1.557-1.857-1.447-5.38-1.447-8.003 0-2.622-.109-6.145 1.447-8.002.901-1.065 2.049-1.939 4.233-1.939s3.387.874 4.288 1.939c1.557 1.857 1.447 5.38 1.447 8.002 0 2.624.109 6.146-1.447 8.003zm-2.95-13.682c-.219-.438-.628-.766-1.338-.766s-1.065.328-1.283.766c-.465.9-.52 3.332-.52 5.68 0 2.35.055 4.78.52 5.682.218.437.573.764 1.283.764s1.12-.327 1.338-.764c.465-.901.52-3.333.52-5.682-.001-2.348-.056-4.78-.52-5.68zm16.221 14.01c-1.037 1.066-2.403 1.611-4.042 1.611s-3.005-.547-4.042-1.611c-.929-.955-1.447-2.267-1.447-3.823v-14.229h3.878v14.42c0 1.257.737 1.748 1.611 1.748s1.611-.491 1.611-1.748v-14.42h3.879v14.229c.001 1.556-.519 2.867-1.448 3.823zm11.853 1.393l-2.376-7.565h-1.284v7.565h-3.878v-19.446h5.544c4.233 0 5.408 2.213 5.408 5.928 0 2.075-.328 3.932-2.213 5.106l2.841 8.412h-4.042zm-2.022-15.95h-1.639v4.889h1.639c1.475 0 1.557-1.338 1.557-2.457 0-1.122-.082-2.432-1.557-2.432zm16.25 15.95l-4.124-9.505v9.505h-3.879v-19.446h3.387l4.042 9.504v-9.504h3.879v19.446h-3.305zm14.746 0l-.628-3.031h-4.479l-.628 3.031h-4.042l4.998-19.446h3.822l4.998 19.446h-4.041zm-2.867-13.738l-1.503 7.211h3.005l-1.502-7.211zm17.232 13.738l-.628-3.031h-4.479l-.629 3.031h-4.042l4.998-19.446h3.823l4.998 19.446h-4.041zm-2.867-13.738l-1.503 7.211h3.004l-1.501-7.211zm8.573 13.738v-19.446h3.879v15.95h5.08v3.496h-8.959z" fill="#fff"/></svg>