<svg xmlns="http://www.w3.org/2000/svg" width="150" height="122" viewBox="335 109 150 122" enable-background="new 335 109 150 122"><path d="M352.597 166.114h116.648v6.704h-116.648v-6.704zm9.132-6.306v-10.028h-3.971v10.027h-4.777v-23.957h4.777v9.624h3.971v-9.624h4.777v23.957h-4.777zm8.475 0v-23.957h11.037v4.307h-6.258v5.418h5.384v4.307h-5.384v5.62h6.258v4.307l-11.037-.002zm21.602-19.651v19.65h-4.778v-19.65h-4.038v-4.307h12.854v4.307h-4.038zm-36.072 61.906c-1.279 1.346-2.995 2.086-5.486 2.086-2.152 0-3.969-.773-5.248-2.053l3.298-3.23c.336.471 1.144.975 1.95.975 1.447 0 2.457-1.009 2.457-2.858v-17.059h4.778v17.059c0 2.018-.572 3.834-1.749 5.08zm16.856-.303c-1.11 1.312-2.592 2.39-5.284 2.39-2.69 0-4.104-1.077-5.214-2.39-1.918-2.288-1.784-6.627-1.784-9.858 0-3.23-.134-7.571 1.784-9.86 1.11-1.312 2.523-2.39 5.214-2.39 2.692 0 4.174 1.077 5.284 2.39 1.917 2.289 1.783 6.631 1.783 9.86 0 3.231.134 7.57-1.783 9.858zm-3.635-16.856c-.269-.54-.773-.942-1.648-.942-.874 0-1.312.402-1.582.942-.57 1.108-.639 4.104-.639 6.998 0 2.893.068 5.888.639 6.998.271.538.708.94 1.582.94.875 0 1.38-.402 1.648-.94.572-1.11.64-4.105.64-6.998s-.069-5.889-.64-6.998zm19.984 17.259c-1.278 1.314-2.961 1.986-4.979 1.986-2.02 0-3.702-.673-4.981-1.986-1.144-1.177-1.782-2.791-1.782-4.71v-17.529h4.777v17.765c0 1.548.909 2.152 1.986 2.152 1.076 0 1.984-.604 1.984-2.152v-17.765h4.778v17.529c.002 1.919-.638 3.533-1.783 4.71zm14.602 1.718l-2.927-9.321h-1.582v9.321h-4.778v-23.957h6.831c5.216 0 6.661 2.726 6.661 7.302 0 2.557-.402 4.844-2.725 6.29l3.5 10.365h-4.98zm-2.489-19.651h-2.019v6.022h2.019c1.816 0 1.917-1.649 1.917-3.027 0-1.38-.101-2.995-1.917-2.995zm20.017 19.651l-5.081-11.71v11.71h-4.778v-23.957h4.174l4.979 11.71v-11.71h4.778v23.957h-4.072zm18.168 0l-.774-3.735h-5.52l-.773 3.735h-4.979l6.157-23.957h4.711l6.158 23.957h-4.98zm-3.532-16.925l-1.853 8.881h3.701l-1.848-8.881zm21.229 16.925l-.773-3.735h-5.52l-.773 3.735h-4.979l6.157-23.957h4.711l6.157 23.957h-4.98zm-3.534-16.925l-1.851 8.881h3.7l-1.849-8.881zm10.565 16.925v-23.957h4.776v19.648h6.259v4.31l-11.035-.001z"/></svg>