<svg xmlns="http://www.w3.org/2000/svg" width="150" height="122" viewBox="335 109 150 122" enable-background="new 335 109 150 122"><path d="M360.571 164.914v-6.187h-6.395v6.187h-3.97v-15.397h3.97v5.748h6.395v-5.748h3.972v15.397h-3.972zm6.742 0v-15.397h11.289v3.462h-7.318v2.401h7.156v3.462h-7.156v2.609h7.318v3.462h-11.289zm17.038 0v-11.935h-4.317v-3.462h12.581v3.462h-4.293v11.935h-3.971zm-35.461 16.859l1.662-3.025c.554.461 1.293.9 2.216.9 1.247 0 2.055-.809 2.055-2.102v-10.064h3.971v10.111c0 3.809-2.309 5.564-5.679 5.564-1.547.001-3.071-.368-4.225-1.384zm11.89-6.578c0-4.688 3.531-7.965 8.241-7.965 4.709 0 8.218 3.278 8.218 7.965 0 4.686-3.509 7.963-8.218 7.963s-8.241-3.277-8.241-7.963zm12.419 0c0-2.518-1.639-4.457-4.178-4.457s-4.201 1.939-4.201 4.457c0 2.492 1.662 4.453 4.201 4.453s4.178-1.96 4.178-4.453zm6.05 1.453v-9.165h4.04v9.026c0 1.824 1.108 3.139 3.255 3.139 2.124 0 3.231-1.314 3.231-3.139v-9.026h4.017v9.142c0 3.832-2.308 6.533-7.248 6.533s-7.295-2.724-7.295-6.51zm25.902 6.233l-2.585-5.172h-2.032v5.172h-3.97v-15.396h7.709c3.417 0 5.356 2.262 5.356 5.124 0 2.679-1.616 4.108-3.07 4.618l3.139 5.654h-4.547zm.439-10.295c0-1.062-.854-1.639-1.917-1.639h-3.139v3.301h3.139c1.063 0 1.917-.578 1.917-1.662zm16.715 10.295l-6.51-8.91v8.91h-3.971v-15.396h4.086l6.234 8.471v-8.471h3.992v15.396h-3.831zm17.06 0l-.762-2.215h-6.07l-.764 2.215h-4.5l5.793-15.396h5.01l5.793 15.396h-4.5zm-3.785-11.473l-1.963 5.795h3.902l-1.939-5.795zm19.877 11.473l-.762-2.215h-6.072l-.762 2.215h-4.502l5.795-15.396h5.008l5.795 15.396h-4.5zm-3.785-11.473l-1.965 5.795h3.904l-1.939-5.795zm9.349 11.473v-15.396h3.971v11.936h6.188v3.461h-10.159zm-112.2 4.721h21.819v2.881h-21.819v-2.881z"/></svg>