<svg xmlns="http://www.w3.org/2000/svg" viewBox="0 0 480 360"><path d="M111.542 164.406v-15.028h-15.532v15.028h-9.645v-37.402h9.645v13.963h15.533v-13.963h9.646v37.402h-9.647zm16.379 0v-37.402h27.421v8.411h-17.776v5.832h17.383v8.411h-17.383v6.337h17.776v8.411h-27.421zm41.387 0v-28.991h-10.486v-8.411h30.561v8.411h-10.43v28.991h-9.645zm-86.14 40.953l4.037-7.348c1.346 1.122 3.141 2.188 5.383 2.188 3.028 0 4.991-1.964 4.991-5.103v-24.45h9.645v24.561c0 9.253-5.607 13.516-13.794 13.516-3.757.002-7.458-.897-10.262-3.364zm28.882-15.981c0-11.384 8.58-19.347 20.019-19.347s19.963 7.963 19.963 19.347c0 11.383-8.524 19.347-19.963 19.347s-20.019-7.964-20.019-19.347zm30.169 0c0-6.112-3.981-10.823-10.15-10.823s-10.206 4.71-10.206 10.823c0 6.056 4.037 10.822 10.206 10.822s10.15-4.766 10.15-10.822zm14.696 3.532v-22.262h9.813v21.926c0 4.43 2.692 7.626 7.907 7.626 5.159 0 7.851-3.196 7.851-7.626v-21.926h9.757v22.206c0 9.31-5.607 15.869-17.608 15.869-12.001.002-17.72-6.618-17.72-15.813zm62.921 15.141l-6.281-12.561h-4.935v12.561h-9.645v-37.402h18.729c8.299 0 13.01 5.495 13.01 12.449 0 6.504-3.925 9.98-7.458 11.215l7.626 13.738h-11.046zm1.065-25.01c0-2.58-2.075-3.981-4.654-3.981h-7.626v8.019h7.626c2.579-.001 4.654-1.402 4.654-4.038zm40.603 25.01l-15.812-21.646v21.646h-9.646v-37.402h9.925l15.141 20.58v-20.58h9.701v37.402h-9.309zm41.443 0l-1.85-5.383h-14.747l-1.851 5.383h-10.937l14.076-37.402h12.168l14.075 37.402h-10.934zm-9.196-27.87l-4.767 14.075h9.478l-4.711-14.075zm48.285 27.87l-1.851-5.383h-14.748l-1.851 5.383h-10.936l14.076-37.402h12.168l14.076 37.402h-10.934zm-9.196-27.87l-4.767 14.075h9.478l-4.711-14.075zm22.715 27.87v-37.402h9.646v28.992h15.028v8.41h-24.674zm-272.555 11.467h53v7h-53v-7z"/></svg>