<svg xmlns="http://www.w3.org/2000/svg" width="400" height="300" viewBox="0 0 400 300"><path d="M17.167 332l11.142-40.539s7.428-23.661 36.079-27.905 67.383-12.203 67.383-12.203l23.876-19.631-4.245 56.241.531 15.917M249.358 328.827l-2.982-58.904-6.898-38.202 6.898 7.958 12.203 7.959 111.421 31.835s6.367-3.714 12.203 45.099M155.659 238.321l38.19 36.179h5.837l39.814-42.779v-40.721M155.5 232v-13.543l10.155 13.265s38.996 18.57 64.464-23.345l9.267-16.573M162.369 202.007s29.89 2.123 40.501-1.061M239.023 191.746s11.952 7.428 15.312 0c3.359-7.428 9.195-24.406 9.195-24.406s4.422-26.705-15.209-1.945l-5.483 3.539c2.123-22.642-9.825-45.629-9.825-45.629l-1.514.711v4.77l-18.472-20.248-.393-.62c-16.801-13.795-60.239 5.483-60.239 5.483l-3.149 2.123-1.311 8.489 1.336 3.539c-2.829-.707-7.601-11.143-7.601-11.143l-1.412 3.712s-.357 81.623 15.386 97.626M248.227 176.324M261.011 154.902l2.344-5.069c17.864-56.417-39.792-82.593-39.792-82.593-28.829-39.086-84.362 23.169-84.362 23.169s-24.583 29.359-5.306 59.424l8.525 17.245M197.563 151.069s12.734-12.734 21.4 0M151.934 155.313s12.734-12.734 21.4 0M146.628 143.994s16.625-15.386 30.597 1.416M190.312 147.354s20.163-18.212 31.128-1.236M169.62 182.373l8.666 4.598 11.142-3.89" stroke="#000" stroke-miterlimit="10" fill="none"/><circle cx="209.501" cy="150.809" r="3.449"/><circle cx="162.811" cy="153.992" r="3.449"/></svg>