<svg xmlns="http://www.w3.org/2000/svg" viewBox="0 0 400 300"><path d="M152.405 77.233c-14.542 7.699-9.838 71.287-9.838 71.287M125.459 148.52s-8.84-61.592 26.946-71.287M152.405 77.233s36.355-19.817 63.729 1.141M216.135 78.374c23.952 6.416 29.94 57.314 29.94 57.314l-.568 9.767M23.002 312.334l18.197-54.319-3.85-10.265 8.554-24.38s-1.711-6.416 8.554-9.41c10.266-2.994 37.211-14.114 37.211-14.114l40.765-18.334M251.208 182.736l22.669 18.393 65.869 16.253s15.397 2.139 17.536 19.675c2.139 17.537 21.055 72.61 21.055 72.61M134.869 151.086l24.524 4.562 44.766-2.566 9.981-1.996 41.061-6.843M199.133 174.61s-8.554 12.725 3.743 11.335M199.556 207.117l26.844-4.491M214.14 151.086s1.995 17.68 12.26 17.109c10.267-.57 13.545-1.568 13.545-1.568s9.837-.357 7.984-21.172M168.373 155.133s-2.849 18.766 8.7 18.623l18.676-1.284s7.27-.642 7.128-6.522c-.141-5.881 0-12.582 0-12.582M146.443 203.817M244.852 163.562c11.831 16.246 3.362 35.325-.381 53.098-2.999 14.248-11.535 30.121-26.677 34.997-4.673 1.505-9.347 3.011-14.021 4.515-8.417 2.712-20.532-7.906-26.5-12.891-9.812-8.195-16.12-15.943-24.595-29.107M152.678 213.244l8.992 35.931 5.133 21.957M239.034 233.483l3.335 49.339M175.074 153.367s3.707-5.988 24.481-3.421M216.135 148.52s18.054-11.406 24.567-10.265" stroke="#000" stroke-miterlimit="10" fill="none"/><ellipse cx="185.647" cy="157.971" rx="3.021" ry="2.442"/><ellipse cx="231.146" cy="153.393" rx="3.02" ry="2.445"/><path d="M185.646 224.439s31.705 31.438 49.167 0M152.678 213.424l-5.833-17.924h-5.988c-3.358-6-10.628-17.29-13.986-22.527-3.268-5.096-6.976-9-6.673-15.406.503-10.709 14.541-4.689 19.807-1.783M145.253 201.959M220.805 172.899s10.158 12.725-4.446 11.335" stroke="#000" stroke-miterlimit="10" fill="none"/></svg>
