<?xml version="1.0" encoding="iso-8859-1"?>
<!-- Generator: Adobe Illustrator 16.0.4, SVG Export Plug-In . SVG Version: 6.00 Build 0)  -->
<!DOCTYPE svg PUBLIC "-//W3C//DTD SVG 1.1//EN" "http://www.w3.org/Graphics/SVG/1.1/DTD/svg11.dtd">
<svg version="1.1" id="Layer_2" xmlns="http://www.w3.org/2000/svg" xmlns:xlink="http://www.w3.org/1999/xlink" x="0px" y="0px"
	 width="400px" height="300px" viewBox="0 0 400 300" style="enable-background:new 0 0 400 300;" xml:space="preserve">
<path style="fill:none;stroke:#000000;stroke-miterlimit:10;" d="M55.667,321.319c0,0,23.82-47.642,70.8-56.905"/>
<path style="fill:none;stroke:#000000;stroke-miterlimit:10;" d="M311.076,259.397c0,0,43.01,4.355,54.258,61.921"/>
<line style="fill:none;stroke:#000000;stroke-miterlimit:10;" x1="144.332" y1="130.423" x2="126.467" y2="264.414"/>
<path style="fill:none;stroke:#000000;stroke-miterlimit:10;" d="M126.362,264.578c0,0,12.138,82.546,34.138,88.501v-14.227
	l7.879-4.632l-3.67-17.204l26.245,7.61l-8.476-17.535"/>
<path style="fill:none;stroke:#000000;stroke-miterlimit:10;" d="M160.709,301.468c0,0-20.182-26.799-16.129-68.815"/>
<line style="fill:none;stroke:#000000;stroke-miterlimit:10;" x1="164.762" y1="215.12" x2="162.527" y2="276.324"/>
<polyline style="fill:none;stroke:#000000;stroke-miterlimit:10;" points="243.57,217.989 241.93,241.585 248.806,253.283 "/>
<path style="fill:none;stroke:#000000;stroke-miterlimit:10;" d="M172.123,139.687c0,0,14.887-6.286,30.105,3.97"/>
<path style="fill:none;stroke:#000000;stroke-miterlimit:10;" d="M225.719,144.98c0,0,29.445-7.278,29.445,2.316"/>
<path style="fill:none;stroke:#000000;stroke-miterlimit:10;" d="M186.679,202.546c0,0,20.183,17.535,39.04,5.956"/>
<circle cx="188.862" cy="150.637" r="3.651"/>
<circle cx="238.488" cy="154.608" r="3.651"/>
<path style="fill:none;stroke:#000000;stroke-miterlimit:10;" d="M178.408,150.274c0,0,16.872-12.148,20.512,4.017"/>
<path style="fill:none;stroke:#000000;stroke-miterlimit:10;" d="M225.719,156.229c0,0,15.22-15.218,23.82,0"/>
<path style="fill:none;stroke:#000000;stroke-miterlimit:10;" d="M244.984,97.889l17.516,36.835v16.542l4.354-1.801
	c0,0,5.073-2.5,4.08,10.403c-0.992,12.903-3.915,20.513-3.915,20.513s-5.705,15.55-11.991,9.925"/>
<path style="fill:none;stroke:#000000;stroke-miterlimit:10;" d="M255.164,190.306c0,0-8.271,32.09-26.137,44.332"/>
<path style="fill:none;stroke:#000000;stroke-miterlimit:10;" d="M189.492,238.939c0,0,22.662,9.594,39.535-4.302"/>
<path style="fill:none;stroke:#000000;stroke-miterlimit:10;" d="M157.4,152.847l-3.805-17.792l-0.331-0.662
	c0,0-10.587-12.241-8.933,10.587l2.316,9.627l1.157,9.561l0.905,3.64l7.428,14.226c0,0,3.361,2.646,4.361,0v14.888
	c0,0,12.015,37.717,28.888,42.018"/>
<path style="fill:none;stroke:#000000;stroke-miterlimit:10;" d="M157.4,152.847l6.245-13.16l11.124-11.014
	c0,0,41.318-39.386,70.434-30.785"/>
<path style="fill:none;stroke:#000000;stroke-miterlimit:10;" d="M312.068,258.405c-33.502-19.695-30.209-77.694-30.209-77.694
	l-1.552-0.662C291.556,79.804,230.02,58.465,230.02,58.465l-0.992-1.985c-65.507-19.354-84.695,73.943-84.695,73.943"/>
<path style="fill:none;stroke:#000000;stroke-miterlimit:10;" d="M162.506,276.324l19.994,22.498v8.271l16.398,1.324l4.85-14.392
	l17.752,5.127v-11.91c0,0,25.186-10.257,28.163-38.708c0,0,26.394,14.119,61.464,10.864"/>
<line style="fill:none;stroke:#000000;stroke-miterlimit:10;" x1="200.906" y1="176.079" x2="197.102" y2="180.877"/>
<line style="fill:none;stroke:#000000;stroke-miterlimit:10;" x1="222.246" y1="180.877" x2="224.396" y2="185.027"/>
</svg>
