<svg xmlns="http://www.w3.org/2000/svg" viewBox="0 0 400 300"><path d="M55.667 321.319s23.82-47.642 70.8-56.905M311.076 259.397s43.01 4.355 54.258 61.921M144.332 130.423l-17.865 133.991M126.362 264.578s12.138 82.546 34.138 88.501v-14.227l7.879-4.632-3.67-17.204 26.245 7.61-8.476-17.535M160.709 301.468s-20.182-26.799-16.129-68.815M164.762 215.12l-2.235 61.204M243.57 217.989l-1.64 23.596 6.876 11.698M172.123 139.687s14.887-6.286 30.105 3.97M225.719 144.98s29.445-7.278 29.445 2.316M186.679 202.546s20.183 17.535 39.04 5.956" stroke="#000" stroke-miterlimit="10" fill="none"/><circle cx="188.862" cy="150.637" r="3.651"/><circle cx="238.488" cy="154.608" r="3.651"/><path d="M178.408 150.274s16.872-12.148 20.512 4.017M225.719 156.229s15.22-15.218 23.82 0M244.984 97.889l17.516 36.835v16.542l4.354-1.801s5.073-2.5 4.08 10.403c-.992 12.903-3.915 20.513-3.915 20.513s-5.705 15.55-11.991 9.925M255.164 190.306s-8.271 32.09-26.137 44.332M189.492 238.939s22.662 9.594 39.535-4.302M157.4 152.847l-3.805-17.792-.331-.662s-10.587-12.241-8.933 10.587l2.316 9.627 1.157 9.561.905 3.64 7.428 14.226s3.361 2.646 4.361 0v14.888s12.015 37.717 28.888 42.018M157.4 152.847l6.245-13.16 11.124-11.014s41.318-39.386 70.434-30.785M312.068 258.405c-33.502-19.695-30.209-77.694-30.209-77.694l-1.552-.662c11.249-100.245-50.287-121.584-50.287-121.584l-.992-1.985c-65.507-19.354-84.695 73.943-84.695 73.943M162.506 276.324l19.994 22.498v8.271l16.398 1.324 4.85-14.392 17.752 5.127v-11.91s25.186-10.257 28.163-38.708c0 0 26.394 14.119 61.464 10.864M200.906 176.079l-3.804 4.798M222.246 180.877l2.15 4.15" stroke="#000" stroke-miterlimit="10" fill="none"/></svg>
