<svg xmlns="http://www.w3.org/2000/svg" viewBox="0 0 400 300"><path d="M30 284.876l13.226-17.261c2.866-3.741 12.67-4.752 16.969-6.104 12.121-3.812 24.168-7.447 36.434-10.746 13.121-3.529 29.35-5.143 40.807-12.711 12.361-8.166 21.688-18.429 32.066-29.031-1.309 5.752-6.514 17.182-4.76 22.737l9.646 30.58c2.135 6.771 7.924 9.804 13.366 14.349l23.121 19.311c3.525-7.081 6.387-15.561 10.951-22 4.361-6.15 11.342-10.436 15.997-16.42 6.26-8.047 12.519-16.096 18.778-24.143 4.03-5.183-1.487-14.967-3.103-20.938 4.172 5.824 8.344 11.648 12.517 17.475 2.196 3.065-.232 10.898-.576 14.406l-4.564 46.62m123.125 15c-1.688-7.031-3.375-14.062-5.062-21.094-1.576-6.57-8.323-8.318-13.994-11.705-13.594-8.119-27.469-11.004-42.823-15.154-26.209-7.086-47.17-29.314-68.619-45.547m-84.377-130.953c-8.231-.929-9.625 26.696-9.625 32.182 0 1.938.808 5.465-.625 6.896-2.656 2.654-3.375 2.913-3.375 6.625 0 5.761-.59 11.505-1 17.25-8.015-25.516-19.992-66.382 7.062-84.602 9.638-6.492 16.841-13.281 27.938-17.398 8.263-3.064 17.5-6.288 26.24-3.926 9.031 2.44 11.065 3.559 15.26 11.426 9.346-6.21 27.682 9.163 33.537 15.37 7.838 8.31 10.963 13.674 10.963 24.399v38.801c0 3.816-2.783 5.01-4.25 8.43-1.648 3.841-1.559 9.355-2.25 13.5-4.713-4.113.502-14.499-3.124-16.916-7.54-5.025-3.741-7.23-5.667-15.303-1.398-5.863-5.607-14.877-4.947-20.823 1.229-11.062-5.666-16.433-15.811-16.549-5.53-.064-10.465 3.655-15.967 4.688-7.812 1.465-14.938 2.902-22.859 2.902-6.164 0-31.728 1.573-31.453-8.727.22-8.166.586-12.862 3.828-20.273m-24.5 66.876c-5.956 1.51-4.315 27.37-2.806 32.829.761 2.746 3.484 16.296 7.242 16.296 4.338 0 4.978-1.014 5.336 3.24.365 4.32.73 8.642 1.097 12.963.44 5.223 6.278 11.247 9.006 15.547 3.249 5.125 6.231 10.581 9.947 15.389 9.382 12.141 17.267 17.578 32.593 18.953 14.63 1.312 21.376-6.171 32.308-15.113 9.644-7.891 12.107-21.098 16.859-31.787 3.133-7.051 3.861-12.265 4.613-20.014.186-1.896 4.697-.432 5.712-1.678 1.696-2.083 4.44-4.396 5.34-6.952 1.567-4.454 8.735-37.047-.247-36.298m-78.75 52.75c2.959 2.311 7.737 8 11.547 8 5.754 0 10.178-3.482 15.203-6.188m-31.25 18.438c5.944 1.559 12.638 4.48 18.75 4.914 6.834.484 14.672-1.646 21.5-2.414m-63-68.25c9.733-3.824 15.595.664 25.25 4.5m31.5 1.25c9.695-2.82 14.588-6.036 23.5-1.25m-76.75 9s9-7.75 19.25-2.75m40.25-.5s15.25-2.5 17.25 5.5" stroke="#000" stroke-miterlimit="10" fill="none"/><path d="M187.021 150.5c0 3-4.89 3-4.89 0s4.89-3 4.89 0zm51.209 1c0 4-4.891 4-4.891 0 .002-3 4.891-3 4.891 0z" stroke="#000" stroke-miterlimit="10"/><path d="M193.5 88.5c-9.806-8.789-22.351-14.864-20.5-29m21.75-1.5s2.25 30.5 7.75 30.5m3.5-30.5s8.824 29.221 12.688 28.496" stroke="#000" stroke-miterlimit="10" fill="none"/></svg>
