<?xml version="1.0" encoding="iso-8859-1"?>
<!-- Generator: Adobe Illustrator 16.0.4, SVG Export Plug-In . SVG Version: 6.00 Build 0)  -->
<!DOCTYPE svg PUBLIC "-//W3C//DTD SVG 1.1//EN" "http://www.w3.org/Graphics/SVG/1.1/DTD/svg11.dtd">
<svg version="1.1" id="Layer_2" xmlns="http://www.w3.org/2000/svg" xmlns:xlink="http://www.w3.org/1999/xlink" x="0px" y="0px"
	 width="400px" height="300px" viewBox="0 0 400 300" style="enable-background:new 0 0 400 300;" xml:space="preserve">
<path style="fill:none;stroke:#000000;stroke-miterlimit:10;" d="M30,284.876l13.226-17.261c2.866-3.741,12.67-4.752,16.969-6.104
	c12.121-3.812,24.168-7.447,36.434-10.746c13.121-3.529,29.35-5.143,40.807-12.711c12.361-8.166,21.688-18.429,32.066-29.031
	c-1.309,5.752-6.514,17.182-4.76,22.737l9.646,30.58c2.135,6.771,7.924,9.804,13.366,14.349L210.875,296
	c3.525-7.081,6.387-15.561,10.951-22c4.361-6.15,11.342-10.436,15.997-16.42c6.26-8.047,12.519-16.096,18.778-24.143
	c4.03-5.183-1.487-14.967-3.103-20.938c4.172,5.824,8.344,11.648,12.517,17.475c2.196,3.065-0.232,10.898-0.576,14.406L260.875,291
	 M384,306c-1.688-7.031-3.375-14.062-5.062-21.094c-1.576-6.57-8.323-8.318-13.994-11.705
	c-13.594-8.119-27.469-11.004-42.823-15.154c-26.209-7.086-47.17-29.314-68.619-45.547 M169.125,81.547
	c-8.231-0.929-9.625,26.696-9.625,32.182c0,1.938,0.808,5.465-0.625,6.896c-2.656,2.654-3.375,2.913-3.375,6.625
	c0,5.761-0.59,11.505-1,17.25c-8.015-25.516-19.992-66.382,7.062-84.602C171.2,53.406,178.403,46.617,189.5,42.5
	c8.263-3.064,17.5-6.288,26.24-3.926C224.771,41.014,226.805,42.133,231,50c9.346-6.21,27.682,9.163,33.537,15.37
	c7.838,8.31,10.963,13.674,10.963,24.399v38.801c0,3.816-2.783,5.01-4.25,8.43c-1.648,3.841-1.559,9.355-2.25,13.5
	c-4.713-4.113,0.502-14.499-3.124-16.916c-7.54-5.025-3.741-7.23-5.667-15.303c-1.398-5.863-5.607-14.877-4.947-20.823
	c1.229-11.062-5.666-16.433-15.811-16.549c-5.53-0.064-10.465,3.655-15.967,4.688c-7.812,1.465-14.938,2.902-22.859,2.902
	c-6.164,0-31.728,1.573-31.453-8.727c0.22-8.166,0.586-12.862,3.828-20.273 M148.5,126.375c-5.956,1.51-4.315,27.37-2.806,32.829
	c0.761,2.746,3.484,16.296,7.242,16.296c4.338,0,4.978-1.014,5.336,3.24c0.365,4.32,0.73,8.642,1.097,12.963
	c0.44,5.223,6.278,11.247,9.006,15.547c3.249,5.125,6.231,10.581,9.947,15.389c9.382,12.141,17.267,17.578,32.593,18.953
	c14.63,1.312,21.376-6.171,32.308-15.113c9.644-7.891,12.107-21.098,16.859-31.787c3.133-7.051,3.861-12.265,4.613-20.014
	c0.186-1.896,4.697-0.432,5.712-1.678c1.696-2.083,4.44-4.396,5.34-6.952c1.567-4.454,8.735-37.047-0.247-36.298 M196.75,182.5
	c2.959,2.311,7.737,8,11.547,8c5.754,0,10.178-3.482,15.203-6.188 M192.25,202.75c5.944,1.559,12.638,4.48,18.75,4.914
	c6.834,0.484,14.672-1.646,21.5-2.414 M169.5,137c9.733-3.824,15.595,0.664,25.25,4.5 M226.25,142.75
	c9.695-2.82,14.588-6.036,23.5-1.25 M173,150.5c0,0,9-7.75,19.25-2.75 M232.5,147.25c0,0,15.25-2.5,17.25,5.5"/>
<path style="stroke:#000000;stroke-miterlimit:10;" d="M187.021,150.5c0,3-4.89,3-4.89,0S187.021,147.5,187.021,150.5z
	 M238.23,151.5c0,4-4.891,4-4.891,0C233.341,148.5,238.23,148.5,238.23,151.5z"/>
<path style="fill:none;stroke:#000000;stroke-miterlimit:10;" d="M193.5,88.5c-9.806-8.789-22.351-14.864-20.5-29 M194.75,58
	c0,0,2.25,30.5,7.75,30.5 M206,58c0,0,8.824,29.221,12.688,28.496"/>
</svg>
