<svg xmlns="http://www.w3.org/2000/svg" viewBox="0 0 400 300"><path stroke="#000" stroke-miterlimit="10" fill="none" d="M35.5 328.015l7-14.515-3.5-35.5 8-10 43.5-20.5 56.5-15.5 11-12.5 5 12.5 9 41.758 13.75 48.227M249.94 301.647l-1.94-44.147-5.709-31.512 12.709 6.012 99 27.5 7.5 9.5 12.13 41.076M157.946 219.5c-1.677-17.919-3.141-35.842-5.532-53.68-1.149-8.567-1.082-16.729.106-25.293 2.49-17.964 6.049-24.971 21.728-34.383 9.486-5.695 13.591-2.346 23.721-2.269 8.604.064 16.937-2.568 25.643-2.421 14.782.25 33.287-3.75 33.942 17.44.565 18.278-9.101 38.618 2.696 53.855 4.092-2.253 5.35-5.299 7.633-9.054 2.804-4.612 9.825-2.218 8.867 3.554-2.381 14.339-9.829 26.374-22.721 33.271-15.715 8.408-8.209 36.901-19.243 47.985-6.338 6.367-13.802 10.988-21.185 16.113-8.583 5.958-8.212 3.779-16.815-2.394-5.487-3.938-14.304-7.975-18.017-13.75-3.474-5.403-7.699-18.379-15.77-15.975M151.625 151.25c-5.594-4.688-8.21-6.86-7.719-14.875.442-7.227 2.695-21.855 6.308-27.902 7.411-12.405 18.04-24.417 27.086-35.781 6.854-8.61 12.424-14.216 23.442-16.771 7.9-1.832 23.142-5.59 30.066.055 6.677 5.443 13.963 2.668 22.691 5.774 10.114 3.599 17.625 10.271 20.649 20.963 3.532 12.489 7.949 23.735 9.136 36.693.956 10.429.812 21.463-.687 31.83-1.838 12.713-4.576 25.067-10.254 36.748-4.974 10.234-19.498 19.341-26.852 28.766M171.667 204.5s13.25 8.834 42.708 7.167M180 189.167s12.833 15.666 27.333 4.833M188.5 160.167s11.699-1.188 14.865 2.979"/><path d="M156.667 157s1-6.167 8.833-5.5l19 3.229s5.333.771 3.333 9.771l-7.166 8.333-16-2s-10.166-.5-8-13.833z" stroke="#000" stroke-miterlimit="10" fill="none"/><circle cx="172.917" cy="162.279" r="3.083"/><path stroke="#000" stroke-miterlimit="10" fill="none" d="M152.394 147.07l4.981 7.126"/><path d="M234.795 167.609s.774-6.199-6.93-7.762c-7.705-1.562-19.142-2.243-19.142-2.243s-5.335-.759-5.946 8.44l4.534 10.011 15.917 2.579c.001.001 9.897 2.38 11.567-11.025zM234 165.5h4.5l15.643-7.911" stroke="#000" stroke-miterlimit="10" fill="none"/><circle cx="222.917" cy="167.279" r="3.083"/><path stroke="#000" stroke-miterlimit="10" fill="none" d="M161.5 144.75l24.25 7.756M217.25 154.196l17.25 3.083M163.25 157.589s12.25-5.546 20 4.558M214.375 164.5s7.625-6.816 17.875 1.779M168.826 233.007s6.54 5.821 9.174 6.993c3.703 1.648 11.88 2.909 15.933 3 3.993.09 12.023-1.003 15.817-2.25 6.137-2.018 17.522-8.455 22.75-12.25 4.193-3.044 14.997-14.307 14.997-14.307"/></svg>
