
<!-- Generator: Adobe Illustrator 16.0.4, SVG Export Plug-In . SVG Version: 6.00 Build 0)  -->

<svg version="1.1" id="Layer_2" xmlns="http://www.w3.org/2000/svg" xmlns:xlink="http://www.w3.org/1999/xlink" x="0px" y="0px"
	 width="400px" height="300px" viewBox="0 0 400 300" style="enable-background:new 0 0 400 300;" xml:space="preserve">
<polyline style="fill:none;stroke:#000000;stroke-miterlimit:10;" points="35.5,328.015 42.5,313.5 39,278 47,268 90.5,247.5 
	147,232 158,219.5 163,232 172,273.758 185.75,321.985 "/>
<polyline style="fill:none;stroke:#000000;stroke-miterlimit:10;" points="249.94,301.647 248,257.5 242.291,225.988 255,232 
	354,259.5 361.5,269 373.63,310.076 "/>
<path style="fill:none;stroke:#000000;stroke-miterlimit:10;" d="M157.946,219.5c-1.677-17.919-3.141-35.842-5.532-53.68
	c-1.149-8.567-1.082-16.729,0.106-25.293c2.49-17.964,6.049-24.971,21.728-34.383c9.486-5.695,13.591-2.346,23.721-2.269
	c8.604,0.064,16.937-2.568,25.643-2.421c14.782,0.25,33.287-3.75,33.942,17.44c0.565,18.278-9.101,38.618,2.696,53.855
	c4.092-2.253,5.35-5.299,7.633-9.054c2.804-4.612,9.825-2.218,8.867,3.554c-2.381,14.339-9.829,26.374-22.721,33.271
	c-15.715,8.408-8.209,36.901-19.243,47.985c-6.338,6.367-13.802,10.988-21.185,16.113c-8.583,5.958-8.212,3.779-16.815-2.394
	c-5.487-3.938-14.304-7.975-18.017-13.75c-3.474-5.403-7.699-18.379-15.77-15.975"/>
<path style="fill:none;stroke:#000000;stroke-miterlimit:10;" d="M151.625,151.25c-5.594-4.688-8.21-6.86-7.719-14.875
	c0.442-7.227,2.695-21.855,6.308-27.902c7.411-12.405,18.04-24.417,27.086-35.781c6.854-8.61,12.424-14.216,23.442-16.771
	c7.9-1.832,23.142-5.59,30.066,0.055c6.677,5.443,13.963,2.668,22.691,5.774c10.114,3.599,17.625,10.271,20.649,20.963
	c3.532,12.489,7.949,23.735,9.136,36.693c0.956,10.429,0.812,21.463-0.687,31.83c-1.838,12.713-4.576,25.067-10.254,36.748
	c-4.974,10.234-19.498,19.341-26.852,28.766"/>
<path style="fill:none;stroke:#000000;stroke-miterlimit:10;" d="M171.667,204.5c0,0,13.25,8.834,42.708,7.167"/>
<path style="fill:none;stroke:#000000;stroke-miterlimit:10;" d="M180,189.167c0,0,12.833,15.666,27.333,4.833"/>
<path style="fill:none;stroke:#000000;stroke-miterlimit:10;" d="M188.5,160.167c0,0,11.699-1.188,14.865,2.979"/>
<path style="fill:none;stroke:#000000;stroke-miterlimit:10;" d="M156.667,157c0,0,1-6.167,8.833-5.5s19,3.229,19,3.229
	s5.333,0.771,3.333,9.771s-7.166,8.333-7.166,8.333l-16-2C164.667,170.833,154.501,170.333,156.667,157z"/>
<circle cx="172.917" cy="162.279" r="3.083"/>
<line style="fill:none;stroke:#000000;stroke-miterlimit:10;" x1="152.394" y1="147.07" x2="157.375" y2="154.196"/>
<path style="fill:none;stroke:#000000;stroke-miterlimit:10;" d="M234.795,167.609c0,0,0.774-6.199-6.93-7.762
	c-7.705-1.562-19.142-2.243-19.142-2.243s-5.335-0.759-5.946,8.44s4.534,10.011,4.534,10.011l15.917,2.579
	C223.229,178.635,233.125,181.014,234.795,167.609z"/>
<polyline style="fill:none;stroke:#000000;stroke-miterlimit:10;" points="234,165.5 238.5,165.5 254.143,157.589 "/>
<circle cx="222.917" cy="167.279" r="3.083"/>
<line style="fill:none;stroke:#000000;stroke-miterlimit:10;" x1="161.5" y1="144.75" x2="185.75" y2="152.506"/>
<line style="fill:none;stroke:#000000;stroke-miterlimit:10;" x1="217.25" y1="154.196" x2="234.5" y2="157.279"/>
<path style="fill:none;stroke:#000000;stroke-miterlimit:10;" d="M163.25,157.589c0,0,12.25-5.546,20,4.558"/>
<path style="fill:none;stroke:#000000;stroke-miterlimit:10;" d="M214.375,164.5c0,0,7.625-6.816,17.875,1.779"/>
<path style="fill:none;stroke:#000000;stroke-miterlimit:10;" d="M168.826,233.007c0,0,6.54,5.821,9.174,6.993
	c3.703,1.648,11.88,2.909,15.933,3c3.993,0.09,12.023-1.003,15.817-2.25c6.137-2.018,17.522-8.455,22.75-12.25
	c4.193-3.044,14.997-14.307,14.997-14.307"/>
</svg>
