<svg xmlns="http://www.w3.org/2000/svg" viewBox="0 0 400 300"><path d="M201.76 154.183s24.248-18.943 31.826-5.683M185.086 156.078s-23.113-13.262-28.796 0M180.919 210.259s21.598 7.2 34.102 0M249.928 198.352c4.848 4.639 8.511 8.106 12.607 12.024 2.967 2.839 7.782 2.979 11.693 3.917 11.371 2.729 22.812 5.236 34.078 8.376 11.944 3.327 23.928 6.26 35.474 10.782 3.36 1.316 6.718 2.632 10.08 3.948 2.3.901 2.303 3.527 3.044 5.807 1.934 5.966 11.431 53.682 11.431 60.004M255.625 136.607c2.102-26.476 1.927-52.535-19.423-71.145-19.407-16.916-49.6-7.552-71.774-2.361-9.133 2.137-23.67 8.384-23.67 19.931 0 15.203-6.252 34.027-2.927 48.812.919 4.085 3.295 8.662 2.505 12.979-.913 4.987-3.235 4.635-1.574 10.303 1.17 3.992 8.829 28.747 11.215 29.106l2.422-1.848M162.865 213.551l-10.742-31.988M185.086 188.663s11.717 9.851 23.289 0M140.442 146.415l4.009 5.753c4.192-15.457-.28-29.118 11.367-42.474 6.992-8.019 27.661-3.582 37.238-4.332 14.051-1.104 37.646-9.909 46.962 4.639 7.633 11.919-.164 32.47 9.102 42.071.619-4.206 6.878-24.393 10.128-10.146 1.73 7.587 4.26 34.722-2.001 40.42-3.363 3.061-4.46-1.563-5.763 4.859-1.498 7.389-2.298 12.761-6.214 19.547-9.659 16.734-14.149 27.549-31.07 37.945-11.241 6.904-21.136-1.302-30.75-8.232-5.607-4.043-10.844-8.685-15.095-14.161-2.131-2.729-3.961-5.646-5.491-8.753-5.172 3.098-10.658 5.642-16.267 7.838-16.855 6.599-34.729 10.074-51.559 16.746-16.026 6.354-33.098 54.757-39.371 71.295" stroke="#000" stroke-miterlimit="10" fill="none"/><path d="M174.246 159.5c0 1-3.574 2-3.574 0s3.574-2 3.574 0zM220.469 154.5c0 1-3.572 3-3.572 0 0-1 3.572-1 3.572 0z" stroke="#000" stroke-miterlimit="10"/><path d="M247.204 202.977c3.026 7.165 6.092 14.075 9.118 21.239.977 2.312.179 6.225.179 8.686v12.099M168.415 259.895c0-13.106-.655-26.117-1.303-39.211" stroke="#000" stroke-miterlimit="10" fill="none"/></svg>
