
<!-- Generator: Adobe Illustrator 16.0.4, SVG Export Plug-In . SVG Version: 6.00 Build 0)  -->

<svg version="1.1" id="Layer_2" xmlns="http://www.w3.org/2000/svg" xmlns:xlink="http://www.w3.org/1999/xlink" x="0px" y="0px"
	 width="400px" height="300px" viewBox="0 0 400 300" style="enable-background:new 0 0 400 300;" xml:space="preserve">
<path style="fill:none;stroke:#000000;stroke-miterlimit:10;" d="M201.76,154.183c0,0,24.248-18.943,31.826-5.683"/>
<path style="fill:none;stroke:#000000;stroke-miterlimit:10;" d="M185.086,156.078c0,0-23.113-13.262-28.796,0"/>
<path style="fill:none;stroke:#000000;stroke-miterlimit:10;" d="M180.919,210.259c0,0,21.598,7.2,34.102,0"/>
<path style="fill:none;stroke:#000000;stroke-miterlimit:10;" d="M249.928,198.352c4.848,4.639,8.511,8.106,12.607,12.024
	c2.967,2.839,7.782,2.979,11.693,3.917c11.371,2.729,22.812,5.236,34.078,8.376c11.944,3.327,23.928,6.26,35.474,10.782
	c3.36,1.316,6.718,2.632,10.08,3.948c2.3,0.901,2.303,3.527,3.044,5.807c1.934,5.966,11.431,53.682,11.431,60.004"/>
<path style="fill:none;stroke:#000000;stroke-miterlimit:10;" d="M255.625,136.607c2.102-26.476,1.927-52.535-19.423-71.145
	c-19.407-16.916-49.6-7.552-71.774-2.361c-9.133,2.137-23.67,8.384-23.67,19.931c0,15.203-6.252,34.027-2.927,48.812
	c0.919,4.085,3.295,8.662,2.505,12.979c-0.913,4.987-3.235,4.635-1.574,10.303c1.17,3.992,8.829,28.747,11.215,29.106
	c0.807-0.616,1.615-1.231,2.422-1.848"/>
<line style="fill:none;stroke:#000000;stroke-miterlimit:10;" x1="162.865" y1="213.551" x2="152.123" y2="181.563"/>
<path style="fill:none;stroke:#000000;stroke-miterlimit:10;" d="M185.086,188.663c0,0,11.717,9.851,23.289,0"/>
<path style="fill:none;stroke:#000000;stroke-miterlimit:10;" d="M140.442,146.415c1.336,1.918,2.673,3.835,4.009,5.753
	c4.192-15.457-0.28-29.118,11.367-42.474c6.992-8.019,27.661-3.582,37.238-4.332c14.051-1.104,37.646-9.909,46.962,4.639
	c7.633,11.919-0.164,32.47,9.102,42.071c0.619-4.206,6.878-24.393,10.128-10.146c1.73,7.587,4.26,34.722-2.001,40.42
	c-3.363,3.061-4.46-1.563-5.763,4.859c-1.498,7.389-2.298,12.761-6.214,19.547c-9.659,16.734-14.149,27.549-31.07,37.945
	c-11.241,6.904-21.136-1.302-30.75-8.232c-5.607-4.043-10.844-8.685-15.095-14.161c-2.131-2.729-3.961-5.646-5.491-8.753
	c-5.172,3.098-10.658,5.642-16.267,7.838c-16.855,6.599-34.729,10.074-51.559,16.746c-16.026,6.354-33.098,54.757-39.371,71.295"/>
<path style="stroke:#000000;stroke-miterlimit:10;" d="M174.246,159.5c0,1-3.574,2-3.574,0S174.246,157.5,174.246,159.5
	C174.246,160.5,174.246,157.5,174.246,159.5z"/>
<path style="stroke:#000000;stroke-miterlimit:10;" d="M220.469,154.5c0,1-3.572,3-3.572,0
	C216.897,153.5,220.469,153.5,220.469,154.5S220.469,153.5,220.469,154.5z"/>
<path style="fill:none;stroke:#000000;stroke-miterlimit:10;" d="M247.204,202.977c3.026,7.165,6.092,14.075,9.118,21.239
	c0.977,2.312,0.179,6.225,0.179,8.686c0,3.693,0,12.099,0,12.099"/>
<path style="fill:none;stroke:#000000;stroke-miterlimit:10;" d="M168.415,259.895c0-13.106-0.655-26.117-1.303-39.211"/>
</svg>
