<svg xmlns="http://www.w3.org/2000/svg" width="400" height="300" viewBox="0 0 400 300"><path d="M271.275 164.178c36.288-81.765-30.195-105.193-30.195-105.193-.919-4.134-28.825-8.871-28.825-3.215-74.836-7.656-64.884 91.412-64.884 91.412M253.842 221.234l79.109 25.578 12.862 30.827 12.521 28.694M55.5 248.7l91.096-27.466 14.422-23.514M167.123 176.121c-25.724 3.216-21.035-26.266-16.537-35.957 2.573-5.542 10.26-17.134 19.753 8.818M241.08 127.43c-5.971-1.378-24.346-32.614-24.346-32.614s-22.417 24.652-28.511 25.877M195.604 141.669s26.184-3.675 33.303 3.675M249.348 147.182s18.861-.914 21.131 3.675M209.385 207.817s26.646 4.857 37.667 3.216M202.034 150.857s14.7-3.216 18.374 2.756M247.052 159.584s10.106-7.35 18.833 0M170.339 148.982s21.559-21.859 17.885-28.29M167.467 198.39l-3.673 18.726 29.685 41.569 15.446 12.523 3.33 25.265M212.255 296.473l23.8-49.981M241.08 164.178l5.972 26.643" stroke="#000" stroke-miterlimit="10" fill="none"/><circle cx="255.89" cy="160.651" r="2.149"/><circle cx="210.615" cy="153.007" r="2.149"/><path d="M279.207 138.914c-25.725 10.105-35.141-27.916-35.141-27.916s-5.283 10.92-2.986 16.432M150.494 171.528l.399 7.962 12.9 22.12 6.545-5.737s12.81 25.049 15.159 28.021c3.146 3.981 10.644 12.582 15.158 15.617 3.949 2.656 11.484 5.054 17.914 6.432 6.433 1.378 18.376.918 20.213 0 1.838-.919 13.781-21.131 13.781-21.131l16.077-45.017 6.431-39.631M163.794 176.298l6.545 19.576" stroke="#000" stroke-miterlimit="10" fill="none"/></svg>