<?xml version="1.0" encoding="iso-8859-1"?>
<!-- Generator: Adobe Illustrator 16.0.4, SVG Export Plug-In . SVG Version: 6.00 Build 0)  -->
<!DOCTYPE svg PUBLIC "-//W3C//DTD SVG 1.1//EN" "http://www.w3.org/Graphics/SVG/1.1/DTD/svg11.dtd">
<svg version="1.1" id="Layer_2" xmlns="http://www.w3.org/2000/svg" xmlns:xlink="http://www.w3.org/1999/xlink" x="0px" y="0px"
	 width="400px" height="300px" viewBox="0 0 400 300" style="enable-background:new 0 0 400 300;" xml:space="preserve">
<path style="fill:none;stroke:#000000;stroke-miterlimit:10;" d="M271.275,164.178C307.563,82.413,241.08,58.985,241.08,58.985
	c-0.919-4.134-28.825-8.871-28.825-3.215c-74.836-7.656-64.884,91.412-64.884,91.412"/>
<polyline style="fill:none;stroke:#000000;stroke-miterlimit:10;" points="253.842,221.234 332.951,246.812 345.813,277.639 
	358.334,306.333 "/>
<polyline style="fill:none;stroke:#000000;stroke-miterlimit:10;" points="55.5,248.7 146.596,221.234 161.018,197.72 "/>
<path style="fill:none;stroke:#000000;stroke-miterlimit:10;" d="M167.123,176.121c-25.724,3.216-21.035-26.266-16.537-35.957
	c2.573-5.542,10.26-17.134,19.753,8.818"/>
<path style="fill:none;stroke:#000000;stroke-miterlimit:10;" d="M241.08,127.43c-5.971-1.378-24.346-32.614-24.346-32.614
	s-22.417,24.652-28.511,25.877"/>
<path style="fill:none;stroke:#000000;stroke-miterlimit:10;" d="M195.604,141.669c0,0,26.184-3.675,33.303,3.675"/>
<path style="fill:none;stroke:#000000;stroke-miterlimit:10;" d="M249.348,147.182c0,0,18.861-0.914,21.131,3.675"/>
<path style="fill:none;stroke:#000000;stroke-miterlimit:10;" d="M209.385,207.817c0,0,26.646,4.857,37.667,3.216"/>
<path style="fill:none;stroke:#000000;stroke-miterlimit:10;" d="M202.034,150.857c0,0,14.7-3.216,18.374,2.756"/>
<path style="fill:none;stroke:#000000;stroke-miterlimit:10;" d="M247.052,159.584c0,0,10.106-7.35,18.833,0"/>
<path style="fill:none;stroke:#000000;stroke-miterlimit:10;" d="M170.339,148.982c0,0,21.559-21.859,17.885-28.29"/>
<polyline style="fill:none;stroke:#000000;stroke-miterlimit:10;" points="167.467,198.39 163.794,217.116 193.479,258.685 
	208.925,271.208 212.255,296.473 "/>
<line style="fill:none;stroke:#000000;stroke-miterlimit:10;" x1="212.255" y1="296.473" x2="236.055" y2="246.492"/>
<line style="fill:none;stroke:#000000;stroke-miterlimit:10;" x1="241.08" y1="164.178" x2="247.052" y2="190.821"/>
<circle cx="255.89" cy="160.651" r="2.149"/>
<circle cx="210.615" cy="153.007" r="2.149"/>
<path style="fill:none;stroke:#000000;stroke-miterlimit:10;" d="M279.207,138.914c-25.725,10.105-35.141-27.916-35.141-27.916
	s-5.283,10.92-2.986,16.432"/>
<path style="fill:none;stroke:#000000;stroke-miterlimit:10;" d="M150.494,171.528l0.399,7.962l12.9,22.12l6.545-5.737
	c0,0,12.81,25.049,15.159,28.021c3.146,3.981,10.644,12.582,15.158,15.617c3.949,2.656,11.484,5.054,17.914,6.432
	c6.433,1.378,18.376,0.918,20.213,0c1.838-0.919,13.781-21.131,13.781-21.131l16.077-45.017l6.431-39.631"/>
<line style="fill:none;stroke:#000000;stroke-miterlimit:10;" x1="163.794" y1="176.298" x2="170.339" y2="195.874"/>
</svg>
