<svg xmlns="http://www.w3.org/2000/svg" viewBox="0 0 400 300"><path d="M61 322.5s17-44.5 41.5-46.5l51.04-12.602M230.25 106.875l-35.625 24.313 9.313-1.344-1.938 3.656h5l-.5 4.25 39.5-24.75M166.666 163.167s14.168-11.333 21 2.167M212.75 160.834s15.584-13.334 24.416-1.584M208.666 155.167s20.499-18 32.666-2.833M173 150.712s15.665 2.218 17.832 8.003M248.722 231.97c3.834-3.333 21.446-54.802 21.446-54.802l4.832-14c24.668-59.834-59.801-104-59.801-104l-2.449-.917c-85 1-86.5 101-86.5 101l2.749.75s28.333 27.334 21.833 38l4.668-2.352 1.959 2.481M225.15 110.355c-8.1-6.145-19.9 4.895-19.9 4.895l-1.25 1.25c-4.666 10.667-43.332 38.667-43.332 38.667l-2.834 2.704-2.334 5.297v23.832l.5 1.5s5.5 35.5 17 39.25l3 .75s34.832 35 68.332-6.833l3.025-2.5s7.477.834 8.143-31.833v-1.666s12.502-6.167 13.168-21.667l2.332-10.833c.668-21-12.5 1.24-12.5 1.24l-1.5-2.408c-.5-13.166-19.166-31.666-19.166-31.666M218.834 190.334l14.834 12.918M186.834 188.5l-10.834 17.834M186 209.666s22 8.584 36.5-1.541M190 193.167s13 11.167 26 0M142.168 270.333l27.082-16.666s2.25-4 2.25-5v-1l1.25-19.917M142.168 270.333s28.5 46 46.832 40.5c18.334-5.5 85.168-39.833 85.168-39.833s8.906-6.131 6.332-7.333c-37.918-17.707-33.143-44.5-33.143-44.5M280.967 264.327l42.367 13.006s19 6.334 25.166 16.667c6.168 10.333 14 23 14 23" stroke="#000" stroke-miterlimit="10" fill="none"/><circle cx="177.653" cy="162.045" r="2.356"/><circle cx="226.653" cy="159.045" r="2.356"/></svg>
