<svg xmlns="http://www.w3.org/2000/svg" width="400" height="300" viewBox="0 0 400 300"><path d="M204.723 87.737c-21.949-2.476-45.242 2.16-52.422 34.909l-2.1 7.764s-2.607 29.919-1.87 39.871c.179 2.403 1.87 9.456 1.87 9.456s3.385 26.62 3.617 27.787l3.736 8.289s13.426 23.233 21.016 26.152l10.682 5.254s26.445 1.284 32.166-2.336l23.116-22.065c23.116-29.654 17.514-49.736 17.514-49.736l-1.752-26.852c-4.086-46.233-55.573-58.493-55.573-58.493M193.864 58.433s-44.948 8.815-58.96 46.438l-6.42 17.776s-11.909 44.482-8.406 61.994l-18.213 97.021-7.355 4.554-14.826-13.776 8.873 19.613-2.57 4.67s-6.77 0-10.04 1.401c-3.27 1.4-19.147 15.645-19.147 15.645s-8.615 8.084-13.543 16.062M193.864 58.433s39.813-20.314 76.239 28.664M268.711 85.262s28.595 46.14 31.746 89.572M180.205 211.961s4.902 10.857 16.578 10.857M180.205 211.961c10.157-10.508 18.096-2.802 18.096-2.802M198.301 209.159s6.771-5.487 21.133 2.802M196.783 222.818s11.326-1.868 22.65-10.857M141.326 283.413M240.214 226.391l1.825 11.133 9.42 27.38s-3.695 62.376 14.633 97.636" stroke="#000" stroke-miterlimit="10" fill="none"/><path stroke="#000" stroke-miterlimit="10" fill="none" d="M294.27 279.604l.757 20.082 14.303 5.836zM300.457 174.834s40.653 123.854 19.627 130.227M166.602 229.741l-.816 25.826s-10.721 40.488-80.754 41.171M153.529 143.136s11.557-13.135 29.42 0M213.77 141.734s19.09-15.76 32.574 1.402M161.233 151.191s13.835-12.784 21.716-2.276M213.77 147.981s14.713-8.523 26.708 3.21M224.453 200.402s5.254 5.604 3.679 12.609M173.229 203.555s-3.239 3.678-2.188 8.406M209.918 183.064s9.807 11.472-2.627 14.273M201.338 194.273s2.713-4.116 5.953-.789M186.275 194.273s2.715-4.116 5.955-.789"/><ellipse cx="174.36" cy="154.048" rx="3.531" ry="2.855"/><ellipse cx="226.548" cy="153.697" rx="3.53" ry="2.857"/><path d="M262.645 259.945s-18.928-16.111-8.07-40.279M226.162 87.173s54.807 27.768 58.422 85.909M254.574 219.666s27.671-12.287 30.01-46.584M260.529 278.158s-.7 31.522 39.928 37.127M296.957 183.064s-23.233 77.582 4.844 87.738M211.846 85.262l7.588-6.398-7.588-13.309 4.99-7.122" stroke="#000" stroke-miterlimit="10" fill="none"/></svg>