<?xml version="1.0" encoding="iso-8859-1"?>
<!-- Generator: Adobe Illustrator 16.0.4, SVG Export Plug-In . SVG Version: 6.00 Build 0)  -->
<!DOCTYPE svg PUBLIC "-//W3C//DTD SVG 1.1//EN" "http://www.w3.org/Graphics/SVG/1.1/DTD/svg11.dtd">
<svg version="1.1" id="Layer_2" xmlns="http://www.w3.org/2000/svg" xmlns:xlink="http://www.w3.org/1999/xlink" x="0px" y="0px"
	 width="400px" height="300px" viewBox="0 0 400 300" style="enable-background:new 0 0 400 300;" xml:space="preserve">
<path style="fill:none;stroke:#000000;stroke-miterlimit:10;" d="M204.723,87.737c-21.949-2.476-45.242,2.16-52.422,34.909
	l-2.1,7.764c0,0-2.607,29.919-1.87,39.871c0.179,2.403,1.87,9.456,1.87,9.456s3.385,26.62,3.617,27.787l3.736,8.289
	c0,0,13.426,23.233,21.016,26.152l10.682,5.254c0,0,26.445,1.284,32.166-2.336l23.116-22.065
	c23.116-29.654,17.514-49.736,17.514-49.736l-1.752-26.852C256.21,99.997,204.723,87.737,204.723,87.737"/>
<path style="fill:none;stroke:#000000;stroke-miterlimit:10;" d="M193.864,58.433c0,0-44.948,8.815-58.96,46.438l-6.42,17.776
	c0,0-11.909,44.482-8.406,61.994l-18.213,97.021l-7.355,4.554l-14.826-13.776l8.873,19.613l-2.57,4.67c0,0-6.77,0-10.04,1.401
	c-3.27,1.4-19.147,15.645-19.147,15.645s-8.615,8.084-13.543,16.062"/>
<path style="fill:none;stroke:#000000;stroke-miterlimit:10;" d="M193.864,58.433c0,0,39.813-20.314,76.239,28.664"/>
<path style="fill:none;stroke:#000000;stroke-miterlimit:10;" d="M268.711,85.262c0,0,28.595,46.14,31.746,89.572"/>
<path style="fill:none;stroke:#000000;stroke-miterlimit:10;" d="M180.205,211.961c0,0,4.902,10.857,16.578,10.857"/>
<path style="fill:none;stroke:#000000;stroke-miterlimit:10;" d="M180.205,211.961c10.157-10.508,18.096-2.802,18.096-2.802"/>
<path style="fill:none;stroke:#000000;stroke-miterlimit:10;" d="M198.301,209.159c0,0,6.771-5.487,21.133,2.802"/>
<path style="fill:none;stroke:#000000;stroke-miterlimit:10;" d="M196.783,222.818c0,0,11.326-1.868,22.65-10.857"/>
<path style="fill:none;stroke:#000000;stroke-miterlimit:10;" d="M141.326,283.413"/>
<path style="fill:none;stroke:#000000;stroke-miterlimit:10;" d="M240.214,226.391l1.825,11.133l9.42,27.38
	c0,0-3.695,62.376,14.633,97.636"/>
<polygon style="fill:none;stroke:#000000;stroke-miterlimit:10;" points="294.27,279.604 295.027,299.686 309.33,305.522 "/>
<path style="fill:none;stroke:#000000;stroke-miterlimit:10;" d="M300.457,174.834c0,0,40.653,123.854,19.627,130.227"/>
<path style="fill:none;stroke:#000000;stroke-miterlimit:10;" d="M166.602,229.741l-0.816,25.826c0,0-10.721,40.488-80.754,41.171"
	/>
<path style="fill:none;stroke:#000000;stroke-miterlimit:10;" d="M153.529,143.136c0,0,11.557-13.135,29.42,0"/>
<path style="fill:none;stroke:#000000;stroke-miterlimit:10;" d="M213.77,141.734c0,0,19.09-15.76,32.574,1.402"/>
<path style="fill:none;stroke:#000000;stroke-miterlimit:10;" d="M161.233,151.191c0,0,13.835-12.784,21.716-2.276"/>
<path style="fill:none;stroke:#000000;stroke-miterlimit:10;" d="M213.77,147.981c0,0,14.713-8.523,26.708,3.21"/>
<path style="fill:none;stroke:#000000;stroke-miterlimit:10;" d="M224.453,200.402c0,0,5.254,5.604,3.679,12.609"/>
<path style="fill:none;stroke:#000000;stroke-miterlimit:10;" d="M173.229,203.555c0,0-3.239,3.678-2.188,8.406"/>
<path style="fill:none;stroke:#000000;stroke-miterlimit:10;" d="M209.918,183.064c0,0,9.807,11.472-2.627,14.273"/>
<path style="fill:none;stroke:#000000;stroke-miterlimit:10;" d="M201.338,194.273c0,0,2.713-4.116,5.953-0.789"/>
<path style="fill:none;stroke:#000000;stroke-miterlimit:10;" d="M186.275,194.273c0,0,2.715-4.116,5.955-0.789"/>
<ellipse cx="174.36" cy="154.048" rx="3.531" ry="2.855"/>
<ellipse cx="226.548" cy="153.697" rx="3.53" ry="2.857"/>
<path style="fill:none;stroke:#000000;stroke-miterlimit:10;" d="M262.645,259.945c0,0-18.928-16.111-8.07-40.279"/>
<path style="fill:none;stroke:#000000;stroke-miterlimit:10;" d="M226.162,87.173c0,0,54.807,27.768,58.422,85.909"/>
<path style="fill:none;stroke:#000000;stroke-miterlimit:10;" d="M254.574,219.666c0,0,27.671-12.287,30.01-46.584"/>
<path style="fill:none;stroke:#000000;stroke-miterlimit:10;" d="M260.529,278.158c0,0-0.7,31.522,39.928,37.127"/>
<path style="fill:none;stroke:#000000;stroke-miterlimit:10;" d="M296.957,183.064c0,0-23.233,77.582,4.844,87.738"/>
<polyline style="fill:none;stroke:#000000;stroke-miterlimit:10;" points="211.846,85.262 219.434,78.864 211.846,65.555 
	216.836,58.433 "/>
</svg>
