<?xml version="1.0" encoding="iso-8859-1"?>
<!-- Generator: Adobe Illustrator 16.0.4, SVG Export Plug-In . SVG Version: 6.00 Build 0)  -->
<!DOCTYPE svg PUBLIC "-//W3C//DTD SVG 1.1//EN" "http://www.w3.org/Graphics/SVG/1.1/DTD/svg11.dtd">
<svg version="1.1" id="Layer_2" xmlns="http://www.w3.org/2000/svg" xmlns:xlink="http://www.w3.org/1999/xlink" x="0px" y="0px"
	 width="400px" height="300px" viewBox="0 0 400 300" style="enable-background:new 0 0 400 300;" xml:space="preserve">
<path style="fill:none;stroke:#000000;stroke-miterlimit:10;" d="M44,290.094c5.779-12.658,7.166-18.516,18.801-25.068
	c9.524-5.363,20.719-8.85,30.756-13.138c23.186-9.904,55.071-15.878,68.619-37.893c6.013,13.528,16.633,36.478,30.439,42.974
	c21.2,9.974,40.303-24.379,45.211-38.497c0,21.905,4.775,47.151-7.162,65.803"/>
<path style="fill:none;stroke:#000000;stroke-miterlimit:10;" d="M351.75,299.44c-4.41-14.163-7.188-42.549-22-49.002
	c-17.779-7.747-36.211-11.913-54.783-17.632c-8.029-2.473-16.383-4.902-24.166-8.062c-13.577-5.514-13.353-5.38-12.975-6.272
	c3.066-7.227,6.068-28.166,8.953-35.363c1.324-3.303,4.553,2.972,5.457-4.26c0.717-5.742,1.436-11.484,2.152-17.227"/>
<polyline style="fill:none;stroke:#000000;stroke-miterlimit:10;" points="161.662,284.158 154.5,242.196 154.5,223 "/>
<path style="fill:none;stroke:#000000;stroke-miterlimit:10;" d="M167.1,113.725l7.162-4.181l-3.58,8.21
	c0,0,19.248,3.876,30.887-4.105s20.592-14.695,20.592-14.695s-4.029,7.549,12.086,4.863c16.114-2.688,15.667,57.684,15.667,57.684
	h4.476l1.489-19.188l4.622-0.834v-21.487c0,0-7.532-29.544-11.113-37.153c-3.581-7.61-23.574-20.144-27.154-22.83
	c-3.582-2.686-22.866-4.028-40.772,0c-17.904,4.029-30.444,22.382-30.444,22.382s-1.364,6.268-9.87,20.592
	c-8.504,14.324-0.005,46.554-0.005,46.554l4.232,0.448l5.127,3.133v-8.057v-15.22c0,0,0.578-6.827,3.264-12.198
	c2.686-5.372,10.306-6.379,10.306-6.379L167.1,113.725z"/>
<path style="fill:none;stroke:#000000;stroke-miterlimit:10;" d="M164.861,147.745c0,0,20.592-7.61,27.754,0"/>
<path style="fill:none;stroke:#000000;stroke-miterlimit:10;" d="M212.312,151.326c0,0,15.667-17.805,29.097-6.963"/>
<line style="fill:none;stroke:#000000;stroke-miterlimit:10;" x1="189" y1="206.5" x2="219" y2="206.5"/>
<path style="fill:none;stroke:#000000;stroke-miterlimit:10;" d="M141.137,149.535c0,10.356,1.545,17.896,4.437,27.932
	c1.3,4.51,0.953,11.013,6.083,11.013c5.989,0,8.018,20.11,10.52,25.739"/>
<polyline style="fill:none;stroke:#000000;stroke-miterlimit:10;" points="189,187.5 194.406,187.5 198.783,191.5 203.359,191.5 
	208.73,187.5 212,187.5 "/>
<path d="M178.309,156c0,2-4.377,2-4.377,0C173.932,153,178.309,153,178.309,156z"/>
<path d="M228.633,152c0,4-4.378,4-4.378,0C224.255,150,228.633,150,228.633,152z"/>
<path style="fill:none;stroke:#000000;stroke-miterlimit:10;" d="M178.309,213.995c9.951,37.431,39.582,24.966,59.518,4.477"/>
</svg>
