<svg xmlns="http://www.w3.org/2000/svg" viewBox="0 0 400 300"><path d="M44 290.094c5.779-12.658 7.166-18.516 18.801-25.068 9.524-5.363 20.719-8.85 30.756-13.138 23.186-9.904 55.071-15.878 68.619-37.893 6.013 13.528 16.633 36.478 30.439 42.974 21.2 9.974 40.303-24.379 45.211-38.497 0 21.905 4.775 47.151-7.162 65.803M351.75 299.44c-4.41-14.163-7.188-42.549-22-49.002-17.779-7.747-36.211-11.913-54.783-17.632-8.029-2.473-16.383-4.902-24.166-8.062-13.577-5.514-13.353-5.38-12.975-6.272 3.066-7.227 6.068-28.166 8.953-35.363 1.324-3.303 4.553 2.972 5.457-4.26.717-5.742 1.436-11.484 2.152-17.227M161.662 284.158l-7.162-41.962v-19.196" stroke="#000" stroke-miterlimit="10" fill="none"/><path d="M167.1 113.725l7.162-4.181-3.58 8.21s19.248 3.876 30.887-4.105l20.592-14.695s-4.029 7.549 12.086 4.863c16.114-2.688 15.667 57.684 15.667 57.684h4.476l1.489-19.188 4.622-.834v-21.487s-7.532-29.544-11.113-37.153c-3.581-7.61-23.574-20.144-27.154-22.83-3.582-2.686-22.866-4.028-40.772 0-17.904 4.029-30.444 22.382-30.444 22.382s-1.364 6.268-9.87 20.592c-8.504 14.324-.005 46.554-.005 46.554l4.232.448 5.127 3.133v-23.277s.578-6.827 3.264-12.198c2.686-5.372 10.306-6.379 10.306-6.379l3.028 2.461zM164.861 147.745s20.592-7.61 27.754 0M212.312 151.326s15.667-17.805 29.097-6.963M189 206.5h30M141.137 149.535c0 10.356 1.545 17.896 4.437 27.932 1.3 4.51.953 11.013 6.083 11.013 5.989 0 8.018 20.11 10.52 25.739M189 187.5h5.406l4.377 4h4.576l5.371-4h3.27" stroke="#000" stroke-miterlimit="10" fill="none"/><path d="M178.309 156c0 2-4.377 2-4.377 0 0-3 4.377-3 4.377 0zM228.633 152c0 4-4.378 4-4.378 0 0-2 4.378-2 4.378 0z"/><path d="M178.309 213.995c9.951 37.431 39.582 24.966 59.518 4.477" stroke="#000" stroke-miterlimit="10" fill="none"/></svg>
