<?xml version="1.0" encoding="iso-8859-1"?>
<!-- Generator: Adobe Illustrator 16.0.4, SVG Export Plug-In . SVG Version: 6.00 Build 0)  -->
<!DOCTYPE svg PUBLIC "-//W3C//DTD SVG 1.1//EN" "http://www.w3.org/Graphics/SVG/1.1/DTD/svg11.dtd">
<svg version="1.1" id="Layer_2" xmlns="http://www.w3.org/2000/svg" xmlns:xlink="http://www.w3.org/1999/xlink" x="0px" y="0px"
	 width="400px" height="300px" viewBox="0 0 400 300" style="enable-background:new 0 0 400 300;" xml:space="preserve">
<path style="fill:none;stroke:#000000;stroke-miterlimit:10;" d="M9.5,295c-7.516-27.715,43.107-34.099,62.283-41.706
	c22.525-8.935,42.738-21.007,63.853-32.96c7.005,19.86,28.88,53.853,54.045,53.166c24.063-0.656,50.95-37.146,40.5-59.469
	c32.464,19.996,70.989,21.999,106.376,32.83c17.224,5.272,34.013,11.793,50.457,19.121c6.467,2.882,2.433,35.134,12.85,44.018"/>
<path style="fill:none;stroke:#000000;stroke-miterlimit:10;" d="M126.182,93.375c13.184-9.504,19.08-4.539,30.984-4.258
	c13.835,0.326,23.573-4.038,37.662-4.545c32.999-1.187,24.108,65.799,44.854,58.928c8.536-2.827,3.553-34.262,4.375-42.594
	c2.768-28.061-26.25-44.26-50.649-48.41c-42.485-7.229-60.164,12.041-79.726,44.403C119.969,100.156,121.696,97.22,126.182,93.375z"
	/>
<path style="fill:none;stroke:#000000;stroke-miterlimit:10;" d="M121.289,97.71c0,0-5.75,26.79,0,47.79"/>
<ellipse style="fill:none;stroke:#000000;stroke-miterlimit:10;" cx="191.432" cy="155.625" rx="14.75" ry="15.625"/>
<ellipse style="fill:none;stroke:#000000;stroke-miterlimit:10;" cx="144.432" cy="155.625" rx="15.75" ry="15.625"/>
<path style="fill:none;stroke:#000000;stroke-miterlimit:10;" d="M163.182,151.25c0,0,5.25-8.25,11.25,0"/>
<path style="fill:none;stroke:#000000;stroke-miterlimit:10;" d="M153.932,207.5c0,0,29.25,3.75,34.25,0"/>
<path style="fill:none;stroke:#000000;stroke-miterlimit:10;" d="M147.932,224.179c4.066,5.609,10.108,16.967,18.438,17.341
	c9.643,0.434,18.764,2.842,27.093-2.244c16.67-10.18,27.775-25.977,37.299-42.784"/>
<path style="fill:none;stroke:#000000;stroke-miterlimit:10;" d="M239.682,143.5c13.942,4.489,8.738,46.019-8.261,40.5
	c-0.498,9.667-0.997,19.333-1.495,29"/>
<path style="fill:none;stroke:#000000;stroke-miterlimit:10;" d="M121.289,145.5c-14.855,7.229-3.881,42.582,5.143,40
	c3.819,11.416,4.98,23.374,8.75,34.834"/>
<polyline style="fill:none;stroke:#000000;stroke-miterlimit:10;" points="206,151.5 209.682,151.5 232.591,143.5 "/>
<circle cx="146.335" cy="149.045" r="2.356"/>
<circle cx="195.335" cy="147.045" r="2.356"/>
<path style="fill:none;stroke:#000000;stroke-miterlimit:10;" d="M128.682,141c0,0,17-13.25,25.25-2.75"/>
<path style="fill:none;stroke:#000000;stroke-miterlimit:10;" d="M188.932,135.25c0,0,9.622-3.282,16.5,6.75"/>
<line style="fill:none;stroke:#000000;stroke-miterlimit:10;" x1="121.289" y1="145.5" x2="131.516" y2="146.688"/>
<polyline style="fill:none;stroke:#000000;stroke-miterlimit:10;" points="160.182,181.75 168.807,184.75 174.432,181 
	179.132,182.917 "/>
</svg>
