<svg xmlns="http://www.w3.org/2000/svg" viewBox="0 0 400 300"><path d="M9.5 295c-7.516-27.715 43.107-34.099 62.283-41.706 22.525-8.935 42.738-21.007 63.853-32.96 7.005 19.86 28.88 53.853 54.045 53.166 24.063-.656 50.95-37.146 40.5-59.469 32.464 19.996 70.989 21.999 106.376 32.83 17.224 5.272 34.013 11.793 50.457 19.121 6.467 2.882 2.433 35.134 12.85 44.018" stroke="#000" stroke-miterlimit="10" fill="none"/><path d="M126.182 93.375c13.184-9.504 19.08-4.539 30.984-4.258 13.835.326 23.573-4.038 37.662-4.545 32.999-1.187 24.108 65.799 44.854 58.928 8.536-2.827 3.553-34.262 4.375-42.594 2.768-28.061-26.25-44.26-50.649-48.41-42.485-7.229-60.164 12.041-79.726 44.403 6.287 3.257 8.014.321 12.5-3.524zM121.289 97.71s-5.75 26.79 0 47.79" stroke="#000" stroke-miterlimit="10" fill="none"/><ellipse cx="191.432" cy="155.625" rx="14.75" ry="15.625" stroke="#000" stroke-miterlimit="10" fill="none"/><ellipse cx="144.432" cy="155.625" rx="15.75" ry="15.625" stroke="#000" stroke-miterlimit="10" fill="none"/><path d="M163.182 151.25s5.25-8.25 11.25 0M153.932 207.5s29.25 3.75 34.25 0M147.932 224.179c4.066 5.609 10.108 16.967 18.438 17.341 9.643.434 18.764 2.842 27.093-2.244 16.67-10.18 27.775-25.977 37.299-42.784M239.682 143.5c13.942 4.489 8.738 46.019-8.261 40.5l-1.495 29M121.289 145.5c-14.855 7.229-3.881 42.582 5.143 40 3.819 11.416 4.98 23.374 8.75 34.834M206 151.5h3.682l22.909-8" stroke="#000" stroke-miterlimit="10" fill="none"/><circle cx="146.335" cy="149.045" r="2.356"/><circle cx="195.335" cy="147.045" r="2.356"/><path d="M128.682 141s17-13.25 25.25-2.75M188.932 135.25s9.622-3.282 16.5 6.75M121.289 145.5l10.227 1.188M160.182 181.75l8.625 3 5.625-3.75 4.7 1.917" stroke="#000" stroke-miterlimit="10" fill="none"/></svg>
