<svg xmlns="http://www.w3.org/2000/svg" viewBox="0 0 400 300"><path d="M200 51.333s-67.556 12.761-60.223 113.714M169.5 245v12l48.25 31 33.68-34.414-2.084-19.287M41.11 332.332l6-11.998 98.667-51.75 26.974-26.802M379.833 333.739l-5.39-20.405-123-59.748M139.777 165.047l10.666 15.453h5.667l11-39.25 16.667-5.837 21.333-24.017 12.667 13.969 28.666 5.984 20 14.326 5.334 41.329c57.333-143.004-71.777-135.671-71.777-135.671M139.777 165.047c-6.991 6.155 2.004 20.191 5.111 26.74 2.364 4.985 4.804 9.935 7.285 14.862 1.362 2.704 3.852.632 4.585 2.813 5.367 15.97 18.672 49.064 38.781 50.57 13.77 1.031 29.57 6.565 39.21-5.768 14.764-18.892 33.897-42.771 37.027-67.26M200 226.5h36M172.751 163.593s6.524-19.924 37.775-8.092M232.443 155.501s19.048-8.958 32.667 4.684M181.777 165.367s8.666-10.633 18.333 0M232.443 165.367s14.668-11.94 23.334 3.68M205.777 201.334s16.666 11.805 23.333 1.235M262.532 260l-6.755 53.334M157.267 257.168l15.484 60.165" stroke="#000" stroke-miterlimit="10" fill="none"/><circle cx="191.653" cy="166.044" r="2.356"/><circle cx="243.653" cy="166.045" r="2.356"/></svg>
