<?xml version="1.0" encoding="iso-8859-1"?>
<!-- Generator: Adobe Illustrator 16.0.4, SVG Export Plug-In . SVG Version: 6.00 Build 0)  -->
<!DOCTYPE svg PUBLIC "-//W3C//DTD SVG 1.1//EN" "http://www.w3.org/Graphics/SVG/1.1/DTD/svg11.dtd">
<svg version="1.1" id="Layer_2" xmlns="http://www.w3.org/2000/svg" xmlns:xlink="http://www.w3.org/1999/xlink" x="0px" y="0px"
	 width="400px" height="300px" viewBox="0 0 400 300" style="enable-background:new 0 0 400 300;" xml:space="preserve">
<path style="fill:none;stroke:#000000;stroke-miterlimit:10;" d="M200,51.333c0,0-67.556,12.761-60.223,113.714"/>
<polyline style="fill:none;stroke:#000000;stroke-miterlimit:10;" points="169.5,245 169.5,257 217.75,288 251.43,253.586 
	249.346,234.299 "/>
<polyline style="fill:none;stroke:#000000;stroke-miterlimit:10;" points="41.11,332.332 47.11,320.334 145.777,268.584 
	172.751,241.782 "/>
<polyline style="fill:none;stroke:#000000;stroke-miterlimit:10;" points="379.833,333.739 374.443,313.334 251.443,253.586 "/>
<path style="fill:none;stroke:#000000;stroke-miterlimit:10;" d="M139.777,165.047l10.666,15.453h5.667l11-39.25l16.667-5.837
	l21.333-24.017l12.667,13.969l28.666,5.984l20,14.326l5.334,41.329C329.11,44,200,51.333,200,51.333"/>
<path style="fill:none;stroke:#000000;stroke-miterlimit:10;" d="M139.777,165.047c-6.991,6.155,2.004,20.191,5.111,26.74
	c2.364,4.985,4.804,9.935,7.285,14.862c1.362,2.704,3.852,0.632,4.585,2.813c5.367,15.97,18.672,49.064,38.781,50.57
	c13.77,1.031,29.57,6.565,39.21-5.768c14.764-18.892,33.897-42.771,37.027-67.26"/>
<line style="fill:none;stroke:#000000;stroke-miterlimit:10;" x1="200" y1="226.5" x2="236" y2="226.5"/>
<path style="fill:none;stroke:#000000;stroke-miterlimit:10;" d="M172.751,163.593c0,0,6.524-19.924,37.775-8.092"/>
<path style="fill:none;stroke:#000000;stroke-miterlimit:10;" d="M232.443,155.501c0,0,19.048-8.958,32.667,4.684"/>
<path style="fill:none;stroke:#000000;stroke-miterlimit:10;" d="M181.777,165.367c0,0,8.666-10.633,18.333,0"/>
<path style="fill:none;stroke:#000000;stroke-miterlimit:10;" d="M232.443,165.367c0,0,14.668-11.94,23.334,3.68"/>
<path style="fill:none;stroke:#000000;stroke-miterlimit:10;" d="M205.777,201.334c0,0,16.666,11.805,23.333,1.235"/>
<line style="fill:none;stroke:#000000;stroke-miterlimit:10;" x1="262.532" y1="260" x2="255.777" y2="313.334"/>
<line style="fill:none;stroke:#000000;stroke-miterlimit:10;" x1="157.267" y1="257.168" x2="172.751" y2="317.333"/>
<circle cx="191.653" cy="166.044" r="2.356"/>
<circle cx="243.653" cy="166.045" r="2.356"/>
</svg>
