<?xml version="1.0" encoding="iso-8859-1"?>
<!-- Generator: Adobe Illustrator 16.0.4, SVG Export Plug-In . SVG Version: 6.00 Build 0)  -->
<!DOCTYPE svg PUBLIC "-//W3C//DTD SVG 1.1//EN" "http://www.w3.org/Graphics/SVG/1.1/DTD/svg11.dtd">
<svg version="1.1" id="Layer_2" xmlns="http://www.w3.org/2000/svg" xmlns:xlink="http://www.w3.org/1999/xlink" x="0px" y="0px"
	 width="400px" height="300px" viewBox="0 0 400 300" style="enable-background:new 0 0 400 300;" xml:space="preserve">
<path style="fill:none;stroke:#000000;stroke-miterlimit:10;" d="M74.042,273.297l37.452-25.709l23.741-9.879l24.259-9.473
	c0,0,11.245,31.842,21.863,31.842s51.34-6.499,51.34-6.499l18.887-17.111l7.1-12.98l4.148-7.671v12.093V265"/>
<polyline style="fill:none;stroke:#000000;stroke-miterlimit:10;" points="185.375,185.436 196.436,192.072 208.382,188.754 "/>
<polyline style="fill:none;stroke:#000000;stroke-miterlimit:10;" points="155.731,146.611 163.695,139.863 187.587,143.237 "/>
<polyline style="fill:none;stroke:#000000;stroke-miterlimit:10;" points="217.23,139.863 243.777,137.209 250.855,146.611 "/>
<path style="fill:none;stroke:#000000;stroke-miterlimit:10;" d="M284.832,136V91.195l-9.248-21.237l-12.259-13.273
	c0,0-8.899-1.327-21.73-9.291c-12.83-7.964-69.942-5.31-69.942-5.31s-7.56,3.982-15.966,8.85
	c-8.406,4.866-10.237,12.83-10.237,12.83l-4.095,15.043l3.641,57.135"/>
<path d="M180.525,148c0,3-4.326,3-4.326,0C176.199,146,180.525,146,180.525,148z"/>
<path d="M230.266,148c0,4-4.327,4-4.327,0C225.938,146,230.266,146,230.266,148z"/>
<path style="fill:none;stroke:#000000;stroke-miterlimit:10;" d="M212.07,214.857c-9.297,4.98-13.65,8.384-21.68-1.069"/>
<path style="fill:none;stroke:#000000;stroke-miterlimit:10;" d="M178.362,83.628c-1.751-9.004-3.883-30.204,10.41-29.452
	c7.134,0.376,29.441,5.975,28.458-5.604"/>
<line style="fill:none;stroke:#000000;stroke-miterlimit:10;" x1="263.244" y1="225.919" x2="241.344" y2="261.093"/>
<line style="fill:none;stroke:#000000;stroke-miterlimit:10;" x1="161.87" y1="234.256" x2="160.598" y2="258.659"/>
<path style="fill:none;stroke:#000000;stroke-miterlimit:10;" d="M340.674,248.557l-30.383-6.489
	c-8.555-8.259-23.006-12.388-23.006-12.388l-18.583-3.761l-5.24-10.24c0.8-3.722,4.075-27.146,6.753-27.146
	c9.994,0,12.551-11.761,14.584-20.322c1.887-7.94,6.982-20.32,3.609-28.567c-2.809-6.866-9.675,1.073-11.039,4.719
	c-2.283,6.102-4.177,8.562-8.815,13.2c-1.984-7.819-3.968-15.64-5.952-23.459c-0.729-2.872-5.667-13.217-4.912-15.077
	c2.914-7.173,5.777-11.978,4.775-19.59c-1.506-11.448-3.041-12.158-12.259-19.399c-9.429-7.409-12.354,6.344-17.956,6.919
	c-6.834,0.701-13.588,1.586-20.457,1.586c-5.438,0-12.607,1.323-17.861-0.21c-5.311-1.551-22.057-3.845-22.494-9.524
	c-5.428,1.524-12.592,1.587-15.141,7.18c-2.701,5.929-4.979,12.639-6.111,19.084c-1.529,8.694,0.75,16.696,0.213,24.841
	c-0.527,7.987-1.055,15.975-1.582,23.962c-1.332-5.997-2.665-11.994-3.998-17.991c-7.229,2.511,0.443,18.524,1.714,23.466
	c1.782,6.924,0.792,14.537,0.792,21.663c0,7.522,3.949,11.257,5.08,18.603c0.75,4.877,1.735,26.473,7.115,28.628"/>
<path style="fill:none;stroke:#000000;stroke-miterlimit:10;" d="M224.088,49.605c0,0-10.311,39.64-19.691,39.317"/>
<path style="fill:none;stroke:#000000;stroke-miterlimit:10;" d="M224.088,49.605c0,0,13.717,27.687,19.91,28.351"/>
<path style="fill:none;stroke:#000000;stroke-miterlimit:10;" d="M187.587,175.702c0,0,8.26-7.078,7.079-17.107"/>
</svg>
