<svg xmlns="http://www.w3.org/2000/svg" viewBox="0 0 400 300"><path d="M74.042 273.297l37.452-25.709 23.741-9.879 24.259-9.473s11.245 31.842 21.863 31.842l51.34-6.499 18.887-17.111 7.1-12.98 4.148-7.671v49.18300000000001M185.375 185.436l11.061 6.636 11.946-3.318M155.731 146.611l7.964-6.748 23.892 3.374M217.23 139.863l26.547-2.654 7.078 9.402M284.832 136v-44.805l-9.248-21.237-12.259-13.273s-8.899-1.327-21.73-9.291c-12.83-7.964-69.942-5.31-69.942-5.31s-7.56 3.982-15.966 8.85c-8.406 4.866-10.237 12.83-10.237 12.83l-4.095 15.043 3.641 57.135" stroke="#000" stroke-miterlimit="10" fill="none"/><path d="M180.525 148c0 3-4.326 3-4.326 0 0-2 4.326-2 4.326 0zM230.266 148c0 4-4.327 4-4.327 0-.001-2 4.327-2 4.327 0z"/><path d="M212.07 214.857c-9.297 4.98-13.65 8.384-21.68-1.069M178.362 83.628c-1.751-9.004-3.883-30.204 10.41-29.452 7.134.376 29.441 5.975 28.458-5.604M263.244 225.919l-21.9 35.174M161.87 234.256l-1.272 24.403M340.674 248.557l-30.383-6.489c-8.555-8.259-23.006-12.388-23.006-12.388l-18.583-3.761-5.24-10.24c.8-3.722 4.075-27.146 6.753-27.146 9.994 0 12.551-11.761 14.584-20.322 1.887-7.94 6.982-20.32 3.609-28.567-2.809-6.866-9.675 1.073-11.039 4.719-2.283 6.102-4.177 8.562-8.815 13.2l-5.952-23.459c-.729-2.872-5.667-13.217-4.912-15.077 2.914-7.173 5.777-11.978 4.775-19.59-1.506-11.448-3.041-12.158-12.259-19.399-9.429-7.409-12.354 6.344-17.956 6.919-6.834.701-13.588 1.586-20.457 1.586-5.438 0-12.607 1.323-17.861-.21-5.311-1.551-22.057-3.845-22.494-9.524-5.428 1.524-12.592 1.587-15.141 7.18-2.701 5.929-4.979 12.639-6.111 19.084-1.529 8.694.75 16.696.213 24.841l-1.582 23.962c-1.332-5.997-2.665-11.994-3.998-17.991-7.229 2.511.443 18.524 1.714 23.466 1.782 6.924.792 14.537.792 21.663 0 7.522 3.949 11.257 5.08 18.603.75 4.877 1.735 26.473 7.115 28.628M224.088 49.605s-10.311 39.64-19.691 39.317M224.088 49.605s13.717 27.687 19.91 28.351M187.587 175.702s8.26-7.078 7.079-17.107" stroke="#000" stroke-miterlimit="10" fill="none"/></svg>
