<svg xmlns="http://www.w3.org/2000/svg" width="400" height="300" viewBox="0 0 400 300"><path d="M191.25 211.75s32 6.041 54.75-13.375M172.5 130s48.75-19.5 61.5-16.5M196.5 182.75s.875 7.5 5.312 7.25 9.688-1.25 10.438-1 9 .012 10.25 1.006l8-3.628 3.5-4.878M196.5 62.333s44.002 13.167 56.502 38.167M123.5 156.83c-24.667-98.053 69.168-105.33 69.168-105.33h2.5s23.539 1.584 33.332 13.75l-3.75 9.3 3.75-9.3s48.834 5.416 37.502 76.25l-.252 26.25s14.25 39-6 61.25l-3.25 5c1.543 13.888-14.225 37.778-26.5 43.441-17.733 8.183-58.534-27.296-69.398-41.334-5.598-7.232-8.538-18.705-12.316-27.046-2.186-4.825-9.653-5.792-13.534-12.485-3.63-6.261-28.822-47.385-4.251-38.577M234.668 171.666l20.668 17.334 1.164 9.375M182.168 212.639s-4.332-9.641 4.168-15.307M181.063 230.832c22.217 24.563 58.104 26.644 78.687-1.832M130.25 155.24l20 14.093 13.316 2.333M255.668 157.688l2.332-.188 8.002-16" stroke="#000" stroke-miterlimit="10" fill="none"/><path d="M163.002 166.333c-.752 2.743 1.162 7.698 2.831 10 1.226 1.69 3.657 4.448 6.667 5.167 5.241 1.251 18.221.591 23.333-2 3.248-1.646 10.009-6.976 11.417-10.333 1.449-3.456-.728-11.753-3.082-14.667-2.168-2.68-4.362-2.578-6-2.667-8.172-.44-31.166 10-31.166 10s-3.604 3.049-4 4.5zM218.504 154.5c-6.219-2.833-12.967 2.33-12.967 2.33M220.834 148.5" stroke="#000" stroke-miterlimit="10" fill="none"/><path d="M224.75 145.667s-9.853 3.167-4.968 12.667c4.886 9.5 9.72 9.417 9.72 9.417s7.071 3.394 21.416-2.417c1.748-.708 4.75-2.933 4.75-2.933l-1-13.9s-1.835-8.5-9.334-7c-9.487 1.895-20.584 4.166-20.584 4.166zM160.002 157.5s15.166-12.167 37.5-8.167M218.625 144.833s29.543-19.667 31.543-8.5M167.5 204.985s-2.498 16.015 11.252 19.765" stroke="#000" stroke-miterlimit="10" fill="none"/><circle cx="186.653" cy="160.045" r="2.356"/><circle cx="239.653" cy="147.045" r="2.356"/><path d="M140.25 119.5l11 23.167s-10.5 4.49-8 16.412M140.25 119.5s4.734-20.115 7.867-17.558l5.383 6.308s48.5-20.75 49.75-18 1.608-22.768 5.648-23.359M152.602 218.591l-12.352 12.241-112.917 36.502-16 48.667M160.438 235.892l28.572 54.775 10.99 36M264.002 333.739l-.92-108.989 12.251 11.142 116 36.775 3.667 66.333" stroke="#000" stroke-miterlimit="10" fill="none"/></svg>