
<!-- Generator: Adobe Illustrator 16.0.4, SVG Export Plug-In . SVG Version: 6.00 Build 0)  -->

<svg version="1.1" id="Layer_2" xmlns="http://www.w3.org/2000/svg" xmlns:xlink="http://www.w3.org/1999/xlink" x="0px" y="0px"
	 width="400px" height="300px" viewBox="0 0 400 300" style="enable-background:new 0 0 400 300;" xml:space="preserve">
<path style="fill:none;stroke:#000000;stroke-miterlimit:10;" d="M191.25,211.75c0,0,32,6.041,54.75-13.375"/>
<path style="fill:none;stroke:#000000;stroke-miterlimit:10;" d="M172.5,130c0,0,48.75-19.5,61.5-16.5"/>
<path style="fill:none;stroke:#000000;stroke-miterlimit:10;" d="M196.5,182.75c0,0,0.875,7.5,5.312,7.25s9.688-1.25,10.438-1
	s9,0.012,10.25,1.006s8-3.628,8-3.628l3.5-4.878"/>
<path style="fill:none;stroke:#000000;stroke-miterlimit:10;" d="M196.5,62.333c0,0,44.002,13.167,56.502,38.167"/>
<path style="fill:none;stroke:#000000;stroke-miterlimit:10;" d="M123.5,156.83C98.833,58.777,192.668,51.5,192.668,51.5h2.5
	c0,0,23.539,1.584,33.332,13.75l-3.75,9.3l3.75-9.3c0,0,48.834,5.416,37.502,76.25l-0.252,26.25c0,0,14.25,39-6,61.25l-3.25,5
	c1.543,13.888-14.225,37.778-26.5,43.441c-17.733,8.183-58.534-27.296-69.398-41.334c-5.598-7.232-8.538-18.705-12.316-27.046
	c-2.186-4.825-9.653-5.792-13.534-12.485c-3.63-6.261-28.822-47.385-4.251-38.577"/>
<polyline style="fill:none;stroke:#000000;stroke-miterlimit:10;" points="234.668,171.666 255.336,189 256.5,198.375 "/>
<path style="fill:none;stroke:#000000;stroke-miterlimit:10;" d="M182.168,212.639c0,0-4.332-9.641,4.168-15.307"/>
<path style="fill:none;stroke:#000000;stroke-miterlimit:10;" d="M181.063,230.832c22.217,24.563,58.104,26.644,78.687-1.832"/>
<polyline style="fill:none;stroke:#000000;stroke-miterlimit:10;" points="130.25,155.24 150.25,169.333 163.566,171.666 "/>
<polyline style="fill:none;stroke:#000000;stroke-miterlimit:10;" points="255.668,157.688 258,157.5 266.002,141.5 "/>
<path style="fill:none;stroke:#000000;stroke-miterlimit:10;" d="M163.002,166.333c-0.752,2.743,1.162,7.698,2.831,10
	c1.226,1.69,3.657,4.448,6.667,5.167c5.241,1.251,18.221,0.591,23.333-2c3.248-1.646,10.009-6.976,11.417-10.333
	c1.449-3.456-0.728-11.753-3.082-14.667c-2.168-2.68-4.362-2.578-6-2.667c-8.172-0.44-31.166,10-31.166,10
	S163.398,164.882,163.002,166.333z"/>
<path style="fill:none;stroke:#000000;stroke-miterlimit:10;" d="M218.504,154.5c-6.219-2.833-12.967,2.33-12.967,2.33"/>
<path style="fill:none;stroke:#000000;stroke-miterlimit:10;" d="M220.834,148.5"/>
<path style="fill:none;stroke:#000000;stroke-miterlimit:10;" d="M224.75,145.667c0,0-9.853,3.167-4.968,12.667
	c4.886,9.5,9.72,9.417,9.72,9.417s7.071,3.394,21.416-2.417c1.748-0.708,4.75-2.933,4.75-2.933l-1-13.9c0,0-1.835-8.5-9.334-7
	C235.847,143.396,224.75,145.667,224.75,145.667z"/>
<path style="fill:none;stroke:#000000;stroke-miterlimit:10;" d="M160.002,157.5c0,0,15.166-12.167,37.5-8.167"/>
<path style="fill:none;stroke:#000000;stroke-miterlimit:10;" d="M218.625,144.833c0,0,29.543-19.667,31.543-8.5"/>
<path style="fill:none;stroke:#000000;stroke-miterlimit:10;" d="M167.5,204.985c0,0-2.498,16.015,11.252,19.765"/>
<circle cx="186.653" cy="160.045" r="2.356"/>
<circle cx="239.653" cy="147.045" r="2.356"/>
<path style="fill:none;stroke:#000000;stroke-miterlimit:10;" d="M140.25,119.5l11,23.167c0,0-10.5,4.49-8,16.412"/>
<path style="fill:none;stroke:#000000;stroke-miterlimit:10;" d="M140.25,119.5c0,0,4.734-20.115,7.867-17.558
	s5.383,6.308,5.383,6.308s48.5-20.75,49.75-18s1.608-22.768,5.648-23.359"/>
<polyline style="fill:none;stroke:#000000;stroke-miterlimit:10;" points="152.602,218.591 140.25,230.832 27.333,267.334 
	11.333,316.001 "/>
<polyline style="fill:none;stroke:#000000;stroke-miterlimit:10;" points="160.438,235.892 189.01,290.667 200,326.667 "/>
<polyline style="fill:none;stroke:#000000;stroke-miterlimit:10;" points="264.002,333.739 263.082,224.75 275.333,235.892 
	391.333,272.667 395,339 "/>
</svg>
