<svg xmlns="http://www.w3.org/2000/svg" width="400" height="300" viewBox="0 0 400 300"><path d="M89.669 309.667c8.762-32.125 47.465-60.263 75.831-74 0 24.423-3.922 40.032-9.583 62.667M246.584 203.667c13.272 3.439 17.394 10.248 25.546 21.101 8.922 11.876 23.612 18.335 36.151 26.117 26.735 16.59 52.438 32.729 74.219 55.449M163.667 203.667l43.333-2.335M131.678 149.605c-5.105-15.359-7.178-28.527-7.178-44.67 0-12.502 8.081-24.903 12.969-36.016 4.58-10.414 20.703-16.925 31.17-16.78 6.066.084 10.926-.286 16.518-2.782 7.733-3.452 15.69-3 23.887-4.557 25.951-4.927 45.024 39.289 50.71 57.915 1.74 5.7 9.294 28.993 3.719 33.248-9.41 7.184-14.972.244-14.972 16.421 0 3.685 1.901 8.962-1.552 11.672-4.807 3.771-5.393.374-5.545-4.093-.414-12.153 4.079-23.036-2.507-34.229-7.357-12.505-5.765-25.163-5.896-39.318-.03-2.982-15.69-8.493-18.292-9.434-8.042-2.904-24.477 3.84-32.334 6.022-13.334 3.705-23.534 8.467-35.193 15.854-12.343 7.82-10.682 17.979-10.682 31.225 0 14.637.097 27.284 3.833 41.416-7.812 1.441-7.043-17.252-9.916-21.771l60.94-5.995c17.998-1.771 34.888-6.865 50.855 2.266M194.75 175.001c7.844 6.552 18.719 12.442 22.249 22.334M246.584 183.5c-.065 19.205.253 34.131-12.645 49.29-13.113 15.414-27.561 24.255-43.073 36.825-8.907 7.217-21.366-17.186-21.366-24.295 0-10.293-6.946-12.883-12.057-20.136-6.685-9.492-10.57-21.368-13.443-32.519M131.777 151.87c-4.637 5.548-1.138 15.895 1.301 21.993 2.936 7.34 5.423 12.969 10.922 18.803M138.349 165.703c3.336 1.895 7.185 5.275 11.081 5.426 5.498.212 9.518.81 14.529-1.334 9.139-3.909 6.541-15.584 6.541-23.795M187.5 144c0 4.028-1.18 14.727 1.584 18.084 3.283 3.99 12.979 2.416 17.416 2.416h9.164c4.471 0 3.575-1.195 4.447-5.556 1.139-5.694.389-12.14.389-17.944M142.001 142.667s16.666-13 26.333 0M190.667 136.889s22.831-7.778 26.332 0" stroke="#000" stroke-miterlimit="10" fill="none"/><path d="M163.489 153c0 4-6.354 4-6.354 0s6.354-4 6.354 0zM210.641 150c0 4-6.354 4-6.354 0s6.354-4 6.354 0z"/><path d="M261.334 137.336c3.046 8.476 5.926 28.3-.129 36.422-3.659 4.904-4.205 8.618-10.801 9.277-7.521.752-7.345 13.22-9.755 19.326-12.039 30.517-36.278 33.139-64.649 33.139M170.5 179.667l20.167-1" stroke="#000" stroke-miterlimit="10" fill="none"/></svg>