<?xml version="1.0" encoding="iso-8859-1"?>
<!-- Generator: Adobe Illustrator 16.0.4, SVG Export Plug-In . SVG Version: 6.00 Build 0)  -->
<!DOCTYPE svg PUBLIC "-//W3C//DTD SVG 1.1//EN" "http://www.w3.org/Graphics/SVG/1.1/DTD/svg11.dtd">
<svg version="1.1" id="Layer_2" xmlns="http://www.w3.org/2000/svg" xmlns:xlink="http://www.w3.org/1999/xlink" x="0px" y="0px"
	 width="400px" height="300px" viewBox="0 0 400 300" style="enable-background:new 0 0 400 300;" xml:space="preserve">
<path style="fill:none;stroke:#000000;stroke-miterlimit:10;" d="M89.669,309.667c8.762-32.125,47.465-60.263,75.831-74
	c0,24.423-3.922,40.032-9.583,62.667"/>
<path style="fill:none;stroke:#000000;stroke-miterlimit:10;" d="M246.584,203.667c13.272,3.439,17.394,10.248,25.546,21.101
	c8.922,11.876,23.612,18.335,36.151,26.117c26.735,16.59,52.438,32.729,74.219,55.449"/>
<line style="fill:none;stroke:#000000;stroke-miterlimit:10;" x1="163.667" y1="203.667" x2="207" y2="201.332"/>
<path style="fill:none;stroke:#000000;stroke-miterlimit:10;" d="M131.678,149.605c-5.105-15.359-7.178-28.527-7.178-44.67
	c0-12.502,8.081-24.903,12.969-36.016c4.58-10.414,20.703-16.925,31.17-16.78c6.066,0.084,10.926-0.286,16.518-2.782
	c7.733-3.452,15.69-3,23.887-4.557c25.951-4.927,45.024,39.289,50.71,57.915c1.74,5.7,9.294,28.993,3.719,33.248
	c-9.41,7.184-14.972,0.244-14.972,16.421c0,3.685,1.901,8.962-1.552,11.672c-4.807,3.771-5.393,0.374-5.545-4.093
	c-0.414-12.153,4.079-23.036-2.507-34.229c-7.357-12.505-5.765-25.163-5.896-39.318c-0.03-2.982-15.69-8.493-18.292-9.434
	c-8.042-2.904-24.477,3.84-32.334,6.022c-13.334,3.705-23.534,8.467-35.193,15.854c-12.343,7.82-10.682,17.979-10.682,31.225
	c0,14.637,0.097,27.284,3.833,41.416c-7.812,1.441-7.043-17.252-9.916-21.771c20.313-1.998,40.627-3.997,60.94-5.995
	c17.998-1.771,34.888-6.865,50.855,2.266"/>
<path style="fill:none;stroke:#000000;stroke-miterlimit:10;" d="M194.75,175.001c7.844,6.552,18.719,12.442,22.249,22.334"/>
<path style="fill:none;stroke:#000000;stroke-miterlimit:10;" d="M246.584,183.5c-0.065,19.205,0.253,34.131-12.645,49.29
	c-13.113,15.414-27.561,24.255-43.073,36.825c-8.907,7.217-21.366-17.186-21.366-24.295c0-10.293-6.946-12.883-12.057-20.136
	c-6.685-9.492-10.57-21.368-13.443-32.519"/>
<path style="fill:none;stroke:#000000;stroke-miterlimit:10;" d="M131.777,151.87c-4.637,5.548-1.138,15.895,1.301,21.993
	c2.936,7.34,5.423,12.969,10.922,18.803"/>
<path style="fill:none;stroke:#000000;stroke-miterlimit:10;" d="M138.349,165.703c3.336,1.895,7.185,5.275,11.081,5.426
	c5.498,0.212,9.518,0.81,14.529-1.334c9.139-3.909,6.541-15.584,6.541-23.795"/>
<path style="fill:none;stroke:#000000;stroke-miterlimit:10;" d="M187.5,144c0,4.028-1.18,14.727,1.584,18.084
	c3.283,3.99,12.979,2.416,17.416,2.416c3.055,0,6.109,0,9.164,0c4.471,0,3.575-1.195,4.447-5.556
	c1.139-5.694,0.389-12.14,0.389-17.944"/>
<path style="fill:none;stroke:#000000;stroke-miterlimit:10;" d="M142.001,142.667c0,0,16.666-13,26.333,0"/>
<path style="fill:none;stroke:#000000;stroke-miterlimit:10;" d="M190.667,136.889c0,0,22.831-7.778,26.332,0"/>
<path d="M163.489,153c0,4-6.354,4-6.354,0S163.489,149,163.489,153z"/>
<path d="M210.641,150c0,4-6.354,4-6.354,0S210.641,146,210.641,150z"/>
<path style="fill:none;stroke:#000000;stroke-miterlimit:10;" d="M261.334,137.336c3.046,8.476,5.926,28.3-0.129,36.422
	c-3.659,4.904-4.205,8.618-10.801,9.277c-7.521,0.752-7.345,13.22-9.755,19.326C228.61,232.878,204.371,235.5,176,235.5"/>
<line style="fill:none;stroke:#000000;stroke-miterlimit:10;" x1="170.5" y1="179.667" x2="190.667" y2="178.667"/>
</svg>
