
<!-- Generator: Adobe Illustrator 16.0.4, SVG Export Plug-In . SVG Version: 6.00 Build 0)  -->

<svg version="1.1" id="Layer_2" xmlns="http://www.w3.org/2000/svg" xmlns:xlink="http://www.w3.org/1999/xlink" x="0px" y="0px"
	 width="400px" height="300px" viewBox="0 0 400 300" style="enable-background:new 0 0 400 300;" xml:space="preserve">
<path style="fill:none;stroke:#000000;stroke-miterlimit:10;" d="M234.955,217.613l12.209,21.946l80.228,33.72l36.626,19.185
	c0,0,6.979,2.907,8.142,14.534"/>
<path style="fill:none;stroke:#000000;stroke-miterlimit:10;" d="M128.716,179.039c1.279-10.564,2.172-19.969,1.581-30.561
	c-0.563-10.096,0.618-19.135,8.217-26.445c5.225-5.027,5.759-5.533,13.044-5.533c1.886,0,3.127-4.148,3.971-5.684
	c0.956-1.74,4.948-2.241,6.708-2.848c5.68-1.958,7.144,1.747,12.797,2.417c5.028,0.596,13.726-0.729,17.483-3.95
	c4.799-4.112,6.197-8.209,13.538-7.599c4.291,0.357,4.639,11.937,6.104,16.122c2.178,6.225,6.29,1.937,9.971,6.026
	c4.767,5.297,5.318,8.069,6.87,15.116c1.19,5.402,2.26,8.532,5.103,13.264c2.283,3.801,0.399,13.174,0.399,17.543
	c0,5.355,1.775,8.759,5.554,2.988c4.236-6.469-2.58-7.211,6.446-11.146c0,10.093,1.209,21.128-0.062,31.104
	c-0.374,2.938-1.563,7.401-5.13,7.847c-2.725,0.341-4.53-0.522-4.759,2.019c-0.532,5.927-1.063,11.853-1.596,17.779
	c9.474,0,16.461-0.475,19.546-11.659c1.528-5.54-2.049-7.124-3.668-11.627c-1.609-4.478-0.203-7.267,1.372-11.482
	c2.97-7.948,2.296-16.089,2.296-24.414c0-4.188,12.442-20.417,9.64-22.784c-3.426-2.894-5.473-3.437-5.491-7.7
	c-0.025-6.025-0.672-12.09-2.086-17.951c-4.349-18.03-17.315-26.07-33.152-33.592c-15.929-7.566-33.996-14.383-51.848-14.643
	c-4.616-0.067-27.52,1.458-25.581,8.736c-11.899,6.005-25.063,10.512-27.887,25.58c-2.84,15.146-18.317,21.243-13.537,36.54
	c1.463,4.679,0.411,10.959,2.498,15.201c2.786,5.661,5.264,4.987,5.905,12.045c1.025,11.286,10.783,17.908,12.117,28.65
	C126.291,185.279,127.504,182.159,128.716,179.039z"/>
<path style="fill:none;stroke:#000000;stroke-miterlimit:10;" d="M125.079,188.4c0,0,9.404,35.463,15.457,37.788
	c6.053,2.326,8.961,5.813,8.961,5.813l4.649,18.022"/>
<path style="fill:none;stroke:#000000;stroke-miterlimit:10;" d="M161.179,241.688c15.699,12.506,33.855,12.526,49.361,0"/>
<path style="fill:none;stroke:#000000;stroke-miterlimit:10;" d="M134.381,159.914c0,0,18.021-24.999,36.045-6.18"/>
<path style="fill:none;stroke:#000000;stroke-miterlimit:10;" d="M189.028,146.719c0,0,24.998-16.683,31.394,0"/>
<line style="fill:none;stroke:#000000;stroke-miterlimit:10;" x1="166.938" y1="217.613" x2="192.517" y2="212.817"/>
<polyline style="fill:none;stroke:#000000;stroke-miterlimit:10;" points="154.146,219.794 170.426,204.679 183.687,201.771 
	204.725,215.215 "/>
<polyline style="fill:none;stroke:#000000;stroke-miterlimit:10;" points="166.793,189.062 176.239,193.5 179.438,193.5 
	189.028,189.246 "/>
<circle cx="156.462" cy="159.661" r="2.055"/>
<circle cx="204.424" cy="155.301" r="2.055"/>
<polyline style="fill:none;stroke:#000000;stroke-miterlimit:10;" points="154.146,250.024 156.462,278.511 154.433,297.696 "/>
<path style="fill:none;stroke:#000000;stroke-miterlimit:10;" d="M225.075,297.696l6.396-16.278l6.976-14.824l-3.491-48.98
	c-1.744,16.278-13.371,35.318-13.371,35.318l-36.044,25.579l-18.604-13.952l-8.72-6.977l-4.069-7.558l-9.884,4.069l-52.903,18.604
	l-34.301,13.372l-20.721,29.598"/>
</svg>
