<svg xmlns="http://www.w3.org/2000/svg" width="400" height="300" viewBox="0 0 400 300"><path d="M234.955 217.613l12.209 21.946 80.228 33.72 36.626 19.185s6.979 2.907 8.142 14.534" stroke="#000" stroke-miterlimit="10" fill="none"/><path d="M128.716 179.039c1.279-10.564 2.172-19.969 1.581-30.561-.563-10.096.618-19.135 8.217-26.445 5.225-5.027 5.759-5.533 13.044-5.533 1.886 0 3.127-4.148 3.971-5.684.956-1.74 4.948-2.241 6.708-2.848 5.68-1.958 7.144 1.747 12.797 2.417 5.028.596 13.726-.729 17.483-3.95 4.799-4.112 6.197-8.209 13.538-7.599 4.291.357 4.639 11.937 6.104 16.122 2.178 6.225 6.29 1.937 9.971 6.026 4.767 5.297 5.318 8.069 6.87 15.116 1.19 5.402 2.26 8.532 5.103 13.264 2.283 3.801.399 13.174.399 17.543 0 5.355 1.775 8.759 5.554 2.988 4.236-6.469-2.58-7.211 6.446-11.146 0 10.093 1.209 21.128-.062 31.104-.374 2.938-1.563 7.401-5.13 7.847-2.725.341-4.53-.522-4.759 2.019-.532 5.927-1.063 11.853-1.596 17.779 9.474 0 16.461-.475 19.546-11.659 1.528-5.54-2.049-7.124-3.668-11.627-1.609-4.478-.203-7.267 1.372-11.482 2.97-7.948 2.296-16.089 2.296-24.414 0-4.188 12.442-20.417 9.64-22.784-3.426-2.894-5.473-3.437-5.491-7.7-.025-6.025-.672-12.09-2.086-17.951-4.349-18.03-17.315-26.07-33.152-33.592-15.929-7.566-33.996-14.383-51.848-14.643-4.616-.067-27.52 1.458-25.581 8.736-11.899 6.005-25.063 10.512-27.887 25.58-2.84 15.146-18.317 21.243-13.537 36.54 1.463 4.679.411 10.959 2.498 15.201 2.786 5.661 5.264 4.987 5.905 12.045 1.025 11.286 10.783 17.908 12.117 28.65l3.637-9.359zM125.079 188.4s9.404 35.463 15.457 37.788c6.053 2.326 8.961 5.813 8.961 5.813l4.649 18.022M161.179 241.688c15.699 12.506 33.855 12.526 49.361 0M134.381 159.914s18.021-24.999 36.045-6.18M189.028 146.719s24.998-16.683 31.394 0M166.938 217.613l25.579-4.796M154.146 219.794l16.28-15.115 13.261-2.908 21.038 13.444M166.793 189.062l9.446 4.438h3.199l9.59-4.254" stroke="#000" stroke-miterlimit="10" fill="none"/><circle cx="156.462" cy="159.661" r="2.055"/><circle cx="204.424" cy="155.301" r="2.055"/><path stroke="#000" stroke-miterlimit="10" fill="none" d="M154.146 250.024l2.316 28.487-2.029 19.185M225.075 297.696l6.396-16.278 6.976-14.824-3.491-48.98c-1.744 16.278-13.371 35.318-13.371 35.318l-36.044 25.579-18.604-13.952-8.72-6.977-4.069-7.558-9.884 4.069-52.903 18.604-34.301 13.372-20.721 29.598"/></svg>