<svg xmlns="http://www.w3.org/2000/svg" viewBox="0 0 400 300"><path stroke="#000" stroke-miterlimit="10" fill="none" d="M27.319 319.511l4.179-24.156 124.002-59.969v64.614M242.499 217.704l8.321 33.805-11.442 67.941"/><ellipse cx="213.765" cy="150.614" rx="16.772" ry="16.123" stroke="#000" stroke-miterlimit="10" fill="none"/><ellipse cx="162.797" cy="150.614" rx="16.772" ry="16.123" stroke="#000" stroke-miterlimit="10" fill="none"/><path d="M141.5 156.335v-32.245s3.693-36.405 18.255-39.006c14.562-2.6 46.312 0 46.312 0l16.136 2.081 20.289 20.803 2.604 48.367 5.723 3.12s5.721-19.243 10.922-18.723 4.681-81.652-57.208-84.253c-61.889-2.6-79.623 48.368-77.023 78.012 2.6 29.645 13.99 21.844 13.99 21.844zM143.685 162.056s17.683 71.771 35.885 73.331c18.203 1.56 24.964.52 30.165-4.681 5.201-5.201 29.644-48.864 29.644-48.864M159.061 208.862l-3.415 26.524M155.646 229.666l39.758 34.845 43.974-34.845 3.121-11.962 19.243 21.323 116.497 55.648 6.761 34.326M238.347 183.676l4.152 34.028M148.625 136.051s17.423-18.202 27.044-1.56M198.553 131.765s6.761-12.08 24.703-4.287" stroke="#000" stroke-miterlimit="10" fill="none"/><circle cx="211.554" cy="147.233" r="3.381"/><circle cx="164.748" cy="147.233" r="3.38"/><path d="M155.646 149.313s4.94-14.822 15.602-4.16M202.453 147.233s7.542-11.182 19.503 0M133.201 154.899l7.103 23.538s3.322 4.62 5.72 2.601l2.399-2.019M175.409 200.689c13.543 6.9 16.363 5.404 32.505-1.637M262.707 141.224s8.396 8.35-1.745 24.473c-10.142 16.122-12.222 15.561-16.902 15.853l-4.681.292M195.404 165.35s3.235 3.12 3.149 3.987c-.086.866-.432 10.055-2.339 9.536M177.672 143.167s14.771-3.938 20.47 1.581M140.812 141.224l6.147 4.08M228 142.5h16" stroke="#000" stroke-miterlimit="10" fill="none"/><path d="M166.222 191.526l1.906 9.164s23.691-9.097 42.776-2.575c2.747.938 2.86-8.841 2.86-8.841s-36.1-12.137-47.542 2.252z" stroke="#000" stroke-miterlimit="10" fill="none"/></svg>
