<svg xmlns="http://www.w3.org/2000/svg" viewBox="0 0 400 300"><path d="M189.694 90.55c9.241 1.776 17.604 2.603 26.784 3.188 12.541.801 31.634-10.861 38.039 6.725 3.425 9.4 2.982 20.357 4.075 30.19.509 4.577 1.803 12.897 8.766 7.005 9.992-8.459 7.653-39.208 3.913-50.002-5.517-15.927-17.145-33.842-35.316-35.388-16.498-1.404-38.833-2.803-54.572 2.611-15.839 5.447-24.753 19.472-26.613 35.529-1.002 8.658-.967 17.62-.635 26.315.203 5.312.741 11.175 2.843 16.132 2.607 6.146 6.44 2.201 10.298 5.688 1.961-12.464-.142-52.329 22.418-47.993zM160.332 137.163c-10.703 7.948-6.674 19.659-1.717 30.704 2.051 4.569 5.67 7.343 8.619 11.201 2.506 3.276 3.038 9.271 3.946 13.158 2.381 10.183 4.795 21.197 11.603 29.476 6.824 8.3 21.33 15.635 31.896 13.033 8.843-2.178 19.399-4.229 24.522-12.771 7.437-12.394 12.894-22.778 16.338-36.81 1.765-7.202 4.828-4.108 9.51-8.531 4.04-3.818 6.258-9.314 7.476-14.633 1.416-6.189.974-12.365.974-18.651 0-3.84-6.566-5.737-8.438-3.281l-.236-.805M33.75 298.091c.468-2.067 1.931-14.565 3.492-15.101 3.33-1.14 6.659-2.279 9.988-3.42 16.61-5.688 33.22-11.375 49.83-17.062 23.646-8.098 44.05-14.35 62.395-32.104-5.181 23.076-.48 46.364 2.275 69.678M168.84 219.312c0 13.412 2.682 21.736 10.908 32.467 8.016 10.455 16.619 18.188 26.922 26.342 8.688 6.874 24.681-15.137 29.832-20.184 8.778-8.603 11.17-20.473 13.676-32.084 6.663 16.651 5.26 39.557 7.11 57.449M253.022 232.963c10.776 4.509 21.452 9.949 32.754 12.963 13.798 3.68 27.435 7.137 40.839 12.035 10.781 3.939 24.133 6.145 33.91 11.975 10.983 6.549 9.263 21.939 10.808 33.274M174.152 203.224c-3.854 11.674-6.796 17.842-14.697 27.181M199.556 170.111c1.557 1.182 6.924 6.673 8.677 6.121l14.928-4.699M165.427 143.946c4.011 10.352 7.977 16.851 19.472 17.33 10.417.434 17.463-6.439 21.348-15.183 7.339-16.513-40.82-20.02-40.82-2.147M194 192.5h33" stroke="#000" stroke-miterlimit="10" fill="none"/><path d="M223.16 181.202l8.816 5.973c-6.18 4.158-16.586 1.991-23.512 1.991-8.885 0-13.096.568-20.57-3.981 11.963-4.786 22.333-3.983 35.266-3.983zM257.857 142.809c-4.011 10.352-7.977 16.851-19.472 17.33-10.417.434-17.463-6.439-21.348-15.183-7.339-16.513 40.82-20.02 40.82-2.147M189.602 133.013l49.485-1.138" stroke="#000" stroke-miterlimit="10" fill="none"/><path d="M206.665 143.093s7.909-3.534 9.954.854" fill="none"/><path stroke="#000" stroke-miterlimit="10" fill="none" d="M176 131.5h18M230 130.5h18"/><path d="M188.489 139c0 4-6.354 4-6.354 0s6.354-4 6.354 0zM238.641 139c0 4-6.354 4-6.354 0s6.354-4 6.354 0z"/><path stroke="#000" stroke-miterlimit="10" fill="none" d="M250.178 225.854l-2.022-19.338M167.166 178.025l1.689-7.796c7.564 16.055 25.146 61.629 49.51 49.711 19.4-9.492 28.135-32.322 38.135-49.829v12.889"/></svg>
