<?xml version="1.0" encoding="iso-8859-1"?>
<!-- Generator: Adobe Illustrator 16.0.4, SVG Export Plug-In . SVG Version: 6.00 Build 0)  -->
<!DOCTYPE svg PUBLIC "-//W3C//DTD SVG 1.1//EN" "http://www.w3.org/Graphics/SVG/1.1/DTD/svg11.dtd">
<svg version="1.1" id="Layer_2" xmlns="http://www.w3.org/2000/svg" xmlns:xlink="http://www.w3.org/1999/xlink" x="0px" y="0px"
	 width="400px" height="300px" viewBox="0 0 400 300" style="enable-background:new 0 0 400 300;" xml:space="preserve">
<path style="fill:none;stroke:#000000;stroke-miterlimit:10;" d="M57.999,311l2.667-28l86.667-40l23.333-12.667
	c0,0,3.333,45.334,7.333,58.334s3.334,17,3.334,17L181.374,327"/>
<polyline style="fill:none;stroke:#000000;stroke-miterlimit:10;" points="232.666,334.333 241.999,273.667 248.666,240.333 
	243.333,216.502 252.666,230.333 334.666,255.667 365.333,268.333 375.333,311 "/>
<path style="fill:none;stroke:#000000;stroke-miterlimit:10;" d="M239.833,139.75l-3-2.25c-17.5,10.5-65.5,3.5-65.5,3.5
	c-12.25,0.75-13.75,21.946-13.75,21.946l1.75,22.554h-12l0.5-40.5c0,0,1-64.5,42.5-65.5c0,0,23.166-4.5,42.083,7
	c0,0,33.417,14,31.417,84v15h-10.75c-0.5-23.25-13.293-45.107-13.293-45.107L239.833,139.75z"/>
<line style="fill:none;stroke:#000000;stroke-miterlimit:10;" x1="185.333" y1="209.5" x2="218.333" y2="209.5"/>
<line style="fill:none;stroke:#000000;stroke-miterlimit:10;" x1="193.333" y1="192.5" x2="214.333" y2="192.5"/>
<path style="fill:none;stroke:#000000;stroke-miterlimit:10;" d="M169.333,159.946c0,0,9.5-8.196,22.75-0.696"/>
<path style="fill:none;stroke:#000000;stroke-miterlimit:10;" d="M214.333,159.805c0,0,21.5-6.805,25.5-1.805"/>
<path style="fill:none;stroke:#000000;stroke-miterlimit:10;" d="M149.083,185.5c0,0-0.51,13.545,7.75,13.25
	c3.5-0.125,3.5-0.125,3.5-0.125s3.25,42.875,31.75,42.875h11.125c0,0,37.875,0.625,41.375-36.625l1-3.375h2.75h8
	c0,0,3.5-4.5,3.5-10.25s0-5.25,0-5.25"/>
<polyline style="fill:none;stroke:#000000;stroke-miterlimit:10;" points="172.38,250.678 207.833,288.5 210.333,288.5 
	232.666,259.25 239.833,241.875 238.075,224.661 "/>
<path d="M182.685,163c0,3-4.889,3-4.889,0S182.685,160,182.685,163z"/>
<path d="M227.896,165c0,4-4.89,4-4.89,0C223.006,162,227.896,162,227.896,165z"/>
</svg>
