<svg xmlns="http://www.w3.org/2000/svg" width="400" height="300" viewBox="0 0 400 300"><path d="M57.999 311l2.667-28 86.667-40 23.333-12.667s3.333 45.334 7.333 58.334l3.334 17 .041 21.333M232.666 334.333l9.333-60.666 6.667-33.334-5.333-23.831 9.333 13.831 82 25.334 30.667 12.666 10 42.667" stroke="#000" stroke-miterlimit="10" fill="none"/><path d="M239.833 139.75l-3-2.25c-17.5 10.5-65.5 3.5-65.5 3.5-12.25.75-13.75 21.946-13.75 21.946l1.75 22.554h-12l.5-40.5s1-64.5 42.5-65.5c0 0 23.166-4.5 42.083 7 0 0 33.417 14 31.417 84v15h-10.75c-.5-23.25-13.293-45.107-13.293-45.107l.043-.643zM185.333 209.5h33M193.333 192.5h21M169.333 159.946s9.5-8.196 22.75-.696M214.333 159.805s21.5-6.805 25.5-1.805M149.083 185.5s-.51 13.545 7.75 13.25l3.5-.125s3.25 42.875 31.75 42.875h11.125s37.875.625 41.375-36.625l1-3.375h10.75s3.5-4.5 3.5-10.25v-5.25M172.38 250.678l35.453 37.822h2.5l22.333-29.25 7.167-17.375-1.758-17.214" stroke="#000" stroke-miterlimit="10" fill="none"/><path d="M182.685 163c0 3-4.889 3-4.889 0s4.889-3 4.889 0zM227.896 165c0 4-4.89 4-4.89 0 0-3 4.89-3 4.89 0z"/></svg>