<svg xmlns="http://www.w3.org/2000/svg" width="400" height="300" viewBox="0 0 400 300"><path d="M42.334 307l22.166-57.059v-23.184s1.461-9.234 23.52-11.799c22.057-2.565 22.274-1.986 22.274-1.986l16.118-1.473h15.9l10.262-7h11.284l17.642-10.573v5.9l-3.818 8.462 6.467 37.961M280.514 200.404l4.922 2.242 5.642 6.157 34.884 10.178 34.882 9.315 11.49 18.696-2.834 67.341M186.943 219.575c14.877 15.778 26.436 32.374 50.938 26.03 16.207-4.196 27.909-18.189 36.27-32.186 3.986-6.673 5.835-17.729 11.285-23.169 3.6-3.593 8.744-.455 11.634-5.631 4.862-8.708 25.844-32.993 10.903-36.105" stroke="#000" stroke-miterlimit="10" fill="none"/><path d="M291.302 178.09l5.05-8.368 14.259-26.018 3.475-8.296 1.502-7.13-3.224-13.472-2.115-12.507-3.077-12.891-5.504-7.695-13.924-10.966-14.235-14.043-16.544-5.724-18.274-1.778-18.66 2.886-10.388 4.424-9.041 6.541s-29.4 33.856-29.785 45.206l-1.315 21.737v11.35s2.132-3.993 3.335-4.809c.734-.498 2.851-1.379 3.495-.77 4.809 4.552 3.287 30.778 3.287 30.778l1.931-5.578 1.351-10.965 4.427-14.235s2.694-16.736 12.505-17.313l6.156-4.809 2.693 6.54 6.156-5.001 6.732 5.193 7.31-.577 4.81-6.155 1.731 6.732 9.426-5.193 3.655.962 17.89-7.888s13.851-1.731 19.622 12.889c5.771 14.62 6.155 20.968 6.155 20.968l-1.347 9.427 2.501 5.578-2.021 20.97zM189.636 153.273s3.847-14.042 20.968-4.231l14.428 8.271M243.883 161.931s3.655-5.211 14.62-4.529l21.737 2.234M216 194.5h7.107l4.809 5.741 8.273-1.458 6.328.264M207.41 210.6s19.93 11.157 33.588 7.117M260.619 269.656l16.175-61.644" stroke="#000" stroke-miterlimit="10" fill="none"/><path d="M209.633 158c0 3-4.889 3-4.889 0s4.889-3 4.889 0zM262.844 164c0 4-4.89 4-4.89 0 0-3 4.89-3 4.89 0z"/><path d="M181.171 193.927l-4.616-15.837c0-1.498-3.551-2.823-4.425-4.04-.904-1.26-2.182-4.158-2.501-5.675-1.393-6.612 0-27.028 0-27.028" stroke="#000" stroke-miterlimit="10" fill="none"/></svg>