<?xml version="1.0" encoding="iso-8859-1"?>
<!-- Generator: Adobe Illustrator 16.0.4, SVG Export Plug-In . SVG Version: 6.00 Build 0)  -->
<!DOCTYPE svg PUBLIC "-//W3C//DTD SVG 1.1//EN" "http://www.w3.org/Graphics/SVG/1.1/DTD/svg11.dtd">
<svg version="1.1" id="Layer_2" xmlns="http://www.w3.org/2000/svg" xmlns:xlink="http://www.w3.org/1999/xlink" x="0px" y="0px"
	 width="400px" height="300px" viewBox="0 0 400 300" style="enable-background:new 0 0 400 300;" xml:space="preserve">
<path style="fill:none;stroke:#000000;stroke-miterlimit:10;" d="M42.334,307L64.5,249.941v-23.184c0,0,1.461-9.234,23.52-11.799
	c22.057-2.565,22.274-1.986,22.274-1.986l16.118-1.473h15.9l10.262-7h11.284l17.642-10.573v5.9l-3.818,8.462l6.467,37.961"/>
<polyline style="fill:none;stroke:#000000;stroke-miterlimit:10;" points="280.514,200.404 285.436,202.646 291.078,208.803 
	325.962,218.981 360.844,228.296 372.334,246.992 369.5,314.333 "/>
<path style="fill:none;stroke:#000000;stroke-miterlimit:10;" d="M186.943,219.575c14.877,15.778,26.436,32.374,50.938,26.03
	c16.207-4.196,27.909-18.189,36.27-32.186c3.986-6.673,5.835-17.729,11.285-23.169c3.6-3.593,8.744-0.455,11.634-5.631
	c4.862-8.708,25.844-32.993,10.903-36.105"/>
<path style="fill:none;stroke:#000000;stroke-miterlimit:10;" d="M291.302,178.09l5.05-8.368l14.259-26.018l3.475-8.296l1.502-7.13
	l-3.224-13.472l-2.115-12.507l-3.077-12.891l-5.504-7.695l-13.924-10.966l-14.235-14.043l-16.544-5.724l-18.274-1.778l-18.66,2.886
	l-10.388,4.424l-9.041,6.541c0,0-29.4,33.856-29.785,45.206s-1.315,21.737-1.315,21.737v11.35c0,0,2.132-3.993,3.335-4.809
	c0.734-0.498,2.851-1.379,3.495-0.77c4.809,4.552,3.287,30.778,3.287,30.778l1.931-5.578l1.351-10.965l4.427-14.235
	c0,0,2.694-16.736,12.505-17.313s6.156-4.809,6.156-4.809l2.693,6.54l6.156-5.001l6.732,5.193l7.31-0.577l4.81-6.155l1.731,6.732
	l9.426-5.193l3.655,0.962l17.89-7.888c0,0,13.851-1.731,19.622,12.889c5.771,14.62,6.155,20.968,6.155,20.968l-1.347,9.427
	l2.501,5.578L291.302,178.09z"/>
<path style="fill:none;stroke:#000000;stroke-miterlimit:10;" d="M189.636,153.273c0,0,3.847-14.042,20.968-4.231
	s14.428,8.271,14.428,8.271"/>
<path style="fill:none;stroke:#000000;stroke-miterlimit:10;" d="M243.883,161.931c0,0,3.655-5.211,14.62-4.529
	s21.737,2.234,21.737,2.234"/>
<polyline style="fill:none;stroke:#000000;stroke-miterlimit:10;" points="216,194.5 223.107,194.5 227.916,200.241 
	236.189,198.783 242.517,199.047 "/>
<path style="fill:none;stroke:#000000;stroke-miterlimit:10;" d="M207.41,210.6c0,0,19.93,11.157,33.588,7.117"/>
<line style="fill:none;stroke:#000000;stroke-miterlimit:10;" x1="260.619" y1="269.656" x2="276.794" y2="208.012"/>
<path d="M209.633,158c0,3-4.889,3-4.889,0S209.633,155,209.633,158z"/>
<path d="M262.844,164c0,4-4.89,4-4.89,0C257.954,161,262.844,161,262.844,164z"/>
<path style="fill:none;stroke:#000000;stroke-miterlimit:10;" d="M181.171,193.927l-4.616-15.837c0-1.498-3.551-2.823-4.425-4.04
	c-0.904-1.26-2.182-4.158-2.501-5.675c-1.393-6.612,0-27.028,0-27.028"/>
</svg>
