<svg xmlns="http://www.w3.org/2000/svg" width="400" height="300" viewBox="0 0 400 300"><path d="M26 309.43c25.654-45.719 102.456-43.198 140.362-76.599-5.722 26.71 2.342 51.162 12.247 76.599M267.5 313v-76.819c-6.706 11.435-33.868 66.812-53.174 52.965-13.932-9.994-27.864-19.987-41.796-29.98-9.661-6.93-4.626-32.458-4.022-41.484M205 192.5c4.498-.702 7.817 1.897 12.232 2 4.679.108 9.04-1.378 13.667-2.002" stroke="#000" stroke-miterlimit="10" fill="none"/><path d="M157.884 138.5c11.735.912 8.616-25.323 8.616-32.171 0-13.131 16.899-19.414 26-23.699-.328 1.663.32 3.516 0 5.181 14.499-5.188 19.625-3.584 33.786-1.896 11.996 1.431 27.587-3.572 38.047 3.301 4.872 3.201 21.548 21.452 20.641 27.4-1.165 7.634-2.329 15.268-3.493 22.901-1.012 6.634 3.617 9.573 7.815 14.705 5.513-18.54 13.925-40.295 2.355-58.404-7.865-12.311-17.592-24.316-29.402-33.047-13.54-10.009-28.691-7.261-44.561-9.363-18.623-2.468-40.333 17.631-52.819 28.868-15.885 14.298-9.98 38.419-6.985 56.224zM288.697 153.491c3.736 2.61 1.291 1.01 5.898.114 8.103-1.575 4.12 9.887 3.013 13.599-2.238 7.512-5.153 15.173-7.708 22.678-.956 2.806-2.418 5.474-3.666 8.146-2.385 5.11-9.7 3.439-10.785 5.684-5.445 11.27-7.951 16.917-7.951 29.294 0 9.536 30.564 15.582 38.832 17.888 20.688 5.768 66.67 9.001 73.336 62.106M195.145 211.38l22.087 2.12h21.768M248.319 236.181c-2.604-.521-8.268 3.197-10.805 3.85-12.13 3.119-26.853 4.299-39.089 1.56-24.709-5.533-30.265-21.004-34.768-43.579-1.86-9.325-.493-5.555-7.088-9.377-6.574-3.809-1.165-14.565-1.891-20.628-.599-5.005-7.888-34.93 2.735-26.028l.471-3.769c13.498 6.249 22.484 3.819 37.21 5.417 11.4 1.236 24.873 2.362 19.547 16.485-5.589 14.821-17.951 11.476-30.563 10.186-12.554-1.283-17.556-24.599-4.373-27.233M217 152.5c2.539 0 11.5-1.421 11.5 1.302 0 4.563 1.33 7.967 3.247 12.198 4.943 10.908 18.091 13.139 29.526 12.394 8.735-.57 12.55-6.896 13.94-14.966 1.852-10.75-2.771-12.396-11.911-13.456-7.331-.85-31.47-7.025-35.346 2.448M183.083 138.209l28.261 6.595M244 146.5h18" stroke="#000" stroke-miterlimit="10" fill="none"/><path d="M199.794 153c0 4-5.986 4-5.986 0s5.986-4 5.986 0zM251.749 157c0 3-5.985 3-5.985 0-.001-4 5.985-4 5.985 0z"/></svg>