<?xml version="1.0" encoding="iso-8859-1"?>
<!-- Generator: Adobe Illustrator 16.0.4, SVG Export Plug-In . SVG Version: 6.00 Build 0)  -->
<!DOCTYPE svg PUBLIC "-//W3C//DTD SVG 1.1//EN" "http://www.w3.org/Graphics/SVG/1.1/DTD/svg11.dtd">
<svg version="1.1" id="Layer_2" xmlns="http://www.w3.org/2000/svg" xmlns:xlink="http://www.w3.org/1999/xlink" x="0px" y="0px"
	 width="400px" height="300px" viewBox="0 0 400 300" style="enable-background:new 0 0 400 300;" xml:space="preserve">
<path style="fill:none;stroke:#000000;stroke-miterlimit:10;" d="M26,309.43c25.654-45.719,102.456-43.198,140.362-76.599
	c-5.722,26.71,2.342,51.162,12.247,76.599"/>
<path style="fill:none;stroke:#000000;stroke-miterlimit:10;" d="M267.5,313c0-25.606,0-51.213,0-76.819
	c-6.706,11.435-33.868,66.812-53.174,52.965c-13.932-9.994-27.864-19.987-41.796-29.98c-9.661-6.93-4.626-32.458-4.022-41.484"/>
<path style="fill:none;stroke:#000000;stroke-miterlimit:10;" d="M205,192.5c4.498-0.702,7.817,1.897,12.232,2
	c4.679,0.108,9.04-1.378,13.667-2.002"/>
<path style="fill:none;stroke:#000000;stroke-miterlimit:10;" d="M157.884,138.5c11.735,0.912,8.616-25.323,8.616-32.171
	c0-13.131,16.899-19.414,26-23.699c-0.328,1.663,0.32,3.516,0,5.181c14.499-5.188,19.625-3.584,33.786-1.896
	c11.996,1.431,27.587-3.572,38.047,3.301c4.872,3.201,21.548,21.452,20.641,27.4c-1.165,7.634-2.329,15.268-3.493,22.901
	c-1.012,6.634,3.617,9.573,7.815,14.705c5.513-18.54,13.925-40.295,2.355-58.404c-7.865-12.311-17.592-24.316-29.402-33.047
	c-13.54-10.009-28.691-7.261-44.561-9.363c-18.623-2.468-40.333,17.631-52.819,28.868C148.984,96.574,154.889,120.695,157.884,138.5
	z"/>
<path style="fill:none;stroke:#000000;stroke-miterlimit:10;" d="M288.697,153.491c3.736,2.61,1.291,1.01,5.898,0.114
	c8.103-1.575,4.12,9.887,3.013,13.599c-2.238,7.512-5.153,15.173-7.708,22.678c-0.956,2.806-2.418,5.474-3.666,8.146
	c-2.385,5.11-9.7,3.439-10.785,5.684c-5.445,11.27-7.951,16.917-7.951,29.294c0,9.536,30.564,15.582,38.832,17.888
	c20.688,5.768,66.67,9.001,73.336,62.106"/>
<polyline style="fill:none;stroke:#000000;stroke-miterlimit:10;" points="195.145,211.38 217.232,213.5 239,213.5 "/>
<path style="fill:none;stroke:#000000;stroke-miterlimit:10;" d="M248.319,236.181c-2.604-0.521-8.268,3.197-10.805,3.85
	c-12.13,3.119-26.853,4.299-39.089,1.56c-24.709-5.533-30.265-21.004-34.768-43.579c-1.86-9.325-0.493-5.555-7.088-9.377
	c-6.574-3.809-1.165-14.565-1.891-20.628c-0.599-5.005-7.888-34.93,2.735-26.028c0.157-1.256,0.314-2.513,0.471-3.769
	c13.498,6.249,22.484,3.819,37.21,5.417c11.4,1.236,24.873,2.362,19.547,16.485c-5.589,14.821-17.951,11.476-30.563,10.186
	c-12.554-1.283-17.556-24.599-4.373-27.233"/>
<path style="fill:none;stroke:#000000;stroke-miterlimit:10;" d="M217,152.5c2.539,0,11.5-1.421,11.5,1.302
	c0,4.563,1.33,7.967,3.247,12.198c4.943,10.908,18.091,13.139,29.526,12.394c8.735-0.57,12.55-6.896,13.94-14.966
	c1.852-10.75-2.771-12.396-11.911-13.456c-7.331-0.85-31.47-7.025-35.346,2.448"/>
<line style="fill:none;stroke:#000000;stroke-miterlimit:10;" x1="183.083" y1="138.209" x2="211.344" y2="144.804"/>
<line style="fill:none;stroke:#000000;stroke-miterlimit:10;" x1="244" y1="146.5" x2="262" y2="146.5"/>
<path d="M199.794,153c0,4-5.986,4-5.986,0S199.794,149,199.794,153z"/>
<path d="M251.749,157c0,3-5.985,3-5.985,0C245.763,153,251.749,153,251.749,157z"/>
</svg>
