<svg xmlns="http://www.w3.org/2000/svg" viewBox="0 0 400 300"><path d="M29.75 273.987l22.198-43.239 16.655-7.471 35.253-8.066s22.869-14.428 24.601-14.428c1.732 0 30.377-4.611 30.377-4.611v26.564l6.234 20.79 8.099 70.452M203.21 313.978l25.987-51.396 2.887-15.592 6.354-2.887 12.127-21.945 4.618-5.197 5.776-20.789 84.89 47.354s13.282 10.972 13.858 20.211c.578 9.24 0 25.986 0 25.986l-5.775 13.57 2.311 7.798M201.353 83.021c-8.512 12.618 10.55 12.326 19.774 13.833 9.402 1.538 28.334 7.193 25.684-8.382 23.244 13.696 20.356 45.944 20.356 69.296 15.093-39.62-8.873-103.335-59.208-96.782-12.033 1.565-19.598 4.19-30.52 9.33-10.423 4.903-13.113 13.525-18.549 23.765-5.826 10.977-5.689 19.597-6.834 31.984-.404 4.375-.963 8.705-.963 13.098 0 8.177 5.705 7.137 8.229 14.708 11.893-7.132 6.543-26.988 10.205-37.978 4.827-14.485 14.572-36.202 33.683-32.619M152.393 144.344c-23.141-4.913-8.395 46.088 6.93 43.31-.128 2.84-.256 5.68-.383 8.519M261.104 195.882c0-2.782-1.336-9.931 0-12.56.514-1.013 3.489.933 4.371-1.082.953-2.177 2.043-4.334 2.809-6.585 1.586-4.66 11.439-24.542.184-22.65M209.562 183.322l9.962 8.662 11.261-4.331M204.334 204.5h24M189.424 227.933s1.84 8.667 6.172 9.966c4.331 1.3 8.77 2.602 8.77 2.602h19.058l7.362-3.9s2.166-1.736 2.599-4.768M158.672 211.908l16.135 19.923 16.511 16.299 13.047 9.37h9.53l18.189-10.668M166.151 146.767l16.126 2.422M267.599 151.272l-6.93 1.3" stroke="#000" stroke-miterlimit="10" fill="none"/><path d="M197.453 156c0 2-4.235 2-4.235 0 0-3 4.235-3 4.235 0zM246.143 157c0 4-4.234 4-4.234 0-.001-2 4.234-2 4.234 0z"/><path stroke="#000" stroke-miterlimit="10" fill="none" d="M182.277 149.402l-.409 14.682 2.142 4.416h26.314l3.137-2.551.434-15.787-3.972-3.662h-24.613zM214.334 156.5h14"/><path stroke="#000" stroke-miterlimit="10" fill="none" d="M229.053 151.701l-.408 15.031 2.14 4.768h26.317l3.134-2.752.433-16.187-3.97-4.061h-24.615z"/></svg>
