<?xml version="1.0" encoding="iso-8859-1"?>
<!-- Generator: Adobe Illustrator 16.0.4, SVG Export Plug-In . SVG Version: 6.00 Build 0)  -->
<!DOCTYPE svg PUBLIC "-//W3C//DTD SVG 1.1//EN" "http://www.w3.org/Graphics/SVG/1.1/DTD/svg11.dtd">
<svg version="1.1" id="Layer_2" xmlns="http://www.w3.org/2000/svg" xmlns:xlink="http://www.w3.org/1999/xlink" x="0px" y="0px"
	 width="400px" height="300px" viewBox="0 0 400 300" style="enable-background:new 0 0 400 300;" xml:space="preserve">
<path style="fill:none;stroke:#000000;stroke-miterlimit:10;" d="M29.75,273.987l22.198-43.239l16.655-7.471l35.253-8.066
	c0,0,22.869-14.428,24.601-14.428c1.732,0,30.377-4.611,30.377-4.611v11.838v14.726l6.234,20.79l8.099,70.452"/>
<path style="fill:none;stroke:#000000;stroke-miterlimit:10;" d="M203.21,313.978l25.987-51.396l2.887-15.592l6.354-2.887
	l12.127-21.945l4.618-5.197l5.776-20.789l84.89,47.354c0,0,13.282,10.972,13.858,20.211c0.578,9.24,0,25.986,0,25.986l-5.775,13.57
	l2.311,7.798"/>
<path style="fill:none;stroke:#000000;stroke-miterlimit:10;" d="M201.353,83.021c-8.512,12.618,10.55,12.326,19.774,13.833
	c9.402,1.538,28.334,7.193,25.684-8.382c23.244,13.696,20.356,45.944,20.356,69.296c15.093-39.62-8.873-103.335-59.208-96.782
	c-12.033,1.565-19.598,4.19-30.52,9.33c-10.423,4.903-13.113,13.525-18.549,23.765c-5.826,10.977-5.689,19.597-6.834,31.984
	c-0.404,4.375-0.963,8.705-0.963,13.098c0,8.177,5.705,7.137,8.229,14.708c11.893-7.132,6.543-26.988,10.205-37.978
	c4.827-14.485,14.572-36.202,33.683-32.619"/>
<path style="fill:none;stroke:#000000;stroke-miterlimit:10;" d="M152.393,144.344c-23.141-4.913-8.395,46.088,6.93,43.31
	c-0.128,2.84-0.256,5.68-0.383,8.519"/>
<path style="fill:none;stroke:#000000;stroke-miterlimit:10;" d="M261.104,195.882c0-2.782-1.336-9.931,0-12.56
	c0.514-1.013,3.489,0.933,4.371-1.082c0.953-2.177,2.043-4.334,2.809-6.585c1.586-4.66,11.439-24.542,0.184-22.65"/>
<polyline style="fill:none;stroke:#000000;stroke-miterlimit:10;" points="209.562,183.322 219.524,191.984 230.785,187.653 "/>
<line style="fill:none;stroke:#000000;stroke-miterlimit:10;" x1="204.334" y1="204.5" x2="228.334" y2="204.5"/>
<path style="fill:none;stroke:#000000;stroke-miterlimit:10;" d="M189.424,227.933c0,0,1.84,8.667,6.172,9.966
	c4.331,1.3,8.77,2.602,8.77,2.602h8.662h10.396l7.362-3.9c0,0,2.166-1.736,2.599-4.768"/>
<polyline style="fill:none;stroke:#000000;stroke-miterlimit:10;" points="158.672,211.908 174.807,231.831 191.318,248.13 
	204.365,257.5 213.895,257.5 232.084,246.832 "/>
<line style="fill:none;stroke:#000000;stroke-miterlimit:10;" x1="166.151" y1="146.767" x2="182.277" y2="149.189"/>
<line style="fill:none;stroke:#000000;stroke-miterlimit:10;" x1="267.599" y1="151.272" x2="260.669" y2="152.572"/>
<path d="M197.453,156c0,2-4.235,2-4.235,0C193.218,153,197.453,153,197.453,156z"/>
<path d="M246.143,157c0,4-4.234,4-4.234,0C241.908,155,246.143,155,246.143,157z"/>
<polygon style="fill:none;stroke:#000000;stroke-miterlimit:10;" points="182.277,149.402 181.868,164.084 184.01,168.5 
	210.324,168.5 213.461,165.949 213.895,150.162 209.923,146.5 185.31,146.5 "/>
<line style="fill:none;stroke:#000000;stroke-miterlimit:10;" x1="214.334" y1="156.5" x2="228.334" y2="156.5"/>
<polygon style="fill:none;stroke:#000000;stroke-miterlimit:10;" points="229.053,151.701 228.645,166.732 230.785,171.5 
	257.102,171.5 260.236,168.748 260.669,152.561 256.699,148.5 232.084,148.5 "/>
</svg>
