
<!-- Generator: Adobe Illustrator 16.0.4, SVG Export Plug-In . SVG Version: 6.00 Build 0)  -->

<svg version="1.1" id="Layer_2" xmlns="http://www.w3.org/2000/svg" xmlns:xlink="http://www.w3.org/1999/xlink" x="0px" y="0px"
	 width="400px" height="300px" viewBox="0 0 400 300" style="enable-background:new 0 0 400 300;" xml:space="preserve">
<path style="fill:none;stroke:#000000;stroke-miterlimit:10;" d="M56.719,323.001l8-37.334l10.666-4.666l76.667-24.667L170.385,234
	c0,0,5.001,35.667,14.334,40.334s9.333,4.667,9.333,4.667l19.667,19.666"/>
<path style="fill:none;stroke:#000000;stroke-miterlimit:10;" d="M213.719,298.667c0,0,13-23.666,28-28.666S245.386,234,245.386,234
	l15.333,13.001l101.334,31.666l24,64.667"/>
<path style="fill:none;stroke:#000000;stroke-miterlimit:10;" d="M154.719,159.329c-2.888-16.292-2.263-33.896,2.733-49.698
	c6.087-19.256,34.31-54.016,58.174-43.855c23.814,10.138,53.073,29.176,55.029,57.677c1.143,16.654-0.588,39.835-14.104,51.548
	c0-6.894,0-13.786,0-20.68c0-7.339-6.916-15.241-7.473-23.99c-0.05-0.795-19.779-9.64-23.035-12.723
	c-1.517-1.436-21.756,1.562-25.235,1.449c-8.346-0.273-16.686-0.883-24.995-1.701c-4.3-0.423-7.361,11.489-8.971,14.896
	c-2.76,5.845-7.639,12.052-6.529,18.586c1.159,6.826,4.045,14.101,0.072,20.497c-4.329-9.17-12.731-25.121-10.667-4
	c0.735,7.521,2.342,23.79,11.031,23.896c-3.92-0.047,9.654,40.391,11.071,42.736c9.79,16.197,28.569,21.01,46.444,16.984
	c7.743-1.744,14.992-5.738,20.684-11.259c5.609-5.441,18.173-39.191,17.937-39.191c10.609,0,12.702-15.009,14.723-23.376
	c1.026-4.25,4.592-25.205-5.556-14.79"/>
<path style="fill:none;stroke:#000000;stroke-miterlimit:10;" d="M168.719,163.334c0,0,8.333-16.333,28,0"/>
<path style="fill:none;stroke:#000000;stroke-miterlimit:10;" d="M210.235,163.334c0,0,20.483-15.374,35.15-3.521"/>
<path style="fill:none;stroke:#000000;stroke-miterlimit:10;" d="M184.386,216.001c0,0,29.333,3.334,39,0"/>
<path style="fill:none;stroke:#000000;stroke-miterlimit:10;" d="M193.719,195.667c0,0,15.668-4.332,21.334,1.334"/>
<path d="M184.685,166c0,3-4.889,3-4.889,0S184.685,163,184.685,166z"/>
<path d="M229.896,166c0,4-4.89,4-4.89,0C225.006,163,229.896,163,229.896,166z"/>
</svg>
