<svg xmlns="http://www.w3.org/2000/svg" width="400" height="300" viewBox="0 0 400 300"><path d="M56.719 323.001l8-37.334 10.666-4.666 76.667-24.667 18.333-22.334s5.001 35.667 14.334 40.334l9.333 4.667 19.667 19.666M213.719 298.667s13-23.666 28-28.666l3.667-36.001 15.333 13.001 101.334 31.666 24 64.667M154.719 159.329c-2.888-16.292-2.263-33.896 2.733-49.698 6.087-19.256 34.31-54.016 58.174-43.855 23.814 10.138 53.073 29.176 55.029 57.677 1.143 16.654-.588 39.835-14.104 51.548v-20.68c0-7.339-6.916-15.241-7.473-23.99-.05-.795-19.779-9.64-23.035-12.723-1.517-1.436-21.756 1.562-25.235 1.449-8.346-.273-16.686-.883-24.995-1.701-4.3-.423-7.361 11.489-8.971 14.896-2.76 5.845-7.639 12.052-6.529 18.586 1.159 6.826 4.045 14.101.072 20.497-4.329-9.17-12.731-25.121-10.667-4 .735 7.521 2.342 23.79 11.031 23.896-3.92-.047 9.654 40.391 11.071 42.736 9.79 16.197 28.569 21.01 46.444 16.984 7.743-1.744 14.992-5.738 20.684-11.259 5.609-5.441 18.173-39.191 17.937-39.191 10.609 0 12.702-15.009 14.723-23.376 1.026-4.25 4.592-25.205-5.556-14.79M168.719 163.334s8.333-16.333 28 0M210.235 163.334s20.483-15.374 35.15-3.521M184.386 216.001s29.333 3.334 39 0M193.719 195.667s15.668-4.332 21.334 1.334" stroke="#000" stroke-miterlimit="10" fill="none"/><path d="M184.685 166c0 3-4.889 3-4.889 0s4.889-3 4.889 0zM229.896 166c0 4-4.89 4-4.89 0 0-3 4.89-3 4.89 0z"/></svg>