<svg xmlns="http://www.w3.org/2000/svg" viewBox="0 0 400 300"><path d="M255.5 212.806c-10.418 14.09-4.993 28.499-.517 43.863 5.515 18.929 10.038 38.174 14.62 57.346M260.75 182c-2.275 6.913-2.653 27.295-5.25 30.806M269.322 172.83M146.5 137v48l-4.25-7-5.875-14-3.562-12-4.312-13.5v-6h-1.501l-1.75-1.75s6.75-75.375 65.75-76.125 78.5 25.438 81.25 39.688l2.25 52.219s-.827 9.062-5.178 26.299M146.5 137l8-19.25v10.25c10.427-11.029 28.689-25.254 46.5-7.188l-2.75-9.312c3.743.8 16.328 6.297 17.531 10.594-2.094-7.477-3.038-9.645-1.531-17.094 7.505 3.194 7.211 10.349 16.25 12.25l-5.75-17.5c3.948 7.735 9.907 14.465 13.75 22.25 7.83-5.605 2.211-4.648 12 2v-8c12.217 20.627 9.191 42.435 10.25 66 2.951-3.202 5.902-6.404 8.854-9.605M182.5 205s39-2.5 49.5-1.75M134.536 157.806c-8.047 11.073 4.416 36.737 15.485 41.894 5.876 2.737 4.614 12.762 7.229 17.816 4.218 8.155 11.809 15.418 20.524 18.339 12.4 4.155 30.658 7.822 42.984 2.044 4.009-1.879 28.742-11.417 28.742-16.141M163.5 225v15l14.416 27.5 7.584 38.25M165 159.5s13.75-16.75 27.75 0M218 155.5s13.75-16.75 27.75 0" stroke="#000" stroke-miterlimit="10" fill="none"/><circle cx="233" cy="153.806" r="3.75"/><circle cx="178" cy="157.806" r="3.75"/><path d="M157 150.056s20-22.194 37.5 2M218 143.75s20.25-17.889 32.5 4.306M194.5 177.5s-10 4.75-3.25 11.75M163.5 241l-14.5 13.333s-62.035-6.946-79.666 2.334c-18.998 9.999-47.885 64.267-47.885 64.267M249.5 228s8.781 5.059 11.25 7.333c5.275 4.859 17.584 22.667 17.584 22.667s59.766-.271 74.999 11c12.675 9.379 25.396 51.934 25.396 51.934" stroke="#000" stroke-miterlimit="10" fill="none"/></svg>
