<?xml version="1.0" encoding="iso-8859-1"?>
<!-- Generator: Adobe Illustrator 16.0.4, SVG Export Plug-In . SVG Version: 6.00 Build 0)  -->
<!DOCTYPE svg PUBLIC "-//W3C//DTD SVG 1.1//EN" "http://www.w3.org/Graphics/SVG/1.1/DTD/svg11.dtd">
<svg version="1.1" id="Layer_2" xmlns="http://www.w3.org/2000/svg" xmlns:xlink="http://www.w3.org/1999/xlink" x="0px" y="0px"
	 width="400px" height="300px" viewBox="0 0 400 300" style="enable-background:new 0 0 400 300;" xml:space="preserve">
<path style="fill:none;stroke:#000000;stroke-miterlimit:10;" d="M255.5,212.806c-10.418,14.09-4.993,28.499-0.517,43.863
	c5.515,18.929,10.038,38.174,14.62,57.346"/>
<path style="fill:none;stroke:#000000;stroke-miterlimit:10;" d="M260.75,182c-2.275,6.913-2.653,27.295-5.25,30.806"/>
<path style="fill:none;stroke:#000000;stroke-miterlimit:10;" d="M269.322,172.83"/>
<path style="fill:none;stroke:#000000;stroke-miterlimit:10;" d="M146.5,137v48l-4.25-7l-5.875-14l-3.562-12l-4.312-13.5v-6H127
	l-1.75-1.75c0,0,6.75-75.375,65.75-76.125s78.5,25.438,81.25,39.688s2.25,52.219,2.25,52.219s-0.827,9.062-5.178,26.299"/>
<path style="fill:none;stroke:#000000;stroke-miterlimit:10;" d="M146.5,137c2.667-6.417,5.333-12.833,8-19.25
	c0,3.417,0,6.833,0,10.25c10.427-11.029,28.689-25.254,46.5-7.188c-0.917-3.104-1.833-6.208-2.75-9.312
	c3.743,0.8,16.328,6.297,17.531,10.594c-2.094-7.477-3.038-9.645-1.531-17.094c7.505,3.194,7.211,10.349,16.25,12.25
	c-1.917-5.833-3.833-11.667-5.75-17.5c3.948,7.735,9.907,14.465,13.75,22.25c7.83-5.605,2.211-4.648,12,2c0-2.667,0-5.333,0-8
	c12.217,20.627,9.191,42.435,10.25,66c2.951-3.202,5.902-6.404,8.854-9.605"/>
<path style="fill:none;stroke:#000000;stroke-miterlimit:10;" d="M182.5,205c0,0,39-2.5,49.5-1.75"/>
<path style="fill:none;stroke:#000000;stroke-miterlimit:10;" d="M134.536,157.806c-8.047,11.073,4.416,36.737,15.485,41.894
	c5.876,2.737,4.614,12.762,7.229,17.816c4.218,8.155,11.809,15.418,20.524,18.339c12.4,4.155,30.658,7.822,42.984,2.044
	c4.009-1.879,28.742-11.417,28.742-16.141"/>
<polyline style="fill:none;stroke:#000000;stroke-miterlimit:10;" points="163.5,225 163.5,240 177.916,267.5 185.5,305.75 "/>
<path style="fill:none;stroke:#000000;stroke-miterlimit:10;" d="M165,159.5c0,0,13.75-16.75,27.75,0"/>
<path style="fill:none;stroke:#000000;stroke-miterlimit:10;" d="M218,155.5c0,0,13.75-16.75,27.75,0"/>
<circle cx="233" cy="153.806" r="3.75"/>
<circle cx="178" cy="157.806" r="3.75"/>
<path style="fill:none;stroke:#000000;stroke-miterlimit:10;" d="M157,150.056c0,0,20-22.194,37.5,2"/>
<path style="fill:none;stroke:#000000;stroke-miterlimit:10;" d="M218,143.75c0,0,20.25-17.889,32.5,4.306"/>
<path style="fill:none;stroke:#000000;stroke-miterlimit:10;" d="M194.5,177.5c0,0-10,4.75-3.25,11.75"/>
<path style="fill:none;stroke:#000000;stroke-miterlimit:10;" d="M163.5,241L149,254.333c0,0-62.035-6.946-79.666,2.334
	c-18.998,9.999-47.885,64.267-47.885,64.267"/>
<path style="fill:none;stroke:#000000;stroke-miterlimit:10;" d="M249.5,228c0,0,8.781,5.059,11.25,7.333
	c5.275,4.859,17.584,22.667,17.584,22.667s59.766-0.271,74.999,11c12.675,9.379,25.396,51.934,25.396,51.934"/>
</svg>
