<svg xmlns="http://www.w3.org/2000/svg" width="400" height="300" viewBox="0 0 400 300"><path d="M23.001 307c24.499-119.296 120.311-74.118 148.09-101.58-6.399 17.05-6.956 35.128-6.716 53.168M378.334 307c0-74.527-97.911-79.78-124.458-91.088 3.57 15.507 2.624 31.302 2.624 47.088M193.896 205.42s33.58 5.177 44.492 3.917M156.261 131.266s-6.716-4.756-7.836 0c-1.119 4.757 0 12.593 0 12.593l3.669 32.18s4.167 7.275 8.363 6.996c4.197-.28 6.156-2.519 6.156-2.519l1.399-1.959 3.078 26.863M156.261 131.266s1.398-40.294 12.592-51.207c0 0 20.147-31.902 62.682-31.902 0 0 70.655 21.828 54.565 96.961M161.575 135.919l3.359 14.581h3.358l6.157-20.965 4.478-12.908 4.756-11.848 2.519-24.114 22.386-7.86s15.95 19.872 45.472 20.433M208.448 183.908l10.772 7.592h3.639l10.352-3.795M260.009 80.059s20.214 13.987 17.976 65.059M216.143 138.646s4.688 4.372 4.688 8.849c0 2.609.071 2.239-2.729 10.074-2.798 7.836-14.829 13.712-14.829 13.712s-6.996.84-15.111.279c-8.114-.561-10.913-9.514-10.913-9.514s-.281-3.079 0-11.894c.28-8.814 12.592-14.13 12.592-14.13l26.302 2.624 30.37 3.027 13.496 1.346s15.505 6.156 13.383 16.229l-2.122 10.074s-1.119 6.436-17.21 5.596c-16.089-.839-21.604-7.835-22.345-12.592l-.181-9.374s2.136-12.702 10.532-11.724M171.091 141.619l6.992 4.872M187.741 140.5s22.386-2.239 25.743 4.617M238.809 146.491s19.309-2.354 24.766 5.202M173.5 211c-2.453 17.098 20.138 35.811 31.316 47.393 13.649 14.14 34.819-12.643 41.214-23.64M187.751 223.748c13.394 11.361 30.729 22.689 47.923 10.741 17.41-12.099 22.682-28.907 30.334-47.784 3.012 9.632 12.834 8.4 15.318-.679 1.845-6.734 2.757-13.935 5.007-20.515 2.172-6.354 10.872-16.205 2.846-20.395-6.963-3.635-12.789 3.287-17.053 7.233" stroke="#000" stroke-miterlimit="10" fill="none"/><path d="M202.282 147c0 3-5.335 3-5.335 0 0-4 5.335-4 5.335 0zM251.1 152c0 2-5.334 2-5.334 0 0-4 5.334-4 5.334 0z"/></svg>