<?xml version="1.0" encoding="iso-8859-1"?>
<!-- Generator: Adobe Illustrator 16.0.4, SVG Export Plug-In . SVG Version: 6.00 Build 0)  -->
<!DOCTYPE svg PUBLIC "-//W3C//DTD SVG 1.1//EN" "http://www.w3.org/Graphics/SVG/1.1/DTD/svg11.dtd">
<svg version="1.1" id="Layer_2" xmlns="http://www.w3.org/2000/svg" xmlns:xlink="http://www.w3.org/1999/xlink" x="0px" y="0px"
	 width="400px" height="300px" viewBox="0 0 400 300" style="enable-background:new 0 0 400 300;" xml:space="preserve">
<path style="fill:none;stroke:#000000;stroke-miterlimit:10;" d="M17.584,318.121c19.122-48.281,21.318-77.299,77.401-86.745
	c9.403-1.583,47.029-15.811,52.394-10.084c8.115,8.662,9.216,43.022,11.957,55.331"/>
<path style="fill:none;stroke:#000000;stroke-miterlimit:10;" d="M217.336,306.623c2.309-16.376,0.592-41.982,9.897-55.812
	c6.513-9.68,13.024-19.357,19.536-29.037c4.99-7.418,17.66,0.265,25.405,2.356c24.097,6.508,43.363-3.763,61.181,16.868
	c12.262,14.198,18.604,37.336,26.646,54.292"/>
<path style="fill:none;stroke:#000000;stroke-miterlimit:10;" d="M137.581,220.383l-18.248-10.429c0,0-18-8.334-14-44.667
	s6.334-49.333,6.334-49.333S116,88.62,142,70.287s24-16.666,24-16.666s21-4.411,33.5-0.039s23.833,10.372,23.833,10.372l29,24.333
	c0,0,17,18.667,17.667,49.667s0,22.333,0,22.333s7,18.667-4,28.667s-15.333,11-15.333,11l-3.897,21.819"/>
<path style="fill:none;stroke:#000000;stroke-miterlimit:10;" d="M166.666,208.624c0,0,17.334,12.329,44.334,2.663"/>
<path style="fill:none;stroke:#000000;stroke-miterlimit:10;" d="M250.667,199.954c1.737-7.277-8.123-10.651-13.001-12.333
	c10.967-12.479,26.717-34.432,3.398-42.2c-7.301-2.434-14.376-7.218-22.254-7.622c-3.005,0.284-5.565,1.534-7.681,3.751
	c-2.218,0.388-9.853-6.97-12.46-7.657c-21.94-5.784-45.314-1.651-62.371,15.533c-17.823,17.955-0.682,49.737,6.701,68.535"/>
<path style="fill:none;stroke:#000000;stroke-miterlimit:10;" d="M177.5,190.62c0,0-3.667-4.666,0-6s4.833,0,4.833,0l2,2.704
	c0,0,2.282,2.795,4.142,1.962c1.858-0.833,2.358-3,2.358-3s2.666-2.332,4-1.166s2.5,2.204,2.5,2.204s1.5,1.796-0.833,3.296"/>
<path style="fill:none;stroke:#000000;stroke-miterlimit:10;" d="M177,146.286c0,0-19.016-9.608-25.645-5.92"/>
<path style="fill:none;stroke:#000000;stroke-miterlimit:10;" d="M200.667,144.953c0,0,25.167-5,29.5,2.5"/>
<path style="fill:none;stroke:#000000;stroke-miterlimit:10;" d="M150.5,224.623c32.164,39.412,68.373,19.261,87.499-17.67"/>
<path d="M162.489,153c0,4-6.354,4-6.354,0S162.489,149,162.489,153z"/>
<path d="M218.641,155c0,4-6.354,4-6.354,0S218.641,151,218.641,155z"/>
</svg>
