<svg xmlns="http://www.w3.org/2000/svg" viewBox="0 0 400 300"><path d="M17.584 318.121c19.122-48.281 21.318-77.299 77.401-86.745 9.403-1.583 47.029-15.811 52.394-10.084 8.115 8.662 9.216 43.022 11.957 55.331M217.336 306.623c2.309-16.376.592-41.982 9.897-55.812 6.513-9.68 13.024-19.357 19.536-29.037 4.99-7.418 17.66.265 25.405 2.356 24.097 6.508 43.363-3.763 61.181 16.868 12.262 14.198 18.604 37.336 26.646 54.292M137.581 220.383l-18.248-10.429s-18-8.334-14-44.667l6.334-49.333s4.333-27.334 30.333-45.667l24-16.666s21-4.411 33.5-.039l23.833 10.372 29 24.333s17 18.667 17.667 49.667v22.333s7 18.667-4 28.667l-15.333 11-3.897 21.819M166.666 208.624s17.334 12.329 44.334 2.663M250.667 199.954c1.737-7.277-8.123-10.651-13.001-12.333 10.967-12.479 26.717-34.432 3.398-42.2-7.301-2.434-14.376-7.218-22.254-7.622-3.005.284-5.565 1.534-7.681 3.751-2.218.388-9.853-6.97-12.46-7.657-21.94-5.784-45.314-1.651-62.371 15.533-17.823 17.955-.682 49.737 6.701 68.535M177.5 190.62s-3.667-4.666 0-6h4.833l2 2.704s2.282 2.795 4.142 1.962c1.858-.833 2.358-3 2.358-3s2.666-2.332 4-1.166l2.5 2.204s1.5 1.796-.833 3.296M177 146.286s-19.016-9.608-25.645-5.92M200.667 144.953s25.167-5 29.5 2.5M150.5 224.623c32.164 39.412 68.373 19.261 87.499-17.67" stroke="#000" stroke-miterlimit="10" fill="none"/><path d="M162.489 153c0 4-6.354 4-6.354 0s6.354-4 6.354 0zM218.641 155c0 4-6.354 4-6.354 0s6.354-4 6.354 0z"/></svg>
