<?xml version="1.0" encoding="iso-8859-1"?>
<!-- Generator: Adobe Illustrator 16.0.4, SVG Export Plug-In . SVG Version: 6.00 Build 0)  -->
<!DOCTYPE svg PUBLIC "-//W3C//DTD SVG 1.1//EN" "http://www.w3.org/Graphics/SVG/1.1/DTD/svg11.dtd">
<svg version="1.1" id="Layer_2" xmlns="http://www.w3.org/2000/svg" xmlns:xlink="http://www.w3.org/1999/xlink" x="0px" y="0px"
	 width="400px" height="300px" viewBox="0 0 400 300" style="enable-background:new 0 0 400 300;" xml:space="preserve">
<path style="fill:none;stroke:#000000;stroke-miterlimit:10;" d="M18.449,307.798c4.642-9.155,8.401-26.337,18.842-29.282
	c17.862-5.041,35.723-10.081,53.585-15.121c18.831-5.313,37.661-10.627,56.492-15.94c2.785-0.786,7.132-0.606,7.132-3.785
	c0-7.892,0.855-15.717-1.409-23.298c-1.329-4.448-4.082-23.837-10.339-22.292c-10.456,2.581-14.031-16.581-15.949-24.272
	c-1.344-5.393-2.555-11.563,0.243-16.75c2.202-4.082,2.899-2.375,2.199-7.367c-1.235-8.794-2.06-17.432-2.121-26.34
	c-0.187-27.218,24.305-61.71,52.497-66.02c30.217-4.619,60.234,5.35,77.068,31.818c7.816,12.289,7.782,30.769,8.959,44.888
	c0.266,3.19,2.984,1.284,5.492,2.721c3.852,2.204,4.066,11.53,3.962,15.21c-0.225,7.968-1.437,16.729-4.006,24.327
	c-1.04,3.075-3.292,8.315-6.814,8.751c-1.468,0.182-8.412-1.154-8.763-0.057c-2.315,7.246-4.02,12.668-4.02,20.226
	c0,15.341-0.071,24.479,7.807,37.383c6.088,9.974,22.558,11.226,33.252,14.645c10.721,3.428,21.519,6.304,31.65,11.204
	c14.561,7.043,29.122,14.085,43.683,21.128c12.179,5.891,12.325,19.169,15.103,30.804"/>
<line style="fill:none;stroke:#000000;stroke-miterlimit:10;" x1="146.428" y1="301.107" x2="152.893" y2="245.883"/>
<line style="fill:none;stroke:#000000;stroke-miterlimit:10;" x1="192.459" y1="273.495" x2="154.457" y2="245.441"/>
<path style="fill:none;stroke:#000000;stroke-miterlimit:10;" d="M162.485,225.638c20.707,15.581,42.357,12.491,63.695,0"/>
<path style="fill:none;stroke:#000000;stroke-miterlimit:10;" d="M180.149,198.875c0,0,24.086-4.282,33.453-1.873"/>
<path style="fill:none;stroke:#000000;stroke-miterlimit:10;" d="M185.233,137.589c0,0,15.522-1.672,17.396,0.202"/>
<path style="fill:none;stroke:#000000;stroke-miterlimit:10;" d="M183.896,175.324c0,0,18.734,4.817,24.086,0"/>
<path style="fill:none;stroke:#000000;stroke-miterlimit:10;" d="M144.555,89.952c0,0,34.791-51.384,93.937-13.649"/>
<path style="fill:none;stroke:#000000;stroke-miterlimit:10;" d="M150.175,131.701c0,0-8.365,3.819-10.571,5.888
	c-1.51,1.416-0.47,4.144-0.669,6.202c-0.768,7.924,11.273,25.11,17.931,26.181c6.177,0.993,9.958-0.683,15.79-2.944
	c2.175-0.842,7.218-2.943,7.218-2.943c1.676-1.737,4.396-5.815,5.36-8.029c1.044-2.396,2.409-10.169,2.409-10.169
	s-1.426-11.345-3.747-14.185c-1.84-2.251-7.874-3.887-10.705-4.55c-2.606-0.61-8.07-0.472-10.705,0
	C159.255,127.729,150.175,131.701,150.175,131.701z"/>
<path style="fill:none;stroke:#000000;stroke-miterlimit:10;" d="M202.5,135.181v9.634c0,0,0.977,9.101,2.206,11.775
	c0.92,2.006,4.582,5.755,4.582,5.755s7.535,2.976,10.186,3.345c2.072,0.289,6.111-0.251,8.305-1.07
	c3.06-1.144,8.483-5.369,10.709-7.761c1.541-1.656,3.487-5.096,4.551-7.093c1.351-2.534,3.831-7.906,4.015-11.106
	c0.142-2.439-0.419-8.312-2.14-10.304c-1.292-1.495-4.325-3.226-6.422-3.797c-2.582-0.705-10.705-2.059-10.705-2.059h-9.635
	c0,0-8.801,3.245-10.234,3.969C204.5,128.192,202.5,135.181,202.5,135.181z"/>
<line style="fill:none;stroke:#000000;stroke-miterlimit:10;" x1="246.589" y1="130.192" x2="255.386" y2="135.716"/>
<line style="fill:none;stroke:#000000;stroke-miterlimit:10;" x1="138.834" y1="141.269" x2="135.649" y2="144.279"/>
<path style="fill:none;stroke:#000000;stroke-miterlimit:10;" d="M152.851,144.279c0,0,11.508-14.986,24.086-2.408"/>
<path style="fill:none;stroke:#000000;stroke-miterlimit:10;" d="M213.602,136.757c0,0,20.607-5.802,21.678,3.805"/>
<circle cx="166.396" cy="147.004" r="2.522"/>
<circle cx="223.133" cy="143.793" r="2.522"/>
<polyline style="fill:none;stroke:#000000;stroke-miterlimit:10;" points="215.476,273.495 245.449,248.118 249.731,230.99 "/>
<path style="fill:none;stroke:#000000;stroke-miterlimit:10;" d="M260,149.5c-6.639,1.922-4.464-4.722-4.501-9.143
	c-0.04-4.746-0.326-9.496-0.726-14.224c-1.316-15.544-3.116-38.983-16.292-49.63"/>
<path style="fill:none;stroke:#000000;stroke-miterlimit:10;" d="M259.901,149.632c0,0-0.535-13.381,5.888-13.916"/>
<path style="fill:none;stroke:#000000;stroke-miterlimit:10;" d="M129.835,153.914c2.642,4.979,4.847,14.199,11.508,14.72
	c-8.042-20.906-15.016-61.737,3.211-78.682"/>
</svg>
