<?xml version="1.0" encoding="iso-8859-1"?>
<!-- Generator: Adobe Illustrator 16.0.4, SVG Export Plug-In . SVG Version: 6.00 Build 0)  -->
<!DOCTYPE svg PUBLIC "-//W3C//DTD SVG 1.1//EN" "http://www.w3.org/Graphics/SVG/1.1/DTD/svg11.dtd">
<svg version="1.1" id="Layer_2" xmlns="http://www.w3.org/2000/svg" xmlns:xlink="http://www.w3.org/1999/xlink" x="0px" y="0px"
	 width="400px" height="300px" viewBox="0 0 400 300" style="enable-background:new 0 0 400 300;" xml:space="preserve">
<path style="fill:none;stroke:#000000;stroke-miterlimit:10;" d="M41.474,264.624c1.169-4.603,5.941-14.52,4.688-18.972
	c-3.441-12.236,18.219-15.461,25.456-17.46c13.222-3.649,26.39-7.486,39.577-11.255c6.551-1.872,13.203-6.949,19.233-10.154
	c6.515-3.461,16.983-3.598,24.216-5.077c5.66-1.157,8.203,10.671,10.417,15.247c3.39,7.006,9.413,12.938,14.583,18.665
	c24.123,26.715,69.116-6.139,77.14-33.719c2.142-7.361,5.22-10.631,12.64-5.613c7.368,4.983,13.852,9.916,22.209,12.884
	c14.849,5.271,30.482,8.404,45.742,12.275c10.008,2.537,29.922,2.274,32.121,13.49c3.168,16.153,6.336,32.307,9.504,48.46"/>
<path style="fill:none;stroke:#000000;stroke-miterlimit:10;" d="M206.23,141.735c0,0,7.709-3.627,11.337-8.615
	s3.628-4.988,3.628-4.988l11.336-2.268"/>
<polyline style="fill:none;stroke:#000000;stroke-miterlimit:10;" points="152.723,141.735 159.524,138.108 190.813,141.735 "/>
<path style="fill:none;stroke:#000000;stroke-miterlimit:10;" d="M184.918,183.454c2.906,7.741,26.124,8.688,25.318,0"/>
<path style="fill:none;stroke:#000000;stroke-miterlimit:10;" d="M184.918,202.953c0,0,21.312,8.615,30.383-0.907"/>
<path style="fill:none;stroke:#000000;stroke-miterlimit:10;" d="M258.871,175.292l-23.165,31.234
	c-0.681-6.629-20.405-19.898-20.405-19.898"/>
<path style="fill:none;stroke:#000000;stroke-miterlimit:10;" d="M156.01,94.122c0.846,10.77,14.006,10.128,22.296,12.005
	c10.401,2.355,21.372-3.218,29.278-9.284c11.168-8.567,23.991-26.638,36.92-9.104c4.166,5.651,2.562,14.603,1.632,20.838
	c-0.944,6.324,4.51,5.19,7.255,9.126c1.953,2.799,2.308,8.781,3.164,12.042c0.911,3.469,3.629,21.874,8.173,11.651
	c3.325-7.481,7.934-14.428,12.029-21.509c3.11-5.379,0.521-19.859-1.474-25.861c-3.245-9.761-7.396-19.262-11.57-28.657
	c-3.212-7.227-6.6-17.019-13.561-21.386c-9.836-6.173-21.15-10.361-31.893-14.662c-13.332-5.338-26.621,0.011-39.654,5.106
	c-20.578,8.044-29.698,19.271-36.281,39.384c-5.035,15.388-10.404,32.88-8.5,49.252c1.162,9.979,6.996,19.884,10.736,29.103
	c0-10.588,1.813-20.684,1.813-31.19c0-4.806-0.968-9.617-0.907-14.382C145.568,98.487,148.551,97.209,156.01,94.122"/>
<polyline style="fill:none;stroke:#000000;stroke-miterlimit:10;" points="195.271,245.956 205.246,256.5 217.567,256.5 
	248.766,217.633 "/>
<polyline style="fill:none;stroke:#000000;stroke-miterlimit:10;" points="166.5,219 166.5,239.229 182.145,287.158 "/>
<line style="fill:none;stroke:#000000;stroke-miterlimit:10;" x1="225.05" y1="287.297" x2="251.854" y2="212.364"/>
<polyline style="fill:none;stroke:#000000;stroke-miterlimit:10;" points="258.623,194.783 262.28,173.474 264.956,172.002 
	266.5,168.264 266.5,139 "/>
<polyline style="fill:none;stroke:#000000;stroke-miterlimit:10;" points="157.154,200.251 151.424,186.721 148.642,177.5 
	145.92,177.5 140.5,150.125 140.5,142 "/>
<path d="M174.053,147c0,2-4.434,2-4.434,0C169.619,144,174.053,144,174.053,147z"/>
<path d="M227.753,141c0,4-4.435,4-4.435,0C223.318,139,227.753,139,227.753,141z"/>
<path style="fill:none;stroke:#000000;stroke-miterlimit:10;" d="M181.971,189.803l-12.352,15.871c0,0-13.949-13.377-15.536-17.686"
	/>
<path style="fill:none;stroke:#000000;stroke-miterlimit:10;" d="M180.499,209.506c0,0,4.419,11.994,10.314,11.994
	s14.058,0,14.058,0l14.51-2.019c0,0,9.166-1.761,8.372-12.751"/>
</svg>
