<svg xmlns="http://www.w3.org/2000/svg" width="400" height="300" viewBox="0 0 400 300"><path d="M18.449 307.798c4.642-9.155 8.401-26.337 18.842-29.282 17.862-5.041 35.723-10.081 53.585-15.121l56.492-15.94c2.785-.786 7.132-.606 7.132-3.785 0-7.892.855-15.717-1.409-23.298-1.329-4.448-4.082-23.837-10.339-22.292-10.456 2.581-14.031-16.581-15.949-24.272-1.344-5.393-2.555-11.563.243-16.75 2.202-4.082 2.899-2.375 2.199-7.367-1.235-8.794-2.06-17.432-2.121-26.34-.187-27.218 24.305-61.71 52.497-66.02 30.217-4.619 60.234 5.35 77.068 31.818 7.816 12.289 7.782 30.769 8.959 44.888.266 3.19 2.984 1.284 5.492 2.721 3.852 2.204 4.066 11.53 3.962 15.21-.225 7.968-1.437 16.729-4.006 24.327-1.04 3.075-3.292 8.315-6.814 8.751-1.468.182-8.412-1.154-8.763-.057-2.315 7.246-4.02 12.668-4.02 20.226 0 15.341-.071 24.479 7.807 37.383 6.088 9.974 22.558 11.226 33.252 14.645 10.721 3.428 21.519 6.304 31.65 11.204l43.683 21.128c12.179 5.891 12.325 19.169 15.103 30.804M146.428 301.107l6.465-55.224M192.459 273.495l-38.002-28.054M162.485 225.638c20.707 15.581 42.357 12.491 63.695 0M180.149 198.875s24.086-4.282 33.453-1.873M185.233 137.589s15.522-1.672 17.396.202M183.896 175.324s18.734 4.817 24.086 0M144.555 89.952s34.791-51.384 93.937-13.649" stroke="#000" stroke-miterlimit="10" fill="none"/><path d="M150.175 131.701s-8.365 3.819-10.571 5.888c-1.51 1.416-.47 4.144-.669 6.202-.768 7.924 11.273 25.11 17.931 26.181 6.177.993 9.958-.683 15.79-2.944 2.175-.842 7.218-2.943 7.218-2.943 1.676-1.737 4.396-5.815 5.36-8.029 1.044-2.396 2.409-10.169 2.409-10.169s-1.426-11.345-3.747-14.185c-1.84-2.251-7.874-3.887-10.705-4.55-2.606-.61-8.07-.472-10.705 0-3.231.577-12.311 4.549-12.311 4.549zM202.5 135.181v9.634s.977 9.101 2.206 11.775c.92 2.006 4.582 5.755 4.582 5.755s7.535 2.976 10.186 3.345c2.072.289 6.111-.251 8.305-1.07 3.06-1.144 8.483-5.369 10.709-7.761 1.541-1.656 3.487-5.096 4.551-7.093 1.351-2.534 3.831-7.906 4.015-11.106.142-2.439-.419-8.312-2.14-10.304-1.292-1.495-4.325-3.226-6.422-3.797-2.582-.705-10.705-2.059-10.705-2.059h-9.635s-8.801 3.245-10.234 3.969c-3.418 1.723-5.418 8.712-5.418 8.712zM246.589 130.192l8.797 5.524M138.834 141.269l-3.185 3.01M152.851 144.279s11.508-14.986 24.086-2.408M213.602 136.757s20.607-5.802 21.678 3.805" stroke="#000" stroke-miterlimit="10" fill="none"/><circle cx="166.396" cy="147.004" r="2.522"/><circle cx="223.133" cy="143.793" r="2.522"/><path stroke="#000" stroke-miterlimit="10" fill="none" d="M215.476 273.495l29.973-25.377 4.282-17.128M260 149.5c-6.639 1.922-4.464-4.722-4.501-9.143-.04-4.746-.326-9.496-.726-14.224-1.316-15.544-3.116-38.983-16.292-49.63M259.901 149.632s-.535-13.381 5.888-13.916M129.835 153.914c2.642 4.979 4.847 14.199 11.508 14.72-8.042-20.906-15.016-61.737 3.211-78.682"/></svg>