<svg xmlns="http://www.w3.org/2000/svg" viewBox="0 0 400 300"><path d="M41.474 264.624c1.169-4.603 5.941-14.52 4.688-18.972-3.441-12.236 18.219-15.461 25.456-17.46 13.222-3.649 26.39-7.486 39.577-11.255 6.551-1.872 13.203-6.949 19.233-10.154 6.515-3.461 16.983-3.598 24.216-5.077 5.66-1.157 8.203 10.671 10.417 15.247 3.39 7.006 9.413 12.938 14.583 18.665 24.123 26.715 69.116-6.139 77.14-33.719 2.142-7.361 5.22-10.631 12.64-5.613 7.368 4.983 13.852 9.916 22.209 12.884 14.849 5.271 30.482 8.404 45.742 12.275 10.008 2.537 29.922 2.274 32.121 13.49l9.504 48.46M206.23 141.735s7.709-3.627 11.337-8.615l3.628-4.988 11.336-2.268M152.723 141.735l6.801-3.627 31.289 3.627M184.918 183.454c2.906 7.741 26.124 8.688 25.318 0M184.918 202.953s21.312 8.615 30.383-.907M258.871 175.292l-23.165 31.234c-.681-6.629-20.405-19.898-20.405-19.898M156.01 94.122c.846 10.77 14.006 10.128 22.296 12.005 10.401 2.355 21.372-3.218 29.278-9.284 11.168-8.567 23.991-26.638 36.92-9.104 4.166 5.651 2.562 14.603 1.632 20.838-.944 6.324 4.51 5.19 7.255 9.126 1.953 2.799 2.308 8.781 3.164 12.042.911 3.469 3.629 21.874 8.173 11.651 3.325-7.481 7.934-14.428 12.029-21.509 3.11-5.379.521-19.859-1.474-25.861-3.245-9.761-7.396-19.262-11.57-28.657-3.212-7.227-6.6-17.019-13.561-21.386-9.836-6.173-21.15-10.361-31.893-14.662-13.332-5.338-26.621.011-39.654 5.106-20.578 8.044-29.698 19.271-36.281 39.384-5.035 15.388-10.404 32.88-8.5 49.252 1.162 9.979 6.996 19.884 10.736 29.103 0-10.588 1.813-20.684 1.813-31.19 0-4.806-.968-9.617-.907-14.382.102-8.107 3.085-9.385 10.544-12.472M195.271 245.956l9.975 10.544h12.321l31.199-38.867M166.5 219v20.229l15.645 47.929M225.05 287.297l26.804-74.933M258.623 194.783l3.657-21.309 2.676-1.472 1.544-3.738v-29.264M157.154 200.251l-5.73-13.53-2.782-9.221h-2.722l-5.42-27.375v-8.125" stroke="#000" stroke-miterlimit="10" fill="none"/><path d="M174.053 147c0 2-4.434 2-4.434 0 0-3 4.434-3 4.434 0zM227.753 141c0 4-4.435 4-4.435 0 0-2 4.435-2 4.435 0z"/><path d="M181.971 189.803l-12.352 15.871s-13.949-13.377-15.536-17.686M180.499 209.506s4.419 11.994 10.314 11.994h14.058l14.51-2.019s9.166-1.761 8.372-12.751" stroke="#000" stroke-miterlimit="10" fill="none"/></svg>
