<svg xmlns="http://www.w3.org/2000/svg" viewBox="0 0 400 300"><path d="M33.668 277.58c2.005-11.111 4.012-22.223 6.019-33.334 1.958-10.841 9.983-10.862 20.063-15.23 17.9-7.758 39-3.94 55.75-11.929 12.262-5.845 24.521-11.689 36.781-17.534 10.334-4.928 8.815-3.141 15.225 6.355 10.265 15.206 24.023 49.811 43.012 52.732 24.623 3.789 37.668-11.125 49.484-30.24 4.377-7.081-.115-19.804 9.472-21.002 10.645-1.33 12.338 14.691 21.232 15.777 22.433 2.735 41.369 3.259 61.118 14.053 3.798 2.077 9.248 10.885 9.803 15.102l4.414 33.672M165.045 281.512l-4.49-85.905M246.453 279.264l4.514-37.82M264.631 208.59c1.486-6.444 2.976-12.889 4.461-19.332l1.992-8.631c.367-1.599 4.536 1.164 5.24-2.201 2.829-13.521 8.027-39.384-.252-39.266 0 0-1.094-10.021-1.385-14.014l-2.041-28.075c-.719-9.857-5.465-17.317-11.479-25.278-29.365-38.885-82.231-32.813-108.262 6.412-13.705 20.649-8.429 45.156-2.459 67.574-10.402-2.793-8.021 18.041-5.766 24.812 1.155 3.466 2.889 15.265 5.766 17.297 1.881 1.327 7.673-1.585 9.264 0 1.008 1.004.678 6.204.844 7.72M208.275 208.59l28.916 1.615M212.334 183.5h23" stroke="#000" stroke-miterlimit="10" fill="none"/><path stroke="#000" stroke-miterlimit="10" fill="none" d="M177.818 139.5h34.016v26.491l-33.012-.612zM230.875 138.5h37.896l-1.683 28h-34.53zM161.812 141.147l16.006-2.105M150.447 145.779"/><path d="M194.257 152c0 3-4.118 3-4.118 0 0-2 4.118-2 4.118 0zM248.332 150c0 3-4.117 3-4.117 0 0-4 4.117-4 4.117 0z"/><path d="M275.509 138.342M150.447 145.779c3.443 4.593 6.359 12.309 12.633 11.791-1.364-17.668-2.729-35.336-4.092-53.004-.898-11.626 24.049-33.89 35.269-33.266 10.296.573 20.302-.794 30.534-.8 15.648-.013 22.848 17.958 30.563 28.62 6.875 9.501 11.843 12.923 13.819 24.195 1.634 9.322 3.022 18.017 6.335 26.885l.563-11.041M190.139 220.311c6.542 11.638 11.771 22.617 27.977 20.396 18.599-2.547 28.395-2.767 42.724-14.617M185.398 135.262s9.139-5.034 20.353 1.536M242.222 135.107s14.619-8.053 21.919 1.69M211.504 139.042l19.371-.841M268.771 138.201l3.42.841" stroke="#000" stroke-miterlimit="10" fill="none"/></svg>
