
<!-- Generator: Adobe Illustrator 16.0.4, SVG Export Plug-In . SVG Version: 6.00 Build 0)  -->

<svg version="1.1" id="Layer_2" xmlns="http://www.w3.org/2000/svg" xmlns:xlink="http://www.w3.org/1999/xlink" x="0px" y="0px"
	 width="400px" height="300px" viewBox="0 0 400 300" style="enable-background:new 0 0 400 300;" xml:space="preserve">
<path style="fill:none;stroke:#000000;stroke-miterlimit:10;" d="M118.073,176.681c0,0,9.796-18.257,33.618-3.562"/>
<path style="fill:none;stroke:#000000;stroke-miterlimit:10;" d="M169.726,172.673c0,0,21.818-18.702,34.731-9.351"/>
<line style="fill:none;stroke:#000000;stroke-miterlimit:10;" x1="179.967" y1="193.602" x2="199.114" y2="218.092"/>
<polyline style="fill:none;stroke:#000000;stroke-miterlimit:10;" points="230.001,198.5 237.853,198.5 253.438,203.398 
	269.913,212.748 297.966,226.552 322.011,235.013 351.399,253.714 366.017,267.072 369.501,274.196 369.501,307 "/>
<polyline style="fill:none;stroke:#000000;stroke-miterlimit:10;" points="126.26,227.153 55.958,260.836 49.501,268.408 
	49.501,279.54 49.501,307 "/>
<circle cx="138.692" cy="178.947" r="2.099"/>
<circle cx="189.454" cy="172.713" r="2.099"/>
<path style="fill:none;stroke:#000000;stroke-miterlimit:10;" d="M146.127,227.156c0,0,38.013-1.05,45.426-2.831"/>
<polyline style="fill:none;stroke:#000000;stroke-miterlimit:10;" points="151.691,212.155 162.751,216.607 177.49,210.374 "/>
<path style="fill:none;stroke:#000000;stroke-miterlimit:10;" d="M156.367,255.495l33.396,0.445c0,0,12.468-6.234,17.812-16.03"/>
<path style="fill:none;stroke:#000000;stroke-miterlimit:10;" d="M241.359,139.778c7.24,11.999,2.843,27.753,2.046,41.489
	c-0.405,6.979-12.904,8.361-12.904,10.443c0,7.354,1.597,16.552,0,23.709c-2.725,12.216-13.274,23.029-20.944,32.26
	c-6.279,7.558-17.829,28.657-30.008,28.743c-5.519,0.039-12.174-7.182-15.839-10.464c-5.911-5.294-6.724-10.155-12.854-14.055
	c-4.72-3.003-10.033-4.386-13.399-8.946c-4.538-6.147-8.578-12.074-12.41-18.675c-3.419-5.89-5.187-10.986-7.199-17.547
	c-1.62-5.284-1.922-14.72-4.499-19.105c-10.274-17.488-10.312-35.98-10.229-55.868c0.023-5.826-1.58-14.385,2.115-19.202
	c9.469-12.342,18.689-24.71,30.939-34.498c12.897-10.304,29.998-17.916,46.318-11.298c6.99,2.835,11.351,9.969,18.612,11.063
	c16.457-5.366,29.186,12.239,34.269,25.632c2.392,6.303,6.097,12.671,5.857,19.473c-0.117,3.321,0.358,7.308-0.371,10.555
	c-1.454,6.474-2.732,3.691-7.021,8.618c-5.418,6.224-7.682,15.45-9.168,23.386c-0.441,2.362-0.168,4.88-0.168,7.273
	c0,1.029-2.546,1.304-3,0.734c-0.712-0.895,0-5.14,0-6.326c0-5.801-4.959-13.607-7.033-18.991
	c-3.232-8.391-7.41-15.99-13.111-23.048c-16.081-19.908-30.122,0.597-47.912-0.505c-3.512-0.218-6.265-3.436-10.988-3.035
	c-5.851,0.498-11.467,2.604-15.931,6.464c-6.789,5.871-10.271,14.714-11.885,23.345c-2.331,12.457-0.521,25.643-0.13,38.189"/>
</svg>
