<?xml version="1.0" encoding="iso-8859-1"?>
<!-- Generator: Adobe Illustrator 16.0.4, SVG Export Plug-In . SVG Version: 6.00 Build 0)  -->
<!DOCTYPE svg PUBLIC "-//W3C//DTD SVG 1.1//EN" "http://www.w3.org/Graphics/SVG/1.1/DTD/svg11.dtd">
<svg version="1.1" id="Layer_2" xmlns="http://www.w3.org/2000/svg" xmlns:xlink="http://www.w3.org/1999/xlink" x="0px" y="0px"
	 width="400px" height="300px" viewBox="0 0 400 300" style="enable-background:new 0 0 400 300;" xml:space="preserve">
<path style="fill:none;stroke:#000000;stroke-miterlimit:10;" d="M33.668,277.58c2.005-11.111,4.012-22.223,6.019-33.334
	c1.958-10.841,9.983-10.862,20.063-15.23c17.9-7.758,39-3.94,55.75-11.929c12.262-5.845,24.521-11.689,36.781-17.534
	c10.334-4.928,8.815-3.141,15.225,6.355c10.265,15.206,24.023,49.811,43.012,52.732c24.623,3.789,37.668-11.125,49.484-30.24
	c4.377-7.081-0.115-19.804,9.472-21.002c10.645-1.33,12.338,14.691,21.232,15.777c22.433,2.735,41.369,3.259,61.118,14.053
	c3.798,2.077,9.248,10.885,9.803,15.102c1.471,11.224,2.943,22.448,4.414,33.672"/>
<line style="fill:none;stroke:#000000;stroke-miterlimit:10;" x1="165.045" y1="281.512" x2="160.555" y2="195.607"/>
<line style="fill:none;stroke:#000000;stroke-miterlimit:10;" x1="246.453" y1="279.264" x2="250.967" y2="241.444"/>
<path style="fill:none;stroke:#000000;stroke-miterlimit:10;" d="M264.631,208.59c1.486-6.444,2.976-12.889,4.461-19.332
	c0.664-2.878,1.329-5.754,1.992-8.631c0.367-1.599,4.536,1.164,5.24-2.201c2.829-13.521,8.027-39.384-0.252-39.266
	c0,0-1.094-10.021-1.385-14.014c-0.68-9.358-1.361-18.717-2.041-28.075c-0.719-9.857-5.465-17.317-11.479-25.278
	c-29.365-38.885-82.231-32.813-108.262,6.412c-13.705,20.649-8.429,45.156-2.459,67.574c-10.402-2.793-8.021,18.041-5.766,24.812
	c1.155,3.466,2.889,15.265,5.766,17.297c1.881,1.327,7.673-1.585,9.264,0c1.008,1.004,0.678,6.204,0.844,7.72"/>
<line style="fill:none;stroke:#000000;stroke-miterlimit:10;" x1="208.275" y1="208.59" x2="237.191" y2="210.205"/>
<line style="fill:none;stroke:#000000;stroke-miterlimit:10;" x1="212.334" y1="183.5" x2="235.334" y2="183.5"/>
<polygon style="fill:none;stroke:#000000;stroke-miterlimit:10;" points="177.818,139.5 211.834,139.5 211.834,165.991 
	178.822,165.379 "/>
<polygon style="fill:none;stroke:#000000;stroke-miterlimit:10;" points="230.875,138.5 268.771,138.5 267.088,166.5 232.558,166.5 
	"/>
<line style="fill:none;stroke:#000000;stroke-miterlimit:10;" x1="161.812" y1="141.147" x2="177.818" y2="139.042"/>
<path style="fill:none;stroke:#000000;stroke-miterlimit:10;" d="M150.447,145.779"/>
<path d="M194.257,152c0,3-4.118,3-4.118,0C190.139,150,194.257,150,194.257,152z"/>
<path d="M248.332,150c0,3-4.117,3-4.117,0C244.215,146,248.332,146,248.332,150z"/>
<path style="fill:none;stroke:#000000;stroke-miterlimit:10;" d="M275.509,138.342"/>
<path style="fill:none;stroke:#000000;stroke-miterlimit:10;" d="M150.447,145.779c3.443,4.593,6.359,12.309,12.633,11.791
	c-1.364-17.668-2.729-35.336-4.092-53.004c-0.898-11.626,24.049-33.89,35.269-33.266c10.296,0.573,20.302-0.794,30.534-0.8
	c15.648-0.013,22.848,17.958,30.563,28.62c6.875,9.501,11.843,12.923,13.819,24.195c1.634,9.322,3.022,18.017,6.335,26.885
	l0.563-11.041"/>
<path style="fill:none;stroke:#000000;stroke-miterlimit:10;" d="M190.139,220.311c6.542,11.638,11.771,22.617,27.977,20.396
	c18.599-2.547,28.395-2.767,42.724-14.617"/>
<path style="fill:none;stroke:#000000;stroke-miterlimit:10;" d="M185.398,135.262c0,0,9.139-5.034,20.353,1.536"/>
<path style="fill:none;stroke:#000000;stroke-miterlimit:10;" d="M242.222,135.107c0,0,14.619-8.053,21.919,1.69"/>
<line style="fill:none;stroke:#000000;stroke-miterlimit:10;" x1="211.504" y1="139.042" x2="230.875" y2="138.201"/>
<line style="fill:none;stroke:#000000;stroke-miterlimit:10;" x1="268.771" y1="138.201" x2="272.191" y2="139.042"/>
</svg>
