<svg xmlns="http://www.w3.org/2000/svg" viewBox="0 0 400 300"><path d="M118.073 176.681s9.796-18.257 33.618-3.562M169.726 172.673s21.818-18.702 34.731-9.351M179.967 193.602l19.147 24.49M230.001 198.5h7.852l15.585 4.898 16.475 9.35 28.053 13.804 24.045 8.461 29.388 18.701 14.618 13.358 3.484 7.124v32.804M126.26 227.153l-70.302 33.683-6.457 7.572v38.592" stroke="#000" stroke-miterlimit="10" fill="none"/><circle cx="138.692" cy="178.947" r="2.099"/><circle cx="189.454" cy="172.713" r="2.099"/><path d="M146.127 227.156s38.013-1.05 45.426-2.831M151.691 212.155l11.06 4.452 14.739-6.233M156.367 255.495l33.396.445s12.468-6.234 17.812-16.03M241.359 139.778c7.24 11.999 2.843 27.753 2.046 41.489-.405 6.979-12.904 8.361-12.904 10.443 0 7.354 1.597 16.552 0 23.709-2.725 12.216-13.274 23.029-20.944 32.26-6.279 7.558-17.829 28.657-30.008 28.743-5.519.039-12.174-7.182-15.839-10.464-5.911-5.294-6.724-10.155-12.854-14.055-4.72-3.003-10.033-4.386-13.399-8.946-4.538-6.147-8.578-12.074-12.41-18.675-3.419-5.89-5.187-10.986-7.199-17.547-1.62-5.284-1.922-14.72-4.499-19.105-10.274-17.488-10.312-35.98-10.229-55.868.023-5.826-1.58-14.385 2.115-19.202 9.469-12.342 18.689-24.71 30.939-34.498 12.897-10.304 29.998-17.916 46.318-11.298 6.99 2.835 11.351 9.969 18.612 11.063 16.457-5.366 29.186 12.239 34.269 25.632 2.392 6.303 6.097 12.671 5.857 19.473-.117 3.321.358 7.308-.371 10.555-1.454 6.474-2.732 3.691-7.021 8.618-5.418 6.224-7.682 15.45-9.168 23.386-.441 2.362-.168 4.88-.168 7.273 0 1.029-2.546 1.304-3 .734-.712-.895 0-5.14 0-6.326 0-5.801-4.959-13.607-7.033-18.991-3.232-8.391-7.41-15.99-13.111-23.048-16.081-19.908-30.122.597-47.912-.505-3.512-.218-6.265-3.436-10.988-3.035-5.851.498-11.467 2.604-15.931 6.464-6.789 5.871-10.271 14.714-11.885 23.345-2.331 12.457-.521 25.643-.13 38.189" stroke="#000" stroke-miterlimit="10" fill="none"/></svg>
