<svg xmlns="http://www.w3.org/2000/svg" width="400" height="300" viewBox="0 0 400 300"><path stroke="#000" stroke-miterlimit="10" fill="none" d="M246.811 218.719l21.622 5.46 29.865 13.946 24.005 8.375h13.485l31.216 60.498M168.501 279v-54.932c-12.702 1.239-26.263 7.96-38.185 12.125-16.237 5.674-32.416 11.513-48.567 17.426-4.773 1.747-26.248 2.703-26.248 8.106 0 12.83-5.68 24.328-9.643 36.498M224.97 300.002l5.277-21.694 4.104-14.248 9.38-12.725 3.08-29.903 5.716-26.386 5.278 4.104 4.69-1.172 4.692-6.451 3.518-16.711M143.904 162.722c0 1.525-2.553 3.874-2.931 5.353-.417 1.633-.542 5.145 0 6.74.387 1.139 2.312 2.783 2.933 3.813 1.319 2.192 2.903 7.134 4.251 9.308.981 1.584 3.01 4.875 4.691 5.678.595.283 2.638-.113 2.638-.113h3.518s-1.467 4.367 0 7.297c1.467 2.932 3.227 8.852 3.227 8.852l4.104 9.042 2.784 5.364M182.753 212.05s15.831 23.453 42.217 0M169.118 155.76s21.257-8.795 22.43 0M216.175 162.722s19.056-15.906 30.636 0M200.929 203.841s14.658 1.389 15.246-10.445M169.118 223.932l22.43 27.568h18.469l30.197-22.213"/><path d="M143.632 162.722c-6.221-9.444-5.347-23.111-4.235-33.831.654-6.315 2.082-7.932-.998-12.549-13.738-20.598 24.673-46.206 39.488-52.423 7.85-3.293 16.165-5.766 24.589-7.062 5.438-.836 13.72 4.446 18.737 6.326 12.362 4.633 22.709 13.753 33.652 21.043 4.058 2.703 32.718 16.801 29.646 24.139-3.065 7.326-10.553-9.184-7.524.907 2.506 8.353 5.012 16.707 7.519 25.06 1.292 4.308-1.454 11.525-2.155 15.84l-3.99 24.566c-.188 1.148-7.218.762-8.009.762-3.617 0-5.145 2.037-8.002 4.307-7.138 5.67-5.521-9.731-5.904-12.757-.909-7.157-1.087-13.599-4.45-19.98-1.569-2.978-3.062-5.991-4.566-9.003-1.839-3.684-5.869-1.89-7.928-4.589-3.617-4.744 3.883-13.977-8.363-12.898-5.14.453-12.95 7.366-17.525 9.968l11.25-12.693c-14.984 1.112-27.636 2.292-42.361 5.948v-6.155c-9.478 2.777-9 2.417-9 12.313-1.237-1.503-2.973-2.599-4.206-4.105-7.262 15.129-14.794 28.496-14.794 45.44-3.625-2.858-7.248-5.716-10.871-8.574z" stroke="#000" stroke-miterlimit="10" fill="none"/><ellipse cx="181.308" cy="166.062" rx="3.106" ry="2.511"/><ellipse cx="230.727" cy="169.271" rx="3.105" ry="2.514"/><path d="M171.317 165.88s13.486-11.532 17.884 2.513M221.158 168.393s13.484-10.777 17.003 2.513" stroke="#000" stroke-miterlimit="10" fill="none"/></svg>