<?xml version="1.0" encoding="iso-8859-1"?>
<!-- Generator: Adobe Illustrator 16.0.4, SVG Export Plug-In . SVG Version: 6.00 Build 0)  -->
<!DOCTYPE svg PUBLIC "-//W3C//DTD SVG 1.1//EN" "http://www.w3.org/Graphics/SVG/1.1/DTD/svg11.dtd">
<svg version="1.1" id="Layer_2" xmlns="http://www.w3.org/2000/svg" xmlns:xlink="http://www.w3.org/1999/xlink" x="0px" y="0px"
	 width="400px" height="300px" viewBox="0 0 400 300" style="enable-background:new 0 0 400 300;" xml:space="preserve">
<polyline style="fill:none;stroke:#000000;stroke-miterlimit:10;" points="246.811,218.719 268.433,224.179 298.298,238.125 
	322.303,246.5 329.632,246.5 335.788,246.5 367.004,306.998 "/>
<path style="fill:none;stroke:#000000;stroke-miterlimit:10;" d="M168.501,279c0-18.311,0-36.621,0-54.932
	c-12.702,1.239-26.263,7.96-38.185,12.125c-16.237,5.674-32.416,11.513-48.567,17.426c-4.773,1.747-26.248,2.703-26.248,8.106
	c0,12.83-5.68,24.328-9.643,36.498"/>
<polyline style="fill:none;stroke:#000000;stroke-miterlimit:10;" points="224.97,300.002 230.247,278.308 234.351,264.06 
	243.731,251.335 246.811,221.432 252.527,195.046 257.805,199.15 262.495,197.978 267.187,191.527 270.705,174.816 "/>
<path style="fill:none;stroke:#000000;stroke-miterlimit:10;" d="M143.904,162.722c0,1.525-2.553,3.874-2.931,5.353
	c-0.417,1.633-0.542,5.145,0,6.74c0.387,1.139,2.312,2.783,2.933,3.813c1.319,2.192,2.903,7.134,4.251,9.308
	c0.981,1.584,3.01,4.875,4.691,5.678c0.595,0.283,2.638-0.113,2.638-0.113h3.518c0,0-1.467,4.367,0,7.297
	c1.467,2.932,3.227,8.852,3.227,8.852l4.104,9.042l2.784,5.364"/>
<path style="fill:none;stroke:#000000;stroke-miterlimit:10;" d="M182.753,212.05c0,0,15.831,23.453,42.217,0"/>
<path style="fill:none;stroke:#000000;stroke-miterlimit:10;" d="M169.118,155.76c0,0,21.257-8.795,22.43,0"/>
<path style="fill:none;stroke:#000000;stroke-miterlimit:10;" d="M216.175,162.722c0,0,19.056-15.906,30.636,0"/>
<path style="fill:none;stroke:#000000;stroke-miterlimit:10;" d="M200.929,203.841c0,0,14.658,1.389,15.246-10.445"/>
<polyline style="fill:none;stroke:#000000;stroke-miterlimit:10;" points="169.118,223.932 191.548,251.5 210.017,251.5 
	240.214,229.287 "/>
<path style="fill:none;stroke:#000000;stroke-miterlimit:10;" d="M143.632,162.722c-6.221-9.444-5.347-23.111-4.235-33.831
	c0.654-6.315,2.082-7.932-0.998-12.549c-13.738-20.598,24.673-46.206,39.488-52.423c7.85-3.293,16.165-5.766,24.589-7.062
	c5.438-0.836,13.72,4.446,18.737,6.326c12.362,4.633,22.709,13.753,33.652,21.043c4.058,2.703,32.718,16.801,29.646,24.139
	c-3.065,7.326-10.553-9.184-7.524,0.907c2.506,8.353,5.012,16.707,7.519,25.06c1.292,4.308-1.454,11.525-2.155,15.84
	c-1.33,8.189-2.66,16.377-3.99,24.566c-0.188,1.148-7.218,0.762-8.009,0.762c-3.617,0-5.145,2.037-8.002,4.307
	c-7.138,5.67-5.521-9.731-5.904-12.757c-0.909-7.157-1.087-13.599-4.45-19.98c-1.569-2.978-3.062-5.991-4.566-9.003
	c-1.839-3.684-5.869-1.89-7.928-4.589c-3.617-4.744,3.883-13.977-8.363-12.898c-5.14,0.453-12.95,7.366-17.525,9.968
	c3.75-4.231,7.5-8.462,11.25-12.693c-14.984,1.112-27.636,2.292-42.361,5.948c0-2.052,0-4.103,0-6.155
	c-9.478,2.777-9,2.417-9,12.313c-1.237-1.503-2.973-2.599-4.206-4.105c-7.262,15.129-14.794,28.496-14.794,45.44
	C150.878,168.438,147.255,165.58,143.632,162.722z"/>
<ellipse cx="181.308" cy="166.062" rx="3.106" ry="2.511"/>
<ellipse cx="230.727" cy="169.271" rx="3.105" ry="2.514"/>
<path style="fill:none;stroke:#000000;stroke-miterlimit:10;" d="M171.317,165.88c0,0,13.486-11.532,17.884,2.513"/>
<path style="fill:none;stroke:#000000;stroke-miterlimit:10;" d="M221.158,168.393c0,0,13.484-10.777,17.003,2.513"/>
</svg>
