<svg xmlns="http://www.w3.org/2000/svg" width="400" height="300" viewBox="0 0 400 300"><path d="M56.666 309.667c0-7.991-5.548-35.776 1.911-39.947 8.81-4.926 17.316-9.957 26.642-13.79 19.951-8.201 36.073-17.66 54.218-29.43 7.424 14.619 15.551 39.582 33.664 41.781 18.096 2.197 37.208-9.021 48.034-22.892 10.896-13.96 11.61-35.737 11.614-53.169.001-3.06-.917-7.777.003-10.721 1.296-4.149 3.747-4.512 3.747-9.589 0-6.456 3.688-23.371-5.5-23.911" stroke="#000" stroke-miterlimit="10" fill="none"/><path d="M122.249 110.5s-3.75 24.25 1.5 48.5" fill="none"/><path d="M168.249 216.5s25.252.25 31.751-4.75M171.249 198.5l4.75-4 5.25 2 5-3.25 5.25 2.625M139.521 226.5c-4.219-13.818-8.877-26.206-14.773-39.041-2.674-5.821-2.389-13.085-2.439-19.343-.035-4.343 3.026-5.396 1.907-9.114-7.642-25.372-4.25-47.95 13.294-68.168 18.15-20.917 46.312-30.375 69.812-12.095 11.638 9.053 20.76 21.445 25.077 35.613 4.563 14.973 2.326 25.214-4.65 38.647-2.582-12.323-3.729-37.548-14.623-46.26-12.085-9.666-32.315 1.163-41.907 9.26-1.689-6.225-2.341-11.087-10.083-10.32-8.676.858-10.436 5.312-15.49 12.208-2.841 3.876-12.993 11.08-13.993 15.072-2.35 9.379-4.209 18.954-6.485 28.374" stroke="#000" stroke-miterlimit="10" fill="none"/><path d="M143.999 193.5h12s12.084-3.166 15.167-10.499l3.333-10.667v-11.334l-6.15-2.34-25.159 2.041-5.524 1.3c-.001 0 0 31.499 6.333 31.499zM137.999 162.5l-14.25-3.5M141.998 150.497s21.166-16.5 24.833 0M188.498 150.497s13.334-16.167 27.167-3.667M174.499 161c9.828-.779 18.648-4.186 28.758-5.279 17.109-1.853 22.023 11.046 16.455 26.293-3.089 8.462-15.899 5.355-22.797 5.068-8.047-.335-14.488-19.28-14.416-26.082M212.51 156.421l15.238-3.421M230.599 216.502l102.4 27.998 9.5 6 14.833 59.167M164.666 245.834s5.668 14.999 14.834 14.333l11.833.021s13.833-2.021 17.5-16.188" stroke="#000" stroke-miterlimit="10" fill="none"/><path d="M158.685 169c0 3-4.889 3-4.889 0s4.889-3 4.889 0zM204.896 162c0 4-4.89 4-4.89 0 0-3 4.89-3 4.89 0z"/><path stroke="#000" stroke-miterlimit="10" fill="none" d="M158.417 260.188l6.249 18.478M227.748 234l-18.915 44.666"/></svg>