<?xml version="1.0" encoding="iso-8859-1"?>
<!-- Generator: Adobe Illustrator 16.0.4, SVG Export Plug-In . SVG Version: 6.00 Build 0)  -->
<!DOCTYPE svg PUBLIC "-//W3C//DTD SVG 1.1//EN" "http://www.w3.org/Graphics/SVG/1.1/DTD/svg11.dtd">
<svg version="1.1" id="Layer_2" xmlns="http://www.w3.org/2000/svg" xmlns:xlink="http://www.w3.org/1999/xlink" x="0px" y="0px"
	 width="400px" height="300px" viewBox="0 0 400 300" style="enable-background:new 0 0 400 300;" xml:space="preserve">
<path style="fill:none;stroke:#000000;stroke-miterlimit:10;" d="M56.666,309.667c0-7.991-5.548-35.776,1.911-39.947
	c8.81-4.926,17.316-9.957,26.642-13.79c19.951-8.201,36.073-17.66,54.218-29.43c7.424,14.619,15.551,39.582,33.664,41.781
	c18.096,2.197,37.208-9.021,48.034-22.892c10.896-13.96,11.61-35.737,11.614-53.169c0.001-3.06-0.917-7.777,0.003-10.721
	c1.296-4.149,3.747-4.512,3.747-9.589c0-6.456,3.688-23.371-5.5-23.911"/>
<path style="fill:none;" d="M122.249,110.5c0,0-3.75,24.25,1.5,48.5"/>
<path style="fill:none;stroke:#000000;stroke-miterlimit:10;" d="M168.249,216.5c0,0,25.252,0.25,31.751-4.75"/>
<polyline style="fill:none;stroke:#000000;stroke-miterlimit:10;" points="171.249,198.5 175.999,194.5 181.249,196.5 
	186.249,193.25 191.499,195.875 "/>
<path style="fill:none;stroke:#000000;stroke-miterlimit:10;" d="M139.521,226.5c-4.219-13.818-8.877-26.206-14.773-39.041
	c-2.674-5.821-2.389-13.085-2.439-19.343c-0.035-4.343,3.026-5.396,1.907-9.114c-7.642-25.372-4.25-47.95,13.294-68.168
	c18.15-20.917,46.312-30.375,69.812-12.095c11.638,9.053,20.76,21.445,25.077,35.613c4.563,14.973,2.326,25.214-4.65,38.647
	c-2.582-12.323-3.729-37.548-14.623-46.26c-12.085-9.666-32.315,1.163-41.907,9.26c-1.689-6.225-2.341-11.087-10.083-10.32
	c-8.676,0.858-10.436,5.312-15.49,12.208c-2.841,3.876-12.993,11.08-13.993,15.072c-2.35,9.379-4.209,18.954-6.485,28.374"/>
<path style="fill:none;stroke:#000000;stroke-miterlimit:10;" d="M143.999,193.5h12c0,0,12.084-3.166,15.167-10.499
	s3.333-10.667,3.333-10.667V161l-6.15-2.34l-25.159,2.041l-5.524,1.3C137.665,162.001,137.666,193.5,143.999,193.5z"/>
<line style="fill:none;stroke:#000000;stroke-miterlimit:10;" x1="137.999" y1="162.5" x2="123.749" y2="159"/>
<path style="fill:none;stroke:#000000;stroke-miterlimit:10;" d="M141.998,150.497c0,0,21.166-16.5,24.833,0"/>
<path style="fill:none;stroke:#000000;stroke-miterlimit:10;" d="M188.498,150.497c0,0,13.334-16.167,27.167-3.667"/>
<path style="fill:none;stroke:#000000;stroke-miterlimit:10;" d="M174.499,161c9.828-0.779,18.648-4.186,28.758-5.279
	c17.109-1.853,22.023,11.046,16.455,26.293c-3.089,8.462-15.899,5.355-22.797,5.068c-8.047-0.335-14.488-19.28-14.416-26.082"/>
<line style="fill:none;stroke:#000000;stroke-miterlimit:10;" x1="212.51" y1="156.421" x2="227.748" y2="153"/>
<polyline style="fill:none;stroke:#000000;stroke-miterlimit:10;" points="230.599,216.502 332.999,244.5 342.499,250.5 
	357.332,309.667 "/>
<path style="fill:none;stroke:#000000;stroke-miterlimit:10;" d="M164.666,245.834c0,0,5.668,14.999,14.834,14.333
	s11.833,0.021,11.833,0.021s13.833-2.021,17.5-16.188"/>
<path d="M158.685,169c0,3-4.889,3-4.889,0S158.685,166,158.685,169z"/>
<path d="M204.896,162c0,4-4.89,4-4.89,0C200.006,159,204.896,159,204.896,162z"/>
<line style="fill:none;stroke:#000000;stroke-miterlimit:10;" x1="158.417" y1="260.188" x2="164.666" y2="278.666"/>
<line style="fill:none;stroke:#000000;stroke-miterlimit:10;" x1="227.748" y1="234" x2="208.833" y2="278.666"/>
</svg>
