
<!-- Generator: Adobe Illustrator 16.0.4, SVG Export Plug-In . SVG Version: 6.00 Build 0)  -->

<svg version="1.1" id="Layer_2" xmlns="http://www.w3.org/2000/svg" xmlns:xlink="http://www.w3.org/1999/xlink" x="0px" y="0px"
	 width="400px" height="300px" viewBox="0 0 400 300" style="enable-background:new 0 0 400 300;" xml:space="preserve">
<polyline style="fill:none;stroke:#000000;stroke-miterlimit:10;" points="45.5,312 45.5,270.14 49.066,262.117 103.018,235.412 
	139.606,221.769 157.591,211.847 172.647,243.475 181.5,268.279 181.5,306 "/>
<polyline style="fill:none;stroke:#000000;stroke-miterlimit:10;" points="222.707,307.97 229.527,257.737 238.83,219.289 
	246.271,216.188 275.418,227.738 333.712,253.396 357.278,268.9 360.999,307.97 "/>
<path style="fill:none;stroke:#000000;stroke-miterlimit:10;" d="M148.67,174.481l1.362-24.418l8.559-2.75l3.909-1.512v-4.031
	l3.718-1.55l7.282-10.543v6.512v7.442l2.078,1.87h3.408l8.514-10.242v10.232l7.451,0.93l8.789-0.31l4.76-4.341v-3.721l5.323,7.752
	l9.041,2.171l5.636-6.512v12.403l7.319,4.341l4.681,8.682v9.302l3.12,6.822l4.429-4.135l4.427-5.375h3.024v4.549l3.992,0.93
	c0,0,8.429-16.743,9.98-31.007c1.55-14.264,0.029-21.085,0.029-21.085s-3.396-31.627-11.148-37.208
	c-7.752-5.582-30.071-26.356-47.125-30.077c-17.053-3.721-47.438,5.271-53.328,9.302c-5.891,4.031-24.494,31.627-25.114,33.798
	c-0.622,2.17-6.511,20.775-6.511,23.876c0,3.1,1.242,13.953,7.133,22.015C139.299,156.653,148.67,174.481,148.67,174.481z"/>
<path style="fill:none;stroke:#000000;stroke-miterlimit:10;" d="M198.248,166.576c0,0,1.206-11.163,30.351-6.822"/>
<path style="fill:none;stroke:#000000;stroke-miterlimit:10;" d="M152.94,158.752c0,0,23.875-5.199,28.372,7.824"/>
<polyline style="fill:none;stroke:#000000;stroke-miterlimit:10;" points="181.312,200.839 188.521,205.258 200.381,199.676 "/>
<polyline style="fill:none;stroke:#000000;stroke-miterlimit:10;" points="148.67,174.481 145.731,183.01 149.917,202.467 
	155.731,207.351 157.591,211.847 "/>
<polyline style="fill:none;stroke:#000000;stroke-miterlimit:10;" points="257.928,178.512 247.823,203.5 242.241,203.5 
	240.381,196.588 238.83,219.225 "/>
<polyline style="fill:none;stroke:#000000;stroke-miterlimit:10;" points="172.01,229.908 181.312,243.861 206.195,247.117 
	228.599,229.908 "/>
<path style="fill:none;stroke:#000000;stroke-miterlimit:10;" d="M176.428,217.351c0,0,22.093,1.938,34.418,0"/>
<circle cx="173.083" cy="169.719" r="2.192"/>
<circle cx="213.082" cy="168.788" r="2.192"/>
</svg>
