<svg xmlns="http://www.w3.org/2000/svg" viewBox="0 0 400 300"><path stroke="#000" stroke-miterlimit="10" fill="none" d="M45.5 312v-41.86l3.566-8.023 53.952-26.705 36.588-13.643 17.985-9.922 15.056 31.628 8.853 24.804v37.721M222.707 307.97l6.82-50.233 9.303-38.448 7.441-3.101 29.147 11.55 58.294 25.658 23.566 15.504 3.721 39.07"/><path d="M148.67 174.481l1.362-24.418 8.559-2.75 3.909-1.512v-4.031l3.718-1.55 7.282-10.543v13.954l2.078 1.87h3.408l8.514-10.242v10.232l7.451.93 8.789-.31 4.76-4.341v-3.721l5.323 7.752 9.041 2.171 5.636-6.512v12.403l7.319 4.341 4.681 8.682v9.302l3.12 6.822 4.429-4.135 4.427-5.375h3.024v4.549l3.992.93s8.429-16.743 9.98-31.007c1.55-14.264.029-21.085.029-21.085s-3.396-31.627-11.148-37.208c-7.752-5.582-30.071-26.356-47.125-30.077-17.053-3.721-47.438 5.271-53.328 9.302-5.891 4.031-24.494 31.627-25.114 33.798-.622 2.17-6.511 20.775-6.511 23.876 0 3.1 1.242 13.953 7.133 22.015 5.891 8.06 15.262 25.888 15.262 25.888zM198.248 166.576s1.206-11.163 30.351-6.822M152.94 158.752s23.875-5.199 28.372 7.824M181.312 200.839l7.209 4.419 11.86-5.582M148.67 174.481l-2.939 8.529 4.186 19.457 5.814 4.884 1.86 4.496M257.928 178.512l-10.105 24.988h-5.582l-1.86-6.912-1.551 22.637M172.01 229.908l9.302 13.953 24.883 3.256 22.404-17.209M176.428 217.351s22.093 1.938 34.418 0" stroke="#000" stroke-miterlimit="10" fill="none"/><circle cx="173.083" cy="169.719" r="2.192"/><circle cx="213.082" cy="168.788" r="2.192"/></svg>
