<?xml version="1.0" encoding="iso-8859-1"?>
<!-- Generator: Adobe Illustrator 16.0.4, SVG Export Plug-In . SVG Version: 6.00 Build 0)  -->
<!DOCTYPE svg PUBLIC "-//W3C//DTD SVG 1.1//EN" "http://www.w3.org/Graphics/SVG/1.1/DTD/svg11.dtd">
<svg version="1.1" id="Layer_2" xmlns="http://www.w3.org/2000/svg" xmlns:xlink="http://www.w3.org/1999/xlink" x="0px" y="0px"
	 width="400px" height="300px" viewBox="0 0 400 300" style="enable-background:new 0 0 400 300;" xml:space="preserve">
<path style="fill:none;stroke:#000000;stroke-miterlimit:10;" d="M40.57,309.467l30.388-33.735l66.604-26.031l19.938-15.365V222
	l4.75,4.335c0,0,25.75,24.915,57.75,5.415"/>
<path style="fill:none;stroke:#000000;stroke-miterlimit:10;" d="M239.084,324.513l8.583-26.178l-7.334-72L271,257.669
	l50.667,21.333c0,0,21.332,2.001,30.666,24.667s6.156,14.611,6.156,14.611"/>
<path style="fill:none;stroke:#000000;stroke-miterlimit:10;" d="M246,199.75c0,0-9.917,25-26,32"/>
<path style="fill:none;stroke:#000000;stroke-miterlimit:10;" d="M186.25,65.75c0-6.558-18.152-6.896-24.5-5.25
	c-7.407,1.921-22.75,5.384-24.5,20.134"/>
<path style="fill:none;stroke:#000000;stroke-miterlimit:10;" d="M119.75,103.729c0,0,5.25-26.229,22.5-22.979"/>
<path style="fill:none;stroke:#000000;stroke-miterlimit:10;" d="M113.25,93c0,0,8.5,18.5,17.75,18.5"/>
<path style="fill:none;stroke:#000000;stroke-miterlimit:10;" d="M119.75,103.729c0,0-10.75,20.021-3.25,45.771"/>
<path style="fill:none;stroke:#000000;stroke-miterlimit:10;" d="M108.25,154.5c0,0,13.334,22.75,18.542,23.75"/>
<path style="fill:none;stroke:#000000;stroke-miterlimit:10;" d="M144,198c0,0,5.5,20.75,13.5,24"/>
<path style="fill:none;stroke:#000000;stroke-miterlimit:10;" d="M115,176.5c0,0,18.75,52.25,22.25,53.25s4-7.75,4-7.75l16.25,9.75"
	/>
<path style="fill:none;stroke:#000000;stroke-miterlimit:10;" d="M168.75,111.073c0,0,32.75,9.656,42-7.344"/>
<path style="fill:none;stroke:#000000;stroke-miterlimit:10;" d="M248.035,234.205c0,0,45.215-43.705,25.465-65.455"/>
<path style="fill:none;stroke:#000000;stroke-miterlimit:10;" d="M170.265,59.667c0,0,34.235-23.417,56.985,11.833
	c0,0,45.75-5.5,45.75,64"/>
<path style="fill:none;stroke:#000000;stroke-miterlimit:10;" d="M147.25,142c0,0,3.25-11,29.75-3.25"/>
<path style="fill:none;stroke:#000000;stroke-miterlimit:10;" d="M205.5,137.992c0,0,18-7.242,27.5,4.508"/>
<path style="fill:none;stroke:#000000;stroke-miterlimit:10;" d="M154.5,153.5c0,0,12-10.5,20.5,0"/>
<path style="fill:none;stroke:#000000;stroke-miterlimit:10;" d="M207.75,151.5c0,0,12.5-12.75,25.25,2"/>
<path style="fill:none;stroke:#000000;stroke-miterlimit:10;" d="M133.75,181c0,0-5.25,17,11.644,21.535"/>
<path style="fill:none;stroke:#000000;stroke-miterlimit:10;" d="M140.75,189.001c0,0-7.127-45.032-1.563-53.017"/>
<path style="fill:none;stroke:#000000;stroke-miterlimit:10;" d="M172.5,205.25c0,0,34,2,40.25,0"/>
<path style="fill:none;stroke:#000000;stroke-miterlimit:10;" d="M139.187,135.984c0,0,26.813-13.338,29.563-24.911"/>
<path style="fill:none;stroke:#000000;stroke-miterlimit:10;" d="M210.75,103.729c0,0,28.5,36.771,36.25,38.771"/>
<path style="fill:none;stroke:#000000;stroke-miterlimit:10;" d="M246,146.383c0,0-1.93,37.367,2.035,38.617"/>
<path style="fill:none;stroke:#000000;stroke-miterlimit:10;" d="M257.25,180.5c0,0-2.715,18.75-11.25,19.25"/>
<path style="fill:none;stroke:#000000;stroke-miterlimit:10;" d="M180.573,185c0,0,4.927-2.25,5.677,0"/>
<path style="fill:none;stroke:#000000;stroke-miterlimit:10;" d="M197.25,185c0,0,3.25-2,4.5,0"/>
<circle cx="219.25" cy="150.751" r="3.25"/>
<circle cx="165.25" cy="153.751" r="3.25"/>
<line style="fill:none;stroke:#000000;stroke-miterlimit:10;" x1="248.035" y1="185" x2="257.25" y2="181"/>
<path style="fill:none;stroke:#000000;stroke-miterlimit:10;" d="M285,139.143c-3,22.393-17.25-0.15-17.25-0.15"/>
<path style="fill:none;stroke:#000000;stroke-miterlimit:10;" d="M267.75,167.5"/>
<path style="fill:none;stroke:#000000;stroke-miterlimit:10;" d="M264.5,166.375c0,0,20.074-5.375,22.287-16.875"/>
<line style="fill:none;stroke:#000000;stroke-miterlimit:10;" x1="237.834" y1="215.75" x2="240.333" y2="226.335"/>
<polyline style="fill:none;stroke:#000000;stroke-miterlimit:10;" points="157.5,234.335 162.125,295.5 175,319.783 "/>
</svg>
