<svg xmlns="http://www.w3.org/2000/svg" width="400" height="300" viewBox="0 0 400 300"><path d="M40.57 309.467l30.388-33.735 66.604-26.031 19.938-15.365v-12.336l4.75 4.335s25.75 24.915 57.75 5.415M239.084 324.513l8.583-26.178-7.334-72 30.667 31.334 50.667 21.333s21.332 2.001 30.666 24.667l6.156 14.611M246 199.75s-9.917 25-26 32M186.25 65.75c0-6.558-18.152-6.896-24.5-5.25-7.407 1.921-22.75 5.384-24.5 20.134M119.75 103.729s5.25-26.229 22.5-22.979M113.25 93s8.5 18.5 17.75 18.5M119.75 103.729s-10.75 20.021-3.25 45.771M108.25 154.5s13.334 22.75 18.542 23.75M144 198s5.5 20.75 13.5 24M115 176.5s18.75 52.25 22.25 53.25l4-7.75 16.25 9.75M168.75 111.073s32.75 9.656 42-7.344M248.035 234.205s45.215-43.705 25.465-65.455M170.265 59.667s34.235-23.417 56.985 11.833c0 0 45.75-5.5 45.75 64M147.25 142s3.25-11 29.75-3.25M205.5 137.992s18-7.242 27.5 4.508M154.5 153.5s12-10.5 20.5 0M207.75 151.5s12.5-12.75 25.25 2M133.75 181s-5.25 17 11.644 21.535M140.75 189.001s-7.127-45.032-1.563-53.017M172.5 205.25s34 2 40.25 0M139.187 135.984s26.813-13.338 29.563-24.911M210.75 103.729s28.5 36.771 36.25 38.771M246 146.383s-1.93 37.367 2.035 38.617M257.25 180.5s-2.715 18.75-11.25 19.25M180.573 185s4.927-2.25 5.677 0M197.25 185s3.25-2 4.5 0" stroke="#000" stroke-miterlimit="10" fill="none"/><circle cx="219.25" cy="150.751" r="3.25"/><circle cx="165.25" cy="153.751" r="3.25"/><path stroke="#000" stroke-miterlimit="10" fill="none" d="M248.035 185l9.215-4M285 139.143c-3 22.393-17.25-.15-17.25-.15M267.75 167.5M264.5 166.375s20.074-5.375 22.287-16.875M237.834 215.75l2.499 10.585M157.5 234.335l4.625 61.165 12.875 24.283"/></svg>