<svg xmlns="http://www.w3.org/2000/svg" width="400" height="300" viewBox="0 0 400 300"><path d="M59.002 304.374s6.31-58.91 27.459-64.198c21.149-5.287 42.315-11.236 42.315-11.236l37.408-6.719.248 10.024-2.974 13.219 1.157 14.275-1.538 13.747M351.888 307.001s-.528-33.515-5.817-36.687c-5.287-3.173-101.516-42.827-102.574-56.575 0 0 7.931 37.012-7.931 59.747M199.875 155.05s21.414-6.081 29.875 1.587M204.634 161.658s12.955-7.932 20.621 2.379M157.048 154.699s16.391-9.074 25.643 0M176.875 213.739s31.195 2.908 34.897 0" stroke="#000" stroke-miterlimit="10" fill="none"/><path d="M187.714 110.635s-2.007-2.319-9.252-3.172c-21.11-2.484-18.507 18.506-18.507 18.506s-1.586 6.609-2.114 13.483c-.53 6.874-3.172 10.046-3.172 10.046l-.794 3.265-2.643 1.937s1.321 4.052 0 7.752c-1.323 3.701-5.311-1.06-5.311-1.06l-.421-1.319v-5.552s-14.584-24.586-.043-46 22.188-36.219 38.05-41.771c15.862-5.552 31.711.529 33.563 4.23 1.851 3.701 3.167 1.586 3.167 1.586 25.379-1.586 20.354 8.195 27.756 12.689 7.401 4.494 17.826 36.001 16.918 48.908-.337 4.774-4.759 12.954-5.816 18.242-1.058 5.287-2.38 6.08-2.38 6.08s-.791.046-1.851-2.908c-1.089-3.037-3.438 2.644-3.438 2.644l-2.644 5.815-3.172 2.909-1.321-2.909-3.437-10.045s-1.321-4.495-5.287-12.69c-3.965-8.196-1.321-8.988-1.851-21.149-.528-12.161-17.184-10.311-17.184-10.311s-12.425-1.322-17.448-1.058l-9.451 2.115-1.917-.263zM147.5 162v21.866s1.202 2.643 3.318 2.379c2.116-.264 2.189-.264 2.189-.264s7.294 30.728 13.241 36.015M160.219 162.715s13.695-10.134 20.33 1.146" stroke="#000" stroke-miterlimit="10" fill="none"/><circle cx="172.105" cy="163.28" r="1.869"/><circle cx="214.933" cy="164.073" r="1.869"/><path d="M169.869 228.279l12.821 17.052s14.145 9.518 29.082 0c14.936-9.517 16.125-12.293 16.125-12.293l15.599-19.299-.531-8.725s-1.85-7.932 0-11.104c1.85-3.173 8.792-11.853 10.575-16.392 1.763-4.49 3.173-19.033 3.173-19.033M183.617 199.86s3.832-.396 5.021 1.453M198.553 201.843s4.495-2.248 6.082-.529" stroke="#000" stroke-miterlimit="10" fill="none"/></svg>