<svg xmlns="http://www.w3.org/2000/svg" width="400" height="300" viewBox="0 0 400 300"><path stroke="#000" stroke-miterlimit="10" fill="none" d="M41.002 307l6.499-44.66 8.059-8.439 55.371-25.319 25.434-9.003 26.322-15.165M264.414 201.012l79.124 33.975 12.939 5.485 4.502 10.053 2.814 60.476M203.001 248.5h31.945l29.423-47.867 2.132-8.342v-2.791h3.047s1.969-.644 2.252-3.177c.281-2.531 0-6.159 0-6.159l.188-8.943M162.97 204.258c6.301 19.024 13.58 43.057 30.912 55.349 8.276 5.868 30.879 7.863 38.533.695 9.524-8.928 14.196-25.365 18.645-37.319M150.126 173.723s-1.319 9.783 0 12.66c.493 1.076 3.588 3.094 3.588 3.094l4.607 1.689 2.627 5.907 2.021 7.185M174.181 156.282s14.629-13.786 30.384 0M226.507 156.282s18.85-12.098 31.789 0M208.188 204.258l10.442 6.107 11.814-6.107M197.251 221.83l40.148 1.406M165.927 108.526c6.908-4.082 20.367-16.785 25.715-10.442 7.866 9.332 22.497 4.824 32.939 3.81 7.956-.772 8.608-6.098 12.398-11.151.781-1.042 17.825 18.161 19.221 19.776 5.312 6.152 7.867 18.589 8.286 26.512.561 10.622-.679 22.629 2.897 32.812 3.994 11.374 11.939-3.649 12.98-8.292 9.976-44.529-23.792-101.233-71.09-102.888-53.085-1.858-67.768 58.266-65.615 100.623.191 3.758 4.434 14.961 8.846 14.176 11.941-2.129 5.932-4.896 8.309-15.15 3.762-16.226 3.092-33.143 4.627-49.784"/><ellipse cx="190.519" cy="163.637" rx="2.98" ry="2.41"/><ellipse cx="234.564" cy="163.34" rx="2.98" ry="2.412"/></svg>