
<!-- Generator: Adobe Illustrator 16.0.4, SVG Export Plug-In . SVG Version: 6.00 Build 0)  -->

<svg version="1.1" id="Layer_2" xmlns="http://www.w3.org/2000/svg" xmlns:xlink="http://www.w3.org/1999/xlink" x="0px" y="0px"
	 width="400px" height="300px" viewBox="0 0 400 300" style="enable-background:new 0 0 400 300;" xml:space="preserve">
<polyline style="fill:none;stroke:#000000;stroke-miterlimit:10;" points="41.002,307 47.501,262.34 55.56,253.901 110.931,228.582 
	136.365,219.579 162.687,204.414 "/>
<polyline style="fill:none;stroke:#000000;stroke-miterlimit:10;" points="264.414,201.012 343.538,234.987 356.477,240.472 
	360.979,250.525 363.793,311.001 "/>
<path style="fill:none;stroke:#000000;stroke-miterlimit:10;" d="M203.001,248.5h26.881h5.064l29.423-47.867l2.132-8.342V189.5
	h3.047c0,0,1.969-0.644,2.252-3.177c0.281-2.531,0-6.159,0-6.159l0.188-8.943"/>
<path style="fill:none;stroke:#000000;stroke-miterlimit:10;" d="M162.97,204.258c6.301,19.024,13.58,43.057,30.912,55.349
	c8.276,5.868,30.879,7.863,38.533,0.695c9.524-8.928,14.196-25.365,18.645-37.319"/>
<path style="fill:none;stroke:#000000;stroke-miterlimit:10;" d="M150.126,173.723c0,0-1.319,9.783,0,12.66
	c0.493,1.076,3.588,3.094,3.588,3.094l4.607,1.689l2.627,5.907l2.021,7.185"/>
<path style="fill:none;stroke:#000000;stroke-miterlimit:10;" d="M174.181,156.282c0,0,14.629-13.786,30.384,0"/>
<path style="fill:none;stroke:#000000;stroke-miterlimit:10;" d="M226.507,156.282c0,0,18.85-12.098,31.789,0"/>
<polyline style="fill:none;stroke:#000000;stroke-miterlimit:10;" points="208.188,204.258 218.63,210.365 230.444,204.258 "/>
<line style="fill:none;stroke:#000000;stroke-miterlimit:10;" x1="197.251" y1="221.83" x2="237.399" y2="223.236"/>
<path style="fill:none;stroke:#000000;stroke-miterlimit:10;" d="M165.927,108.526c6.908-4.082,20.367-16.785,25.715-10.442
	c7.866,9.332,22.497,4.824,32.939,3.81c7.956-0.772,8.608-6.098,12.398-11.151c0.781-1.042,17.825,18.161,19.221,19.776
	c5.312,6.152,7.867,18.589,8.286,26.512c0.561,10.622-0.679,22.629,2.897,32.812c3.994,11.374,11.939-3.649,12.98-8.292
	c9.976-44.529-23.792-101.233-71.09-102.888c-53.085-1.858-67.768,58.266-65.615,100.623c0.191,3.758,4.434,14.961,8.846,14.176
	c11.941-2.129,5.932-4.896,8.309-15.15c3.762-16.226,3.092-33.143,4.627-49.784"/>
<ellipse cx="190.519" cy="163.637" rx="2.98" ry="2.41"/>
<ellipse cx="234.564" cy="163.34" rx="2.98" ry="2.412"/>
</svg>
