<?xml version="1.0" encoding="iso-8859-1"?>
<!-- Generator: Adobe Illustrator 16.0.4, SVG Export Plug-In . SVG Version: 6.00 Build 0)  -->
<!DOCTYPE svg PUBLIC "-//W3C//DTD SVG 1.1//EN" "http://www.w3.org/Graphics/SVG/1.1/DTD/svg11.dtd">
<svg version="1.1" id="Layer_2" xmlns="http://www.w3.org/2000/svg" xmlns:xlink="http://www.w3.org/1999/xlink" x="0px" y="0px"
	 width="400px" height="300px" viewBox="0 0 400 300" style="enable-background:new 0 0 400 300;" xml:space="preserve">
<path style="fill:none;stroke:#000000;stroke-miterlimit:10;" d="M59.002,304.374c0,0,6.31-58.91,27.459-64.198
	c21.149-5.287,42.315-11.236,42.315-11.236l37.408-6.719l0.248,10.024l-2.974,13.219l1.157,14.275l-1.538,13.747"/>
<path style="fill:none;stroke:#000000;stroke-miterlimit:10;" d="M351.888,307.001c0,0-0.528-33.515-5.817-36.687
	c-5.287-3.173-101.516-42.827-102.574-56.575c0,0,7.931,37.012-7.931,59.747"/>
<path style="fill:none;stroke:#000000;stroke-miterlimit:10;" d="M199.875,155.05c0,0,21.414-6.081,29.875,1.587"/>
<path style="fill:none;stroke:#000000;stroke-miterlimit:10;" d="M204.634,161.658c0,0,12.955-7.932,20.621,2.379"/>
<path style="fill:none;stroke:#000000;stroke-miterlimit:10;" d="M157.048,154.699c0,0,16.391-9.074,25.643,0"/>
<path style="fill:none;stroke:#000000;stroke-miterlimit:10;" d="M176.875,213.739c0,0,31.195,2.908,34.897,0"/>
<path style="fill:none;stroke:#000000;stroke-miterlimit:10;" d="M187.714,110.635c0,0-2.007-2.319-9.252-3.172
	c-21.11-2.484-18.507,18.506-18.507,18.506s-1.586,6.609-2.114,13.483c-0.53,6.874-3.172,10.046-3.172,10.046l-0.794,3.265
	l-2.643,1.937c0,0,1.321,4.052,0,7.752c-1.323,3.701-5.311-1.06-5.311-1.06l-0.421-1.319v-5.552c0,0-14.584-24.586-0.043-46
	s22.188-36.219,38.05-41.771c15.862-5.552,31.711,0.529,33.563,4.23c1.851,3.701,3.167,1.586,3.167,1.586
	c25.379-1.586,20.354,8.195,27.756,12.689c7.401,4.494,17.826,36.001,16.918,48.908c-0.337,4.774-4.759,12.954-5.816,18.242
	c-1.058,5.287-2.38,6.08-2.38,6.08s-0.791,0.046-1.851-2.908c-1.089-3.037-3.438,2.644-3.438,2.644l-2.644,5.815l-3.172,2.909
	l-1.321-2.909l-3.437-10.045c0,0-1.321-4.495-5.287-12.69c-3.965-8.196-1.321-8.988-1.851-21.149
	c-0.528-12.161-17.184-10.311-17.184-10.311s-12.425-1.322-17.448-1.058s-9.451,2.115-9.451,2.115L187.714,110.635z"/>
<path style="fill:none;stroke:#000000;stroke-miterlimit:10;" d="M147.5,162v12.305v9.561c0,0,1.202,2.643,3.318,2.379
	c2.116-0.264,2.189-0.264,2.189-0.264s7.294,30.728,13.241,36.015"/>
<path style="fill:none;stroke:#000000;stroke-miterlimit:10;" d="M160.219,162.715c0,0,13.695-10.134,20.33,1.146"/>
<circle cx="172.105" cy="163.28" r="1.869"/>
<circle cx="214.933" cy="164.073" r="1.869"/>
<path style="fill:none;stroke:#000000;stroke-miterlimit:10;" d="M169.869,228.279l12.821,17.052c0,0,14.145,9.518,29.082,0
	c14.936-9.517,16.125-12.293,16.125-12.293l15.599-19.299l-0.531-8.725c0,0-1.85-7.932,0-11.104
	c1.85-3.173,8.792-11.853,10.575-16.392c1.763-4.49,3.173-19.033,3.173-19.033"/>
<path style="fill:none;stroke:#000000;stroke-miterlimit:10;" d="M183.617,199.86c0,0,3.832-0.396,5.021,1.453"/>
<path style="fill:none;stroke:#000000;stroke-miterlimit:10;" d="M198.553,201.843c0,0,4.495-2.248,6.082-0.529"/>
</svg>
