<?xml version="1.0" encoding="iso-8859-1"?>
<!-- Generator: Adobe Illustrator 16.0.4, SVG Export Plug-In . SVG Version: 6.00 Build 0)  -->
<!DOCTYPE svg PUBLIC "-//W3C//DTD SVG 1.1//EN" "http://www.w3.org/Graphics/SVG/1.1/DTD/svg11.dtd">
<svg version="1.1" id="Layer_2" xmlns="http://www.w3.org/2000/svg" xmlns:xlink="http://www.w3.org/1999/xlink" x="0px" y="0px"
	 width="400px" height="300px" viewBox="0 0 400 300" style="enable-background:new 0 0 400 300;" xml:space="preserve">
<path style="fill:none;stroke:#000000;stroke-miterlimit:10;" d="M36.66,295.132C37.846,264.32,73.268,265.918,97,259.58
	c21.944-5.859,44.144-22.709,58-40.58"/>
<polyline style="fill:none;stroke:#000000;stroke-miterlimit:10;" points="155,219 154.5,246 154.5,263 154.5,287 "/>
<path style="fill:none;stroke:#000000;stroke-miterlimit:10;" d="M259.771,257.8c6.815-21.983,1.547-36.96-13.979-52.669"/>
<path style="fill:none;stroke:#000000;stroke-miterlimit:10;" d="M247.186,199.788c21.188,12.992,19.884,28.293,45.625,37.39
	c12.099,4.275,72.858,1.656,85.524,69.822"/>
<path style="fill:none;stroke:#000000;stroke-miterlimit:10;" d="M182,195.5c0,0,25-10.5,35,0"/>
<path style="fill:none;stroke:#000000;stroke-miterlimit:10;" d="M166.5,190.833l-7-8.667l-5,2.334l-9,4c0,0,4,27,14,36.5
	s13.5,12,13.5,12s22.5,12,34.5,8.5S225,238,225,238s12-9.5,14.5-14s4.5-12,4.5-12l9-34.5l-11-2l-6.5,15.333l-3.5,2.334
	c0,0-8.832-22.211-32-22.675C184,170.172,166.5,190.833,166.5,190.833z"/>
<path style="fill:none;stroke:#000000;stroke-miterlimit:10;" d="M153.75,78.25c-9.189,17.022-11.533,28.636-11.25,47.75
	c0.246,16.551-0.189,18.164-12.75,29c-1.978-19.228-10.777-42.913-3.281-62c4.305-10.961,16.031-47.5,94.818-45
	c14.096,0.447,26.582,18.445,33.778,30.235c9.655,15.818,14.405,34.906,15.935,53.265c-28.656,4.582-19.503-50.354-44.5-61.771
	C202.885,58.942,175.4,65.035,153.75,78.25"/>
<path style="fill:none;stroke:#000000;stroke-miterlimit:10;" d="M129.75,155c-7.015,8.764,3.933,34.364,15.75,33.5"/>
<path style="fill:none;stroke:#000000;stroke-miterlimit:10;" d="M253,177.5c15.443,0.379,25.43-36.242,18-46"/>
<path style="fill:none;stroke:#000000;stroke-miterlimit:10;" d="M182,164c0,0,28-4.5,30,0"/>
<line style="fill:none;stroke:#000000;stroke-miterlimit:10;" x1="191.051" y1="127.693" x2="202.495" y2="127.097"/>
<path style="fill:none;stroke:#000000;stroke-miterlimit:10;" d="M202.5,123c0,0,0.068,6.751,0,9c-0.314,10.25,14.5,19.5,14.5,19.5
	s13.012,1.469,17,0c2.487-0.916,5.677-4.839,7.5-7.5c1.423-2.076,5.5-9.75,5.5-9.75s1.23-25.637-19-22.75
	c-6.229,0.889-16,3.25-16,3.25S202.5,117.25,202.5,123z"/>
<path style="fill:none;stroke:#000000;stroke-miterlimit:10;" d="M154.25,126.375L149.5,130v10l6,15l7.625,1.75l12.062-1.75
	l11.281-2.848l3.766-4.652l2.758-9.5l-2.496-13.25c0,0-1.623-8.5-10.873-6.5S154.25,126.375,154.25,126.375z"/>
<line style="fill:none;stroke:#000000;stroke-miterlimit:10;" x1="149.5" y1="134.5" x2="142.5" y2="137.348"/>
<path style="fill:none;stroke:#000000;stroke-miterlimit:10;" d="M154.5,219.591c7.712,26.088,19.874,35.479,35.502,52.239
	c37.064,39.732,64.504-35.082,55.79-66.699"/>
<path style="fill:none;stroke:#000000;stroke-miterlimit:10;" d="M155,134.5c0,0,17.808-15.701,27-3"/>
<path style="fill:none;stroke:#000000;stroke-miterlimit:10;" d="M212,121.5c0,0,18-4,24,0"/>
<path d="M175.489,134c0,4-6.354,4-6.354,0S175.489,130,175.489,134z"/>
<path d="M227.641,128c0,4-6.354,4-6.354,0S227.641,124,227.641,128z"/>
</svg>
