<svg xmlns="http://www.w3.org/2000/svg" viewBox="0 0 400 300"><path d="M36.66 295.132c1.186-30.812 36.608-29.214 60.34-35.552 21.944-5.859 44.144-22.709 58-40.58M155 219l-.5 27v41M259.771 257.8c6.815-21.983 1.547-36.96-13.979-52.669M247.186 199.788c21.188 12.992 19.884 28.293 45.625 37.39 12.099 4.275 72.858 1.656 85.524 69.822M182 195.5s25-10.5 35 0" stroke="#000" stroke-miterlimit="10" fill="none"/><path d="M166.5 190.833l-7-8.667-5 2.334-9 4s4 27 14 36.5l13.5 12s22.5 12 34.5 8.5l17.5-7.5s12-9.5 14.5-14l4.5-12 9-34.5-11-2-6.5 15.333-3.5 2.334s-8.832-22.211-32-22.675c-16-.32-33.5 20.341-33.5 20.341zM153.75 78.25c-9.189 17.022-11.533 28.636-11.25 47.75.246 16.551-.189 18.164-12.75 29-1.978-19.228-10.777-42.913-3.281-62 4.305-10.961 16.031-47.5 94.818-45 14.096.447 26.582 18.445 33.778 30.235 9.655 15.818 14.405 34.906 15.935 53.265-28.656 4.582-19.503-50.354-44.5-61.771-23.615-10.787-51.1-4.694-72.75 8.521M129.75 155c-7.015 8.764 3.933 34.364 15.75 33.5M253 177.5c15.443.379 25.43-36.242 18-46M182 164s28-4.5 30 0M191.051 127.693l11.444-.596" stroke="#000" stroke-miterlimit="10" fill="none"/><path d="M202.5 123s.068 6.751 0 9c-.314 10.25 14.5 19.5 14.5 19.5s13.012 1.469 17 0c2.487-.916 5.677-4.839 7.5-7.5 1.423-2.076 5.5-9.75 5.5-9.75s1.23-25.637-19-22.75c-6.229.889-16 3.25-16 3.25s-9.5 2.5-9.5 8.25zM154.25 126.375l-4.75 3.625v10l6 15 7.625 1.75 12.062-1.75 11.281-2.848 3.766-4.652 2.758-9.5-2.496-13.25s-1.623-8.5-10.873-6.5l-25.373 8.125zM149.5 134.5l-7 2.848M154.5 219.591c7.712 26.088 19.874 35.479 35.502 52.239 37.064 39.732 64.504-35.082 55.79-66.699M155 134.5s17.808-15.701 27-3M212 121.5s18-4 24 0" stroke="#000" stroke-miterlimit="10" fill="none"/><path d="M175.489 134c0 4-6.354 4-6.354 0s6.354-4 6.354 0zM227.641 128c0 4-6.354 4-6.354 0s6.354-4 6.354 0z"/></svg>
