<?xml version="1.0" encoding="iso-8859-1"?>
<!-- Generator: Adobe Illustrator 16.0.4, SVG Export Plug-In . SVG Version: 6.00 Build 0)  -->
<!DOCTYPE svg PUBLIC "-//W3C//DTD SVG 1.1//EN" "http://www.w3.org/Graphics/SVG/1.1/DTD/svg11.dtd">
<svg version="1.1" id="Layer_2" xmlns="http://www.w3.org/2000/svg" xmlns:xlink="http://www.w3.org/1999/xlink" x="0px" y="0px"
	 width="400px" height="300px" viewBox="0 0 400 300" style="enable-background:new 0 0 400 300;" xml:space="preserve">
<path style="fill:none;stroke:#000000;stroke-miterlimit:10;" d="M270.166,150.335"/>
<path style="fill:none;stroke:#000000;stroke-miterlimit:10;" d="M234.831,149.503c0,0,20.335-12.17,23.5,0.832"/>
<path style="fill:none;stroke:#000000;stroke-miterlimit:10;" d="M184.664,161.003c0,0,2.334-12.333,21.167-8.333"/>
<line style="fill:none;stroke:#000000;stroke-miterlimit:10;" x1="217.331" y1="191.67" x2="234.831" y2="189.837"/>
<path style="fill:none;stroke:#000000;stroke-miterlimit:10;" d="M209.998,213.836c0,0,26.333-7.166,39.5-4.333"/>
<path style="fill:none;stroke:#000000;stroke-miterlimit:10;" d="M210.831,197.669l-3.665,13.669c0,0,37-9.336,41.5-4.669
	s-8.835-14.166-8.835-14.166L210.831,197.669z"/>
<path style="fill:none;stroke:#000000;stroke-miterlimit:10;" d="M217.332,72.502c-23.511-0.482-43.592,19.582-54.814,38.518
	c-9.982,16.841,1.976,47.284,6.91,64.382c7.38-7.975,5.736-14.314,5.736-24.896c0-16.987,12.865-7.067,22.594-20.198
	c4.554-1.244,11.654,0.364,16.43,0.046c8.369-0.559,16.09-4.237,24.115-5.035c11.912-1.185,29.523,12.438,30.613,24.792
	c8.166-1.56,9.924-14.732,9.5-21.911c-0.904-15.301-8.066-29.089-19.658-39.016C246.012,78.267,233.291,74.833,217.332,72.502z"/>
<path style="fill:none;stroke:#000000;stroke-miterlimit:10;" d="M81.914,314.5c1.781-8.712,1.68-25.896,6.75-33
	c4.23-5.926,19.508-10.182,26.195-12.89c19.932-8.069,56.664-15.954,70.805-34.108"/>
<path style="fill:none;stroke:#000000;stroke-miterlimit:10;" d="M267.08,225.502c0.537-6.551,0.131-41.199,5.481-41.961
	c7.13-1.016,4.985-35.01,1.438-35.206"/>
<path style="fill:none;stroke:#000000;stroke-miterlimit:10;" d="M209.998,239c0,0,31.166,16.75,56.833-13.75"/>
<path style="fill:none;stroke:#000000;stroke-miterlimit:10;" d="M169.664,175.5c-5.172,5.157-2.367,25.718,6.438,26.708
	c4.098,0.46,9.252,34.451,11.654,39.775c8.831,19.577,29.332,37.599,51.66,34.404c-0.288,0.041-0.619-0.075-0.918-0.053
	c13.119-7.624,30.252-20.504,31.333-37c6.894,6.393,12.526,13.931,21.655,16.458c13.891,3.847,27.781,7.693,41.671,11.54
	c11.031,3.055,21.753,8.516,32.374,12.764c14.115,5.646,10.332,32.036,18.383,43.986"/>
<path d="M204.684,164c0,3-4.889,3-4.889,0S204.684,161,204.684,164z"/>
<path d="M246.895,158c0,4-4.89,4-4.89,0C242.005,155,246.895,155,246.895,158z"/>
<line style="fill:none;stroke:#000000;stroke-miterlimit:10;" x1="230.498" y1="165.502" x2="232.831" y2="174.335"/>
<line style="fill:none;stroke:#000000;stroke-miterlimit:10;" x1="269.831" y1="239.335" x2="267.1" y2="225.25"/>
</svg>
