<svg xmlns="http://www.w3.org/2000/svg" viewBox="0 0 400 300"><path d="M51.998 241.588c4.167-17.684 7.16-49.351 27.201-57.368 17.865-7.146 36.298-14.639 56.084-14.639 3.928 0 2.191 6.493 4.064 9.144 2.068 2.932 6.327 5.22 7.555 7.084 3.805 5.779 6.649 26.183 12.463 26.183 13.711 20.78 25.43 38.228 49.496 25.593M210.976 287.002c2.306-18.451 2.462-36.05 11.182-52.522 3.763-7.105 5.864-11.451 12.305-15.846 14.89-10.16 16.14-32.665 16.712-49.053 17.299 11.063 38.543 14.511 55.182 25.942 8.055 5.532 25.463 12.851 30.653 21.057 4.94 7.811 3.363 26.901 4.534 36.269M195.26 193.913l6.347 5.441 9.369-1.209 6.651-6.65M217.627 179.104l18.135 15.111M190.033 181.219l-15.928 23.575M185.59 205.398s22.366 5.743 33.548 0M199.666 216.5h12M175.842 226.176c6.227 4.798 12.301 9.595 20.893 9.595 9.504 0 18.763-1.695 27.539-5.287M137.742 171.59c-3.883-10.383-7.76-21.729-9.83-32.59-.84-4.405 3.122-4.338 3.122-6.593 0-5.386-1.093-10.905-1.667-16.252-1.146-10.695-3.66-24.798 5.396-33.254 8.194-7.653 16.385-18.036 25.795-24.089 7.551-4.857 18.94-9.05 27.992-9.952 14.086-1.405 23.631 6.354 34 14.385 5.835 4.52 17.727 11.536 20.972 18.036 7.677 15.382 7.552 37.275 7.198 54.301-3.566-11.649-6.163-31.738-11.031-42.92-4.424 9.106-5.52.396-8.721-.704-7.663-2.636-15.365-5.249-23.188-7.376-8.981-2.441-10.47 2.162-12.944 10.644-1.746 5.979-12.863 4.908-19.38 8.601-2.435 1.38-14.19 11.333-15.79 9.747-8.732-8.655-14.477-9.557-23.231-.78-3.354 3.361 5.992 31.162 7.146 36.692-2.096-2.917-8.906-17.699-12.546-16.02M143.58 144.347l16.238 17.226M240.898 149.485l9.947-11.788M156.877 153.713s6.852-11.873 19.646-5.438c3.51 1.766 13.496 1.21 13.496 1.21M216.117 145.405s10.274-.756 12.088-4.081c1.813-3.324 4.533-3.93 4.533-3.93l8.16-1.812" stroke="#000" stroke-miterlimit="10" fill="none"/><path d="M179.561 158c0 3-4.432 3-4.432 0 0-2 4.432-2 4.432 0zM223.275 154c0 3-4.434 3-4.434 0s4.434-3 4.434 0z"/><path stroke="#000" stroke-miterlimit="10" fill="none" d="M198.244 137.697l1.247 13.976M194.666 156.5h12"/><path d="M160.049 158.049s-1.965 19.451 5.592 19.451h7.557s8.188.518 10.88.121c7.179-1.059 9.673-4.402 10.88-9.84 1.209-5.438.303-7.411.303-7.411s-1.205-7.222-9.67-6.615c-8.465.607-17.533.372-17.533.372s-7.783-.619-8.009 3.922zM245.222 165.62s-.777-19.526-8.259-18.468l-7.482 1.059s-8.182.627-10.793 1.397c-6.959 2.053-6.24 5.709-6.674 11.262-.434 5.554.738 7.379.738 7.379s3.111 6.981 11.408 5.194c8.297-1.786 13.681-2.82 13.681-2.82s7.794-.476 7.381-5.003zM251.396 126.947s2.26 1.833 2.609 2.729c3.052 7.819 1.884 25.749-1.21 33.553-.301.759-1.63 2.725-1.63 2.725v4.046M149.317 88.731s28.713-21.458 44.429-14.204M153.852 92.661s27.356-14.193 37.404-11.78M159.818 103.542s23.148-13.903 30.2-9.672M164.166 272v-41.216l-5.217-19.04" stroke="#000" stroke-miterlimit="10" fill="none"/></svg>
