<svg xmlns="http://www.w3.org/2000/svg" width="400" height="300" viewBox="0 0 400 300"><path d="M270.166 150.335M234.831 149.503s20.335-12.17 23.5.832M184.664 161.003s2.334-12.333 21.167-8.333M217.331 191.67l17.5-1.833M209.998 213.836s26.333-7.166 39.5-4.333" stroke="#000" stroke-miterlimit="10" fill="none"/><path d="M210.831 197.669l-3.665 13.669s37-9.336 41.5-4.669l-8.835-14.166-29 5.166zM217.332 72.502c-23.511-.482-43.592 19.582-54.814 38.518-9.982 16.841 1.976 47.284 6.91 64.382 7.38-7.975 5.736-14.314 5.736-24.896 0-16.987 12.865-7.067 22.594-20.198 4.554-1.244 11.654.364 16.43.046 8.369-.559 16.09-4.237 24.115-5.035 11.912-1.185 29.523 12.438 30.613 24.792 8.166-1.56 9.924-14.732 9.5-21.911-.904-15.301-8.066-29.089-19.658-39.016-12.746-10.917-25.467-14.351-41.426-16.682zM81.914 314.5c1.781-8.712 1.68-25.896 6.75-33 4.23-5.926 19.508-10.182 26.195-12.89 19.932-8.069 56.664-15.954 70.805-34.108M267.08 225.502c.537-6.551.131-41.199 5.481-41.961 7.13-1.016 4.985-35.01 1.438-35.206M209.998 239s31.166 16.75 56.833-13.75M169.664 175.5c-5.172 5.157-2.367 25.718 6.438 26.708 4.098.46 9.252 34.451 11.654 39.775 8.831 19.577 29.332 37.599 51.66 34.404-.288.041-.619-.075-.918-.053 13.119-7.624 30.252-20.504 31.333-37 6.894 6.393 12.526 13.931 21.655 16.458 13.891 3.847 27.781 7.693 41.671 11.54 11.031 3.055 21.753 8.516 32.374 12.764 14.115 5.646 10.332 32.036 18.383 43.986" stroke="#000" stroke-miterlimit="10" fill="none"/><path d="M204.684 164c0 3-4.889 3-4.889 0s4.889-3 4.889 0zM246.895 158c0 4-4.89 4-4.89 0 0-3 4.89-3 4.89 0z"/><path stroke="#000" stroke-miterlimit="10" fill="none" d="M230.498 165.502l2.333 8.833M269.831 239.335l-2.731-14.085"/></svg>