<?xml version="1.0" encoding="iso-8859-1"?>
<!-- Generator: Adobe Illustrator 16.0.4, SVG Export Plug-In . SVG Version: 6.00 Build 0)  -->
<!DOCTYPE svg PUBLIC "-//W3C//DTD SVG 1.1//EN" "http://www.w3.org/Graphics/SVG/1.1/DTD/svg11.dtd">
<svg version="1.1" id="Layer_2" xmlns="http://www.w3.org/2000/svg" xmlns:xlink="http://www.w3.org/1999/xlink" x="0px" y="0px"
	 width="400px" height="300px" viewBox="0 0 400 300" style="enable-background:new 0 0 400 300;" xml:space="preserve">
<path style="fill:none;stroke:#000000;stroke-miterlimit:10;" d="M51.998,241.588c4.167-17.684,7.16-49.351,27.201-57.368
	c17.865-7.146,36.298-14.639,56.084-14.639c3.928,0,2.191,6.493,4.064,9.144c2.068,2.932,6.327,5.22,7.555,7.084
	c3.805,5.779,6.649,26.183,12.463,26.183c13.711,20.78,25.43,38.228,49.496,25.593"/>
<path style="fill:none;stroke:#000000;stroke-miterlimit:10;" d="M210.976,287.002c2.306-18.451,2.462-36.05,11.182-52.522
	c3.763-7.105,5.864-11.451,12.305-15.846c14.89-10.16,16.14-32.665,16.712-49.053c17.299,11.063,38.543,14.511,55.182,25.942
	c8.055,5.532,25.463,12.851,30.653,21.057c4.94,7.811,3.363,26.901,4.534,36.269"/>
<polyline style="fill:none;stroke:#000000;stroke-miterlimit:10;" points="195.26,193.913 201.607,199.354 210.976,198.145 
	217.627,191.495 "/>
<line style="fill:none;stroke:#000000;stroke-miterlimit:10;" x1="217.627" y1="179.104" x2="235.762" y2="194.215"/>
<line style="fill:none;stroke:#000000;stroke-miterlimit:10;" x1="190.033" y1="181.219" x2="174.105" y2="204.794"/>
<path style="fill:none;stroke:#000000;stroke-miterlimit:10;" d="M185.59,205.398c0,0,22.366,5.743,33.548,0"/>
<line style="fill:none;stroke:#000000;stroke-miterlimit:10;" x1="199.666" y1="216.5" x2="211.666" y2="216.5"/>
<path style="fill:none;stroke:#000000;stroke-miterlimit:10;" d="M175.842,226.176c6.227,4.798,12.301,9.595,20.893,9.595
	c9.504,0,18.763-1.695,27.539-5.287"/>
<path style="fill:none;stroke:#000000;stroke-miterlimit:10;" d="M137.742,171.59c-3.883-10.383-7.76-21.729-9.83-32.59
	c-0.84-4.405,3.122-4.338,3.122-6.593c0-5.386-1.093-10.905-1.667-16.252c-1.146-10.695-3.66-24.798,5.396-33.254
	c8.194-7.653,16.385-18.036,25.795-24.089c7.551-4.857,18.94-9.05,27.992-9.952c14.086-1.405,23.631,6.354,34,14.385
	c5.835,4.52,17.727,11.536,20.972,18.036c7.677,15.382,7.552,37.275,7.198,54.301c-3.566-11.649-6.163-31.738-11.031-42.92
	c-4.424,9.106-5.52,0.396-8.721-0.704c-7.663-2.636-15.365-5.249-23.188-7.376c-8.981-2.441-10.47,2.162-12.944,10.644
	c-1.746,5.979-12.863,4.908-19.38,8.601c-2.435,1.38-14.19,11.333-15.79,9.747c-8.732-8.655-14.477-9.557-23.231-0.78
	c-3.354,3.361,5.992,31.162,7.146,36.692c-2.096-2.917-8.906-17.699-12.546-16.02"/>
<line style="fill:none;stroke:#000000;stroke-miterlimit:10;" x1="143.58" y1="144.347" x2="159.818" y2="161.573"/>
<line style="fill:none;stroke:#000000;stroke-miterlimit:10;" x1="240.898" y1="149.485" x2="250.845" y2="137.697"/>
<path style="fill:none;stroke:#000000;stroke-miterlimit:10;" d="M156.877,153.713c0,0,6.852-11.873,19.646-5.438
	c3.51,1.766,13.496,1.21,13.496,1.21"/>
<path style="fill:none;stroke:#000000;stroke-miterlimit:10;" d="M216.117,145.405c0,0,10.274-0.756,12.088-4.081
	c1.813-3.324,4.533-3.93,4.533-3.93l8.16-1.812"/>
<path d="M179.561,158c0,3-4.432,3-4.432,0C175.129,156,179.561,156,179.561,158z"/>
<path d="M223.275,154c0,3-4.434,3-4.434,0S223.275,151,223.275,154z"/>
<line style="fill:none;stroke:#000000;stroke-miterlimit:10;" x1="198.244" y1="137.697" x2="199.491" y2="151.673"/>
<line style="fill:none;stroke:#000000;stroke-miterlimit:10;" x1="194.666" y1="156.5" x2="206.666" y2="156.5"/>
<path style="fill:none;stroke:#000000;stroke-miterlimit:10;" d="M160.049,158.049c0,0-1.965,19.451,5.592,19.451
	c7.555,0,7.557,0,7.557,0s8.188,0.518,10.88,0.121c7.179-1.059,9.673-4.402,10.88-9.84c1.209-5.438,0.303-7.411,0.303-7.411
	s-1.205-7.222-9.67-6.615c-8.465,0.607-17.533,0.372-17.533,0.372S160.275,153.508,160.049,158.049z"/>
<path style="fill:none;stroke:#000000;stroke-miterlimit:10;" d="M245.222,165.62c0,0-0.777-19.526-8.259-18.468
	c-7.48,1.059-7.482,1.059-7.482,1.059s-8.182,0.627-10.793,1.397c-6.959,2.053-6.24,5.709-6.674,11.262
	c-0.434,5.554,0.738,7.379,0.738,7.379s3.111,6.981,11.408,5.194c8.297-1.786,13.681-2.82,13.681-2.82
	S245.635,170.147,245.222,165.62z"/>
<path style="fill:none;stroke:#000000;stroke-miterlimit:10;" d="M251.396,126.947c0,0,2.26,1.833,2.609,2.729
	c3.052,7.819,1.884,25.749-1.21,33.553c-0.301,0.759-1.63,2.725-1.63,2.725V170"/>
<path style="fill:none;stroke:#000000;stroke-miterlimit:10;" d="M149.317,88.731c0,0,28.713-21.458,44.429-14.204"/>
<path style="fill:none;stroke:#000000;stroke-miterlimit:10;" d="M153.852,92.661c0,0,27.356-14.193,37.404-11.78"/>
<path style="fill:none;stroke:#000000;stroke-miterlimit:10;" d="M159.818,103.542c0,0,23.148-13.903,30.2-9.672"/>
<polyline style="fill:none;stroke:#000000;stroke-miterlimit:10;" points="164.166,272 164.166,242.571 164.166,230.784 
	158.949,211.744 "/>
</svg>
