<svg xmlns="http://www.w3.org/2000/svg" width="400" height="300" viewBox="0 0 400 300"><path d="M28.438 333.934c1.971-7.368 5.518-15.083 7.062-22.434.7-3.333-2.224-17.7.856-18.808l51.537-18.543c18.595-6.69 37.189-13.381 55.784-20.072 5.266-1.895 8.853-7.627 12.638-11.564 8.693-9.042 8.185-11.032 8.185-23.825 0-2.561-5.101-4.617-6.5-6.664-2.356-3.446-3.464-8.736-5-12.61-2.666-6.723-8.746-11.719-12.114-18.713-3.846-7.986-6.965-13.941-7.47-22.789-.171-2.995 2.875-5.305 2.308-7.438-1.054-3.97-2.269-7.75-2.571-11.838-1.178-15.944-3.562-32.065 3.093-47.343 9.378-21.531 30.706-36.667 54.38-36.667 29.023 0 56.058 7.314 66.895 37.081 4.577 12.57 5.952 26.446 6.106 39.754.078 6.733-6.101 13.875-9.251 19.665-2.67-10.456-19.409-75.734-36.876-64.126M165 218c35.577 29.362 54.329 19.127 85.375-9.875 1.103 36.265-5.13 38.905-31.273 64.621-12.825 12.614-53.188-19.976-54.102-38.746M152.625 146.875s22.25-19.25 37.125 1.875M200.75 146s22.75-20.775 37-2.2M181.375 202.375s22.25 1.5 45.25-6.625M135.883 151.064c1.996 3.685 7.425 5.947 7.742 13.061.441-17.294 6.531-30.998 4.954-45.755-2.926-27.377 21.696-13.486 37.421-13.87M186 104.5l31.5-17.5M159.5 154.375s14.125-16.125 26.5-2.125M206.5 148.75s9-12.75 26.75-2.75" stroke="#000" stroke-miterlimit="10" fill="none"/><circle cx="174.895" cy="151.354" r="3.73"/><circle cx="219.895" cy="146.354" r="3.73"/><path stroke="#000" stroke-miterlimit="10" fill="none" d="M186 182.5h5.5l8.375 3.625 5.25-4 7.5-2.937M263.115 135.062s3.638 4.229 4.135 5.977c.845 2.97-.625 12.336-.625 12.336l-3.24 21s-.885 10.375-7.885 10.625v12l-5.375 11.125M250.375 231l13.26 17.5 27.365 12 43 18.125 39.5 11.375 6.635 37.015M160.941 238.013l-1.441 19.317 15.395 77.604M250.375 325.396l8.568-74.36-4.284-14.382"/></svg>