
<!-- Generator: Adobe Illustrator 16.0.4, SVG Export Plug-In . SVG Version: 6.00 Build 0)  -->

<svg version="1.1" id="Layer_2" xmlns="http://www.w3.org/2000/svg" xmlns:xlink="http://www.w3.org/1999/xlink" x="0px" y="0px"
	 width="400px" height="300px" viewBox="0 0 400 300" style="enable-background:new 0 0 400 300;" xml:space="preserve">
<path style="fill:none;stroke:#000000;stroke-miterlimit:10;" d="M28.438,333.934c1.971-7.368,5.518-15.083,7.062-22.434
	c0.7-3.333-2.224-17.7,0.856-18.808c17.179-6.181,34.358-12.362,51.537-18.543c18.595-6.69,37.189-13.381,55.784-20.072
	c5.266-1.895,8.853-7.627,12.638-11.564c8.693-9.042,8.185-11.032,8.185-23.825c0-2.561-5.101-4.617-6.5-6.664
	c-2.356-3.446-3.464-8.736-5-12.61c-2.666-6.723-8.746-11.719-12.114-18.713c-3.846-7.986-6.965-13.941-7.47-22.789
	c-0.171-2.995,2.875-5.305,2.308-7.438c-1.054-3.97-2.269-7.75-2.571-11.838c-1.178-15.944-3.562-32.065,3.093-47.343
	c9.378-21.531,30.706-36.667,54.38-36.667c29.023,0,56.058,7.314,66.895,37.081c4.577,12.57,5.952,26.446,6.106,39.754
	c0.078,6.733-6.101,13.875-9.251,19.665C251.706,140.67,234.967,75.392,217.5,87"/>
<path style="fill:none;stroke:#000000;stroke-miterlimit:10;" d="M165,218c35.577,29.362,54.329,19.127,85.375-9.875
	c1.103,36.265-5.13,38.905-31.273,64.621C206.277,285.36,165.914,252.77,165,234"/>
<path style="fill:none;stroke:#000000;stroke-miterlimit:10;" d="M152.625,146.875c0,0,22.25-19.25,37.125,1.875"/>
<path style="fill:none;stroke:#000000;stroke-miterlimit:10;" d="M200.75,146c0,0,22.75-20.775,37-2.2"/>
<path style="fill:none;stroke:#000000;stroke-miterlimit:10;" d="M181.375,202.375c0,0,22.25,1.5,45.25-6.625"/>
<path style="fill:none;stroke:#000000;stroke-miterlimit:10;" d="M135.883,151.064c1.996,3.685,7.425,5.947,7.742,13.061
	c0.441-17.294,6.531-30.998,4.954-45.755c-2.926-27.377,21.696-13.486,37.421-13.87"/>
<line style="fill:none;stroke:#000000;stroke-miterlimit:10;" x1="186" y1="104.5" x2="217.5" y2="87"/>
<path style="fill:none;stroke:#000000;stroke-miterlimit:10;" d="M159.5,154.375c0,0,14.125-16.125,26.5-2.125"/>
<path style="fill:none;stroke:#000000;stroke-miterlimit:10;" d="M206.5,148.75c0,0,9-12.75,26.75-2.75"/>
<circle cx="174.895" cy="151.354" r="3.73"/>
<circle cx="219.895" cy="146.354" r="3.73"/>
<polyline style="fill:none;stroke:#000000;stroke-miterlimit:10;" points="186,182.5 191.5,182.5 199.875,186.125 205.125,182.125 
	212.625,179.188 "/>
<path style="fill:none;stroke:#000000;stroke-miterlimit:10;" d="M263.115,135.062c0,0,3.638,4.229,4.135,5.977
	c0.845,2.97-0.625,12.336-0.625,12.336l-3.24,21c0,0-0.885,10.375-7.885,10.625v12l-5.375,11.125"/>
<polyline style="fill:none;stroke:#000000;stroke-miterlimit:10;" points="250.375,231 263.635,248.5 291,260.5 334,278.625 
	373.5,290 380.135,327.015 "/>
<polyline style="fill:none;stroke:#000000;stroke-miterlimit:10;" points="160.941,238.013 159.5,257.33 174.895,334.934 "/>
<polyline style="fill:none;stroke:#000000;stroke-miterlimit:10;" points="250.375,325.396 258.943,251.036 254.659,236.654 "/>
</svg>
