
<!-- Generator: Adobe Illustrator 16.0.4, SVG Export Plug-In . SVG Version: 6.00 Build 0)  -->

<svg version="1.1" id="Layer_2" xmlns="http://www.w3.org/2000/svg" xmlns:xlink="http://www.w3.org/1999/xlink" x="0px" y="0px"
	 width="399.999px" height="300px" viewBox="0 0 399.999 300" style="enable-background:new 0 0 399.999 300;" xml:space="preserve"
	>
<path style="fill:none;stroke:#000000;stroke-miterlimit:10;" d="M152.5,177.5v-29.17l4.002-4.83h9.902l4.243-9h24.615h18.674
	c0,0,16.127-2.775,20.654-13.526c4.525-10.751,9.053,22.591,9.053,22.591l3.396,11.295c0,0,9.055-7.367,7.923-13.591
	c-1.133-6.225-5.093-18.679-5.093-18.679s-18.674-74.13-66.206-60.549s-51.494,58.849-52.06,68.468s3.961,36.369,3.961,36.369
	l9.62,10.623H152.5z"/>
<path style="fill:none;stroke:#000000;stroke-miterlimit:10;" d="M247.039,154.838c-2.927,21.9-5.671,43.964-10.067,65.626
	c-0.298,1.465-0.745,7.405-2.381,8.222c-4.643,2.316-2.268,10.096-5.03,13.32c-4.789,5.59-14.254,15.854-22.427,13.357
	c-7.122-2.176-21.963-3.459-26.569-9.537c-5.314-7.014-17.57-17.725-19.643-26.215c-1.342-5.499-2.684-10.997-4.025-16.495
	c-0.436-1.783-3.608-2.575-5.262-4.953c-3.874-5.57-20.758-21.771-12.949-27.733"/>
<polyline style="fill:none;stroke:#000000;stroke-miterlimit:10;" points="47.67,306.998 57.193,263.966 161.027,219.982 "/>
<polyline style="fill:none;stroke:#000000;stroke-miterlimit:10;" points="237.445,218.045 329.655,248.487 340.124,263.966 
	351.67,312 "/>
<path style="fill:none;stroke:#000000;stroke-miterlimit:10;" d="M181.966,218.045c0,0,41.307,5.261,45.834-2.095"/>
<path style="fill:none;stroke:#000000;stroke-miterlimit:10;" d="M194.697,199.823c0,0,16.692,8.204,25.181-1.698"/>
<path style="fill:none;stroke:#000000;stroke-miterlimit:10;" d="M165.555,162.477c0,0,19.005-9.621,27.752,0"/>
<path style="fill:none;stroke:#000000;stroke-miterlimit:10;" d="M211.673,160.338c0,0,12.449-11.223,20.937-2.137"/>
<circle cx="179.69" cy="167.041" r="2"/>
<circle cx="222.13" cy="162.798" r="2"/>
<polyline style="fill:none;stroke:#000000;stroke-miterlimit:10;" points="160.887,220.478 161.735,234.058 170.082,251.493 
	191.303,269.706 "/>
<path style="fill:none;stroke:#000000;stroke-miterlimit:10;" d="M234.591,228.686"/>
</svg>
