<svg xmlns="http://www.w3.org/2000/svg" width="399.999" height="300" viewBox="0 0 399.999 300"><path d="M152.5 177.5v-29.17l4.002-4.83h9.902l4.243-9h43.289s16.127-2.775 20.654-13.526c4.525-10.751 9.053 22.591 9.053 22.591l3.396 11.295s9.055-7.367 7.923-13.591c-1.133-6.225-5.093-18.679-5.093-18.679s-18.674-74.13-66.206-60.549-51.494 58.849-52.06 68.468l3.961 36.369 9.62 10.623h7.316zM247.039 154.838c-2.927 21.9-5.671 43.964-10.067 65.626-.298 1.465-.745 7.405-2.381 8.222-4.643 2.316-2.268 10.096-5.03 13.32-4.789 5.59-14.254 15.854-22.427 13.357-7.122-2.176-21.963-3.459-26.569-9.537-5.314-7.014-17.57-17.725-19.643-26.215-1.342-5.499-2.684-10.997-4.025-16.495-.436-1.783-3.608-2.575-5.262-4.953-3.874-5.57-20.758-21.771-12.949-27.733M47.67 306.998l9.523-43.032 103.834-43.984M237.445 218.045l92.21 30.442 10.469 15.479 11.546 48.034M181.966 218.045s41.307 5.261 45.834-2.095M194.697 199.823s16.692 8.204 25.181-1.698M165.555 162.477s19.005-9.621 27.752 0M211.673 160.338s12.449-11.223 20.937-2.137" stroke="#000" stroke-miterlimit="10" fill="none"/><circle cx="179.69" cy="167.041" r="2"/><circle cx="222.13" cy="162.798" r="2"/><path stroke="#000" stroke-miterlimit="10" fill="none" d="M160.887 220.478l.848 13.58 8.347 17.435 21.221 18.213M234.591 228.686"/></svg>