<?xml version="1.0" encoding="iso-8859-1"?>
<!-- Generator: Adobe Illustrator 16.0.4, SVG Export Plug-In . SVG Version: 6.00 Build 0)  -->
<!DOCTYPE svg PUBLIC "-//W3C//DTD SVG 1.1//EN" "http://www.w3.org/Graphics/SVG/1.1/DTD/svg11.dtd">
<svg version="1.1" id="Layer_2" xmlns="http://www.w3.org/2000/svg" xmlns:xlink="http://www.w3.org/1999/xlink" x="0px" y="0px"
	 width="400px" height="300px" viewBox="0 0 400 300" style="enable-background:new 0 0 400 300;" xml:space="preserve">
<path style="fill:none;stroke:#000000;stroke-miterlimit:10;" d="M38.618,286.365c7.5-11.412,12.346-16.051,26.463-18.408
	c11.433-1.909,22.859-3.893,34.236-6.114c22.389-4.372,42.131-11.794,61.218-24.598v55.425 M181.209,292.67
	c-9.253-17.709-14.301-36.559-20.674-55.425 M236.927,284.751l8.797-47.506c5.627,5.938,13.756,17.554,21.871,19.917
	c15.861,4.619,31.725,9.279,47.691,13.52c10.724,2.849,21.812,3.091,32.791,4.422c18.574,2.252,26.76,8.144,34.298,24.896
	 M260.604,152.572c5.107-20.758,2.551-50.096-8.272-68.185c-13.382-22.366-53.31-29.379-75.589-21.753
	c-21.771,7.45-39.961,25.952-39.961,49.947c0,17.81,3.68,34.662,8.065,51.793c1.075-2.142,0.731-6.289,0.731-9.402
	c0-5.063,1.781-7.399,2.64-12.151c1.531-8.478-1.78-17.886,0.26-26.286c3.627-14.937,6.237-18.491,22.44-16.501
	c3.752,0.46,12.43-0.228,14.963,2.753c5.061,5.954,7.229,1.49,12.445-2.047c6.884-4.665,14.893-4.289,22.617-6.305
	c4.701-1.227,3.442-6.266,8.443-4.16c9.992,4.208,12.963,15.44,12.963,24.724c0,19.022,8.969,36.142,13.196,54.799v-11.289
	c0-4.842,7.001-9.354,9.091-2.785c2.565,8.059-0.766,21.568-0.766,30.258c0,16.83-9.842,12.787-15.572,24.298
	c-3.454,6.937-1.846,19.42-2.43,27.184 M142.354,154.184c-10.932-0.641-1.104,34.581,0.914,41.869
	c0.541,1.956,1.004,8.278,3.412,8.719c0.877,0.162,5.246-1.365,5.676,0.085c2.672,8.996,4.453,18.573,7.623,27.387
	c6.822,18.955,33.193,21.029,49.893,18.562c16.943-2.504,31.371-16.381,36.438-32.325 M183.115,215.986c0,0,24.34,1.025,26.979,0
	 M208.481,157.777c0,0,3.958-13.49,23.459-7.771 M152.325,157.044c0,0,17.447-18.915,30.351,3.079 M188.247,173.612l-2.639,17.302"
	/>
<path style="stroke:#000000;stroke-miterlimit:10;" d="M172.429,162.909c0,2.639-4.301,2.639-4.301,0
	C168.128,160.27,172.429,160.27,172.429,162.909z M224.519,160.27c0,3.52-4.303,3.52-4.303,0
	C220.218,157.631,224.519,157.631,224.519,160.27z"/>
</svg>
