<svg xmlns="http://www.w3.org/2000/svg" width="1600" height="900" viewBox="0 0 1600 900"><path d="M0 0h1600v900h-1600z"/><g><circle cx="633.779" cy="463.59" r="143.791" fill="#777"/><circle cx="633.779" cy="463.59" r="129.3"/><path d="M1399.989 910c0-243.21-352.725-383.029-352.725-383.029s-31.9 178.468-65.712 205.033M443.5 708.485c-45.253-15.711-250.575-54.693-291.771-133.965-28.186-54.238-9.384-138.971 45.426-170.367 94.617-54.198 161.985 11.029 257.441 18.347M893.144 656.79c50.77-14.989 86.119-42.941 114.397-87.386M539.666 476.955c0 48.639 39.358 87.997 87.997 87.997" stroke="#fff" stroke-miterlimit="10" fill="none"/><circle cx="684.917" cy="412.722" r="9.258" stroke="#fff" stroke-miterlimit="10" fill="none"/><path stroke="#fff" stroke-miterlimit="10" fill="none" d="M892 404.5h41M884.771 358.935l27.948 8.856M810 556.5h89M454.313 425.198s11.146-64.278 21.223-78.843l2.776-4.793c11.368-16.684 26.068-15.306 26.068-20.527 0-7.129.098-61.535.098-61.535h35.022v-192h150v193h176.5l1.5 79.5v83.34s-17.036 63.599-24.282 78.612c-7.245 15.014-54.015 52.202-54.015 52.202l92.297 54.339v291.507M483.5 898v-141.183l-41-42.06v-76.257h285.5M884.771 607.38M768.109 259.5c46.376-37.903 114.852-35.737 172.171-20.475 113.209 30.145 43.747 134.402 106.475 175.274 40.345 26.288 21.295-98.821 19.206-111.757-8.101-50.167-29.822-94.418-69.585-126.978-112.184-91.861-249.297-30.583-305.876 83.936M512.5 756v142M846 498.5h12M455.063 424.948"/><circle cx="611.362" cy="257.629" r="30.716" stroke="#fff" stroke-miterlimit="10" fill="none"/><path stroke="#fff" stroke-miterlimit="10" fill="none" d="M857.5 756v142M1068 516.5s28.5 1.5 28.5-17.892v-84.527c0-16.906-24.288-16.789-24.288-16.789M400.801 412.723s7.01 114.724 31.013 132.924"/></g></svg>