<svg xmlns="http://www.w3.org/2000/svg" width="800" height="450" viewBox="0 0 800 450"><path d="M0 0h800v450h-800z"/><g><ellipse cx="336.714" cy="231.918" rx="71.855" ry="71.933" fill="#777"/><ellipse cx="336.714" cy="231.918" rx="64.614" ry="64.684"/><path d="M719.607 455.242c0-121.67-176.266-191.616-176.266-191.616s-15.941 89.282-32.837 102.571M241.627 354.432c-22.615-7.86-125.218-27.361-145.805-67.019-14.085-27.133-4.689-69.522 22.7-85.229 47.282-27.113 80.948 5.518 128.649 9.179M466.325 328.57c25.371-7.498 43.036-21.482 57.167-43.716M289.684 238.604c0 24.333 19.667 44.022 43.974 44.022" stroke="#fff" stroke-miterlimit="10" fill="none"/><ellipse cx="362.269" cy="206.471" rx="4.626" ry="4.632" stroke="#fff" stroke-miterlimit="10" fill="none"/><path stroke="#fff" stroke-miterlimit="10" fill="none" d="M465 202.5h21M462.141 179.563l13.966 4.431M425 278.5h44M247.028 212.593s5.571-32.096 10.606-39.382l1.389-2.369c5.681-8.346 13.027-7.301 13.027-9.913 0-3.567.049-30.429.049-30.429h17.4v-97h75v97h88.26l.74 39.59v41.692s-8.509 31.816-12.13 39.327c-3.62 7.511-26.992 26.115-26.992 26.115l46.122 27.183v145.593M261.5 449v-70.39l-20-21.041v-38.069h142.5M462.141 303.852M403.842 129.819c23.175-18.961 57.394-17.877 86.038-10.243 56.573 15.081 21.861 67.237 53.208 87.684 20.161 13.151 10.642-49.437 9.597-55.908-4.048-25.097-14.901-47.235-34.772-63.523-56.061-45.956-124.58-15.3-152.853 41.989M276.5 378v71M443 249.5h6M247.406 212.587"/><ellipse cx="325.512" cy="128.884" rx="15.349" ry="15.365" stroke="#fff" stroke-miterlimit="10" fill="none"/><path stroke="#fff" stroke-miterlimit="10" fill="none" d="M448.5 378v71M553.48 258.388s14.02.75 14.02-8.951v-42.286c0-8.458-12.025-8.399-12.025-8.399M220.29 206.471s3.503 57.393 15.498 66.498"/></g></svg>