<svg xmlns="http://www.w3.org/2000/svg" width="800" height="450" viewBox="0 0 800 450"><path d="M0 0h800v450h-800z"/><g><circle cx="396.711" cy="220.156" r="73.173" fill="#385E9D"/><path d="M579.565 60.324h-334.767v155.202h26.956c20.652-47.824 70.193-80.685 128.037-80.685s107.384 32.861 128.036 80.685h51.738v-155.202zm-362.739 329.352h335.668v-155.201h-26.443c-20.652 47.824-70.193 80.685-128.036 80.685s-107.384-32.861-128.037-80.685h-53.152v155.201zm-33.387-328.45h36.996v154.299h-36.996v-154.299zm396.126 174.151h36.996v154.299h-36.996v-154.299z" stroke="#fff" stroke-miterlimit="10" fill="none"/><path d="M347.665 176.725v92.94h41.507v-14.509s9.203 11.346 13.364 13.594c3.11 1.681 13.996 2.659 13.996 2.659s12.172-1.127 16.013-2.365c2.454-.791 9.189-4.729 9.189-4.729l-.578-40.489s-12.997 5.616-20.978 4.432c-3.879-.575-9.246-7.446-11.524-10.639-2.774-3.893-7.683-17.512-7.683-17.512s-5.541-10.535-10.049-16.458c-4.404-5.786-14.48-6.926-14.48-6.926l-28.777.002zM440.872 178.82s-26.871.056-28.99 23.354c-2.255 24.803 27.38 25.769 28.965 10.79l.025-34.144z" fill="#fff"/><circle cx="430.219" cy="209.296" r="10.066" fill="#385E9D" stroke="#fff" stroke-miterlimit="10"/></g></svg>