<svg xmlns="http://www.w3.org/2000/svg" width="1600" height="900" viewBox="0 0 1600 900"><path d="M0 0h1600v900h-1600z"/><g><circle cx="793.422" cy="440.311" r="146.346" fill="#385E9D" stroke="#fff" stroke-miterlimit="10"/><path d="M1159.13 120.647h-669.533v310.403h53.911c41.304-95.647 140.387-161.37 256.073-161.37 115.687 0 214.769 65.723 256.072 161.37h103.477v-310.403zm-725.478 658.706h671.337v-310.404h-52.886c-41.304 95.647-140.387 161.37-256.072 161.37-115.687 0-214.768-65.723-256.074-161.37h-106.305v310.404zm-66.773-656.901h73.992v308.599h-73.992v-308.599zm792.251 348.302h73.991v308.599h-73.991v-308.599z" stroke="#fff" stroke-miterlimit="10" fill="none"/><path d="M695.329 353.45v185.881h83.015v-29.019s18.406 22.692 26.729 27.188c6.22 3.361 27.991 5.318 27.991 5.318s24.345-2.254 32.026-4.729c4.908-1.581 18.378-9.457 18.378-9.457l-1.156-80.979s-25.993 11.233-41.955 8.865c-7.759-1.149-18.491-14.892-23.048-21.279-5.549-7.786-15.366-35.023-15.366-35.023s-11.081-21.069-20.098-32.916c-8.809-11.572-28.961-13.852-28.961-13.852l-57.555.002zM881.744 357.64s-53.742.112-57.98 46.708c-4.51 49.606 54.76 51.537 57.93 21.58l.05-68.288z" fill="#fff"/><circle cx="860.438" cy="418.591" r="20.133" fill="#385E9D" stroke="#fff" stroke-miterlimit="10"/></g></svg>