<svg xmlns="http://www.w3.org/2000/svg" width="800" height="450" viewBox="0 0 800 450"><path d="M0 0h850v450h-850z"/><g><path stroke="#fff" stroke-miterlimit="10" fill="none" d="M849.5 0v450M813.5 0v450M777.5 0v450M741.5 0v450M705.5 0v450M669.5 0v450M633.5 0v450M597.5 0v450M561.5 0v450M525.5 0v450M489.5 0v450M453.5 0v450M417.5 0v450M381.5 0v450M345.5 0v450M309.5 0v450M273.5 0v450M237.5 0v450M201.5 0v450M165.5 0v450M129.5 0v450M93.5 0v450M57.5 0v450M21.5 0v450"/></g><g><path stroke="#fff" stroke-miterlimit="10" fill="none" d="M831.5 74v282M795.5 74v282M759.5 74v282M723.5 74v282M687.5 74v282M651.5 74v282M615.5 74v282"/></g><g><g clip-rule="evenodd" stroke="#52C0A7" stroke-miterlimit="10"><path d="M1 109.595c2.708-1.906 6.519-1.634 8.835-4.7.367-.487 3.878 1.402 5.899 2.403 1.652.702 3.311 1.391 4.954 2.114.674.299 1.277.875 1.971.99 5.979.996 12.113 1.41 17.919 3.018 4.455 1.232 8.699 3.623 12.664 6.097 2.53 1.582 4.089 2.966 6.362-.3.841-1.208 3.111-1.436 4.739-2.084 1.209-.484 2.504-.796 3.637-1.414 1.72-.94 3.334-2.078 5.029-3.152l2.511 2.868 2.536-4.967c1.669 2.301 3.134 4.326 4.792 6.61l2.893-3.197.838 3.689c.395.081.762.25.834.165 3.339-3.868 5.982-1.847 9.343.416 2.861 1.924 6.69 2.369 10.004 3.689 1.402.561 2.578 1.687 4.078 2.709l-2.853 3.578c4.127 2.513 8.066 1.142 12.248.074l2.415 3.103 2.488-2.741-2.051-2.877c2.031-3.269 5.819-4.045 7.916-1.592 3.424 4.004 7.675 5.733 12.909 5.06.862-.109 1.74-.119 2.608-.192.108-.009.207-.134-.294-.644.989-1.409 1.979-2.819 2.966-4.229l4.485 4.744c.483-.597 2.086-1.865 2.697-3.501 1.134-3.043.598-5.994-1.491-8.756-4.133-5.458-3.991-10.606.117-16.581 5.453 1.286 9.302 10.058 6.938 16.206 4.496.251 3.864 3.635 3.847 7.63 1.371-1.789 2.196-2.864 3.786-4.933.753 2.889 1.386 5.053 1.876 7.251.435 1.956.712 3.947 1.161 6.5 3.813-4.257 4.183-5.575 5.33-17.578 3.907.034 8.201.796 9.148 4.734 1.036 4.301.808 9.208-.104 13.589-.806 3.866-6.048 5.601-9.837 4.151-1.181 3.122-2.196 6.322-3.597 9.345-1.012 2.179-1.946 4.715-5.145 4.769-.625.011-1.469.562-1.819 1.115-3.068 4.865-6.343 9.637-8.931 14.752-1.24 2.444-1.153 5.567-1.615 8.394-.076.466.024 1.366.206 1.411 4.666 1.139 3.751 5.899 5.598 8.841l.538-.991c2.841 1.166 6.058 1.832 8.439 3.612 3.809 2.851 7.261 5.945 12.408 6.074.625.015 1.423 1.81 1.763 2.9 1.028 3.3 1.636 6.748 2.9 9.942.496 1.259 2.292 2.001 3.499 2.978.793-1.474 2.283-2.966 2.239-4.416-.089-3.027-.988-6.03-1.632-9.477-.003.001.588-.411 1.206-.785 6.097-3.703 7.358-9.298 2.944-14.812-1.626-2.031-1.669-3.419-.466-5.56.709-1.261.674-3.027.677-4.567.003-1.352-.528-2.702-.608-4.065-.122-2.071-.062-4.154-.081-6.231 1.974.228 4.081 1.011 5.896.573 4.888-1.18 7.102 1.615 9.36 5.091.581.896 2.414.976 4.14 1.6.017 4.604-.445 9.906 5.829 13.232l6.304-10.026c1.647 6.562 6.444 11.164 7 18 .178 2.199 4.167 4.069 6.375 6.132 1.352 1.264 2.646 2.592 3.941 3.916.668.685 1.246 1.461 1.933 2.128 2.098 2.029 2.102 5.678-.212 7.515-1.24.982-3.125 1.277-4.14 2.404-4.539 5.052-10.191 4.145-15.888 3.374-4.357-.59-5.921 3.581-8.776 5.468-2.01 1.327-3.083 4.073-4.396 6.441 4.366-3.25 7.387-9.538 14.716-6.684-2.345 4.327-1.759 8.94 1.03 10.622 2.75 1.659 4.793 1.014 7.297-2.519l2.064 3.112c-4.769 2.622-9.426 5.181-14.08 7.742l-.91-.615c.758-1.569 1.517-3.142 2.799-5.8-2.005.912-3.537 1.527-4.987 2.296-1.969 1.041-3.861 2.225-5.811 3.306-3.297 1.832-3.72 4.502-1.171 6.904-2.904 1.341-5.839 2.694-9.042 4.172-.939 2.226-1.918 4.792-3.142 7.237-.251.496-1.431.524-2.374.831 0 .226-.172.808.027 1.198 2.931 5.709-.346 8.494-4.819 11.134-2.286 1.35-4.503 3.309-5.89 5.528-1.016 1.627-1.044 4.187-.764 6.228.332 2.424 1.719 4.69 2.166 7.115.326 1.765-.13 3.676-.24 5.523l-1.767.415c-1.312-2.771-2.971-5.437-3.842-8.338-.87-2.9-.608-5.896-5.373-4.786-2.165.505-4.779-1.143-7.233-1.559-1.548-.262-3.377-.506-3.387 2.186 0 .277-2.559 1.106-3.587.732-5.729-2.096-10.767-.799-14.185 3.993-.216.306-.538.65-.536.977.011 7.101-3.743 14.668 2.099 21.037 1.469 1.601 4.061 3.172 6.048 3.065 3.033-.162 6.818 0 7.866-4.688.999-4.463 5.061-2.82 8.534-3.377-1.513 5.03-2.901 9.659-4.487 14.937 2.465-.192 4.598-.336 6.729-.53 4.569-.415 6.32 1.497 5.679 5.96-.523 3.665-1.662 7.688 2.354 10.167 1.323.818 3.252.767 4.92.887 1.879.132 4.243-.71 5.571.149 3.105 2.004 4.102-.056 5.646-1.88 1.087-1.282 2.371-2.504 3.804-3.364 1.843-1.11 3.92-1.827 6.397-2.941l-.99 4.224c3.695-3.608 6.181-1.235 9.367-.128 2.446.851 5.671 2.301 9.178.614 1.506-.724 4.897 1.614 6.986 3.166 2.979 2.21 5.464 5.082 8.35 7.438.822.669 2.33.816 3.478.713 5.45-.5 10.113 2.338 11.867 7.479.702 2.059 1.288 4.154 2.251 7.283 1.642.434 4.959.766 7.748 2.161 5.022 2.507 9.947 4.742 15.728 4.886 1.481.037 2.925 1.765 4.372 2.737 1.03.69 1.946 1.692 3.076 2.066 1.91.629 4.208.816 4.024 3.482-.182 2.622-.255 5.526-1.434 7.743-1.673 3.138-4.384 5.709-6.507 8.626-.684.942-1.352 2.251-1.273 3.335.504 6.861-1.954 12.957-4.785 18.915-.667 1.401-2.215 2.694-3.669 3.341-2.688 1.199-5.72 1.627-8.401 2.843-3.572 1.619-5.342 4.228-6.083 8.567-.726 4.244-3.829 8.107-6.041 12.052-.956 1.702-2.351 3.154-3.442 4.788-1.767 2.635-3.454 4.585-7.342 4.46-11.281-.374-22.58-.132-33.872-.132h-3.78c.275-5.227.314-10.298.871-15.315.602-5.431 1.786-10.792 2.514-16.214.382-2.838.24-5.741.492-8.601.339-3.783-1.71-6.438-4.697-7.73-6.56-2.838-9.986-8.009-12.831-14.182-2.046-4.443-5.307-8.312-7.597-12.661-.969-1.841-2.306-4.313.246-6.358.751-.602 1.293-1.463 1.95-2.228-2.951-1.869-2.483-6.337.63-9.23 6.934-6.436 6.627-10.69 2.584-18.344-.296-.559-1.808-1.163-2.07-.94-1.051.893-1.832 2.104-3.079 3.65-3.438-1.935-7.449-3.963-11.164-6.433-1.091-.728-1.288-2.735-2.01-4.098-2.135-4.027-6.577-4.07-10.064-5.779-1.949-.957-3.967-1.948-5.603-3.333-2.049-1.739-3.877-2.084-6.693-1.917-3.479.206-7.132-1.395-10.604-2.532-2.458-.807-4.985-1.813-7.052-3.318-2.567-1.872-5.37-3.041-5.276-7.898.062-3.421-4.643-6.913-7.161-10.411-3.534-4.904-6.979-9.871-10.542-14.75-.952-1.304-2.196-2.392-3.308-3.577l-1.498 1.082c3.41 8.127 9.438 14.935 13.008 22.982l-1.028.693c-1.771-2.59-3.346-5.346-5.374-7.716-1.567-1.832-3.703-3.179-5.883-4.99 2.065-1.883.964-3.255-.651-5.203-2.008-2.419-3.023-5.631-4.73-8.337-1.147-1.814-2.447-4.2-4.208-4.812-3.427-1.196-5.088-3.735-6.583-6.469-2.005-3.668-4.164-7.398-5.256-11.379-1.008-3.665-.794-7.691-.946-11.564-.233-5.895.327-11.919-.781-17.631-.444-2.29-4.434-3.869-6.768-5.825-.778-.655-1.413-1.476-2.75-2.895 8.681.606 10.89 6.853 14.312 12.709.426-3.655.021-6.202-2.756-7.984-2.504-1.609-4.955-3.3-7.403-4.994-.59-.41-1.469-.928-1.545-1.488-.769-5.711-5.227-9.606-7.179-14.771-1.253-3.324-4.082-6.021-5.605-9.28-1.898-4.067-4.123-6.809-9.167-6.63-1.454.051-3.168-1.849-4.436-3.169-3.189-3.316-6.891-4.933-11.542-5.249-2.297-.157-4.422-2.116-6.752-2.864-1.088-.349-3.546.144-3.576.434-.506 5.226-5.593 4.103-7.935 6.655l-1.403-.755c.851-2.951 1.698-5.898 2.378-8.265-2.806 1.694-5.742 6.956-5.85 10.429-.037 1.195-.997 2.564-1.904 3.493-3.414 3.497-6.879 6.958-10.55 10.18-.969.852-2.737.801-4.136 1.161v-2.253c3.379-3.305 7.902-5.89 7.363-10.822-2.604-.691-4.984-1.321-7.363-1.954.004-22.79.004-45.585.004-68.378zm190.036 125.95c-.486-3.929-2.753-5.793-5.785-5.593-3.857.253-8.137.638-11.322 2.518-2.579 1.522-2.062 10.307.257 13.354.74-1.743 2.094-3.352 1.746-4.387-1.511-4.499.474-7.362 3.751-9.865 3.621 1.056 3.843 3.361 1.721 7.328 4.029-3.732 2.495 1.411 4.595 1.274.527-1.716 1.094-3.553 1.639-5.32l3.398.691zm-19.647-9.003c1.485 4.127 5.569.638 8.403 2.06.134-4.354-2.519-6.879-5.856-7.781-5.415-1.46-7.031 4.499-11.051 6.042l.479 1.281c2.484-.495 4.969-.991 8.025-1.602zm20.781 14.435c-3.104 1.163-6.213 2.33-9.694 3.631 3.508 1.869 7.016.62 9.694-3.631zm7.298-3.959c-2.748.611-5.178 1.149-7.61 1.687 6.622 1.069 6.622 1.069 7.61-1.687zM348.167-2.371c-2.226 2.816-4.814 5.422-6.582 8.5-1.823 3.172-3.676 5.84-7.673 6.656.962.35 1.922.7 3.217 1.174-3.201 12.635-7.875 25.244-1.959 37.937-2.518 1.5-4.785 2.851-6.087 3.625 1.35 4.382 2.644 7.881 3.425 11.492.271 1.25-.847 2.751-1.104 4.18-.176.973-.124 2.06.125 3.02.41 1.553 1.066 3.044 1.715 4.83l-4.282 1.206c2.902 5.971 2.766 6.205-4.626 8.331.785 2.561 1.575 5.139 2.364 7.719l-.869.415-3.675-2.262-.803.443c.284.763.337 1.84.882 2.235 4.052 2.917 5.236 7.075 5.468 11.674-4.842 4.069-5.43-1.778-7.62-3.346-.761 2.324-1.463 4.472-2.249 6.881 2.554.223 5.066.439 8.512.741-6.501 6.363-11.679 12.78-20.692 13.954-1.577.206-3.591 2.033-4.225 3.592-2.461 6.042-6.815 9.665-12.873 11.556-3.72 1.161-5.394 3.721-5.301 7.604.028 1.092-.023 2.584-.685 3.231-4.823 4.721-3.096 11.331-5.115 16.822-.371 1.005-1.221 2.347-2.065 2.528-.921.197-2.12-.722-3.148-1.253-1.454-.752-2.849-2.233-4.292-2.263-3.015-.067-4.127-1.897-5.172-4.1-1.441-3.03-2.986-6.018-4.261-9.115-.938-2.275-1.495-4.705-2.262-7.054-.721-2.217-1.664-4.376-2.187-6.635-.451-1.953.101-4.299-.768-5.961-1.619-3.092-.568-5.758.38-8.514.387-1.112 1.072-2.398 2.008-3.001 3.435-2.209 3.279-5.457 3.233-8.878-2.704.558-4.518 5.49-7.27 1.94-1.416-1.829-1.104-5.379-.686-8.009.124-.775 3.288-1.061 5.174-1.606-1.916-1.223-1.889-5.542-6.389-4.812-.325.053-1.748-2.47-1.403-3.188 1.841-3.818 1.457-7.333-.198-11.085-2.442-5.539-3.026-11.698-6.609-17-1.45-2.146-1.805-5.126-4.005-7.39-3.767-3.875-8.249-3.101-12.651-2.879-8.585.43-10.028-.417-13.621-9.459 2.806-1.327 5.648-2.672 8.701-4.114-2.172-.7-4.399-1.394-6.609-2.135-3.481-1.172-7.133-4.796-6.612-7.037.376-1.629 1.327-3.47 2.603-4.473 3.932-3.084 8.164-5.782 12.24-8.689 4.604-3.284 4.642-6.041.22-9.621-.873-.706-1.736-1.419-2.703-2.212.959-6.758 6.027-11.037 9.591-16.191 39.822-.004 79.647-.004 119.473-.004zM221.924-2.371c-4.017 5.968-8.552 11.657-9.988 19.002-.143.734-.879 1.526-1.554 1.958-3.517 2.258-7.102 4.407-10.223 6.322-.115 1.375-.764 3.011-.259 4.12 2.604 5.714.156 9.506-3.92 13.352-2.022 1.91-3.202 4.899-4.262 7.596-1.523 3.864 2.212 1.963 3.458 2.789.316 4.786-5.082 8.698-9.313 6.995-1.599-.642-3.503-.583-5.274-.719-3.639-.279-7.305-.3-10.915-.776-1.774-.233-2.464-4.873-.737-5.55 3.972-1.563 3.231-4.354 2.739-7.341-.172-1.043-.029-2.138-.029-4.036l6.226 4.026.888-.678c-1.773-2.346-3.457-4.77-5.347-7.018-2.302-2.739-.274-4.709 1.312-6.297 4.666-4.673 4.673-5.041 1.752-10.688-1.258-2.434-1.544-5.368-2.529-9.032 3.532.551 6.128.955 9.172 1.427l3.528-5.054c-3.791-.282-6.66-.748-9.507-.648-4.695.166-6.942-1.037-8.736-5.468-.558-1.378-.897-2.853-1.335-4.281 18.284-.001 36.568-.001 54.853-.001zM161.809-2.371c1.293 5.195 4.066 9.235 8.762 12.032 1.08.644 1.759 2.302 2.19 3.634 1.209 3.729 2.196 7.532 3.301 11.422-1.662 3.171-3.74 6.717-5.395 10.449-1.028 2.319-2.683 3.565-4.882 3.141-2.143-.413-4.727-1.237-6.021-2.791-2.796-3.351-2.501-7.395-.501-11.258-5.229-.791-9.069-6.951-7.478-12.675 1.026-3.695 3.062-7.099 4.488-10.693.385-.972.199-2.168.276-3.262l5.26.001zM605.915-2.371c2.064 4.379 4.042 8.804 6.219 13.124 2.618 5.192 3.181 10.631 2.588 16.327-.337 3.228-3.062 5.579-5.973 4.361-5.198-2.172-9.473-5.272-10.476-11.55-.517-3.242-1.925-6.342-2.93-9.507l-1.88-.252c3.15-4.166 6.3-8.336 9.446-12.502l3.006-.001z" fill="none"/><path d="M1 177.976l7.363 1.954c.539 4.932-3.984 7.517-7.363 10.822v-12.776z" fill-rule="evenodd"/><path d="M208.4 450c.657-.217 1.312-.621 1.968-.623 10.696-.043 21.393-.041 32.089 0 .67.002 1.34.406 2.01.623h-36.067zM705.106 450c.903-.219 1.804-.621 2.708-.627 7.814-.053 15.629-.055 23.442 0 1.052.008 2.104.408 3.156.627h-29.306zM631.488 57.461c5.898-3.472 9.634-2.367 14.153 2.995 3.195 3.788 2.866 8.521-.838 12.018-2.586 2.44-5.269 4.776-8.601 7.786 3.463 1.493 5.944 2.562 8.427 3.636l.557-1.022c.416 1.237.834 2.472 1.333 3.949 3.625-3.652 7.52-1.986 11.335-1.173.328.068.84.338.875.573 1.009 6.863 6.84 2.618 10.225 5.481l.583-7.186c3.817 2.038 8.885.044 11.286 4.66 1.098 2.111 2.029 4.734 1.821 7.014-.494 5.419.596 8.41 5.63 11.536.404-1.175.794-2.285 1.161-3.4.375-1.141.729-2.293 1.234-3.892 2.235 2.506 4.451 3.752 7.191 1.629.086-.067.29-.114.352-.062 3.081 2.527 6.417-.058 10.016.548-.312-1.798-.628-3.458-.884-5.133-.5-3.268 1.844-5.512 5.026-4.776 2.799.646 5.604 1.3 8.364 2.095 5.173 1.49 10.765 1.563 13.612 7.984 1.853 4.171 6.208 6.029 11.419 4.307 1.946-.644 4.474-.136 6.576.435 2.983.809 3.133 3.411 3.063 6.064-.093 3.57 1.439 4.434 4.87 3.671 2.221-.494 4.623-.223 6.942-.187.725.011 1.545.7 2.156.52 4.714-1.387 6.998 1.488 8.822 5.136 2.407-.615 3.408-1.503 2.32-4.007-.608-1.408-.398-3.171-.664-5.872 6.395 3.515 13.111.662 18.294 4.726 1.015.794 2.177 2.193 2.194 3.335.181 9.131.101 18.268.101 27.509l-2.141.445c.901 3.785 1.804 7.574 2.7 11.326-9.646.801-15.386 6.472-21.025 12.709-1.02-.833-2.05-1.674-2.477-2.026-4.551 1.299-8.569 2.447-13.215 3.774-.408.847-1.136 2.554-2.023 4.171-1.077 1.961-2.714 3.539.439 5.565.925.592.406 4.14-.157 6.129-.538 1.894-1.999 3.525-2.725 5.433-3.639 5.221-7.275 10.441-11.526 16.539-1.375-7.989-3.784-14.812-2.297-21.924.692-3.313 1.465-7.069 5.679-8.367.901-.278 1.495-1.599 2.2-2.463 2.767-3.389 5.222-7.099 8.361-10.096 2.823-2.693 3.41-5.832 3.189-9.829-2.781 3.393-5.565 6.788-8.807 10.74-.964-2.648-1.594-4.372-2.2-6.029-6.936.344-12.792 7.258-10.488 12.515-1.317.334-2.59.698-3.881.976-1.329.289-2.673.494-3.998.736-1.089-4.332-2.102-4.709-6.048-2.678-.823.422-1.865.558-2.808.571-1.371.02-2.744-.286-4.116-.288-4.996-.013-9.396.757-12.713 5.435-3.663 5.166-8.181 9.724-12.095 14.274 1.472 1.365 2.697 2.645 4.081 3.717.604.468 1.543.721 2.321.699 1.504-.042 3.58-1.063 4.386-.411 2.244 1.826 3.679 4.336 2.809 7.603-.765 2.857-1.35 5.773-1.855 8.69-1.663 9.568-7.67 16.596-13.875 23.423-.877.966-3.427.211-4.779.987-2.401 1.375-4.61 3.173-6.645 5.067-1.347 1.251-1.993 3.323-3.422 4.414-1.787 1.36-2.453 2.276-.703 4.116 1.014 1.067 1.955 2.364 2.451 3.73 2.201 6.055 1.375 8.497-5.808 9.483-.219-1.922-.614-3.846-.618-5.766-.002-3.659.093-3.659-3.487-4.983.198-.624.416-1.262.604-1.905.21-.708.392-1.426.594-2.17-3.338-3.364-5.916-.263-9.236 1.268l1.269-5.699-.784-.649c-1.516 1.115-3.066 2.189-4.537 3.366-.569.458-.875 1.251-1.453 1.695-1.138.873-4.574.308-2.735 2.904 1.059 1.492 2.438 5.545 6.237 2.565.791-.62 2.861.384 4.841.724-3.11 2.535-5.66 4.615-7.828 6.381 2.218 3.887 5.465 7.069 5.487 10.275.024 3.589 2.505 7.653-1.545 11.519-3.457 3.296-4.445 9.05-9.294 11.416-3.637 1.775-7.482 3.123-11.194 4.752-1.79.788-3.484 1.787-5.438 2.803-.853-2.511-2.605-3.787-5.718-1.604-4.301 3.011-4.901 4.748-2.529 8.435 2.114 3.283 4.672 6.372 6.223 9.9 1.542 3.511.603 6.718-3.315 8.751-2.119 1.099-3.796 3.038-4.884 3.941-4.261-4.014-8.117-7.644-12.313-11.594-1.05 3.378-2.941 6.338-2.517 8.915.479 2.888 2.595 5.921 4.833 7.99 2.444 2.263 4.973 3.847 4.783 7.79-.086 1.771 1.232 3.61 1.954 5.526-4.28-.23-7.998-4.531-9.521-9.733-.707-2.419-2.573-4.489-3.807-6.772-.397-.737-.817-1.782-.592-2.484 2.132-6.702-1.19-12.597-2.322-19.269-1.04.551-1.615.958-2.252 1.175-1.338.453-2.707.804-4.064 1.197-.157-1.154-.266-2.319-.483-3.463-.209-1.087-.331-2.258-.837-3.208-1.779-3.354-3.639-6.671-5.646-9.893-.362-.58-1.698-1.049-2.358-.845-1.472.453-2.735 1.75-4.205 2.011-2.69.481-4.157 1.725-5.738 4.094-1.849 2.767-5.105 4.612-7.818 6.775-1.983 1.58-4.174 2.911-6.064 4.585-.71.63-1.285 1.982-1.157 2.896.931 6.572-.965 12.065-6.46 17.239-5.098-11.067-10.509-21.567-11.108-33.787-5.387 1.387-5.149 1.269-7.683-3.888-.955-1.944-3.767-2.924-4.899-4.838-1.604-2.712-3.729-2.223-6.111-2.245-4.457-.045-8.913-.351-13.364-.631-2.17-.133-4.23-.461-4.797-3.249-.078-.386-1.928-.803-2.792-.574-4.165 1.108-9.032-.762-11.265-4.587-.566-.968-.759-2.426-1.572-2.913-1.171-.7-2.748-.869-4.155-.88-.238-.002-.85 1.999-.653 2.944.266 1.278 1.069 2.481 1.784 3.63 1.126 1.819 2.37 3.566 3.714 5.569l.578-.545.95-.879c.271.573.546.963.647 1.398.284 1.234.509 3.561.733 3.559 2.005-.026 4.171-.087 5.96-.885 1.733-.773 3.078-2.426 4.445-3.569-.087 2.727 1.001 4.838 4.355 5.898 3.854 1.219 4.455 3.654 1.839 6.705-2.806 3.271-4.332 7.711-8.638 9.652l-.713.824c-8.05 3.695-16.099 7.39-24.187 11.002-1.729.771-2.991.518-3.463-1.837-.958-4.797-1.377-9.828-4.869-13.762-.966-1.091-1.773-2.324-2.638-3.502-.657-.892-1.75-1.748-1.86-2.712-.772-6.791-6.339-11.002-8.878-16.824-.364-.836-1.291-1.426-1.959-2.135-.799.444-1.71.949-3.083 1.716.838 1.78 1.834 4.152 3.048 6.408 1.641 3.049 3.513 5.973 5.146 9.024.435.815.219 1.953.545 2.858.879 2.456 2.008 4.827 2.83 7.304 1.989 6.01 7.201 9.309 11.195 13.641.373.409.134 1.324.345 1.95.701 2.105 1.346 4.167 4.435 3.372 4.464-1.15 8.989-2.061 14.256-3.25-.422 2.275-.527 4.443-1.242 6.386-2.894 7.891-7.2 14.667-14.303 19.69-5.591 3.956-10.662 9.101-12.514 15.72-.994 3.545 1.293 7.951 1.851 12 .6 4.331 1.312 8.717 1.128 13.042-.064 1.551-2.479 3.131-4.027 4.453-1.497 1.275-3.275 2.213-4.903 3.335-3.614 2.484-5.32 5.218-2.991 9.871 1.531 3.069.677 6.312-3.341 7.662-1.997.669-2.996 1.72-2.851 4.377.312 5.694-4.248 9.281-7.127 13.499-3.456 5.062-8.223 7.739-14.701 7.184-2.086-.176-4.302 1.012-6.441 1.637-3.901 1.136-6.213-.012-5.952-3.978.328-4.955-2.735-8.354-4.256-12.451-1.453-3.92-3.736-7.755-4.15-11.784-.529-5.197-2.62-9.714-5.016-13.88-3.298-5.736-1.692-10.667.967-15.482 1.471-2.66 2.101-4.61.843-7.564-1.324-3.099-1.547-6.646-2.559-9.9-.538-1.733-1.377-3.676-2.694-4.81-4.356-3.745-5.437-7.89-3.929-13.539 1.58-5.93-.248-7.453-6.185-6.91-.953.089-2.628-.364-2.861-.983-1.806-4.783-5.748-4.247-9.093-3.203-4.984 1.56-9.694 3.867-15.121 2.188-.626-.194-1.549.088-2.167.442-4.33 2.474-7.421.41-11.133-1.999-4.613-2.993-6.444-8.021-10.165-11.462-3.291-3.042-5.608-6.364-5.815-11.397 2.782-3.521 3.399-8.836 1.596-13.097-1.622-3.833-.044-6.241 1.088-8.921 1.31-3.103 3.231-6.067 5.411-8.648 2-2.368 4.675-4.178 7.097-6.175 1.719-1.417 2.517-2.876 2.527-5.382.012-2.351 1.269-4.999 2.722-6.965 1.908-2.583 4.547-4.63 7.237-7.266 4.5 2.76 9.267 1.032 14.104-1.72 1.761-1.002 4.033-1.253 6.113-1.517 4.865-.62 9.758-1.032 14.637-1.536 2.35-.243 4.146 3.318 3.271 6.706-.238.924-.85 1.751-1.785 3.597 2.773 1.067 5.423 2 7.995 3.109 1.659.714 3.193 1.708 4.801 2.541 2.792 1.452 5.554 2.98 8.45 4.18.351.149 1.95-1.427 2.123-2.362.741-3.964 3.266-5.346 6.796-3.917 4.428 1.792 9.017 3.19 13.552 4.715.432.144 1.128.167 1.435-.079 2.64-2.14 5.419-1.314 8.094-.312 2.893 1.088 4.224-.169 4.969-2.748.998-3.445 2.387-6.829 2.914-10.343.476-3.188-.981-3.703-4.004-2.654-1.638.565-3.647.091-5.485.023-.955-.038-2.228-.669-2.8-.257-3.086 2.226-5.74-.006-7.577-1.409-2.972-2.27-3.189-7.185-1.429-10.099-2.331-.659-4.942-5.06-7.143.726l-2.969-.527c.943 2.273 1.769 4.268 2.646 6.39l-2.766 4.559c-.395-.184-1.165-.281-1.347-.662-2.097-4.377-4.086-8.805-6.139-13.203-.738-1.579-1.2-3.579-2.438-4.573-3.05-2.453-6.99-3.769-8.298-8.171-.345-1.151-2.291-1.931-3.636-2.611-.396-.202-1.812.511-1.82.822-.029 1.524-.23 3.373.523 4.521 2.976 4.522 6.8 8.273 11.567 10.984.714.405 1.252 1.124 1.563 2.3-.764-.297-1.595-.932-2.27-.799-.67.134-1.184 1.047-1.765 1.617 2.806 2.411-.46 3.605-1.181 5.194-.609 1.347-1.895 2.388-3.254 4.005l-5.304-2.321.04-.888c1.817-.275 3.629-.594 5.454-.815 2.859-.352 3.496-2.142 2.065-4.173-1.448-2.06-3.324-4.079-5.471-5.325-3.263-1.897-5.9-3.985-7.144-7.706-.935-2.792-3.06-3.279-5.443-1.484-2.113 1.593-4.052 2.866-7.1 2.018-2.262-.629-4.667-.085-4.788 3.5-.042 1.223-1.56 2.935-2.811 3.472-3.179 1.369-4.486 3.549-4.464 6.87.018 3.336-3.946 7.318-7.283 7.503-1.11.061-2.548-.147-3.254.45-2.098 1.784-3.131 1.377-4.678-.817-.641-.909-3.073-.556-4.119-.697-4.603-4.97-.308-10.385-1.524-15.466-.312-1.305-.32-2.678-.459-3.925 2.186-3.464 5.479-1.357 8.271-1.743.361-.05.745.053 1.12.082 3.051.242 6.647 2.076 8.677-1.562 1.949-3.495-.046-9.606-3.142-12.234-1.344-1.144-4.924-.78-3.651-3.559.552-1.204 3.684-1.225 6.167-1.935l-.099-1.883c3.468.03 6.542-.682 7.909-4.441.085-.233.091-.655.22-.693 4.641-1.357 5.566-5.77 7.94-9.093 1.104-1.543 4.285-1.497 6.374-2.495.903-.431 1.813-1.595 2.004-2.566.226-1.135-.265-2.44-.562-3.642-1.379-5.56-.656-7.184 4.771-10.527.199 1.88.395 3.761.621 5.921-3.079 3.447-2.904 5.1.531 8.474 3.111.302 5.437.528 7.764.755 3.922.054 7.024-5.555 11.833-1.271 3.273-2.215 5.522-4.497 4.601-8.934-.348-1.676 1.377-3.781 2.347-6.155l4.045 4.434c.799-2.921 2.141-4.907-.093-7.277-1.907-2.025-1.408-3.945 1.507-4.617 1.542-.354 3.261-.806 4.721-.461 2.629.619 4.382-.105 5.793-2.396-.892-2.866-3.164-2.694-5.403-2.196-1.446.322-2.805 1.031-4.202 1.57-4.894 1.882-8.425-.798-7.956-6.045.033-.373.257-.794.146-1.105-2.905-8.102 2.694-12.794 7.229-17.835 1.466-1.631 2.681-2.816.786-5.014-1.978-2.297-4.045-1.918-5.852-.352-1.234 1.07-2.68 2.968-2.547 4.347.401 4.05-2.19 6.208-4.473 8.595-5.917 6.188-6.208 9.248-2.514 16.75.718 1.459-.142 4.922-1.444 5.889-2.591 1.924-2.412 4.37-2.916 6.847-.544 2.678.415 6.39-4.152 6.538-.505 3.884-5.402 1.977-6.527 5.588l-2.953-3.822 4.581-1.779-5.189-15.619c-1.646 1.906-2.585 3.43-3.922 4.406-1.304.95-3.205 2.089-4.495 1.762-1.304-.328-2.891-2.237-3.114-3.651-.725-4.556-1.164-9.207-1.097-13.813.024-1.698 1.35-4.02 2.794-4.944 7.692-4.929 11.967-12.368 15.274-20.398 3.395-8.242 8.715-15.14 14.178-21.962 2.007-2.502 4.549-4.534 8.275-4.258.894.064 2.276-.961 2.752-1.847 1.388-2.597 3.306-3.265 6.178-4.165 5.558-1.74 8.277 1.5 11.87 4.238l-2.522 2.357 2.259 3.757 2.583-1.719c.314.24.583.488.886.671 2.484 1.495 4.82 3.415 7.5 4.364 4.555 1.618 12.396 9.139 12.63 12.81.322 5.003-4.26 8.292-8.819 6.346-2.638-1.128-5.286-2.23-7.953-3.284-.253-.098-.674.223-1.699.602 4.044 3.228 3.805 7.591 4.258 11.911.152 1.441 2.504 2.654 4.611 4.713-.157-3.154-.258-5.197-.405-8.197 2.277 1.403 3.481 2.291 4.812 2.904.78.357 1.763.278 2.656.395.113-.891.554-1.901.279-2.647-1.527-4.146 2.522-5.217 4.239-7.422.511-.657 2.955.191 5.423.444-.267-4.228-.569-9.069-.875-13.907 5.301.694 5.462.805 6.757 4.691-.888.595-2.561 1.272-2.51 1.773.16 1.565.974 3.062 1.533 4.584 1.3-.669 3.586-1.183 3.72-2.036.466-2.943 2.482-4.081 4.606-5.408 2.335-1.457 4.533-3.127 6.836-4.638.968-.63 2.05-1.09 3.978-2.093-.814 2.137-1.229 3.231-2.124 5.589 4.635-1.657 8.46-3.026 12.71-4.544l2.329 2.729c1.924-1.971 3.364-3.731 1.307-6.455-.481-.636-.616-2.385-.248-2.63.75-.499 1.988-.557 2.955-.392 5.084.867 8.663 4.24 12.253 7.568 1.188 1.102 2.39 2.189 3.599 3.293 2.379-3.189 1.173-6.826-3.046-9.272.043-.409.27-.951.119-1.354-3.076-8.223 2.973-14.561 4.583-21.803.294-1.32 2.279-3.462 2.962-3.28 2.216.591 5.715.113 5.613 4.08-.007.249.116.538.029.744-2.83 6.567.555 13.13.068 19.731-.203 2.785 1.302 5.659 1.504 8.526.149 2.105-.246 4.382-.961 6.381-.915 2.558-2.391 4.915-3.623 7.356 4.144 2.197 5.815-1.304 7.95-16.448-3.272-1.147-3.158-3.889-2.31-6.396 1.195-3.524 1.369-6.716-.672-9.99-.452-.721-.354-2.208.093-2.997 2.714-4.748 2.772-4.713 2.99-9.402l1.085-.124c.276 4.166.549 8.333.823 12.5l1.524.007c-1.093-3.44-.988-6.445 2.679-7.838 3.337-1.263 6.348-.846 8.609 2.719-.42-4.052-.956-7.632-1.118-11.228-.173-3.895 1.343-5.117 5.401-5.137 2.917-.018 5.833-.24 7.515-.315.819-4.096.482-8.002 2.275-10.03 2.692-3.049 6.878-4.775 10.417-7.081 1.34-.873 2.836-1.608 3.937-2.726 1.572-1.597 5.917-1.715 8.049-.204l9.993-6.217c.306-4.511 3.011-9.008 8.559-11.93l3.562 3.253-2.469 2.983c3.421.752 5.97 2.07 5.292 6.214zm-175.289 175.046l1.599-1.859c-5.702-2.193-5.699-2.19-8.994 2.707-.263.394-.706.688-.903 1.106-1.181 2.523-2.73 4.979-3.287 7.641-.252 1.205 1.214 3.681 2.396 4.067 2.01.658 4.836.885 6.557-.077 3.989-2.226 7.443-2.521 11.604-.417 2.383 1.205 5.438 1.401 8.194 1.417 1.277.006 3.331-1.307 3.623-2.396.282-1.061-.964-2.911-2.025-3.868-2.837-2.546-5.936-4.796-8.719-6.999 1.431-2.574 2.77-4.98 4.405-7.923-3.612 1.438-6.807 2.71-10.992 4.375l4.775 3.119c-2.145.958-4.022 1.793-5.731 2.554-.951-1.308-1.701-2.341-2.502-3.447zm41.632 3.629c1.894-1.394 3.737-2.754 6.284-4.634.878-3.325-.08-4.678-4.245-4.439-2.202.128-9.666 5.512-10.193 7.413-.129.453-.326 1.038-.152 1.402 2.252 4.718 4.568 9.406 6.945 14.268-1.026 2.027-3.636 4.9-1.273 7.563 1.628 1.837 4.958 2.437 7.647 2.971 2.009.399 3.704-.613 3.018-3.298-.759-2.942-1.468-5.903-2.198-8.874l4.441-.585c-1.811-1.827-1.644-5.571-4.347-3.205-2.004-2.901-3.886-5.625-5.927-8.582zM683.335 394.546c1.956-3.076 2.215-7.287 6.998-7.093.265.01.593-1.473.882-2.235 1.626.574 3.31 1.359 5.078 1.739 1.584.34 3.262.235 5.417.354-1.311 2.488-2.378 4.52-3.674 6.984 3.406 2.254 6.726 4.592 10.229 6.615.552.316 2.549-.583 2.821-1.313.812-2.174 1.176-4.528 1.569-6.835.488-2.867.828-5.757 1.234-8.636l1.057-.011c.732 1.928 1.317 3.933 2.253 5.759.612 1.193 1.983 2 2.574 3.2 1.279 2.589 2.78 5.239 3.237 8.021.425 2.576 1.466 3.955 3.632 5.106 1.232.655 2.234 1.896 3.108 3.049 1.993 2.637 3.358 6.015 5.862 7.944 4.291 3.31 4.528 8.069 4.987 12.378.389 3.654-1.254 7.539-2.118 11.292-.148.651-1.158 1.096-1.33 1.751-1.564 5.999-6.292 5.076-10.69 5.05-7.743-.049-15.482-.013-23.484-.013l.929-4.445c-2.088 1.904-3.57 3.257-5.374 4.906-1.755-4.667-4.46-7.923-9.206-8.927-.6-.127-1.248-.598-1.76-.469-5.709 1.446-12.234.652-16.572 5.943-.291.353-.781.691-1.218.754-5.296.776-10.585 1.687-15.909 2.143-2.204.188-5.071-.055-2.497-3.788.718-1.042.627-2.999.263-4.366-.926-3.459-2.165-6.84-3.38-10.217-1.746-4.854-2.403-10.092-.725-14.701.887-2.425 4.907-3.866 7.706-5.399 3.462-1.899 8.331-.962 10.643-5.217.58-1.067.832-2.342 1.526-3.311.427-.597 1.424-.765 2.132-1.188.293-.173.519-.488.738-.771 1.024-1.322 1.965-2.717 3.068-3.97 2.714-3.079 4.427-3.223 7.782-.905.573.397 1.34.508 2.212.822zM198.637 121.99c1.499-5.274-2.935-6.242-5.519-8.503-4.129 3.885-8.742 1.731-13.097.876-3.025-.598-5.904-1.987-8.807-3.12-3.054-1.193-3.124-3.183-1.102-5.5-4.918-1.759-3.545-6.181-3.137-9.011 1.046-7.221 1.515-11.037 9.279-12.321v8.924l1.234.289c.574-4.665 3.018-7.621 8.255-8.984 1.363 4.187 2.745 8.427 4.333 13.295l6.749-4.891c2.77 3.07 5.836 6.466 8.903 9.862l-.713.82c1.184-.343 2.369-.688 2.625-.765 3.314 2.603 6.567 4.45 8.827 7.132 2.077 2.47 3.402 5.739 4.361 8.873.271.885-1.906 2.518-3.599 4.592.527.296 1.462.659 2.2 1.261 3.465 2.832 8.319 4.07 10.031 8.998.27.772 2.125.992 4.252 1.893l-5.136 11.257c-2.249-2.945-3.682-5.087-5.409-6.956-.755-.813-2.12-1.061-3.206-1.566-.355 1.313-1.328 2.875-.926 3.889.657 1.645 2.031 3.149 3.427 4.334 3.794 3.222 4.417 7.234 3.542 12.564-2.575-1.509-4.748-2.786-7.649-4.489l5.157 8.081c-5.852-1.052-10.284-3.177-13.737-6.888-2.064-2.218-3.571-4.952-5.33-7.454l-.688.831c-1.893.326-3.805.966-5.678.865-1.289-.069-3.6-1.213-3.579-1.804.071-1.804.311-4.061 3.25-4.04 2.205.016 4.413-.419 5.905-.578.931-2.942 1.425-5.351 2.432-7.525 2.576-5.575 1.521-9.259-3.911-12.452-1.069-.63-2.215-1.127-3.539-1.789zM129.509 91.879c.822 2.667 2.195 5.301 2.352 8.004.314 5.508 2.84 9.326 7.246 12.325.929.631 1.813 2.19 1.71 3.216-.091.894-1.612 1.64-2.919 2.832.051.182.653 1.165.379 1.666-.505.921-1.524 2.169-2.334 2.175-1.416.006-2.809-1.067-4.259-1.243-1.995-.237-4.098-.364-6.047.012-2.652.513-5.183 1.625-7.807 2.334-2.888.784-5.862 1.726-7.392-2.296-.244-.651-1.463-1.421-2.139-1.342-3.894.463-4.084-2.71-5.718-5.658 3.786-.75 7.195-1.429 10.604-2.107l.054-1.218c-2.286-.169-4.565-.412-6.854-.484-2.326-.073-5.145 1.156-6.023-2.64l3.63-2.545-6-2.377c1.164-4.984 2.448-9.528 6.978-12.169 1.171-.683 2.537-1.034 3.815-1.54l1.295 4.08 4.101-1.59 3.193 3.498 3.295-3.829c1.31 3.286 2.445 6.127 3.577 8.971l.876-.073c-.195-1.922-.458-3.844-.555-5.774-.08-1.532.044-3.074.077-4.614l4.507.871.358 1.515zM418.783 54.604c-3.593 1.143-4.331-2.434-5.66-4.417-.915-1.365-.509-3.611-.219-5.533-4.409-5.326-6.895-11.754-8.195-18.692-1.191-6.385-1.122-6.398 5.349-10.26.247.709.336 1.453.721 1.982.639.876 1.47 1.616 2.22 2.415.726-.839 1.465-1.665 2.174-2.514.71-.854 1.384-2.438 2.077-2.439 1.062-.004 2.438.834 3.139 1.735 3.122 4.026 6.055 8.2 9.124 12.414-8.124 6.439-7.655 16.273-10.73 25.309zM514.109 108.782c-3.241-.947-7.739 2.471-9.276-3.194-.195-.718-1.484-1.246-2.364-1.653-2.625-1.227-2.34-3.432-1.53-5.382 1.711-4.128 5.341-8.169 5.221-12.155-.131-4.268 2.479-6.099 3.849-9.011.208-.442.52-.896.545-1.356.507-9.35 8.415-12.079 14.737-15.864 2.86-1.712 6.587-1.815 9.056-4.757.998-1.189 3.061-1.48 4.579-2.152 3.124 4.171 2.85 6.11-1.233 8.607-7.133 4.36-14.961 8.038-19.248 15.662-3.343 5.945-6.371 12.187-8.556 18.632-1.531 4.524 1.178 8.688 4.22 12.623zM151.924 50.375c1.899 1.013 3.71 2.001 5.546 2.949 1.14.588 2.31 1.56 3.473 1.573 3.225.04 4.156 2.053 4.201 4.587.101 6.021 6.998 10.018 12.665 7.635 2.619-1.103 5.782-1.449 8.645-1.275 2.738.164 5.604 5.079 4.304 7.636-.956 1.88-3.346 3.472-5.44 4.208-2.072.728-4.667-.178-6.872.332-5.351 1.236-10.217.172-14.75-2.548-1.169-.702-2.189-2.233-2.55-3.581-.799-2.979-.758-6.226-1.818-9.082-.569-1.527-2.522-2.971-4.172-3.59-4.357-1.639-5.4-3.552-3.232-8.844zM84.8 80.057c8.841-3.542 17.962-.619 21.581 6.038-3.319 3.976-6.507 7.765-9.648 11.594-.461.565-1.007 1.357-.958 1.999.344 4.528-3.069 5.762-6.303 7.366-.874-1.246-1.484-3.037-2.693-3.667-4.376-2.282-4.292-5.493-2.61-9.331.348-.79.418-1.698.688-2.527 1.252-3.858 3.634-7.655-.057-11.472zM704.16 376.986c2.175-3.61 1.469-5.791-3.125-7.614-2.754-1.092-5.612-1.924-9.244-3.153l-.318-2.805.979-.103-5.392-2.92c5.519-2.911 6.517-2.534 8.494 2.679.355.938 1.294 1.653 2.412 3.022 4.325-7.988 9.794-3.239 14.497-1.544 5.081 1.831 9.702 4.938 13.958 7.191-.695 6.681 4.657 8.06 7.698 11.575-4.145-.269-7.62-.949-10.124-4.455-2.537-3.549-4.631-3.171-7.443.062-.866.994-3.565.862-5.289.536-2.371-.445-4.613-1.571-7.103-2.471zM657.938 354.105c-1.626 3.316-3.447 6.09-4.368 9.133-1.187 3.941-1.486 4.174-5.34 2.841-2.34-.812-4.99-.679-7.458-1.17-2.903-.581-6.051-8.465-4.438-10.913.196-.298.494-.686.795-.743 7.727-1.431 11.721-7.997 17.548-12.486l4.524 3.745c-3.521 5.948-3.557 6.461-1.263 9.593zM121.614 67.896c.121-4.388-4.98-8.263-.399-12.941 4.207 1.596 1.702 6.317 4.352 8.978 1.234-.123 3.582-2.466 4.281 1.282.707 3.797-.673 7.186-3.312 8.077-3.47 1.176-6.794 2.793-10.275 3.935-1.569.515-3.362.346-5.052.49.68-1.409 1.285-2.864 2.082-4.204.278-.468 1.03-.655 1.565-.969l-.407-.988h-12.782c.885-2.789 1.288-4.761 2.126-6.524 1.079-2.26 2.504-4.349 3.78-6.514 2.549 1.671 5.332 3.083 7.582 5.093 1.936 1.731 2.697 4.934 6.459 4.285zM365.508 215.431c1.476-1.815 2.696-3.318 3.983-4.903l-1.812-1.126c.137-1.997.071-3.392.375-4.699.214-.908.792-1.854 1.474-2.499.672-.643 1.685-.931 2.547-1.374-.639-1.151-1.108-2.456-1.974-3.398-.606-.657-1.753-.818-2.145-.983-.908-2.5-2.146-4.493-2.255-6.547-.158-2.951.176-6.042 1.004-8.868.275-.948 2.697-1.269 5.02-2.251l-1.594 4.994 4.464.475c-.765 2.362-1.466 4.528-2.057 6.36 1.936 2.794 4.009 5.416 5.66 8.28 1.3 2.26 1.295 5.062 4.244 6.595 1.703.885-1.49 7.217-3.676 7.568-4.168.668-8.312 1.481-13.258 2.376zM495.715 388.313c2.578 3.018 1.738 6.895.479 10.958-1.88 6.077-3.659 12.198-5.168 18.376-.702 2.881-2.848 4.135-5.016 4.212-2.267.083-3.625-1.774-4.123-4.464-.59-3.184-.944-5.93 1.015-8.849.733-1.087.44-3.099.146-4.599-.773-3.921.414-5.264 3.642-7.331 3.352-2.146 5.979-5.424 9.025-8.303zM323.585 146.941l4.032-2.089-5.41-2.456c1.617-5.535 3.123-5.7 8.507-.877 1.863-1.354 3.547-3.693 6.371-1.622.233.172 1.171-.75 1.841-1.02 1.697-.682 3.424-1.285 4.788-1.788 1.011 2.871 1.814 4.964 2.478 7.099.989 3.184-1.427 4.748-3.375 6.311-5.106 4.105-10.642 5.065-16.591 1.327 3.142-3.3-1.768-3.123-2.641-4.885zM427.138 6.72c1.321 1.183 2.322 2.078 3.487 3.117.857-1.285 1.602-2.402 2.935-4.405 3.189 2.843 7.144 5.107 8.942 8.509.898 1.702-1.398 6.501-3.57 8.08-3.1 2.252-7.398 1.763-11.008-.252-.714-.4-1.128-1.361-1.634-2.097-.459-.672-.789-1.945-1.284-2.001-4.27-.481-3.248-4.391-5.113-6.752 2.653-1.541 4.894-2.837 7.245-4.199zM691.101 269.175l-2.421.453c1.625 3.118 1.014 5.465-1.833 7.546-.822-1.907-1.647-3.81-2.508-5.797 1.583-1.363 3.435-2.652 4.895-4.286 2.214-2.478 4.847-3.256 8.015-2.881.549.065 1.611-.162 1.64-.364.469-3.4 3.571-3.619 5.743-5.038 3.005-1.966 4.458-4.822 4.312-8.59-.048-1.19 1.124-2.424 1.739-3.638.803 1.025 1.946 1.938 2.313 3.099.388 1.225.264 2.74-.051 4.026-.723 2.958-2.188 5.812-2.438 8.784-.249 2.966-1.975 3.786-4.136 4.539-2.57.9-5.169 1.717-8.208 2.718l-1.833-2.496c1.863 4.877-3.894 2.907-5.031 5.259l-.198-3.334zM628.567 371.663c-4.064.712-6.258-2.427-8.253-4.785-3.178-3.753-5.443-8.263-8.316-12.297-1.63-2.29-3.706-4.269-5.576-6.389-.958-1.088-1.905-2.18-2.858-3.271l.723-1.247c2.029.949 4.217 1.662 6.055 2.9 2.99 2.015 5.128 4.921 8.682 6.599 2.732 1.288 3.699 5.935 6.333 7.903 4.094 3.055 3.212 6.833 3.084 10.715l.126-.128zM705.355 75.453c-.722-1.374-2.95-3.756-3.107-6.27-.427-6.846 4.997-9.623 11.382-6.201 1.862.999 3.559 2.312 5.423 3.305 2.945 1.575.81 3.663.641 5.515-.163 1.826-1.084 2.698-3.168 2.723-3.359.037-6.714.528-11.171.928zM150.216 85.027c-.486 1.789-1.003 3.693-1.646 6.05 3.011 1.827 3.67 5.116 2.6 8.509-.552 1.749-2.159 3.371-3.701 4.472-.421.304-2.474-1.318-3.521-2.325-1.615-1.55-3.084-3.274-4.468-5.039-.838-1.069-1.397-2.353-2.506-4.274 2.31.181 3.587.278 5.206.403-1.346-3.158-3.385-6.199.162-8.563l7.874.767zM104.871 46.108c2.944 8.615-3.424 12.436-8.883 16.629-2.009 1.547-4.216 1.376-6.173-1.125 3.95-6.189 4.935-15.297 15.056-15.504zM146.784 55.8c3.383 5.839 2.023 10.833 1.134 15.685-.167.899-2.427 1.869-3.763 1.933-.832.04-2.086-1.419-2.521-2.467-.439-1.054-.098-2.433-.098-3.846h-3.712v-6.794l8.96-4.511zM613.367 42.088c1.431-5.417 2.58-10.113 3.922-14.754.886-3.071 2.832-3.618 4.711-1.173 2.094 2.723 5.911 4.73 4.828 9.065-.277 1.094-1.231 2.447-2.216 2.861-3.429 1.447-7.009 2.531-11.245 4.001zM166.214 84.186c-2.083 2.759-4.253 5.461-6.213 8.307-.975 1.415-1.468 3.153-2.38 4.618-.376.604-1.266 1.136-1.964 1.197-.467.04-1.393-.766-1.459-1.277-.458-3.546-1.468-7.23-.935-10.656.988-6.334 5.932-7.288 12.951-2.189zM251.058 223.775c-.968 1.713-1.578 2.794-2.372 4.195-1.846-5.738-6.26-1.8-8.855-3.667.492-5.262 4.716-12.964 8.688-14.76l-2.322 5.301c1.801.928 2.036 3.687 5.33 3.304 2.152-.25 4.218 7.679 2.604 9.46-.32.354-1.471.547-1.501.483-.462-1.015-.799-2.086-1.572-4.316zM143.603 42.269c-3.937-2.351-7.419-4.425-11.061-6.602-.102-.945-.146-2.667-.494-4.326-.382-1.814-1.047-3.566-1.693-5.684 8.824 1.491 13.785 7.093 13.248 16.612zM190.432 153.364c-3.171 2.016-4.295 1.745-7.193-1.389l-5.108 4.813.963-1.381-2.354-3.916-1.65 2.047c.594-3.766 1.189-7.532 1.874-11.896 4.634 4.032 8.886 7.733 13.468 11.722zM713.315 229.416c.19-4.178.451-8.139.522-12.107.037-2.204.07-4.489-.45-6.603-.845-3.447-2.048-6.749 1.198-9.66.276-.248.037-1.069.535-1.711 1.223 6.443 2.447 12.885 3.676 19.347-3.973.784-4.113 1.43-1.687 9.927l-3.794.807zM356.625 208.905c0-2.761-.724-5.364.175-7.151 1.253-2.495 3.67-4.434 5.764-6.426.171-.163 2.066.89 2.519 1.726 1.953 3.605-2.208 11.611-6.276 12.21-.808.119-1.694-.269-2.182-.359zM665.943 362.278l3.365 8.196-1.114.591c-1.708-2.116-3.42-4.235-5.261-6.513l-.667 6.548-1.103-.187c-.999-4.271-2.425-8.465-.149-12.862 1.207-2.334 2.142-3.896 5.333-3.08 2.184.561 4.68-.094 7.388.115-1.396.544-2.753 1.333-4.2 1.566-1.575.254-3.275-.233-4.842.042-.915.16-1.683 1.176-2.514 1.808 1.009.494 1.993 1.312 3.037 1.399 1.171.094 2.393-.473 4.33-.922-1.588 1.455-2.629 2.409-3.603 3.299zM485.834 6.474c4.631-3.513 6.114-3.543 7.849-.382 1.002-1.35 2.005-2.704 3.005-4.055 4.626 3.396 4.591 4.272.262 7.037-1.091.697-2.053 1.672-2.897 2.67-.834.983-1.447 2.154-2.147 3.233-3.763-1.787-3.116-4.438-2.097-7.354l-3.975-1.149zM713.429 233.312c2.498 1.563 4.897 3.069 7.297 4.574l.658-.903c1.554 4.689-5.032 3.334-4.756 7.165-1.526-.749-2.605-1.278-3.608-1.768-.313.302-.498.464-.666.644-.768.818-1.507 1.672-2.347 2.406-.075.066-1.192-.647-1.186-.985.022-1.322.081-3.693.53-3.789 4.282-.914 2.711-4.771 3.91-7.173.094-.19.322-.313.168-.171zM628.441 371.791c2.111.602 4.216 1.21 6.329 1.799.819.228 1.829.812 2.448.542 5.033-2.19 8.369 2.454 12.687 3.033.259.033.463.467.692.716l-.261 1.054c-7.531-1.35-15.064-2.698-22.72-4.069.531-1.79.74-2.493.947-3.199l-.122.124zM146.989 30.904c4.303-.602 5.862 2.488 6.658 5.329.741 2.638-.234 5.425-3.9 6.368-2.854-3.389-3.09-7.437-2.758-11.697zM191.399 92.398c-.347-.501-1.111-1.152-1.276-1.927-.406-1.922-.54-3.899-.783-5.857 2.21.483 4.725.469 6.542 1.589 1.688 1.039 2.631 3.282 4.232 5.441-3.423.298-5.939.514-8.715.754zM204.46 306.792c-4.34 2.353-7.004.333-9.87-1.503-4.396-2.818-8.825-6.103-14.586-2.378 1.57-3.128 5.426-4.649 9.466-3.112 4.956 1.881 9.647 4.46 14.99 6.993zM432.404 36.271c1.35 2.27 2.681 4.511 4.09 6.885-3.674 4.832-3.923 4.904-7.939 2.031 1.409-7.94 1.409-7.94 3.849-8.916zM663.015 311.664c4.102.466 5.401 2.923 3.795 5.582-2.243 3.723-2.182 3.661 2.008 5.325 1.117.443 1.876 1.796 2.425 3.232-2.218-2.662-6.267-.723-8.5-4.153-2.554-3.924 1.131-6.493.272-9.986zM155.68 66.71c.761 1.32 1.866 2.426 1.981 3.63.186 1.928-.284 3.921-.477 5.888-1.664-.557-4.213-.669-4.769-1.78-.716-1.431-.079-3.737.464-5.515.258-.85 1.646-1.352 2.801-2.223zM143.883 118.986c1.713-2.469 2.767-3.987 3.816-5.496 5.031 2.841 6.47 5.584 4.518 8.891l-8.334-3.395zM673.248 343.069c-.543-.701-1.643-2.119-3.138-4.054l-3.549 1.007c1.183-5.19 7.667-1.492 8.518-6.468l1.594.717c0 2.181.199 4.39-.117 6.522-.103.672-1.585 1.14-3.308 2.276zM115.303 47.865c-3.621-3.228-4.045-5.031-1.617-7.021 1.96-1.609 4.788-1.929 5.878.243 1.825 3.639-1.927 4.852-4.261 6.778zM733.689 71.866c-.977 3.696-3.202 4.681-5.881 2.889-1.982-1.325-5.719-2.305-3.514-6.616 3.247 1.286 6.318 2.505 9.395 3.727zM206.614 307.216c4.262 1.132 7.823 2.075 11.381 3.019l-.194 1.604c-4.51.256-9.019.509-13.53.766l-.062-1.109h4.141l-1.736-4.28zM716.771 89.183l-7.763-1.042-.5-1.422c1.682-1.063 3.512-3.133 5.002-2.913 1.547.226 2.769 2.673 4.132 4.151l-.871 1.226zM569.241 333.666c.724 2.303 1.58 4.583 2.067 6.938.101.483-1.132 1.684-1.831 1.753-.649.066-1.956-.877-2.021-1.475-.242-2.266-.097-4.569-.097-6.864l1.882-.352zM198.143 133.468c-1.479-2.792-1.099-5.158 1.154-7.009.238-.195 2.502 1.121 2.676 1.972.575 2.795-.525 4.774-3.83 5.037zM129.509 91.879l-.359-1.518-2.23-4.465c1.931 0 3.382-.17 4.74.105.409.084 1.003 1.67.743 2.141-.756 1.361-1.902 2.507-2.894 3.737zM120.45 34.805c-2.002.536-4.002 1.067-6.004 1.6l-.619-.995c.774-1.444 1.55-2.889 2.535-4.721l3.973 2.729.115 1.387zM21.128 184.791c-2.103.983-3.794 1.774-5.486 2.567-.062-.999-.571-2.454-.105-2.907 1.292-1.258 2.904-3.034 5.591.34zM663.875 302.512c-2.914-4.13-1.009-6.371 1.168-8.549l1.089.25-2.257 8.299zM399.34 253.424c-.186-1.206-.594-2.428-.479-3.601.086-.853.87-1.636 1.344-2.449.646.721 1.856 1.479 1.817 2.16-.087 1.494-.81 2.95-1.276 4.42l-1.406-.53zM729.285 371.826c2.595-1.062 5.269-2.153 8.201-3.356-.084.366.02 1.747-.581 2.205-2.295 1.756-4.824 3.171-7.62 1.151zM152.416 42.35c2.3 1.221 3.955 2.098 5.607 2.978-.482.562-1.104 1.681-1.423 1.602-1.801-.451-4.674.325-4.184-4.58zM640.745 308.829l-4.382 3.082c-.393-.785-1.237-2.173-1.11-2.266 1.378-1.025 2.904-1.853 4.39-2.735.366.639.732 1.281 1.102 1.919zM678.166 378.46c-2.554 1.448-5.11 2.893-7.663 4.339l-.718-1.386 7.887-4.028.494 1.075zM68.059 199.676c.381 2.818.665 4.939.95 7.061l-.402.365-2.994-6.712 2.446-.714zM186.173 159.133l-3.798 2.624c-.251-.601-.843-1.624-.699-1.739 1.094-.885 2.33-1.591 3.523-2.354.322.491.648.98.974 1.469z" fill="none"/><path d="M191.036 235.545l-3.396-.692c-.545 1.768-1.112 3.604-1.639 5.32-2.101.137-.566-5.006-4.595-1.274 2.122-3.967 1.9-6.272-1.721-7.328-3.277 2.503-5.262 5.367-3.751 9.865.348 1.035-1.005 2.644-1.746 4.387-2.319-3.047-2.836-11.832-.257-13.354 3.185-1.88 7.465-2.264 11.322-2.518 3.03-.199 5.297 1.666 5.783 5.594zM171.389 226.542l-8.025 1.602-.479-1.281c4.021-1.543 5.636-7.502 11.051-6.042 3.338.902 5.991 3.427 5.856 7.781-2.834-1.422-6.918 2.067-8.403-2.06zM192.17 240.977c-2.678 4.25-6.186 5.5-9.694 3.631 3.481-1.301 6.589-2.468 9.694-3.631zM199.468 237.018c-.987 2.756-.987 2.756-7.61 1.687 2.432-.538 4.862-1.076 7.61-1.687zM456.199 232.507l2.5 3.448c1.709-.761 3.587-1.597 5.731-2.554l-4.775-3.119c4.185-1.665 7.38-2.937 10.992-4.375l-4.405 7.923c2.784 2.203 5.882 4.453 8.719 6.999 1.062.957 2.307 2.807 2.025 3.868-.292 1.089-2.346 2.402-3.623 2.396-2.755-.015-5.811-.212-8.194-1.417-4.16-2.104-7.614-1.809-11.604.417-1.721.962-4.547.735-6.557.077-1.182-.386-2.648-2.863-2.396-4.067.557-2.662 2.106-5.118 3.287-7.641.197-.418.64-.712.903-1.106 3.295-4.896 3.292-4.899 8.994-2.707l-1.597 1.858zM497.831 236.136c2.042 2.957 3.923 5.681 5.925 8.582 2.703-2.366 2.536 1.378 4.347 3.205l-4.441.585c.73 2.971 1.439 5.932 2.198 8.874.687 2.685-1.009 3.697-3.018 3.298-2.69-.534-6.02-1.134-7.647-2.971-2.363-2.663.248-5.536 1.273-7.563-2.377-4.861-4.692-9.55-6.945-14.268-.174-.364.023-.95.152-1.402.527-1.901 7.992-7.285 10.193-7.413 4.166-.239 5.124 1.114 4.245 4.439-2.546 1.88-4.388 3.241-6.282 4.634z" fill-rule="evenodd"/></g><path fill="#52C0A7" d="M584 356.181l-124.039.497-68.961-68.252v67.574h-103v-282h130.673l60.327 63.471v-63.471h105z"/><g stroke="#fff" stroke-miterlimit="10" fill="none"><path d="M479 136.438c-.407-.066-.801-.137-1.179-.207l1.179 1.24v-1.033z" clip-rule="evenodd"/><path d="M582 75.5h-2.107c.023-1 .048-1 .073-1h-.073c-.441 2-.497 4.316-1.022 6.943-1.682.075-4.598.172-7.515.189-4.059.021-5.575 1.18-5.401 5.074.162 3.596.698 7.145 1.118 11.197-2.261-3.565-5.272-3.998-8.609-2.735-3.667 1.394-3.772 4.39-2.679 7.831l-1.524-.012c-.274-4.167-.547-8.336-.823-12.502l-1.085.123c-.218 4.688-.275 4.654-2.99 9.4-.447.791-.545 2.277-.093 2.998 2.041 3.273 1.867 6.465.672 9.99-.848 2.508-.962 5.248 2.31 6.396-2.135 15.144-3.807 18.645-7.95 16.447 1.231-2.441 2.708-4.799 3.623-7.356.716-1.999 1.111-4.276.961-6.381-.203-2.868-1.708-5.741-1.504-8.526.487-6.602-2.898-13.164-.068-19.73.087-.207-.036-.496-.029-.744.102-3.967-3.397-3.489-5.613-4.08-.683-.182-2.668 1.961-2.962 3.28-1.61 7.243-7.658 13.58-4.583 21.804.151.402-.075.945-.119 1.354 4.219 2.447 5.425 6.084 3.046 9.273-1.208-1.104-2.41-2.191-3.599-3.294-3.591-3.328-7.169-6.701-12.253-7.568-.967-.165-2.205-.106-2.955.392-.368.244-.234 1.994.248 2.63 2.057 2.724.617 4.483-1.307 6.454l-2.329-2.729c-4.25 1.518-8.076 2.887-12.71 4.543.895-2.357 1.31-3.451 2.124-5.588-1.928 1.003-3.01 1.463-3.978 2.093-2.303 1.511-4.5 3.181-6.836 4.638-2.125 1.328-4.141 2.465-4.606 5.408-.134.854-2.419 1.367-3.72 2.037-.559-1.522-1.373-3.02-1.533-4.585-.051-.501 1.622-1.179 2.51-1.773-1.294-3.886-1.456-3.997-6.757-4.69.306 4.838.358 9.679.625 13.906-.414-.042-.476-.104-1.476-.17v1.033l-.929-1.24c-1.483-.275-2.555-.503-2.894-.066-1.717 2.205-5.704 3.275-4.177 7.422.275.746-.135 1.756-.248 2.646-.894-.115-1.86-.037-2.641-.395-1.33-.613-2.526-1.501-4.804-2.904.147 3 .252 5.043.409 8.197-2.107-2.06-4.457-3.271-4.609-4.713-.454-4.32-.213-8.684-4.257-11.912 1.025-.379 1.446-.699 1.699-.602 2.667 1.055 5.316 2.156 7.954 3.285 4.519 1.928 9.054-1.288 8.82-6.217l-12.082-12.711-.549-.229c-2.68-.949-5.016-2.87-7.5-4.365-.303-.182-.572-.43-.886-.67l-2.583 1.719-2.259-3.758 2.522-2.357c-3.593-2.738-6.312-5.978-11.87-4.238-2.872.9-4.79 1.568-6.178 4.165-.476.886-1.858 1.911-2.752 1.847-3.727-.275-6.269 1.756-8.275 4.258-5.463 6.822-10.783 13.721-14.178 21.963-3.307 8.029-7.582 15.469-15.274 20.397-1.444.924-2.77 3.246-2.794 4.944-.067 4.605.373 9.257 1.097 13.812.223 1.414 1.81 3.324 3.114 3.652 1.29.327 3.191-.812 4.495-1.762 1.337-.977 2.276-2.5 3.922-4.406l5.189 15.619-4.581 1.779 2.953 3.822c1.125-3.611 6.021-1.704 6.527-5.588 4.567-.148 3.608-3.86 4.152-6.538.504-2.478.325-4.923 2.916-6.847 1.303-.967 2.162-4.43 1.444-5.889-3.694-7.502-3.403-10.562 2.514-16.75 2.283-2.387 4.874-4.545 4.473-8.595-.133-1.379 1.313-3.276 2.547-4.347 1.806-1.566 3.874-1.945 5.852.352 1.896 2.199.68 3.384-.786 5.015-4.535 5.041-10.134 9.733-7.229 17.835.112.312-.112.732-.146 1.105-.469 5.247 3.062 7.928 7.956 6.045 1.397-.539 2.756-1.248 4.202-1.57 2.239-.498 4.511-.67 5.403 2.196-1.411 2.29-3.164 3.015-5.793 2.396-1.46-.346-3.179.107-4.721.461-2.915.672-3.414 2.592-1.507 4.617 2.233 2.369.892 4.355.093 7.277l-4.045-4.435c-.97 2.374-2.695 4.479-2.347 6.155.921 4.437-1.327 6.719-4.601 8.934-4.809-4.284-7.911 1.324-11.833 1.271-2.327-.229-4.653-.454-7.764-.756-3.436-3.375-3.61-5.027-.531-8.475-.226-2.159-.422-4.041-.621-5.92-5.427 3.342-6.151 4.967-4.771 10.526.298 1.202.789 2.507.562 3.642-.191.971-1.101 2.136-2.004 2.566-2.088.998-5.27.951-6.374 2.494-2.375 3.324-3.3 7.736-7.94 9.094-.129.037-.135.459-.22.692-1.367 3.759-4.441 4.472-7.909 4.44l.099 1.884c-2.483.71-5.615.731-6.167 1.935-1.273 2.779 2.307 2.414 3.651 3.559 3.095 2.628 5.09 8.74 3.142 12.234-2.03 3.637-5.626 1.804-8.677 1.562-.375-.028-.758-.132-1.12-.081-2.792.386-6.084-1.721-8.271 1.742.139 1.248.146 2.621.459 3.926 1.216 5.08-3.079 10.495 1.524 15.465 1.046.142 3.478-.211 4.119.697 1.547 2.195 2.58 2.602 4.678.817.706-.597 2.145-.389 3.254-.45 3.337-.185 7.301-4.166 7.283-7.502-.022-3.32 1.285-5.502 4.464-6.87 1.251-.536 2.769-2.249 2.811-3.472.12-3.586 2.526-4.129 4.788-3.5 3.048.848 4.987-.424 7.1-2.018 2.383-1.795 4.508-1.309 5.443 1.484 1.243 3.721 3.881 5.809 7.144 7.705 2.146 1.246 4.022 3.266 5.471 5.325 1.431 2.032.794 3.821-2.065 4.173-1.825.223-3.637.541-5.454.816l-.04.887 5.304 2.322c1.36-1.617 2.646-2.658 3.254-4.006.721-1.588 3.987-2.782 1.181-5.193.581-.57 1.095-1.482 1.765-1.617.675-.133 1.506.502 2.27.799-.311-1.176-.849-1.895-1.563-2.3-4.767-2.712-8.591-6.462-11.567-10.984-.753-1.147-.553-2.997-.523-4.521.008-.311 1.425-1.023 1.82-.822 1.346.68 3.291 1.46 3.636 2.611 1.309 4.402 5.248 5.719 8.298 8.172 1.238.994 1.7 2.994 2.438 4.572 2.053 4.398 4.042 8.826 6.139 13.203.182.381.952.479 1.347.662l2.766-4.559c-.877-2.123-1.703-4.117-2.646-6.391l2.969.527c2.201-5.786 4.812-1.385 7.143-.727-1.76 2.914-1.543 7.83 1.429 10.1 1.837 1.402 4.491 3.635 7.577 1.408.572-.412 1.845.219 2.8.258 1.838.067 3.847.541 5.485-.023 3.022-1.049 4.48-.535 4.004 2.654-.527 3.514-1.917 6.897-2.914 10.342-.745 2.578-2.076 3.836-4.969 2.748-2.674-1.002-5.454-1.828-8.094.312-.306.245-1.003.223-1.435.078-4.535-1.525-9.125-2.922-13.552-4.715-3.531-1.43-6.055-.047-6.796 3.917-.173.935-1.771 2.511-2.123 2.362-2.896-1.2-5.659-2.729-8.45-4.18-1.608-.834-3.143-1.827-4.801-2.541-2.572-1.109-5.222-2.042-7.995-3.109.935-1.846 1.547-2.672 1.785-3.597.876-3.388-.92-6.949-3.271-6.706-4.879.504-9.771.916-14.637 1.536-2.08.263-4.352.515-6.113 1.517-4.836 2.752-9.604 4.479-14.104 1.72-2.69 2.636-5.329 4.683-7.237 7.267-1.453 1.966-2.71 4.613-2.722 6.965-.01 2.506-.809 3.965-2.527 5.383-2.421 1.996-5.097 3.807-7.097 6.174-2.18 2.582-4.102 5.547-5.411 8.648-1.133 2.681-2.71 5.089-1.088 8.922 1.804 4.262 1.186 9.576-1.596 13.098.207 5.033 2.524 8.355 5.815 11.396 3.72 3.441 5.552 8.47 10.165 11.463 3.712 2.408 6.803 4.473 11.133 1.998.618-.354 1.542-.636 2.167-.441 5.427 1.68 10.137-.628 15.121-2.188 3.345-1.044 6.788-1.58 8.593 3.203.128.341.584.666.584.842M475.59 356.614c1.606-1.534 3.417-2.938 5.222-4.215 7.103-5.023 11.44-11.8 14.334-19.69.715-1.943.835-4.111 1.258-6.387-5.267 1.189-9.784 2.1-14.248 3.25-3.089.795-3.73-1.266-4.431-3.371-.21-.626.03-1.541-.343-1.95-3.994-4.332-9.205-7.632-11.194-13.642-.821-2.477-1.95-4.848-2.829-7.303-.326-.906-.11-2.043-.545-2.859-1.634-3.051-3.506-5.975-5.146-9.023-1.213-2.256-2.209-4.628-3.048-6.408l3.083-1.715c.668.709 1.595 1.299 1.959 2.135 2.539 5.822 8.105 10.033 8.878 16.824.11.965 1.203 1.82 1.86 2.713.865 1.178 1.672 2.41 2.638 3.502 3.492 3.934 3.912 8.965 4.869 13.762.472 2.355 1.734 2.608 3.463 1.838 8.087-3.613 16.136-7.308 24.187-11.002l.713-.824c4.306-1.94 5.832-6.381 8.638-9.652 2.616-3.051 2.015-5.485-1.839-6.705-3.354-1.06-4.442-3.172-4.355-5.898-1.367 1.145-2.712 2.797-4.445 3.57-1.789.797-3.955.857-5.96.885-.224.002-.449-2.324-.733-3.559-.101-.436-.376-.826-.647-1.398l-.95.879-.578.545c-1.344-2.002-2.587-3.75-3.714-5.568-.715-1.148-1.518-2.352-1.784-3.63-.197-.946.415-2.946.653-2.944 1.407.012 2.984.18 4.155.881.813.486 1.006 1.944 1.572 2.912 2.233 3.826 7.1 5.695 11.265 4.588.864-.229 2.715.188 2.792.574.566 2.787 2.626 3.115 4.797 3.248 4.451.28 8.907.586 13.364.631 2.382.022 4.508-.467 6.111 2.246 1.132 1.914 3.944 2.893 4.899 4.838 2.534 5.156 2.296 5.274 7.683 3.888.599 12.22 6.01 22.72 11.108 33.787 5.495-5.173 7.391-10.667 6.46-17.239-.128-.914.447-2.266 1.157-2.896 1.89-1.674 4.081-3.006 6.064-4.585 2.713-2.163 5.72-4.009 7.568-6.774 1.247-1.869 2.946-3.03 3.946-3.676v-.098c0 .031 0 .063-1 .098"/><path d="M473.987 242.696c-.292 1.089-2.346 2.401-3.623 2.396-2.755-.015-5.811-.211-8.194-1.416-4.16-2.104-7.614-1.809-11.604.417-1.721.962-4.547.735-6.557.077-1.182-.387-2.648-2.863-2.396-4.068.557-2.661 2.106-5.117 3.287-7.641.197-.418.64-.712.903-1.105 3.295-4.896 3.292-4.9 8.994-2.707l-1.599 1.859 2.5 3.447c1.709-.761 3.587-1.597 5.731-2.555l-4.775-3.118c4.185-1.665 7.38-2.937 10.992-4.376-1.635 2.943-2.974 5.35-4.405 7.924 2.784 2.202 5.882 4.453 8.719 6.998 1.063.957 2.309 2.808 2.027 3.868zM502.86 255.383c.687 2.684-1.009 3.696-3.018 3.297-2.69-.533-6.02-1.133-7.647-2.971-2.363-2.662.248-5.536 1.273-7.562-2.377-4.861-4.692-9.551-6.945-14.268-.174-.365.023-.95.152-1.402.527-1.901 7.992-7.285 10.193-7.414 4.166-.238 5.124 1.114 4.245 4.439-2.547 1.88-4.39 3.24-6.284 4.635 2.042 2.957 3.923 5.68 5.925 8.582 2.703-2.366 2.536 1.378 4.347 3.205l-4.441.584c.732 2.971 1.441 5.931 2.2 8.875zM507.23 75.388c-1.37 2.913-4.09 4.743-3.959 9.011.12 3.986-3.565 8.027-5.276 12.155-.811 1.95-1.123 4.155 1.502 5.382.88.407 2.155.936 2.35 1.652 1.537 5.665 6.028 2.247 9.269 3.194-3.042-3.935-5.754-8.099-4.223-12.623 2.185-6.445 5.211-12.187 8.554-18.132.2-.356.418-.527.634-.527h-8.523c.009-1 .038-1 .051-1h.391"/><path d="M364.958 194.449c.392.166 1.539.327 2.145.984.865.941 1.334 2.246 1.974 3.397-.862.442-1.875.731-2.547 1.374-.682.645-1.259 1.59-1.474 2.498-.305 1.308-.239 2.702-.375 4.699l1.812 1.126-3.983 4.903c4.946-.896 9.089-1.709 13.257-2.376 2.187-.351 5.379-6.683 3.676-7.568-2.949-1.532-2.944-4.335-4.244-6.595-1.651-2.864-3.724-5.485-5.66-8.279.591-1.832 1.292-3.998 2.057-6.361-1.873-.197-3.146-.334-4.464-.475.478-1.494.866-2.711 1.594-4.994-2.322.982-4.744 1.303-5.02 2.252-.828 2.825-1.162 5.916-1.004 8.867.11 2.056 1.347 4.049 2.256 6.548zM343.191 142.188c-.663-2.136-1.466-4.229-2.478-7.099-1.364.502-3.091 1.105-4.788 1.787-.67.271-1.608 1.191-1.841 1.02-2.824-2.071-4.508.268-6.371 1.622-5.384-4.822-6.89-4.657-8.507.878l5.41 2.455-4.032 2.09c.873 1.762 5.783 1.584 2.64 4.885 5.949 3.738 11.485 2.778 16.591-1.326 1.949-1.563 4.365-3.127 3.376-6.312zM355.806 207.264c4.069-.6 8.229-8.605 6.276-12.21-.453-.836-2.347-1.888-2.519-1.726-2.094 1.992-4.511 3.932-5.764 6.426-.899 1.787-.175 4.391-.175 7.151.489.089 1.375.478 2.182.359zM564.359 332.018c0 2.295-.145 4.599.097 6.864.064.598 1.372 1.54 2.021 1.475.698-.069 1.931-1.271 1.831-1.753-.487-2.355-1.343-4.635-2.067-6.938l-1.882.352zM397.746 251.955c.467-1.471 1.189-2.928 1.276-4.421.039-.681-1.171-1.438-1.817-2.159-.474.812-1.257 1.596-1.344 2.449-.115 1.172.293 2.395.479 3.6l1.406.531z"/></g></g></svg>