<svg xmlns="http://www.w3.org/2000/svg" xmlns:xlink="http://www.w3.org/1999/xlink" width="800" height="450" viewBox="0 0 800 450"><path d="M0-10h800v450h-800z"/><g><g fill-rule="evenodd" clip-rule="evenodd"><path fill="#52C0A7" d="M-28-19h868v488h-868z"/><path d="M-28 101.895c2.93-2.06 7.053-1.767 9.558-5.083.398-.526 4.195 1.518 6.382 2.6 1.787.759 3.582 1.502 5.359 2.287.729.322 1.383.946 2.131 1.07 6.47 1.077 13.105 1.526 19.386 3.264 4.819 1.333 9.411 3.919 13.699 6.596 2.738 1.712 4.425 3.209 6.883-.324.911-1.308 3.366-1.553 5.128-2.256 1.309-.522 2.709-.861 3.935-1.529 1.861-1.016 3.606-2.247 5.438-3.411l2.72 3.103 2.744-5.373 5.182 7.15 3.129-3.459.908 3.99c.427.091.823.271.902.18 3.614-4.184 6.47-2 10.106.449 3.096 2.083 7.24 2.562 10.823 3.992 1.517.606 2.789 1.826 4.413 2.93-1.189 1.493-2.074 2.603-3.087 3.871 4.465 2.718 8.725 1.236 13.249.081l2.613 3.355 2.693-2.964c-.854-1.199-1.546-2.17-2.22-3.113 2.198-3.536 6.295-4.376 8.564-1.723 3.704 4.333 8.304 6.202 13.966 5.475.933-.12 1.881-.129 2.819-.208.118-.01.226-.144-.317-.695l3.209-4.578 4.852 5.133c.522-.647 2.256-2.018 2.918-3.788 1.228-3.293.646-6.484-1.615-9.471-4.469-5.906-4.317-11.476.127-17.939 5.9 1.392 10.064 10.882 7.507 17.532 4.863.274 4.181 3.933 4.162 8.256 1.484-1.936 2.377-3.1 4.095-5.338.817 3.125 1.5 5.47 2.031 7.847.471 2.114.771 4.269 1.256 7.03 4.126-4.605 4.525-6.028 5.767-19.015 4.227.037 8.872.863 9.896 5.122 1.12 4.653.875 9.959-.113 14.702-.87 4.182-6.543 6.059-10.642 4.49-1.277 3.377-2.375 6.839-3.892 10.109-1.094 2.358-2.105 5.102-5.563 5.159-.676.011-1.591.609-1.969 1.207-3.321 5.261-6.862 10.423-9.663 15.957-1.34 2.645-1.246 6.024-1.746 9.082-.081.504.028 1.478.222 1.525 5.049 1.235 4.058 6.382 6.057 9.566l.581-1.074c3.074 1.262 6.553 1.981 9.128 3.909 4.122 3.083 7.856 6.431 13.424 6.57.677.018 1.539 1.959 1.907 3.138 1.111 3.569 1.77 7.298 3.136 10.755.538 1.361 2.481 2.164 3.785 3.22.859-1.592 2.469-3.208 2.422-4.776-.097-3.274-1.068-6.522-1.767-10.251-.003.001.638-.445 1.305-.85 6.596-4.006 7.961-10.06 3.187-16.025-1.759-2.198-1.807-3.698-.505-6.014.767-1.362.729-3.274.732-4.94.003-1.463-.57-2.922-.658-4.398-.133-2.24-.068-4.493-.089-6.741 2.135.247 4.416 1.094 6.378.621 5.291-1.275 7.685 1.748 10.128 5.507.627.969 2.61 1.055 4.478 1.729.018 4.98-.479 10.718 6.306 14.315 2.037-3.241 4.187-6.658 6.821-10.844 1.781 7.099 6.972 12.075 7.572 19.47.192 2.38 4.509 4.403 6.897 6.633 1.464 1.369 2.863 2.806 4.263 4.238.724.74 1.348 1.58 2.091 2.301 2.269 2.195 2.274 6.141-.229 8.129-1.342 1.063-3.382 1.381-4.479 2.601-4.909 5.465-11.025 4.484-17.187 3.65-4.714-.638-6.405 3.875-9.493 5.915-2.175 1.436-3.334 4.409-4.755 6.969 4.723-3.516 7.991-10.317 15.92-7.23-2.537 4.682-1.904 9.672 1.113 11.492 2.976 1.794 5.186 1.097 7.895-2.723l2.233 3.365c-5.158 2.835-10.196 5.606-15.232 8.375l-.982-.664 3.027-6.276c-2.17.989-3.828 1.653-5.396 2.485-2.129 1.127-4.177 2.407-6.286 3.577-3.566 1.979-4.023 4.87-1.267 7.467-3.141 1.451-6.316 2.915-9.78 4.514-1.016 2.409-2.075 5.186-3.401 7.829-.27.537-1.547.568-2.566.9 0 .241-.188.872.029 1.294 3.17 6.176-.372 9.19-5.213 12.046-2.474 1.461-4.871 3.579-6.371 5.981-1.099 1.76-1.127 4.528-.826 6.736.359 2.622 1.859 5.075 2.342 7.696.352 1.912-.141 3.979-.259 5.977l-1.912.448c-1.419-2.996-3.213-5.881-4.157-9.02-.94-3.136-.657-6.378-5.811-5.177-2.343.546-5.169-1.236-7.824-1.685-1.675-.284-3.655-.548-3.665 2.364 0 .3-2.769 1.195-3.88.791-6.198-2.266-11.647-.863-15.345 4.322-.234.329-.583.702-.582 1.054.015 7.681-4.048 15.87 2.272 22.757 1.589 1.732 4.393 3.431 6.543 3.316 3.282-.175 7.375 0 8.509-5.069 1.081-4.83 5.476-3.053 9.232-3.655-1.636 5.443-3.139 10.449-4.854 16.158 2.666-.208 4.974-.362 7.278-.571 4.944-.449 6.837 1.618 6.145 6.446-.567 3.965-1.799 8.317 2.547 11.001 1.432.884 3.518.828 5.323.958 2.032.145 4.589-.769 6.026.161 3.359 2.17 4.438-.059 6.109-2.032 1.176-1.388 2.565-2.709 4.114-3.64 1.994-1.198 4.242-1.977 6.921-3.18l-1.07 4.569c3.996-3.902 6.686-1.336 10.133-.138 2.645.919 6.135 2.488 9.928.664 1.629-.783 5.298 1.747 7.557 3.423 3.225 2.393 5.911 5.499 9.033 8.049.889.724 2.521.884 3.763.77 5.897-.542 10.94 2.531 12.837 8.093.761 2.226 1.394 4.493 2.434 7.878 1.778.468 5.367.83 8.383 2.337 5.432 2.712 10.761 5.131 17.013 5.285 1.602.04 3.164 1.911 4.729 2.961 1.115.748 2.105 1.832 3.329 2.235 2.065.68 4.553.883 4.354 3.767-.197 2.838-.275 5.979-1.552 8.378-1.808 3.393-4.743 6.175-7.038 9.331-.74 1.02-1.464 2.434-1.378 3.608.545 7.422-2.114 14.018-5.175 20.46-.721 1.516-2.398 2.915-3.97 3.615-2.909 1.295-6.19 1.759-9.088 3.074-3.866 1.753-5.779 4.576-6.581 9.271-.785 4.589-4.143 8.77-6.536 13.037-1.033 1.841-2.542 3.412-3.723 5.179-1.911 2.852-3.736 4.96-7.943 4.823-12.202-.403-24.427-.143-36.642-.143h-4.09c.298-5.652.341-11.14.943-16.566.651-5.875 1.932-11.676 2.72-17.541.413-3.069.259-6.211.533-9.304.365-4.093-1.851-6.964-5.083-8.363-7.097-3.067-10.801-8.664-13.88-15.342-2.213-4.805-5.741-8.99-8.218-13.696-1.048-1.991-2.494-4.665.267-6.878.813-.65 1.399-1.582 2.11-2.41-3.194-2.02-2.688-6.856.681-9.984 7.5-6.963 7.17-11.564 2.796-19.843-.322-.606-1.956-1.259-2.24-1.019-1.137.965-1.981 2.275-3.331 3.949-3.718-2.094-8.056-4.288-12.078-6.959-1.181-.785-1.393-2.959-2.174-4.433-2.31-4.356-7.114-4.404-10.888-6.252-2.109-1.034-4.29-2.105-6.061-3.604-2.218-1.88-4.193-2.255-7.242-2.075-3.763.222-7.713-1.509-11.47-2.739-2.661-.872-5.395-1.959-7.629-3.59-2.777-2.024-5.81-3.29-5.709-8.543.068-3.703-5.021-7.479-7.746-11.263-3.822-5.305-7.55-10.678-11.405-15.957-1.029-1.41-2.375-2.586-3.578-3.87l-1.621 1.17c3.688 8.793 10.21 16.157 14.072 24.862l-1.111.75c-1.915-2.801-3.62-5.782-5.814-8.345-1.696-1.982-4.004-3.44-6.364-5.399 2.234-2.036 1.042-3.522-.705-5.627-2.172-2.618-3.271-6.094-5.117-9.021-1.24-1.962-2.648-4.542-4.552-5.206-3.709-1.294-5.505-4.041-7.121-6.999-2.17-3.968-4.504-8.003-5.688-12.31-1.09-3.965-.859-8.32-1.022-12.509-.252-6.378.353-12.894-.845-19.073-.479-2.477-4.798-4.186-7.321-6.3-.842-.708-1.53-1.597-2.977-3.131 9.39.654 11.781 7.412 15.485 13.748.46-3.956.021-6.709-2.983-8.639-2.709-1.74-5.36-3.567-8.007-5.4-.641-.444-1.59-1.005-1.673-1.61-.833-6.18-5.655-10.392-7.767-15.98-1.355-3.595-4.414-6.513-6.062-10.038-2.054-4.399-4.461-7.364-9.918-7.173-1.571.055-3.428-2-4.799-3.428-3.449-3.587-7.453-5.335-12.486-5.677-2.485-.17-4.782-2.291-7.304-3.1-1.178-.378-3.837.157-3.868.468-.547 5.654-6.052 4.439-8.586 7.202l-1.515-.819 2.571-8.939c-3.034 1.832-6.213 7.524-6.328 11.282-.039 1.292-1.079 2.772-2.061 3.779-3.691 3.784-7.441 7.527-11.411 11.013-1.049.922-2.961.865-4.476 1.257v-2.439c3.656-3.575 8.548-6.371 7.967-11.706-2.818-.748-5.392-1.431-7.967-2.113-.001-24.666-.001-49.323-.001-73.982zm205.581 136.253c-.527-4.25-2.98-6.268-6.259-6.052-4.172.275-8.802.692-12.248 2.724-2.79 1.646-2.23 11.151.279 14.447.8-1.886 2.265-3.626 1.886-4.747-1.632-4.867.513-7.963 4.059-10.671 3.918 1.142 4.158 3.636 1.862 7.929 4.358-4.039 2.699 1.526 4.971 1.377l1.773-5.755 3.677.748zm-21.254-9.739c1.607 4.465 6.025.691 9.089 2.228.145-4.711-2.723-7.442-6.335-8.417-5.858-1.581-7.606 4.867-11.956 6.534l.518 1.388c2.69-.537 5.378-1.072 8.684-1.733zm22.48 15.616c-3.36 1.257-6.721 2.518-10.487 3.928 3.797 2.022 7.59.671 10.487-3.928zm7.896-4.284c-2.974.661-5.603 1.243-8.234 1.826 7.165 1.156 7.165 1.156 8.234-1.826zM347.566-19.229c-2.41 3.045-5.209 5.867-7.123 9.196-1.972 3.431-3.976 6.316-8.299 7.199l3.479 1.27c-3.463 13.67-8.52 27.309-2.118 41.04-2.726 1.624-5.178 3.083-6.586 3.921 1.461 4.741 2.861 8.526 3.706 12.432.293 1.351-.917 2.977-1.197 4.521-.188 1.053-.133 2.229.138 3.266.442 1.681 1.151 3.293 1.854 5.225l-4.631 1.305c3.139 6.46 2.993 6.713-5.006 9.012.85 2.771 1.706 5.561 2.56 8.352l-.94.449-3.976-2.447-.87.478c.306.825.365 1.99.956 2.417 4.38 3.158 5.664 7.654 5.915 12.63-5.238 4.401-5.873-1.924-8.246-3.622l-2.432 7.445 9.208.801c-7.034 6.884-12.633 13.827-22.385 15.097-1.705.222-3.885 2.199-4.571 3.885-2.661 6.535-7.373 10.455-13.926 12.499-4.025 1.257-5.835 4.028-5.733 8.228.028 1.181-.026 2.794-.743 3.496-5.216 5.107-3.349 12.257-5.534 18.197-.4 1.087-1.319 2.541-2.233 2.736-.996.212-2.293-.781-3.404-1.356-1.573-.813-3.082-2.415-4.644-2.449-3.261-.072-4.466-2.051-5.597-4.436-1.556-3.277-3.229-6.51-4.609-9.86-1.014-2.461-1.618-5.09-2.447-7.632-.779-2.396-1.799-4.732-2.366-7.178-.487-2.112.11-4.649-.83-6.446-1.751-3.345-.615-6.23.413-9.21.416-1.205 1.158-2.596 2.17-3.247 3.715-2.389 3.547-5.904 3.498-9.604-2.926.603-4.887 5.938-7.864 2.097-1.534-1.977-1.195-5.817-.743-8.664.134-.836 3.557-1.148 5.597-1.737-2.074-1.323-2.043-5.997-6.912-5.206-.351.057-1.891-2.67-1.518-3.447 1.991-4.131 1.575-7.934-.214-11.993-2.643-5.992-3.275-12.655-7.149-18.39-1.569-2.323-1.953-5.547-4.335-7.996-4.074-4.191-8.923-3.354-13.686-3.113-9.288.465-10.847-.451-14.734-10.234 3.034-1.435 6.109-2.89 9.412-4.45-2.348-.758-4.758-1.507-7.149-2.311-3.767-1.267-7.715-5.186-7.153-7.613.406-1.759 1.435-3.752 2.816-4.836 4.252-3.337 8.833-6.255 13.24-9.401 4.98-3.554 5.022-6.534.236-10.407-.943-.764-1.877-1.535-2.924-2.395 1.04-7.31 6.522-11.938 10.377-17.514h129.252zM210.997-19.229c-4.346 6.458-9.251 12.609-10.806 20.556-.155.795-.953 1.653-1.681 2.12-3.805 2.44-7.683 4.765-11.059 6.836-.124 1.49-.828 3.258-.28 4.458 2.817 6.181.168 10.282-4.241 14.445-2.188 2.066-3.462 5.299-4.612 8.215-1.648 4.18 2.395 2.123 3.741 3.018.343 5.176-5.497 9.409-10.076 7.567-1.728-.695-3.788-.632-5.706-.78-3.936-.301-7.902-.324-11.807-.84-1.919-.252-2.666-5.27-.798-6.003 4.298-1.692 3.496-4.709 2.964-7.941-.186-1.127-.03-2.312-.03-4.366 2.667 1.726 4.701 3.042 6.733 4.356l.962-.733c-1.92-2.538-3.741-5.159-5.786-7.592-2.49-2.963-.297-5.095 1.418-6.812 5.049-5.057 5.057-5.454 1.897-11.563-1.361-2.632-1.67-5.806-2.737-9.771l9.923 1.545 3.818-5.468c-4.101-.304-7.205-.808-10.287-.7-5.078.179-7.508-1.123-9.449-5.915-.605-1.494-.97-3.086-1.446-4.633 19.784.001 39.563.001 59.345.001zM145.963-19.229c1.399 5.621 4.398 9.99 9.479 13.017 1.169.696 1.902 2.491 2.369 3.931 1.308 4.035 2.375 8.148 3.572 12.355-1.799 3.433-4.047 7.267-5.836 11.305-1.113 2.508-2.902 3.856-5.281 3.397-2.318-.444-5.114-1.337-6.516-3.018-3.023-3.625-2.705-7.998-.54-12.178-5.657-.856-9.812-7.52-8.091-13.714 1.11-3.995 3.312-7.678 4.855-11.567.416-1.05.216-2.345.298-3.528h5.691zM626.395-19.229c2.234 4.738 4.371 9.523 6.728 14.197 2.831 5.617 3.44 11.5 2.799 17.662-.364 3.493-3.312 6.037-6.461 4.719-5.624-2.352-10.248-5.705-11.332-12.496-.559-3.507-2.083-6.86-3.171-10.283l-2.032-.274 10.219-13.524 3.25-.001z" fill="#fff"/><path d="M-28 175.87l7.967 2.113c.581 5.335-4.311 8.131-7.967 11.706v-13.819z"/><path d="M196.364 470.145c.711-.234 1.419-.675 2.13-.676 11.571-.045 23.141-.043 34.712 0 .726.003 1.451.441 2.177.676h-39.019zM733.7 470.145c.977-.236 1.952-.673 2.929-.68 8.454-.054 16.907-.057 25.361 0 1.139.008 2.275.443 3.414.68h-31.704zM654.059 45.499c6.384-3.756 10.423-2.562 15.312 3.238 3.457 4.098 3.1 9.22-.907 13.001-2.798 2.639-5.701 5.167-9.304 8.423 3.747 1.616 6.431 2.773 9.118 3.933l.602-1.105c.451 1.339.902 2.676 1.442 4.271 3.921-3.949 8.135-2.147 12.264-1.27.354.074.907.368.944.622 1.092 7.424 7.4 2.832 11.062 5.928l.631-7.773c4.128 2.207 9.612.048 12.21 5.042 1.188 2.284 2.192 5.121 1.969 7.586-.533 5.863.645 9.1 6.09 12.481.438-1.273.861-2.473 1.257-3.679.406-1.236.788-2.48 1.336-4.209 2.418 2.71 4.815 4.058 7.778 1.763.093-.073.313-.124.381-.068 3.333 2.734 6.941-.064 10.834.592-.338-1.945-.68-3.742-.957-5.552-.54-3.536 1.996-5.963 5.437-5.168 3.03.7 6.062 1.409 9.048 2.268 5.598 1.612 11.647 1.692 14.727 8.636 2.002 4.513 6.715 6.523 12.353 4.661 2.107-.697 4.839-.148 7.113.47 3.229.873 3.392 3.689 3.315 6.56-.102 3.861 1.558 4.798 5.268 3.971 2.401-.535 5.001-.241 7.51-.203.784.011 1.671.759 2.331.563 5.103-1.5 7.574 1.61 9.546 5.556 2.604-.666 3.688-1.624 2.512-4.336-.659-1.523-.432-3.43-.721-6.352 6.917 3.803 14.185.716 19.79 5.113 1.098.859 2.354 2.372 2.377 3.607.194 9.879.108 19.763.108 29.761l-2.319.481c.977 4.095 1.953 8.194 2.923 12.252-10.436.865-16.646 7.002-22.746 13.748-1.103-.9-2.218-1.812-2.68-2.191-4.922 1.405-9.27 2.646-14.296 4.082-.44.917-1.228 2.763-2.188 4.512-1.165 2.121-2.937 3.828.476 6.021 1 .642.439 4.478-.17 6.63-.581 2.05-2.163 3.815-2.947 5.876l-12.469 17.894c-1.489-8.644-4.094-16.023-2.485-23.719.749-3.582 1.583-7.646 6.142-9.051.975-.3 1.62-1.729 2.382-2.664 2.99-3.668 5.648-7.681 9.045-10.921 3.053-2.915 3.688-6.311 3.45-10.634-3.01 3.671-6.021 7.343-9.526 11.619-1.044-2.865-1.726-4.73-2.381-6.522-7.502.373-13.839 7.853-11.346 13.538-1.426.362-2.801.754-4.198 1.056-1.438.311-2.893.535-4.326.795-1.178-4.686-2.273-5.095-6.543-2.898-.891.458-2.017.605-3.038.62-1.482.022-2.968-.308-4.453-.311-5.404-.015-10.164.819-13.752 5.879-3.963 5.589-8.853 10.521-13.085 15.442 1.592 1.477 2.917 2.861 4.416 4.02.652.506 1.668.781 2.51.757 1.625-.046 3.874-1.151 4.744-.443 2.429 1.975 3.979 4.69 3.038 8.223-.825 3.093-1.458 6.246-2.006 9.402-1.799 10.351-8.298 17.954-15.012 25.339-.948 1.044-3.704.229-5.168 1.068-2.597 1.487-4.987 3.431-7.188 5.479-1.458 1.357-2.157 3.598-3.703 4.775-1.931 1.472-2.651 2.464-.759 4.454 1.096 1.155 2.115 2.557 2.651 4.035 2.38 6.549 1.486 9.193-6.282 10.258-.236-2.079-.665-4.158-.668-6.238-.003-3.957.099-3.957-3.774-5.389.215-.675.45-1.364.655-2.061.226-.767.423-1.542.642-2.347-3.61-3.639-6.398-.286-9.991 1.37.538-2.419.954-4.292 1.372-6.165l-.847-.702c-1.641 1.205-3.318 2.369-4.909 3.641-.616.494-.947 1.354-1.571 1.833-1.232.943-4.949.333-2.958 3.141 1.145 1.616 2.636 5.999 6.746 2.776.857-.672 3.097.416 5.237.784-3.363 2.742-6.122 4.992-8.466 6.902 2.399 4.205 5.912 7.648 5.935 11.115.025 3.882 2.712 8.279-1.672 12.46-3.739 3.566-4.809 9.792-10.054 12.349-3.935 1.922-8.095 3.378-12.111 5.141-1.935.852-3.768 1.935-5.883 3.033-.923-2.718-2.819-4.096-6.185-1.737-4.652 3.26-5.303 5.136-2.736 9.125 2.287 3.552 5.054 6.893 6.732 10.711 1.668 3.799.653 7.267-3.588 9.467-2.29 1.188-4.106 3.287-5.283 4.263-4.609-4.343-8.78-8.271-13.319-12.543-1.137 3.653-3.182 6.856-2.722 9.644.516 3.125 2.807 6.407 5.227 8.646 2.644 2.449 5.381 4.16 5.175 8.426-.092 1.916 1.333 3.905 2.115 5.979-4.632-.249-8.653-4.901-10.301-10.531-.765-2.617-2.784-4.854-4.117-7.326-.43-.797-.884-1.928-.642-2.687 2.307-7.25-1.288-13.627-2.511-20.847-1.126.597-1.747 1.039-2.437 1.271-1.447.491-2.928.871-4.396 1.296-.17-1.25-.288-2.511-.523-3.747-.226-1.176-.357-2.443-.905-3.471-1.925-3.628-3.938-7.216-6.108-10.7-.391-.628-1.836-1.136-2.551-.916-1.593.492-2.959 1.894-4.55 2.176-2.909.52-4.496 1.866-6.206 4.428-2 2.993-5.524 4.99-8.458 7.33-2.146 1.708-4.516 3.148-6.56 4.959-.769.681-1.391 2.145-1.252 3.134 1.007 7.11-1.044 13.051-6.989 18.649-5.515-11.973-11.368-23.332-12.018-36.551-5.825 1.499-5.568 1.372-8.311-4.208-1.034-2.101-4.075-3.163-5.3-5.232-1.735-2.934-4.034-2.404-6.611-2.43-4.822-.047-9.642-.379-14.457-.681-2.348-.146-4.578-.5-5.189-3.515-.084-.418-2.087-.871-3.021-.622-4.504 1.198-9.771-.825-12.186-4.961-.611-1.048-.82-2.626-1.7-3.152-1.267-.759-2.974-.939-4.497-.954-.257-.001-.917 2.165-.704 3.187.289 1.384 1.156 2.683 1.927 3.926 1.219 1.967 2.565 3.858 4.02 6.024l.624-.589 1.029-.951c.294.618.591 1.043.699 1.513.306 1.333.55 3.852.794 3.849 2.168-.029 4.512-.096 6.446-.958 1.876-.837 3.33-2.624 4.809-3.86-.093 2.95 1.085 5.233 4.712 6.381 4.168 1.318 4.82 3.952 1.99 7.251-3.037 3.539-4.686 8.343-9.345 10.441l-.772.894c-8.709 3.996-17.416 7.994-26.165 11.9-1.87.834-3.235.56-3.745-1.988-1.037-5.19-1.492-10.63-5.268-14.887-1.046-1.18-1.918-2.515-2.855-3.79-.709-.965-1.893-1.891-2.011-2.932-.835-7.347-6.858-11.903-9.604-18.202-.396-.903-1.396-1.544-2.121-2.31l-3.335 1.855c.906 1.926 1.982 4.494 3.297 6.932 1.776 3.298 3.8 6.461 5.567 9.762.47.882.239 2.113.59 3.091.953 2.658 2.173 5.223 3.062 7.902 2.152 6.502 7.789 10.072 12.109 14.759.405.441.147 1.432.373 2.108.759 2.277 1.458 4.506 4.799 3.647 4.829-1.243 9.724-2.23 15.422-3.515-.457 2.46-.571 4.806-1.343 6.908-3.13 8.536-7.792 15.868-15.474 21.301-6.05 4.281-11.533 9.844-13.538 17.008-1.074 3.833 1.398 8.599 2.003 12.979.648 4.686 1.417 9.43 1.22 14.11-.07 1.676-2.683 3.387-4.359 4.817-1.618 1.378-3.541 2.394-5.303 3.607-3.911 2.688-5.754 5.646-3.236 10.679 1.658 3.319.735 6.828-3.612 8.289-2.16.723-3.243 1.86-3.085 4.734.338 6.16-4.595 10.041-7.711 14.604-3.737 5.475-8.894 8.37-15.902 7.771-2.256-.191-4.654 1.095-6.969 1.77-4.22 1.23-6.721-.012-6.437-4.303.353-5.358-2.959-9.037-4.604-13.469-1.572-4.241-4.043-8.391-4.49-12.748-.575-5.622-2.836-10.507-5.427-15.015-3.567-6.205-1.831-11.54 1.046-16.747 1.592-2.88 2.273-4.987.91-8.185-1.429-3.352-1.671-7.189-2.766-10.71-.583-1.875-1.49-3.977-2.916-5.203-4.714-4.05-5.88-8.535-4.251-14.645 1.71-6.414-.267-8.062-6.69-7.475-1.029.096-2.841-.394-3.093-1.063-1.953-5.176-6.218-4.595-9.837-3.465-5.391 1.688-10.487 4.184-16.358 2.366-.676-.21-1.676.095-2.345.478-4.683 2.675-8.026.443-12.042-2.161-4.992-3.239-6.971-8.678-10.998-12.401-3.56-3.292-6.065-6.885-6.291-12.329 3.012-3.811 3.677-9.56 1.726-14.169-1.753-4.147-.048-6.751 1.178-9.65 1.418-3.356 3.496-6.563 5.855-9.356 2.162-2.562 5.056-4.52 7.675-6.681 1.859-1.533 2.725-3.11 2.735-5.821.011-2.543 1.374-5.408 2.945-7.537 2.064-2.794 4.917-5.008 7.828-7.861 4.868 2.986 10.024 1.118 15.256-1.86 1.907-1.082 4.362-1.355 6.614-1.642 5.263-.668 10.554-1.114 15.833-1.661 2.542-.263 4.485 3.589 3.538 7.255-.256 1-.92 1.896-1.932 3.891 3 1.154 5.867 2.163 8.65 3.363 1.793.773 3.455 1.847 5.194 2.75 3.019 1.571 6.008 3.223 9.142 4.522.379.159 2.108-1.545 2.296-2.557.801-4.288 3.532-5.783 7.351-4.237 4.792 1.94 9.754 3.451 14.661 5.102.466.155 1.221.181 1.553-.087 2.856-2.312 5.863-1.419 8.754-.335 3.129 1.174 4.569-.185 5.377-2.974 1.078-3.726 2.583-7.387 3.152-11.188.514-3.449-1.062-4.004-4.331-2.872-1.772.613-3.947.1-5.936.025-1.032-.04-2.41-.723-3.028-.276-3.338 2.405-6.209-.008-8.197-1.526-3.216-2.455-3.45-7.77-1.547-10.924-2.522-.713-5.347-5.475-7.727.785l-3.211-.57 2.864 6.915c-.853 1.403-1.875 3.085-2.994 4.93-.426-.197-1.26-.304-1.458-.717-2.268-4.735-4.42-9.524-6.642-14.283-.798-1.707-1.296-3.87-2.636-4.947-3.299-2.651-7.561-4.076-8.979-8.839-.37-1.245-2.476-2.088-3.933-2.825-.428-.218-1.959.552-1.968.889-.032 1.648-.249 3.65.565 4.89 3.219 4.893 7.355 8.95 12.513 11.882.774.44 1.355 1.216 1.691 2.489-.825-.322-1.724-1.009-2.456-.863-.724.145-1.28 1.13-1.909 1.748 3.036 2.608-.498 3.899-1.276 5.619-.661 1.458-2.051 2.583-3.52 4.334l-5.738-2.513.042-.961c1.965-.298 3.927-.641 5.899-.882 3.095-.378 3.783-2.315 2.234-4.514-1.567-2.228-3.596-4.412-5.918-5.762-3.528-2.05-6.382-4.311-7.729-8.336-1.012-3.019-3.309-3.547-5.886-1.605-2.286 1.724-4.385 3.099-7.681 2.183-2.449-.68-5.049-.091-5.18 3.785-.044 1.324-1.686 3.175-3.041 3.756-3.44 1.48-4.853 3.839-4.831 7.432.021 3.609-4.268 7.915-7.877 8.116-1.2.067-2.756-.16-3.52.488-2.271 1.929-3.387 1.489-5.062-.885-.693-.983-3.325-.6-4.455-.753-4.98-5.376-.333-11.235-1.651-16.732-.338-1.41-.346-2.897-.494-4.246 2.364-3.747 5.926-1.467 8.945-1.885.392-.054.808.056 1.211.087 3.299.262 7.191 2.245 9.387-1.689 2.108-3.779-.049-10.393-3.398-13.235-1.456-1.237-5.327-.843-3.95-3.849.597-1.304 3.987-1.327 6.672-2.094l-.105-2.037c3.749.033 7.076-.737 8.554-4.805.092-.252.1-.707.239-.748 5.021-1.468 6.02-6.243 8.59-9.837 1.194-1.67 4.636-1.621 6.894-2.699.977-.465 1.963-1.726 2.169-2.777.243-1.227-.286-2.639-.61-3.939-1.491-6.013-.71-7.772 5.162-11.386l.671 6.403c-3.331 3.729-3.14 5.518.577 9.167l8.397.816c4.244.059 7.598-6.009 12.801-1.374 3.542-2.397 5.975-4.865 4.978-9.666-.376-1.813 1.49-4.09 2.538-6.657l4.377 4.796c.863-3.161 2.316-5.309-.101-7.872-2.061-2.191-1.524-4.268 1.631-4.995 1.668-.384 3.528-.873 5.107-.499 2.842.67 4.74-.114 6.266-2.593-.966-3.099-3.423-2.915-5.845-2.375-1.563.348-3.035 1.118-4.547 1.698-5.293 2.038-9.112-.862-8.604-6.538.035-.405.277-.861.156-1.197-3.142-8.763 2.914-13.84 7.821-19.294 1.586-1.764 2.9-3.045.85-5.425-2.139-2.483-4.376-2.074-6.329-.381-1.337 1.16-2.9 3.211-2.755 4.705.433 4.38-2.373 6.716-4.84 9.297-6.4 6.694-6.716 10.003-2.719 18.12.776 1.578-.155 5.325-1.563 6.37-2.804 2.083-2.609 4.728-3.155 7.408-.588 2.896.45 6.911-4.492 7.072-.546 4.201-5.846 2.139-7.061 6.044l-3.195-4.135 4.955-1.924c-1.742-5.243-3.549-10.687-5.611-16.896-1.783 2.061-2.797 3.709-4.244 4.767-1.408 1.027-3.466 2.259-4.861 1.907-1.41-.356-3.128-2.423-3.37-3.952-.782-4.929-1.257-9.961-1.186-14.943.027-1.835 1.461-4.347 3.023-5.348 8.321-5.332 12.944-13.381 16.523-22.066 3.672-8.917 9.428-16.379 15.337-23.759 2.17-2.708 4.92-4.906 8.953-4.607.966.07 2.462-1.039 2.976-1.997 1.503-2.809 3.577-3.532 6.682-4.505 6.012-1.882 8.955 1.623 12.841 4.585l-2.728 2.548 2.442 4.066 2.794-1.86c.341.26.63.528.958.726 2.688 1.617 5.215 3.693 8.113 4.722 4.929 1.75 13.41 9.884 13.664 13.854.349 5.416-4.609 8.974-9.54 6.867-2.854-1.22-5.72-2.412-8.604-3.552-.273-.107-.729.241-1.837.649 4.374 3.493 4.116 8.213 4.606 12.886.166 1.56 2.708 2.871 4.988 5.1l-.439-8.868c2.465 1.519 3.766 2.479 5.205 3.141.845.389 1.908.3 2.874.426.122-.961.601-2.055.303-2.862-1.653-4.485 2.728-5.644 4.585-8.029.553-.711 3.197.206 5.867.479-.288-4.573-.617-9.81-.945-15.044 5.733.751 5.907.87 7.309 5.074-.96.643-2.771 1.377-2.716 1.92.173 1.692 1.054 3.312 1.659 4.958 1.407-.724 3.878-1.28 4.024-2.203.503-3.186 2.683-4.415 4.984-5.853 2.525-1.575 4.903-3.383 7.395-5.015 1.046-.684 2.216-1.18 4.302-2.266l-2.297 6.046c5.015-1.792 9.153-3.272 13.751-4.916l2.519 2.953c2.08-2.132 3.639-4.036 1.413-6.984-.521-.688-.666-2.581-.268-2.844.812-.54 2.151-.602 3.199-.423 5.499.938 9.371 4.588 13.256 8.188 1.285 1.193 2.584 2.369 3.892 3.563 2.574-3.452 1.271-7.385-3.295-10.031.047-.443.293-1.031.129-1.466-3.329-8.895 3.214-15.752 4.957-23.585.318-1.429 2.465-3.747 3.204-3.549 2.399.639 6.183.122 6.074 4.412-.009.27.125.582.029.804-3.061 7.106.601 14.207.075 21.345-.22 3.015 1.407 6.122 1.627 9.226.16 2.277-.267 4.739-1.04 6.902-.989 2.767-2.586 5.317-3.92 7.957 4.482 2.378 6.291-1.41 8.602-17.793-3.54-1.24-3.416-4.205-2.499-6.918 1.292-3.813 1.481-7.265-.728-10.808-.487-.781-.384-2.39.102-3.243 2.934-5.135 2.998-5.099 3.232-10.171l1.175-.133c.298 4.507.594 9.015.891 13.522l1.647.006c-1.182-3.721-1.068-6.971 2.898-8.477 3.61-1.369 6.867-.916 9.313 2.939-.455-4.382-1.034-8.255-1.208-12.145-.189-4.214 1.453-5.535 5.842-5.558 3.155-.018 6.31-.259 8.129-.342.887-4.428.524-8.653 2.461-10.847 2.911-3.299 7.44-5.168 11.27-7.663 1.451-.943 3.069-1.739 4.259-2.947 1.7-1.728 6.4-1.856 8.707-.222 3.391-2.11 6.628-4.122 10.81-6.725.331-4.878 3.257-9.744 9.259-12.904l3.853 3.518-2.669 3.228c3.708.834 6.464 2.261 5.73 6.745zm-189.625 189.363l1.729-2.012c-6.168-2.372-6.165-2.369-9.728 2.929-.286.426-.764.743-.977 1.196-1.279 2.728-2.955 5.386-3.557 8.266-.273 1.302 1.313 3.983 2.591 4.401 2.173.711 5.233.956 7.095-.083 4.315-2.408 8.05-2.728 12.552-.452 2.578 1.304 5.883 1.516 8.863 1.532 1.381.006 3.604-1.413 3.918-2.591.306-1.146-1.04-3.15-2.191-4.184-3.067-2.754-6.419-5.19-9.431-7.572l4.765-8.571c-3.908 1.557-7.363 2.931-11.891 4.733 2.438 1.595 3.734 2.439 5.166 3.374-2.32 1.035-4.352 1.941-6.202 2.763l-2.702-3.729zm45.037 3.926c2.047-1.508 4.042-2.981 6.797-5.014.949-3.598-.086-5.062-4.592-4.801-2.381.138-10.457 5.963-11.028 8.018-.139.49-.353 1.124-.166 1.518 2.438 5.103 4.941 10.176 7.515 15.433-1.11 2.194-3.935 5.303-1.379 8.183 1.762 1.988 5.363 2.636 8.273 3.214 2.173.432 4.007-.664 3.263-3.566-.818-3.185-1.585-6.386-2.377-9.599l4.806-.633c-1.96-1.977-1.778-6.027-4.703-3.468-2.167-3.14-4.202-6.089-6.409-9.285zM710.148 410.154c2.115-3.328 2.396-7.882 7.569-7.672.288.011.642-1.593.956-2.419 1.758.622 3.579 1.47 5.494 1.883 1.712.368 3.528.254 5.858.382-1.417 2.691-2.572 4.891-3.974 7.556 3.683 2.436 7.275 4.966 11.065 7.155.597.342 2.756-.631 3.051-1.421.879-2.35 1.272-4.898 1.698-7.394.529-3.101.896-6.227 1.335-9.342l1.143-.013c.794 2.086 1.426 4.256 2.439 6.23.66 1.292 2.146 2.165 2.784 3.461 1.383 2.803 3.008 5.671 3.501 8.68.459 2.788 1.586 4.277 3.929 5.522 1.333.709 2.418 2.051 3.363 3.299 2.156 2.853 3.633 6.505 6.342 8.594 4.641 3.581 4.898 8.726 5.395 13.391.421 3.95-1.356 8.154-2.291 12.216-.16.705-1.254 1.185-1.441 1.893-1.692 6.49-6.807 5.493-11.563 5.463-8.375-.052-16.749-.014-25.405-.014l1.004-4.808c-2.258 2.061-3.861 3.524-5.812 5.308-1.898-5.049-4.825-8.571-9.96-9.658-.648-.137-1.35-.646-1.903-.507-6.176 1.564-13.234.707-17.927 6.429-.315.385-.845.748-1.318.816-5.73.84-11.451 1.826-17.211 2.32-2.384.204-5.484-.062-2.7-4.099.778-1.127.68-3.245.284-4.722-1.002-3.742-2.341-7.402-3.656-11.054-1.889-5.249-2.6-10.917-.784-15.902.959-2.626 5.309-4.183 8.336-5.843 3.746-2.053 9.013-1.039 11.514-5.643.628-1.156.9-2.533 1.651-3.582.461-.646 1.54-.829 2.306-1.284.318-.19.562-.53.798-.834 1.11-1.431 2.126-2.94 3.32-4.296 2.936-3.331 4.789-3.485 8.417-.979.62.428 1.449.548 2.393.888zM185.802 115.305c1.623-5.705-3.175-6.753-5.969-9.2-4.468 4.202-9.458 1.873-14.169.947-3.271-.645-6.386-2.146-9.526-3.375-3.306-1.291-3.379-3.443-1.192-5.949-5.321-1.902-3.836-6.688-3.393-9.749 1.132-7.812 1.639-11.939 10.036-13.327v9.653l1.336.313c.621-5.046 3.263-8.245 8.93-9.718 1.475 4.529 2.97 9.115 4.687 14.383l7.302-5.292 9.631 10.669-.771.887 2.839-.826c3.587 2.813 7.105 4.811 9.549 7.715 2.247 2.67 3.68 6.209 4.719 9.598.293.958-2.062 2.724-3.895 4.968.571.319 1.583.713 2.381 1.364 3.749 3.064 9 4.401 10.852 9.732.291.835 2.297 1.074 4.598 2.048l-5.556 12.178c-2.434-3.186-3.982-5.503-5.852-7.524-.816-.88-2.293-1.148-3.468-1.694-.384 1.421-1.437 3.109-1 4.205.711 1.781 2.198 3.408 3.706 4.69 4.106 3.486 4.781 7.827 3.833 13.592-2.785-1.634-5.134-3.014-8.275-4.856l5.579 8.742c-6.329-1.139-11.124-3.436-14.859-7.451-2.234-2.399-3.864-5.357-5.767-8.064l-.742.898c-2.049.351-4.118 1.045-6.144.935-1.395-.075-3.894-1.312-3.87-1.951.075-1.951.335-4.393 3.515-4.369 2.385.016 4.773-.455 6.388-.625 1.006-3.182 1.543-5.789 2.631-8.142 2.786-6.03 1.645-10.015-4.231-13.47-1.159-.682-2.4-1.219-3.833-1.935zM111.021 82.731c.889 2.883 2.375 5.733 2.543 8.658.34 5.958 3.072 10.087 7.84 13.332 1.003.683 1.961 2.369 1.849 3.48-.099.965-1.744 1.773-3.157 3.062.054.197.705 1.261.408 1.802-.546.996-1.648 2.346-2.526 2.352-1.531.009-3.036-1.153-4.608-1.342-2.158-.259-4.431-.396-6.54.013-2.869.555-5.608 1.756-8.445 2.525-3.125.848-6.343 1.867-7.996-2.484-.267-.704-1.584-1.539-2.315-1.454-4.214.502-4.42-2.93-6.188-6.119 4.095-.813 7.785-1.546 11.473-2.28l.057-1.32c-2.472-.181-4.939-.443-7.413-.522-2.518-.08-5.566 1.251-6.516-2.854l3.928-2.755-6.493-2.57c1.259-5.392 2.648-10.308 7.548-13.166 1.269-.74 2.745-1.119 4.126-1.666l1.402 4.413c1.186-.459 2.744-1.063 4.436-1.721l3.455 3.785 3.564-4.141 3.871 9.703.946-.078c-.209-2.082-.494-4.16-.6-6.246-.086-1.658.048-3.326.083-4.992l4.877.942.391 1.643zM423.955 42.406c-3.886 1.237-4.685-2.634-6.123-4.779-.988-1.475-.551-3.906-.235-5.984-4.77-5.762-7.46-12.716-8.866-20.223-1.291-6.905-1.215-6.919 5.787-11.097.265.767.361 1.571.778 2.142.693.949 1.59 1.749 2.402 2.613.785-.906 1.586-1.799 2.352-2.72.768-.924 1.496-2.639 2.247-2.641 1.148-.003 2.637.905 3.394 1.88 3.379 4.355 6.551 8.871 9.871 13.429-8.786 6.966-8.278 17.605-11.607 27.38zM527.081 101.017c-3.506-1.026-8.374 2.672-10.035-3.455-.211-.778-1.605-1.348-2.556-1.791-2.842-1.326-2.533-3.71-1.657-5.819 1.852-4.466 5.779-8.837 5.648-13.151-.14-4.617 2.684-6.598 4.166-9.747.225-.479.562-.969.588-1.468.549-10.113 9.104-13.066 15.944-17.161 3.094-1.853 7.124-1.966 9.796-5.147 1.078-1.285 3.311-1.602 4.954-2.329 3.379 4.513 3.082 6.612-1.336 9.312-7.716 4.717-16.185 8.696-20.821 16.943-3.617 6.433-6.892 13.184-9.255 20.156-1.66 4.894 1.273 9.4 4.564 13.657zM135.27 37.831c2.053 1.096 4.014 2.167 6 3.191 1.232.637 2.498 1.688 3.758 1.702 3.487.043 4.495 2.221 4.542 4.96.109 6.516 7.57 10.839 13.7 8.261 2.833-1.193 6.254-1.567 9.354-1.38 2.963.177 6.062 5.494 4.655 8.261-1.035 2.033-3.62 3.756-5.887 4.552-2.241.788-5.047-.192-7.432.359-5.788 1.338-11.054.186-15.957-2.756-1.265-.759-2.369-2.416-2.759-3.874-.865-3.223-.821-6.735-1.967-9.825-.614-1.654-2.728-3.214-4.514-3.884-4.711-1.772-5.838-3.84-3.493-9.567zM62.654 69.941c9.566-3.83 19.432-.67 23.347 6.533-3.59 4.299-7.04 8.397-10.436 12.542-.5.611-1.091 1.467-1.039 2.162.373 4.898-3.318 6.233-6.817 7.967-.948-1.348-1.605-3.284-2.914-3.966-4.735-2.467-4.644-5.941-2.825-10.093.376-.856.453-1.837.745-2.734 1.357-4.174 3.934-8.282-.061-12.411zM732.677 391.159c2.352-3.906 1.588-6.265-3.382-8.237-2.98-1.182-6.071-2.083-10-3.412l-.344-3.034 1.059-.113c-1.899-1.027-3.8-2.056-5.833-3.158 5.97-3.15 7.051-2.741 9.189 2.897.385 1.015 1.4 1.79 2.609 3.271 4.678-8.642 10.595-3.504 15.682-1.672 5.497 1.981 10.497 5.344 15.101 7.78-.752 7.228 5.038 8.721 8.328 12.524-4.483-.292-8.243-1.029-10.952-4.82-2.743-3.839-5.011-3.433-8.053.067-.937 1.077-3.855.933-5.72.581-2.565-.485-4.989-1.699-7.684-2.674zM682.674 366.406c-1.76 3.588-3.729 6.589-4.724 9.882-1.286 4.262-1.608 4.512-5.778 3.07-2.53-.876-5.398-.733-8.068-1.265-3.141-.627-6.547-9.156-4.802-11.805.213-.324.535-.743.861-.804 8.359-1.549 12.68-8.653 18.983-13.508l4.894 4.052c-3.809 6.434-3.848 6.99-1.366 10.378zM102.48 56.787c.132-4.746-5.389-8.941-.432-14 4.55 1.725 1.84 6.833 4.708 9.71 1.333-.133 3.875-2.667 4.63 1.388.767 4.107-.728 7.773-3.581 8.738-3.755 1.272-7.351 3.02-11.116 4.257-1.697.557-3.637.374-5.466.528.737-1.524 1.391-3.098 2.253-4.545.302-.507 1.115-.71 1.694-1.049l-.441-1.069h-13.828c.959-3.018 1.394-5.15 2.302-7.057 1.165-2.444 2.708-4.706 4.087-7.047 2.759 1.807 5.77 3.334 8.202 5.51 2.095 1.871 2.918 5.335 6.988 4.636zM366.323 216.389c1.597-1.964 2.917-3.59 4.309-5.304l-1.959-1.218c.149-2.161.078-3.667.408-5.082.23-.983.854-2.005 1.591-2.704.73-.694 1.824-1.007 2.758-1.486-.692-1.245-1.2-2.656-2.137-3.675-.654-.711-1.896-.885-2.32-1.064-.981-2.704-2.321-4.86-2.44-7.083-.171-3.191.192-6.535 1.086-9.593.298-1.025 2.918-1.371 5.433-2.434l-1.726 5.399c1.427.153 2.802.301 4.828.516l-2.226 6.878c2.096 3.024 4.337 5.86 6.122 8.958 1.408 2.445 1.4 5.477 4.591 7.135 1.842.958-1.61 7.807-3.975 8.187-4.509.722-8.992 1.601-14.343 2.57zM507.183 403.413c2.789 3.264 1.879 7.458.518 11.854-2.034 6.575-3.96 13.194-5.59 19.878-.76 3.117-3.082 4.474-5.428 4.557-2.452.089-3.919-1.918-4.459-4.828-.638-3.445-1.022-6.416 1.097-9.572.792-1.176.476-3.354.157-4.974-.834-4.245.449-5.695 3.942-7.933 3.624-2.323 6.468-5.869 9.763-8.982zM320.972 142.295l4.361-2.258-5.853-2.658c1.748-5.987 3.379-6.165 9.204-.948 2.013-1.465 3.834-3.996 6.891-1.754.252.184 1.267-.811 1.991-1.104 1.835-.74 3.706-1.391 5.181-1.935 1.092 3.107 1.963 5.371 2.681 7.681 1.068 3.444-1.545 5.135-3.651 6.826-5.525 4.443-11.514 5.481-17.948 1.436 3.398-3.57-1.911-3.38-2.857-5.286zM432.995-9.393l3.772 3.373 3.176-4.767c3.449 3.077 7.725 5.525 9.672 9.205.972 1.841-1.511 7.033-3.861 8.739-3.353 2.437-8.002 1.909-11.91-.271-.771-.432-1.22-1.473-1.767-2.271-.495-.727-.853-2.104-1.387-2.164-4.621-.52-3.515-4.749-5.532-7.305l7.837-4.539zM718.549 274.53l-2.62.489c1.758 3.373 1.096 5.912-1.981 8.163l-2.715-6.27c1.712-1.475 3.715-2.869 5.296-4.638 2.395-2.679 5.243-3.521 8.669-3.117.594.071 1.743-.175 1.775-.392.507-3.679 3.861-3.914 6.211-5.451 3.251-2.126 4.824-5.216 4.665-9.293-.051-1.286 1.217-2.622 1.883-3.935.867 1.108 2.105 2.098 2.502 3.354.42 1.324.286 2.964-.054 4.355-.783 3.199-2.368 6.286-2.639 9.501-.268 3.208-2.135 4.095-4.474 4.912-2.78.973-5.592 1.856-8.88 2.939l-1.983-2.7c2.017 5.276-4.211 3.146-5.44 5.69l-.215-3.607zM650.9 385.399c-4.396.771-6.769-2.625-8.93-5.175-3.437-4.06-5.887-8.94-8.993-13.304-1.765-2.479-4.011-4.617-6.033-6.913-1.037-1.175-2.062-2.356-3.093-3.536l.781-1.35c2.196 1.026 4.563 1.796 6.551 3.136 3.236 2.18 5.548 5.324 9.392 7.139 2.956 1.394 4.002 6.421 6.854 8.55 4.426 3.304 3.474 7.392 3.334 11.592l.137-.139zM733.97 64.96c-.782-1.486-3.192-4.063-3.362-6.781-.462-7.409 5.406-10.413 12.312-6.71 2.015 1.082 3.85 2.501 5.867 3.577 3.188 1.703.877 3.96.694 5.965-.178 1.975-1.172 2.918-3.428 2.943-3.634.044-7.261.574-12.083 1.006zM133.422 75.317c-.525 1.935-1.086 3.996-1.78 6.544 3.256 1.977 3.971 5.535 2.812 9.206-.597 1.893-2.335 3.646-4.002 4.839-.456.328-2.677-1.427-3.811-2.516-1.746-1.678-3.334-3.542-4.831-5.452-.907-1.156-1.513-2.545-2.712-4.622l5.632.435c-1.456-3.417-3.66-6.707.174-9.263l8.518.829zM84.368 33.215c3.184 9.32-3.706 13.452-9.609 17.99-2.175 1.672-4.562 1.489-6.678-1.218 4.273-6.693 5.338-16.548 16.287-16.772zM129.71 43.699c3.66 6.318 2.189 11.72 1.226 16.969-.179.973-2.625 2.021-4.069 2.089-.902.043-2.258-1.534-2.729-2.668-.475-1.14-.105-2.63-.105-4.159h-4.016v-7.35l9.693-4.881zM634.458 28.867c1.546-5.861 2.792-10.94 4.243-15.961.958-3.321 3.063-3.913 5.096-1.271 2.264 2.947 6.394 5.117 5.221 9.808-.299 1.186-1.331 2.648-2.398 3.097-3.708 1.564-7.58 2.737-12.162 4.327zM150.727 74.408c-2.251 2.983-4.598 5.908-6.721 8.987-1.055 1.53-1.586 3.411-2.574 4.997-.407.651-1.369 1.229-2.125 1.292-.506.043-1.505-.827-1.578-1.38-.497-3.837-1.589-7.821-1.011-11.529 1.069-6.85 6.418-7.884 14.009-2.367zM242.513 225.415l-2.565 4.54c-1.998-6.208-6.772-1.947-9.581-3.967.533-5.693 5.103-14.025 9.398-15.967-.951 2.168-1.666 3.802-2.512 5.735 1.948 1.002 2.203 3.987 5.765 3.574 2.331-.27 4.563 8.307 2.817 10.236-.346.383-1.591.592-1.623.521-.499-1.101-.864-2.26-1.699-4.672zM126.268 29.063c-4.26-2.542-8.026-4.789-11.967-7.142-.108-1.022-.155-2.887-.533-4.68-.413-1.961-1.132-3.857-1.829-6.148 9.542 1.613 14.91 7.672 14.329 17.97zM176.926 149.244c-3.43 2.18-4.645 1.888-7.78-1.502l-5.525 5.207 1.04-1.494-2.545-4.235-1.785 2.213c.642-4.074 1.285-8.149 2.027-12.868 5.011 4.361 9.612 8.365 14.568 12.679zM742.58 231.518c.207-4.52.49-8.807.565-13.097.042-2.385.075-4.857-.486-7.143-.914-3.728-2.214-7.302 1.296-10.45.299-.269.04-1.158.577-1.85 1.324 6.971 2.649 13.939 3.979 20.928-4.298.848-4.451 1.548-1.825 10.739l-4.106.873zM356.714 209.33c0-2.988-.785-5.803.189-7.735 1.357-2.699 3.969-4.798 6.235-6.953.184-.176 2.235.962 2.725 1.866 2.112 3.901-2.388 12.561-6.789 13.21-.875.128-1.831-.293-2.36-.388zM691.333 375.247l3.642 8.867-1.206.638-5.69-7.046-.723 7.084-1.193-.202c-1.079-4.62-2.624-9.158-.161-13.915 1.305-2.524 2.318-4.215 5.77-3.331 2.363.605 5.063-.102 7.993.124-1.511.589-2.978 1.442-4.544 1.694-1.704.275-3.541-.252-5.238.044-.989.173-1.818 1.272-2.719 1.955 1.092.536 2.156 1.42 3.287 1.514 1.266.104 2.588-.511 4.684-.997l-3.902 3.571zM496.492-9.661c5.009-3.798 6.613-3.832 8.492-.412l3.251-4.388c5.003 3.674 4.965 4.622.281 7.613-1.181.754-2.22 1.81-3.134 2.888-.902 1.065-1.566 2.333-2.323 3.498-4.07-1.934-3.372-4.801-2.269-7.954-1.379-.401-2.617-.76-4.298-1.245zM742.703 235.732c2.702 1.693 5.299 3.32 7.895 4.949l.711-.979c1.682 5.074-5.444 3.608-5.146 7.752-1.65-.81-2.819-1.383-3.902-1.913-.339.326-.54.501-.721.695-.831.886-1.63 1.81-2.54 2.605-.08.07-1.289-.701-1.283-1.068.026-1.428.089-3.993.574-4.097 4.632-.989 2.932-5.163 4.23-7.761.102-.204.349-.337.182-.183zM650.764 385.538c2.283.651 4.562 1.31 6.846 1.947.886.244 1.978.876 2.649.584 5.445-2.37 9.054 2.655 13.725 3.282.28.037.5.504.75.773l-.283 1.14-24.579-4.401 1.026-3.461-.134.136zM129.931 16.768c4.653-.652 6.341 2.693 7.204 5.764.802 2.856-.253 5.87-4.219 6.889-3.089-3.665-3.344-8.045-2.985-12.653zM177.974 83.292c-.376-.543-1.202-1.245-1.38-2.085-.439-2.079-.584-4.218-.846-6.335 2.39.521 5.109.506 7.075 1.716 1.826 1.125 2.847 3.553 4.579 5.889-3.703.321-6.426.556-9.428.815zM192.104 315.223c-4.696 2.545-7.578.36-10.677-1.628-4.757-3.048-9.547-6.602-15.779-2.574 1.699-3.383 5.868-5.028 10.239-3.367 5.362 2.039 10.436 4.828 16.217 7.569zM438.692 22.572c1.459 2.455 2.901 4.882 4.426 7.45-3.975 5.227-4.247 5.305-8.591 2.196 1.526-8.588 1.526-8.588 4.165-9.646zM688.167 320.493c4.437.503 5.841 3.162 4.106 6.038-2.429 4.029-2.362 3.961 2.171 5.76 1.21.481 2.03 1.943 2.623 3.497-2.399-2.88-6.778-.781-9.193-4.493-2.765-4.246 1.222-7.024.293-10.802zM139.333 55.501c.822 1.429 2.02 2.626 2.144 3.927.2 2.087-.308 4.244-.518 6.37-1.799-.602-4.557-.724-5.157-1.925-.775-1.549-.086-4.042.501-5.968.28-.915 1.779-1.46 3.03-2.404zM126.571 112.055l4.126-5.945c5.444 3.074 7 6.042 4.889 9.618l-9.015-3.673zM699.236 354.466l-3.396-4.385c-.521.149-1.964.559-3.841 1.089 1.281-5.616 8.295-1.613 9.215-6.995l1.725.775c0 2.359.215 4.748-.127 7.055-.108.726-1.712 1.231-3.576 2.461zM95.653 35.116c-3.918-3.493-4.376-5.443-1.748-7.596 2.12-1.741 5.178-2.086 6.357.263 1.976 3.938-2.084 5.251-4.609 7.333zM764.622 61.078c-1.057 4.001-3.464 5.065-6.364 3.126-2.143-1.433-6.185-2.493-3.8-7.156 3.512 1.392 6.833 2.709 10.164 4.03zM194.434 315.68c4.611 1.224 8.461 2.245 12.311 3.268l-.209 1.735-14.636.827-.068-1.199h4.479c-.573-1.408-1.004-2.473-1.877-4.631zM746.319 79.814l-8.399-1.128-.542-1.537c1.819-1.152 3.799-3.392 5.412-3.153 1.674.246 2.995 2.893 4.47 4.49l-.941 1.328zM586.721 344.296c.785 2.492 1.708 4.957 2.236 7.503.108.521-1.225 1.821-1.98 1.897-.703.071-2.116-.948-2.186-1.596-.262-2.451-.105-4.944-.105-7.424l2.035-.38zM185.269 127.721c-1.601-3.02-1.188-5.581 1.248-7.581.257-.211 2.706 1.213 2.896 2.134.622 3.021-.568 5.163-4.144 5.447zM111.021 82.731l-.388-1.643c-.649-1.301-1.3-2.606-2.412-4.83 2.088 0 3.657-.186 5.127.112.441.091 1.086 1.807.803 2.316-.815 1.475-2.057 2.713-3.13 4.045zM101.221 20.988l-6.497 1.731-.67-1.079c.838-1.562 1.678-3.125 2.743-5.106l4.298 2.953.126 1.501zM-6.226 183.242l-5.933 2.777c-.068-1.08-.619-2.655-.116-3.144 1.399-1.362 3.144-3.283 6.049.367zM689.097 310.593c-3.153-4.469-1.092-6.892 1.264-9.25l1.177.271-2.441 8.979zM402.923 257.489c-.2-1.302-.645-2.626-.518-3.895.094-.923.943-1.771 1.455-2.65.697.781 2.007 1.601 1.964 2.338-.094 1.615-.876 3.19-1.378 4.781l-1.523-.574zM759.855 385.575c2.808-1.148 5.701-2.329 8.873-3.627-.09.395.02 1.887-.628 2.384-2.484 1.898-5.218 3.428-8.245 1.243zM135.802 29.151c2.488 1.321 4.277 2.27 6.065 3.221-.522.609-1.192 1.817-1.54 1.732-1.948-.486-5.056.351-4.525-4.953zM664.074 317.427l-4.74 3.334c-.425-.849-1.336-2.352-1.2-2.451 1.489-1.111 3.14-2.006 4.747-2.96l1.193 2.077zM704.555 392.753c-2.763 1.565-5.526 3.129-8.289 4.693l-.776-1.499c2.844-1.452 5.688-2.905 8.532-4.356l.533 1.162zM44.546 199.344l1.026 7.639-.435.396-3.239-7.261 2.648-.774zM172.319 155.487l-4.109 2.837c-.271-.651-.911-1.758-.757-1.881 1.185-.956 2.521-1.721 3.812-2.547l1.054 1.591z" fill="#fff"/><path d="M177.581 238.148l-3.675-.749-1.773 5.755c-2.272.149-.613-5.416-4.971-1.377 2.296-4.293 2.056-6.787-1.862-7.929-3.545 2.708-5.69 5.805-4.059 10.671.378 1.121-1.086 2.861-1.886 4.747-2.51-3.296-3.069-12.8-.279-14.447 3.445-2.032 8.075-2.449 12.248-2.724 3.277-.215 5.73 1.803 6.257 6.053zM156.327 228.409c-3.306.661-5.994 1.196-8.683 1.732l-.518-1.388c4.349-1.667 6.097-8.115 11.956-6.534 3.612.975 6.479 3.706 6.335 8.417-3.065-1.536-7.483 2.238-9.09-2.227z" fill="#52C0A7"/><path d="M178.807 244.025c-2.897 4.599-6.69 5.95-10.487 3.928 3.766-1.41 7.127-2.671 10.487-3.928zM186.703 239.741c-1.068 2.981-1.068 2.981-8.234 1.826 2.631-.583 5.26-1.165 8.234-1.826z"/><path d="M464.434 234.862l2.703 3.729c1.85-.822 3.881-1.728 6.202-2.763-1.432-.935-2.728-1.779-5.166-3.374 4.528-1.802 7.983-3.176 11.891-4.733l-4.765 8.571c3.012 2.382 6.364 4.817 9.431 7.572 1.151 1.034 2.497 3.037 2.191 4.184-.313 1.179-2.537 2.598-3.918 2.591-2.98-.016-6.285-.229-8.863-1.532-4.502-2.275-8.237-1.956-12.552.452-1.862 1.039-4.921.794-7.095.083-1.277-.418-2.864-3.099-2.591-4.401.602-2.88 2.277-5.538 3.557-8.266.212-.453.69-.77.977-1.196 3.563-5.298 3.56-5.301 9.728-2.929l-1.73 2.012zM509.471 238.788c2.207 3.196 4.243 6.145 6.409 9.284 2.925-2.559 2.743 1.491 4.703 3.468l-4.806.633c.792 3.213 1.559 6.415 2.377 9.599.744 2.903-1.09 3.998-3.263 3.566-2.91-.578-6.512-1.226-8.273-3.214-2.555-2.88.269-5.989 1.379-8.183-2.573-5.257-5.077-10.33-7.515-15.433-.188-.394.026-1.027.166-1.518.571-2.055 8.646-7.88 11.028-8.018 4.506-.261 5.541 1.204 4.592 4.801-2.755 2.034-4.75 3.507-6.797 5.015z" fill="#52C0A7"/></g><path d="M-28-17v489h868v-489h-868zm617 431.531l-131.354.542-71.646-74.362v74.289h-111v-309h136.664l63.336 70.244v-70.244h114v308.531z"/><defs><path id="a" d="M-26-17v489h868v-489h-868zm617 431.531l-131.354.542-71.646-74.362v74.289h-111v-309h136.292l62.708 70.244v-70.244h115v308.531z"/></defs><clipPath id="b"><use xlink:href="#a" overflow="visible"/></clipPath><g clip-rule="evenodd" stroke="#fff" stroke-miterlimit="10" clip-path="url(#b)"><path d="M-26.372 103.523c2.929-2.06 7.053-1.767 9.558-5.083.398-.525 4.195 1.518 6.382 2.601 1.787.759 3.582 1.502 5.359 2.287.729.322 1.383.946 2.131 1.07 6.47 1.077 13.105 1.526 19.386 3.264 4.819 1.333 9.411 3.919 13.699 6.596 2.738 1.712 4.425 3.208 6.883-.324.911-1.308 3.366-1.553 5.128-2.256 1.309-.523 2.708-.861 3.935-1.529 1.861-1.016 3.606-2.247 5.438-3.411l2.72 3.103 2.744-5.373 5.182 7.15 3.129-3.459.908 3.99c.427.091.823.271.902.18 3.614-4.184 6.47-2 10.106.449 3.096 2.083 7.24 2.563 10.823 3.992 1.517.606 2.788 1.826 4.413 2.93-1.189 1.493-2.074 2.603-3.087 3.871 4.465 2.718 8.725 1.236 13.248.081.721.924 1.531 1.964 2.613 3.355l2.693-2.964c-.854-1.199-1.546-2.17-2.22-3.113 2.198-3.536 6.295-4.376 8.564-1.723 3.704 4.333 8.304 6.202 13.966 5.475.933-.119 1.881-.128 2.819-.208.118-.01.226-.145-.317-.695l3.209-4.578 4.852 5.133c.522-.647 2.256-2.018 2.918-3.788 1.228-3.293.646-6.484-1.615-9.471-4.469-5.906-4.317-11.476.127-17.939 5.9 1.392 10.064 10.882 7.507 17.532 4.863.274 4.181 3.933 4.162 8.256 1.484-1.936 2.376-3.1 4.095-5.338.817 3.125 1.5 5.47 2.031 7.847.471 2.114.771 4.269 1.256 7.03 4.126-4.605 4.525-6.029 5.767-19.015 4.227.037 8.872.863 9.896 5.122 1.12 4.653.875 9.959-.113 14.702-.87 4.182-6.543 6.059-10.643 4.49-1.276 3.377-2.375 6.839-3.891 10.109-1.094 2.358-2.105 5.102-5.563 5.159-.676.01-1.591.609-1.969 1.207-3.321 5.261-6.862 10.423-9.663 15.957-1.34 2.645-1.246 6.024-1.746 9.082-.081.505.028 1.478.222 1.526 5.049 1.235 4.058 6.382 6.057 9.566l.581-1.073c3.074 1.262 6.552 1.981 9.128 3.909 4.122 3.083 7.856 6.43 13.424 6.57.677.018 1.539 1.959 1.907 3.138 1.111 3.569 1.77 7.298 3.136 10.755.538 1.361 2.481 2.164 3.785 3.22.859-1.592 2.469-3.208 2.422-4.776-.097-3.274-1.068-6.522-1.767-10.251-.003.001.638-.445 1.305-.85 6.596-4.006 7.961-10.06 3.187-16.025-1.759-2.198-1.807-3.698-.505-6.014.767-1.362.729-3.274.732-4.94.003-1.463-.57-2.923-.658-4.398-.133-2.24-.068-4.493-.089-6.741 2.135.247 4.416 1.094 6.378.621 5.291-1.275 7.685 1.748 10.128 5.507.627.969 2.61 1.055 4.478 1.729.018 4.98-.479 10.718 6.306 14.315 2.037-3.241 4.187-6.658 6.821-10.844 1.781 7.099 6.972 12.075 7.572 19.47.192 2.38 4.509 4.403 6.897 6.633 1.464 1.369 2.863 2.806 4.263 4.238.724.74 1.348 1.58 2.091 2.301 2.269 2.195 2.274 6.141-.229 8.129-1.341 1.063-3.381 1.381-4.479 2.601-4.909 5.465-11.025 4.484-17.187 3.65-4.714-.638-6.405 3.875-9.493 5.915-2.175 1.436-3.334 4.409-4.755 6.969 4.723-3.516 7.991-10.317 15.92-7.23-2.538 4.682-1.904 9.672 1.113 11.492 2.976 1.794 5.186 1.097 7.895-2.723l2.233 3.365c-5.158 2.835-10.196 5.606-15.232 8.375l-.983-.664 3.028-6.276c-2.17.989-3.828 1.653-5.396 2.485-2.129 1.127-4.177 2.407-6.286 3.577-3.566 1.979-4.023 4.87-1.267 7.467-3.141 1.452-6.316 2.916-9.78 4.514-1.016 2.409-2.075 5.185-3.401 7.829-.27.537-1.547.568-2.566.9 0 .241-.188.872.028 1.294 3.171 6.176-.372 9.19-5.212 12.046-2.474 1.461-4.871 3.579-6.372 5.981-1.099 1.761-1.127 4.528-.826 6.736.359 2.622 1.859 5.074 2.342 7.696.352 1.912-.141 3.979-.259 5.977l-1.912.448c-1.419-2.996-3.213-5.881-4.157-9.02-.94-3.136-.657-6.378-5.811-5.177-2.343.546-5.169-1.236-7.824-1.685-1.675-.284-3.655-.548-3.665 2.364 0 .3-2.769 1.195-3.88.791-6.199-2.266-11.647-.863-15.345 4.322-.234.329-.583.702-.582 1.054.015 7.681-4.049 15.869 2.272 22.757 1.589 1.732 4.393 3.431 6.543 3.316 3.282-.175 7.375 0 8.508-5.07 1.081-4.83 5.476-3.053 9.233-3.655-1.636 5.443-3.139 10.449-4.854 16.158 2.666-.208 4.975-.362 7.278-.571 4.944-.45 6.837 1.618 6.145 6.446-.567 3.965-1.799 8.317 2.546 11.001 1.432.884 3.519.828 5.324.958 2.032.145 4.588-.769 6.025.161 3.36 2.17 4.438-.059 6.109-2.032 1.177-1.388 2.566-2.709 4.114-3.64 1.994-1.199 4.242-1.977 6.921-3.18l-1.07 4.569c3.996-3.902 6.686-1.337 10.133-.138 2.645.919 6.135 2.488 9.928.664 1.629-.783 5.298 1.747 7.557 3.423 3.225 2.393 5.911 5.499 9.033 8.048.889.724 2.521.884 3.763.77 5.897-.542 10.94 2.531 12.837 8.092.761 2.227 1.394 4.494 2.434 7.879 1.778.468 5.367.83 8.383 2.337 5.432 2.712 10.761 5.132 17.013 5.285 1.602.04 3.164 1.911 4.729 2.961 1.115.748 2.105 1.833 3.329 2.236 2.065.68 4.553.883 4.354 3.766-.197 2.839-.275 5.979-1.552 8.378-1.808 3.393-4.743 6.175-7.038 9.331-.74 1.02-1.464 2.434-1.378 3.608.545 7.422-2.114 14.018-5.176 20.46-.721 1.516-2.397 2.915-3.97 3.615-2.908 1.295-6.19 1.759-9.087 3.074-3.866 1.753-5.78 4.576-6.582 9.271-.784 4.589-4.142 8.77-6.535 13.037-1.033 1.842-2.542 3.412-3.723 5.18-1.912 2.851-3.736 4.96-7.943 4.823-12.202-.403-24.427-.143-36.642-.143h-4.09c.298-5.653.341-11.141.943-16.566.651-5.875 1.932-11.677 2.72-17.542.413-3.069.259-6.211.533-9.304.365-4.093-1.851-6.964-5.083-8.363-7.097-3.067-10.801-8.664-13.88-15.342-2.213-4.805-5.741-8.99-8.218-13.696-1.048-1.991-2.494-4.665.267-6.878.813-.65 1.399-1.582 2.11-2.41-3.194-2.02-2.688-6.856.681-9.984 7.5-6.963 7.17-11.564 2.796-19.843-.322-.606-1.956-1.259-2.24-1.02-1.137.966-1.981 2.275-3.331 3.949-3.718-2.094-8.056-4.288-12.078-6.959-1.181-.786-1.393-2.959-2.174-4.433-2.31-4.356-7.114-4.403-10.888-6.252-2.109-1.034-4.29-2.105-6.061-3.604-2.218-1.88-4.193-2.255-7.242-2.075-3.763.222-7.713-1.509-11.47-2.739-2.661-.872-5.395-1.959-7.629-3.59-2.777-2.024-5.81-3.29-5.709-8.543.068-3.703-5.021-7.479-7.747-11.263-3.822-5.305-7.55-10.678-11.405-15.957-1.029-1.41-2.375-2.586-3.577-3.87l-1.621 1.17c3.688 8.792 10.21 16.157 14.072 24.862l-1.111.75c-1.915-2.801-3.62-5.783-5.814-8.345-1.696-1.982-4.005-3.44-6.364-5.399 2.234-2.036 1.042-3.522-.705-5.627-2.172-2.618-3.271-6.094-5.117-9.021-1.24-1.962-2.648-4.542-4.552-5.206-3.708-1.294-5.504-4.041-7.121-6.999-2.17-3.968-4.504-8.003-5.688-12.31-1.09-3.965-.859-8.32-1.022-12.51-.252-6.377.353-12.894-.845-19.073-.479-2.477-4.798-4.186-7.321-6.301-.842-.708-1.53-1.597-2.977-3.13 9.39.654 11.781 7.412 15.485 13.748.46-3.956.021-6.71-2.983-8.639-2.709-1.74-5.36-3.567-8.007-5.4-.641-.444-1.591-1.005-1.673-1.61-.833-6.18-5.655-10.392-7.767-15.98-1.355-3.595-4.414-6.513-6.062-10.038-2.054-4.399-4.461-7.364-9.918-7.173-1.572.055-3.428-2-4.799-3.428-3.449-3.587-7.453-5.335-12.486-5.677-2.485-.17-4.782-2.291-7.304-3.1-1.178-.378-3.837.157-3.868.468-.548 5.654-6.052 4.439-8.586 7.202l-1.515-.819c.918-3.191 1.835-6.38 2.57-8.939-3.034 1.832-6.212 7.524-6.327 11.282-.04 1.292-1.079 2.772-2.061 3.779-3.691 3.784-7.441 7.527-11.411 11.013-1.049.922-2.961.865-4.476 1.257v-2.439c3.656-3.575 8.548-6.372 7.967-11.706-2.818-.748-5.392-1.431-7.967-2.113.002-24.665.002-49.322.002-73.981zm205.581 136.254c-.527-4.25-2.98-6.268-6.259-6.053-4.172.275-8.802.692-12.248 2.725-2.79 1.646-2.23 11.151.279 14.447.8-1.886 2.264-3.626 1.886-4.747-1.632-4.867.513-7.963 4.059-10.671 3.918 1.142 4.158 3.636 1.862 7.929 4.358-4.039 2.699 1.526 4.971 1.377l1.773-5.755 3.677.748zm-21.254-9.739c1.606 4.465 6.025.691 9.089 2.228.145-4.711-2.723-7.442-6.335-8.417-5.858-1.581-7.606 4.867-11.956 6.534l.518 1.388 8.684-1.733zm22.481 15.615c-3.36 1.257-6.721 2.518-10.487 3.928 3.796 2.023 7.589.671 10.487-3.928zm7.895-4.283c-2.974.661-5.603 1.243-8.234 1.826 7.166 1.155 7.166 1.155 8.234-1.826zM349.194-17.601c-2.41 3.045-5.209 5.867-7.123 9.196-1.972 3.431-3.976 6.316-8.299 7.199l3.479 1.27c-3.463 13.67-8.52 27.309-2.118 41.04-2.726 1.624-5.178 3.083-6.586 3.921 1.461 4.741 2.861 8.526 3.706 12.432.293 1.351-.917 2.977-1.197 4.521-.188 1.053-.133 2.229.138 3.266.442 1.681 1.151 3.293 1.854 5.225l-4.631 1.305c3.139 6.46 2.993 6.713-5.006 9.012.85 2.771 1.706 5.561 2.56 8.352l-.94.449-3.976-2.447-.87.478c.306.824.365 1.99.956 2.417 4.38 3.157 5.664 7.654 5.915 12.63-5.238 4.401-5.874-1.924-8.246-3.622l-2.432 7.445 9.208.801c-7.034 6.884-12.633 13.827-22.385 15.097-1.705.222-3.885 2.199-4.571 3.885-2.661 6.535-7.373 10.455-13.926 12.499-4.024 1.257-5.834 4.028-5.733 8.228.028 1.181-.027 2.794-.743 3.496-5.216 5.107-3.349 12.257-5.534 18.197-.4 1.087-1.319 2.541-2.233 2.735-.996.213-2.293-.781-3.404-1.355-1.574-.813-3.082-2.415-4.644-2.449-3.261-.073-4.466-2.051-5.597-4.436-1.556-3.277-3.229-6.51-4.609-9.86-1.015-2.461-1.618-5.09-2.447-7.632-.779-2.396-1.799-4.733-2.366-7.178-.487-2.112.11-4.649-.83-6.446-1.751-3.345-.615-6.23.413-9.21.416-1.205 1.158-2.596 2.17-3.247 3.715-2.389 3.547-5.904 3.498-9.604-2.927.603-4.887 5.938-7.864 2.097-1.534-1.977-1.195-5.817-.743-8.664.134-.836 3.557-1.148 5.597-1.737-2.073-1.323-2.043-5.997-6.911-5.206-.351.057-1.891-2.67-1.518-3.447 1.991-4.131 1.575-7.934-.214-11.993-2.644-5.992-3.275-12.655-7.149-18.39-1.568-2.323-1.953-5.547-4.334-7.996-4.074-4.191-8.923-3.354-13.686-3.113-9.288.465-10.847-.451-14.734-10.234 3.034-1.435 6.109-2.89 9.412-4.45-2.348-.758-4.758-1.507-7.149-2.311-3.766-1.267-7.714-5.186-7.152-7.613.406-1.759 1.435-3.752 2.816-4.836 4.252-3.337 8.833-6.255 13.24-9.401 4.98-3.554 5.021-6.534.236-10.408-.943-.764-1.877-1.535-2.924-2.394 1.04-7.31 6.522-11.938 10.377-17.514h129.249zM212.625-17.601c-4.346 6.457-9.251 12.609-10.806 20.556-.156.795-.953 1.653-1.681 2.12-3.805 2.44-7.684 4.765-11.059 6.836-.124 1.49-.827 3.258-.279 4.458 2.817 6.181.168 10.282-4.241 14.445-2.188 2.066-3.463 5.299-4.612 8.215-1.648 4.18 2.394 2.123 3.741 3.018.343 5.176-5.497 9.409-10.076 7.567-1.728-.695-3.788-.632-5.706-.78-3.936-.302-7.902-.324-11.807-.84-1.919-.252-2.666-5.27-.798-6.003 4.298-1.692 3.496-4.709 2.964-7.941-.186-1.127-.03-2.312-.03-4.366 2.667 1.726 4.701 3.042 6.733 4.356l.962-.733c-1.92-2.538-3.741-5.159-5.786-7.592-2.49-2.963-.297-5.095 1.417-6.812 5.049-5.057 5.057-5.454 1.897-11.563-1.361-2.632-1.67-5.806-2.737-9.771l9.923 1.545 3.818-5.468c-4.101-.304-7.205-.808-10.287-.7-5.078.179-7.508-1.123-9.449-5.915-.605-1.494-.97-3.086-1.446-4.633 19.784.001 39.563.001 59.345.001zM147.592-17.601c1.399 5.621 4.398 9.99 9.479 13.017 1.169.696 1.902 2.491 2.369 3.931 1.308 4.035 2.375 8.148 3.572 12.355-1.799 3.433-4.047 7.267-5.836 11.305-1.113 2.508-2.902 3.856-5.281 3.397-2.318-.445-5.114-1.337-6.516-3.018-3.023-3.625-2.706-7.998-.54-12.178-5.657-.856-9.812-7.52-8.091-13.714 1.11-3.995 3.312-7.678 4.855-11.567.416-1.05.216-2.345.298-3.528h5.691zM628.023-17.601c2.233 4.738 4.371 9.523 6.728 14.197 2.831 5.617 3.44 11.5 2.799 17.662-.364 3.493-3.312 6.037-6.461 4.719-5.624-2.352-10.248-5.705-11.332-12.496-.559-3.507-2.083-6.86-3.171-10.283l-2.032-.274 10.219-13.524 3.25-.001z" fill="none"/><path d="M-26.372 177.499l7.967 2.113c.581 5.334-4.311 8.131-7.967 11.706v-13.819z" fill-rule="evenodd"/><path d="M197.993 471.773c.711-.235 1.419-.675 2.13-.677 11.571-.044 23.141-.043 34.712 0 .726.003 1.451.441 2.177.677h-39.019zM735.328 471.773c.977-.236 1.952-.674 2.929-.68 8.454-.055 16.907-.058 25.361 0 1.139.008 2.275.443 3.414.68h-31.704zM655.687 47.127c6.384-3.756 10.423-2.562 15.312 3.238 3.457 4.098 3.1 9.22-.908 13.001-2.797 2.639-5.7 5.167-9.304 8.423 3.747 1.616 6.431 2.773 9.117 3.933l.603-1.105c.45 1.339.902 2.676 1.441 4.271 3.922-3.949 8.136-2.147 12.264-1.27.354.074.907.368.944.622 1.092 7.424 7.4 2.832 11.062 5.928l.631-7.773c4.128 2.207 9.612.048 12.21 5.042 1.187 2.284 2.192 5.121 1.969 7.586-.534 5.863.645 9.099 6.09 12.481.438-1.273.861-2.473 1.257-3.679.406-1.236.788-2.48 1.336-4.209 2.418 2.71 4.815 4.058 7.778 1.762.093-.073.313-.124.381-.068 3.333 2.734 6.941-.063 10.834.592-.338-1.945-.68-3.742-.957-5.552-.54-3.536 1.997-5.963 5.437-5.168 3.03.7 6.062 1.408 9.048 2.268 5.598 1.611 11.646 1.692 14.727 8.636 2.002 4.513 6.715 6.523 12.353 4.661 2.106-.697 4.839-.148 7.113.47 3.229.873 3.391 3.689 3.315 6.56-.102 3.861 1.558 4.798 5.268 3.971 2.401-.535 5.001-.241 7.51-.203.784.011 1.671.759 2.331.563 5.103-1.501 7.573 1.61 9.545 5.556 2.605-.666 3.688-1.624 2.512-4.336-.659-1.523-.432-3.43-.721-6.352 6.918 3.803 14.185.716 19.791 5.113 1.097.859 2.354 2.372 2.377 3.607.193 9.879.107 19.763.107 29.76l-2.319.481c.977 4.095 1.954 8.194 2.923 12.252-10.435.866-16.646 7.002-22.745 13.749l-2.681-2.191c-4.922 1.405-9.27 2.646-14.295 4.082-.44.917-1.228 2.763-2.188 4.512-1.165 2.121-2.937 3.828.476 6.021 1 .642.439 4.478-.17 6.63-.581 2.05-2.163 3.815-2.947 5.876-3.937 5.649-7.872 11.298-12.468 17.894-1.49-8.644-4.095-16.023-2.485-23.719.749-3.582 1.583-7.646 6.142-9.051.975-.3 1.62-1.729 2.382-2.665 2.991-3.667 5.648-7.68 9.045-10.92 3.053-2.915 3.688-6.311 3.45-10.634-3.01 3.671-6.021 7.343-9.526 11.619-1.044-2.866-1.726-4.73-2.381-6.522-7.502.373-13.839 7.853-11.346 13.538-1.426.362-2.801.754-4.198 1.056-1.438.312-2.894.536-4.326.796-1.178-4.686-2.273-5.095-6.543-2.898-.891.458-2.017.605-3.038.62-1.482.022-2.968-.308-4.453-.311-5.405-.015-10.164.819-13.752 5.879-3.963 5.588-8.853 10.521-13.085 15.442 1.592 1.477 2.917 2.861 4.416 4.021.652.506 1.668.781 2.51.757 1.625-.046 3.874-1.151 4.744-.443 2.429 1.975 3.979 4.69 3.038 8.223-.825 3.093-1.458 6.246-2.006 9.402-1.799 10.351-8.298 17.954-15.012 25.339-.948 1.044-3.704.228-5.168 1.068-2.597 1.487-4.987 3.431-7.188 5.479-1.458 1.357-2.157 3.598-3.703 4.775-1.931 1.472-2.651 2.464-.759 4.454 1.096 1.155 2.115 2.557 2.651 4.035 2.38 6.549 1.486 9.193-6.282 10.258-.236-2.079-.665-4.159-.668-6.238-.003-3.957.099-3.957-3.774-5.389.215-.675.45-1.364.655-2.061.226-.767.423-1.542.642-2.347-3.61-3.639-6.398-.286-9.991 1.37.537-2.419.954-4.292 1.372-6.165l-.847-.702c-1.641 1.205-3.318 2.369-4.908 3.641-.616.494-.947 1.354-1.571 1.833-1.232.943-4.949.333-2.959 3.141 1.145 1.616 2.637 5.999 6.746 2.775.857-.671 3.097.416 5.237.785-3.363 2.742-6.122 4.992-8.466 6.902 2.399 4.204 5.912 7.647 5.935 11.115.026 3.882 2.712 8.279-1.671 12.46-3.739 3.566-4.809 9.792-10.054 12.349-3.935 1.922-8.095 3.378-12.111 5.141-1.935.852-3.768 1.935-5.883 3.033-.923-2.718-2.819-4.096-6.185-1.737-4.652 3.26-5.303 5.136-2.736 9.125 2.287 3.552 5.054 6.893 6.731 10.711 1.669 3.799.653 7.267-3.587 9.467-2.29 1.188-4.106 3.287-5.283 4.263-4.609-4.343-8.78-8.271-13.319-12.543-1.137 3.653-3.182 6.856-2.722 9.644.517 3.125 2.807 6.407 5.227 8.646 2.644 2.448 5.381 4.16 5.175 8.426-.092 1.916 1.333 3.905 2.115 5.979-4.632-.249-8.653-4.901-10.301-10.531-.765-2.617-2.784-4.854-4.117-7.326-.43-.797-.884-1.928-.642-2.687 2.307-7.25-1.288-13.627-2.511-20.847-1.126.597-1.747 1.039-2.438 1.271-1.447.491-2.928.871-4.396 1.295-.169-1.249-.287-2.51-.522-3.747-.226-1.176-.357-2.443-.905-3.47-1.925-3.628-3.938-7.216-6.108-10.7-.392-.628-1.836-1.136-2.551-.916-1.594.492-2.959 1.894-4.55 2.176-2.909.52-4.496 1.866-6.206 4.428-2 2.993-5.524 4.99-8.458 7.329-2.146 1.708-4.516 3.148-6.56 4.96-.769.681-1.391 2.145-1.252 3.134 1.007 7.11-1.044 13.051-6.988 18.649-5.515-11.973-11.368-23.331-12.018-36.55-5.826 1.499-5.568 1.372-8.311-4.208-1.034-2.101-4.075-3.163-5.3-5.233-1.735-2.934-4.034-2.404-6.611-2.429-4.821-.047-9.642-.379-14.457-.681-2.349-.146-4.578-.5-5.189-3.515-.084-.418-2.087-.871-3.021-.622-4.505 1.198-9.771-.825-12.186-4.961-.611-1.048-.82-2.626-1.7-3.152-1.267-.759-2.974-.939-4.497-.954-.257-.001-.917 2.165-.704 3.187.288 1.384 1.155 2.683 1.927 3.926 1.219 1.967 2.565 3.858 4.02 6.024l.624-.589 1.029-.951c.293.618.59 1.043.699 1.513.306 1.333.55 3.852.794 3.849 2.168-.029 4.512-.096 6.446-.958 1.876-.837 3.33-2.624 4.809-3.86-.093 2.95 1.084 5.233 4.712 6.381 4.168 1.318 4.819 3.952 1.99 7.251-3.037 3.539-4.686 8.343-9.345 10.441l-.772.894c-8.709 3.996-17.416 7.994-26.165 11.9-1.87.834-3.235.56-3.745-1.988-1.037-5.19-1.492-10.63-5.268-14.887-1.046-1.18-1.918-2.515-2.855-3.79-.709-.965-1.893-1.891-2.011-2.933-.835-7.347-6.858-11.903-9.604-18.201-.396-.903-1.396-1.544-2.121-2.311l-3.335 1.856c.906 1.926 1.982 4.494 3.297 6.932 1.776 3.298 3.8 6.461 5.567 9.762.47.882.238 2.113.59 3.091.953 2.658 2.173 5.223 3.062 7.902 2.152 6.502 7.789 10.072 12.109 14.759.405.441.147 1.432.373 2.108.759 2.277 1.458 4.506 4.799 3.647 4.829-1.243 9.724-2.23 15.422-3.515-.457 2.46-.571 4.806-1.343 6.908-3.13 8.536-7.792 15.868-15.474 21.301-6.05 4.281-11.534 9.844-13.538 17.007-1.074 3.833 1.398 8.6 2.003 12.98.648 4.686 1.417 9.43 1.22 14.11-.07 1.676-2.683 3.386-4.359 4.817-1.618 1.378-3.541 2.394-5.303 3.607-3.911 2.688-5.754 5.646-3.236 10.679 1.658 3.319.735 6.827-3.612 8.288-2.161.724-3.243 1.86-3.085 4.734.338 6.16-4.595 10.041-7.711 14.604-3.737 5.475-8.894 8.371-15.902 7.772-2.256-.192-4.654 1.094-6.968 1.769-4.22 1.23-6.721-.011-6.437-4.303.353-5.358-2.959-9.037-4.604-13.469-1.572-4.24-4.043-8.391-4.489-12.748-.575-5.622-2.836-10.507-5.427-15.015-3.567-6.205-1.831-11.54 1.046-16.747 1.592-2.88 2.273-4.987.91-8.185-1.429-3.352-1.671-7.189-2.766-10.71-.583-1.875-1.489-3.977-2.915-5.203-4.713-4.05-5.881-8.535-4.251-14.645 1.71-6.415-.267-8.062-6.69-7.475-1.029.096-2.841-.394-3.093-1.063-1.953-5.176-6.218-4.595-9.837-3.465-5.391 1.688-10.487 4.184-16.358 2.366-.676-.21-1.676.095-2.345.478-4.683 2.675-8.026.443-12.042-2.161-4.992-3.239-6.971-8.678-10.998-12.401-3.56-3.292-6.065-6.885-6.291-12.329 3.012-3.811 3.677-9.56 1.726-14.169-1.753-4.147-.048-6.751 1.178-9.65 1.418-3.356 3.496-6.563 5.855-9.356 2.162-2.562 5.056-4.52 7.675-6.681 1.859-1.533 2.725-3.111 2.736-5.821.011-2.543 1.374-5.408 2.945-7.537 2.064-2.794 4.917-5.008 7.828-7.861 4.868 2.986 10.024 1.118 15.257-1.86 1.906-1.082 4.362-1.356 6.614-1.642 5.262-.668 10.554-1.114 15.832-1.661 2.542-.263 4.485 3.589 3.539 7.255-.256 1-.92 1.896-1.932 3.891 3 1.154 5.867 2.163 8.65 3.363 1.793.773 3.455 1.847 5.194 2.75 3.019 1.57 6.008 3.223 9.142 4.522.379.159 2.108-1.545 2.296-2.557.801-4.288 3.532-5.784 7.351-4.237 4.792 1.94 9.755 3.451 14.661 5.102.466.155 1.221.181 1.553-.087 2.856-2.312 5.864-1.42 8.755-.335 3.129 1.174 4.569-.185 5.377-2.974 1.078-3.726 2.583-7.387 3.152-11.188.514-3.449-1.062-4.004-4.331-2.872-1.772.613-3.947.1-5.936.025-1.032-.04-2.41-.723-3.028-.277-3.338 2.406-6.209-.008-8.197-1.525-3.216-2.455-3.45-7.771-1.547-10.924-2.522-.713-5.347-5.475-7.727.785l-3.211-.57 2.863 6.915-2.994 4.931c-.426-.197-1.261-.304-1.458-.717-2.268-4.735-4.42-9.524-6.642-14.283-.798-1.707-1.296-3.87-2.636-4.947-3.299-2.651-7.561-4.076-8.979-8.839-.37-1.245-2.476-2.088-3.933-2.825-.428-.217-1.959.553-1.968.89-.032 1.648-.249 3.65.565 4.89 3.219 4.893 7.355 8.95 12.513 11.882.774.44 1.354 1.216 1.691 2.489-.825-.322-1.724-1.009-2.456-.863-.724.145-1.28 1.13-1.909 1.748 3.036 2.608-.498 3.899-1.276 5.619-.661 1.458-2.051 2.583-3.52 4.334l-5.738-2.513.042-.961c1.965-.298 3.927-.641 5.898-.882 3.096-.378 3.784-2.315 2.235-4.514-1.567-2.228-3.596-4.413-5.918-5.762-3.528-2.05-6.382-4.311-7.729-8.336-1.012-3.019-3.309-3.547-5.886-1.605-2.287 1.725-4.386 3.1-7.682 2.184-2.448-.68-5.048-.091-5.179 3.785-.044 1.324-1.687 3.175-3.041 3.756-3.44 1.48-4.854 3.839-4.831 7.432.02 3.609-4.269 7.915-7.877 8.116-1.2.067-2.756-.16-3.52.488-2.271 1.929-3.387 1.489-5.062-.885-.693-.983-3.325-.6-4.455-.754-4.979-5.376-.333-11.235-1.651-16.731-.338-1.41-.346-2.897-.494-4.246 2.364-3.747 5.926-1.467 8.945-1.885.392-.054.808.056 1.211.087 3.299.262 7.191 2.245 9.387-1.689 2.108-3.779-.049-10.393-3.398-13.235-1.456-1.237-5.327-.843-3.95-3.849.597-1.304 3.987-1.327 6.671-2.094l-.105-2.037c3.749.033 7.076-.737 8.554-4.805.092-.252.1-.707.24-.748 5.021-1.468 6.02-6.243 8.589-9.837 1.193-1.67 4.636-1.621 6.894-2.699.976-.465 1.962-1.726 2.169-2.777.243-1.227-.286-2.639-.609-3.939-1.492-6.013-.71-7.772 5.162-11.386l.671 6.403c-3.331 3.729-3.14 5.518.577 9.167l8.397.816c4.244.059 7.598-6.009 12.801-1.374 3.542-2.397 5.975-4.865 4.978-9.666-.376-1.813 1.49-4.09 2.538-6.657l4.377 4.796c.863-3.161 2.316-5.309-.101-7.872-2.061-2.191-1.524-4.268 1.631-4.995 1.668-.384 3.528-.873 5.107-.499 2.842.67 4.74-.114 6.266-2.593-.966-3.099-3.423-2.915-5.845-2.375-1.563.348-3.035 1.117-4.547 1.698-5.293 2.038-9.112-.862-8.604-6.538.035-.405.277-.861.156-1.197-3.142-8.763 2.914-13.84 7.821-19.294 1.586-1.764 2.9-3.045.85-5.425-2.139-2.483-4.376-2.074-6.329-.381-1.337 1.16-2.9 3.211-2.755 4.705.433 4.38-2.373 6.716-4.84 9.297-6.4 6.694-6.716 10.003-2.719 18.12.776 1.578-.155 5.325-1.563 6.37-2.804 2.083-2.609 4.728-3.155 7.408-.588 2.896.449 6.911-4.492 7.072-.546 4.201-5.846 2.139-7.061 6.044l-3.195-4.135 4.955-1.924c-1.742-5.243-3.549-10.687-5.611-16.896-1.783 2.061-2.798 3.709-4.244 4.767-1.409 1.027-3.467 2.259-4.862 1.906-1.41-.355-3.127-2.423-3.369-3.952-.782-4.93-1.257-9.961-1.186-14.944.027-1.835 1.461-4.347 3.023-5.347 8.321-5.332 12.944-13.381 16.523-22.066 3.672-8.917 9.428-16.379 15.337-23.759 2.17-2.708 4.92-4.906 8.953-4.607.966.07 2.462-1.039 2.976-1.998 1.503-2.809 3.577-3.531 6.682-4.504 6.012-1.882 8.955 1.623 12.841 4.585l-2.728 2.549 2.442 4.066 2.794-1.86c.341.26.63.527.958.726 2.688 1.617 5.215 3.693 8.113 4.722 4.929 1.75 13.41 9.884 13.664 13.854.349 5.416-4.609 8.974-9.54 6.867-2.854-1.22-5.72-2.412-8.604-3.552-.274-.107-.729.241-1.837.649 4.374 3.493 4.115 8.213 4.606 12.886.165 1.559 2.708 2.871 4.988 5.1l-.439-8.868c2.465 1.518 3.766 2.479 5.205 3.141.845.389 1.908.3 2.874.427.122-.961.601-2.056.303-2.862-1.653-4.485 2.728-5.644 4.585-8.029.553-.711 3.197.206 5.867.479-.288-4.573-.617-9.81-.946-15.044 5.733.751 5.907.87 7.309 5.074-.96.643-2.771 1.377-2.716 1.92.173 1.692 1.054 3.312 1.659 4.958 1.407-.724 3.878-1.28 4.024-2.203.503-3.186 2.683-4.416 4.983-5.853 2.525-1.575 4.903-3.383 7.395-5.015 1.046-.684 2.217-1.18 4.302-2.266l-2.297 6.046c5.015-1.792 9.153-3.272 13.751-4.916l2.519 2.953c2.08-2.132 3.639-4.036 1.413-6.984-.521-.688-.666-2.58-.268-2.844.812-.54 2.151-.602 3.198-.423 5.499.938 9.371 4.588 13.256 8.188 1.285 1.192 2.584 2.369 3.892 3.563 2.574-3.452 1.27-7.385-3.295-10.031.047-.443.292-1.031.129-1.466-3.329-8.895 3.214-15.752 4.956-23.585.318-1.429 2.465-3.747 3.204-3.549 2.399.639 6.183.122 6.073 4.412-.008.27.125.582.03.804-3.061 7.106.601 14.207.075 21.345-.22 3.015 1.407 6.122 1.627 9.226.16 2.277-.267 4.739-1.04 6.902-.989 2.767-2.587 5.317-3.92 7.958 4.482 2.378 6.291-1.41 8.602-17.793-3.54-1.24-3.416-4.205-2.499-6.918 1.292-3.814 1.481-7.265-.728-10.808-.488-.781-.384-2.39.102-3.244 2.935-5.135 2.998-5.098 3.232-10.171l1.175-.133c.298 4.507.594 9.015.891 13.522l1.647.006c-1.182-3.721-1.068-6.972 2.898-8.477 3.61-1.369 6.867-.916 9.313 2.939-.455-4.382-1.034-8.255-1.208-12.145-.189-4.214 1.452-5.535 5.842-5.558 3.155-.018 6.31-.259 8.129-.342.887-4.428.523-8.653 2.461-10.847 2.911-3.299 7.44-5.168 11.27-7.663 1.451-.943 3.069-1.739 4.258-2.947 1.701-1.728 6.4-1.856 8.707-.222 3.392-2.11 6.628-4.122 10.811-6.725.331-4.879 3.257-9.744 9.259-12.904l3.853 3.518-2.669 3.228c3.706.829 6.462 2.257 5.728 6.74zm-189.625 189.363l1.729-2.012c-6.168-2.372-6.165-2.369-9.728 2.929-.286.426-.764.743-.977 1.196-1.279 2.728-2.955 5.386-3.557 8.266-.273 1.302 1.313 3.983 2.591 4.401 2.173.711 5.233.956 7.095-.083 4.315-2.408 8.05-2.728 12.552-.452 2.578 1.304 5.882 1.516 8.863 1.532 1.381.006 3.604-1.413 3.918-2.591.306-1.146-1.04-3.15-2.191-4.184-3.067-2.754-6.419-5.19-9.431-7.572l4.765-8.571c-3.908 1.556-7.363 2.931-11.891 4.733 2.438 1.595 3.734 2.439 5.166 3.374-2.32 1.035-4.352 1.94-6.202 2.763l-2.702-3.729zm45.037 3.927c2.047-1.508 4.042-2.981 6.798-5.014.949-3.597-.086-5.062-4.593-4.801-2.381.138-10.456 5.963-11.027 8.018-.139.49-.353 1.124-.166 1.518 2.438 5.103 4.941 10.176 7.514 15.433-1.11 2.194-3.934 5.303-1.379 8.183 1.762 1.988 5.363 2.636 8.273 3.214 2.173.432 4.007-.664 3.263-3.566-.819-3.185-1.585-6.386-2.377-9.599l4.806-.633c-1.96-1.977-1.778-6.027-4.703-3.468-2.166-3.141-4.202-6.089-6.409-9.285zM711.777 411.783c2.115-3.328 2.396-7.882 7.57-7.672.287.011.641-1.593.955-2.419 1.758.622 3.579 1.47 5.494 1.883 1.712.368 3.528.254 5.858.382-1.417 2.691-2.572 4.891-3.974 7.556 3.683 2.436 7.275 4.966 11.065 7.155.597.342 2.756-.631 3.051-1.421.879-2.35 1.272-4.898 1.697-7.394.529-3.101.897-6.227 1.336-9.342l1.143-.013c.794 2.085 1.426 4.256 2.439 6.23.661 1.292 2.146 2.165 2.784 3.461 1.383 2.803 3.008 5.671 3.501 8.68.459 2.788 1.586 4.277 3.929 5.522 1.333.709 2.418 2.051 3.363 3.299 2.156 2.853 3.633 6.505 6.342 8.594 4.641 3.581 4.898 8.727 5.395 13.392.421 3.95-1.356 8.154-2.291 12.215-.16.705-1.254 1.186-1.441 1.894-1.692 6.49-6.807 5.493-11.563 5.463-8.375-.052-16.749-.014-25.405-.014l1.004-4.809c-2.258 2.062-3.861 3.524-5.812 5.308-1.898-5.049-4.825-8.571-9.96-9.657-.648-.137-1.35-.646-1.903-.507-6.176 1.564-13.234.706-17.927 6.429-.315.384-.845.748-1.318.816-5.73.84-11.451 1.825-17.211 2.319-2.384.205-5.484-.062-2.7-4.098.778-1.128.68-3.245.284-4.723-1.002-3.742-2.341-7.401-3.656-11.053-1.889-5.25-2.6-10.918-.784-15.903.959-2.626 5.309-4.182 8.336-5.843 3.746-2.053 9.013-1.039 11.514-5.643.628-1.156.9-2.533 1.65-3.582.461-.645 1.541-.829 2.306-1.283.318-.19.562-.53.798-.835 1.11-1.431 2.126-2.94 3.32-4.296 2.936-3.331 4.789-3.485 8.417-.979.62.427 1.45.548 2.394.888zM187.431 116.934c1.623-5.705-3.175-6.753-5.97-9.2-4.468 4.202-9.458 1.873-14.168.947-3.271-.645-6.386-2.147-9.527-3.375-3.305-1.291-3.378-3.443-1.192-5.949-5.32-1.903-3.835-6.688-3.393-9.749 1.132-7.812 1.639-11.939 10.036-13.327v9.653l1.336.313c.621-5.046 3.263-8.245 8.93-9.718 1.475 4.529 2.97 9.115 4.687 14.383l7.302-5.292 9.631 10.669-.771.886 2.839-.826c3.587 2.813 7.105 4.811 9.549 7.715 2.247 2.67 3.68 6.209 4.719 9.597.293.958-2.062 2.725-3.895 4.969.572.319 1.583.713 2.382 1.364 3.749 3.064 9 4.401 10.852 9.732.291.835 2.297 1.074 4.598 2.048l-5.556 12.178c-2.434-3.185-3.982-5.503-5.852-7.524-.816-.88-2.293-1.148-3.468-1.694-.384 1.421-1.437 3.109-1 4.205.711 1.781 2.198 3.408 3.706 4.69 4.106 3.486 4.781 7.827 3.833 13.592l-8.275-4.856 5.579 8.742c-6.329-1.139-11.124-3.436-14.859-7.451-2.234-2.399-3.865-5.357-5.767-8.064l-.742.898c-2.049.351-4.118 1.045-6.144.935-1.395-.075-3.894-1.312-3.87-1.951.075-1.951.335-4.393 3.515-4.37 2.385.016 4.773-.454 6.388-.625 1.006-3.182 1.543-5.789 2.63-8.142 2.787-6.03 1.645-10.015-4.231-13.47-1.159-.681-2.4-1.218-3.832-1.933zM112.649 84.36c.889 2.883 2.375 5.733 2.543 8.658.34 5.958 3.072 10.087 7.84 13.332 1.003.683 1.961 2.369 1.849 3.48-.099.965-1.744 1.773-3.157 3.062.054.197.705 1.261.408 1.802-.546.996-1.648 2.346-2.526 2.352-1.531.009-3.036-1.153-4.608-1.342-2.158-.259-4.431-.396-6.54.013-2.869.555-5.608 1.756-8.445 2.525-3.125.848-6.343 1.867-7.996-2.484-.267-.704-1.584-1.539-2.314-1.454-4.214.502-4.42-2.93-6.188-6.119 4.095-.813 7.785-1.546 11.473-2.28l.057-1.32c-2.472-.181-4.939-.443-7.413-.522-2.518-.08-5.566 1.251-6.516-2.854l3.928-2.755-6.493-2.57c1.259-5.392 2.648-10.308 7.548-13.166 1.269-.74 2.745-1.119 4.126-1.666l1.402 4.412c1.186-.459 2.744-1.063 4.436-1.72l3.455 3.785 3.564-4.141 3.871 9.703.946-.078c-.209-2.082-.494-4.16-.6-6.246-.086-1.658.048-3.326.083-4.992l4.877.942.39 1.643zM425.583 44.035c-3.886 1.237-4.685-2.634-6.123-4.779-.988-1.475-.551-3.906-.235-5.984-4.77-5.762-7.46-12.716-8.866-20.223-1.29-6.905-1.215-6.919 5.788-11.097.265.767.361 1.571.778 2.142.693.949 1.59 1.749 2.402 2.613.786-.907 1.586-1.799 2.353-2.72.768-.924 1.496-2.639 2.247-2.641 1.148-.003 2.637.905 3.394 1.88 3.378 4.355 6.551 8.871 9.871 13.429-8.788 6.965-8.28 17.604-11.609 27.38zM528.709 102.646c-3.506-1.026-8.374 2.672-10.035-3.455-.211-.778-1.605-1.348-2.556-1.791-2.842-1.326-2.533-3.711-1.657-5.819 1.852-4.466 5.779-8.837 5.648-13.151-.14-4.617 2.683-6.598 4.166-9.747.225-.479.562-.969.588-1.468.549-10.113 9.104-13.066 15.944-17.161 3.094-1.853 7.124-1.966 9.796-5.147 1.078-1.285 3.311-1.602 4.954-2.329 3.378 4.513 3.082 6.612-1.336 9.312-7.715 4.717-16.185 8.696-20.821 16.943-3.617 6.433-6.892 13.184-9.255 20.156-1.659 4.894 1.273 9.4 4.564 13.657zM136.898 39.459c2.053 1.096 4.014 2.167 6 3.191 1.232.637 2.498 1.688 3.758 1.702 3.487.043 4.495 2.221 4.542 4.96.109 6.516 7.57 10.839 13.7 8.261 2.833-1.193 6.254-1.567 9.354-1.38 2.962.177 6.062 5.494 4.655 8.261-1.035 2.033-3.62 3.756-5.887 4.552-2.241.788-5.047-.192-7.432.359-5.788 1.338-11.054.186-15.957-2.756-1.265-.759-2.369-2.416-2.759-3.874-.865-3.223-.821-6.735-1.967-9.825-.614-1.654-2.728-3.214-4.514-3.884-4.71-1.771-5.838-3.84-3.493-9.567zM64.283 71.569c9.566-3.83 19.432-.67 23.347 6.533-3.59 4.299-7.04 8.397-10.436 12.542-.5.611-1.091 1.467-1.039 2.162.373 4.898-3.318 6.233-6.817 7.967-.948-1.348-1.605-3.284-2.914-3.966-4.735-2.467-4.644-5.941-2.825-10.093.376-.856.453-1.837.745-2.734 1.356-4.174 3.933-8.281-.061-12.411zM734.305 392.787c2.351-3.906 1.588-6.265-3.382-8.237-2.98-1.182-6.072-2.083-10-3.412l-.345-3.034 1.06-.113c-1.899-1.027-3.8-2.056-5.833-3.158 5.97-3.15 7.051-2.741 9.189 2.897.385 1.014 1.4 1.79 2.609 3.271 4.678-8.642 10.595-3.504 15.682-1.672 5.497 1.981 10.497 5.344 15.101 7.78-.752 7.228 5.038 8.721 8.328 12.524-4.483-.292-8.243-1.029-10.951-4.82-2.744-3.839-5.012-3.433-8.053.067-.937 1.076-3.855.933-5.72.581-2.566-.484-4.99-1.699-7.685-2.674zM684.302 368.035c-1.76 3.588-3.729 6.589-4.724 9.882-1.286 4.262-1.608 4.512-5.778 3.071-2.53-.876-5.398-.733-8.069-1.266-3.14-.627-6.546-9.156-4.801-11.805.213-.324.535-.743.861-.804 8.359-1.549 12.68-8.653 18.983-13.508l4.894 4.052c-3.808 6.434-3.848 6.989-1.366 10.378zM104.109 58.415c.132-4.747-5.389-8.941-.432-14 4.551 1.725 1.84 6.833 4.708 9.71 1.333-.133 3.875-2.667 4.63 1.388.767 4.108-.728 7.774-3.581 8.739-3.755 1.272-7.351 3.02-11.116 4.257-1.697.557-3.637.374-5.466.528.737-1.524 1.391-3.098 2.253-4.545.302-.507 1.115-.71 1.694-1.049l-.441-1.069h-13.828c.959-3.018 1.394-5.15 2.302-7.057 1.165-2.444 2.708-4.706 4.087-7.047 2.759 1.807 5.77 3.334 8.202 5.509 2.095 1.871 2.917 5.336 6.988 4.636zM367.951 218.017c1.598-1.964 2.917-3.59 4.31-5.304l-1.959-1.218c.149-2.161.077-3.667.408-5.083.23-.982.854-2.005 1.591-2.704.73-.694 1.824-1.007 2.758-1.486-.692-1.245-1.2-2.656-2.137-3.676-.654-.711-1.896-.884-2.32-1.063-.981-2.704-2.321-4.86-2.44-7.083-.171-3.191.192-6.535 1.086-9.593.298-1.026 2.918-1.371 5.433-2.434l-1.726 5.399 4.828.516-2.226 6.878c2.096 3.024 4.338 5.86 6.123 8.958 1.408 2.445 1.401 5.477 4.592 7.135 1.841.958-1.61 7.807-3.976 8.187-4.51.723-8.994 1.603-14.345 2.571zM508.811 405.041c2.789 3.265 1.878 7.458.518 11.854-2.034 6.575-3.96 13.194-5.59 19.878-.76 3.117-3.082 4.474-5.428 4.557-2.452.089-3.919-1.918-4.459-4.828-.639-3.445-1.022-6.416 1.097-9.572.792-1.176.476-3.354.157-4.975-.834-4.244.448-5.695 3.941-7.932 3.626-2.323 6.469-5.868 9.764-8.982zM322.6 143.923l4.361-2.258-5.853-2.658c1.748-5.987 3.378-6.165 9.204-.948 2.013-1.465 3.834-3.996 6.891-1.755.252.185 1.267-.811 1.991-1.103 1.835-.74 3.706-1.391 5.181-1.935 1.092 3.106 1.963 5.371 2.68 7.681 1.068 3.444-1.545 5.135-3.65 6.826-5.525 4.443-11.514 5.481-17.948 1.436 3.398-3.569-1.911-3.379-2.857-5.286zM434.623-7.765l3.772 3.373 3.176-4.767c3.449 3.077 7.725 5.525 9.672 9.205.972 1.84-1.511 7.033-3.861 8.739-3.353 2.437-8.002 1.909-11.91-.272-.771-.431-1.22-1.473-1.767-2.27-.495-.727-.853-2.104-1.387-2.164-4.621-.52-3.516-4.749-5.532-7.305l7.837-4.539zM720.178 276.158l-2.62.489c1.757 3.373 1.096 5.912-1.981 8.163l-2.715-6.27c1.712-1.475 3.716-2.869 5.297-4.638 2.395-2.679 5.243-3.521 8.67-3.117.593.071 1.743-.175 1.774-.392.507-3.679 3.861-3.914 6.211-5.451 3.251-2.126 4.824-5.216 4.665-9.293-.051-1.286 1.217-2.622 1.883-3.935.867 1.108 2.105 2.098 2.502 3.354.42 1.324.286 2.964-.054 4.355-.783 3.199-2.368 6.286-2.639 9.501-.268 3.208-2.135 4.095-4.474 4.912-2.78.973-5.592 1.856-8.88 2.939l-1.983-2.7c2.016 5.276-4.211 3.146-5.441 5.69l-.215-3.607zM652.529 387.027c-4.396.771-6.769-2.625-8.93-5.175-3.437-4.06-5.887-8.94-8.993-13.304-1.765-2.479-4.011-4.617-6.034-6.913-1.037-1.175-2.062-2.356-3.092-3.536l.781-1.35c2.196 1.026 4.563 1.796 6.551 3.136 3.236 2.18 5.548 5.324 9.392 7.139 2.956 1.394 4.002 6.421 6.854 8.549 4.426 3.305 3.474 7.393 3.334 11.592l.137-.138zM735.599 66.588c-.781-1.486-3.192-4.063-3.362-6.781-.462-7.409 5.406-10.413 12.312-6.71 2.015 1.082 3.849 2.501 5.867 3.577 3.188 1.703.877 3.96.694 5.965-.178 1.975-1.172 2.918-3.428 2.943-3.634.044-7.262.574-12.083 1.006zM135.05 76.945c-.525 1.935-1.086 3.996-1.78 6.544 3.256 1.977 3.971 5.535 2.812 9.206-.597 1.893-2.335 3.646-4.002 4.839-.456.328-2.677-1.427-3.811-2.516-1.746-1.678-3.334-3.542-4.831-5.452-.907-1.156-1.513-2.545-2.712-4.622l5.632.435c-1.456-3.417-3.66-6.707.174-9.263 2.558.249 4.984.486 8.518.829zM85.996 34.844c3.184 9.32-3.706 13.452-9.609 17.99-2.175 1.672-4.562 1.489-6.678-1.218 4.273-6.694 5.338-16.549 16.287-16.772zM131.338 45.328c3.66 6.318 2.189 11.72 1.226 16.969-.179.973-2.625 2.021-4.069 2.089-.902.043-2.258-1.534-2.729-2.668-.475-1.14-.104-2.63-.104-4.159h-4.016v-7.35c3.223-1.624 6.44-3.245 9.692-4.881zM636.086 30.495c1.546-5.861 2.791-10.94 4.243-15.962.958-3.32 3.063-3.912 5.096-1.27 2.264 2.947 6.394 5.117 5.221 9.808-.299 1.186-1.331 2.648-2.398 3.097-3.707 1.564-7.58 2.737-12.162 4.327zM152.355 76.037c-2.251 2.983-4.598 5.908-6.721 8.987-1.055 1.53-1.586 3.411-2.574 4.997-.407.651-1.369 1.229-2.125 1.292-.506.043-1.505-.827-1.578-1.38-.497-3.837-1.589-7.821-1.011-11.529 1.069-6.851 6.418-7.884 14.009-2.367zM244.141 227.043l-2.566 4.54c-1.997-6.208-6.771-1.947-9.58-3.967.533-5.693 5.103-14.025 9.397-15.967l-2.512 5.735c1.948 1.002 2.202 3.987 5.765 3.574 2.331-.27 4.563 8.307 2.817 10.236-.346.383-1.591.592-1.623.521-.498-1.101-.862-2.26-1.698-4.672zM127.896 30.691c-4.26-2.542-8.026-4.789-11.967-7.142-.108-1.022-.155-2.887-.533-4.68-.413-1.961-1.132-3.857-1.829-6.148 9.542 1.613 14.91 7.673 14.329 17.97zM178.554 150.873c-3.43 2.18-4.645 1.888-7.78-1.502l-5.525 5.207 1.04-1.494-2.545-4.235-1.785 2.213c.642-4.074 1.285-8.149 2.027-12.868 5.012 4.361 9.613 8.365 14.568 12.679zM744.208 233.146c.207-4.52.49-8.807.565-13.097.042-2.385.075-4.857-.487-7.143-.914-3.728-2.213-7.302 1.297-10.45.299-.269.04-1.158.577-1.85 1.324 6.97 2.649 13.939 3.979 20.928-4.298.848-4.451 1.548-1.825 10.739l-4.106.873zM358.343 210.958c0-2.988-.785-5.803.188-7.735 1.358-2.699 3.97-4.798 6.235-6.953.184-.176 2.235.962 2.725 1.866 2.112 3.901-2.388 12.561-6.789 13.21-.874.128-1.831-.292-2.359-.388zM692.961 376.875l3.642 8.867-1.207.638-5.689-7.046-.723 7.084-1.193-.202c-1.079-4.62-2.624-9.158-.161-13.915 1.305-2.525 2.317-4.215 5.77-3.331 2.363.605 5.063-.102 7.992.124-1.511.589-2.978 1.442-4.543 1.694-1.704.275-3.541-.252-5.238.044-.989.173-1.818 1.272-2.719 1.955 1.092.536 2.156 1.42 3.286 1.514 1.266.104 2.588-.511 4.684-.997-1.722 1.577-2.847 2.609-3.901 3.571zM498.121-8.033c5.009-3.798 6.613-3.832 8.492-.412l3.251-4.388c5.003 3.674 4.965 4.622.281 7.613-1.181.754-2.22 1.81-3.134 2.888-.902 1.065-1.565 2.333-2.323 3.498-4.07-1.934-3.372-4.801-2.269-7.954l-4.298-1.245zM744.331 237.36c2.702 1.693 5.299 3.32 7.895 4.949l.711-.979c1.682 5.074-5.444 3.608-5.146 7.752-1.65-.81-2.819-1.383-3.902-1.913-.339.326-.54.501-.721.695-.831.886-1.63 1.81-2.54 2.605-.08.07-1.289-.701-1.283-1.068.026-1.428.089-3.993.574-4.097 4.632-.989 2.932-5.163 4.23-7.761.102-.203.35-.336.182-.183zM652.392 387.167c2.284.651 4.562 1.31 6.847 1.947.886.244 1.979.876 2.649.584 5.445-2.37 9.054 2.655 13.725 3.282.28.037.5.504.75.773l-.283 1.14-24.58-4.401 1.026-3.461-.134.136zM131.559 18.396c4.653-.652 6.341 2.693 7.204 5.764.802 2.856-.253 5.87-4.219 6.889-3.088-3.665-3.344-8.044-2.985-12.653zM179.602 84.92c-.376-.543-1.202-1.246-1.38-2.085-.44-2.079-.584-4.218-.846-6.335 2.39.521 5.109.506 7.075 1.716 1.826 1.125 2.847 3.553 4.579 5.889-3.703.321-6.426.556-9.428.815zM193.732 316.852c-4.696 2.545-7.578.36-10.677-1.628-4.757-3.048-9.547-6.602-15.779-2.574 1.699-3.383 5.868-5.028 10.239-3.367 5.362 2.038 10.437 4.828 16.217 7.569zM440.32 24.201l4.426 7.45c-3.975 5.227-4.247 5.305-8.591 2.196 1.527-8.589 1.527-8.589 4.165-9.646zM689.795 322.121c4.437.503 5.841 3.162 4.106 6.038-2.429 4.029-2.362 3.961 2.171 5.76 1.21.481 2.03 1.943 2.623 3.497-2.399-2.88-6.779-.781-9.194-4.493-2.764-4.245 1.224-7.023.294-10.802zM140.961 57.13c.822 1.429 2.02 2.626 2.144 3.927.2 2.087-.308 4.244-.518 6.37-1.799-.602-4.557-.724-5.157-1.925-.774-1.549-.085-4.042.502-5.968.279-.916 1.778-1.46 3.029-2.404zM128.199 113.684c1.853-2.67 2.995-4.312 4.126-5.945 5.444 3.074 7 6.041 4.889 9.618-2.862-1.167-5.736-2.339-9.015-3.673zM700.865 356.095c-.587-.758-1.777-2.292-3.396-4.385-.521.149-1.964.559-3.841 1.089 1.281-5.616 8.295-1.613 9.215-6.995l1.725.775c0 2.359.215 4.748-.127 7.055-.108.725-1.712 1.231-3.576 2.461zM97.282 36.744c-3.918-3.493-4.376-5.443-1.748-7.596 2.12-1.741 5.178-2.086 6.357.263 1.975 3.939-2.085 5.252-4.609 7.333zM766.25 62.707c-1.057 4.001-3.464 5.065-6.364 3.126-2.143-1.433-6.185-2.493-3.8-7.156 3.512 1.392 6.833 2.709 10.164 4.03zM196.062 317.309c4.611 1.224 8.461 2.245 12.312 3.268l-.21 1.735-14.635.827-.068-1.199h4.479c-.573-1.408-1.005-2.474-1.878-4.631zM747.947 81.443l-8.398-1.128-.542-1.537c1.819-1.152 3.8-3.392 5.412-3.153 1.674.246 2.995 2.893 4.47 4.49l-.942 1.328zM588.35 345.924c.784 2.492 1.708 4.957 2.236 7.503.108.521-1.225 1.821-1.98 1.897-.703.071-2.116-.948-2.186-1.596-.262-2.451-.105-4.944-.105-7.424l2.035-.38zM186.897 129.349c-1.601-3.02-1.188-5.581 1.248-7.581.257-.211 2.706 1.213 2.896 2.134.623 3.021-.568 5.163-4.144 5.447zM112.649 84.36l-.388-1.643c-.649-1.301-1.3-2.606-2.412-4.83 2.088 0 3.657-.186 5.126.112.442.091 1.086 1.807.804 2.316-.815 1.474-2.056 2.712-3.13 4.045zM102.85 22.617l-6.497 1.731-.67-1.079c.838-1.562 1.678-3.125 2.743-5.106l4.298 2.953.126 1.501zM-4.598 184.87l-5.933 2.777c-.068-1.08-.619-2.655-.116-3.144 1.399-1.362 3.144-3.283 6.049.367zM690.726 312.221c-3.153-4.469-1.092-6.892 1.264-9.25l1.177.271c-.741 2.722-1.481 5.444-2.441 8.979zM404.552 259.117c-.201-1.302-.645-2.626-.519-3.895.094-.923.943-1.771 1.455-2.65.697.781 2.007 1.601 1.964 2.338-.093 1.615-.876 3.19-1.378 4.781l-1.522-.574zM761.484 387.203c2.808-1.148 5.701-2.329 8.873-3.628-.09.396.02 1.888-.629 2.384-2.483 1.9-5.217 3.429-8.244 1.244zM137.43 30.779c2.488 1.321 4.278 2.27 6.065 3.221-.522.609-1.192 1.817-1.54 1.732-1.948-.485-5.055.351-4.525-4.953zM665.702 319.055l-4.74 3.334c-.425-.849-1.337-2.352-1.2-2.451 1.489-1.111 3.14-2.006 4.747-2.96l1.193 2.077zM706.184 394.381c-2.763 1.565-5.526 3.129-8.289 4.693l-.776-1.499 8.532-4.357.533 1.163zM46.174 200.973l1.026 7.639-.435.395-3.239-7.261 2.648-.773zM173.948 157.116l-4.109 2.837c-.271-.651-.911-1.758-.757-1.881 1.185-.956 2.521-1.721 3.812-2.547l1.054 1.591z" fill="none"/><path d="M179.209 239.777l-3.675-.749-1.773 5.755c-2.272.149-.613-5.416-4.971-1.377 2.296-4.293 2.056-6.787-1.862-7.929-3.545 2.708-5.69 5.805-4.059 10.671.378 1.121-1.086 2.861-1.886 4.747-2.51-3.296-3.069-12.8-.279-14.447 3.445-2.032 8.075-2.449 12.248-2.725 3.277-.214 5.731 1.803 6.257 6.054zM157.955 230.038c-3.306.661-5.994 1.196-8.684 1.732l-.518-1.388c4.349-1.667 6.097-8.115 11.956-6.534 3.612.975 6.479 3.706 6.335 8.417-3.064-1.536-7.482 2.237-9.089-2.227zM180.436 245.653c-2.897 4.599-6.69 5.95-10.487 3.928l10.487-3.928zM188.331 241.37c-1.068 2.981-1.068 2.981-8.234 1.826 2.631-.583 5.26-1.166 8.234-1.826zM466.062 236.49l2.704 3.729c1.85-.822 3.881-1.728 6.202-2.763-1.432-.935-2.728-1.779-5.166-3.374 4.528-1.802 7.983-3.177 11.891-4.733l-4.765 8.571c3.012 2.382 6.364 4.817 9.431 7.572 1.151 1.034 2.497 3.037 2.191 4.184-.313 1.178-2.537 2.598-3.918 2.591-2.98-.016-6.285-.229-8.863-1.532-4.502-2.275-8.237-1.956-12.552.452-1.862 1.039-4.921.794-7.095.083-1.277-.418-2.864-3.099-2.591-4.401.602-2.88 2.277-5.538 3.557-8.266.212-.453.69-.77.977-1.196 3.563-5.298 3.56-5.301 9.728-2.929-.605.699-1.129 1.312-1.731 2.012zM511.099 240.417c2.208 3.196 4.243 6.145 6.41 9.284 2.925-2.559 2.743 1.491 4.703 3.468l-4.806.633c.792 3.213 1.558 6.415 2.377 9.599.744 2.903-1.09 3.998-3.263 3.566-2.91-.578-6.512-1.226-8.273-3.214-2.555-2.88.269-5.989 1.379-8.183-2.573-5.257-5.077-10.33-7.514-15.433-.188-.394.027-1.027.166-1.518.571-2.055 8.646-7.88 11.027-8.018 4.507-.261 5.542 1.204 4.593 4.801l-6.799 5.015z" fill-rule="evenodd"/></g><g clip-path="url(#b)"><path stroke="#fff" stroke-miterlimit="10" fill="none" d="M809.5-25v504M773.5-25v504M737.5-25v504M701.5-25v504M665.5-25v504M629.5-25v504M593.5-25v504M557.5-25v504M521.5-25v504M485.5-25v504M449.5-25v504M413.5-25v504M377.5-25v504M341.5-25v504M305.5-25v504M269.5-25v504M233.5-25v504M197.5-25v504M161.5-25v504M125.5-25v504M89.5-25v504M53.5-25v504M17.5-25v504M-18.5-25v504"/></g><path stroke="#fff" stroke-miterlimit="10" fill="none" d="M275.5 106.5v309h111v-76.485l71.646 74.363 131.354-.543v-306.335h-115v68.049l-60.123-68.049zM829.5 107v309M793.5 107v309M757.5 107v309M721.5 107v309M685.5 107v309M649.5 107v309M613.5 107v309"/></g></svg>