<svg xmlns="http://www.w3.org/2000/svg" width="800" height="450" viewBox="0 0 800 450"><path d="M0 0h800v450h-800z"/><g><path stroke="#fff" stroke-miterlimit="10" d="M707.5 457.5h219v229h-219z"/><path fill="#AF8D00" stroke="#fff" stroke-miterlimit="10" d="M927.199 686.07l-105.629-98.39-114.07 98.82 102.43-109.18-102.43-119.82 113.279 108.71 105.721-108.71-93.91 122.04z"/><path stroke="#fff" stroke-miterlimit="10" d="M488.5 457.5h219v229h-219z"/><path fill="#AF8D00" stroke="#fff" stroke-miterlimit="10" d="M708.2 686.07l-105.63-98.39-114.07 98.82 102.43-109.18-102.43-119.82 113.28 108.71 105.72-108.71-93.91 122.04z"/><path stroke="#fff" stroke-miterlimit="10" d="M269.5 457.5h219v229h-219z"/><path fill="#AF8D00" stroke="#fff" stroke-miterlimit="10" d="M489.2 686.07l-105.63-98.39-114.07 98.82 102.43-109.18-102.43-119.82 113.28 108.71 105.72-108.71-93.91 122.04z"/><path stroke="#fff" stroke-miterlimit="10" d="M50.5 457.5h219v229h-219z"/><path fill="#AF8D00" stroke="#fff" stroke-miterlimit="10" d="M270.2 686.07l-105.63-98.39-114.07 98.82 102.43-109.18-102.43-119.82 113.28 108.71 105.72-108.71-93.91 122.04z"/><path stroke="#fff" stroke-miterlimit="10" d="M-168.5 457.5h219v229h-219z"/><path fill="#AF8D00" stroke="#fff" stroke-miterlimit="10" d="M51.2 686.07l-105.63-98.39-114.07 98.82 102.43-109.18-102.43-119.82 113.28 108.71 105.72-108.71-93.91 122.04z"/><path stroke="#fff" stroke-miterlimit="10" d="M707.5 228.5h219v229h-219z"/><path fill="#AF8D00" stroke="#fff" stroke-miterlimit="10" d="M927.199 457.07l-105.629-98.39-114.07 98.82 102.43-109.18-102.43-119.82 113.279 108.71 105.721-108.71-93.91 122.04z"/><path stroke="#fff" stroke-miterlimit="10" d="M488.5 228.5h219v229h-219z"/><path fill="#AF8D00" stroke="#fff" stroke-miterlimit="10" d="M708.2 457.07l-105.63-98.39-114.07 98.82 102.43-109.18-102.43-119.82 113.28 108.71 105.72-108.71-93.91 122.04z"/><path stroke="#fff" stroke-miterlimit="10" d="M269.5 228.5h219v229h-219z"/><path fill="#AF8D00" stroke="#fff" stroke-miterlimit="10" d="M489.2 457.07l-105.63-98.39-114.07 98.82 102.43-109.18-102.43-119.82 113.28 108.71 105.72-108.71-93.91 122.04z"/><path stroke="#fff" stroke-miterlimit="10" d="M50.5 228.5h219v229h-219z"/><path fill="#AF8D00" stroke="#fff" stroke-miterlimit="10" d="M270.2 457.07l-105.63-98.39-114.07 98.82 102.43-109.18-102.43-119.82 113.28 108.71 105.72-108.71-93.91 122.04z"/><path stroke="#fff" stroke-miterlimit="10" d="M-168.5 228.5h219v229h-219z"/><path fill="#AF8D00" stroke="#fff" stroke-miterlimit="10" d="M51.2 457.07l-105.63-98.39-114.07 98.82 102.43-109.18-102.43-119.82 113.28 108.71 105.72-108.71-93.91 122.04z"/><path stroke="#fff" stroke-miterlimit="10" d="M707.5-.5h219v229h-219z"/><path fill="#AF8D00" stroke="#fff" stroke-miterlimit="10" d="M927.199 228.07l-105.629-98.39-114.07 98.82 102.43-109.18-102.43-119.82 113.279 108.71 105.721-108.71-93.91 122.04z"/><path stroke="#fff" stroke-miterlimit="10" d="M488.5-.5h219v229h-219z"/><path fill="#AF8D00" stroke="#fff" stroke-miterlimit="10" d="M708.2 228.07l-105.63-98.39-114.07 98.82 102.43-109.18-102.43-119.82 113.28 108.71 105.72-108.71-93.91 122.04z"/><path stroke="#fff" stroke-miterlimit="10" d="M269.5-.5h219v229h-219z"/><path fill="#AF8D00" stroke="#fff" stroke-miterlimit="10" d="M489.2 228.07l-105.63-98.39-114.07 98.82 102.43-109.18-102.43-119.82 113.28 108.71 105.72-108.71-93.91 122.04z"/><path stroke="#fff" stroke-miterlimit="10" d="M50.5-.5h219v229h-219z"/><path fill="#AF8D00" stroke="#fff" stroke-miterlimit="10" d="M270.2 228.07l-105.63-98.39-114.07 98.82 102.43-109.18-102.43-119.82 113.28 108.71 105.72-108.71-93.91 122.04z"/><path stroke="#fff" stroke-miterlimit="10" d="M-168.5-.5h219v229h-219z"/><path fill="#AF8D00" stroke="#fff" stroke-miterlimit="10" d="M51.2 228.07l-105.63-98.39-114.07 98.82 102.43-109.18-102.43-119.82 113.28 108.71 105.72-108.71-93.91 122.04z"/><path d="M289.443 118.635l4.59 26.421 5.68 16.29s-65.63 13.81-68.59 19.729c-2.96 5.92-61.18 183.55-59.21 186.51 1.98 2.96-7.89 33.061 112.5 36.511l-.49 1.479c10.64 21.29 55.85 6.05 77.79 3.36 28.66-3.511 149.18-8.15 146.43-42.311-3.72-46.22-22.43-95.08-32.65-140.319-2.23-9.9-4.48-45.101-16.18-48.36l-74.62-20.8c.47-4.511 5.27-14.4 6.68-18.771 3.55-10.97 8.61-23.479 7.77-35.149-.08-1.13-.19-2.261-.34-3.41-.69-5.7-2.1-11.59-4.17-17.4-8.3-23.359-27.06-45.35-51.5-47.88-30.42-3.15-50.48 18.87-58.23 46.76-1.24 4.46-6.9 7.891-6.9 12.641 0 7.559 8.05 17.809 11.44 24.699z"/></g><g><path stroke="#fff" stroke-miterlimit="10" d="M88.5 467.5h563.5l-42-78h-521.5zM698.055 188.5h-198.555v-174.494l198.198.628z"/><path d="M383.501 362.788l54.274-19.736s3.7.74-1.48-20.477c-5.181-21.216-3.701-55.755-3.701-55.755M324.382 224.482l9.039 6.566-4.52 13.405 3.534 108.714M389.916 346.752l-14.31 5.587M356.179 342.174l-6.679-99.037v-10.361l4.903-12.088M372.357 212.785l-1.684 24.103-7.154 105.917M315.5 232v126M256.532 253.334s4.277 93.413 17.105 96.211M248.638 343.354l58.88 12.146h5.92l-5.92 5.618 24.917-7.799 8.634-4.518 13.815-5.958s5.427-2.979 8.635-.019c3.207 2.96 6.414 4.679 6.414 4.679l5.673 4.841 6.168 5.265s4.194 12.733 4.935 15.94M273.807 411.825l-12.423 29.675h148.116v-31.5M310.971 187.136c16.884 9.138 42.708 10.22 52.548-9.375M324.382 194.537c8.282 15.485 21.788 18.581 32.723 4.564l8.634-8.758 6.168-24.67 3.701-1.974-1.974 47.12-12.335 18.996-14.802-18.996-10.608 1.727-11.506 11.936-9.659 10.02-3.751-47.367M284.82 404.48c-120.39-3.454-110.522-33.551-112.496-36.512-1.974-2.96 56.248-180.585 59.208-186.506 2.961-5.921 68.583-19.736 68.583-19.736l-5.674-16.282-4.591-26.419M310.971 187.136s-5.909-10.192-7.401-13.814c-1.151-2.797-3.454-11.596-3.454-11.596M312.698 168.633s22.696 3.454 31.825 1.234" stroke="#fff" stroke-miterlimit="10" fill="none"/><g><g stroke="#fff" stroke-miterlimit="10" fill="none"><path d="M375.61 163.7c2.39 1.28 6.21 1.38 8.88 1.97.27-2.69.55-5.39.83-8.08l.83-8.15c.47-4.51 4.22-6.31 5.63-10.68 3.55-10.97 8.61-23.48 7.77-35.15-.08-1.13-.19-2.26-.34-3.41-.69-5.7-2.1-11.59-4.17-17.4-8.3-23.36-27.06-45.35-51.5-47.88-30.42-3.15-50.48 18.87-58.23 46.76-1.24 4.46-6.9 7.89-6.9 12.64 0 7.56 1.47 10.69 4.86 17.58 8.14 16.53 10.52.68 12.41-9.14 6.01 1.41 15.25 5.85 21.16 3.66 6.88-2.56 20.28-10.89 27.51-9.64 2.45.42 23.59 2.65 24 4.39 2.42 10.31 4.84 20.63 7.26 30.95M284.33 405.96c10.64 21.29 55.85 6.05 77.79 3.36 28.66-3.51 149.18-8.15 146.43-42.31-3.72-46.22-22.43-95.08-32.65-140.32-2.23-9.9-4.48-45.1-16.18-48.36l-74.4-20.74-.22-.06"/></g></g><path stroke="#fff" stroke-miterlimit="10" fill="none" d="M293.702 373.396l4.605 12.829 14.473-12.829 25.657 4.605 14.185 20.395M527.4-25.567M527.4-18M461.992-14.219"/></g></svg>