<?xml version="1.0" encoding="iso-8859-1"?>
<!-- Generator: Adobe Illustrator 16.0.4, SVG Export Plug-In . SVG Version: 6.00 Build 0)  -->
<!DOCTYPE svg PUBLIC "-//W3C//DTD SVG 1.1//EN" "http://www.w3.org/Graphics/SVG/1.1/DTD/svg11.dtd">
<svg version="1.1" xmlns="http://www.w3.org/2000/svg" xmlns:xlink="http://www.w3.org/1999/xlink" x="0px" y="0px" width="800px"
	 height="450px" viewBox="0 0 800 450" style="enable-background:new 0 0 800 450;" xml:space="preserve">
<g id="Layer_2">
	<rect width="800" height="450"/>
</g>
<g id="Layer_4">
	<g>
		<g>
			<g>
				<rect x="707.5" y="228.5" style="stroke:#FFFFFF;stroke-miterlimit:10;" width="219" height="229"/>
				<g id="XMLID_12_">
					<polygon style="fill:#AF8D00;" points="927.199,457.07 927.199,457.07 821.57,358.68 707.5,457.5 707.5,457.5 809.93,348.32 
						707.5,228.5 820.779,337.21 926.5,228.5 832.59,350.54 					"/>
				</g>
			</g>
			<g>
				<rect x="488.5" y="228.5" style="stroke:#FFFFFF;stroke-miterlimit:10;" width="219" height="229"/>
				<g id="XMLID_11_">
					<polygon style="fill:#AF8D00;" points="708.2,457.07 708.2,457.07 602.57,358.68 488.5,457.5 488.5,457.5 590.93,348.32 
						488.5,228.5 601.78,337.21 707.5,228.5 613.59,350.54 					"/>
				</g>
			</g>
			<g>
				<rect x="269.5" y="228.5" style="stroke:#FFFFFF;stroke-miterlimit:10;" width="219" height="229"/>
				<g id="XMLID_10_">
					<polygon style="fill:#AF8D00;" points="489.2,457.07 489.2,457.07 383.57,358.68 269.5,457.5 269.5,457.5 371.93,348.32 
						269.5,228.5 382.78,337.21 488.5,228.5 394.59,350.54 					"/>
				</g>
			</g>
			<g>
				<rect x="50.5" y="228.5" style="stroke:#FFFFFF;stroke-miterlimit:10;" width="219" height="229"/>
				<g id="XMLID_9_">
					<polygon style="fill:#AF8D00;" points="270.2,457.07 270.2,457.07 164.57,358.68 50.5,457.5 50.5,457.5 152.93,348.32 
						50.5,228.5 163.78,337.21 269.5,228.5 175.59,350.54 					"/>
				</g>
			</g>
			<g>
				<rect x="-168.5" y="228.5" style="stroke:#FFFFFF;stroke-miterlimit:10;" width="219" height="229"/>
				<g id="XMLID_8_">
					<polygon style="fill:#AF8D00;" points="51.2,457.07 51.2,457.07 -54.43,358.68 -168.5,457.5 -168.5,457.5 -66.07,348.32 
						-168.5,228.5 -55.22,337.21 50.5,228.5 -43.41,350.54 					"/>
				</g>
			</g>
		</g>
		<g>
			<g>
				<rect x="707.5" y="-0.5" style="stroke:#FFFFFF;stroke-miterlimit:10;" width="219" height="229"/>
				<g id="XMLID_7_">
					<polygon style="fill:#AF8D00;" points="927.199,228.07 927.199,228.07 821.57,129.68 707.5,228.5 707.5,228.5 809.93,119.32 
						707.5,-0.5 820.779,108.21 926.5,-0.5 832.59,121.54 					"/>
				</g>
			</g>
			<g>
				<rect x="488.5" y="-0.5" style="stroke:#FFFFFF;stroke-miterlimit:10;" width="219" height="229"/>
				<g id="XMLID_6_">
					<polygon style="fill:#AF8D00;" points="708.2,228.07 708.2,228.07 602.57,129.68 488.5,228.5 488.5,228.5 590.93,119.32 
						488.5,-0.5 601.78,108.21 707.5,-0.5 613.59,121.54 					"/>
				</g>
			</g>
			<g>
				<rect x="269.5" y="-0.5" style="stroke:#FFFFFF;stroke-miterlimit:10;" width="219" height="229"/>
				<g id="XMLID_5_">
					<polygon style="fill:#AF8D00;" points="489.2,228.07 489.2,228.07 383.57,129.68 269.5,228.5 269.5,228.5 371.93,119.32 
						269.5,-0.5 382.78,108.21 488.5,-0.5 394.59,121.54 					"/>
				</g>
			</g>
			<g>
				<rect x="50.5" y="-0.5" style="stroke:#FFFFFF;stroke-miterlimit:10;" width="219" height="229"/>
				<g id="XMLID_4_">
					<polygon style="fill:#AF8D00;" points="270.2,228.07 270.2,228.07 164.57,129.68 50.5,228.5 50.5,228.5 152.93,119.32 
						50.5,-0.5 163.78,108.21 269.5,-0.5 175.59,121.54 					"/>
				</g>
			</g>
			<g>
				<rect x="-168.5" y="-0.5" style="stroke:#FFFFFF;stroke-miterlimit:10;" width="219" height="229"/>
				<g id="XMLID_2_">
					<polygon style="fill:#AF8D00;" points="51.2,228.07 51.2,228.07 -54.43,129.68 -168.5,228.5 -168.5,228.5 -66.07,119.32 
						-168.5,-0.5 -55.22,108.21 50.5,-0.5 -43.41,121.54 					"/>
				</g>
			</g>
		</g>
	</g>
	<path d="M289.443,118.635l4.59,26.421l5.68,16.29c0,0-65.63,13.81-68.59,19.729c-2.96,5.92-61.18,183.55-59.21,186.51
		c1.98,2.96-7.89,33.061,112.5,36.511l-0.49,1.479c10.64,21.29,55.85,6.05,77.79,3.36c28.66-3.511,149.18-8.15,146.43-42.311
		c-3.72-46.22-22.43-95.08-32.65-140.319c-2.23-9.9-4.48-45.101-16.18-48.36c-24.87-6.93-49.75-13.87-74.62-20.8
		c0.47-4.511,5.27-14.4,6.68-18.771c3.55-10.97,8.61-23.479,7.77-35.149c-0.08-1.13-0.19-2.261-0.34-3.41
		c-0.69-5.7-2.1-11.59-4.17-17.4c-8.3-23.359-27.06-45.35-51.5-47.88c-30.42-3.15-50.48,18.87-58.23,46.76
		c-1.24,4.46-6.9,7.891-6.9,12.641C278.003,101.495,286.053,111.745,289.443,118.635z"/>
</g>
<g id="Layer_3">
	<polygon style="stroke:#FFFFFF;stroke-miterlimit:10;" points="88.5,467.5 652,467.5 610,389.5 88.5,389.5 	"/>
	<polygon style="stroke:#FFFFFF;stroke-miterlimit:10;" points="698.055,188.5 499.5,188.5 499.5,14.006 697.698,14.634 	"/>
	<path style="fill:none;stroke:#FFFFFF;stroke-miterlimit:10;" d="M383.501,362.788l54.274-19.736c0,0,3.7,0.74-1.48-20.477
		c-5.181-21.216-3.701-55.755-3.701-55.755"/>
	<polyline style="fill:none;stroke:#FFFFFF;stroke-miterlimit:10;" points="324.382,224.482 333.421,231.048 328.901,244.453 
		332.435,353.167 	"/>
	<line style="fill:none;stroke:#FFFFFF;stroke-miterlimit:10;" x1="389.916" y1="346.752" x2="375.606" y2="352.339"/>
	<polyline style="fill:none;stroke:#FFFFFF;stroke-miterlimit:10;" points="356.179,342.174 349.5,243.137 349.5,232.776 
		354.403,220.688 	"/>
	<polyline style="fill:none;stroke:#FFFFFF;stroke-miterlimit:10;" points="372.357,212.785 370.673,236.888 363.519,342.805 	"/>
	<polyline style="fill:none;stroke:#FFFFFF;stroke-miterlimit:10;" points="315.5,232 315.5,241.657 315.5,358 	"/>
	<path style="fill:none;stroke:#FFFFFF;stroke-miterlimit:10;" d="M256.532,253.334c0,0,4.277,93.413,17.105,96.211"/>
	<path style="fill:none;stroke:#FFFFFF;stroke-miterlimit:10;" d="M248.638,343.354l58.88,12.146h5.92l-5.92,5.618l24.917-7.799
		l8.634-4.518l13.815-5.958c0,0,5.427-2.979,8.635-0.019c3.207,2.96,6.414,4.679,6.414,4.679l5.673,4.841l6.168,5.265
		c0,0,4.194,12.733,4.935,15.94"/>
	<polyline style="fill:#FFFFFF;" points="272.557,423.075 260.384,453 408,453 408,421 	"/>
	<path style="fill:none;stroke:#FFFFFF;stroke-miterlimit:10;" d="M310.971,187.136c16.884,9.138,42.708,10.22,52.548-9.375"/>
	<path style="fill:none;stroke:#FFFFFF;stroke-miterlimit:10;" d="M324.382,194.537c8.282,15.485,21.788,18.581,32.723,4.564
		l8.634-8.758l6.168-24.67l3.701-1.974l-1.974,47.12l-12.335,18.996l-14.802-18.996l-10.608,1.727l-11.506,11.936l-9.659,10.02
		l-3.751-47.367"/>
	<path style="fill:none;stroke:#FFFFFF;stroke-miterlimit:10;" d="M284.82,404.48c-120.39-3.454-110.522-33.551-112.496-36.512
		c-1.974-2.96,56.248-180.585,59.208-186.506c2.961-5.921,68.583-19.736,68.583-19.736l-5.674-16.282l-4.591-26.419"/>
	<path style="fill:none;stroke:#FFFFFF;stroke-miterlimit:10;" d="M310.971,187.136c0,0-5.909-10.192-7.401-13.814
		c-1.151-2.797-3.454-11.596-3.454-11.596"/>
	<path style="fill:none;stroke:#FFFFFF;stroke-miterlimit:10;" d="M312.698,168.633c0,0,22.696,3.454,31.825,1.234"/>
	<g id="XMLID_3_">
		<g>
		</g>
		<g>
			<path style="fill:none;stroke:#FFFFFF;stroke-miterlimit:10;" d="M375.61,163.7c2.39,1.28,6.21,1.38,8.88,1.97
				c0.27-2.69,0.55-5.39,0.83-8.08c0.28-2.72,0.55-5.43,0.83-8.15c0.47-4.51,4.22-6.31,5.63-10.68c3.55-10.97,8.61-23.48,7.77-35.15
				c-0.08-1.13-0.19-2.26-0.34-3.41c-0.69-5.7-2.1-11.59-4.17-17.4c-8.3-23.36-27.06-45.35-51.5-47.88
				c-30.42-3.15-50.48,18.87-58.23,46.76c-1.24,4.46-6.9,7.89-6.9,12.64c0,7.56,1.47,10.69,4.86,17.58
				c8.14,16.53,10.52,0.68,12.41-9.14c6.01,1.41,15.25,5.85,21.16,3.66c6.88-2.56,20.28-10.89,27.51-9.64
				c2.45,0.42,23.59,2.65,24,4.39c2.42,10.31,4.84,20.63,7.26,30.95"/>
			<path style="fill:none;stroke:#FFFFFF;stroke-miterlimit:10;" d="M284.33,405.96c10.64,21.29,55.85,6.05,77.79,3.36
				c28.66-3.51,149.18-8.15,146.43-42.31c-3.72-46.22-22.43-95.08-32.65-140.32c-2.23-9.9-4.48-45.1-16.18-48.36
				c-24.8-6.91-49.6-13.83-74.4-20.74c-0.07-0.02-0.15-0.04-0.22-0.06"/>
		</g>
	</g>
	<polyline style="fill:none;stroke:#FFFFFF;stroke-miterlimit:10;" points="293.702,373.396 298.307,386.225 312.78,373.396 
		338.437,378.001 352.622,398.396 	"/>
	<path style="fill:none;stroke:#FFFFFF;stroke-miterlimit:10;" d="M527.4-25.567"/>
	<path style="fill:none;stroke:#FFFFFF;stroke-miterlimit:10;" d="M527.4-18"/>
	<path style="fill:none;stroke:#FFFFFF;stroke-miterlimit:10;" d="M461.992-14.219"/>
</g>
</svg>
