<svg xmlns="http://www.w3.org/2000/svg" width="800" height="450" viewBox="0 0 800 450"><path d="M0 0h800v450h-800z"/><g fill="#D9C28A"><path d="M802.691 283.935s-307.296-14.564-414.269-17.942c-102.672-3.243-393.422 18.007-393.422 18.007l1-40s229.814-18.002 380-18.005c165.404-.003 432 18.872 432 18.872l-5.309 39.068z" stroke="#fff" stroke-miterlimit="10"/><path d="M400.846 351"/></g><path d="M596.666 147.667c-8.666.667-25.666-61.667-25.666-61.667l-10-2.999c-8.999-6.999 10.333-29.667 10.333-29.667s10.667-12.334 18.334-18.668c7.667-6.333 45 4 45 4s7.667 5 16 20.334v49l-2.333 2.334 8 15.334 40.667 22s22 15.334 25.333 34c0 0 10.001 57.999 0 63.332 0 0 11.083-1.451 13.083 5.216 2 6.666 6.583 79.784 6.583 79.784v20l-260.875-29.318c-17.548-20.349 17.875-21.682 17.875-21.682v-8.666l17.5-7.834 21.25-37.25s12.958-30.958 17.958-45.625c5-14.666 17.042-45.375 17.042-45.375l23.916-6.583"/><g stroke="#fff" stroke-miterlimit="10" fill="none"><path d="M561 83.001l13.333 4s12-2 14.667-8c0 0 14.333 1.332 15.666-1.334l15.667 24 7.667-6.334 4-4.333 1.333-5s1.667-4 3.333-4 5.334 2 6.334 4.333l3.667 9.333s0 4.667-3.667 6l-4 5 3 3.668 1.333 4.332 7.333-6.667s8.333-33.667 0-49l-16-20.333s-37.333-10.333-45-4l-18.333 18.667s-19.332 22.669-10.333 29.668zM571 86s17 62.333 25.667 61.667l22.333-6.667M592.5 145.834l-19.75 8.417s-12.042 30.708-17.042 45.375l-16.823 42.897-19.039 35.227-7.809 14.641s-22.042 6.275-24.708 12.275c0 0-7.409 14.332.67 16.34l15.25-2.34M527.333 312l43.667-61-6.5 58-12.512 16.263M722.084 245s10.958-1.451 12.958 5.216c2 6.666 6.458 79.784 6.458 79.784v20M565 309l8.333-4.333 36.334 3.333M573 298.333l32.333-131.333M718 300.5s-7.832-54.5 4.334-55.5c11.296-.929 0-63.332 0-63.332-3.333-18.667-25.333-34-25.333-34l-40.667-22-8-15.333c-2 16.001-38.667 44.666-38.667 44.666l9.333 10.666 23.332-19.833s-27 68.166-31.333 162.166l28.668-11.063 47.891-23.159-5.89-72.444M592.5 133.667l8.834-2.334M652.631 335.979l45.703-13.979"/></g><g><path fill="#fff" d="M536.5 328.99l-23.674 6.01-64.658-4.532 34.83-5.801z"/><path stroke="#fff" stroke-miterlimit="10" fill="none" d="M552.363 325.263l.305 5.205 26.167 1.865 7.833-2.5 22.999.635M567.335 326.999l11.167-6.868 13-1.465M477.75 315.5l6.75-3.5"/></g><g stroke="#fff" stroke-miterlimit="10" fill="none"><path d="M499.33 268.054M523.341 271.283M0 284M439.825 318.75c-7.76-.298-15.062-.546-21.825-.75-105.705-3.168-294.106-3-423-3M487.329 320.969c-1.81-.073-45.741-2.152-47.504-2.22M487.329 320.969M552.363 325.263c-22.6-1.76-44.578-3.174-65.034-4.294M552.363 325.263M799.691 368c-39.991-17.429-116.979-29.767-190.024-37.532M807.691 414.333M802.691 402.333l-295.024-2s-45.333-6.292-45.333 70.667M598.334 382.998s28-24.608-121.333-40.637c-75.544-8.109-176.252-10.921-257.333-11.721-79.197-.781-221.334 1.358-221.334 1.358M191.5 470v-102s.317-37.986 17.667-37.634M278.5 470v-102s3.413-36.435 21.358-35.913M94.5 470v-102s1.66-36.094 11.667-35.918M421.5 471v-88s2.329-39.979 60.998-39.979M502.333 401.041s127.18-44.359-504-44.359M0 244"/></g><path d="M182.5 313v-29s4.917-37 30.25-39h45.458s28.087-4 31.408 20.667l3.477 48.724" stroke="#fff" stroke-miterlimit="10"/><g stroke="#fff" stroke-miterlimit="10" fill="none"><path d="M100.5 326v-25l13.316-21.749M221.5 326v-26l7.667-16M375.5 330v-29l24.846-17M491.5 335v-27l23.5-12.333"/></g></svg>