<svg xmlns="http://www.w3.org/2000/svg" width="800" height="450" viewBox="0 0 800 450"><path d="M0 0h800v452h-800z"/><g fill="#D9C28A"><path d="M799 252.709s-324.25-14.184-426.916-17.425c-98.539-3.112-377.334 17.282-377.334 17.282l1.085-38.39s232.449-17.243 376.588-17.245c158.745-.002 426.577 18.118 426.577 18.118v37.66zM384.507 316.869"/></g><path d="M572.444 121.722c-8.318.64-24.633-59.185-24.633-59.185l-9.597-2.878c-8.637-6.717 9.917-28.473 9.917-28.473s10.237-11.837 17.596-17.917c7.358-6.078 43.188 3.839 43.188 3.839s7.358 4.799 15.356 19.515c7.998 14.717 0 47.027 0 47.027l-2.238 2.24 7.678 14.717 39.029 21.114s21.115 14.716 24.313 32.631c0 0 9.599 55.664 0 60.783 0 0 10.673-1.393 12.593 5.006 1.919 6.397 6.355 76.572 6.355 76.572v19.194l-250.264-28.137c-16.842-19.53 17.264-20.81 17.264-20.81v-8.317l16.65-7.519 20.322-35.75s12.399-29.711 17.198-43.788c4.798-14.076 16.338-43.548 16.338-43.548l22.935-6.316"/><g stroke="#fff" stroke-miterlimit="10" fill="none"><path d="M538.214 59.66l12.797 3.839s11.517-1.919 14.076-7.678c0 0 13.756 1.279 15.035-1.281l15.036 23.034 7.358-6.078 3.839-4.159 1.28-4.799s1.6-3.839 3.2-3.839c1.599 0 5.118 1.92 6.078 4.159s3.52 8.957 3.52 8.957 0 4.479-3.52 5.759c-3.519 1.28-3.839 4.798-3.839 4.798l2.879 3.521 1.28 4.158 7.038-6.398s7.998-32.311 0-47.027c-7.998-14.716-15.356-19.515-15.356-19.515s-35.83-9.917-43.188-3.839c-7.358 6.079-17.596 17.916-17.596 17.916s-18.554 21.754-9.917 28.472zM547.811 62.538s16.315 59.824 24.633 59.184c8.317-.64 21.434-6.398 21.434-6.398M568.445 119.963l-18.955 8.078s-11.558 29.472-16.356 43.548c-4.799 14.076-16.146 41.17-16.146 41.17l-18.272 33.809-7.495 14.051s-21.154 6.023-23.713 11.781c0 0-7.11 13.755.644 15.682l14.637-2.246M505.902 279.439l41.909-58.544-6.238 55.665-12.009 15.608M692.839 215.182s10.53-1.416 12.449 4.983c1.92 6.397 6.212 76.55 6.212 76.55v19.285M542.053 276.56l7.997-4.159 34.871 3.199M549.73 266.323l31.032-126.046M688.893 268.402s-7.517-52.306 4.159-53.266c10.842-.892 0-60.783 0-60.783-3.199-17.915-24.313-32.631-24.313-32.631l-39.029-21.114-7.678-14.716c-1.919 15.357-37.11 42.868-37.11 42.868l8.957 10.237 22.393-19.035s-25.913 65.422-30.072 155.637l27.514-10.618 45.963-22.227-5.653-69.528M568.445 108.285l8.479-2.239M626.155 302.453l43.864-13.416"/></g><g><path fill="#fff" d="M514.7 295.746l-22.721 5.767-62.055-4.349 33.428-5.568z"/><path stroke="#fff" stroke-miterlimit="10" fill="none" d="M529.924 292.168l.293 4.996 25.114 1.789 7.518-2.398 22.072.609M544.293 293.834l10.718-6.591 12.476-1.406M458.315 282.798l6.478-3.359"/></g><g stroke="#fff" stroke-miterlimit="10" fill="none"><path d="M479.026 237.263M502.071 240.362M-.201 252.566M421.917 285.917c-7.448-.286-14.456-.524-20.946-.719-101.45-3.041-282.266-2.879-405.971-2.879M467.508 288.047c-1.736-.07-43.899-2.065-45.591-2.13M467.508 288.047M529.924 292.168c-21.689-1.689-42.783-3.046-62.416-4.121M529.924 292.168M800 366.136c-67-56.944-144.974-61.519-215.079-68.972M774.974 377.652M800 366.136l-312.972-1.92s-43.509.68-43.509 88.822M574.044 347.579s26.873-23.617-116.449-39.001c-72.502-7.782-169.157-10.481-246.973-11.249-76.008-.75-212.422 1.303-212.422 1.303M183.5 452l.667-128.028s-.363-27.283 16.289-26.946M267.5 451v-124.626s3.275-28.196 20.499-27.695M90.5 452v-129.677s1.593-23.818 11.197-23.649M404.5 453v-105.419s2.235-38.389 58.542-38.389M481.908 364.896s122.06-42.573-483.709-42.573M-.201 214.177"/></g><path d="M174.5 280v-27.434s4.944-35.51 29.258-37.43h43.741s27.013-3.839 30.2 19.834l3.14 46.563" stroke="#fff" stroke-miterlimit="10"/><g stroke="#fff" stroke-miterlimit="10" fill="none"><path d="M96.5 293v-24.118l12.78-20.811M212.5 293v-25.078l7.359-15.293M360.5 297v-28.118l23.845-16.173M471.5 302v-26.4l22.553-11.593"/></g></svg>