<svg xmlns="http://www.w3.org/2000/svg" width="800" height="450" viewBox="0 0 800 450"><g><path d="M0 0h800v450h-800z"/><path d="M396.315-204c-355.315 62.333-296.754 466.58-282.092 496l552.777 82s298.185-369.893-156.908-564.946" stroke="#fff" stroke-miterlimit="10" fill="none"/><path d="M-41 248.839l145.199-9.833 246.303-24.006 146.836-1.379 176.386 26.045 27.483 8.045c-29.918 40.539-94.457 94.988-161.207 120.748l1.251 107.541h-582.251M90 243.923"/></g><g stroke="#fff" stroke-miterlimit="10"><path d="M531.844-120.152l42.191 318.934 107.979 14.302c.001 0 62.215-215.959-150.17-333.236zM326.678-113.639l-22.524 155.526-23.632 153.797-110.375 11.68c0-.001-65.083-229.156 156.531-321.003z"/></g><g stroke="#fff" stroke-miterlimit="10"><path fill="#2DB06E" d="M161.385 412.775l14.932-7.955 8.643-10.771 15.048-10.749 18.472-11.453 53.061-38.62 6.439-5.149 7.87-6.578h7.866l8.581-9h8.203v-25.761l17.352-2.145 9.033-3.933 5.947-5.721 2.259-3.575 8.637-13.23 9.168-6.435 15.604-8.582v-11.440999999999999l14.816-7.151 9.017-3.441 5.799-5.585h5.006l-2.503 7.016-4.648 3.686-7.508 3.87-9.096 3.186-2.883.564v5.006l-1.341 11.799-14.615 6.793-4.446 8.581-17.062 16.448-17.419 8.223-3.117 4.291v7.509l-8.453 11.799-13.344 12.872-5.421 5.72.865 5.006-27.456 23.598-12.477 13.587-13.925 18.592-18.226 14.66-11.572 11.799z"/><path d="M218.495 420.284c232.271-6.794 452.793-180.249 452.793-180.249l-180.919-24.535h-148.026l-230.12 24.536s-137.987 141.79 49.162 173.254M670.725 239.666l31.483 6.443c-77.327 112.82-273.486 176.967-403.422 195.701-81.176 11.704-201.418 12.514-265.331-51.832-44.763-45.064 16.456-116.636 49.63-148.762M112.223 239.006l-129.575 9.833M-17.352 289.6l64.973-7.002M-17.369 382.538l34.7-27.506.715 143.781s120.211 123.25 523.206-46.17M729.885 287.251l57.277 16.639M729.885 287.251M738.198 257.51l54.668 15.131M671.289 239.786M806.442 384.708l-116.965-25.404M539.5 370v106" fill="none"/></g><g><path d="M393 198h3v16h-3z"/><path stroke="#fff" stroke-miterlimit="10" d="M391.756 199.974l4.776-1.141 12.315-37.772-2.145-2.562-10.965-4.053-12.871 41.715zM394.531 221.666l-14.079 3.337-4.559-15.137 12.812-1.43z"/><path stroke="#fff" stroke-miterlimit="10" fill="none" d="M392.315 199.654l.417 14.84M395.532 198.833l.467 15.788"/></g><path d="M216.914 229.764l124.254-6.263 9.333-18.833-19.648-76.04-25.853-15.628 9.671-44.583s5.333-21.079-19.169-25.748l-21.837 26.331 2.67 28.631-5.5 4.538-28.664 8.831-10.503 8.836-10.004 63.667-6.091 15.33-1.042 11.042 2.383 19.889z"/><path d="M488.995 197.875l14.508-75.541 17.666-5-3.294-5.709-5.875-16.5.844-34.625 10.969-9.625s11.769-5.083 15.812-4.125c6.751 1.601 18.088 11.942 19.75 18.5 1.48 5.84-3.822 23.793-3.822 23.793l2.236 15.082 25.1 13.774 9.562 7.786 5.938 12.905.631 29.41 5.711 3.865 8.539 17.4 2.789 19.042.447 26.36-43.341-4.903-81.495-11.845.992-.718-3.667-19.326z"/><g><path d="M304.5 106v7l25.418 13.834s2.458 5.333 2.458 10.167l18.063 67.667s-6.886 19.928-9.552 18.762M237.335 189.67l24.833 3.333s-14.512 15.428-9.006 20.381M270.834 102.169l2.835 4 8.167 48.917M305 113l-6.998 51.836M274.333 78.667l6.667-2.834 4.045-6.376 1.125-9.957h12.83s14 2.248 17.333.748M281.836 102.835l6.834 11.667M520.883 114.682l-17.38 7.652-15.333 79.834 4.833 16.166 18 3.166M526.858 113.753l2.811 7.248-8.857 82.311M529.669 121.001c7.197 0 10.748-4.25 16.106-9.237 5.258-4.891 4.225-7.444 4.225-14.764l11.873 10.86c3.74 3.42 10.986 5.288 15.554 7.458 11.526 5.477 20.444 13.245 21.477 27.083 2.149 28.783-.308 58.505-.77 87.363M599.021 169.417s19.582 2.754 17.283 62.835M314.671 213.384M337 191.5l5.5 14.5" stroke="#fff" stroke-miterlimit="10" fill="none"/><path d="M497.338 232.253l35.5-7.253 31.833 5.5-25.333 9.167c0-.001-23.499-8.994-42-7.414z" fill="#fff"/><path d="M447.671 226.999s34.667 1.667 36.5 4.333M424.84 229.764l.833-24.264 15.833-9.578M191.173 238.828l17.166 12.505 1.167 35M182.833 211.167l15.667 12.383v28.45M536 104.125c-.819 1.859-1.724 6.108-3.25 7.375-1.559 1.294-9.91 3.58-11.867 3.182-4.869-.989-5.86-13.824-6.826-17.469-.357-1.348-3.057 1.166-3.057-1.151 0-1.479 1.172-2.946 1.299-4.42.277-3.229-.096-6.465-.278-9.698-.38-6.749.182-13.225.707-19.977.624-8.019 16.716-14.756 23.244-15.38 8.858-.847 20.042 8.92 23.02 17.059 1.771 4.839-.562 12.552-1.353 17.387-1.404 8.589-2.574 14.346.151 23.092M511.923 75.088c8.675-3.499 16.829-.045 24.53 3.562 3.612 1.692 1.694 16.051 6.422 3.6M549.5 76.5s3.5 15.875-3.5 16.75M513.875 196.75l13.875 13.125 8.812-4.125-1.437-13.875 17.25-70.875 5.125-9 .29-7.875M499 215s.375-16.75 3-17.125M285.003 96.669s.833 8.999 5.5 9.666h8.833s7.333 1.5 9-3.167l7.33-38.669.667-4.501c-3.833-15.333-20.831-16.998-20.831-16.998s-3.776-.258-4.999 0c-8.079 1.705-17.167 7.584-16.833 28.417l3.832 25.252-6.667 5.5-33 10.167s-5.333 4-6.167 7.5l-10.004 63.667s-11.662 23.533-5.162 24.933l37.667 5.067" stroke="#fff" stroke-miterlimit="10" fill="none"/></g><path d="M221.664 235.195l29.586 6.022c3 1.967 39.75-4.467 39.75-4.467l-37.25-6.986c-4.5 4.264-32.086 4.736-32.086 4.736" stroke="#000" stroke-miterlimit="10" fill="none"/><path d="M464 60v80h-96v-80h96m1-1h-98v82h98v-82z" fill="#fff"/><g><path fill="#fff" d="M337.974 223.662l30.36 2.838-38.667 9-27.5-7.167z"/><path stroke="#fff" stroke-miterlimit="10" fill="none" d="M262.168 193.003l29.166 6.497 7.5 6.5 6 10.833-3.5 5 2.166 4.667-4.5 3-4.5-5.5-3.5 3-4 1.333-11-10.5-4-1.5-18.837-2.949M341.168 223.501c-3.194.161-4.168-32.001-4.168-32.001s-7.642-4.659-10.333-4c-3.125.765-8.5 9.667-8.5 9.667l-3.667 18.833 5.833 7.5M291.834 207.5l7.5 11.833M284.834 209.667l7 9.666M278.667 212.5l6.167 8M327 225.667l-3.333-14.5M328.167 211.167l2.833 14.5"/><path d="M254.501 229.833l34.833 7.333-81.333 11-9.833-9.667s55.833-2.5 56.333-8.666z" fill="#fff"/><path stroke="#fff" stroke-miterlimit="10" fill="none" d="M332.167 210.167l2.833 14.5M291.334 199.5l14.833 6.5"/></g><path stroke="#fff" stroke-miterlimit="10" fill="none" d="M551 224l65.304 8.253"/><path stroke="#fff" stroke-miterlimit="10" fill="none" d="M270.834 225.667l-53.92 2.843-2.383-21.01"/></svg>