<svg xmlns="http://www.w3.org/2000/svg" width="800" height="450" viewBox="0 0 800 450"><path d="M0-2h800v462h-800z"/><path fill="#649BD9" d="M529.668 204l-178.168 24-.5-230h179z"/><path stroke="#fff" stroke-miterlimit="10" fill="none" d="M26.646 272.916l-26.646 3.672M571.198 206.097l-41.53-2.097-345.678 47.75M741.724 215.621M800 218.814l-64.964-3.193M54.414 413.099l-54.414 7.489"/><path stroke="#fff" stroke-miterlimit="10" d="M528.5 32.083l6 1.917v8l9.167 3.25 23 26.25h2.833v4h-4.5l-2 5.083-5.333 5.917h-2.667l-.333-4.833-1.876-2.167-7.124 2.417-3.667 4.541 2.667 5.854-1.667 2.188h-3l-4-4h-7M799.812 114.75l-5.907 2.458.464 1.23-2.869 2.895v18.667l-1.168 4.25-2.333 7.25h6.001l4.332-2.5 3.333-1.833M805.107 162.75l-10.22 3.041-5.222 11.709h-7.665l-7.25 3.833-5.25 3.667v8l-3.75 4.667-1.25 4v6.333l-.502 5.755 5.418 13.245 4.084 5v3l3.831 9.25 3.667 6.25h4.002l5.998 3h11.002"/><path fill="#1F167E" stroke="#fff" stroke-miterlimit="10" d="M351.5 191.166l7.831-5.75 3-5.042 4.667-3.854 2.333-4.094 1.333-8.047 1.333-8.017 5.667-2.352 4.667-3.339 5.169-2.337-1.503-3.002 1.503-3 3.831-2.667 1.666-5.666 5.003-8.334 3.33-2.333-.333-2 .667-4.333 8.333-1.334 5.833-1.666 4.67-2.999v-4.001l-5.418-3 5.832-7.334 3.041-.166 4.045 6.001h3.33l8-10.251.334-3.5 4.333 2.125.003 4.626h5.997l6.003-10h1.5v-6.501l-7.918-4.667-12.668-17.331-10.459-9.336-9.955-8.665v6.916l-3.252-2.251-.668-10.333-12.625-12-2.143 9.751 2.424 9.916-2.283 8.666-5.979 10.085-4.974 13.75h-8.5v-9.835l-.918-6.664-6.501-3.336-9.581-2.665v-5l1.249 1.665 15.791-14.666 4.813-4.667 1.147-10.333v-7.999l-11-1v-6.583l-2.585 7.583-3.001 3.166-1.914 8.334h-13.5v7h-1.5zM400.5-3v3l7.831 1.5 5.5 4.917 4.5 4.083h-.831v-7.5l7.831-.25 4.166 5.75 7.584-.168-3.209-8.999 2.397-2.333"/><path fill="#649BD9" stroke="#fff" stroke-miterlimit="10" d="M361 109.25l7.25-5.625 6-3.437 2.25 1.062v13.25h11.5l2.25 2.5-2.5 1-3.25 1.625-4.125 3.313-4.875-1.688v-.75h-1.5l-1.25-7.531-1.75 6.281-6-1.875 1.5-5.719z"/><path stroke="#fff" stroke-miterlimit="10" d="M723.5 0v13l6.832 9.001 2.418-2.334 5.625-3.667 7.729-18"/><path stroke="#fff" stroke-miterlimit="10" fill="none" d="M528.5-2v206M606.5 332c-33.667 2.465-58.792 4.872-95 10M727.126 337.808c33.683-.034 57.374.962 71.374 2.192v-14s-26.089-.889-71.75 0M727.626 337.808M511.527 352.846c34.688-5.789 57.848-8.538 94.973-10.846M428.5 357c-80.75 18.125-147.774 48.49-175.084 93l146.209 20c-41.374-44.739-18.86-75.988 29.375-96"/><path stroke="#fff" stroke-miterlimit="10" fill="none" d="M252.5 450v90.5h146v-70.5zM760.5 305.588c-314-2.747-430 57.413-430 57.413v-29s116-60.16 430-57.413v29zM332 334.001l-28.5-5.001v27l28.25 7.001M304.5 329s-97.985-62.568 28-78.331c106.759-13.357 269.127-5.594 429.582 25.919M530 16.669l270-23.333M530 9.669l270-23.333M80.513 173.969l-80.888 10.619M-1.25 40.041l114.75 4.959v15M299.5-2v237M350.5-2v230M125.5-2v57M304.5 329"/><path stroke="#fff" stroke-miterlimit="10" fill="none" d="M302.5 337l-77.566 10.514-45.434-11.514v-7l45.434 11.514 77.566-10.514zM181 329c11-3.447 16.5-4.583 29-17.332M732.5 306v20M335.5 361v25M146.75 262c1.5.25 43.25-1.75 43.25-1.75s16.75 10 9.5 39.25l-44.5 9.75M222.75 289.5l17.25 15M225.75 283.938l18.438 13.124M104.382 139.23c-26.75 1.5-41.132 116.52-41.132 116.52s-3.25 40.937-1 47.186M110.75 142.5l-9.25-4.75 7.25-10s-10.5-14-10.5-33.5 10-47.25 53-38.75c21.183 4.188 31.745 22.47 32.5 34.25.139 2.169-2 8.462-2 8.462s8.591 9.13 7 12.288c-.708 1.405-6.25.75-6.25.75l.25 12c-2.5 13.5-8.715 17.25-8.715 17.25l-17.785 14.75 4.25 35.25 26.75 69.75M117 132s32.569 22.432 43.285 56.716M150.499 55.211c-7.876 4.586 2.793 16.983 5.813 21.726 1.578 2.479 4.72 7.636 5.219 10.531.629 3.65-1.231 14.766-1.231 14.766l-5.573 1.508s-6.599-9.246-11.849-6.996-7.378 6.504-7.378 9.254v14s-10.74 4.83-14.75 5.25c-3.85.404-15.119-1.894-15.119-1.894M230 272l22.25 12.75M230 278.375l19 11.125M201 291.5h6l20 10.5M63.03 258.668s-29.03-15.572-34.03-12.87-14 9.704-9.5 17.203 16 20.499 17 21.749 45.976 55.422 20.476 109.922M22.562 250.5s81.82 78.5 46.438 143.029"/><path d="M73 394.047s-22.312-3.564-22.312 8.023 10.5 18.93 18.906 18.93 97.906 2.681 134.406 0c4.672-.343 13.25-5 13.25-13.25s.891-14.221-9.25-14.221l-135 .518zM652 121.25l-15 8.75s-3.334 2.5-7.5-1c-3.023-2.54-3.875-6.25-3.875-6.25l-29.375 9.25s-8 .375-10.75 17.625l-8.25 44.188-10.25 20.968M639.812 132.25s4.695 2.935 6.438 3.5c7.107 2.304 13.5 1.75 24.75-16.75M632 133.5s-11.75 45.5-11.25 67.5M668.5 134.5s-18.75 50.75-18.75 56.25" stroke="#fff" stroke-miterlimit="10" fill="none"/><path d="M678.5 89.5c-1.221 5.535-12 5.75-12 5.75l-3.5 6.25h-2.75s-4.258-17.867-5.352-21.117-6.164-6.242-8.914-7.492l-9.266 3.953c0-2.875-4.531-4.188-6.031-4.188l-4.445 8.266s-3.992-10.898 4.258-16.398 19.562-11.012 24.406-5.512c0 0 30.594-1.262 23.594 30.488zM665.5 109s5 1.5 5-3.25v-8.75s-1.125-2.531-3.125-2.516" stroke="#fff" stroke-miterlimit="10" fill="none"/><path d="M689.5 228.5l-32.75 10.676 32.75-10.676zM697.5 204l-8 24.5-32.75 10.676s-7.5 3.574-10.5 0l-9.25-8.555s-6.25.879-9.5.129l-6.766 2-8.734 9s-3 1.578-1.5 2.664l5.25 1.273 7.5-6.512s3.25-1.617 6-1.021M567 214.5l-14.5 19.338s.25 5.764 2.25 5.338l8 .022M589.25 202.75s6.5 19.25 5.5 20.75M594.854 252.5l-.104-29-12.24 8.25M557.5 239.198s1.5 6.544 10 6.489c3.824-.024 3-.688 3-.688v-2s7.297.428 8.25-2.706l1.625-4.108s1.688-4.436 1.938-5.564c.25-1.13-4.156-8.871-6.656-11.871l-10.016-2.5M626.242 80.875s3.758 3.125.125 12.125v23l-.742 6.25M616.467 244.414s-.217 9.808 17.908 7.946c0 0 2.812-2.181 4.25-2.181l3.281 1.91 3.547 2.054 77.277 11.085s1.26-2.489 5.76-6.571l7.755-34.413-2.247-15.997s-5.998-56-6.498-59.75l-6-4.749-52-24.75v-11" stroke="#fff" stroke-miterlimit="10" fill="none"/><path stroke="#fff" stroke-miterlimit="10" d="M194.367 256.222l110.133 13.653 19-7.875 4.75 1.445 2.359-13.679-5.609-2.766-95-6.936z"/><path fill="#fff" stroke="#000" stroke-miterlimit="10" d="M249 306.25l-28.25 13.499 111.75 6.228 33.5-18.477z"/><path d="M356.75 208.5" stroke="#fff" stroke-miterlimit="10" fill="none"/><path d="M173.035 338.257c-46.465-17.743-117.535 7.743-117.535 7.743v-6s70.57-25.486 117.035-7.743l.5 6z" stroke="#fff" stroke-miterlimit="10"/><path d="M156.149 333.617s8.351 12.883-12.649 44.883l-31.644 43.302M168.107 336.642s10.893 9.858-10.107 41.858l-32.5 43.691v52.809M117.5 475v-53M280.946 411.122c2.519-.059 8.763 0 11.293 0M2 525s92.375-75.966 211-103.808M262.808 342.583s47.745 7.8 12.468 81.608M427.5 459v-102M510.5 342v117M511.527 352.846c0 11.607-36.65 21.154-82.527 21.154" stroke="#fff" stroke-miterlimit="10" fill="none"/><path d="M217.27 530.25c13.632-1.8-78.77-38.75-78.77-38.75l-7.5-15h-15l-8.25 15.5s-72.75 26.023-72.75 38.625c0 0 133.04 6.125 182.27-.375zM605.5 332v127M726.5 326v133M728 326c0 3.316-53.75 8.75-121 6M214 415.8s-16.167 77.534-25.25 92.867M511.5 341.887c0-2.262 3.429 15.113-83 15.113M727.5 338.001c0 5.983-58.5 7.249-121 3.999M194.407 264.325s12.593-6.325 19.093-4.075l22.094 8.75 12.656 7.497 4 3.378M618.128 248l8.239-5.5M621.573 250.035l8.239-5.5M634.745 252.521l8.239-5.5M625.745 252.521l8.239-5.5" stroke="#fff" stroke-miterlimit="10" fill="none"/><path stroke="#fff" stroke-miterlimit="10" d="M646.5 296v26.5l14-2v-24.5M708.5 294v22.5l-13 1v-22.5M500.762 320.23l-.762 21.27-11.5 1v-17.5M450.5 330v16.5l13-1v-1.5l.167-10.999M672.5 296v23.5l11-1v-23.5M469.5 332v12.5l13-1v-16.5M325 247l-20.5 22.875"/><path d="M378.667 258.668l43.333 12c0 22.662 50.333 20.5 104.458 41l-59.791 21.333c-44.667-8.356-219.334-66-88-74.333zM440.666 267.334l-40.666-8.666c93-10.001 181.333 1.999 346.667 33l-103.333 4.166c-101.334-23.834-150.002-28.5-202.668-28.5z" stroke="#fff" stroke-miterlimit="10"/><path fill="#fff" stroke="#000" stroke-miterlimit="10" d="M421.748 256.727l48.752 4.523 40.25-10.75-49.744-3.332z"/><path stroke="#fff" stroke-miterlimit="10" d="M231.25 244.75l77.509 7.655M223.329 249.18l82.421 9.07M212 252.75l90.5 11"/><path stroke="#000" stroke-width="4" stroke-miterlimit="10" fill="none" d="M300 265.5l10.75-13.75"/><path d="M211.305 256.146l-1.86-3.542 21.434-11.262 5.996 1.533z"/></svg>