<?xml version="1.0" encoding="iso-8859-1"?>
<!-- Generator: Adobe Illustrator 16.0.4, SVG Export Plug-In . SVG Version: 6.00 Build 0)  -->
<!DOCTYPE svg PUBLIC "-//W3C//DTD SVG 1.1//EN" "http://www.w3.org/Graphics/SVG/1.1/DTD/svg11.dtd">
<svg version="1.1" xmlns="http://www.w3.org/2000/svg" xmlns:xlink="http://www.w3.org/1999/xlink" x="0px" y="0px" width="800px"
	 height="450px" viewBox="0 0 800 450" style="enable-background:new 0 0 800 450;" xml:space="preserve">
<g id="Layer_6">
	<rect width="800" height="450"/>
	<line style="fill:none;stroke:#000000;stroke-miterlimit:10;" x1="336" y1="103.5" x2="356" y2="103.5"/>
</g>
<g id="Layer_3">
	<polyline style="fill:#ADBD00;" points="503.5,280.833 460,280 460,41 504,41 	"/>
	<rect x="681.5" y="10.5" style="fill:none;stroke:#FFFFFF;stroke-miterlimit:10;" width="159" height="347"/>
	<polyline style="fill:none;stroke:#FFFFFF;stroke-miterlimit:10;" points="-9,258.5 211,258.5 183,401.5 	"/>
	<line style="fill:none;stroke:#FFFFFF;stroke-miterlimit:10;" x1="195" y1="258" x2="261" y2="-19"/>
	<polygon style="fill:none;stroke:#FFFFFF;stroke-miterlimit:10;" points="503.5,299 503.5,31 678.5,10 678.5,357 	"/>
	<polyline style="fill:none;stroke:#FFFFFF;stroke-miterlimit:10;" points="827,93.5 679,93.5 504,100.5 504,100.5 	"/>
	<polyline style="fill:none;stroke:#FFFFFF;stroke-miterlimit:10;" points="827,184.5 679,184.5 504,167.916 504,167.916 	"/>
	<polyline style="fill:none;stroke:#FFFFFF;stroke-miterlimit:10;" points="827,274.5 679,274.5 504,240.166 	"/>
	<polygon style="fill:none;stroke:#FFFFFF;stroke-miterlimit:10;" points="333.5,55 333.5,246 246.5,225 246.5,64 	"/>
	<polyline style="fill:#ADBD00;" points="335,54 376,54 379.5,245 335,245 	"/>
	<line style="fill:none;stroke:#FFFFFF;stroke-miterlimit:10;" x1="248" y1="106.832" x2="335" y2="102.5"/>
	<line style="fill:none;stroke:#FFFFFF;stroke-miterlimit:10;" x1="335" y1="154.5" x2="248" y2="151"/>
	<line style="fill:none;stroke:#FFFFFF;stroke-miterlimit:10;" x1="248" y1="184" x2="335" y2="205.666"/>
</g>
<g id="Layer_5">
	<line style="fill:none;stroke:#FFFFFF;stroke-miterlimit:10;" x1="-9" y1="403.5" x2="827" y2="403.5"/>
	<line style="fill:none;stroke:#FFFFFF;stroke-miterlimit:10;" x1="253.162" y1="13.896" x2="366" y2="-19"/>
	<line style="fill:none;stroke:#FFFFFF;stroke-miterlimit:10;" x1="248" y1="31" x2="406.5" y2="-16"/>
</g>
<g id="Layer_7">
	<polyline style="fill:none;stroke:#FFFFFF;stroke-miterlimit:10;" points="234,96.5 263.5,96.5 263.5,110.999 263.5,145.5 
		221,145.5 	"/>
	<line style="fill:none;stroke:#FFFFFF;stroke-miterlimit:10;" x1="291" y1="111.5" x2="264" y2="111.5"/>
	<line style="fill:none;stroke:#FFFFFF;stroke-miterlimit:10;" x1="264" y1="135.5" x2="291" y2="135.5"/>
	<line style="fill:none;stroke:#FFFFFF;stroke-miterlimit:10;" x1="272.5" y1="24" x2="272.5" y2="-16"/>
	<line style="fill:none;stroke:#FFFFFF;stroke-miterlimit:10;" x1="311.5" y1="12" x2="311.5" y2="-19"/>
	<g>
		<g>
			<path style="fill:none;stroke:#FFFFFF;stroke-miterlimit:10;" d="M635.062,191.299c-0.505,1.08-1.323,0.965-1.828-0.251
				c-0.505-1.215-0.505-3.07,0-4.149c0.504-1.083,1.323-0.982,1.828,0.233C635.567,188.348,635.567,190.215,635.062,191.299z"/>
		</g>
		<g>
			<path style="fill:none;stroke:#FFFFFF;stroke-miterlimit:10;" d="M641.643,136.778c-0.186,1.602-0.895,2.552-1.585,2.126
				c-0.69-0.426-1.101-2.058-0.916-3.648c0.185-1.592,0.895-2.55,1.585-2.135C641.418,133.537,641.828,135.175,641.643,136.778z"/>
		</g>
		<g>
			<path style="fill:none;stroke:#FFFFFF;stroke-miterlimit:10;" d="M635.381,82.109c0.185,1.547-0.224,3.225-0.916,3.747
				c-0.692,0.52-1.402-0.307-1.588-1.842c-0.185-1.534,0.224-3.206,0.916-3.736C634.485,79.747,635.196,80.565,635.381,82.109z"/>
		</g>
		<g>
			<path style="fill:none;stroke:#FFFFFF;stroke-miterlimit:10;" d="M617.917,46.43c0.507,0.967,0.508,2.75,0.002,3.977
				c-0.506,1.225-1.328,1.428-1.834,0.461c-0.507-0.963-0.509-2.732-0.002-3.957C616.589,45.684,617.41,45.467,617.917,46.43z"/>
		</g>
		<g>
			<path style="fill:none;stroke:#FFFFFF;stroke-miterlimit:10;" d="M593.93,39.372c0.692,0.167,1.105,1.485,0.921,2.943
				s-0.895,2.493-1.587,2.317c-0.692-0.174-1.105-1.485-0.921-2.934C592.526,40.25,593.237,39.208,593.93,39.372z"/>
		</g>
		<g>
			<path style="fill:none;stroke:#FFFFFF;stroke-miterlimit:10;" d="M569.883,58.41c0.691-0.531,1.404,0.053,1.592,1.309
				c0.188,1.258-0.221,2.703-0.912,3.224c-0.691,0.52-1.404-0.071-1.592-1.319C568.784,60.377,569.192,58.941,569.883,58.41z"/>
		</g>
		<g>
			<path style="fill:none;stroke:#FFFFFF;stroke-miterlimit:10;" d="M552.261,93.956c0.504-0.977,1.324-1.11,1.833-0.291
				c0.509,0.823,0.512,2.287,0.008,3.264c-0.503,0.974-1.324,1.093-1.833,0.27C551.761,96.379,551.757,94.93,552.261,93.956z"/>
		</g>
		<g>
			<path style="fill:none;stroke:#FFFFFF;stroke-miterlimit:10;" d="M545.784,136.412c0.182-1.199,0.889-1.923,1.581-1.614
				c0.691,0.311,1.104,1.544,0.923,2.752c-0.182,1.207-0.889,1.924-1.581,1.603C546.015,138.835,545.603,137.609,545.784,136.412z"
				/>
		</g>
		<g>
			<path style="fill:none;stroke:#FFFFFF;stroke-miterlimit:10;" d="M552.15,178.818c-0.188-1.246,0.218-2.45,0.907-2.691
				c0.689-0.243,1.4,0.576,1.588,1.832c0.188,1.257-0.218,2.468-0.907,2.701C553.049,180.892,552.339,180.066,552.15,178.818z"/>
		</g>
		<g>
			<path style="fill:none;stroke:#FFFFFF;stroke-miterlimit:10;" d="M569.616,214.301c-0.506-1.07-0.509-2.604-0.007-3.434
				c0.502-0.833,1.321-0.646,1.827,0.423c0.506,1.072,0.51,2.622,0.007,3.454C570.94,215.575,570.123,215.374,569.616,214.301z"/>
		</g>
		<g>
			<path style="fill:none;stroke:#FFFFFF;stroke-miterlimit:10;" d="M593.5,233.424c-0.689-0.569-1.1-2.114-0.917-3.456
				c0.183-1.343,0.89-1.98,1.579-1.422c0.689,0.56,1.1,2.113,0.917,3.466C594.897,233.364,594.19,233.994,593.5,233.424z"/>
		</g>
		<g>
			<path style="fill:none;stroke:#FFFFFF;stroke-miterlimit:10;" d="M617.441,226.647c-0.689,0.232-1.397-0.828-1.583-2.364
				c-0.185-1.535,0.223-2.972,0.912-3.214c0.688-0.243,1.397,0.81,1.583,2.354C618.538,224.969,618.13,226.414,617.441,226.647z"/>
		</g>
		<g>
			<path style="fill:none;stroke:#FFFFFF;stroke-miterlimit:10;" d="M635.062,191.298c-0.505,1.08-1.323,0.964-1.828-0.252
				c-0.505-1.214-0.506-3.068-0.001-4.147c0.504-1.083,1.323-0.982,1.828,0.232C635.567,188.346,635.567,190.215,635.062,191.298z"
				/>
		</g>
	</g>
	<circle style="fill:none;stroke:#FFFFFF;stroke-miterlimit:10;" cx="593.833" cy="135.334" r="2.333"/>
	<line style="fill:none;stroke:#FFFFFF;stroke-miterlimit:10;" x1="593.5" y1="55" x2="593.5" y2="133"/>
	<line style="fill:none;stroke:#FFFFFF;stroke-miterlimit:10;" x1="593.833" y1="137.667" x2="578.333" y2="184"/>
</g>
<g id="Layer_8">
	<path style="fill-rule:evenodd;clip-rule:evenodd;" d="M541.098,408.733c-11.406-0.377-23.044-0.508-34.299-0.634
		c-3.487-0.039-6.972-0.078-10.454-0.124c-1.501-0.02-3.029-0.026-4.561-0.026c-1.325,0-8.785,0.018-8.785,0.018v-0.223
		c-8.835-0.122-17.953-0.243-27.158-0.365c-10.296-0.136-20.702-0.274-30.943-0.417c-16.462-0.229-32.838-0.471-49.272-0.713
		l-18.453-0.271c-19.599-0.286-39.198-0.573-58.797-0.874c-2.842-0.044-5.684-0.105-8.526-0.167
		c-4.324-0.094-8.796-0.191-13.19-0.22c-2.635-0.017-4.121-1.566-5.308-3.018c-2.979-3.642-4.96-7.778-6.658-11.705
		c-0.386-0.893-0.776-1.783-1.168-2.675c-3.04-6.925-6.183-14.087-6.775-21.979c-1.042-13.869,0.263-24.938,4.109-34.837
		c6.182-15.915,9.917-32.846,13.528-49.22l0.671-3.041c1.644-7.432,2.943-15.067,4.199-22.451c1.391-8.178,2.83-16.634,4.745-24.87
		c2.673-11.496,7.054-20.587,13.395-27.795c6.093-6.928,14.208-11.439,24.121-13.408c11.167-2.218,20.962-5.651,29.946-10.497
		c5.059-2.729,10.322-5.255,15.412-7.699c1.507-0.724,3.014-1.447,4.518-2.176c0.919-0.445,1.196-0.777,1.287-1.544
		c0.332-2.792,0.702-5.579,1.072-8.366c0.32-2.411,0.641-4.823,0.936-7.237c0.171-1.402-1.522-4.088-3.08-4.402
		c-5.647-1.143-7.953-5.464-9.195-8.616c-1.84-4.667-3.491-9.275-3.476-14.333c0.007-2.599,0.614-4.647,1.855-6.261
		c0.628-0.818,0.667-1.42,0.171-2.684c-2.953-7.528-5.733-14.948-7.3-22.946c-2.07-10.566-0.225-21.1,5.64-32.201
		c8.287-15.685,21.535-27.229,39.378-34.311c2.766-1.098,5.727-1.655,8.8-1.655c9.212,0,18.113,5.019,22.677,12.787
		c0.47,0.8,0.854,1.039,1.709,1.061c14.771,0.384,27.548,9.835,32.552,24.078c3.278,9.329,3.85,19.369,1.855,32.553
		c-0.896,5.918-2.364,12.157-4.489,19.074c-0.667,2.17-0.766,4.395-0.871,6.75c-0.05,1.13-0.103,2.299-0.223,3.456
		c-0.534,5.114-2.784,9.208-6.689,12.167c-2.604,1.973-3.836,4.616-3.998,8.571c-0.146,3.576,0.191,7.214,0.517,10.732
		c0.162,1.751,0.33,3.562,0.438,5.354c0.019,0.304,0.2,0.522,0.546,0.914l0.167,0.191c1.405,1.634,2.815,3.265,4.226,4.895
		c2.514,2.906,5.027,5.812,7.514,8.742c0.851,1.001,1.825,1.468,3.067,1.468c0.292,0,0.604-0.027,0.927-0.081
		c0.619-0.102,1.249-0.153,1.872-0.153c1.73,0,3.469,0.378,5.472,1.19l3.838,1.556c15.041,6.095,30.593,12.397,45.483,19.562
		c11.864,5.707,20.412,12.984,26.131,22.247c4.98,8.065,7.66,17.717,8.193,29.507c1.16,25.618,2.175,51.906,3.07,75.1
		c0.12,3.099,0.265,6.197,0.411,9.296c0.469,9.977,0.953,20.293,0.519,30.476c-0.671,15.736-4.537,27.814-12.166,38.009
		c-2.365,3.159-4.851,4.448-8.579,4.448C541.649,408.742,541.285,408.739,541.098,408.733z"/>
	<path style="fill-rule:evenodd;clip-rule:evenodd;" d="M560.466,326.553c-0.967-25.033-1.938-50.066-3.07-75.094
		c-0.463-10.242-2.552-20.131-8.045-29.026c-6.213-10.062-15.286-16.854-25.714-21.871c-16.105-7.749-32.707-14.374-49.263-21.092
		c-2.223-0.901-4.417-1.37-6.806-0.977c-1.92,0.316-3.579-0.148-4.919-1.728c-3.88-4.571-7.827-9.086-11.735-13.632
		c-0.424-0.493-0.907-0.941-0.953-1.696c-0.325-5.395-1.177-10.756-0.955-16.188c0.153-3.743,1.225-6.927,4.393-9.327
		c3.752-2.844,5.801-6.711,6.298-11.475c0.362-3.465,0.089-6.999,1.132-10.396c1.907-6.209,3.483-12.502,4.456-18.93
		c1.636-10.813,1.884-21.561-1.81-32.072c-4.828-13.742-17.376-23.039-31.635-23.41c-1.251-0.032-1.922-0.492-2.545-1.554
		c-5.951-10.129-19.3-15.054-30.246-10.709c-16.868,6.695-30.25,17.546-38.863,33.849c-5.255,9.947-7.743,20.309-5.543,31.541
		c1.542,7.872,4.335,15.343,7.25,22.773c0.518,1.32,0.669,2.385-0.31,3.658c-1.237,1.608-1.643,3.598-1.648,5.654
		c-0.015,4.939,1.633,9.467,3.406,13.963c1.567,3.975,3.896,7.078,8.463,8.002c2.058,0.415,4.11,3.574,3.875,5.504
		c-0.636,5.203-1.389,10.394-2.007,15.6c-0.149,1.256-0.777,1.81-1.843,2.326c-6.659,3.229-13.383,6.345-19.892,9.855
		c-9.538,5.145-19.624,8.492-30.226,10.598c-9.192,1.826-17.241,5.898-23.564,13.088c-6.959,7.911-10.829,17.287-13.171,27.361
		c-3.637,15.641-5.472,31.624-8.942,47.311c-3.916,17.708-7.656,35.45-14.243,52.407c-4.335,11.158-4.924,22.69-4.044,34.399
		c0.655,8.714,4.47,16.479,7.864,24.332c1.748,4.043,3.695,8.021,6.515,11.469c1.164,1.424,2.399,2.637,4.54,2.65
		c7.242,0.047,14.483,0.275,21.725,0.387c22.564,0.347,45.128,0.674,67.692,1.004c19.65,0.289,39.179,0.58,58.83,0.854
		c19.736,0.275,40.087,0.531,59.087,0.795c0,0.07,0,0.14,0,0.209c4,0,8.28-0.046,12.358,0.008
		c14.905,0.197,29.876,0.266,44.772,0.759c3.821,0.126,6.104-1.108,8.297-4.038c8.335-11.138,11.391-23.915,11.968-37.452
		C561.961,353,560.976,339.778,560.466,326.553z"/>
</g>
<g id="Layer_4">
	<path style="fill:none;stroke:#FFFFFF;stroke-miterlimit:10;" d="M545.75,407L276,403c-5.641,0-15.987-27.852-17-33
		c-2.022-10.277-1.175-27.545,2.583-37.08c8.704-22.088,12.778-44.123,17.669-67.538c4.788-22.917,4.717-49.258,23.587-65.491
		c12.206-10.5,26.969-8.486,40.342-15.065c10.272-5.053,20.545-10.107,30.818-15.161l2.432-18.613L374,169.666
		c0,2.336-0.036,4.677-0.058,7.016c7.767,7.349,29.634,36.72,42.138,27.524c9.362-6.886,18.725-13.771,28.086-20.656
		c5.56-4.089,4.413-16.5,5.333-23.049c-0.666-4.859-1.075-9.788-0.993-14.694c0.176-10.515,4.493-8.223,8.628-15.025
		c2.745-4.515,1.943-9.652,2.681-14.57c1.356-9.052-10.184-7.182-10.316,0.789c-0.782-4.609-1.564-9.218-2.346-13.827
		c-0.714-4.209-4.755-5.6-5.24-8.318c-1.523-8.551-0.643-21.444-8.207-26.229c-12.549-7.939-23.446-12.778-36.916-2.285
		c-7.638,5.95-13.56,14.342-17.792,22.993c-3.257,0-4.61-11.983-5-14.333c-3.556,14.222-7.111,28.444-10.667,42.667
		c-4.365,4.598-2.857,10.47-1.213,15.928c1.061,3.521,2.489,7.236,4.874,10.102c1.828,2.198,6.225,2.001,7.315,3.817
		c5.675,9.459,10.937,18.106,18.099,26.461c17.92,20.906,44.145-11.58,55.242-22.921c-11.097,11.341-37.321,43.828-55.242,22.921
		c-7.162-8.355-12.424-17.002-18.099-26.461c-1.09-1.816-5.487-1.62-7.315-3.817c-2.384-2.866-3.813-6.581-4.874-10.102
		c-1.644-5.458-3.151-11.33,1.213-15.928c-5.825-15.563-12.472-30.674-6.706-46.887c3.803-10.692,10.059-20.553,18.495-28.188
		c7.644-6.918,28.319-20.855,38.811-15.662c4.859,2.405,12.374,5.722,14.734,11.004c1.511,3.382,2.883,1.559,6.708,2.115
		c4.59,0.667,9.103,2.505,13.027,4.937c23.655,14.655,18.688,47.472,11.561,69.848c7.127-22.376,12.095-55.193-11.561-69.848
		c-3.924-2.431-8.437-4.27-13.027-4.937c-3.825-0.556-5.197,1.267-6.708-2.115c-2.36-5.282-9.875-8.599-14.734-11.004
		c-10.492-5.193-31.167,8.744-38.811,15.662c-8.436,7.635-14.692,17.495-18.495,28.188c-5.766,16.213,0.881,31.324,6.706,46.887
		C366.889,103.444,370.444,89.222,374,75c0.39,2.35,1.743,14.333,5,14.333c4.232-8.651,10.155-17.043,17.792-22.993
		c13.469-10.493,24.367-5.655,36.916,2.285c7.564,4.786,6.684,17.678,8.207,26.229c0.484,2.718,4.525,4.109,5.24,8.318
		c0.782,4.609,1.563,9.218,2.346,13.827c0.132-7.971,11.672-9.841,10.316-0.789c-0.737,4.917,0.064,10.055-2.681,14.57
		c-4.135,6.803-8.452,4.51-8.628,15.025c-0.082,4.907,0.327,9.835,0.993,14.694c-0.921,6.549,0.226,18.96-5.333,23.049
		c-9.362,6.885-18.724,13.771-28.086,20.656c-12.503,9.196-34.371-20.175-42.138-27.524c-0.288,30.923-2.424,62.039-5.637,92.763
		C364.743,303.506,355,335.29,355,370c0-34.71,9.743-66.494,13.305-100.556c3.213-30.724,5.349-61.84,5.637-92.763
		c-0.064-0.061-0.13-0.124-0.192-0.182c0.062,0.058,0.128,0.121,0.192,0.182c0.021-2.339,0.058-4.679,0.058-7.016
		c-10.272,5.054-20.545,10.107-30.818,15.161c-13.373,6.579-28.136,4.565-40.342,15.065c-18.87,16.233-18.799,42.573-23.587,65.491
		c-4.892,23.415-8.965,45.45-17.669,67.538c-3.758,9.535-4.605,26.803-2.583,37.08c1.013,5.148,11.359,33,17,33L545.75,407
		c15.891-17.283,15.898-38.861,14.986-61.084c-1.278-31.124-2.556-62.247-3.834-93.37c-1.181-28.756-13.825-43.612-41.766-55.548
		c-14.198-6.065-28.379-12.245-42.767-17.854c-3.637-1.418-7.028,1.413-9.83-1.837c-4.195-4.866-8.39-9.731-12.584-14.597
		c8.017,38.773-19.94,70.863-23.971,107.945c-3.451,31.74-5.968,63.741-10.483,95.346c4.515-31.605,7.033-63.606,10.483-95.346
		c4.031-37.082,31.988-69.172,23.971-107.945c4.195,4.866,8.39,9.731,12.584,14.597c2.802,3.25,6.193,0.419,9.83,1.837
		c14.388,5.609,28.568,11.789,42.767,17.854c27.941,11.936,40.585,26.792,41.766,55.548c1.278,31.124,2.556,62.247,3.834,93.37
		C561.648,368.139,561.641,389.717,545.75,407z"/>
	<g>
	</g>
</g>
<g id="Layer_9">
	<ellipse style="fill:none;stroke:#FFFFFF;stroke-miterlimit:10;" cx="214.75" cy="345.25" rx="19.75" ry="2.25"/>
	<path style="stroke:#FFFFFF;stroke-miterlimit:10;" d="M60.5,412.5l48-2.5c0,0,11.5-14,0-20.5s-23.492-5.612-31-3.5
		C69.923,388.132,44,400,60.5,412.5z"/>
	<line style="stroke:#FFFFFF;stroke-miterlimit:10;" x1="194.5" y1="433" x2="194.5" y2="345"/>
	<ellipse style="fill:none;stroke:#FFFFFF;stroke-miterlimit:10;" cx="214.75" cy="433.25" rx="19.75" ry="2.25"/>
	<line style="stroke:#FFFFFF;stroke-miterlimit:10;" x1="233.5" y1="434" x2="233.5" y2="346"/>
</g>
<g id="Layer_10">
	<polygon style="stroke:#FFFFFF;stroke-miterlimit:10;" points="261,424.5 257.399,399.5 542.5,400.25 536,424.5 	"/>
	<rect x="271.5" y="424.5" style="stroke:#FFFFFF;stroke-miterlimit:10;" width="10" height="12"/>
	<rect x="520.5" y="424.5" style="stroke:#FFFFFF;stroke-miterlimit:10;" width="10" height="12"/>
	<rect x="195" y="397" width="38" height="10"/>
</g>
<g id="Layer_11">
	<rect x="242" y="97" width="21" height="47"/>
</g>
<g id="Layer_12">
	<path style="fill:none;stroke:#FFFFFF;stroke-miterlimit:10;" d="M360.5,364l27-4l25.5,9.5l9.5,3c0,0,4.5,11,4,21"/>
	<polyline style="fill:none;stroke:#FFFFFF;stroke-miterlimit:10;" points="298.5,399.25 299,393.5 295,380.5 315.5,360 
		345.25,371.5 	"/>
	<polyline style="fill:none;stroke:#FFFFFF;stroke-miterlimit:10;" points="312,371.25 318,378.25 335,392 	"/>
	<polyline style="fill:none;stroke:#FFFFFF;stroke-miterlimit:10;" points="335,372.5 343.25,381.625 345.25,389.25 	"/>
	<polyline style="fill:none;stroke:#FFFFFF;stroke-miterlimit:10;" points="304.5,377 304.5,385 318,392 	"/>
	<polyline style="fill:none;stroke:#FFFFFF;stroke-miterlimit:10;" points="349.25,377 355.5,384.5 355.5,392 	"/>
	<line style="fill:none;stroke:#FFFFFF;stroke-miterlimit:10;" x1="367" y1="386.5" x2="387" y2="386.5"/>
	<line style="fill:none;stroke:#FFFFFF;stroke-miterlimit:10;" x1="367" y1="370.5" x2="387" y2="370.5"/>
	<path style="fill:none;stroke:#FFFFFF;stroke-miterlimit:10;" d="M408.494,554"/>
	<line style="fill:none;stroke:#FFFFFF;stroke-miterlimit:10;" x1="367" y1="378.5" x2="387" y2="378.5"/>
	<line style="fill:none;stroke:#FFFFFF;stroke-miterlimit:10;" x1="367" y1="393.5" x2="387" y2="393.5"/>
</g>
<g id="Layer_13">
	<line style="fill:none;stroke:#000000;stroke-miterlimit:10;" x1="469" y1="100.5" x2="502" y2="100.5"/>
	<line style="fill:none;stroke:#000000;stroke-miterlimit:10;" x1="460" y1="167.5" x2="501" y2="167.5"/>
	<line style="fill:none;stroke:#000000;stroke-miterlimit:10;" x1="335" y1="102.5" x2="356" y2="102.5"/>
	<line style="fill:none;stroke:#000000;stroke-miterlimit:10;" x1="333" y1="154.5" x2="374" y2="154.5"/>
</g>
</svg>
