<svg xmlns="http://www.w3.org/2000/svg" width="800" height="450" viewBox="0 0 800 450"><path d="M0 0h800v450h-800z"/><g stroke="#fff" stroke-miterlimit="10"><path fill="#ADBD00" d="M503.75 280.583l-43.25-.583v-239.5h43.5"/><path d="M681.5 10.5h159v347h-159zm-690.5 248h220l-28 143m12-143.5l66-277M503.5 299v-268l175-21v347zm323.5-205.5h-148l-175 7h-43m366 84h-148l-175-16.584-43-.92m366 107.504h-148l-175-34.334" fill="none"/><path d="M333.5 55v191l-87-21v-161z" fill="none"/><path fill="#ADBD00" d="M335 55.5h41l3.5 191h-44.5"/><path d="M377 102.5h-42l-87 4.332m129 47.668h-42l-87-3.5m0 33l87 21.666" fill="none"/></g><path d="M-9 403.5h836m-573.838-389.604l112.838-32.896m-118 50l158.5-47" stroke="#fff" stroke-miterlimit="10" fill="none"/><g stroke="#fff" stroke-miterlimit="10" fill="none"><path d="M234 96.5h29.5v49h-42.5m70-34h-27m0 24h27m-18.5-111.5v-40m39 28v-31"/><path d="M635.062 191.299c-.505 1.08-1.323.965-1.828-.251-.505-1.215-.505-3.07 0-4.149.504-1.083 1.323-.982 1.828.233.505 1.216.505 3.083 0 4.167zm6.581-54.521c-.186 1.602-.895 2.552-1.585 2.126-.69-.426-1.101-2.058-.916-3.648.185-1.592.895-2.55 1.585-2.135.691.416 1.101 2.054.916 3.657zm-6.262-54.669c.185 1.547-.224 3.225-.916 3.747-.692.52-1.402-.307-1.588-1.842-.185-1.534.224-3.206.916-3.736.692-.531 1.403.287 1.588 1.831zm-17.464-35.679c.507.967.508 2.75.002 3.977-.506 1.225-1.328 1.428-1.834.461-.507-.963-.509-2.732-.002-3.957.506-1.227 1.327-1.444 1.834-.481zm-23.987-7.058c.692.167 1.105 1.485.921 2.943s-.895 2.493-1.587 2.317c-.692-.174-1.105-1.485-.921-2.934.183-1.448.894-2.49 1.587-2.326zm-24.047 19.038c.691-.531 1.404.053 1.592 1.309.188 1.258-.221 2.703-.912 3.224-.691.52-1.404-.071-1.592-1.319-.187-1.247.221-2.683.912-3.214zm-17.622 35.546c.504-.977 1.324-1.11 1.833-.291.509.823.512 2.287.008 3.264-.503.974-1.324 1.093-1.833.27-.508-.82-.512-2.269-.008-3.243zm-6.477 42.456c.182-1.199.889-1.923 1.581-1.614.691.311 1.104 1.544.923 2.752-.182 1.207-.889 1.924-1.581 1.603-.692-.318-1.104-1.544-.923-2.741zm6.366 42.406c-.188-1.246.218-2.45.907-2.691.689-.243 1.4.576 1.588 1.832.188 1.257-.218 2.468-.907 2.701-.689.232-1.399-.594-1.588-1.842zm17.466 35.483c-.506-1.07-.509-2.604-.007-3.434.502-.833 1.321-.646 1.827.423.506 1.072.51 2.622.007 3.454-.503.831-1.32.63-1.827-.443zm23.884 19.123c-.689-.569-1.1-2.114-.917-3.456.183-1.343.89-1.98 1.579-1.422.689.56 1.1 2.113.917 3.466-.182 1.352-.889 1.982-1.579 1.412zm23.941-6.777c-.689.232-1.397-.828-1.583-2.364-.185-1.535.223-2.972.912-3.214.688-.243 1.397.81 1.583 2.354.185 1.546-.223 2.991-.912 3.224zm17.621-35.349c-.505 1.08-1.323.964-1.828-.252-.505-1.214-.506-3.068-.001-4.147.504-1.083 1.323-.982 1.828.232.506 1.215.506 3.084.001 4.167z"/><circle cx="593.833" cy="135.334" r="2.333"/><path d="M593.5 55v78m.333 4.667l-15.5 46.333"/></g><path d="M560.466 326.553c-.967-25.033-1.938-50.066-3.07-75.094-.463-10.242-2.552-20.131-8.045-29.026-6.213-10.062-15.286-16.854-25.714-21.871-16.105-7.749-32.707-14.374-49.263-21.092-2.223-.901-4.417-1.37-6.806-.977-1.92.316-3.579-.148-4.919-1.728-3.88-4.571-7.827-9.086-11.735-13.632-.424-.493-.907-.941-.953-1.696-.325-5.395-1.177-10.756-.955-16.188.153-3.743 1.225-6.927 4.393-9.327 3.752-2.844 5.801-6.711 6.298-11.475.362-3.465.089-6.999 1.132-10.396 1.907-6.209 3.483-12.502 4.456-18.93 1.636-10.813 1.884-21.561-1.81-32.072-4.828-13.742-17.376-23.039-31.635-23.41-1.251-.032-1.922-.492-2.545-1.554-5.951-10.129-19.3-15.054-30.246-10.709-16.868 6.695-30.25 17.546-38.863 33.849-5.255 9.947-7.743 20.309-5.543 31.541 1.542 7.872 4.335 15.343 7.25 22.773.518 1.32.669 2.385-.31 3.658-1.237 1.608-1.643 3.598-1.648 5.654-.015 4.939 1.633 9.467 3.406 13.963 1.567 3.975 3.896 7.078 8.463 8.002 2.058.415 4.11 3.574 3.875 5.504-.636 5.203-1.389 10.394-2.007 15.6-.149 1.256-.777 1.81-1.843 2.326-6.659 3.229-13.383 6.345-19.892 9.855-9.538 5.145-19.624 8.492-30.226 10.598-9.192 1.826-17.241 5.898-23.564 13.088-6.959 7.911-10.829 17.287-13.171 27.361-3.637 15.641-5.472 31.624-8.942 47.311-3.916 17.708-7.656 35.45-14.243 52.407-4.335 11.158-4.924 22.69-4.044 34.399.655 8.714 4.47 16.479 7.864 24.332 1.748 4.043 3.695 8.021 6.515 11.469 1.164 1.424 2.399 2.637 4.54 2.65 7.242.047 14.483.275 21.725.387 22.564.347 45.128.674 67.692 1.004 19.65.289 39.179.58 58.83.854 19.736.275 40.087.531 59.087.795v.209c4 0 8.28-.046 12.358.008 14.905.197 29.876.266 44.772.759 3.821.126 6.104-1.108 8.297-4.038 8.335-11.138 11.391-23.915 11.968-37.452.566-13.242-.419-26.464-.929-39.689z" fill-rule="evenodd" clip-rule="evenodd"/><path d="M544.75 407l-269.75-4c-5.641 0-15.987-27.852-17-33-2.022-10.277-1.175-27.545 2.583-37.08 8.704-22.088 12.778-44.123 17.669-67.538 4.788-22.917 4.717-49.258 23.587-65.491 12.206-10.5 26.969-8.486 40.342-15.065 10.272-5.053 20.545-10.107 30.818-15.161l2.432-18.613-2.431 18.614c0 2.336-.036 4.677-.058 7.016 7.767 7.349 29.634 36.72 42.138 27.524l28.086-20.656c5.56-4.089 4.413-16.5 5.333-23.049-.666-4.859-1.075-9.788-.993-14.694.176-10.515 4.493-8.223 8.628-15.025 2.745-4.515 1.943-9.652 2.681-14.57 1.356-9.052-10.184-7.182-10.316.789l-2.346-13.827c-.714-4.209-4.755-5.6-5.24-8.318-1.523-8.551-.643-21.444-8.207-26.229-12.549-7.939-23.446-12.778-36.916-2.285-7.638 5.95-13.56 14.342-17.792 22.993-3.257 0-4.61-11.983-5-14.333-3.556 14.222-7.111 28.444-10.667 42.667-4.365 4.598-2.857 10.47-1.213 15.928 1.061 3.521 2.489 7.236 4.874 10.102 1.828 2.198 6.225 2.001 7.315 3.817 5.675 9.459 10.937 18.106 18.099 26.461 17.92 20.906 44.145-11.58 55.242-22.921-11.097 11.341-37.321 43.828-55.242 22.921-7.162-8.355-12.424-17.002-18.099-26.461-1.09-1.816-5.487-1.62-7.315-3.817-2.384-2.866-3.813-6.581-4.874-10.102-1.644-5.458-3.151-11.33 1.213-15.928-5.825-15.563-12.472-30.674-6.706-46.887 3.803-10.692 10.059-20.553 18.495-28.188 7.644-6.918 28.319-20.855 38.811-15.662 4.859 2.405 12.374 5.722 14.734 11.004 1.511 3.382 2.883 1.559 6.708 2.115 4.59.667 9.103 2.505 13.027 4.937 23.655 14.655 18.688 47.472 11.561 69.848 7.127-22.376 12.095-55.193-11.561-69.848-3.924-2.431-8.437-4.27-13.027-4.937-3.825-.556-5.197 1.267-6.708-2.115-2.36-5.282-9.875-8.599-14.734-11.004-10.492-5.193-31.167 8.744-38.811 15.662-8.436 7.635-14.692 17.495-18.495 28.188-5.766 16.213.881 31.324 6.706 46.887 3.558-14.225 7.113-28.447 10.669-42.669.39 2.35 1.743 14.333 5 14.333 4.232-8.651 10.155-17.043 17.792-22.993 13.469-10.493 24.367-5.655 36.916 2.285 7.564 4.786 6.684 17.678 8.207 26.229.484 2.718 4.525 4.109 5.24 8.318.782 4.609 1.563 9.218 2.346 13.827.132-7.971 11.672-9.841 10.316-.789-.737 4.917.064 10.055-2.681 14.57-4.135 6.803-8.452 4.51-8.628 15.025-.082 4.907.327 9.835.993 14.694-.921 6.549.226 18.96-5.333 23.049l-28.086 20.656c-12.503 9.196-34.371-20.175-42.138-27.524-.288 30.923-2.424 62.039-5.637 92.763-3.564 34.063-13.307 65.847-13.307 100.557 0-34.71 9.743-66.494 13.305-100.556 3.213-30.724 5.349-61.84 5.637-92.763l-.192-.182.192.182c.021-2.339.058-4.679.058-7.016-10.272 5.054-20.545 10.107-30.818 15.161-13.373 6.579-28.136 4.565-40.342 15.065-18.87 16.233-18.799 42.573-23.587 65.491-4.892 23.415-8.965 45.45-17.669 67.538-3.758 9.535-4.605 26.803-2.583 37.08 1.013 5.148 11.359 33 17 33l269.749 4c15.891-17.283 15.898-38.861 14.986-61.084l-3.834-93.37c-1.181-28.756-13.825-43.612-41.766-55.548-14.198-6.065-28.379-12.245-42.767-17.854-3.637-1.418-7.028 1.413-9.83-1.837-4.195-4.866-8.39-9.731-12.584-14.597 8.017 38.773-19.94 70.863-23.971 107.945-3.451 31.74-5.968 63.741-10.483 95.346 4.515-31.605 7.033-63.606 10.483-95.346 4.031-37.082 31.988-69.172 23.971-107.945 4.195 4.866 8.39 9.731 12.584 14.597 2.802 3.25 6.193.419 9.83 1.837 14.388 5.609 28.568 11.789 42.767 17.854 27.941 11.936 40.585 26.792 41.766 55.548l3.834 93.37c.912 22.223.905 43.801-14.986 61.084z" stroke="#fff" stroke-miterlimit="10" fill="none"/><g stroke="#fff" stroke-miterlimit="10"><ellipse cx="214.75" cy="345.25" rx="19.75" ry="2.25" fill="none"/><path d="M60.5 412.5l48-2.5s11.5-14 0-20.5-23.492-5.612-31-3.5c-7.577 2.132-33.5 14-17 26.5zm134 20.5v-88"/><ellipse cx="214.75" cy="433.25" rx="19.75" ry="2.25" fill="none"/><path d="M233.5 434v-88"/></g><path stroke="#fff" stroke-miterlimit="10" d="M261 424.5l-3.601-25 285.101.75-6.5 24.25zm10.5 0h10v12h-10zm249 0h10v12h-10z"/><path d="M195 397h38v10h-38zM242 97h21v47h-21z"/><path d="M360.5 364l27-4 25.5 9.5 9.5 3s4.5 11 4 21m-128 5.75l.5-5.75-4-13 20.5-20.5 29.75 11.5m-33.25-.25l6 7 17 13.75m0-19.5l8.25 9.125 2 7.625m-40.75-12.25v8l13.5 7m31.25-15l6.25 7.5v7.5m11.5-5.5h20m-20-16h20m21.494 183.5-41.494-175.5h20m-20 15h20" stroke="#fff" stroke-miterlimit="10" fill="none"/></svg>