<svg xmlns="http://www.w3.org/2000/svg" width="800" height="450" viewBox="0 0 800 450"><g><path d="M0 0h800v450h-800z"/><path stroke="#fff" stroke-miterlimit="10" fill="none" d="M264.5 213v33"/></g><g><path d="M697.363 310.337c18.971-34.947-8.041-54.136-24.207-54.136-166.918 0-651.656-2.116-651.656-2.116v46.249l382.057 250.334 293.806-240.331z" opacity=".9" stroke="#fff" stroke-miterlimit="10" fill="none"/><path fill="#E63636" d="M653.442 144.311l151.558 7.441v-42.92l-152.405 2.957"/><path stroke="#fff" stroke-miterlimit="10" fill="none" d="M159.5 58v43.5h-175.792l10.542-43.385zM-13.021 151.729l172.521-9.584v33.211l-174.221 12.614"/><path stroke="#fff" stroke-miterlimit="10" d="M24.5 254.201l371.591 218.333 279.815-216.333-340.365-55.666-310.353 53.55"/><path fill="#E63636" d="M487 76.308v92.642l159 19.02v-116.59z"/><path d="M807.021 37.927c-196.631 11.087-485.521 33.453-485.521 33.453v-39.915s359.375-16.465 500.375-44.465M-16.792 5.273s228.292 11.902 257.292 32.352v24.375M165.317 84.193s41.005-7.547 54.362-11.334c5.754-1.632 20.397-7.376 21.824-9.801 6.382-10.849-63.565-18.478-63.565-18.478l-191.499-14.043M-9.803 40.843l185.469 16.247 16.753 1.232s69.974 4.517-26.766 13.144" stroke="#fff" stroke-miterlimit="10" fill="none"/><path d="M449.528 203.476l-.84 51.91c-101.184 6.407-193.188-.199-193.188-.199v-51.187" stroke="#fff" stroke-miterlimit="10"/><path d="M479 137.741l-68.229-3.285-.021-25.624c5.01.082 68.25 0 68.25 0v28.909z" fill="#E63636"/><path d="M175.317 151.752M300.823 166.376M493.037 187.119" stroke="#fff" stroke-miterlimit="10" fill="none"/><path stroke="#fff" stroke-miterlimit="10" d="M493.013 181.343l-23.653 25.157h-222.242l-31.045-26.809M259.191 197.579l-17.682 77.811M347.5 279v-75M447.678 197.531l15.769 77.859"/><ellipse cx="354.543" cy="179.691" rx="138.47" ry="8.278" stroke="#fff" stroke-miterlimit="10"/><ellipse cx="356.719" cy="179.052" rx="97.529" ry="3.696" fill="#fff"/><path d="M655.137 135.934M655.137 113.266M362.91 132.797M363.578 108.868M385.795 164.885M385.096 137.741M396.307 164.146M395.607 146.282M391.132 164.885" stroke="#fff" stroke-miterlimit="10" fill="none"/><path d="M574.567 115.913v-28.919h58.29v17.679l-26.495 64.749-21.429-2.138 26.568-63.054-18.146-.376v12.743l-18.788-.684zM363 133" fill="#fff"/><path fill="#E63636" d="M362.974 132.55l-190.974-6.595v-15.955l190.828-1.132z"/><path d="M23 100" fill="#fff"/><g stroke="#E63636" stroke-miterlimit="10" fill="none"><path d="M-21 111.5h170M-11 117.77l126-.976M33 122.172l97-1.352M4 128.729l149-3.229M12 133.43l111-3.094M24 139.094l111-3.953"/></g><path stroke="#fff" stroke-miterlimit="10" fill="none" d="M362.681 149l-202.681-6.898M819.25 218.597l-320.726-34.611M159.5 175.356l42.167 4.195M716.529 257.986l95.971 13.609"/></g><g><path d="M360 170h20v4h-20zM391 170h18v4h-18z"/></g><g stroke="#FEFEFE" stroke-miterlimit="10" fill="none"><path d="M399.5 176l2-.934 4.663-.663 2.143-3.596-.613-10.852-.307-1.4-1.641-14.469s-.455-4.026-3.956-5.251c-3.5-1.226-6.289-2.801-6.289-2.801v-1.108s2.23-1.692 2.289-2.101c.058-.408-.11-3.617-.11-3.617l.412-3.501s-.213-5.601-2.002-8.285c-1.789-2.684-3.318-4.201-6.418-4.201s-7.753.642-8.92 4.376c-1.167 3.734-1.69 9.685-1.69 9.685l-.399 6.418s-4.374 2.626-7.35 2.276l.643 1.458.293.233-1.809.408s-4.084 2.217-4.143 3.326c-.058 1.109-.525 6.477-.525 6.477l-4.434 17.154s-1.226 3.734 0 4.842c1.225 1.109 2.853 2.917 2.853 2.917s3.098-6.827 5.548-6.068l1.547-4.182.437 4.94-1.806-.642"/><path d="M398.386 170.049l1.069.077 1.323-.777-1.196-8.052zM382.758 146.818l2.5.682 1.808 7.124 2.043-8.095 2.567-.58 1.742-4.842-.283-2.945-.1-5.162M385.347 134.633c-2.828-.817-2.89-7.876-2.89-7.876s4.842-10.036 9.218-9.16c2.088.417 2.859 5.426 2.917 9.568.058 4.143-2.625 7.06-3.715 8.123M372.247 137.667l.253 1.925 1 .35v1.517l.978 1.634s2.785-.314 5.095-1.653l.418-.175c1.729-1.078 3.516-5.675 3.683-8.265M382.758 146.818c-1-3.784-2.638-5.554-2.638-5.554M394.156 140.963l1.993 2.537h1.245l.992-.903 1.692-.277-.817-.975s-3.267-4.003-3.267-5.111M391.132 175.105l3.364-4.842s1.136-.836 1.317-.72l1.173.583 1.4-.078M396.286 171.177l-1.07 1.142-2.178 3.273M395.255 176l2.353-2.994.778-.603M399.864 173.803l-1.731 1.692M400.253 170.924s2.528 1.556 2.236 3.054M402.257 168.046s3.799-.933 4.72.856M378.5 174v-2.667l-2.001-2.517-2.323-.088-2.087-.846M366.938 169.953l3.898 3.512M371.761 171.547l2.315 4.026M374.041 172.218l1.459 2.5v1.282M375.456 171.547l1.265.671.368 2.188M378.5 175v1"/></g></svg>