<svg xmlns="http://www.w3.org/2000/svg" width="800" height="450" viewBox="0 0 800 450"><path d="M-6-1h826v465h-826z"/><path stroke="#fff" stroke-miterlimit="10" fill="none" d="M857.814 488.565l-360.534-260.497.241-137.279 361.06-130.789z"/><g><path d="M539 270h-20v-146.131l20-3.1z"/><path stroke="#fff" stroke-miterlimit="10" fill="none" d="M538.5 258v-137l-20 2.869v120.131"/></g><g><path fill="#D73D3B" d="M546.993 139.436l13.134-1.861.15 32.584-13.769.328z"/><path d="M559.63 138.15l.145 31.521-12.759.305.47-30.105 12.144-1.721m.995-1.15l-14.125 2-.5 32 14.78-.353-.155-33.647z" fill="#fff"/><path fill="#00C166" stroke="#fff" stroke-miterlimit="10" d="M547 139.5h13"/><path fill="#D73D3B" d="M548.392 171.365l12.554-.216 296.679 108.139.44 21.632z"/><path d="M560.861 171.65l296.271 107.99.417 20.521-306.764-128.337 10.076-.174m.169-1.003l-15.03.259 312.581 130.771-.463-22.742-297.088-108.288z" fill="#fff"/></g><path d="M829 94v173.621l-268.47-96.974.095-32.647 268.375-43.593m1-1.176l-.91.188-268.375 43.593-.771.136.025.845-.205 32.647.003.707.669.24 268.472 96.974 1.092.483v-175.813z" fill="#fff"/><path fill="#D73D3B" d="M296 130h127v77h-127z"/><path d="M343.231 318.993c-5.445-2.011-6.978-11.112-6.978-11.112l-3.359-17.058c-3.619-37.044-61.768-42.126-61.768-42.126-14.731-2.067-26.246-14.961-26.246-14.961l1.02.157c19.838 3.038 42.647 6.495 52.363 7.825 18.866 2.585 26.62 3.102 26.62 3.102l176.774 3.877s5.834-2.641 12.823-5.856c0-.001-16.183 15.419-16.183 15.419s2.843.775-15.506 2.843c-18.35 2.067-23.747 16.303-27.395 20.934-2.441 3.099-19.383 40.834-19.383 40.834-48.07 15.507-93.168-3.877-93.168-3.877" stroke="#fff" stroke-miterlimit="10" fill="none"/><g><path stroke="#fff" stroke-miterlimit="10" fill="none" d="M235.5-1v215M480.5-1v222M750.395 237.844M820.058 239.308M-16.958 253.779s-7.238-7.236 244.745-17.918M227.787 249.777s-225.688 13.954-244.745 25.584M-16.958 16.415s131.756 20.933 244.745 23.259M227.787 130.417l-237.273-3.79M228 197.5h-237M238 9.5h21M262 37.5h11M262 138.5h11M262 167.5h11M262 181.5h11M262 208.5h11M276 66.5h12M276 110.5h12M276 152.5h12M276 174.5h12M276 194.5h12M259 80.5h-21M260 123.5h-22M260 152.5h-22M262 194.5h-24M334 123.5h39M334 65.5h39M376 82.5h55M376 110.5h55M376 24.5h55M290 95.5h40M290 37.5h40M434 68.5h18M456 46.5h11M468 24.5h14M465 99.5h14M452 140.5h13M465 125.5h14M465 152.5h14M452 167.5h13M457 189.5h8M465 194.5h14M465 208.5h14"/><path d="M434.5 353.883v-31.013c-48 15.507-92.412-3.877-92.412-3.877l.72 30.497s44.692 26.361 91.692 4.393z" stroke="#fff" stroke-miterlimit="10" fill="none"/><path d="M545.109 222.835s-1.498 5.962-10.199 10.355c-8.701 4.394-33.253 15.507-33.253 15.507l-176.774-3.877s-7.753-.517-26.62-3.102c-18.866-2.584-87.095-13.18-87.095-13.18s-2.908-1.293-2.649-13.181" stroke="#fff" stroke-miterlimit="10"/><path d="M244.88 233.736s11.515 12.894 26.246 14.961M271.126 248.697s58.149 5.082 61.768 42.126M332.894 290.823l3.359 17.058s1.533 9.102 6.978 11.112M436.012 322.87s16.942-37.735 19.383-40.834c3.648-4.631 9.045-18.866 27.395-20.934 18.349-2.067 15.506-2.843 15.506-2.843l16.183-15.42M327.467 290.823c-69.837 0-135.981 2.003-204.325 17.826-23.203 5.372-79.85 18.805-82.44 49.613-3.981 47.345 162.812 52.349 190.502 54.499 61.838 4.801 119.36 3.451 180.999-4.822 44.932-6.029 99.549-11.479 138.496-36.854 64.755-42.187-73.339-73.543-98.921-73.543M338.183 313.739c-1.771-.017-6.342 0-8.132 0-64.611 0-116.988 10.943-116.988 24.442 0 13.5 52.377 24.443 116.988 24.443 13.344 0 31.267-.863 43.213-1.723M373.332 360.781M56 246M227.787 195M227.787 24.848M227.787 127.623M151.732 35.83M153.873 129.272M304.219 362.625l-19.481 52.903M373.264 360.902l84.177 40.761M436.788 349.922l118.983 17.564M559 334.5h-122M439.932 315.03l65.129-7.256M318.852 313.739l8.615-22.916M275.856 316.516l-41.798-23.155M219.253 346.048l-176.575 22.41M215.916 332.795l-155.821-1.261M236.468 323.512l-100.651-17.633M235.5 232v34.5h70.5M482.791 302.194M482.791 261.361" stroke="#fff" stroke-miterlimit="10" fill="none"/><path stroke="#fff" stroke-miterlimit="10" d="M341.035 211.159l-132.516 5.2 111.162 17.72 188.421 2.852 34.647-13.431h-146.537z"/><path d="M-20.446 325.564l7.557 15.229c.823-.408 83-40.711 191.007-54.204l-8.89-15.986c-107.372 14.586-186.277 53.276-189.674 54.961z" stroke="#fff" stroke-miterlimit="10" fill="none"/><path d="M363.168 196.996h-10.383l14.473-46.566h-8.338v6.607h-10.147v-16.046h29.025v8.81l-14.63 47.195z" fill="#fff"/></g><g stroke="#fff" stroke-miterlimit="10"><path d="M630.076 433.445c-7.301-8.143-2.344-34.943-2.344-34.943l7.789-22.648c2.588-7.118 6.979-24.912 6.979-24.912v-5.824l2.379-.617h15.53l9.949-83.889 3.154-5.309-6.309-22.067s8.493-4.36 9.464-3.927c.971.436 5.096-1.887 5.096-1.887l2.184-7.763 1.456-13.346-3.397-10.677-1.941-9.221-3.898-17.229s-1.714-5.824-2.927-8.736l-4.883-6.552-16.805-3.397-9.134-5.338-3.918-4.854v-2.912l2.947-1.092 2.808-5.581 1.465-3.033 2.067-5.945 1.07-7.401-1.356-4.125v-4.854s-3.191-5.217-3.919-7.037l-5.569-4.004c.243-3.883-7.668-3.762-7.668-3.762l-8.626 4.126-7.286 4.61s-4.25 6.309-6.07 9.828c-1.82 3.519-.608 10.798-.608 10.798l1.091 1.577 1.82 9.101 1.456.728 4.61 8.979-1.456 4.854-12.133 7.27s-8.007.252-10.676.009c-2.669-.242-6.309 3.882-6.309 3.882l-7.521 21.241s-3.637 33.354-3.879 38.207c-.243 4.854 5.102 16.495 5.102 16.495l10.203 6.056-6.529 16.964 2.229 5.05-2.093 20.565.384 57.419 4.529 2.265-2.265 14.236s5.177 38.501 7.442 40.767c0 0-7.765 35.271 0 42.711 7.765 7.438 9.383 9.057 9.383 9.057s9.382 3.233 10.353-2.912l.971-6.145s7.844 6.792 10.555 6.792c2.71 0 6.917-.971 6.917-.971s3.07-5.175-1.863-10.677z"/><path d="M607.671 401.42s-2.589-7.769-1.295-15.209c1.294-7.443 4.53-17.857 4.53-17.857l1.618-23.854h5.177s-4.207 15.277-3.236 28.459-2.263 25.231-6.794 28.461z" fill="none"/></g><g stroke="#fff" stroke-miterlimit="10" fill="none"><path d="M615.274 145.164l4.368 8.394-1.132 10.858s7.925 3.396 11.565 3.558c3.641.162 13.024-.97 13.024-.97l-2.912-15.046.233-9.269M618.51 164.416s5.176 56.135 4.529 58.562M643.1 167.004s6.633 28.634 0 55.974M664.777 214.565l4.045-27.664M594.243 180.432l3.398 37.531M650.056 223.625l14.721-9.625M664.777 214s15.369-1.861 15.854 3.963M577.38 226.275s8.29-10.91 14.275-9.126M597.641 217.149l4.045 4.372M590.061 238.323l15.183 4.068 12.134 4.368 18.603 2.103 10.066-5.015 1.259-5.016 19.898-5.596M611.554 232.847l4.853 3.557 4.559-1.779M617.378 232.847l-25.723-2.589-2.103-8.737 44.326 4.207M585.761 260.337l11.88 7.29s13.266 3.074 14.883-2.265c1.618-5.339 4.854-18.604 4.854-18.604M646.047 243.847l9.347 17.795s5.338 8.483 14.964-1.03M588.581 340.586s20.384 4.725 23.943 3.914M617.701 344.5s23.182 1.103 24.799.617M612.5 123v-3.073l1-4.209v-5.497l3.961-3.077s4.991 1.457 6.285-1.294l1.753-2.912v3.4l2.331-.003 3.187 1.617 2.159-2.588 3.102-2.427s9.139 8.662 6.876 19.982M630.834 238.501l10-3.25 2.266-6M637.834 223.625l5.266-.647M643.1 222.978l4.9-.478 2.056 1.125M627 233.251l12.167-4.167M622.167 232.847l-3.083-1.347 1.166-2.249 4.167-1.167 8.667.75"/></g></svg>