<svg xmlns="http://www.w3.org/2000/svg" width="800" height="450" viewBox="0 0 800 450"><path d="M0 0h800v450h-800z"/><g stroke="#fff" stroke-miterlimit="10" fill="none"><path d="M1.042 13.336s517.958 47.885 798.68 23.546M176.5 27v161s-131.5 15.058-177.5 31.529M87.5 200v-47M0 103.5h177.5l.302 42.667-177.802 14.083"/></g><g stroke="#fff" stroke-miterlimit="10"><path d="M216.5 287v24.157c4 32.168 84.981 48.615 181.193 36.735 96.211-11.88 170.807-47.588 166.807-79.756v-21.136" stroke-linejoin="round" fill="none"/><path d="M528.579 213.741c20.789 7.002 33.71 17.039 35.235 29.395 3.973 32.168-70.802 67.876-167.014 79.756-96.212 11.88-177.426-4.567-181.399-36.735-2.772-22.457 32.832-46.639 87.316-63.235" stroke-linejoin="round"/><path d="M506.5 262v-41c-58 26.5-168 19-168 19v49s92 12.012 168-27z" fill="#0ff"/><path d="M457.58 187.862l66.326 15.354c-75.094 39.216-218.679 24.469-218.679 24.469l32.238-25.626c.001 0 91.695 3.666 120.115-14.197z" stroke-linejoin="round" fill="none"/><path d="M305.228 227.685l2.08 68.909s137.693 22.906 216.193-35.594l.406-57.784" fill="none"/><path d="M382.417 206.4M294.5 35v148.5h33v-146.5M328.5 165.91s249.941-1.387 471.221 63.852M327 87s461.443 16.205 472.722 22.603M328.625 137s302.375 11 471.096 50.862M177.802 86.164l117.698 1.277M177.5 173.211s99.5-8.817 118.5-6.264" stroke-linejoin="round" fill="none"/><path stroke-linejoin="round" d="M186.5 96.5v65.5l178-4.533v-60.967z"/></g><path d="M400.777 199.788l9.882-1.535.614 3.953-9.882 1.535z"/><g stroke="#fff" stroke-miterlimit="10"><path d="M414.985 198.394c-.009-1.172-.301.28.427-.664 1.024-1.328 1.26-1.163.977-2.965-.542-3.444-1.281-6.864-1.971-10.282-.529-2.623-.86-5.3-1.288-7.942-.182-1.122.081-2.329-.006-3.463-.195-2.554-1.462-2.515-3.461-3.608-1.28-.699-1.542-1.539-2.495-2.591-1.14-1.26-2.127-2.248-2.411-4.016-.401-2.51-.233-4.959-.401-7.501-.275-4.193-2.621-7.206-7.152-6.182-3.534.798-4.803 3.966-6.025 6.982-.724 1.789-1.1 3.23-1.387 5.144-.191 1.269-1.054 5.32.158 6.027-1.571.892-3.141 1.786-4.722 2.662-1 .553-.934 1.143-1.186 2.277-.954 4.296-1.809 8.617-2.678 12.932-.222 1.104-.681 2.132-.216 3.17.475 1.059-.914 3.928-1.213 5.019l-.554 2.018c-.034.121-.774.093-.897.102-.386.027-.441.576-.707.812-2.013 1.795-2.729 3.568-1.542 4.881"/><path d="M404.525 160.671c-1.088 2.084-2.094 5.018-4.481 6.025-2.46 1.04-5.083-2.174-6-4.129-.292-.624-.466-.175-.91-.695-.572-.673-.881-1.724-.871-2.597.009-.817.792-.922.972-1.544.272-.935.563-1.742 1.194-2.496 1.205-1.441 3.328-3.508 5.357-3.508 1.926 0 4.592 2.07 4.592 4.113M394.87 172.24s1.932 2.187 3.425 2.187l4.749-2.145M402.266 164.838l.364 2.993.548 1.312-.693 16.215.346 8.344M405.581 196.854l4.045-1.402-.71-15.596M389.84 201.5l2.331-3.608.948-11.15.473-10.275M389.785 166.847s-1.622 7.505-.711 8.039l1.676.614h2.698l2.877.021-1.456-3.222M403.178 169.744l2.257.456 1.421-1.348.947-.693M395.222 164.443l.229 3.716s1.931 2.514 1.021 5.101M402.589 195.788c1.025 0 2.571.438 3.582 2.077l2.334 3.635h-6.505M402 199.5h2M400 197.5h3M401 196.5h1M380.001 196.034l.902.765 1.121.464s.683.711.546 1.585c-.137.875-.684 1.666-.684 1.666M378.526 197.674l1.722 1.804M377.788 199.478l1.285 1.037M380.903 198.295l.392.581-.392 1.639M384.477 200.101l3.023-4.649v-11.452" fill="none"/></g><g><path stroke="#fff" stroke-linejoin="round" stroke-miterlimit="10" fill="none" d="M389 205.5h41l-1.334 2h-37.666z"/><path d="M380.903 208.035c0-1.262-1.023-2.41-2.285-2.41-1.262 0-2.285 1.21-2.285 2.473 0 .448.134.402.356 1.402h3.857c.224-1 .357-1.017.357-1.465z" stroke="#fff" stroke-miterlimit="10" fill="none"/></g></svg>