


<svg version="1.1" id="Layer_1" xmlns="http://www.w3.org/2000/svg" xmlns:xlink="http://www.w3.org/1999/xlink" x="0px" y="0px"
	 width="1024px" height="630px" viewBox="0 0 1024 630" enable-background="new 0 0 1024 630" xml:space="preserve">
<g>
	<g>
		<defs>
			<rect id="SVGID_331_" x="25.827" y="26.289" width="972.347" height="577.424"/>
		</defs>
		<clipPath id="SVGID_2_">
			<use xlink:href="#SVGID_331_"  overflow="visible"/>
		</clipPath>
		<g clip-path="url(#SVGID_2_)">
			<defs>
				<rect id="SVGID_333_" x="0.173" y="-1.738" width="1024" height="630"/>
			</defs>
			<clipPath id="SVGID_4_">
				<use xlink:href="#SVGID_333_"  overflow="visible"/>
			</clipPath>
			
				<rect x="146.17" y="195.799" clip-path="url(#SVGID_4_)" fill="none" stroke="#000000" stroke-width="2" stroke-miterlimit="10" width="180" height="403.463"/>
			<rect x="161.17" y="210.799" clip-path="url(#SVGID_4_)" fill="#93A7A1" width="150" height="388.463"/>
			
				<rect x="161.17" y="210.799" clip-path="url(#SVGID_4_)" fill="none" stroke="#000000" stroke-width="2" stroke-miterlimit="10" width="150" height="388.463"/>
			<rect x="171.17" y="220.799" clip-path="url(#SVGID_4_)" fill="#C4DFD7" width="130" height="300.948"/>
			<g clip-path="url(#SVGID_4_)">
				<defs>
					<rect id="SVGID_335_" x="0.173" y="-1.738" width="1024" height="630"/>
				</defs>
				<clipPath id="SVGID_6_">
					<use xlink:href="#SVGID_335_"  overflow="visible"/>
				</clipPath>
				<path clip-path="url(#SVGID_6_)" fill="#93A7A1" d="M252.37,398.506c0-11,5.893-13.197,13.094-4.882l11.313,13.065
					c7.202,8.314,7.202,21.92,0,30.235l-11.313,13.063c-7.201,8.316-13.094,6.119-13.094-4.881V398.506z"/>
				<path clip-path="url(#SVGID_6_)" fill="none" stroke="#000000" stroke-width="2" stroke-miterlimit="10" d="M252.37,398.506
					c0-11,5.893-13.197,13.094-4.882l11.313,13.065c7.202,8.314,7.202,21.92,0,30.235l-11.313,13.063
					c-7.201,8.316-13.094,6.119-13.094-4.881V398.506z"/>
			</g>
			<rect x="356.17" y="195.799" clip-path="url(#SVGID_4_)" fill="#C4DFD7" width="521.734" height="325.948"/>
			
				<rect x="356.17" y="195.799" clip-path="url(#SVGID_4_)" fill="none" stroke="#000000" stroke-width="2" stroke-miterlimit="10" width="521.734" height="325.948"/>
			<polyline clip-path="url(#SVGID_4_)" fill="#C4DFD7" points="877.905,32.289 877.905,164.263 146.171,164.263 146.171,32.289 			
				"/>
			<polyline clip-path="url(#SVGID_4_)" fill="none" stroke="#000000" stroke-width="2" stroke-miterlimit="10" points="
				877.905,32.289 877.905,164.263 146.171,164.263 146.171,32.289 			"/>
			<g clip-path="url(#SVGID_4_)">
				<defs>
					<rect id="SVGID_337_" x="0.173" y="-1.738" width="1024" height="630"/>
				</defs>
				<clipPath id="SVGID_8_">
					<use xlink:href="#SVGID_337_"  overflow="visible"/>
				</clipPath>
				<g opacity="0.3" clip-path="url(#SVGID_8_)">
					<g>
						<defs>
							<rect id="SVGID_339_" x="215.398" y="89.726" width="587.358" height="56.494"/>
						</defs>
						<clipPath id="SVGID_10_">
							<use xlink:href="#SVGID_339_"  overflow="visible"/>
						</clipPath>
						<g clip-path="url(#SVGID_10_)">
							<defs>
								<polygon id="SVGID_341_" points="219.881,131.649 216.662,145.22 786.921,145.22 790.541,131.649 								"/>
							</defs>
							<clipPath id="SVGID_12_">
								<use xlink:href="#SVGID_341_"  overflow="visible"/>
							</clipPath>
							
								<linearGradient id="SVGID_14_" gradientUnits="userSpaceOnUse" x1="3.051758e-04" y1="-5.8843" x2="1.0003" y2="-5.8843" gradientTransform="matrix(573.8789 0 0 -573.8789 216.4844 -3238.3591)">
								<stop  offset="0" style="stop-color:#FFFF29"/>
								<stop  offset="1" style="stop-color:#FFFF3C"/>
							</linearGradient>
							<rect x="216.662" y="131.649" clip-path="url(#SVGID_12_)" fill="url(#SVGID_14_)" width="573.879" height="13.571"/>
						</g>
						<polygon clip-path="url(#SVGID_10_)" fill="none" stroke="#000000" stroke-width="2" stroke-miterlimit="10" points="
							219.881,131.649 216.662,145.22 786.921,145.22 790.541,131.649 						"/>
						<g clip-path="url(#SVGID_10_)">
							<defs>
								<polygon id="SVGID_344_" points="797.835,104.297 801.454,90.726 229.584,90.726 226.365,104.297 								"/>
							</defs>
							<clipPath id="SVGID_16_">
								<use xlink:href="#SVGID_344_"  overflow="visible"/>
							</clipPath>
							
								<linearGradient id="SVGID_18_" gradientUnits="userSpaceOnUse" x1="3.051758e-04" y1="-5.8813" x2="1.0003" y2="-5.8813" gradientTransform="matrix(575.0889 0 0 -575.0889 226.1875 -3285.1436)">
								<stop  offset="0" style="stop-color:#FFFF29"/>
								<stop  offset="1" style="stop-color:#FFFF3C"/>
							</linearGradient>
							<rect x="226.365" y="90.726" clip-path="url(#SVGID_16_)" fill="url(#SVGID_18_)" width="575.089" height="13.571"/>
						</g>
						<polygon clip-path="url(#SVGID_10_)" fill="none" stroke="#000000" stroke-width="2" stroke-miterlimit="10" points="
							797.835,104.297 801.454,90.727 229.584,90.727 226.365,104.297 						"/>
					</g>
				</g>
			</g>
			<g clip-path="url(#SVGID_4_)">
				<defs>
					<polygon id="SVGID_347_" points="270.61,145.22 243.328,145.22 251.827,104.366 238.255,104.366 241.272,90.656 
						254.844,90.656 263.482,49.802 277.192,49.802 268.554,90.656 281.987,90.656 278.972,104.366 265.399,104.366 
						259.641,131.649 273.351,131.649 					"/>
				</defs>
				<clipPath id="SVGID_20_">
					<use xlink:href="#SVGID_347_"  overflow="visible"/>
				</clipPath>
				
					<linearGradient id="SVGID_22_" gradientUnits="userSpaceOnUse" x1="0.0041" y1="-19.2515" x2="1.0041" y2="-19.2515" gradientTransform="matrix(43.7324 0 0 -43.7324 238.0752 -744.4174)">
					<stop  offset="0" style="stop-color:#FFFF29"/>
					<stop  offset="1" style="stop-color:#FFFF3C"/>
				</linearGradient>
				<rect x="238.255" y="49.802" clip-path="url(#SVGID_20_)" fill="url(#SVGID_22_)" width="43.732" height="95.418"/>
			</g>
			<polygon clip-path="url(#SVGID_4_)" fill="none" stroke="#000000" stroke-width="2" stroke-miterlimit="10" points="
				270.61,145.22 243.329,145.22 251.828,104.366 238.256,104.366 241.272,90.656 254.844,90.656 263.482,49.802 277.192,49.802 
				268.554,90.656 281.988,90.656 278.972,104.366 265.399,104.366 259.641,131.649 273.351,131.649 			"/>
			<g clip-path="url(#SVGID_4_)">
				<defs>
					<path id="SVGID_350_" d="M340.8,145.22h-62.104l11.517-54.564h48.394l-3.017,13.71l-26.869,27.283h34.822L340.8,145.22z
						 M319.414,104.366h-18.373l-5.344,24.404L319.414,104.366z"/>
				</defs>
				<clipPath id="SVGID_24_">
					<use xlink:href="#SVGID_350_"  overflow="visible"/>
				</clipPath>
				
					<linearGradient id="SVGID_26_" gradientUnits="userSpaceOnUse" x1="0.0026" y1="-14.5435" x2="1.0026" y2="-14.5435" gradientTransform="matrix(64.8467 0 0 -64.8467 278.5273 -825.2036)">
					<stop  offset="0" style="stop-color:#FFFF29"/>
					<stop  offset="1" style="stop-color:#FFFF3C"/>
				</linearGradient>
				<rect x="278.696" y="90.656" clip-path="url(#SVGID_24_)" fill="url(#SVGID_26_)" width="64.847" height="54.564"/>
			</g>
			<path clip-path="url(#SVGID_4_)" fill="none" stroke="#000000" stroke-width="2" stroke-miterlimit="10" d="M340.801,145.22
				h-62.104l11.517-54.564h48.393l-3.016,13.71l-26.869,27.283h34.822L340.801,145.22z M319.415,104.366h-18.373l-5.344,24.404
				L319.415,104.366z"/>
			<g clip-path="url(#SVGID_4_)">
				<defs>
					<polygon id="SVGID_353_" points="374.249,145.22 346.968,145.22 367.121,49.802 380.694,49.802 363.421,131.649 
						376.992,131.649 					"/>
				</defs>
				<clipPath id="SVGID_28_">
					<use xlink:href="#SVGID_353_"  overflow="visible"/>
				</clipPath>
				
					<linearGradient id="SVGID_30_" gradientUnits="userSpaceOnUse" x1="0.0051" y1="-23.5532" x2="1.0051" y2="-23.5532" gradientTransform="matrix(33.7256 0 0 -33.7256 346.7988 -696.8585)">
					<stop  offset="0" style="stop-color:#FFFF29"/>
					<stop  offset="1" style="stop-color:#FFFF3C"/>
				</linearGradient>
				<rect x="346.968" y="49.802" clip-path="url(#SVGID_28_)" fill="url(#SVGID_30_)" width="33.726" height="95.418"/>
			</g>
			<polygon clip-path="url(#SVGID_4_)" fill="none" stroke="#000000" stroke-width="2" stroke-miterlimit="10" points="
				374.25,145.22 346.969,145.22 367.121,49.802 380.693,49.802 363.422,131.649 376.993,131.649 			"/>
			<g clip-path="url(#SVGID_4_)">
				<defs>
					<path id="SVGID_356_" d="M442.52,145.22h-62.102l11.514-54.564h48.394l-3.015,13.71l-26.867,27.283h34.82L442.52,145.22z
						 M421.134,104.366h-18.372l-5.345,24.404L421.134,104.366z"/>
				</defs>
				<clipPath id="SVGID_32_">
					<use xlink:href="#SVGID_356_"  overflow="visible"/>
				</clipPath>
				
					<linearGradient id="SVGID_34_" gradientUnits="userSpaceOnUse" x1="0.0027" y1="-14.5415" x2="1.0027" y2="-14.5415" gradientTransform="matrix(64.8457 0 0 -64.8457 380.2422 -825.0426)">
					<stop  offset="0" style="stop-color:#FFFF29"/>
					<stop  offset="1" style="stop-color:#FFFF3C"/>
				</linearGradient>
				<rect x="380.418" y="90.656" clip-path="url(#SVGID_32_)" fill="url(#SVGID_34_)" width="64.846" height="54.564"/>
			</g>
			<path clip-path="url(#SVGID_4_)" fill="none" stroke="#000000" stroke-width="2" stroke-miterlimit="10" d="M442.52,145.22
				h-62.102l11.514-54.564h48.394l-3.015,13.71l-26.867,27.283h34.82L442.52,145.22z M421.134,104.366h-18.372l-5.345,24.404
				L421.134,104.366z"/>
			<g clip-path="url(#SVGID_4_)">
				<defs>
					<polygon id="SVGID_359_" points="517.652,90.656 478.988,145.22 465.279,145.22 449.514,90.656 464.596,90.656 
						475.151,128.494 501.473,90.656 					"/>
				</defs>
				<clipPath id="SVGID_36_">
					<use xlink:href="#SVGID_359_"  overflow="visible"/>
				</clipPath>
				
					<linearGradient id="SVGID_38_" gradientUnits="userSpaceOnUse" x1="0.0026" y1="-14.0713" x2="1.0026" y2="-14.0713" gradientTransform="matrix(68.1377 0 0 -68.1377 449.3398 -840.8434)">
					<stop  offset="0" style="stop-color:#FFFF29"/>
					<stop  offset="1" style="stop-color:#FFFF3C"/>
				</linearGradient>
				<rect x="449.514" y="90.656" clip-path="url(#SVGID_36_)" fill="url(#SVGID_38_)" width="68.138" height="54.564"/>
			</g>
			<polygon clip-path="url(#SVGID_4_)" fill="none" stroke="#000000" stroke-width="2" stroke-miterlimit="10" points="
				517.652,90.656 478.989,145.22 465.28,145.22 449.514,90.656 464.596,90.656 475.151,128.495 501.473,90.656 			"/>
			<g clip-path="url(#SVGID_4_)">
				<defs>
					<path id="SVGID_362_" d="M540.953,145.22h-27.281l11.516-54.564h13.709l-8.637,40.993h13.434L540.953,145.22z M541.777,77.084
						h-13.709l2.877-13.572h13.572L541.777,77.084z"/>
				</defs>
				<clipPath id="SVGID_40_">
					<use xlink:href="#SVGID_362_"  overflow="visible"/>
				</clipPath>
				
					<linearGradient id="SVGID_42_" gradientUnits="userSpaceOnUse" x1="0.0059" y1="-25.2935" x2="1.0059" y2="-25.2935" gradientTransform="matrix(30.8447 0 0 -30.8447 513.4912 -675.8201)">
					<stop  offset="0" style="stop-color:#FFFF29"/>
					<stop  offset="1" style="stop-color:#FFFF3C"/>
				</linearGradient>
				<rect x="513.672" y="63.512" clip-path="url(#SVGID_40_)" fill="url(#SVGID_42_)" width="30.845" height="81.708"/>
			</g>
			<path clip-path="url(#SVGID_4_)" fill="none" stroke="#000000" stroke-width="2" stroke-miterlimit="10" d="M540.954,145.221
				h-27.281l11.515-54.565h13.709l-8.637,40.993h13.435L540.954,145.221z M541.778,77.084h-13.71l2.878-13.572h13.571
				L541.778,77.084z"/>
			<g clip-path="url(#SVGID_4_)">
				<defs>
					<polygon id="SVGID_365_" points="601.686,145.22 547.122,145.22 550.001,131.649 590.717,131.649 592.224,124.794 
						551.37,124.794 558.637,90.656 613.065,90.656 610.047,104.366 569.467,104.366 567.959,111.084 608.813,111.084 					"/>
				</defs>
				<clipPath id="SVGID_44_">
					<use xlink:href="#SVGID_365_"  overflow="visible"/>
				</clipPath>
				
					<linearGradient id="SVGID_46_" gradientUnits="userSpaceOnUse" x1="0.0025" y1="-14.3823" x2="1.0025" y2="-14.3823" gradientTransform="matrix(65.9424 0 0 -65.9424 546.9551 -830.4419)">
					<stop  offset="0" style="stop-color:#FFFF29"/>
					<stop  offset="1" style="stop-color:#FFFF3C"/>
				</linearGradient>
				<rect x="547.122" y="90.656" clip-path="url(#SVGID_44_)" fill="url(#SVGID_46_)" width="65.943" height="54.564"/>
			</g>
			<polygon clip-path="url(#SVGID_4_)" fill="none" stroke="#000000" stroke-width="2" stroke-miterlimit="10" points="
				601.686,145.22 547.123,145.22 550.001,131.649 590.717,131.649 592.224,124.794 551.371,124.794 558.637,90.656 613.065,90.656 
				610.047,104.366 569.467,104.366 567.959,111.084 608.813,111.084 			"/>
			<g clip-path="url(#SVGID_4_)">
				<defs>
					<path id="SVGID_368_" d="M641.852,145.22h-27.281l11.515-54.564h13.712l-8.638,40.993h13.435L641.852,145.22z M642.674,77.084
						h-13.707l2.877-13.572h13.571L642.674,77.084z"/>
				</defs>
				<clipPath id="SVGID_48_">
					<use xlink:href="#SVGID_368_"  overflow="visible"/>
				</clipPath>
				
					<linearGradient id="SVGID_50_" gradientUnits="userSpaceOnUse" x1="0.0052" y1="-25.3164" x2="1.0052" y2="-25.3164" gradientTransform="matrix(30.8438 0 0 -30.8438 614.4131 -676.5032)">
					<stop  offset="0" style="stop-color:#FFFF29"/>
					<stop  offset="1" style="stop-color:#FFFF3C"/>
				</linearGradient>
				<rect x="614.571" y="63.512" clip-path="url(#SVGID_48_)" fill="url(#SVGID_50_)" width="30.844" height="81.708"/>
			</g>
			<path clip-path="url(#SVGID_4_)" fill="none" stroke="#000000" stroke-width="2" stroke-miterlimit="10" d="M641.852,145.221
				h-27.281l11.515-54.565h13.712l-8.638,40.993h13.435L641.852,145.221z M642.674,77.084h-13.707l2.877-13.572h13.571
				L642.674,77.084z"/>
			<g clip-path="url(#SVGID_4_)">
				<defs>
					<path id="SVGID_371_" d="M710.123,145.22H648.02l11.516-54.564h48.394l-3.017,13.71l-26.87,27.283h34.822L710.123,145.22z
						 M688.736,104.366h-18.369l-5.347,24.404L688.736,104.366z"/>
				</defs>
				<clipPath id="SVGID_52_">
					<use xlink:href="#SVGID_371_"  overflow="visible"/>
				</clipPath>
				
					<linearGradient id="SVGID_54_" gradientUnits="userSpaceOnUse" x1="0.0027" y1="-14.5415" x2="1.0027" y2="-14.5415" gradientTransform="matrix(64.8457 0 0 -64.8457 647.8438 -825.0426)">
					<stop  offset="0" style="stop-color:#FFFF29"/>
					<stop  offset="1" style="stop-color:#FFFF3C"/>
				</linearGradient>
				<rect x="648.02" y="90.656" clip-path="url(#SVGID_52_)" fill="url(#SVGID_54_)" width="64.845" height="54.564"/>
			</g>
			<path clip-path="url(#SVGID_4_)" fill="none" stroke="#000000" stroke-width="2" stroke-miterlimit="10" d="M710.124,145.22
				H648.02l11.517-54.564h48.393l-3.016,13.71l-26.87,27.283h34.822L710.124,145.22z M688.737,104.366h-18.369l-5.348,24.404
				L688.737,104.366z"/>
			<g clip-path="url(#SVGID_4_)">
				<defs>
					<polygon id="SVGID_374_" points="770.856,145.22 716.291,145.22 719.17,131.649 759.886,131.649 761.395,124.794 
						720.539,124.794 727.807,90.656 782.235,90.656 779.218,104.366 738.638,104.366 737.128,111.084 777.984,111.084 					"/>
				</defs>
				<clipPath id="SVGID_56_">
					<use xlink:href="#SVGID_374_"  overflow="visible"/>
				</clipPath>
				
					<linearGradient id="SVGID_58_" gradientUnits="userSpaceOnUse" x1="0.0024" y1="-14.3843" x2="1.0025" y2="-14.3843" gradientTransform="matrix(65.9434 0 0 -65.9434 716.1309 -830.6029)">
					<stop  offset="0" style="stop-color:#FFFF29"/>
					<stop  offset="1" style="stop-color:#FFFF3C"/>
				</linearGradient>
				<rect x="716.291" y="90.656" clip-path="url(#SVGID_56_)" fill="url(#SVGID_58_)" width="65.944" height="54.564"/>
			</g>
			<polygon clip-path="url(#SVGID_4_)" fill="none" stroke="#000000" stroke-width="2" stroke-miterlimit="10" points="
				770.856,145.22 716.292,145.22 719.17,131.649 759.886,131.649 761.395,124.794 720.54,124.794 727.807,90.656 782.235,90.656 
				779.218,104.366 738.638,104.366 737.128,111.084 777.984,111.084 			"/>
			<polyline clip-path="url(#SVGID_4_)" fill="none" stroke="#000000" stroke-width="2" stroke-miterlimit="10" points="
				28.827,599.802 51.095,599.802 117.169,599.802 			"/>
			<polyline clip-path="url(#SVGID_4_)" fill="none" stroke="#000000" stroke-width="2" stroke-miterlimit="10" points="
				28.827,569.802 51.095,569.802 117.169,569.802 			"/>
			<polyline clip-path="url(#SVGID_4_)" fill="none" stroke="#000000" stroke-width="2" stroke-miterlimit="10" points="
				28.827,539.802 51.095,539.802 117.169,539.802 			"/>
			<polyline clip-path="url(#SVGID_4_)" fill="none" stroke="#000000" stroke-width="2" stroke-miterlimit="10" points="
				28.827,509.802 51.095,509.802 117.169,509.802 			"/>
			<polyline clip-path="url(#SVGID_4_)" fill="none" stroke="#000000" stroke-width="2" stroke-miterlimit="10" points="
				28.827,479.802 51.095,479.802 117.169,479.802 			"/>
			<polyline clip-path="url(#SVGID_4_)" fill="none" stroke="#000000" stroke-width="2" stroke-miterlimit="10" points="
				28.827,449.802 51.095,449.802 117.169,449.802 			"/>
			<polyline clip-path="url(#SVGID_4_)" fill="none" stroke="#000000" stroke-width="2" stroke-miterlimit="10" points="
				28.827,419.802 51.095,419.802 117.169,419.802 			"/>
			<polyline clip-path="url(#SVGID_4_)" fill="none" stroke="#000000" stroke-width="2" stroke-miterlimit="10" points="
				28.827,389.802 51.095,389.802 117.169,389.802 			"/>
			<polyline clip-path="url(#SVGID_4_)" fill="none" stroke="#000000" stroke-width="2" stroke-miterlimit="10" points="
				28.827,359.802 51.095,359.802 117.169,359.802 			"/>
			<polyline clip-path="url(#SVGID_4_)" fill="none" stroke="#000000" stroke-width="2" stroke-miterlimit="10" points="
				28.827,329.802 51.095,329.802 117.169,329.802 			"/>
			<polyline clip-path="url(#SVGID_4_)" fill="none" stroke="#000000" stroke-width="2" stroke-miterlimit="10" points="
				28.827,299.802 51.095,299.802 117.169,299.802 			"/>
			<polyline clip-path="url(#SVGID_4_)" fill="none" stroke="#000000" stroke-width="2" stroke-miterlimit="10" points="
				28.827,269.802 51.095,269.802 117.169,269.802 			"/>
			<polyline clip-path="url(#SVGID_4_)" fill="none" stroke="#000000" stroke-width="2" stroke-miterlimit="10" points="
				28.827,239.802 51.095,239.802 117.169,239.802 			"/>
			<polyline clip-path="url(#SVGID_4_)" fill="none" stroke="#000000" stroke-width="2" stroke-miterlimit="10" points="
				28.827,209.802 51.095,209.802 117.169,209.802 			"/>
			<polyline clip-path="url(#SVGID_4_)" fill="none" stroke="#000000" stroke-width="2" stroke-miterlimit="10" points="
				28.827,179.802 51.095,179.802 117.169,179.802 			"/>
			<polyline clip-path="url(#SVGID_4_)" fill="none" stroke="#000000" stroke-width="2" stroke-miterlimit="10" points="
				28.827,149.802 51.095,149.802 117.169,149.802 			"/>
			<polyline clip-path="url(#SVGID_4_)" fill="none" stroke="#000000" stroke-width="2" stroke-miterlimit="10" points="
				28.827,119.802 51.095,119.802 117.169,119.802 			"/>
			<polyline clip-path="url(#SVGID_4_)" fill="none" stroke="#000000" stroke-width="2" stroke-miterlimit="10" points="
				28.827,89.802 51.095,89.802 117.169,89.802 			"/>
			<polyline clip-path="url(#SVGID_4_)" fill="none" stroke="#000000" stroke-width="2" stroke-miterlimit="10" points="
				28.827,59.802 51.095,59.802 117.169,59.802 			"/>
			<polyline clip-path="url(#SVGID_4_)" fill="none" stroke="#000000" stroke-width="2" stroke-miterlimit="10" points="
				28.827,29.802 51.095,29.802 117.169,29.802 			"/>
			
				<line clip-path="url(#SVGID_4_)" fill="none" stroke="#000000" stroke-width="2" stroke-miterlimit="10" x1="908.923" y1="599.802" x2="995.173" y2="599.802"/>
			
				<line clip-path="url(#SVGID_4_)" fill="none" stroke="#000000" stroke-width="2" stroke-miterlimit="10" x1="908.923" y1="569.802" x2="995.173" y2="569.802"/>
			
				<line clip-path="url(#SVGID_4_)" fill="none" stroke="#000000" stroke-width="2" stroke-miterlimit="10" x1="908.923" y1="539.802" x2="995.173" y2="539.802"/>
			
				<line clip-path="url(#SVGID_4_)" fill="none" stroke="#000000" stroke-width="2" stroke-miterlimit="10" x1="908.923" y1="509.802" x2="995.173" y2="509.802"/>
			
				<line clip-path="url(#SVGID_4_)" fill="none" stroke="#000000" stroke-width="2" stroke-miterlimit="10" x1="908.923" y1="479.802" x2="995.173" y2="479.802"/>
			
				<line clip-path="url(#SVGID_4_)" fill="none" stroke="#000000" stroke-width="2" stroke-miterlimit="10" x1="908.923" y1="449.802" x2="995.173" y2="449.802"/>
			
				<line clip-path="url(#SVGID_4_)" fill="none" stroke="#000000" stroke-width="2" stroke-miterlimit="10" x1="908.923" y1="419.802" x2="995.173" y2="419.802"/>
			
				<line clip-path="url(#SVGID_4_)" fill="none" stroke="#000000" stroke-width="2" stroke-miterlimit="10" x1="908.923" y1="389.802" x2="995.173" y2="389.802"/>
			
				<line clip-path="url(#SVGID_4_)" fill="none" stroke="#000000" stroke-width="2" stroke-miterlimit="10" x1="908.923" y1="359.802" x2="995.173" y2="359.802"/>
			
				<line clip-path="url(#SVGID_4_)" fill="none" stroke="#000000" stroke-width="2" stroke-miterlimit="10" x1="908.923" y1="329.802" x2="995.173" y2="329.802"/>
			
				<line clip-path="url(#SVGID_4_)" fill="none" stroke="#000000" stroke-width="2" stroke-miterlimit="10" x1="908.923" y1="299.802" x2="995.173" y2="299.802"/>
			
				<line clip-path="url(#SVGID_4_)" fill="none" stroke="#000000" stroke-width="2" stroke-miterlimit="10" x1="908.923" y1="269.802" x2="995.173" y2="269.802"/>
			
				<line clip-path="url(#SVGID_4_)" fill="none" stroke="#000000" stroke-width="2" stroke-miterlimit="10" x1="908.923" y1="239.802" x2="995.173" y2="239.802"/>
			
				<line clip-path="url(#SVGID_4_)" fill="none" stroke="#000000" stroke-width="2" stroke-miterlimit="10" x1="908.923" y1="209.802" x2="995.173" y2="209.802"/>
			
				<line clip-path="url(#SVGID_4_)" fill="none" stroke="#000000" stroke-width="2" stroke-miterlimit="10" x1="908.923" y1="179.802" x2="995.173" y2="179.802"/>
			
				<line clip-path="url(#SVGID_4_)" fill="none" stroke="#000000" stroke-width="2" stroke-miterlimit="10" x1="908.923" y1="149.802" x2="995.173" y2="149.802"/>
			
				<line clip-path="url(#SVGID_4_)" fill="none" stroke="#000000" stroke-width="2" stroke-miterlimit="10" x1="908.923" y1="119.802" x2="995.173" y2="119.802"/>
			
				<line clip-path="url(#SVGID_4_)" fill="none" stroke="#000000" stroke-width="2" stroke-miterlimit="10" x1="908.923" y1="89.802" x2="995.173" y2="89.802"/>
			
				<line clip-path="url(#SVGID_4_)" fill="none" stroke="#000000" stroke-width="2" stroke-miterlimit="10" x1="908.923" y1="59.802" x2="995.173" y2="59.802"/>
			
				<line clip-path="url(#SVGID_4_)" fill="none" stroke="#000000" stroke-width="2" stroke-miterlimit="10" x1="908.923" y1="29.802" x2="995.173" y2="29.802"/>
			
				<line clip-path="url(#SVGID_4_)" fill="none" stroke="#000000" stroke-width="2" stroke-miterlimit="10" x1="58.67" y1="539.262" x2="58.67" y2="569.262"/>
			
				<line clip-path="url(#SVGID_4_)" fill="none" stroke="#000000" stroke-width="2" stroke-miterlimit="10" x1="58.67" y1="479.262" x2="58.67" y2="509.262"/>
			
				<line clip-path="url(#SVGID_4_)" fill="none" stroke="#000000" stroke-width="2" stroke-miterlimit="10" x1="58.67" y1="419.262" x2="58.67" y2="449.262"/>
			
				<line clip-path="url(#SVGID_4_)" fill="none" stroke="#000000" stroke-width="2" stroke-miterlimit="10" x1="58.67" y1="359.262" x2="58.67" y2="389.262"/>
			
				<line clip-path="url(#SVGID_4_)" fill="none" stroke="#000000" stroke-width="2" stroke-miterlimit="10" x1="58.67" y1="299.262" x2="58.67" y2="329.262"/>
			
				<line clip-path="url(#SVGID_4_)" fill="none" stroke="#000000" stroke-width="2" stroke-miterlimit="10" x1="58.67" y1="239.262" x2="58.67" y2="269.262"/>
			
				<line clip-path="url(#SVGID_4_)" fill="none" stroke="#000000" stroke-width="2" stroke-miterlimit="10" x1="58.67" y1="179.262" x2="58.67" y2="209.262"/>
			
				<line clip-path="url(#SVGID_4_)" fill="none" stroke="#000000" stroke-width="2" stroke-miterlimit="10" x1="58.67" y1="119.262" x2="58.67" y2="149.262"/>
			
				<line clip-path="url(#SVGID_4_)" fill="none" stroke="#000000" stroke-width="2" stroke-miterlimit="10" x1="58.67" y1="59.262" x2="58.67" y2="89.262"/>
			
				<line clip-path="url(#SVGID_4_)" fill="none" stroke="#000000" stroke-width="2" stroke-miterlimit="10" x1="29.663" y1="570.712" x2="29.663" y2="600.712"/>
			
				<line clip-path="url(#SVGID_4_)" fill="none" stroke="#000000" stroke-width="2" stroke-miterlimit="10" x1="29.663" y1="510.712" x2="29.663" y2="540.712"/>
			
				<line clip-path="url(#SVGID_4_)" fill="none" stroke="#000000" stroke-width="2" stroke-miterlimit="10" x1="29.663" y1="450.712" x2="29.663" y2="480.712"/>
			
				<line clip-path="url(#SVGID_4_)" fill="none" stroke="#000000" stroke-width="2" stroke-miterlimit="10" x1="29.663" y1="390.712" x2="29.663" y2="420.712"/>
			
				<line clip-path="url(#SVGID_4_)" fill="none" stroke="#000000" stroke-width="2" stroke-miterlimit="10" x1="29.663" y1="330.712" x2="29.663" y2="360.712"/>
			
				<line clip-path="url(#SVGID_4_)" fill="none" stroke="#000000" stroke-width="2" stroke-miterlimit="10" x1="29.663" y1="270.712" x2="29.663" y2="300.712"/>
			
				<line clip-path="url(#SVGID_4_)" fill="none" stroke="#000000" stroke-width="2" stroke-miterlimit="10" x1="29.663" y1="210.712" x2="29.663" y2="240.712"/>
			
				<line clip-path="url(#SVGID_4_)" fill="none" stroke="#000000" stroke-width="2" stroke-miterlimit="10" x1="29.663" y1="150.712" x2="29.663" y2="180.712"/>
			
				<line clip-path="url(#SVGID_4_)" fill="none" stroke="#000000" stroke-width="2" stroke-miterlimit="10" x1="29.663" y1="90.712" x2="29.663" y2="120.712"/>
			
				<line clip-path="url(#SVGID_4_)" fill="none" stroke="#000000" stroke-width="2" stroke-miterlimit="10" x1="29.663" y1="30.712" x2="29.663" y2="60.712"/>
			
				<line clip-path="url(#SVGID_4_)" fill="none" stroke="#000000" stroke-width="2" stroke-miterlimit="10" x1="86.663" y1="570.712" x2="86.663" y2="600.712"/>
			
				<line clip-path="url(#SVGID_4_)" fill="none" stroke="#000000" stroke-width="2" stroke-miterlimit="10" x1="86.663" y1="510.712" x2="86.663" y2="540.712"/>
			
				<line clip-path="url(#SVGID_4_)" fill="none" stroke="#000000" stroke-width="2" stroke-miterlimit="10" x1="86.663" y1="450.712" x2="86.663" y2="480.712"/>
			
				<line clip-path="url(#SVGID_4_)" fill="none" stroke="#000000" stroke-width="2" stroke-miterlimit="10" x1="86.663" y1="390.712" x2="86.663" y2="420.712"/>
			
				<line clip-path="url(#SVGID_4_)" fill="none" stroke="#000000" stroke-width="2" stroke-miterlimit="10" x1="86.663" y1="330.712" x2="86.663" y2="360.712"/>
			
				<line clip-path="url(#SVGID_4_)" fill="none" stroke="#000000" stroke-width="2" stroke-miterlimit="10" x1="86.663" y1="270.712" x2="86.663" y2="300.712"/>
			
				<line clip-path="url(#SVGID_4_)" fill="none" stroke="#000000" stroke-width="2" stroke-miterlimit="10" x1="86.663" y1="210.712" x2="86.663" y2="240.712"/>
			
				<line clip-path="url(#SVGID_4_)" fill="none" stroke="#000000" stroke-width="2" stroke-miterlimit="10" x1="86.663" y1="150.712" x2="86.663" y2="180.712"/>
			
				<line clip-path="url(#SVGID_4_)" fill="none" stroke="#000000" stroke-width="2" stroke-miterlimit="10" x1="86.663" y1="90.712" x2="86.663" y2="120.712"/>
			
				<line clip-path="url(#SVGID_4_)" fill="none" stroke="#000000" stroke-width="2" stroke-miterlimit="10" x1="86.663" y1="30.712" x2="86.663" y2="60.712"/>
			
				<line clip-path="url(#SVGID_4_)" fill="none" stroke="#000000" stroke-width="2" stroke-miterlimit="10" x1="966.181" y1="539.262" x2="966.181" y2="569.262"/>
			
				<line clip-path="url(#SVGID_4_)" fill="none" stroke="#000000" stroke-width="2" stroke-miterlimit="10" x1="966.181" y1="479.262" x2="966.181" y2="509.262"/>
			
				<line clip-path="url(#SVGID_4_)" fill="none" stroke="#000000" stroke-width="2" stroke-miterlimit="10" x1="966.181" y1="419.262" x2="966.181" y2="449.262"/>
			
				<line clip-path="url(#SVGID_4_)" fill="none" stroke="#000000" stroke-width="2" stroke-miterlimit="10" x1="966.181" y1="359.262" x2="966.181" y2="389.262"/>
			
				<line clip-path="url(#SVGID_4_)" fill="none" stroke="#000000" stroke-width="2" stroke-miterlimit="10" x1="966.181" y1="299.262" x2="966.181" y2="329.262"/>
			
				<line clip-path="url(#SVGID_4_)" fill="none" stroke="#000000" stroke-width="2" stroke-miterlimit="10" x1="966.181" y1="239.262" x2="966.181" y2="269.262"/>
			
				<line clip-path="url(#SVGID_4_)" fill="none" stroke="#000000" stroke-width="2" stroke-miterlimit="10" x1="966.181" y1="179.262" x2="966.181" y2="209.262"/>
			
				<line clip-path="url(#SVGID_4_)" fill="none" stroke="#000000" stroke-width="2" stroke-miterlimit="10" x1="966.181" y1="119.262" x2="966.181" y2="149.262"/>
			
				<line clip-path="url(#SVGID_4_)" fill="none" stroke="#000000" stroke-width="2" stroke-miterlimit="10" x1="966.181" y1="59.262" x2="966.181" y2="89.262"/>
			
				<line clip-path="url(#SVGID_4_)" fill="none" stroke="#000000" stroke-width="2" stroke-miterlimit="10" x1="937.173" y1="570.712" x2="937.173" y2="600.712"/>
			
				<line clip-path="url(#SVGID_4_)" fill="none" stroke="#000000" stroke-width="2" stroke-miterlimit="10" x1="937.173" y1="510.712" x2="937.173" y2="540.712"/>
			
				<line clip-path="url(#SVGID_4_)" fill="none" stroke="#000000" stroke-width="2" stroke-miterlimit="10" x1="937.173" y1="450.712" x2="937.173" y2="480.712"/>
			
				<line clip-path="url(#SVGID_4_)" fill="none" stroke="#000000" stroke-width="2" stroke-miterlimit="10" x1="937.173" y1="390.712" x2="937.173" y2="420.712"/>
			
				<line clip-path="url(#SVGID_4_)" fill="none" stroke="#000000" stroke-width="2" stroke-miterlimit="10" x1="937.173" y1="330.712" x2="937.173" y2="360.712"/>
			
				<line clip-path="url(#SVGID_4_)" fill="none" stroke="#000000" stroke-width="2" stroke-miterlimit="10" x1="937.173" y1="270.712" x2="937.173" y2="300.712"/>
			
				<line clip-path="url(#SVGID_4_)" fill="none" stroke="#000000" stroke-width="2" stroke-miterlimit="10" x1="937.173" y1="210.712" x2="937.173" y2="240.712"/>
			
				<line clip-path="url(#SVGID_4_)" fill="none" stroke="#000000" stroke-width="2" stroke-miterlimit="10" x1="937.173" y1="150.712" x2="937.173" y2="180.712"/>
			
				<line clip-path="url(#SVGID_4_)" fill="none" stroke="#000000" stroke-width="2" stroke-miterlimit="10" x1="937.173" y1="90.712" x2="937.173" y2="120.712"/>
			
				<line clip-path="url(#SVGID_4_)" fill="none" stroke="#000000" stroke-width="2" stroke-miterlimit="10" x1="937.173" y1="30.712" x2="937.173" y2="60.712"/>
			
				<line clip-path="url(#SVGID_4_)" fill="none" stroke="#000000" stroke-width="2" stroke-miterlimit="10" x1="994.173" y1="570.712" x2="994.173" y2="600.712"/>
			
				<line clip-path="url(#SVGID_4_)" fill="none" stroke="#000000" stroke-width="2" stroke-miterlimit="10" x1="994.173" y1="510.712" x2="994.173" y2="540.712"/>
			
				<line clip-path="url(#SVGID_4_)" fill="none" stroke="#000000" stroke-width="2" stroke-miterlimit="10" x1="994.173" y1="450.712" x2="994.173" y2="480.712"/>
			
				<line clip-path="url(#SVGID_4_)" fill="none" stroke="#000000" stroke-width="2" stroke-miterlimit="10" x1="994.173" y1="390.712" x2="994.173" y2="420.712"/>
			
				<line clip-path="url(#SVGID_4_)" fill="none" stroke="#000000" stroke-width="2" stroke-miterlimit="10" x1="994.173" y1="330.712" x2="994.173" y2="360.712"/>
			
				<line clip-path="url(#SVGID_4_)" fill="none" stroke="#000000" stroke-width="2" stroke-miterlimit="10" x1="994.173" y1="270.712" x2="994.173" y2="300.712"/>
			
				<line clip-path="url(#SVGID_4_)" fill="none" stroke="#000000" stroke-width="2" stroke-miterlimit="10" x1="994.173" y1="210.712" x2="994.173" y2="240.712"/>
			
				<line clip-path="url(#SVGID_4_)" fill="none" stroke="#000000" stroke-width="2" stroke-miterlimit="10" x1="994.173" y1="150.712" x2="994.173" y2="180.712"/>
			
				<line clip-path="url(#SVGID_4_)" fill="none" stroke="#000000" stroke-width="2" stroke-miterlimit="10" x1="994.173" y1="90.712" x2="994.173" y2="120.712"/>
			
				<line clip-path="url(#SVGID_4_)" fill="none" stroke="#000000" stroke-width="2" stroke-miterlimit="10" x1="994.173" y1="30.712" x2="994.173" y2="60.712"/>
			
				<line clip-path="url(#SVGID_4_)" fill="none" stroke="#000000" stroke-width="2" stroke-miterlimit="10" x1="908.173" y1="29.289" x2="908.173" y2="397.397"/>
			
				<line clip-path="url(#SVGID_4_)" fill="none" stroke="#000000" stroke-width="1.871" stroke-miterlimit="10" x1="116.913" y1="344.087" x2="116.913" y2="29.289"/>
			<polygon clip-path="url(#SVGID_4_)" fill="#93A7A1" points="848.424,446.799 848.424,409.848 711.662,409.848 711.662,446.799 
				356.17,446.799 356.17,520.748 878.17,520.748 878.17,446.799 			"/>
			<polygon clip-path="url(#SVGID_4_)" points="468.663,324.799 468.663,437.799 493.663,437.799 493.663,447.799 499.663,447.799 
				499.663,437.799 593.663,437.799 593.663,447.799 599.663,447.799 599.663,437.799 624.663,437.799 624.663,324.799 			"/>
			<polygon clip-path="url(#SVGID_4_)" fill="none" stroke="#000000" stroke-width="2" stroke-miterlimit="10" points="
				468.663,324.799 468.663,437.799 493.663,437.799 493.663,447.799 499.663,447.799 499.663,437.799 593.663,437.799 
				593.663,447.799 599.663,447.799 599.663,437.799 624.663,437.799 624.663,324.799 			"/>
			<rect x="477.662" y="330.799" clip-path="url(#SVGID_4_)" fill="#FFFFFF" width="140" height="99"/>
			
				<rect x="477.662" y="330.799" clip-path="url(#SVGID_4_)" fill="none" stroke="#000000" stroke-width="2" stroke-miterlimit="10" width="140" height="99"/>
			
				<rect x="596.662" y="330.799" clip-path="url(#SVGID_4_)" fill="none" stroke="#000000" stroke-width="2" stroke-miterlimit="10" width="21" height="99"/>
			<g clip-path="url(#SVGID_4_)">
				<defs>
					<rect id="SVGID_377_" x="0.173" y="-1.738" width="1024" height="630"/>
				</defs>
				<clipPath id="SVGID_60_">
					<use xlink:href="#SVGID_377_"  overflow="visible"/>
				</clipPath>
				
					<circle clip-path="url(#SVGID_60_)" fill="none" stroke="#000000" stroke-width="2" stroke-miterlimit="10" cx="607.137" cy="416.399" r="4.742"/>
				<path clip-path="url(#SVGID_60_)" d="M585.677,411.757c-0.308,2.396-2.624,4.673-5.089,5.022
					c-29.137,4.037-57.056,4.037-86.193,0c-2.464-0.35-4.781-2.627-5.088-5.022c-2.726-21.575-2.726-43.409,0-64.984
					c0.307-2.396,2.624-4.672,5.088-5.023c29.137-4.037,57.056-4.037,86.193,0c2.465,0.351,4.781,2.627,5.089,5.023
					C588.403,368.348,588.403,390.181,585.677,411.757"/>
				<polygon clip-path="url(#SVGID_60_)" fill="#FFFFFF" points="512.411,367.454 510.567,367.454 510.567,365.405 516.885,365.405 
					516.885,367.454 515.04,367.454 515.04,376.793 512.411,376.793 				"/>
				<polygon clip-path="url(#SVGID_60_)" fill="#FFFFFF" points="517.619,365.405 522.689,365.405 522.689,367.454 520.249,367.454 
					520.249,369.947 522.502,369.947 522.502,371.893 520.249,371.893 520.249,374.744 522.878,374.744 522.878,376.794 
					517.619,376.794 				"/>
				<polygon clip-path="url(#SVGID_60_)" fill="#FFFFFF" points="523.868,365.405 526.497,365.405 526.497,374.744 529.057,374.744 
					529.057,376.794 523.868,376.794 				"/>
				<polygon clip-path="url(#SVGID_60_)" fill="#FFFFFF" points="529.809,365.405 534.879,365.405 534.879,367.454 532.438,367.454 
					532.438,369.947 534.692,369.947 534.692,371.893 532.438,371.893 532.438,374.744 535.068,374.744 535.068,376.794 
					529.809,376.794 				"/>
				<polygon clip-path="url(#SVGID_60_)" fill="#FFFFFF" points="535.579,365.405 538.277,365.405 539.318,375.411 539.352,375.411 
					540.411,365.405 543.109,365.405 541.573,376.794 537.099,376.794 				"/>
				<rect x="543.844" y="365.405" clip-path="url(#SVGID_60_)" fill="#FFFFFF" width="2.629" height="11.389"/>
				<path clip-path="url(#SVGID_60_)" fill="#FFFFFF" d="M549.939,373.874c0,0.939,0.102,1.092,0.785,1.092
					c0.581,0,0.785-0.17,0.785-0.665v-1.23c0-0.682-0.153-0.818-1.109-1.058c-1.452-0.342-1.759-0.444-2.22-0.802
					c-0.495-0.376-0.683-1.009-0.683-2.306v-0.699c0-2.374,0.581-2.92,3.142-2.92c2.424,0,3.244,0.563,3.244,2.219v1.367h-2.356
					v-0.547c0-1.008-0.052-1.094-0.683-1.094c-0.666,0-0.803,0.155-0.803,0.821v0.751c0,0.7,0.12,0.837,0.974,1.042
					c2.817,0.699,3.124,1.058,3.124,3.619c0,2.749-0.682,3.449-3.312,3.449c-2.681,0-3.33-0.563-3.33-2.92v-0.939h2.442V373.874z"/>
				<rect x="555.147" y="365.405" clip-path="url(#SVGID_60_)" fill="#FFFFFF" width="2.629" height="11.389"/>
				<polygon clip-path="url(#SVGID_60_)" fill="#FFFFFF" points="559.022,365.405 564.092,365.405 564.092,367.454 561.652,367.454 
					561.652,369.947 563.906,369.947 563.906,371.893 561.652,371.893 561.652,374.744 564.281,374.744 564.281,376.794 
					559.022,376.794 				"/>
				<path clip-path="url(#SVGID_60_)" fill="#FFFFFF" d="M512.889,391.208c0,1.775-0.803,2.407-3.091,2.407
					c-2.014,0-2.715-0.529-2.715-2.032v-2.186h2.357v1.742c0,0.324,0.101,0.426,0.409,0.426c0.308,0,0.41-0.102,0.41-0.426v-9.033
					h2.63V391.208z"/>
				<path clip-path="url(#SVGID_60_)" fill="#FFFFFF" d="M513.811,384.327c0-1.689,0.956-2.34,3.414-2.34
					c2.459,0,3.414,0.65,3.414,2.34v6.949c0,1.69-0.955,2.338-3.43,2.338c-2.458,0-3.398-0.647-3.398-2.338V384.327z
					 M517.909,384.463c0-0.393-0.171-0.529-0.684-0.529c-0.511,0-0.682,0.12-0.682,0.529v6.676c0,0.41,0.171,0.529,0.7,0.529
					c0.495,0,0.666-0.137,0.666-0.529V384.463z"/>
				<path clip-path="url(#SVGID_60_)" fill="#FFFFFF" d="M528.323,390.781c0,1.093-0.221,1.812-0.717,2.235
					c-0.477,0.428-1.228,0.599-2.629,0.599c-2.561,0-3.329-0.647-3.329-2.834v-8.674h2.63v8.741c0,0.496,0.221,0.718,0.717,0.718
					c0.477,0,0.699-0.222,0.699-0.718v-8.741h2.629V390.781z"/>
				<path clip-path="url(#SVGID_60_)" fill="#FFFFFF" d="M529.467,382.106h3.262c2.834,0,3.619,0.582,3.619,2.715v1.384
					c0,1.503-0.427,2.05-1.793,2.306v0.033c1.469,0.324,1.793,0.667,1.793,1.861v3.091h-2.629v-3.245
					c0-0.494-0.325-0.682-1.179-0.682h-0.443v3.927h-2.63V382.106z M532.097,387.622h0.513c0.887,0,1.109-0.205,1.109-0.988v-1.727
					c0-0.598-0.256-0.852-0.82-0.852h-0.802V387.622z"/>
				<polygon clip-path="url(#SVGID_60_)" fill="#FFFFFF" points="539.661,384.617 539.627,384.617 539.781,393.496 537.356,393.496 
					537.356,382.107 541.198,382.107 543.128,390.986 543.161,390.952 542.974,382.107 545.415,382.107 545.415,393.496 
					541.573,393.496 				"/>
				<path clip-path="url(#SVGID_60_)" fill="#FFFFFF" d="M547.891,382.108h4.285l1.741,11.387h-2.68l-0.342-2.731h-1.707
					l-0.342,2.731h-2.681L547.891,382.108z M550.059,383.678h-0.035l-0.613,5.139h1.263L550.059,383.678z"/>
				<path clip-path="url(#SVGID_60_)" fill="#FFFFFF" d="M556.069,382.108h4.285l1.742,11.387h-2.681l-0.341-2.731h-1.708
					l-0.341,2.731h-2.681L556.069,382.108z M558.237,383.678h-0.035l-0.613,5.139h1.263L558.237,383.678z"/>
				<polygon clip-path="url(#SVGID_60_)" fill="#FFFFFF" points="562.709,382.107 565.34,382.107 565.34,391.446 567.9,391.446 
					567.9,393.497 562.709,393.497 				"/>
			</g>
			<g clip-path="url(#SVGID_4_)">
				<defs>
					<rect id="SVGID_379_" x="0.173" y="-1.738" width="1024" height="630"/>
				</defs>
				<clipPath id="SVGID_62_">
					<use xlink:href="#SVGID_379_"  overflow="visible"/>
				</clipPath>
				<path clip-path="url(#SVGID_62_)" d="M728.393,408.409c-0.963-0.068-1.73-0.35-2.73-0.79v3.181h112v-3.322
					c-2,0.522-2.368,0.855-3.431,0.932C799.004,410.86,763.618,410.86,728.393,408.409"/>
				<path clip-path="url(#SVGID_62_)" fill="none" stroke="#000000" stroke-width="2" stroke-miterlimit="10" d="M728.393,408.409
					c-0.963-0.068-1.73-0.35-2.73-0.79v3.181h112v-3.322c-2,0.522-2.368,0.855-3.431,0.932
					C799.004,410.86,763.618,410.86,728.393,408.409z"/>
				<path clip-path="url(#SVGID_62_)" d="M840.652,335.376c-0.18-3.552-3.289-6.696-6.862-6.954
					c-35.227-2.451-70.182-2.451-105.409,0c-3.574,0.257-6.682,3.402-6.862,6.954c-1.094,22.013-1.094,44.066,0,66.079
					c0.131,2.594,1.825,4.97,4.122,6.163c0.848,0.44,1.778,0.722,2.74,0.79c35.227,2.451,70.182,2.451,105.409,0
					c1.062-0.076,2.083-0.409,2.999-0.932c2.164-1.232,3.737-3.527,3.863-6.021C841.745,379.441,841.745,357.39,840.652,335.376"/>
				<path clip-path="url(#SVGID_62_)" fill="none" stroke="#000000" stroke-width="2" stroke-miterlimit="10" d="M840.652,335.376
					c-0.18-3.552-3.289-6.696-6.862-6.954c-35.227-2.451-70.182-2.451-105.409,0c-3.574,0.257-6.682,3.402-6.862,6.954
					c-1.094,22.013-1.094,44.066,0,66.079c0.131,2.594,1.825,4.97,4.122,6.163c0.848,0.44,1.778,0.722,2.74,0.79
					c35.227,2.451,70.182,2.451,105.409,0c1.062-0.076,2.083-0.409,2.999-0.932c2.164-1.232,3.737-3.527,3.863-6.021
					C841.745,379.441,841.745,357.39,840.652,335.376z"/>
				<path clip-path="url(#SVGID_62_)" fill="#FFFFFF" d="M834.663,387.913c0,2.146-1.74,3.887-3.887,3.887H732.55
					c-2.147,0-3.887-1.74-3.887-3.887v-50.227c0-2.146,1.74-3.886,3.887-3.886h98.226c2.147,0,3.887,1.74,3.887,3.886V387.913z"/>
				<path clip-path="url(#SVGID_62_)" fill="none" stroke="#000000" stroke-width="2" stroke-miterlimit="10" d="M834.663,387.913
					c0,2.146-1.74,3.887-3.887,3.887H732.55c-2.147,0-3.887-1.74-3.887-3.887v-50.227c0-2.146,1.74-3.886,3.887-3.886h98.226
					c2.147,0,3.887,1.74,3.887,3.886V387.913z"/>
				<path clip-path="url(#SVGID_62_)" d="M827.508,383.9c-0.199,1.556-1.704,3.036-3.307,3.263c-18.931,2.623-37.073,2.623-56.006,0
					c-1.6-0.227-3.106-1.707-3.305-3.263c-1.772-14.02-1.772-28.206,0-42.226c0.199-1.556,1.705-3.036,3.305-3.263
					c18.933-2.623,37.075-2.623,56.006,0c1.603,0.227,3.108,1.707,3.307,3.263C829.279,355.694,829.279,369.879,827.508,383.9"/>
				
					<line clip-path="url(#SVGID_62_)" fill="none" stroke="#000000" stroke-width="2" stroke-miterlimit="10" x1="732.663" y1="367.799" x2="755.663" y2="367.799"/>
				
					<line clip-path="url(#SVGID_62_)" fill="none" stroke="#000000" stroke-width="2" stroke-miterlimit="10" x1="732.663" y1="364.799" x2="755.663" y2="364.799"/>
				
					<line clip-path="url(#SVGID_62_)" fill="none" stroke="#000000" stroke-width="2" stroke-miterlimit="10" x1="732.663" y1="362.799" x2="755.663" y2="362.799"/>
				
					<line clip-path="url(#SVGID_62_)" fill="none" stroke="#000000" stroke-width="2" stroke-miterlimit="10" x1="732.663" y1="360.799" x2="755.663" y2="360.799"/>
				
					<line clip-path="url(#SVGID_62_)" fill="none" stroke="#000000" stroke-width="2" stroke-miterlimit="10" x1="732.663" y1="357.799" x2="755.663" y2="357.799"/>
				
					<line clip-path="url(#SVGID_62_)" fill="none" stroke="#000000" stroke-width="2" stroke-miterlimit="10" x1="732.663" y1="355.799" x2="755.663" y2="355.799"/>
				
					<line clip-path="url(#SVGID_62_)" fill="none" stroke="#000000" stroke-width="2" stroke-miterlimit="10" x1="732.663" y1="352.799" x2="755.663" y2="352.799"/>
				
					<circle clip-path="url(#SVGID_62_)" fill="none" stroke="#000000" stroke-width="2" stroke-miterlimit="10" cx="798.832" cy="400.506" r="4.405"/>
				
					<circle clip-path="url(#SVGID_62_)" fill="none" stroke="#000000" stroke-width="2" stroke-miterlimit="10" cx="763.338" cy="400.506" r="4.405"/>
				
					<circle clip-path="url(#SVGID_62_)" fill="none" stroke="#000000" stroke-width="2" stroke-miterlimit="10" cx="775.17" cy="400.506" r="3.109"/>
				
					<circle clip-path="url(#SVGID_62_)" fill="none" stroke="#000000" stroke-width="2" stroke-miterlimit="10" cx="787.001" cy="400.506" r="3.109"/>
				<polygon clip-path="url(#SVGID_62_)" fill="#FFFFFF" points="779.253,353.292 778.068,353.292 778.068,351.976 782.128,351.976 
					782.128,353.292 780.943,353.292 780.943,359.292 779.253,359.292 				"/>
				<polygon clip-path="url(#SVGID_62_)" fill="#FFFFFF" points="782.6,351.975 785.858,351.975 785.858,353.291 784.289,353.291 
					784.289,354.893 785.737,354.893 785.737,356.143 784.289,356.143 784.289,357.975 785.979,357.975 785.979,359.292 
					782.6,359.292 				"/>
				<polygon clip-path="url(#SVGID_62_)" fill="#FFFFFF" points="786.615,351.975 788.305,351.975 788.305,357.975 789.95,357.975 
					789.95,359.292 786.615,359.292 				"/>
				<polygon clip-path="url(#SVGID_62_)" fill="#FFFFFF" points="790.432,351.975 793.69,351.975 793.69,353.291 792.121,353.291 
					792.121,354.893 793.571,354.893 793.571,356.143 792.121,356.143 792.121,357.975 793.811,357.975 793.811,359.292 
					790.432,359.292 				"/>
				<polygon clip-path="url(#SVGID_62_)" fill="#FFFFFF" points="794.14,351.975 795.873,351.975 796.543,358.404 796.565,358.404 
					797.244,351.975 798.978,351.975 797.991,359.292 795.117,359.292 				"/>
				<rect x="799.449" y="351.975" clip-path="url(#SVGID_62_)" fill="#FFFFFF" width="1.689" height="7.317"/>
				<path clip-path="url(#SVGID_62_)" fill="#FFFFFF" d="M803.366,357.417c0,0.603,0.066,0.701,0.505,0.701
					c0.374,0,0.505-0.109,0.505-0.427v-0.79c0-0.439-0.099-0.527-0.713-0.68c-0.933-0.22-1.13-0.285-1.426-0.515
					c-0.318-0.242-0.439-0.648-0.439-1.482v-0.45c0-1.525,0.373-1.875,2.018-1.875c1.558,0,2.085,0.362,2.085,1.426v0.877h-1.514
					v-0.35c0-0.648-0.033-0.703-0.439-0.703c-0.428,0-0.516,0.098-0.516,0.527v0.483c0,0.449,0.078,0.537,0.625,0.669
					c1.811,0.449,2.008,0.681,2.008,2.325c0,1.767-0.438,2.216-2.128,2.216c-1.722,0-2.139-0.362-2.139-1.876v-0.603h1.568V357.417z
					"/>
				<rect x="806.712" y="351.975" clip-path="url(#SVGID_62_)" fill="#FFFFFF" width="1.69" height="7.317"/>
				<polygon clip-path="url(#SVGID_62_)" fill="#FFFFFF" points="809.202,351.975 812.461,351.975 812.461,353.291 810.893,353.291 
					810.893,354.893 812.341,354.893 812.341,356.143 810.893,356.143 810.893,357.975 812.582,357.975 812.582,359.292 
					809.202,359.292 				"/>
				<path clip-path="url(#SVGID_62_)" fill="#FFFFFF" d="M779.561,368.553c0,1.142-0.516,1.547-1.985,1.547
					c-1.295,0-1.745-0.34-1.745-1.306v-1.403h1.513v1.118c0,0.21,0.067,0.274,0.264,0.274c0.197,0,0.264-0.064,0.264-0.274v-5.803
					h1.689V368.553z"/>
				<path clip-path="url(#SVGID_62_)" fill="#FFFFFF" d="M780.154,364.133c0-1.086,0.614-1.503,2.195-1.503
					c1.579,0,2.193,0.417,2.193,1.503v4.465c0,1.086-0.614,1.502-2.205,1.502c-1.58,0-2.183-0.416-2.183-1.502V364.133z
					 M782.787,364.219c0-0.252-0.11-0.339-0.438-0.339c-0.331,0-0.44,0.077-0.44,0.339v4.29c0,0.264,0.109,0.341,0.449,0.341
					c0.319,0,0.429-0.088,0.429-0.341V364.219z"/>
				<path clip-path="url(#SVGID_62_)" fill="#FFFFFF" d="M789.478,368.28c0,0.701-0.143,1.163-0.46,1.437
					c-0.308,0.274-0.79,0.383-1.689,0.383c-1.647,0-2.14-0.416-2.14-1.82v-5.573h1.689v5.617c0,0.317,0.144,0.46,0.461,0.46
					c0.307,0,0.45-0.143,0.45-0.46v-5.617h1.689V368.28z"/>
				<path clip-path="url(#SVGID_62_)" fill="#FFFFFF" d="M790.214,362.707h2.095c1.821,0,2.325,0.373,2.325,1.743v0.89
					c0,0.965-0.274,1.317-1.151,1.481v0.022c0.943,0.209,1.151,0.429,1.151,1.195v1.986h-1.689v-2.085
					c0-0.317-0.209-0.438-0.757-0.438h-0.285v2.523h-1.689V362.707z M791.903,366.25h0.328c0.571,0,0.714-0.133,0.714-0.637v-1.109
					c0-0.383-0.165-0.547-0.526-0.547h-0.516V366.25z"/>
				<polygon clip-path="url(#SVGID_62_)" fill="#FFFFFF" points="796.762,364.319 796.741,364.319 796.839,370.024 795.282,370.024 
					795.282,362.707 797.749,362.707 798.989,368.411 799.012,368.389 798.891,362.707 800.459,362.707 800.459,370.024 
					797.991,370.024 				"/>
				<path clip-path="url(#SVGID_62_)" fill="#FFFFFF" d="M802.05,362.707h2.754l1.119,7.318H804.2l-0.219-1.756h-1.098l-0.218,1.756
					h-1.723L802.05,362.707z M803.444,363.715h-0.022l-0.395,3.303h0.812L803.444,363.715z"/>
				<path clip-path="url(#SVGID_62_)" fill="#FFFFFF" d="M807.305,362.707h2.753l1.119,7.318h-1.721l-0.22-1.756h-1.097
					l-0.219,1.756h-1.723L807.305,362.707z M808.698,363.715h-0.021l-0.395,3.303h0.812L808.698,363.715z"/>
				<polygon clip-path="url(#SVGID_62_)" fill="#FFFFFF" points="811.572,362.707 813.262,362.707 813.262,368.707 814.908,368.707 
					814.908,370.023 811.572,370.023 				"/>
			</g>
			
				<rect x="195.25" y="324.318" transform="matrix(0.9932 -0.1164 0.1164 0.9932 -38.1873 29.8093)" clip-path="url(#SVGID_4_)" fill="#FFFFFF" width="81.842" height="35.188"/>
			
				<rect x="195.25" y="324.318" transform="matrix(0.9932 -0.1164 0.1164 0.9932 -38.1873 29.8093)" clip-path="url(#SVGID_4_)" fill="none" stroke="#000000" stroke-width="2" stroke-miterlimit="10" width="81.842" height="35.188"/>
			<g clip-path="url(#SVGID_4_)">
				<defs>
					<rect id="SVGID_381_" x="0.173" y="-1.738" width="1024" height="630"/>
				</defs>
				<clipPath id="SVGID_64_">
					<use xlink:href="#SVGID_381_"  overflow="visible"/>
				</clipPath>
				<path clip-path="url(#SVGID_64_)" d="M209.763,348.525c-0.301,0.338-0.623,0.621-0.966,0.847c-0.344,0.228-0.687,0.36-1.029,0.4
					c-0.299,0.035-0.598,0.009-0.896-0.08c-0.299-0.088-0.568-0.234-0.813-0.434c-0.246-0.203-0.453-0.46-0.623-0.771
					c-0.168-0.313-0.276-0.673-0.324-1.085c-0.055-0.467-0.047-0.955,0.027-1.463c0.073-0.507,0.197-1.01,0.373-1.508
					c0.175-0.497,0.396-0.973,0.663-1.428c0.265-0.454,0.566-0.859,0.904-1.215c0.337-0.355,0.701-0.648,1.095-0.881
					c0.392-0.232,0.804-0.374,1.234-0.424c0.143-0.017,0.259-0.001,0.347,0.045c0.087,0.045,0.162,0.101,0.223,0.168
					c0.061,0.065,0.121,0.128,0.179,0.191c0.058,0.063,0.127,0.106,0.204,0.128c0.079,0.022,0.158,0.034,0.238,0.034
					c0.078,0,0.158-0.004,0.239-0.014c0.067-0.007,0.139-0.017,0.209-0.029c0.071-0.012,0.141-0.02,0.21-0.029
					c0.094-0.011,0.182-0.012,0.265-0.002c0.084,0.009,0.161,0.041,0.23,0.096c0.069,0.054,0.128,0.136,0.176,0.245
					c0.046,0.107,0.081,0.258,0.104,0.452c0.019,0.162,0.031,0.381,0.04,0.658c0.007,0.276,0.009,0.586,0.004,0.928
					c-0.004,0.342-0.011,0.704-0.02,1.088c-0.007,0.383-0.02,0.758-0.034,1.127c-0.029,0.875-0.072,1.811-0.125,2.809
					c0.175-0.127,0.362-0.281,0.561-0.464c0.201-0.18,0.419-0.419,0.656-0.712c0.238-0.292,0.498-0.656,0.782-1.09
					c0.285-0.435,0.597-0.972,0.939-1.612l0.692,2.023c-0.09,0.206-0.211,0.421-0.365,0.644c-0.153,0.223-0.326,0.448-0.518,0.677
					c-0.191,0.227-0.392,0.449-0.603,0.667c-0.212,0.217-0.42,0.424-0.625,0.619c-0.483,0.46-1.009,0.913-1.574,1.36
					c-0.041,0.679-0.106,1.345-0.193,1.998c-0.088,0.651-0.211,1.265-0.367,1.843c-0.156,0.577-0.349,1.113-0.579,1.608
					c-0.229,0.494-0.505,0.927-0.823,1.301c-0.32,0.371-0.692,0.674-1.111,0.911c-0.421,0.235-0.899,0.384-1.436,0.447
					c-0.211,0.025-0.443,0.029-0.694,0.017c-0.251-0.016-0.49-0.076-0.714-0.183s-0.418-0.274-0.584-0.501
					c-0.165-0.227-0.273-0.542-0.321-0.947c-0.032-0.281,0.003-0.606,0.106-0.974c0.102-0.37,0.254-0.764,0.457-1.182
					c0.204-0.42,0.453-0.858,0.746-1.319c0.294-0.462,0.617-0.924,0.969-1.389c0.354-0.464,0.727-0.924,1.119-1.381
					c0.392-0.457,0.789-0.896,1.195-1.316L209.763,348.525z M207.235,356.791c0.262-0.031,0.5-0.136,0.716-0.317
					c0.216-0.18,0.407-0.405,0.575-0.678c0.167-0.272,0.313-0.578,0.438-0.913c0.124-0.338,0.229-0.681,0.315-1.028
					c0.085-0.348,0.154-0.686,0.203-1.015c0.05-0.327,0.086-0.62,0.106-0.875c-0.224,0.191-0.448,0.414-0.675,0.667
					c-0.227,0.255-0.444,0.524-0.653,0.812c-0.21,0.286-0.407,0.579-0.589,0.879c-0.184,0.3-0.341,0.584-0.473,0.856
					c-0.133,0.271-0.232,0.522-0.301,0.751c-0.068,0.228-0.093,0.415-0.077,0.559C206.847,356.72,206.985,356.821,207.235,356.791
					 M207.456,346.719c0.019,0.156,0.047,0.307,0.087,0.45c0.038,0.144,0.093,0.271,0.162,0.379
					c0.069,0.108,0.155,0.193,0.258,0.254c0.101,0.062,0.223,0.084,0.367,0.066c0.23-0.026,0.428-0.151,0.591-0.373
					c0.164-0.22,0.298-0.48,0.402-0.776c0.104-0.297,0.181-0.6,0.231-0.908c0.048-0.31,0.074-0.566,0.076-0.768l0.248-2.815
					c-0.257,0.03-0.498,0.123-0.726,0.28c-0.228,0.155-0.437,0.356-0.627,0.598c-0.189,0.244-0.357,0.516-0.506,0.818
					c-0.147,0.302-0.269,0.614-0.364,0.939c-0.095,0.323-0.159,0.645-0.194,0.964C207.427,346.148,207.425,346.446,207.456,346.719"
					/>
				<path clip-path="url(#SVGID_64_)" d="M217.852,348.572c-0.586,0.068-1.112,0.023-1.576-0.138
					c-0.464-0.16-0.864-0.402-1.199-0.727c-0.335-0.322-0.602-0.711-0.803-1.165c-0.203-0.453-0.334-0.939-0.395-1.456
					c-0.041-0.349-0.049-0.723-0.027-1.119c0.023-0.399,0.084-0.791,0.179-1.183c0.097-0.39,0.231-0.768,0.404-1.132
					c0.171-0.365,0.384-0.693,0.636-0.985c0.253-0.291,0.548-0.534,0.882-0.729c0.334-0.193,0.716-0.315,1.147-0.366
					c0.349-0.041,0.68-0.023,0.992,0.055c0.313,0.076,0.592,0.204,0.836,0.38c0.245,0.176,0.445,0.401,0.605,0.672
					c0.158,0.274,0.258,0.586,0.299,0.942c0.046,0.387-0.005,0.784-0.148,1.192c-0.146,0.409-0.366,0.805-0.662,1.187
					c-0.297,0.383-0.662,0.735-1.094,1.056c-0.434,0.323-0.912,0.59-1.437,0.804c0.114,0.157,0.221,0.287,0.325,0.388
					c0.104,0.101,0.206,0.18,0.307,0.229c0.1,0.053,0.203,0.084,0.309,0.097c0.105,0.014,0.218,0.013,0.337-0.001
					c0.374-0.044,0.759-0.165,1.156-0.364c0.396-0.198,0.778-0.432,1.146-0.702c0.366-0.27,0.707-0.558,1.026-0.864
					c0.317-0.305,0.584-0.591,0.799-0.856l1.353,1.11c-0.482,0.632-1.007,1.202-1.573,1.71c-0.245,0.219-0.512,0.437-0.799,0.655
					c-0.287,0.215-0.593,0.414-0.916,0.593c-0.323,0.18-0.662,0.333-1.016,0.461C218.59,348.443,218.226,348.528,217.852,348.572
					 M216.092,344.324c0.227-0.026,0.464-0.112,0.715-0.259c0.251-0.146,0.48-0.323,0.685-0.53c0.207-0.208,0.376-0.427,0.507-0.656
					c0.131-0.231,0.185-0.446,0.161-0.644c-0.033-0.28-0.111-0.506-0.235-0.675c-0.124-0.169-0.261-0.244-0.41-0.227
					c-0.269,0.032-0.492,0.109-0.67,0.23c-0.179,0.123-0.322,0.271-0.431,0.445c-0.109,0.172-0.191,0.366-0.245,0.578
					c-0.055,0.212-0.091,0.423-0.105,0.632c-0.017,0.211-0.02,0.414-0.01,0.608C216.064,344.021,216.076,344.187,216.092,344.324"/>
				<path clip-path="url(#SVGID_64_)" d="M221.328,344.524c0.315-0.339,0.568-0.622,0.763-0.847c0.195-0.225,0.36-0.429,0.498-0.613
					c0.136-0.183,0.258-0.366,0.366-0.548c0.107-0.185,0.235-0.403,0.384-0.653c0.146-0.25,0.325-0.557,0.536-0.921
					c0.21-0.362,0.485-0.816,0.826-1.361c0.068-0.122,0.146-0.241,0.233-0.359c0.087-0.118,0.187-0.226,0.298-0.325
					c0.112-0.096,0.238-0.181,0.377-0.252c0.141-0.07,0.302-0.115,0.482-0.136c0.3-0.035,0.534-0.03,0.705,0.016
					c0.168,0.046,0.297,0.112,0.382,0.197c0.086,0.085,0.14,0.177,0.166,0.28c0.024,0.101,0.041,0.188,0.049,0.264
					c0.017,0.149-0.023,0.321-0.12,0.516c-0.096,0.195-0.207,0.385-0.331,0.569c-0.124,0.185-0.241,0.355-0.352,0.51
					c-0.111,0.156-0.172,0.27-0.184,0.339c0.023,0.194,0.058,0.367,0.105,0.524c0.047,0.156,0.102,0.306,0.166,0.455
					c0.066,0.146,0.133,0.302,0.203,0.468c0.069,0.165,0.141,0.358,0.214,0.578c0.073,0.217,0.141,0.472,0.203,0.761
					c0.062,0.29,0.117,0.635,0.164,1.034c0.207-0.177,0.432-0.34,0.677-0.493c0.244-0.152,0.499-0.309,0.763-0.473
					c0.266-0.163,0.536-0.342,0.814-0.535c0.277-0.195,0.553-0.421,0.826-0.681l0.254,2.094c-0.351,0.345-0.765,0.677-1.242,0.999
					c-0.477,0.32-0.983,0.613-1.518,0.879c-0.534,0.264-1.079,0.488-1.636,0.669c-0.556,0.182-1.091,0.303-1.601,0.364
					c-0.369,0.043-0.715,0.049-1.042,0.017c-0.325-0.031-0.617-0.106-0.873-0.225c-0.258-0.118-0.475-0.285-0.653-0.506
					c-0.177-0.219-0.3-0.495-0.371-0.828c-0.085,0.029-0.17,0.052-0.253,0.067c-0.084,0.017-0.166,0.029-0.247,0.039
					c-0.099,0.012-0.193,0.02-0.282,0.023c-0.088,0.005-0.165-0.01-0.231-0.043c-0.067-0.034-0.125-0.093-0.173-0.179
					c-0.049-0.085-0.081-0.213-0.101-0.381c-0.017-0.15,0.003-0.293,0.064-0.43c0.058-0.136,0.134-0.26,0.221-0.372
					c0.087-0.111,0.176-0.211,0.268-0.297C221.217,344.643,221.284,344.575,221.328,344.524 M222.667,345.583
					c0.074-0.009,0.162,0.027,0.263,0.11s0.218,0.174,0.349,0.272c0.132,0.098,0.282,0.185,0.448,0.26
					c0.168,0.076,0.35,0.101,0.549,0.078c0.244-0.029,0.439-0.092,0.589-0.192c0.15-0.099,0.263-0.221,0.341-0.367
					c0.078-0.144,0.124-0.308,0.142-0.49c0.016-0.183,0.013-0.37-0.009-0.563c-0.02-0.169-0.051-0.338-0.094-0.51
					c-0.041-0.171-0.09-0.335-0.143-0.491c-0.052-0.155-0.108-0.299-0.164-0.436c-0.056-0.135-0.107-0.25-0.15-0.347
					L222.667,345.583z"/>
				<path clip-path="url(#SVGID_64_)" d="M232.22,346.888c-0.337,0.04-0.668-0.072-0.993-0.333c-0.323-0.263-0.623-0.63-0.895-1.105
					c-0.275-0.473-0.511-1.03-0.709-1.674c-0.199-0.642-0.339-1.326-0.424-2.049c-0.066-0.554-0.096-1.163-0.09-1.823
					c0.004-0.661,0.043-1.347,0.118-2.056c0.074-0.71,0.18-1.426,0.312-2.15c0.133-0.724,0.298-1.422,0.494-2.095
					c0.196-0.673,0.42-1.308,0.673-1.904c0.252-0.595,0.527-1.119,0.829-1.575c0.3-0.455,0.627-0.822,0.979-1.106
					c0.353-0.28,0.725-0.444,1.117-0.49c0.268-0.031,0.496,0.003,0.686,0.105c0.187,0.101,0.344,0.246,0.467,0.432
					c0.123,0.189,0.219,0.406,0.29,0.654c0.07,0.248,0.121,0.502,0.151,0.763c0.069,0.586,0.071,1.192,0.008,1.815
					c-0.063,0.623-0.172,1.255-0.327,1.896c-0.155,0.64-0.347,1.286-0.574,1.939c-0.225,0.651-0.466,1.3-0.719,1.946
					c-0.253,0.646-0.508,1.282-0.767,1.909c-0.258,0.627-0.498,1.238-0.719,1.832c-0.022,0.067-0.045,0.152-0.068,0.255
					c-0.023,0.104-0.045,0.215-0.061,0.334c-0.018,0.119-0.035,0.246-0.05,0.381c-0.016,0.135-0.026,0.266-0.03,0.391l0.015,0.131
					c0.02,0.162,0.055,0.318,0.107,0.467c0.051,0.149,0.11,0.28,0.174,0.397c0.064,0.115,0.128,0.206,0.194,0.27
					c0.064,0.065,0.121,0.095,0.171,0.089c0.119-0.015,0.251-0.055,0.398-0.122c0.147-0.067,0.3-0.154,0.462-0.258
					c0.162-0.104,0.326-0.222,0.494-0.352c0.168-0.13,0.33-0.26,0.484-0.394c0.363-0.308,0.739-0.657,1.128-1.051l0.997,1.873
					c-0.507,0.464-1.014,0.885-1.52,1.259c-0.222,0.158-0.451,0.317-0.69,0.475c-0.236,0.157-0.476,0.3-0.72,0.429
					c-0.244,0.131-0.485,0.239-0.72,0.327C232.656,346.807,232.431,346.863,232.22,346.888 M231.353,339.409
					c0.222-0.531,0.453-1.128,0.694-1.787c0.243-0.66,0.465-1.338,0.667-2.03c0.204-0.695,0.37-1.381,0.498-2.063
					c0.129-0.682,0.189-1.308,0.178-1.884c-0.021-0.179-0.044-0.334-0.068-0.46c-0.024-0.127-0.062-0.188-0.112-0.182
					c-0.18,0.021-0.361,0.161-0.543,0.42c-0.181,0.257-0.353,0.598-0.514,1.022c-0.162,0.422-0.308,0.91-0.436,1.462
					c-0.128,0.552-0.232,1.137-0.311,1.752c-0.079,0.615-0.126,1.246-0.138,1.888C231.253,338.19,231.284,338.811,231.353,339.409"
					/>
				<path clip-path="url(#SVGID_64_)" d="M240.43,338.828c0.223,0.342,0.403,0.706,0.541,1.098c0.137,0.391,0.227,0.771,0.27,1.138
					c0.044,0.368,0.047,0.744,0.01,1.127c-0.037,0.384-0.113,0.758-0.224,1.126c-0.112,0.367-0.262,0.716-0.446,1.047
					c-0.186,0.332-0.408,0.626-0.664,0.883c-0.258,0.259-0.547,0.472-0.868,0.643c-0.321,0.17-0.671,0.277-1.052,0.322
					c-0.548,0.063-1.033-0.001-1.45-0.195c-0.417-0.195-0.773-0.47-1.067-0.829c-0.295-0.356-0.528-0.771-0.7-1.244
					c-0.173-0.471-0.288-0.958-0.346-1.456c-0.081-0.686-0.054-1.339,0.083-1.957c0.136-0.62,0.37-1.171,0.702-1.655
					c0.331-0.484,0.76-0.885,1.285-1.203c0.525-0.318,1.133-0.516,1.826-0.597c0.591-0.069,1.157-0.044,1.695,0.08
					c0.539,0.123,1.052,0.313,1.54,0.569c0.488,0.254,0.951,0.559,1.387,0.912c0.436,0.353,0.847,0.722,1.233,1.106l-0.022,1.339
					c-0.196-0.204-0.451-0.421-0.769-0.647c-0.317-0.23-0.651-0.451-1-0.662c-0.35-0.211-0.694-0.41-1.033-0.593
					c-0.337-0.186-0.627-0.34-0.868-0.463L240.43,338.828z M238.151,344.375c0.212-0.025,0.406-0.157,0.579-0.396
					c0.175-0.239,0.317-0.53,0.429-0.875c0.111-0.344,0.189-0.719,0.232-1.126c0.045-0.406,0.045-0.79,0.003-1.152
					c-0.034-0.286-0.088-0.551-0.159-0.792c-0.073-0.24-0.162-0.446-0.272-0.617c-0.108-0.171-0.237-0.301-0.387-0.391
					c-0.149-0.088-0.321-0.123-0.514-0.1c-0.255,0.029-0.486,0.168-0.69,0.412c-0.204,0.246-0.375,0.549-0.51,0.908
					c-0.134,0.36-0.227,0.752-0.279,1.175c-0.052,0.423-0.055,0.825-0.01,1.204c0.03,0.262,0.084,0.506,0.161,0.73
					c0.076,0.226,0.178,0.417,0.304,0.577c0.126,0.158,0.282,0.278,0.469,0.361C237.693,344.375,237.908,344.402,238.151,344.375"/>
				<path clip-path="url(#SVGID_64_)" d="M251.203,342.54c-0.557,0.419-1.054,0.787-1.491,1.104
					c-0.437,0.315-0.826,0.583-1.17,0.801c-0.344,0.216-0.653,0.386-0.927,0.507c-0.272,0.12-0.524,0.194-0.756,0.22
					c-0.473,0.056-0.909-0.039-1.303-0.283c-0.395-0.244-0.746-0.622-1.051-1.132c-0.307-0.512-0.567-1.142-0.778-1.895
					c-0.211-0.751-0.373-1.608-0.485-2.567c-0.044-0.375-0.075-0.775-0.094-1.203c-0.018-0.427-0.023-0.853-0.016-1.276
					c-0.191-0.004-0.337-0.011-0.444-0.02c-0.104-0.011-0.216-0.018-0.334-0.027c-0.118-0.008-0.267-0.015-0.447-0.019
					c-0.181-0.005-0.441-0.005-0.782-0.003c-0.154-0.002-0.272-0.024-0.36-0.066c-0.086-0.045-0.154-0.1-0.198-0.167
					c-0.047-0.067-0.077-0.14-0.093-0.216c-0.015-0.078-0.026-0.144-0.033-0.201c-0.014-0.124,0.035-0.226,0.15-0.307
					c0.113-0.08,0.263-0.145,0.451-0.199c0.185-0.054,0.392-0.096,0.619-0.125c0.227-0.029,0.445-0.054,0.655-0.072
					c0.209-0.019,0.398-0.035,0.563-0.052c0.165-0.015,0.279-0.034,0.339-0.054c0.07-0.861,0.189-1.701,0.354-2.52
					c0.166-0.817,0.374-1.553,0.624-2.204c0.248-0.652,0.541-1.186,0.877-1.6c0.338-0.416,0.715-0.648,1.133-0.697
					c0.267-0.031,0.519,0.016,0.759,0.139c0.238,0.124,0.451,0.3,0.635,0.532c0.186,0.231,0.34,0.508,0.462,0.832
					c0.124,0.323,0.206,0.666,0.248,1.027c0.036,0.306,0.031,0.633-0.017,0.983c-0.047,0.349-0.124,0.71-0.233,1.079
					c-0.108,0.37-0.243,0.747-0.402,1.134c-0.16,0.383-0.331,0.767-0.516,1.149c0.058-0.001,0.152-0.008,0.284-0.02
					c0.13-0.011,0.282-0.025,0.455-0.039c0.172-0.013,0.357-0.027,0.558-0.041c0.201-0.013,0.394-0.028,0.582-0.045
					c0.189-0.015,0.364-0.029,0.526-0.043c0.163-0.012,0.298-0.022,0.404-0.028c0.126-0.009,0.224,0.043,0.294,0.154
					c0.069,0.113,0.114,0.259,0.136,0.44c0.025,0.218-0.017,0.403-0.124,0.555c-0.11,0.152-0.238,0.236-0.387,0.253l-3.59,0.421
					c-0.152,0.271-0.306,0.537-0.461,0.799c-0.157,0.261-0.301,0.497-0.432,0.709c0.019,0.389,0.042,0.772,0.067,1.149
					c0.013,0.162,0.025,0.33,0.039,0.502c0.014,0.171,0.027,0.341,0.042,0.511c0.014,0.169,0.027,0.331,0.043,0.489
					c0.016,0.154,0.03,0.297,0.046,0.429c0.039,0.336,0.102,0.616,0.193,0.84c0.089,0.224,0.201,0.401,0.336,0.534
					c0.136,0.132,0.294,0.221,0.473,0.266c0.179,0.046,0.374,0.057,0.586,0.031c0.131-0.014,0.292-0.065,0.48-0.151
					c0.189-0.084,0.395-0.197,0.614-0.332c0.221-0.137,0.454-0.295,0.694-0.475c0.241-0.181,0.477-0.373,0.709-0.581
					c0.232-0.206,0.451-0.422,0.659-0.645c0.207-0.223,0.393-0.449,0.555-0.677L251.203,342.54z M246.825,331.056
					c-0.008-0.068-0.021-0.144-0.04-0.228c-0.02-0.083-0.05-0.159-0.09-0.231c-0.039-0.071-0.095-0.127-0.165-0.169
					c-0.072-0.042-0.167-0.056-0.285-0.042c-0.162,0.019-0.309,0.181-0.441,0.487c-0.131,0.307-0.248,0.691-0.348,1.154
					c-0.101,0.464-0.186,0.97-0.257,1.522c-0.072,0.553-0.133,1.086-0.186,1.606c0.094,0.002,0.19,0.001,0.284,0
					c0.093-0.002,0.193-0.003,0.294-0.003c0.15-0.338,0.303-0.705,0.463-1.101c0.159-0.394,0.298-0.78,0.418-1.157
					c0.121-0.378,0.215-0.729,0.284-1.053C246.826,331.517,246.848,331.255,246.825,331.056"/>
				<path clip-path="url(#SVGID_64_)" d="M254.319,344.298c-0.586,0.068-1.111,0.023-1.574-0.139
					c-0.465-0.159-0.866-0.401-1.201-0.726c-0.335-0.322-0.602-0.711-0.803-1.165c-0.202-0.453-0.333-0.939-0.394-1.456
					c-0.041-0.349-0.05-0.723-0.027-1.119c0.022-0.399,0.083-0.791,0.179-1.183c0.097-0.39,0.23-0.768,0.403-1.132
					c0.171-0.365,0.386-0.693,0.638-0.985c0.253-0.291,0.546-0.534,0.88-0.729c0.335-0.193,0.717-0.315,1.148-0.366
					c0.348-0.041,0.68-0.023,0.991,0.055c0.313,0.076,0.592,0.204,0.836,0.38c0.245,0.176,0.446,0.401,0.605,0.672
					c0.158,0.274,0.259,0.586,0.3,0.942c0.046,0.387-0.006,0.784-0.149,1.192c-0.146,0.409-0.365,0.805-0.662,1.187
					c-0.297,0.383-0.662,0.735-1.093,1.056c-0.434,0.323-0.913,0.59-1.438,0.804c0.114,0.157,0.222,0.287,0.325,0.388
					c0.105,0.101,0.206,0.18,0.307,0.229c0.101,0.053,0.203,0.084,0.309,0.097c0.105,0.014,0.219,0.013,0.338-0.001
					c0.373-0.044,0.758-0.165,1.156-0.364c0.397-0.198,0.777-0.432,1.145-0.702c0.366-0.27,0.709-0.558,1.026-0.864
					c0.318-0.306,0.585-0.591,0.799-0.856l1.354,1.11c-0.483,0.632-1.007,1.202-1.573,1.71c-0.245,0.219-0.512,0.437-0.8,0.655
					c-0.287,0.215-0.593,0.414-0.915,0.593c-0.324,0.18-0.663,0.333-1.017,0.461C255.058,344.169,254.693,344.254,254.319,344.298
					 M252.561,340.05c0.225-0.026,0.462-0.112,0.713-0.259c0.252-0.146,0.48-0.323,0.685-0.53c0.208-0.208,0.376-0.427,0.507-0.656
					c0.131-0.231,0.186-0.446,0.162-0.645c-0.033-0.279-0.112-0.505-0.235-0.674c-0.125-0.169-0.262-0.244-0.411-0.227
					c-0.269,0.032-0.491,0.109-0.67,0.23c-0.179,0.123-0.321,0.271-0.431,0.445c-0.109,0.172-0.191,0.366-0.244,0.578
					c-0.055,0.211-0.09,0.423-0.106,0.632c-0.017,0.211-0.02,0.414-0.01,0.608C252.532,339.748,252.544,339.913,252.561,340.05"/>
				<path clip-path="url(#SVGID_64_)" d="M258.287,341.853c-0.048-0.411-0.079-0.89-0.092-1.435c-0.012-0.545-0.015-1.1-0.005-1.667
					c0.009-0.566,0.03-1.114,0.063-1.641c0.032-0.529,0.071-0.982,0.115-1.361c0.035-0.293,0.14-0.548,0.313-0.766
					c0.173-0.216,0.429-0.343,0.766-0.382c0.336-0.04,0.582,0.035,0.737,0.226c0.155,0.19,0.251,0.456,0.292,0.799
					c0.011,0.093,0.017,0.22,0.016,0.381c0.001,0.161-0.002,0.339-0.008,0.534c-0.006,0.192-0.013,0.392-0.02,0.598
					s-0.015,0.398-0.023,0.571c-0.008,0.174-0.013,0.327-0.016,0.456c-0.005,0.132-0.004,0.218,0.002,0.262l0.185-0.022
					c0.029-0.074,0.076-0.191,0.14-0.353c0.062-0.163,0.135-0.349,0.218-0.561c0.083-0.211,0.171-0.435,0.267-0.671
					c0.096-0.235,0.185-0.461,0.267-0.676c0.082-0.214,0.157-0.405,0.227-0.571c0.069-0.166,0.119-0.289,0.155-0.369
					c0.161-0.36,0.36-0.617,0.601-0.772c0.241-0.154,0.519-0.25,0.829-0.286c0.312-0.036,0.575,0.064,0.789,0.305
					c0.215,0.24,0.35,0.591,0.404,1.052c0.007,0.069,0.007,0.186-0.001,0.351c-0.01,0.165-0.024,0.363-0.041,0.592
					c-0.017,0.23-0.035,0.482-0.058,0.756c-0.021,0.274-0.037,0.553-0.049,0.839c-0.01,0.286-0.013,0.567-0.01,0.844
					c0.004,0.279,0.02,0.533,0.046,0.763c0.046,0.387,0.132,0.699,0.258,0.936c0.126,0.24,0.291,0.345,0.496,0.322
					c0.095-0.012,0.199-0.052,0.314-0.123c0.115-0.07,0.237-0.159,0.367-0.265c0.129-0.107,0.261-0.228,0.393-0.364
					c0.132-0.135,0.263-0.274,0.392-0.415c0.297-0.332,0.603-0.702,0.922-1.113l0.404,2.076l-0.426,0.41
					c-0.233,0.222-0.47,0.447-0.712,0.67c-0.244,0.224-0.498,0.43-0.768,0.617c-0.269,0.186-0.553,0.346-0.853,0.478
					c-0.3,0.133-0.622,0.22-0.964,0.26c-0.343,0.04-0.661-0.173-0.953-0.641c-0.292-0.468-0.493-1.179-0.604-2.133
					c-0.044-0.374-0.066-0.781-0.067-1.219c-0.002-0.439,0.007-0.913,0.023-1.42l-0.149,0.018l-1.881,5.148
					c-0.094,0.27-0.214,0.461-0.359,0.572c-0.145,0.113-0.319,0.18-0.525,0.204c-0.256,0.031-0.469-0.001-0.637-0.091
					c-0.168-0.09-0.306-0.223-0.411-0.398c-0.105-0.173-0.186-0.375-0.242-0.605C258.358,342.342,258.316,342.102,258.287,341.853"
					/>
				<polyline clip-path="url(#SVGID_64_)" fill="none" stroke="#000000" stroke-width="2" stroke-miterlimit="10" points="
					197.621,328.482 227.671,289.669 267.208,320.267 				"/>
				<path clip-path="url(#SVGID_64_)" fill="#404040" d="M232.415,289.206c0,2.075-1.682,3.756-3.756,3.756
					c-2.075,0-3.756-1.681-3.756-3.756c0-2.073,1.681-3.756,3.756-3.756C230.732,285.45,232.415,287.133,232.415,289.206"/>
				
					<circle clip-path="url(#SVGID_64_)" fill="none" stroke="#000000" stroke-width="2" stroke-miterlimit="10" cx="228.659" cy="289.206" r="3.756"/>
			</g>
			<g clip-path="url(#SVGID_4_)">
				<defs>
					<rect id="SVGID_383_" x="0.173" y="-1.738" width="1024" height="630"/>
				</defs>
				<clipPath id="SVGID_66_">
					<use xlink:href="#SVGID_383_"  overflow="visible"/>
				</clipPath>
				<path clip-path="url(#SVGID_66_)" d="M963.929,584.85c-3.127-6.985-10.141-11.892-18.256-11.892h-30.589
					c-0.709-2.932-1.734-7.271-3.12-13.396c-0.604-2.675-0.628-8.3-0.514-13.04c15.775-8.724,25.302-30.726,29.82-57.67
					c1.104-6.586,1.184-12.98,0.379-19.01c1.516-3.512,2.343-7.254,2.343-11.141c0-20.121-21.946-36.432-49.017-36.432
					c-27.072,0-49.019,16.311-49.019,36.432c0,4.449,1.077,8.711,3.041,12.651c-0.716,5.543-0.769,11.412-0.077,17.499
					c2.961,26.011,13.419,48.228,29.74,57.317c-0.15,4.873-0.394,10.826-0.74,13.671c-0.336,2.765-1.586,8.771-2.528,13.118h-29.045
					c-3.063-7.137-10.166-12.17-18.391-12.17h-30.589c-0.71-2.932-1.734-7.271-3.12-13.396c-0.606-2.676-0.63-8.3-0.515-13.041
					c15.774-8.722,25.303-30.725,29.82-57.668c0.057-0.338,0.095-0.671,0.146-1.008c2.603-1.957,4.294-5.061,4.294-8.568
					c0-2.691-0.998-5.144-2.634-7.027c1.657-2.023,2.653-4.609,2.653-7.43c0-4.91-3.015-9.111-7.292-10.865
					c1.183-1.799,1.876-3.951,1.876-6.265c0-6.312-5.115-11.426-11.426-11.426c-0.053,0-0.106,0.007-0.161,0.008
					c-0.333-6.724-5.875-12.078-12.682-12.078c-1.945,0-3.782,0.45-5.431,1.231c-1.186-2.499-3.725-4.231-6.674-4.231
					c-1.453,0-2.804,0.425-3.945,1.149c-1.692-1.077-3.693-1.71-5.846-1.71c-2.049,0-3.958,0.575-5.596,1.559
					c-1.533-0.981-3.351-1.559-5.306-1.559c-4.956,0-9.046,3.657-9.748,8.417c-1.77-0.928-3.782-1.461-5.919-1.461
					c-7.054,0-12.773,5.72-12.773,12.773c0,1.262,0.191,2.48,0.531,3.633c-0.176-0.009-0.351-0.027-0.531-0.027
					c-6.31,0-11.426,5.115-11.426,11.426c0,2.207,0.637,4.262,1.72,6.008c-1.702,1.898-2.747,4.399-2.747,7.15
					c0,1.926,0.514,3.729,1.402,5.29c-3.211,2.096-5.338,5.716-5.338,9.837c0,6.378,5.087,11.557,11.424,11.727
					c3.864,23.146,13.888,42.448,28.821,50.763c-0.152,4.873-0.395,10.83-0.741,13.672c-0.336,2.765-1.586,8.77-2.528,13.117
					h-30.377c-11,0-20,9-20,20v1.599c-2.89-1.627-6.212-2.565-9.746-2.565h-30.59c-0.71-2.932-1.733-7.271-3.119-13.397
					c-0.606-2.675-0.63-8.3-0.516-13.039c10.487-5.8,18.212-17.466,23.539-32.556c11.351,13.478,22.323,16.013,23.035,16.164
					l3.33-15.65l0.158,0.035c-0.584-0.149-11.392-3.166-21.128-20.806c0.312-1.602,0.612-3.217,0.887-4.856
					c5.521-32.929-14.156-61.263-45.717-61.263c-28.669,0-46.911,22.561-47.124,52.117c-10.518,25.293-24.568,29.216-25.236,29.388
					l0.158-0.037l3.33,15.652c0.76-0.162,13.218-3.043,25.346-19.062c4.838,18.508,13.968,33.468,26.634,40.522
					c-0.151,4.873-0.395,10.826-0.741,13.67c-0.336,2.763-1.586,8.77-2.528,13.117h-30.376c-5.042,0-9.641,1.918-13.167,5.028
					h-0.598v-0.783c0-11-9-20-20-20h-38.537c-0.82-3.393-2.008-8.422-3.61-15.502c-0.832-3.678-0.714-12.177-0.507-18.05
					c12.488-9.771,20.817-28.144,25.658-50.562l9.025,14.36c2.078-22.114-1.558-42.228-9.712-57.421
					c-7.032-20.068-24.114-34.02-46.964-34.02c-19.091,0-33.907,9.396-42.541,24.19c-11.099,15.71-16.379,38.661-13.97,64.31
					l7.396-11.769c4.634,25.644,16.117,46.689,33.036,54.872c-0.178,5.335-0.446,11.392-0.814,14.411
					c-0.388,3.197-1.834,10.148-2.924,15.179h-38.29c-11,0-20,9-20,20v0.783h-10.001v-6.062c0-11-9-20-20-20h-17.81
					c0,0-3.567-15.683-4.213-20.998c-0.203-1.67-0.375-4.265-0.519-7.152c0.724-0.239,1.451-0.496,2.182-0.785
					c9.144-3.613,15.05-5.747,19.853-15.277c3.959-7.856,8.491-16.341,9.671-26.825c0.834-7.406,1.994-9.313,1.505-17.496
					c-0.176-2.955,8.57-1.938,8.232-4.955c-0.727-6.492-7.913-16.994-8.528-20.523c-1.17-6.715-2.947-13.005-5.225-18.794
					l8.763,3.691c-10.549-24.271-27.169-38.577-45.002-40.938c-8.632-2.488-17.982-2.176-27.497,1.584
					c-10.342,4.086-18.417,11.217-24.062,20.217c-15.852,21.363-18.273,54.028-4.88,83.974l3.627-12.597
					c7.072,15.545,14.768,28.086,23.134,36.782c0.054,8.182-0.062,16.19-0.646,18.772c-3.547,15.669-5.063,21.321-5.063,21.321
					h-37.043c-11,0-20,9-20,20v6.062h-9.758v-7.647c0-11-9-20-20-20h-38.537c-0.82-3.393-2.007-8.422-3.609-15.5
					c-0.701-3.096-0.728-9.604-0.596-15.09c17.515-9.686,28.377-33.521,33.845-62.983c0.048,0.002,0.094,0.015,0.144,0.015
					c2.191,0,3.968-1.776,3.968-3.968v-10.051c0-0.243-0.029-0.479-0.071-0.711l9.893-0.151v-7.269c0,0-2.994-0.031-7.774-0.078
					c6.985-32.877-18.103-61.154-58.331-61.154c-40.212,0-64.346,27.268-59.494,61.117c-6.992,0.066-11.667,0.115-11.667,0.115
					v7.269l13.716,0.213c-0.035,0.212-0.065,0.427-0.065,0.649v10.051c0,2.189,1.772,3.963,3.961,3.967
					c3.974,28.467,15.842,52.485,33.936,62.563c-0.175,5.639-0.458,12.528-0.857,15.818c-0.389,3.198-1.835,10.146-2.925,15.178
					h-38.291c-11,0-20,9-20,20v7.647v16.412h869.332"/>
			</g>
		</g>
	</g>
</g>
</svg>
