


<svg version="1.1" id="Layer_1" xmlns="http://www.w3.org/2000/svg" xmlns:xlink="http://www.w3.org/1999/xlink" x="0px" y="0px"
	 width="1024px" height="630px" viewBox="0 0 1024 630" enable-background="new 0 0 1024 630" xml:space="preserve">
<g>
	<g>
		<defs>
			<rect id="SVGID_1_" y="-1.5" width="1024" height="633"/>
		</defs>
		<clipPath id="SVGID_2_">
			<use xlink:href="#SVGID_1_"  overflow="visible"/>
		</clipPath>
		<path clip-path="url(#SVGID_2_)" fill="#FFFFFF" d="M125,456.5h774H125z"/>
		
			<line clip-path="url(#SVGID_2_)" fill="none" stroke="#000000" stroke-width="2" stroke-miterlimit="10" x1="125" y1="456.5" x2="899" y2="456.5"/>
		<rect x="138" y="80.5" clip-path="url(#SVGID_2_)" fill="#D7DED7" width="748" height="375"/>
		<g clip-path="url(#SVGID_2_)">
			<defs>
				<rect id="SVGID_3_" y="-1.5" width="1024" height="633"/>
			</defs>
			<clipPath id="SVGID_4_">
				<use xlink:href="#SVGID_3_"  overflow="visible"/>
			</clipPath>
			<path clip-path="url(#SVGID_4_)" fill="none" stroke="#B2BDB2" stroke-miterlimit="10" d="M855.5,80.5
				c0,11.719,10,11.719,10,23.437c0,11.718-10,11.718-10,23.436s10,11.718,10,23.436c0,11.717-10,11.717-10,23.435
				c0,11.718,10,11.718,10,23.436c0,11.718-10,11.718-10,23.437c0,11.718,10,11.718,10,23.436c0,11.717-10,11.717-10,23.433
				c0,11.718,10,11.718,10,23.435c0,11.719-10,11.719-10,23.436c0,11.719,10,11.719,10,23.439c0,11.72-10,11.72-10,23.439
				c0,11.72,10,11.72,10,23.439c0,11.721-10,11.721-10,23.439c0,11.722,10,11.722,10,23.443c0,11.721-10,11.721-10,23.443"/>
			<path clip-path="url(#SVGID_4_)" fill="none" stroke="#B2BDB2" stroke-miterlimit="10" d="M845.5,80.5
				c0,11.719-10,11.719-10,23.437c0,11.718,10,11.718,10,23.436s-10,11.718-10,23.436c0,11.717,10,11.717,10,23.435
				c0,11.718-10,11.718-10,23.436c0,11.718,10,11.718,10,23.437c0,11.718-10,11.718-10,23.436c0,11.717,10,11.717,10,23.433
				c0,11.718-10,11.718-10,23.435c0,11.719,10,11.719,10,23.436c0,11.719-10,11.719-10,23.439c0,11.72,10,11.72,10,23.439
				c0,11.72-10,11.72-10,23.439c0,11.721,10,11.721,10,23.439c0,11.722-10,11.722-10,23.443c0,11.721,10,11.721,10,23.443"/>
			<path clip-path="url(#SVGID_4_)" fill="none" stroke="#B2BDB2" stroke-miterlimit="10" d="M815.5,80.5
				c0,11.719,10,11.719,10,23.437c0,11.718-10,11.718-10,23.436s10,11.718,10,23.436c0,11.717-10,11.717-10,23.435
				c0,11.718,10,11.718,10,23.436c0,11.718-10,11.718-10,23.437c0,11.718,10,11.718,10,23.436c0,11.717-10,11.717-10,23.433
				c0,11.718,10,11.718,10,23.435c0,11.719-10,11.719-10,23.436c0,11.719,10,11.719,10,23.439c0,11.72-10,11.72-10,23.439
				c0,11.72,10,11.72,10,23.439c0,11.721-10,11.721-10,23.439c0,11.722,10,11.722,10,23.443c0,11.721-10,11.721-10,23.443"/>
			<path clip-path="url(#SVGID_4_)" fill="none" stroke="#B2BDB2" stroke-miterlimit="10" d="M805.5,80.5
				c0,11.719-10,11.719-10,23.437c0,11.718,10,11.718,10,23.436s-10,11.718-10,23.436c0,11.717,10,11.717,10,23.435
				c0,11.718-10,11.718-10,23.436c0,11.718,10,11.718,10,23.437c0,11.718-10,11.718-10,23.436c0,11.717,10,11.717,10,23.433
				c0,11.718-10,11.718-10,23.435c0,11.719,10,11.719,10,23.436c0,11.719-10,11.719-10,23.439c0,11.72,10,11.72,10,23.439
				c0,11.72-10,11.72-10,23.439c0,11.721,10,11.721,10,23.439c0,11.722-10,11.722-10,23.443c0,11.721,10,11.721,10,23.443"/>
			<path clip-path="url(#SVGID_4_)" fill="none" stroke="#B2BDB2" stroke-miterlimit="10" d="M775.5,80.5
				c0,11.719,10,11.719,10,23.437c0,11.718-10,11.718-10,23.436s10,11.718,10,23.436c0,11.717-10,11.717-10,23.435
				c0,11.718,10,11.718,10,23.436c0,11.718-10,11.718-10,23.437c0,11.718,10,11.718,10,23.436c0,11.717-10,11.717-10,23.433
				c0,11.718,10,11.718,10,23.435c0,11.719-10,11.719-10,23.436c0,11.719,10,11.719,10,23.439c0,11.72-10,11.72-10,23.439
				c0,11.72,10,11.72,10,23.439c0,11.721-10,11.721-10,23.439c0,11.722,10,11.722,10,23.443c0,11.721-10,11.721-10,23.443"/>
			<path clip-path="url(#SVGID_4_)" fill="none" stroke="#B2BDB2" stroke-miterlimit="10" d="M765.5,80.5
				c0,11.719-10,11.719-10,23.437c0,11.718,10,11.718,10,23.436s-10,11.718-10,23.436c0,11.717,10,11.717,10,23.435
				c0,11.718-10,11.718-10,23.436c0,11.718,10,11.718,10,23.437c0,11.718-10,11.718-10,23.436c0,11.717,10,11.717,10,23.433
				c0,11.718-10,11.718-10,23.435c0,11.719,10,11.719,10,23.436c0,11.719-10,11.719-10,23.439c0,11.72,10,11.72,10,23.439
				c0,11.72-10,11.72-10,23.439c0,11.721,10,11.721,10,23.439c0,11.722-10,11.722-10,23.443c0,11.721,10,11.721,10,23.443"/>
			<path clip-path="url(#SVGID_4_)" fill="none" stroke="#B2BDB2" stroke-miterlimit="10" d="M735.5,80.5
				c0,11.719,10,11.719,10,23.437c0,11.718-10,11.718-10,23.436s10,11.718,10,23.436c0,11.717-10,11.717-10,23.435
				c0,11.718,10,11.718,10,23.436c0,11.718-10,11.718-10,23.437c0,11.718,10,11.718,10,23.436c0,11.717-10,11.717-10,23.433
				c0,11.718,10,11.718,10,23.435c0,11.719-10,11.719-10,23.436c0,11.719,10,11.719,10,23.439c0,11.72-10,11.72-10,23.439
				c0,11.72,10,11.72,10,23.439c0,11.721-10,11.721-10,23.439c0,11.722,10,11.722,10,23.443c0,11.721-10,11.721-10,23.443"/>
			<path clip-path="url(#SVGID_4_)" fill="none" stroke="#B2BDB2" stroke-miterlimit="10" d="M725.5,80.5
				c0,11.719-10,11.719-10,23.437c0,11.718,10,11.718,10,23.436s-10,11.718-10,23.436c0,11.717,10,11.717,10,23.435
				c0,11.718-10,11.718-10,23.436c0,11.718,10,11.718,10,23.437c0,11.718-10,11.718-10,23.436c0,11.717,10,11.717,10,23.433
				c0,11.718-10,11.718-10,23.435c0,11.719,10,11.719,10,23.436c0,11.719-10,11.719-10,23.439c0,11.72,10,11.72,10,23.439
				c0,11.72-10,11.72-10,23.439c0,11.721,10,11.721,10,23.439c0,11.722-10,11.722-10,23.443c0,11.721,10,11.721,10,23.443"/>
			<path clip-path="url(#SVGID_4_)" fill="none" stroke="#B2BDB2" stroke-miterlimit="10" d="M695.5,80.5
				c0,11.719,10,11.719,10,23.437c0,11.718-10,11.718-10,23.436s10,11.718,10,23.436c0,11.717-10,11.717-10,23.435
				c0,11.718,10,11.718,10,23.436c0,11.718-10,11.718-10,23.437c0,11.718,10,11.718,10,23.436c0,11.717-10,11.717-10,23.433
				c0,11.718,10,11.718,10,23.435c0,11.719-10,11.719-10,23.436c0,11.719,10,11.719,10,23.439c0,11.72-10,11.72-10,23.439
				c0,11.72,10,11.72,10,23.439c0,11.721-10,11.721-10,23.439c0,11.722,10,11.722,10,23.443c0,11.721-10,11.721-10,23.443"/>
			<path clip-path="url(#SVGID_4_)" fill="none" stroke="#B2BDB2" stroke-miterlimit="10" d="M685.5,80.5
				c0,11.719-10,11.719-10,23.437c0,11.718,10,11.718,10,23.436s-10,11.718-10,23.436c0,11.717,10,11.717,10,23.435
				c0,11.718-10,11.718-10,23.436c0,11.718,10,11.718,10,23.437c0,11.718-10,11.718-10,23.436c0,11.717,10,11.717,10,23.433
				c0,11.718-10,11.718-10,23.435c0,11.719,10,11.719,10,23.436c0,11.719-10,11.719-10,23.439c0,11.72,10,11.72,10,23.439
				c0,11.72-10,11.72-10,23.439c0,11.721,10,11.721,10,23.439c0,11.722-10,11.722-10,23.443c0,11.721,10,11.721,10,23.443"/>
			<path clip-path="url(#SVGID_4_)" fill="none" stroke="#B2BDB2" stroke-miterlimit="10" d="M655.5,80.5
				c0,11.719,10,11.719,10,23.437c0,11.718-10,11.718-10,23.436s10,11.718,10,23.436c0,11.717-10,11.717-10,23.435
				c0,11.718,10,11.718,10,23.436c0,11.718-10,11.718-10,23.437c0,11.718,10,11.718,10,23.436c0,11.717-10,11.717-10,23.433
				c0,11.718,10,11.718,10,23.435c0,11.719-10,11.719-10,23.436c0,11.719,10,11.719,10,23.439c0,11.72-10,11.72-10,23.439
				c0,11.72,10,11.72,10,23.439c0,11.721-10,11.721-10,23.439c0,11.722,10,11.722,10,23.443c0,11.721-10,11.721-10,23.443"/>
			<path clip-path="url(#SVGID_4_)" fill="none" stroke="#B2BDB2" stroke-miterlimit="10" d="M645.5,80.5
				c0,11.719-10,11.719-10,23.437c0,11.718,10,11.718,10,23.436s-10,11.718-10,23.436c0,11.717,10,11.717,10,23.435
				c0,11.718-10,11.718-10,23.436c0,11.718,10,11.718,10,23.437c0,11.718-10,11.718-10,23.436c0,11.717,10,11.717,10,23.433
				c0,11.718-10,11.718-10,23.435c0,11.719,10,11.719,10,23.436c0,11.719-10,11.719-10,23.439c0,11.72,10,11.72,10,23.439
				c0,11.72-10,11.72-10,23.439c0,11.721,10,11.721,10,23.439c0,11.722-10,11.722-10,23.443c0,11.721,10,11.721,10,23.443"/>
			<path clip-path="url(#SVGID_4_)" fill="none" stroke="#B2BDB2" stroke-miterlimit="10" d="M615.5,80.5
				c0,11.719,10,11.719,10,23.437c0,11.718-10,11.718-10,23.436s10,11.718,10,23.436c0,11.717-10,11.717-10,23.435
				c0,11.718,10,11.718,10,23.436c0,11.718-10,11.718-10,23.437c0,11.718,10,11.718,10,23.436c0,11.717-10,11.717-10,23.433
				c0,11.718,10,11.718,10,23.435c0,11.719-10,11.719-10,23.436c0,11.719,10,11.719,10,23.439c0,11.72-10,11.72-10,23.439
				c0,11.72,10,11.72,10,23.439c0,11.721-10,11.721-10,23.439c0,11.722,10,11.722,10,23.443c0,11.721-10,11.721-10,23.443"/>
			<path clip-path="url(#SVGID_4_)" fill="none" stroke="#B2BDB2" stroke-miterlimit="10" d="M605.5,80.5
				c0,11.719-10,11.719-10,23.437c0,11.718,10,11.718,10,23.436s-10,11.718-10,23.436c0,11.717,10,11.717,10,23.435
				c0,11.718-10,11.718-10,23.436c0,11.718,10,11.718,10,23.437c0,11.718-10,11.718-10,23.436c0,11.717,10,11.717,10,23.433
				c0,11.718-10,11.718-10,23.435c0,11.719,10,11.719,10,23.436c0,11.719-10,11.719-10,23.439c0,11.72,10,11.72,10,23.439
				c0,11.72-10,11.72-10,23.439c0,11.721,10,11.721,10,23.439c0,11.722-10,11.722-10,23.443c0,11.721,10,11.721,10,23.443"/>
			<path clip-path="url(#SVGID_4_)" fill="none" stroke="#B2BDB2" stroke-miterlimit="10" d="M575.5,80.5
				c0,11.719,10,11.719,10,23.437c0,11.718-10,11.718-10,23.436s10,11.718,10,23.436c0,11.717-10,11.717-10,23.435
				c0,11.718,10,11.718,10,23.436c0,11.718-10,11.718-10,23.437c0,11.718,10,11.718,10,23.436c0,11.717-10,11.717-10,23.433
				c0,11.718,10,11.718,10,23.435c0,11.719-10,11.719-10,23.436c0,11.719,10,11.719,10,23.439c0,11.72-10,11.72-10,23.439
				c0,11.72,10,11.72,10,23.439c0,11.721-10,11.721-10,23.439c0,11.722,10,11.722,10,23.443c0,11.721-10,11.721-10,23.443"/>
			<path clip-path="url(#SVGID_4_)" fill="none" stroke="#B2BDB2" stroke-miterlimit="10" d="M565.5,80.5
				c0,11.719-10,11.719-10,23.437c0,11.718,10,11.718,10,23.436s-10,11.718-10,23.436c0,11.717,10,11.717,10,23.435
				c0,11.718-10,11.718-10,23.436c0,11.718,10,11.718,10,23.437c0,11.718-10,11.718-10,23.436c0,11.717,10,11.717,10,23.433
				c0,11.718-10,11.718-10,23.435c0,11.719,10,11.719,10,23.436c0,11.719-10,11.719-10,23.439c0,11.72,10,11.72,10,23.439
				c0,11.72-10,11.72-10,23.439c0,11.721,10,11.721,10,23.439c0,11.722-10,11.722-10,23.443c0,11.721,10,11.721,10,23.443"/>
			<path clip-path="url(#SVGID_4_)" fill="none" stroke="#B2BDB2" stroke-miterlimit="10" d="M535.5,80.5
				c0,11.719,10,11.719,10,23.437c0,11.718-10,11.718-10,23.436s10,11.718,10,23.436c0,11.717-10,11.717-10,23.435
				c0,11.718,10,11.718,10,23.436c0,11.718-10,11.718-10,23.437c0,11.718,10,11.718,10,23.436c0,11.717-10,11.717-10,23.433
				c0,11.718,10,11.718,10,23.435c0,11.719-10,11.719-10,23.436c0,11.719,10,11.719,10,23.439c0,11.72-10,11.72-10,23.439
				c0,11.72,10,11.72,10,23.439c0,11.721-10,11.721-10,23.439c0,11.722,10,11.722,10,23.443c0,11.721-10,11.721-10,23.443"/>
			<path clip-path="url(#SVGID_4_)" fill="none" stroke="#B2BDB2" stroke-miterlimit="10" d="M525.5,80.5
				c0,11.719-10,11.719-10,23.437c0,11.718,10,11.718,10,23.436s-10,11.718-10,23.436c0,11.717,10,11.717,10,23.435
				c0,11.718-10,11.718-10,23.436c0,11.718,10,11.718,10,23.437c0,11.718-10,11.718-10,23.436c0,11.717,10,11.717,10,23.433
				c0,11.718-10,11.718-10,23.435c0,11.719,10,11.719,10,23.436c0,11.719-10,11.719-10,23.439c0,11.72,10,11.72,10,23.439
				c0,11.72-10,11.72-10,23.439c0,11.721,10,11.721,10,23.439c0,11.722-10,11.722-10,23.443c0,11.721,10,11.721,10,23.443"/>
			<path clip-path="url(#SVGID_4_)" fill="none" stroke="#B2BDB2" stroke-miterlimit="10" d="M495.5,80.5
				c0,11.719,10,11.719,10,23.437c0,11.718-10,11.718-10,23.436s10,11.718,10,23.436c0,11.717-10,11.717-10,23.435
				c0,11.718,10,11.718,10,23.436c0,11.718-10,11.718-10,23.437c0,11.718,10,11.718,10,23.436c0,11.717-10,11.717-10,23.433
				c0,11.718,10,11.718,10,23.435c0,11.719-10,11.719-10,23.436c0,11.719,10,11.719,10,23.439c0,11.72-10,11.72-10,23.439
				c0,11.72,10,11.72,10,23.439c0,11.721-10,11.721-10,23.439c0,11.722,10,11.722,10,23.443c0,11.721-10,11.721-10,23.443"/>
			<path clip-path="url(#SVGID_4_)" fill="none" stroke="#B2BDB2" stroke-miterlimit="10" d="M485.5,80.5
				c0,11.719-10,11.719-10,23.437c0,11.718,10,11.718,10,23.436s-10,11.718-10,23.436c0,11.717,10,11.717,10,23.435
				c0,11.718-10,11.718-10,23.436c0,11.718,10,11.718,10,23.437c0,11.718-10,11.718-10,23.436c0,11.717,10,11.717,10,23.433
				c0,11.718-10,11.718-10,23.435c0,11.719,10,11.719,10,23.436c0,11.719-10,11.719-10,23.439c0,11.72,10,11.72,10,23.439
				c0,11.72-10,11.72-10,23.439c0,11.721,10,11.721,10,23.439c0,11.722-10,11.722-10,23.443c0,11.721,10,11.721,10,23.443"/>
			<path clip-path="url(#SVGID_4_)" fill="none" stroke="#B2BDB2" stroke-miterlimit="10" d="M455.5,80.5
				c0,11.719,10,11.719,10,23.437c0,11.718-10,11.718-10,23.436s10,11.718,10,23.436c0,11.717-10,11.717-10,23.435
				c0,11.718,10,11.718,10,23.436c0,11.718-10,11.718-10,23.437c0,11.718,10,11.718,10,23.436c0,11.717-10,11.717-10,23.433
				c0,11.718,10,11.718,10,23.435c0,11.719-10,11.719-10,23.436c0,11.719,10,11.719,10,23.439c0,11.72-10,11.72-10,23.439
				c0,11.72,10,11.72,10,23.439c0,11.721-10,11.721-10,23.439c0,11.722,10,11.722,10,23.443c0,11.721-10,11.721-10,23.443"/>
			<path clip-path="url(#SVGID_4_)" fill="none" stroke="#B2BDB2" stroke-miterlimit="10" d="M445.5,80.5
				c0,11.719-10,11.719-10,23.437c0,11.718,10,11.718,10,23.436s-10,11.718-10,23.436c0,11.717,10,11.717,10,23.435
				c0,11.718-10,11.718-10,23.436c0,11.718,10,11.718,10,23.437c0,11.718-10,11.718-10,23.436c0,11.717,10,11.717,10,23.433
				c0,11.718-10,11.718-10,23.435c0,11.719,10,11.719,10,23.436c0,11.719-10,11.719-10,23.439c0,11.72,10,11.72,10,23.439
				c0,11.72-10,11.72-10,23.439c0,11.721,10,11.721,10,23.439c0,11.722-10,11.722-10,23.443c0,11.721,10,11.721,10,23.443"/>
			<path clip-path="url(#SVGID_4_)" fill="none" stroke="#B2BDB2" stroke-miterlimit="10" d="M415.5,80.5
				c0,11.719,10,11.719,10,23.437c0,11.718-10,11.718-10,23.436s10,11.718,10,23.436c0,11.717-10,11.717-10,23.435
				c0,11.718,10,11.718,10,23.436c0,11.718-10,11.718-10,23.437c0,11.718,10,11.718,10,23.436c0,11.717-10,11.717-10,23.433
				c0,11.718,10,11.718,10,23.435c0,11.719-10,11.719-10,23.436c0,11.719,10,11.719,10,23.439c0,11.72-10,11.72-10,23.439
				c0,11.72,10,11.72,10,23.439c0,11.721-10,11.721-10,23.439c0,11.722,10,11.722,10,23.443c0,11.721-10,11.721-10,23.443"/>
			<path clip-path="url(#SVGID_4_)" fill="none" stroke="#B2BDB2" stroke-miterlimit="10" d="M405.5,80.5
				c0,11.719-10,11.719-10,23.437c0,11.718,10,11.718,10,23.436s-10,11.718-10,23.436c0,11.717,10,11.717,10,23.435
				c0,11.718-10,11.718-10,23.436c0,11.718,10,11.718,10,23.437c0,11.718-10,11.718-10,23.436c0,11.717,10,11.717,10,23.433
				c0,11.718-10,11.718-10,23.435c0,11.719,10,11.719,10,23.436c0,11.719-10,11.719-10,23.439c0,11.72,10,11.72,10,23.439
				c0,11.72-10,11.72-10,23.439c0,11.721,10,11.721,10,23.439c0,11.722-10,11.722-10,23.443c0,11.721,10,11.721,10,23.443"/>
			<path clip-path="url(#SVGID_4_)" fill="none" stroke="#B2BDB2" stroke-miterlimit="10" d="M375.5,80.5
				c0,11.719,10,11.719,10,23.437c0,11.718-10,11.718-10,23.436s10,11.718,10,23.436c0,11.717-10,11.717-10,23.435
				c0,11.718,10,11.718,10,23.436c0,11.718-10,11.718-10,23.437c0,11.718,10,11.718,10,23.436c0,11.717-10,11.717-10,23.433
				c0,11.718,10,11.718,10,23.435c0,11.719-10,11.719-10,23.436c0,11.719,10,11.719,10,23.439c0,11.72-10,11.72-10,23.439
				c0,11.72,10,11.72,10,23.439c0,11.721-10,11.721-10,23.439c0,11.722,10,11.722,10,23.443c0,11.721-10,11.721-10,23.443"/>
			<path clip-path="url(#SVGID_4_)" fill="none" stroke="#B2BDB2" stroke-miterlimit="10" d="M365.5,80.5
				c0,11.719-10,11.719-10,23.437c0,11.718,10,11.718,10,23.436s-10,11.718-10,23.436c0,11.717,10,11.717,10,23.435
				c0,11.718-10,11.718-10,23.436c0,11.718,10,11.718,10,23.437c0,11.718-10,11.718-10,23.436c0,11.717,10,11.717,10,23.433
				c0,11.718-10,11.718-10,23.435c0,11.719,10,11.719,10,23.436c0,11.719-10,11.719-10,23.439c0,11.72,10,11.72,10,23.439
				c0,11.72-10,11.72-10,23.439c0,11.721,10,11.721,10,23.439c0,11.722-10,11.722-10,23.443c0,11.721,10,11.721,10,23.443"/>
			<path clip-path="url(#SVGID_4_)" fill="none" stroke="#B2BDB2" stroke-miterlimit="10" d="M335.5,80.5
				c0,11.719,10,11.719,10,23.437c0,11.718-10,11.718-10,23.436s10,11.718,10,23.436c0,11.717-10,11.717-10,23.435
				c0,11.718,10,11.718,10,23.436c0,11.718-10,11.718-10,23.437c0,11.718,10,11.718,10,23.436c0,11.717-10,11.717-10,23.433
				c0,11.718,10,11.718,10,23.435c0,11.719-10,11.719-10,23.436c0,11.719,10,11.719,10,23.439c0,11.72-10,11.72-10,23.439
				c0,11.72,10,11.72,10,23.439c0,11.721-10,11.721-10,23.439c0,11.722,10,11.722,10,23.443c0,11.721-10,11.721-10,23.443"/>
			<path clip-path="url(#SVGID_4_)" fill="none" stroke="#B2BDB2" stroke-miterlimit="10" d="M325.5,80.5
				c0,11.719-10,11.719-10,23.437c0,11.718,10,11.718,10,23.436s-10,11.718-10,23.436c0,11.717,10,11.717,10,23.435
				c0,11.718-10,11.718-10,23.436c0,11.718,10,11.718,10,23.437c0,11.718-10,11.718-10,23.436c0,11.717,10,11.717,10,23.433
				c0,11.718-10,11.718-10,23.435c0,11.719,10,11.719,10,23.436c0,11.719-10,11.719-10,23.439c0,11.72,10,11.72,10,23.439
				c0,11.72-10,11.72-10,23.439c0,11.721,10,11.721,10,23.439c0,11.722-10,11.722-10,23.443c0,11.721,10,11.721,10,23.443"/>
			<path clip-path="url(#SVGID_4_)" fill="none" stroke="#B2BDB2" stroke-miterlimit="10" d="M295.5,80.5
				c0,11.719,10,11.719,10,23.437c0,11.718-10,11.718-10,23.436s10,11.718,10,23.436c0,11.717-10,11.717-10,23.435
				c0,11.718,10,11.718,10,23.436c0,11.718-10,11.718-10,23.437c0,11.718,10,11.718,10,23.436c0,11.717-10,11.717-10,23.433
				c0,11.718,10,11.718,10,23.435c0,11.719-10,11.719-10,23.436c0,11.719,10,11.719,10,23.439c0,11.72-10,11.72-10,23.439
				c0,11.72,10,11.72,10,23.439c0,11.721-10,11.721-10,23.439c0,11.722,10,11.722,10,23.443c0,11.721-10,11.721-10,23.443"/>
			<path clip-path="url(#SVGID_4_)" fill="none" stroke="#B2BDB2" stroke-miterlimit="10" d="M285.5,80.5
				c0,11.719-10,11.719-10,23.437c0,11.718,10,11.718,10,23.436s-10,11.718-10,23.436c0,11.717,10,11.717,10,23.435
				c0,11.718-10,11.718-10,23.436c0,11.718,10,11.718,10,23.437c0,11.718-10,11.718-10,23.436c0,11.717,10,11.717,10,23.433
				c0,11.718-10,11.718-10,23.435c0,11.719,10,11.719,10,23.436c0,11.719-10,11.719-10,23.439c0,11.72,10,11.72,10,23.439
				c0,11.72-10,11.72-10,23.439c0,11.721,10,11.721,10,23.439c0,11.722-10,11.722-10,23.443c0,11.721,10,11.721,10,23.443"/>
			<path clip-path="url(#SVGID_4_)" fill="none" stroke="#B2BDB2" stroke-miterlimit="10" d="M255.5,80.5
				c0,11.719,10,11.719,10,23.437c0,11.718-10,11.718-10,23.436s10,11.718,10,23.436c0,11.717-10,11.717-10,23.435
				c0,11.718,10,11.718,10,23.436c0,11.718-10,11.718-10,23.437c0,11.718,10,11.718,10,23.436c0,11.717-10,11.717-10,23.433
				c0,11.718,10,11.718,10,23.435c0,11.719-10,11.719-10,23.436c0,11.719,10,11.719,10,23.439c0,11.72-10,11.72-10,23.439
				c0,11.72,10,11.72,10,23.439c0,11.721-10,11.721-10,23.439c0,11.722,10,11.722,10,23.443c0,11.721-10,11.721-10,23.443"/>
			<path clip-path="url(#SVGID_4_)" fill="none" stroke="#B2BDB2" stroke-miterlimit="10" d="M245.5,80.5
				c0,11.719-10,11.719-10,23.437c0,11.718,10,11.718,10,23.436s-10,11.718-10,23.436c0,11.717,10,11.717,10,23.435
				c0,11.718-10,11.718-10,23.436c0,11.718,10,11.718,10,23.437c0,11.718-10,11.718-10,23.436c0,11.717,10,11.717,10,23.433
				c0,11.718-10,11.718-10,23.435c0,11.719,10,11.719,10,23.436c0,11.719-10,11.719-10,23.439c0,11.72,10,11.72,10,23.439
				c0,11.72-10,11.72-10,23.439c0,11.721,10,11.721,10,23.439c0,11.722-10,11.722-10,23.443c0,11.721,10,11.721,10,23.443"/>
			<path clip-path="url(#SVGID_4_)" fill="none" stroke="#B2BDB2" stroke-miterlimit="10" d="M215.5,80.5
				c0,11.719,10,11.719,10,23.437c0,11.718-10,11.718-10,23.436s10,11.718,10,23.436c0,11.717-10,11.717-10,23.435
				c0,11.718,10,11.718,10,23.436c0,11.718-10,11.718-10,23.437c0,11.718,10,11.718,10,23.436c0,11.717-10,11.717-10,23.433
				c0,11.718,10,11.718,10,23.435c0,11.719-10,11.719-10,23.436c0,11.719,10,11.719,10,23.439c0,11.72-10,11.72-10,23.439
				c0,11.72,10,11.72,10,23.439c0,11.721-10,11.721-10,23.439c0,11.722,10,11.722,10,23.443c0,11.721-10,11.721-10,23.443"/>
			<path clip-path="url(#SVGID_4_)" fill="none" stroke="#B2BDB2" stroke-miterlimit="10" d="M205.5,80.5
				c0,11.719-10,11.719-10,23.437c0,11.718,10,11.718,10,23.436s-10,11.718-10,23.436c0,11.717,10,11.717,10,23.435
				c0,11.718-10,11.718-10,23.436c0,11.718,10,11.718,10,23.437c0,11.718-10,11.718-10,23.436c0,11.717,10,11.717,10,23.433
				c0,11.718-10,11.718-10,23.435c0,11.719,10,11.719,10,23.436c0,11.719-10,11.719-10,23.439c0,11.72,10,11.72,10,23.439
				c0,11.72-10,11.72-10,23.439c0,11.721,10,11.721,10,23.439c0,11.722-10,11.722-10,23.443c0,11.721,10,11.721,10,23.443"/>
			<path clip-path="url(#SVGID_4_)" fill="none" stroke="#B2BDB2" stroke-miterlimit="10" d="M175.5,80.5
				c0,11.719,10,11.719,10,23.437c0,11.718-10,11.718-10,23.436s10,11.718,10,23.436c0,11.717-10,11.717-10,23.435
				c0,11.718,10,11.718,10,23.436c0,11.718-10,11.718-10,23.437c0,11.718,10,11.718,10,23.436c0,11.717-10,11.717-10,23.433
				c0,11.718,10,11.718,10,23.435c0,11.719-10,11.719-10,23.436c0,11.719,10,11.719,10,23.439c0,11.72-10,11.72-10,23.439
				c0,11.72,10,11.72,10,23.439c0,11.721-10,11.721-10,23.439c0,11.722,10,11.722,10,23.443c0,11.721-10,11.721-10,23.443"/>
			<path clip-path="url(#SVGID_4_)" fill="none" stroke="#B2BDB2" stroke-miterlimit="10" d="M165.5,80.5
				c0,11.719-10,11.719-10,23.437c0,11.718,10,11.718,10,23.436s-10,11.718-10,23.436c0,11.717,10,11.717,10,23.435
				c0,11.718-10,11.718-10,23.436c0,11.718,10,11.718,10,23.437c0,11.718-10,11.718-10,23.436c0,11.717,10,11.717,10,23.433
				c0,11.718-10,11.718-10,23.435c0,11.719,10,11.719,10,23.436c0,11.719-10,11.719-10,23.439c0,11.72,10,11.72,10,23.439
				c0,11.72-10,11.72-10,23.439c0,11.721,10,11.721,10,23.439c0,11.722-10,11.722-10,23.443c0,11.721,10,11.721,10,23.443"/>
			<polygon clip-path="url(#SVGID_4_)" fill="#7F7F7F" points="673.315,252.5 349.904,252.5 233.63,282.5 789.029,282.5 			"/>
			
				<polygon clip-path="url(#SVGID_4_)" fill="none" stroke="#000000" stroke-width="2" stroke-linejoin="round" stroke-miterlimit="10" points="
				673.315,252.5 349.904,252.5 233.63,282.5 789.029,282.5 			"/>
			<path clip-path="url(#SVGID_4_)" fill="#7F7F7F" d="M286.173,473.285c0,1.943-1.591,3.535-3.536,3.535h-9.985
				c-1.946,0-3.537-1.592-3.537-3.535v-46.236c0-1.945,1.591-3.537,3.537-3.537h9.985c1.945,0,3.536,1.592,3.536,3.537V473.285z"/>
			
				<path clip-path="url(#SVGID_4_)" fill="none" stroke="#000000" stroke-width="2" stroke-linejoin="round" stroke-miterlimit="10" d="
				M286.173,473.285c0,1.943-1.591,3.535-3.536,3.535h-9.985c-1.946,0-3.537-1.592-3.537-3.535v-46.236
				c0-1.945,1.591-3.537,3.537-3.537h9.985c1.945,0,3.536,1.592,3.536,3.537V473.285z"/>
			<path clip-path="url(#SVGID_4_)" fill="#7F7F7F" d="M286.173,473.285c0,1.943-1.591,3.535-3.536,3.535h-9.985
				c-1.946,0-3.537-1.592-3.537-3.535v-46.236c0-1.945,1.591-3.537,3.537-3.537h9.985c1.945,0,3.536,1.592,3.536,3.537V473.285z"/>
			
				<path clip-path="url(#SVGID_4_)" fill="none" stroke="#000000" stroke-width="2" stroke-linejoin="round" stroke-miterlimit="10" d="
				M286.173,473.285c0,1.943-1.591,3.535-3.536,3.535h-9.985c-1.946,0-3.537-1.592-3.537-3.535v-46.236
				c0-1.945,1.591-3.537,3.537-3.537h9.985c1.945,0,3.536,1.592,3.536,3.537V473.285z"/>
			<path clip-path="url(#SVGID_4_)" fill="#7F7F7F" d="M751.915,473.285c0,1.943-1.592,3.535-3.535,3.535h-9.194
				c-1.943,0-3.537-1.592-3.537-3.535v-46.08c0-1.947,1.594-3.539,3.537-3.539h9.194c1.943,0,3.535,1.592,3.535,3.539V473.285z"/>
			
				<path clip-path="url(#SVGID_4_)" fill="none" stroke="#000000" stroke-width="2" stroke-linejoin="round" stroke-miterlimit="10" d="
				M751.915,473.285c0,1.943-1.592,3.535-3.535,3.535h-9.194c-1.943,0-3.537-1.592-3.537-3.535v-46.08
				c0-1.947,1.594-3.539,3.537-3.539h9.194c1.943,0,3.535,1.592,3.535,3.539V473.285z"/>
			<path clip-path="url(#SVGID_4_)" fill="#7F7F7F" d="M751.915,473.285c0,1.943-1.592,3.535-3.535,3.535h-9.194
				c-1.943,0-3.537-1.592-3.537-3.535v-46.08c0-1.947,1.594-3.539,3.537-3.539h9.194c1.943,0,3.535,1.592,3.535,3.539V473.285z"/>
			
				<path clip-path="url(#SVGID_4_)" fill="none" stroke="#000000" stroke-width="2" stroke-linejoin="round" stroke-miterlimit="10" d="
				M751.915,473.285c0,1.943-1.592,3.535-3.535,3.535h-9.194c-1.943,0-3.537-1.592-3.537-3.535v-46.08
				c0-1.947,1.594-3.539,3.537-3.539h9.194c1.943,0,3.535,1.592,3.535,3.539V473.285z"/>
			<polygon clip-path="url(#SVGID_4_)" fill="#FFFFFF" points="770.476,437.66 251.318,437.66 233.631,423.512 788.162,423.512 			
				"/>
			
				<polygon clip-path="url(#SVGID_4_)" fill="none" stroke="#000000" stroke-width="2" stroke-linejoin="round" stroke-miterlimit="10" points="
				770.476,437.66 251.318,437.66 233.631,423.512 788.162,423.512 			"/>
			<rect x="233.631" y="283.865" clip-path="url(#SVGID_4_)" fill="#FFFFFF" width="138.633" height="141.709"/>
			
				<rect x="233.631" y="283.865" clip-path="url(#SVGID_4_)" fill="none" stroke="#000000" stroke-width="2" stroke-miterlimit="10" width="138.633" height="141.709"/>
			<rect x="372.264" y="283.865" clip-path="url(#SVGID_4_)" fill="#FFFFFF" width="138.63" height="141.709"/>
			
				<rect x="372.264" y="283.865" clip-path="url(#SVGID_4_)" fill="none" stroke="#000000" stroke-width="2" stroke-miterlimit="10" width="138.63" height="141.709"/>
			<rect x="510.894" y="283.865" clip-path="url(#SVGID_4_)" fill="#FFFFFF" width="138.635" height="141.709"/>
			
				<rect x="510.894" y="283.865" clip-path="url(#SVGID_4_)" fill="none" stroke="#000000" stroke-width="2" stroke-miterlimit="10" width="138.635" height="141.709"/>
			<rect x="649.528" y="294.477" clip-path="url(#SVGID_4_)" fill="#FFFFFF" width="138.633" height="59.357"/>
			
				<rect x="649.528" y="294.477" clip-path="url(#SVGID_4_)" fill="none" stroke="#000000" stroke-width="2" stroke-miterlimit="10" width="138.633" height="59.357"/>
			<rect x="649.528" y="366.215" clip-path="url(#SVGID_4_)" fill="#FFFFFF" width="138.633" height="59.359"/>
			
				<rect x="649.528" y="366.215" clip-path="url(#SVGID_4_)" fill="none" stroke="#000000" stroke-width="2" stroke-miterlimit="10" width="138.633" height="59.359"/>
			<rect x="233.631" y="282.423" clip-path="url(#SVGID_4_)" fill="#FFFFFF" width="554.53" height="12.049"/>
			
				<rect x="233.631" y="282.423" clip-path="url(#SVGID_4_)" fill="none" stroke="#000000" stroke-width="2" stroke-linejoin="round" stroke-miterlimit="10" width="554.53" height="12.049"/>
			<rect x="649.528" y="353.834" clip-path="url(#SVGID_4_)" fill="#FFFFFF" width="138.633" height="12.381"/>
			
				<rect x="649.528" y="353.834" clip-path="url(#SVGID_4_)" fill="none" stroke="#000000" stroke-width="2" stroke-linejoin="round" stroke-miterlimit="10" width="138.633" height="12.381"/>
			<rect x="366.073" y="295.129" clip-path="url(#SVGID_4_)" fill="#FFFFFF" width="12.38" height="130.445"/>
			
				<rect x="366.073" y="295.129" clip-path="url(#SVGID_4_)" fill="none" stroke="#000000" stroke-width="2" stroke-linejoin="round" stroke-miterlimit="10" width="12.38" height="130.445"/>
			<path clip-path="url(#SVGID_4_)" fill="#FFFFFF" d="M605.04,308.846c0,2.115-1.717,3.832-3.832,3.832h-46.574
				c-2.115,0-3.832-1.717-3.832-3.832c0-2.117,1.717-3.832,3.832-3.832h46.574C603.323,305.014,605.04,306.729,605.04,308.846"/>
			
				<path clip-path="url(#SVGID_4_)" fill="none" stroke="#000000" stroke-width="2" stroke-linejoin="round" stroke-miterlimit="10" d="
				M605.04,308.846c0,2.115-1.717,3.832-3.832,3.832h-46.574c-2.115,0-3.832-1.717-3.832-3.832c0-2.117,1.717-3.832,3.832-3.832
				h46.574C603.323,305.014,605.04,306.729,605.04,308.846z"/>
			<path clip-path="url(#SVGID_4_)" fill="#FFFFFF" d="M747.94,308.846c0,2.115-1.717,3.832-3.832,3.832h-46.574
				c-2.115,0-3.832-1.717-3.832-3.832c0-2.117,1.717-3.832,3.832-3.832h46.574C746.223,305.014,747.94,306.729,747.94,308.846"/>
			
				<path clip-path="url(#SVGID_4_)" fill="none" stroke="#000000" stroke-width="2" stroke-linejoin="round" stroke-miterlimit="10" d="
				M747.94,308.846c0,2.115-1.717,3.832-3.832,3.832h-46.574c-2.115,0-3.832-1.717-3.832-3.832c0-2.117,1.717-3.832,3.832-3.832
				h46.574C746.223,305.014,747.94,306.729,747.94,308.846z"/>
			<path clip-path="url(#SVGID_4_)" fill="#FFFFFF" d="M748.003,383.719c0,2.115-1.717,3.83-3.834,3.83h-46.572
				c-2.117,0-3.834-1.715-3.834-3.83c0-2.117,1.717-3.832,3.834-3.832h46.572C746.286,379.887,748.003,381.602,748.003,383.719"/>
			
				<path clip-path="url(#SVGID_4_)" fill="none" stroke="#000000" stroke-width="2" stroke-linejoin="round" stroke-miterlimit="10" d="
				M748.003,383.719c0,2.115-1.717,3.83-3.834,3.83h-46.572c-2.117,0-3.834-1.715-3.834-3.83c0-2.117,1.717-3.832,3.834-3.832
				h46.572C746.286,379.887,748.003,381.602,748.003,383.719z"/>
			<path clip-path="url(#SVGID_4_)" fill="#FFFFFF" d="M332.967,352.359c0-1.945,1.592-3.537,3.537-3.537h20.044
				c1.946,0,3.536,1.592,3.536,3.537v0.592c0,1.943-1.59,3.535-3.536,3.535h-20.044c-1.945,0-3.537-1.592-3.537-3.535V352.359z"/>
			
				<path clip-path="url(#SVGID_4_)" fill="none" stroke="#000000" stroke-width="2" stroke-linejoin="round" stroke-miterlimit="10" d="
				M332.967,352.359c0-1.945,1.592-3.537,3.537-3.537h20.044c1.946,0,3.536,1.592,3.536,3.537v0.592c0,1.943-1.59,3.535-3.536,3.535
				h-20.044c-1.945,0-3.537-1.592-3.537-3.535V352.359z"/>
			<path clip-path="url(#SVGID_4_)" fill="#FFFFFF" d="M384.254,352.359c0-1.945,1.592-3.537,3.537-3.537h20.045
				c1.946,0,3.537,1.592,3.537,3.537v0.592c0,1.943-1.591,3.535-3.537,3.535h-20.045c-1.945,0-3.537-1.592-3.537-3.535V352.359z"/>
			
				<path clip-path="url(#SVGID_4_)" fill="none" stroke="#000000" stroke-width="2" stroke-linejoin="round" stroke-miterlimit="10" d="
				M384.254,352.359c0-1.945,1.592-3.537,3.537-3.537h20.045c1.946,0,3.537,1.592,3.537,3.537v0.592
				c0,1.943-1.591,3.535-3.537,3.535h-20.045c-1.945,0-3.537-1.592-3.537-3.535V352.359z"/>
			<line clip-path="url(#SVGID_4_)" fill="#FFFFFF" x1="269.219" y1="226.654" x2="297.481" y2="252.062"/>
			
				<line clip-path="url(#SVGID_4_)" fill="none" stroke="#000000" stroke-width="2" stroke-miterlimit="10" x1="269.219" y1="226.654" x2="297.481" y2="252.062"/>
			
				<rect x="264.346" y="236.635" transform="matrix(0.7436 0.6686 -0.6686 0.7436 232.6827 -128.0815)" clip-path="url(#SVGID_4_)" fill="#FFFFFF" width="38.006" height="5.446"/>
			
				<rect x="264.346" y="236.635" transform="matrix(0.7436 0.6686 -0.6686 0.7436 232.6827 -128.0815)" clip-path="url(#SVGID_4_)" fill="none" stroke="#000000" stroke-width="2" stroke-miterlimit="10" width="38.006" height="5.446"/>
			<line clip-path="url(#SVGID_4_)" fill="#FFFFFF" x1="346.484" y1="162.872" x2="269.218" y2="226.654"/>
			
				<line clip-path="url(#SVGID_4_)" fill="none" stroke="#000000" stroke-width="2" stroke-miterlimit="10" x1="346.484" y1="162.872" x2="269.218" y2="226.654"/>
			
				<rect x="305.128" y="144.668" transform="matrix(0.6369 0.7709 -0.7709 0.6369 261.9338 -166.6177)" clip-path="url(#SVGID_4_)" fill="#FFFFFF" width="5.444" height="100.19"/>
			
				<rect x="305.128" y="144.668" transform="matrix(0.6369 0.7709 -0.7709 0.6369 261.9338 -166.6177)" clip-path="url(#SVGID_4_)" fill="none" stroke="#000000" stroke-width="2" stroke-miterlimit="10" width="5.444" height="100.19"/>
			<line clip-path="url(#SVGID_4_)" fill="#FFFFFF" x1="296.728" y1="251.388" x2="318.999" y2="263.469"/>
			
				<line clip-path="url(#SVGID_4_)" fill="none" stroke="#000000" stroke-width="2" stroke-miterlimit="10" x1="296.728" y1="251.388" x2="318.999" y2="263.469"/>
			
				<rect x="295.194" y="254.704" transform="matrix(0.879 0.4768 -0.4768 0.879 159.9945 -115.6462)" clip-path="url(#SVGID_4_)" fill="#FFFFFF" width="25.341" height="5.445"/>
			
				<rect x="295.194" y="254.704" transform="matrix(0.879 0.4768 -0.4768 0.879 159.9945 -115.6462)" clip-path="url(#SVGID_4_)" fill="none" stroke="#000000" stroke-width="2" stroke-miterlimit="10" width="25.341" height="5.445"/>
			<polygon clip-path="url(#SVGID_4_)" points="362.428,135.518 363.204,156.519 374.483,154.445 			"/>
			<path clip-path="url(#SVGID_4_)" fill="#FFFFFF" d="M364.602,195.639c3.254-1.229,7.668-2.572,12.138-3.676
				c4.474-1.097,9.007-1.961,12.46-2.383c1.72-0.236,3.173-0.359,4.194-0.432c0.97-0.068,1.548-0.077,1.601-0.077
				c-5.039-20.258-14.31-39.255-27.641-35.923c-15.039,3.762-12.717,24.152-8.119,44.734c0.039-0.023,0.556-0.286,1.454-0.676
				C361.625,196.794,362.967,196.231,364.602,195.639"/>
			<path clip-path="url(#SVGID_4_)" fill="none" stroke="#000000" stroke-width="2" stroke-miterlimit="10" d="M364.602,195.639
				c3.254-1.229,7.668-2.572,12.138-3.676c4.474-1.097,9.007-1.961,12.46-2.383c1.72-0.236,3.173-0.359,4.194-0.432
				c0.97-0.068,1.548-0.077,1.601-0.077c-5.039-20.258-14.31-39.255-27.641-35.923c-15.039,3.762-12.717,24.152-8.119,44.734
				c0.039-0.023,0.556-0.286,1.454-0.676C361.625,196.794,362.967,196.231,364.602,195.639z"/>
			<path clip-path="url(#SVGID_4_)" fill="#FFFFFF" d="M359.225,197.885l0.092,0.373c-0.028-0.127-0.055-0.252-0.082-0.376
				C359.231,197.882,359.225,197.885,359.225,197.885"/>
			<path clip-path="url(#SVGID_4_)" fill="none" stroke="#000000" stroke-width="2" stroke-miterlimit="10" d="M359.225,197.885
				l0.092,0.373c-0.028-0.127-0.055-0.252-0.082-0.376C359.231,197.882,359.225,197.885,359.225,197.885z"/>
			<path clip-path="url(#SVGID_4_)" fill="#FFFFFF" d="M395.181,189.83c0.001,0,0.009-0.007,0.009-0.007l-0.094-0.375l-0.008,0.002
				C395.119,189.577,395.151,189.704,395.181,189.83"/>
			<path clip-path="url(#SVGID_4_)" fill="none" stroke="#000000" stroke-width="2" stroke-miterlimit="10" d="M395.181,189.83
				c0.001,0,0.009-0.007,0.009-0.007l-0.094-0.375l-0.008,0.002C395.119,189.577,395.151,189.704,395.181,189.83z"/>
			<path clip-path="url(#SVGID_4_)" fill="#FFFFFF" d="M395.096,189.448l-0.092-0.377h-0.01c0.032,0.127,0.063,0.251,0.094,0.379
				L395.096,189.448z"/>
			<path clip-path="url(#SVGID_4_)" fill="none" stroke="#000000" stroke-width="2" stroke-miterlimit="10" d="M395.096,189.448
				l-0.092-0.377h-0.01c0.032,0.127,0.063,0.251,0.094,0.379L395.096,189.448z"/>
			<path clip-path="url(#SVGID_4_)" d="M395.088,189.45c-0.031-0.128-0.062-0.252-0.094-0.379c-0.052,0-0.631,0.01-1.6,0.077
				c-1.022,0.073-2.474,0.197-4.195,0.433c-3.453,0.422-7.985,1.285-12.46,2.383c-4.469,1.103-8.883,2.446-12.137,3.675
				c-1.635,0.592-2.977,1.156-3.913,1.568c-0.898,0.389-1.415,0.652-1.455,0.676c0.028,0.124,0.055,0.249,0.083,0.376v0.004
				l0.093,0.378c0,0,0.592-0.006,1.613-0.077c1.019-0.071,2.469-0.198,4.192-0.432c3.454-0.422,7.984-1.287,12.457-2.385
				c4.473-1.108,8.886-2.447,12.141-3.677c1.634-0.593,2.976-1.156,3.914-1.564c0.892-0.393,1.407-0.653,1.454-0.676
				C395.15,189.704,395.118,189.577,395.088,189.45"/>
			<path clip-path="url(#SVGID_4_)" fill="none" stroke="#231F20" stroke-width="2" stroke-miterlimit="10" d="M395.088,189.45
				c-0.031-0.128-0.062-0.252-0.094-0.379c-0.052,0-0.631,0.01-1.6,0.077c-1.022,0.073-2.474,0.197-4.195,0.433
				c-3.453,0.422-7.985,1.285-12.46,2.383c-4.469,1.103-8.883,2.446-12.137,3.675c-1.635,0.592-2.977,1.156-3.913,1.568
				c-0.898,0.389-1.415,0.652-1.455,0.676c0.028,0.124,0.055,0.249,0.083,0.376v0.004l0.093,0.378c0,0,0.592-0.006,1.613-0.077
				c1.019-0.071,2.469-0.198,4.192-0.432c3.454-0.422,7.984-1.287,12.457-2.385c4.473-1.108,8.886-2.447,12.141-3.677
				c1.634-0.593,2.976-1.156,3.914-1.564c0.892-0.393,1.407-0.653,1.454-0.676C395.15,189.704,395.118,189.577,395.088,189.45z"/>
			<line clip-path="url(#SVGID_4_)" fill="#FFFFFF" x1="345.33" y1="163.825" x2="363.914" y2="154.448"/>
			<polygon clip-path="url(#SVGID_4_)" points="344.525,162.232 363.482,153.592 364.345,155.301 346.134,165.417 			"/>
			<path clip-path="url(#SVGID_4_)" fill="none" stroke="#000000" stroke-width="2" stroke-miterlimit="10" d="M339.125,165.416
				c0,0,19.706-36.736,23.384-27.678"/>
			<path clip-path="url(#SVGID_4_)" fill="none" stroke="#000000" stroke-width="2" stroke-miterlimit="10" d="M276.349,272.619
				c-0.128-5.186-7.13-22.112-7.13-22.112c-4.926-9.852-7.014-18.401-3.215-22.687c0.774-0.87,3.215-1.166,3.215-1.166"/>
			<rect x="311.222" y="258.284" clip-path="url(#SVGID_4_)" fill="#FFFFFF" width="22.815" height="10.374"/>
			
				<rect x="311.222" y="258.284" clip-path="url(#SVGID_4_)" fill="none" stroke="#000000" stroke-width="2" stroke-miterlimit="10" width="22.815" height="10.374"/>
			<path clip-path="url(#SVGID_4_)" fill="#FFFFFF" d="M325.222,266.322c-11.268,0-20.657,3.566-22.76,8.297h45.521
				C345.877,269.888,336.491,266.322,325.222,266.322"/>
			<path clip-path="url(#SVGID_4_)" fill="none" stroke="#000000" stroke-width="2" stroke-miterlimit="10" d="M325.222,266.322
				c-11.268,0-20.657,3.566-22.76,8.297h45.521C345.877,269.888,336.491,266.322,325.222,266.322z"/>
			<polygon clip-path="url(#SVGID_4_)" points="509.476,157.961 509.476,263.973 532.419,263.973 532.419,272.359 538.142,272.359 
				538.142,263.973 625.119,263.973 625.119,272.359 631.222,272.359 631.222,263.973 654.525,263.973 654.525,157.961 			"/>
			<rect x="517" y="164.5" clip-path="url(#SVGID_4_)" fill="#FFFFFF" width="129" height="91"/>
			
				<rect x="517" y="164.5" clip-path="url(#SVGID_4_)" fill="none" stroke="#000000" stroke-width="2" stroke-linecap="round" stroke-linejoin="round" stroke-miterlimit="10" width="129" height="91"/>
			
				<rect x="628" y="164.5" clip-path="url(#SVGID_4_)" fill="none" stroke="#000000" stroke-width="2" stroke-linecap="round" stroke-linejoin="round" stroke-miterlimit="10" width="18" height="91"/>
			
				<path clip-path="url(#SVGID_4_)" fill="none" stroke="#000000" stroke-width="2" stroke-linecap="round" stroke-linejoin="round" stroke-miterlimit="10" d="
				M642.614,243.708c0,2.429-1.971,4.396-4.396,4.396c-2.43,0-4.397-1.967-4.397-4.396s1.967-4.395,4.397-4.395
				C640.643,239.312,642.614,241.278,642.614,243.708z"/>
			<path clip-path="url(#SVGID_4_)" d="M618.534,239.926c-0.281,2.195-2.406,4.283-4.664,4.602c-26.709,3.704-52.299,3.704-79.01,0
				c-2.26-0.319-4.383-2.407-4.664-4.602c-2.496-19.777-2.496-39.791,0-59.566c0.281-2.198,2.404-4.283,4.664-4.604
				c26.711-3.702,52.301-3.702,79.01,0c2.258,0.321,4.383,2.406,4.664,4.604C621.03,200.135,621.03,220.149,618.534,239.926"/>
			<path clip-path="url(#SVGID_4_)" fill="#385E9D" d="M573.261,196.774c6.99,0,12.66,5.668,12.66,12.658
				c0,6.993-5.67,12.66-12.66,12.66c-6.992,0-12.66-5.667-12.66-12.66C560.601,202.442,566.269,196.774,573.261,196.774"/>
			<path clip-path="url(#SVGID_4_)" fill="#E6E6E6" d="M604.896,181.781h-57.917v26.851h4.663
				c3.574-8.276,12.142-13.96,22.152-13.96c10.006,0,18.578,5.684,22.148,13.96h8.954V181.781z M542.138,238.76h58.072v-26.849
				h-4.572c-3.573,8.273-12.143,13.957-22.151,13.957c-10.009,0-18.578-5.684-22.152-13.957h-9.197V238.76z M536.362,181.937h6.402
				v26.695h-6.402V181.937z M604.896,212.066h6.398v26.694h-6.398V212.066z"/>
			<path clip-path="url(#SVGID_4_)" fill="#E6E6E6" d="M564.774,201.919v16.077h7.182v-2.508c0,0,1.591,1.963,2.31,2.352
				c0.541,0.292,2.424,0.461,2.424,0.461s2.104-0.195,2.768-0.408c0.427-0.14,1.591-0.821,1.591-0.821l-0.101-7.004
				c0,0-2.248,0.971-3.629,0.766c-0.672-0.1-1.6-1.286-1.994-1.841c-0.479-0.673-1.328-3.03-1.328-3.03s-0.957-1.822-1.741-2.846
				c-0.759-1.002-2.503-1.198-2.503-1.198H564.774z"/>
			<path clip-path="url(#SVGID_4_)" fill="#E6E6E6" d="M580.897,202.283c0,0-4.646,0.009-5.014,4.038
				c-0.388,4.293,4.737,4.46,5.012,1.867L580.897,202.283z"/>
			<path clip-path="url(#SVGID_4_)" fill="#385E9D" d="M579.058,205.813c0.961,0,1.74,0.777,1.74,1.742
				c0,0.961-0.779,1.741-1.74,1.741c-0.963,0-1.742-0.78-1.742-1.741C577.316,206.59,578.095,205.813,579.058,205.813"/>
			<path clip-path="url(#SVGID_4_)" fill="none" stroke="#FFFFFF" stroke-miterlimit="10" d="M579.058,205.813
				c0.961,0,1.74,0.777,1.74,1.742c0,0.961-0.779,1.741-1.74,1.741c-0.963,0-1.742-0.78-1.742-1.741
				C577.316,206.59,578.095,205.813,579.058,205.813z"/>
			
				<polyline clip-path="url(#SVGID_4_)" fill="none" stroke="#000000" stroke-width="2" stroke-linejoin="round" stroke-miterlimit="10" points="
				517.632,110.491 539.603,160.774 562.239,110.491 			"/>
			<path clip-path="url(#SVGID_4_)" d="M523.739,115.179c0,2.589-2.1,4.688-4.687,4.688c-2.59,0-4.69-2.099-4.69-4.688
				s2.1-4.688,4.69-4.688C521.639,110.491,523.739,112.59,523.739,115.179"/>
			<path clip-path="url(#SVGID_4_)" d="M566.927,110.491c0,2.589-2.1,4.688-4.687,4.688c-2.59,0-4.69-2.099-4.69-4.688
				s2.1-4.688,4.69-4.688C564.827,105.803,566.927,107.902,566.927,110.491"/>
		</g>
	</g>
</g>
</svg>
