


<svg version="1.1" id="Layer_1" xmlns="http://www.w3.org/2000/svg" xmlns:xlink="http://www.w3.org/1999/xlink" x="0px" y="0px"
	 width="1024px" height="633px" viewBox="0 0 1024 633" enable-background="new 0 0 1024 633" xml:space="preserve">
<g>
	<g>
		<defs>
			<rect id="SVGID_5_" y="-4.781" width="1024" height="633"/>
		</defs>
		<clipPath id="SVGID_2_">
			<use xlink:href="#SVGID_5_"  overflow="visible"/>
		</clipPath>
		<rect x="137" y="79.219" clip-path="url(#SVGID_2_)" fill="#DEE4F4" width="748" height="375"/>
		<rect x="832" y="79.219" clip-path="url(#SVGID_2_)" fill="#E8ECF7" width="30" height="373"/>
		<rect x="792" y="79.219" clip-path="url(#SVGID_2_)" fill="#E8ECF7" width="30" height="373"/>
		<rect x="752" y="79.219" clip-path="url(#SVGID_2_)" fill="#E8ECF7" width="30" height="373"/>
		<rect x="712" y="79.219" clip-path="url(#SVGID_2_)" fill="#E8ECF7" width="30" height="373"/>
		<rect x="672" y="79.219" clip-path="url(#SVGID_2_)" fill="#E8ECF7" width="30" height="373"/>
		<rect x="632" y="79.219" clip-path="url(#SVGID_2_)" fill="#E8ECF7" width="30" height="373"/>
		<rect x="592" y="79.219" clip-path="url(#SVGID_2_)" fill="#E8ECF7" width="30" height="373"/>
		<rect x="552" y="79.219" clip-path="url(#SVGID_2_)" fill="#E8ECF7" width="30" height="373"/>
		<rect x="512" y="79.219" clip-path="url(#SVGID_2_)" fill="#E8ECF7" width="30" height="373"/>
		<rect x="472" y="79.219" clip-path="url(#SVGID_2_)" fill="#E8ECF7" width="30" height="373"/>
		<rect x="432" y="79.219" clip-path="url(#SVGID_2_)" fill="#E8ECF7" width="30" height="373"/>
		<rect x="392" y="79.219" clip-path="url(#SVGID_2_)" fill="#E8ECF7" width="30" height="373"/>
		<rect x="352" y="79.219" clip-path="url(#SVGID_2_)" fill="#E8ECF7" width="30" height="373"/>
		<rect x="312" y="79.219" clip-path="url(#SVGID_2_)" fill="#E8ECF7" width="30" height="373"/>
		<rect x="272" y="79.219" clip-path="url(#SVGID_2_)" fill="#E8ECF7" width="30" height="373"/>
		<rect x="232" y="79.219" clip-path="url(#SVGID_2_)" fill="#E8ECF7" width="30" height="373"/>
		<rect x="192" y="79.219" clip-path="url(#SVGID_2_)" fill="#E8ECF7" width="30" height="373"/>
		<rect x="152" y="79.219" clip-path="url(#SVGID_2_)" fill="#E8ECF7" width="30" height="373"/>
		<path clip-path="url(#SVGID_2_)" fill="#FFFFFF" d="M125,453.219h774H125z"/>
		
			<line clip-path="url(#SVGID_2_)" fill="none" stroke="#000000" stroke-width="2" stroke-miterlimit="10" x1="125" y1="453.219" x2="899" y2="453.219"/>
		<rect x="266" y="313.219" clip-path="url(#SVGID_2_)" fill="#FFFFFF" width="492" height="177"/>
		
			<rect x="266" y="313.219" clip-path="url(#SVGID_2_)" fill="none" stroke="#000000" stroke-width="2" stroke-linecap="round" stroke-linejoin="round" stroke-miterlimit="10" width="492" height="177"/>
		<rect x="275" y="324.219" clip-path="url(#SVGID_2_)" fill="#FFFFFF" width="232" height="47"/>
		
			<rect x="275" y="324.219" clip-path="url(#SVGID_2_)" fill="none" stroke="#000000" stroke-width="2" stroke-miterlimit="10" width="232" height="47"/>
		<rect x="275" y="378.219" clip-path="url(#SVGID_2_)" fill="#FFFFFF" width="232" height="47"/>
		
			<rect x="275" y="378.219" clip-path="url(#SVGID_2_)" fill="none" stroke="#000000" stroke-width="2" stroke-miterlimit="10" width="232" height="47"/>
		<rect x="275" y="431.219" clip-path="url(#SVGID_2_)" fill="#FFFFFF" width="232" height="47"/>
		
			<rect x="275" y="431.219" clip-path="url(#SVGID_2_)" fill="none" stroke="#000000" stroke-width="2" stroke-miterlimit="10" width="232" height="47"/>
		<rect x="514" y="324.219" clip-path="url(#SVGID_2_)" fill="#FFFFFF" width="232" height="47"/>
		
			<rect x="514" y="324.219" clip-path="url(#SVGID_2_)" fill="none" stroke="#000000" stroke-width="2" stroke-miterlimit="10" width="232" height="47"/>
		<rect x="514" y="378.219" clip-path="url(#SVGID_2_)" fill="#FFFFFF" width="232" height="47"/>
		
			<rect x="514" y="378.219" clip-path="url(#SVGID_2_)" fill="none" stroke="#000000" stroke-width="2" stroke-miterlimit="10" width="232" height="47"/>
		<rect x="514" y="431.219" clip-path="url(#SVGID_2_)" fill="#FFFFFF" width="232" height="47"/>
		
			<rect x="514" y="431.219" clip-path="url(#SVGID_2_)" fill="none" stroke="#000000" stroke-width="2" stroke-miterlimit="10" width="232" height="47"/>
		<rect x="373" y="329.219" clip-path="url(#SVGID_2_)" fill="#FFFFFF" width="44" height="8"/>
		
			<rect x="373" y="329.219" clip-path="url(#SVGID_2_)" fill="none" stroke="#000000" stroke-width="2" stroke-miterlimit="10" width="44" height="8"/>
		<rect x="373" y="384.219" clip-path="url(#SVGID_2_)" fill="#FFFFFF" width="44" height="8"/>
		
			<rect x="373" y="384.219" clip-path="url(#SVGID_2_)" fill="none" stroke="#000000" stroke-width="2" stroke-miterlimit="10" width="44" height="8"/>
		<rect x="374" y="440.219" clip-path="url(#SVGID_2_)" fill="#FFFFFF" width="44" height="8"/>
		
			<rect x="374" y="440.219" clip-path="url(#SVGID_2_)" fill="none" stroke="#000000" stroke-width="2" stroke-miterlimit="10" width="44" height="8"/>
		<rect x="608" y="329.219" clip-path="url(#SVGID_2_)" fill="#FFFFFF" width="44" height="8"/>
		
			<rect x="608" y="329.219" clip-path="url(#SVGID_2_)" fill="none" stroke="#000000" stroke-width="2" stroke-miterlimit="10" width="44" height="8"/>
		<rect x="608" y="384.219" clip-path="url(#SVGID_2_)" fill="#FFFFFF" width="44" height="8"/>
		
			<rect x="608" y="384.219" clip-path="url(#SVGID_2_)" fill="none" stroke="#000000" stroke-width="2" stroke-miterlimit="10" width="44" height="8"/>
		<rect x="608" y="440.219" clip-path="url(#SVGID_2_)" fill="#FFFFFF" width="44" height="8"/>
		
			<rect x="608" y="440.219" clip-path="url(#SVGID_2_)" fill="none" stroke="#000000" stroke-width="2" stroke-miterlimit="10" width="44" height="8"/>
		<polygon clip-path="url(#SVGID_2_)" fill="#7F7F7F" points="690.184,284.219 331.364,284.219 266,313.219 756.333,313.219 		"/>
		
			<polygon clip-path="url(#SVGID_2_)" fill="none" stroke="#000000" stroke-width="2" stroke-linejoin="round" stroke-miterlimit="10" points="
			690.184,284.219 331.364,284.219 266,313.219 756.333,313.219 		"/>
		<rect x="314" y="122.219" clip-path="url(#SVGID_2_)" fill="#FFFFFF" width="250" height="181"/>
		
			<rect x="314" y="122.219" clip-path="url(#SVGID_2_)" fill="none" stroke="#000000" stroke-width="2" stroke-miterlimit="10" width="250" height="181"/>
		<rect x="325" y="133.219" clip-path="url(#SVGID_2_)" fill="#FFFFFF" width="180" height="150"/>
		
			<rect x="325" y="133.219" clip-path="url(#SVGID_2_)" fill="none" stroke="#000000" stroke-width="2" stroke-linejoin="round" stroke-miterlimit="10" width="180" height="150"/>
		<path clip-path="url(#SVGID_2_)" fill="#F9F4F1" d="M514.031,282.219v-149V282.219z"/>
		
			<line clip-path="url(#SVGID_2_)" fill="none" stroke="#000000" stroke-width="2" stroke-linecap="round" stroke-linejoin="round" stroke-miterlimit="10" x1="514.031" y1="133.219" x2="514.031" y2="282.219"/>
		<rect x="514" y="183.219" clip-path="url(#SVGID_2_)" fill="#FFFFFF" width="50" height="75"/>
		
			<rect x="514" y="183.219" clip-path="url(#SVGID_2_)" fill="none" stroke="#000000" stroke-width="2" stroke-linecap="round" stroke-linejoin="round" stroke-miterlimit="10" width="50" height="75"/>
		<rect x="514" y="275.219" clip-path="url(#SVGID_2_)" fill="#F9F4F1" width="50" height="8"/>
		
			<rect x="514" y="275.219" clip-path="url(#SVGID_2_)" fill="none" stroke="#000000" stroke-width="2" stroke-linecap="round" stroke-linejoin="round" stroke-miterlimit="10" width="50" height="8"/>
		<rect x="514" y="133.219" clip-path="url(#SVGID_2_)" fill="#FFFFFF" width="50" height="25"/>
		
			<rect x="514" y="133.219" clip-path="url(#SVGID_2_)" fill="none" stroke="#000000" stroke-width="2" stroke-linecap="round" stroke-linejoin="round" stroke-miterlimit="10" width="50" height="25"/>
		<g clip-path="url(#SVGID_2_)">
			<defs>
				<rect id="SVGID_7_" y="-4.781" width="1024" height="633"/>
			</defs>
			<clipPath id="SVGID_4_">
				<use xlink:href="#SVGID_7_"  overflow="visible"/>
			</clipPath>
			<path clip-path="url(#SVGID_4_)" d="M494.557,266.143c-0.518,4.389-4.686,8.553-9.191,9.189
				c-48.254,6.651-94.795,6.651-143.061,0c-4.49-0.636-8.674-4.8-9.176-9.189c-4.279-37.753-4.279-75.879,0-113.634
				c0.502-4.387,4.686-8.554,9.176-9.191c48.266-6.651,94.807-6.651,143.061,0c4.505,0.637,8.673,4.804,9.191,9.191
				C498.84,190.264,498.84,228.39,494.557,266.143"/>
			<path clip-path="url(#SVGID_4_)" fill="none" stroke="#F5F5EF" stroke-width="2" stroke-miterlimit="10" d="M494.557,266.143
				c-0.518,4.389-4.686,8.553-9.191,9.189c-48.254,6.651-94.795,6.651-143.061,0c-4.49-0.636-8.674-4.8-9.176-9.189
				c-4.279-37.753-4.279-75.879,0-113.634c0.502-4.387,4.686-8.554,9.176-9.191c48.266-6.651,94.807-6.651,143.061,0
				c4.505,0.637,8.673,4.804,9.191,9.191C498.84,190.264,498.84,228.39,494.557,266.143z"/>
			<path clip-path="url(#SVGID_4_)" fill="#FFFFFF" d="M391.08,206.79h1.572v-9.84h-1.572v-2.82l7.511,0.025
				c0.7,0,1.334,0.121,1.918,0.367c0.584,0.25,1.077,0.583,1.504,1.013c0.422,0.423,0.739,0.912,0.981,1.484
				c0.23,0.562,0.344,1.167,0.344,1.806c0,0.74-0.118,1.363-0.391,1.851c-0.258,0.487-0.633,0.879-1.109,1.178
				c0.505,0.324,0.912,0.729,1.205,1.208c0.295,0.474,0.441,1.056,0.441,1.741c0,0.7-0.117,1.34-0.359,1.923
				c-0.243,0.583-0.571,1.089-0.983,1.512c-0.418,0.423-0.918,0.75-1.486,0.988c-0.563,0.231-1.184,0.347-1.84,0.347h-7.736V206.79z
				 M396.027,196.949v3.458h2.422c0.191,0,0.375-0.048,0.543-0.145c0.168-0.091,0.316-0.219,0.441-0.38
				c0.131-0.157,0.229-0.338,0.297-0.539c0.078-0.2,0.117-0.408,0.117-0.624c0-0.211-0.039-0.422-0.117-0.628
				c-0.068-0.212-0.166-0.404-0.297-0.576c-0.125-0.168-0.273-0.301-0.441-0.412c-0.168-0.101-0.352-0.154-0.543-0.154H396.027z
				 M396.027,203.193v3.596h2.564c0.196,0,0.389-0.053,0.555-0.158c0.176-0.1,0.322-0.229,0.447-0.398
				c0.129-0.169,0.231-0.361,0.309-0.581c0.07-0.223,0.104-0.446,0.104-0.688c0-0.248-0.034-0.481-0.104-0.698
				c-0.078-0.212-0.184-0.397-0.316-0.56c-0.118-0.156-0.27-0.279-0.446-0.374c-0.175-0.091-0.355-0.139-0.549-0.139H396.027z"/>
			<path clip-path="url(#SVGID_4_)" fill="#FFFFFF" d="M404.554,194.154h8.155c0.795,0,1.496,0.117,2.127,0.356
				c0.619,0.234,1.152,0.552,1.574,0.951c0.426,0.395,0.754,0.854,0.988,1.383c0.219,0.526,0.342,1.075,0.342,1.642
				c0,0.52-0.063,0.98-0.174,1.369c-0.115,0.395-0.273,0.746-0.488,1.049c-0.211,0.307-0.483,0.576-0.789,0.811
				c-0.307,0.234-0.67,0.447-1.067,0.638c0.346,0.174,0.645,0.444,0.914,0.807c0.262,0.366,0.459,0.834,0.602,1.411l0.517,2.001
				h1.27l0.018,3h-4.473l-0.611-3.658c-0.053-0.437-0.151-0.812-0.28-1.125c-0.119-0.314-0.293-0.576-0.504-0.776
				c-0.205-0.196-0.466-0.344-0.763-0.438c-0.307-0.098-0.657-0.147-1.075-0.147h-1.312v3.361h1.414v2.783h-6.385v-2.783h1.592
				v-9.84h-1.592V194.154z M409.525,196.949v3.734h2.029c0.385,0,0.731-0.032,1.039-0.105c0.303-0.074,0.571-0.187,0.786-0.336
				c0.222-0.151,0.39-0.347,0.515-0.579c0.117-0.228,0.176-0.499,0.176-0.819c0-0.598-0.211-1.065-0.645-1.399
				c-0.418-0.328-1.043-0.496-1.871-0.496H409.525z"/>
			<polygon clip-path="url(#SVGID_4_)" fill="#FFFFFF" points="422.131,206.789 423.736,206.789 423.736,196.85 421.858,196.85 
				421.858,198.844 418.541,198.844 418.541,194.154 432.574,194.154 432.574,198.844 429.24,198.844 429.24,196.85 427.108,196.85 
				427.108,206.789 428.731,206.789 428.731,209.572 422.131,209.572 			"/>
			<path clip-path="url(#SVGID_4_)" fill="#FFFFFF" d="M356.795,213.405h5.832v3.094h-1.074v10.577
				c-0.149,0.557-0.371,1.059-0.654,1.512c-0.278,0.459-0.565,0.873-0.84,1.25c-0.266,0.375-0.653,0.838-1.149,1.414l-2.847-0.158
				c0.408-0.608,0.718-1.108,0.951-1.51c0.22-0.393,0.451-0.831,0.687-1.31c0.223-0.475,0.408-0.983,0.535-1.527v-10.248h-1.441
				V213.405z"/>
			<path clip-path="url(#SVGID_4_)" fill="#FFFFFF" d="M370.441,229.104c-0.689,0-1.365-0.092-2.002-0.281
				c-0.633-0.195-1.23-0.459-1.775-0.805c-0.561-0.343-1.063-0.76-1.508-1.244c-0.455-0.486-0.834-1.024-1.154-1.623
				c-0.323-0.589-0.575-1.223-0.747-1.904c-0.175-0.682-0.271-1.391-0.271-2.126c0-0.741,0.096-1.454,0.271-2.136
				c0.172-0.681,0.424-1.316,0.747-1.908c0.32-0.594,0.699-1.136,1.154-1.62c0.445-0.482,0.947-0.898,1.508-1.247
				c0.545-0.345,1.142-0.612,1.775-0.804c0.637-0.186,1.313-0.277,2.002-0.277c0.711,0,1.371,0.091,2.021,0.277
				c0.639,0.192,1.231,0.459,1.78,0.804c0.562,0.349,1.056,0.765,1.51,1.247c0.451,0.484,0.834,1.026,1.162,1.62
				c0.326,0.592,0.574,1.227,0.74,1.908c0.18,0.682,0.271,1.395,0.271,2.136c0,0.733-0.091,1.441-0.271,2.122
				c-0.166,0.683-0.414,1.319-0.74,1.908c-0.328,0.599-0.711,1.137-1.162,1.623c-0.454,0.484-0.948,0.901-1.51,1.244
				c-0.549,0.346-1.141,0.61-1.78,0.805C371.812,229.011,371.152,229.104,370.441,229.104 M370.441,225.907
				c0.596,0,1.141-0.127,1.635-0.377c0.49-0.259,0.902-0.605,1.265-1.043c0.346-0.435,0.621-0.946,0.813-1.521
				c0.191-0.579,0.287-1.197,0.287-1.846c0-0.657-0.102-1.282-0.297-1.866c-0.193-0.581-0.463-1.091-0.828-1.527
				c-0.35-0.436-0.779-0.786-1.268-1.04c-0.486-0.252-1.023-0.383-1.607-0.383c-0.582,0-1.117,0.131-1.607,0.383
				c-0.489,0.254-0.899,0.604-1.254,1.04c-0.356,0.436-0.625,0.946-0.83,1.527c-0.205,0.584-0.307,1.209-0.307,1.866
				c0,0.649,0.102,1.267,0.307,1.846c0.205,0.575,0.474,1.086,0.83,1.521c0.355,0.438,0.765,0.784,1.254,1.043
				C369.324,225.78,369.859,225.907,370.441,225.907"/>
			<path clip-path="url(#SVGID_4_)" fill="#FFFFFF" d="M378.697,213.405h6.18v2.8h-1.416v6.401c0,0.585,0.07,1.078,0.203,1.487
				c0.129,0.401,0.316,0.733,0.551,0.995c0.242,0.253,0.523,0.448,0.845,0.564c0.324,0.121,0.682,0.176,1.071,0.176
				c0.392,0,0.763-0.048,1.097-0.151c0.319-0.099,0.608-0.279,0.836-0.527c0.242-0.248,0.41-0.574,0.539-0.987
				c0.131-0.413,0.192-0.939,0.192-1.557v-6.401h-1.641v-2.8h6.191v2.8h-1.236v6c0,1.09-0.148,2.054-0.469,2.894
				c-0.31,0.848-0.736,1.558-1.285,2.143c-0.543,0.585-1.185,1.025-1.926,1.335c-0.736,0.301-1.519,0.458-2.363,0.458
				c-0.83,0-1.609-0.155-2.34-0.456c-0.724-0.298-1.355-0.735-1.898-1.314c-0.537-0.566-0.961-1.268-1.27-2.09
				c-0.322-0.814-0.47-1.748-0.47-2.785v-6.185h-1.391V213.405z"/>
			<path clip-path="url(#SVGID_4_)" fill="#FFFFFF" d="M394.578,213.405h8.157c0.795,0,1.509,0.121,2.129,0.358
				c0.619,0.241,1.152,0.558,1.574,0.955c0.433,0.392,0.75,0.854,0.984,1.382c0.233,0.521,0.34,1.074,0.34,1.64
				c0,0.528-0.057,0.979-0.164,1.376c-0.117,0.396-0.281,0.74-0.49,1.048c-0.215,0.305-0.477,0.57-0.795,0.811
				c-0.309,0.227-0.656,0.441-1.065,0.634c0.35,0.175,0.653,0.442,0.914,0.809c0.274,0.361,0.469,0.828,0.606,1.41l0.516,2h1.269
				l0.029,2.997h-4.484l-0.613-3.657c-0.055-0.439-0.149-0.807-0.27-1.121c-0.129-0.315-0.293-0.579-0.51-0.78
				c-0.21-0.195-0.459-0.341-0.765-0.439c-0.309-0.098-0.662-0.144-1.074-0.144h-1.309v3.361h1.414v2.78h-6.393v-2.78h1.596v-9.84
				h-1.596V213.405z M399.557,216.205v3.731h2.021c0.387,0,0.735-0.031,1.042-0.101c0.31-0.076,0.57-0.187,0.794-0.341
				c0.215-0.147,0.391-0.341,0.506-0.57c0.125-0.235,0.178-0.504,0.178-0.824c0-0.602-0.211-1.065-0.633-1.393
				c-0.435-0.332-1.056-0.502-1.887-0.502H399.557z"/>
			<polygon clip-path="url(#SVGID_4_)" fill="#FFFFFF" points="419.262,213.405 425.121,213.405 425.121,216.205 423.871,216.205 
				423.871,228.825 420.491,228.825 414.075,218.861 414.075,226.045 415.367,226.045 415.367,228.825 409.518,228.825 
				409.518,226.045 410.791,226.045 410.791,216.205 409.533,216.205 409.533,213.405 414.2,213.405 420.571,223.51 
				420.571,216.205 419.262,216.205 			"/>
			<path clip-path="url(#SVGID_4_)" fill="#FFFFFF" d="M434.096,226.045h1.537l-0.686-2.217h-4.744l-0.693,2.217h1.637v2.78h-5.852
				v-2.78h1.145l4.199-12.639h4.082l4.107,12.639h1.117v2.78h-5.849V226.045z M431.006,221.221h3.113l-1.56-5.016L431.006,221.221z"
				/>
			<path clip-path="url(#SVGID_4_)" fill="#FFFFFF" d="M448.643,226.045h1.531l-0.686-2.217h-4.744l-0.685,2.217h1.627v2.78h-5.85
				v-2.78h1.15l4.198-12.639h4.08l4.107,12.639h1.121v2.78h-5.849V226.045z M445.543,221.221h3.117l-1.562-5.016L445.543,221.221z"
				/>
			<path clip-path="url(#SVGID_4_)" fill="#FFFFFF" d="M455.244,213.405h6.605v2.8h-1.626v9.84h3.353
				c0.094,0,0.174-0.026,0.27-0.077c0.074-0.049,0.15-0.119,0.214-0.199c0.071-0.085,0.123-0.169,0.161-0.262
				c0.037-0.096,0.066-0.193,0.066-0.282v-2.058h3.285v5.658h-12.328v-2.78h1.604v-9.84h-1.604V213.405z"/>
			<path clip-path="url(#SVGID_4_)" fill="#F9F4F1" d="M658.973,273.977c12.366-0.991,23.159-6.899,30.614-15.652l-68.401-58.255
				c-7.454,8.753-11.569,20.349-10.579,32.715C612.588,257.516,634.244,275.958,658.973,273.977"/>
			
				<path clip-path="url(#SVGID_4_)" fill="none" stroke="#000000" stroke-width="2" stroke-linecap="round" stroke-linejoin="round" stroke-miterlimit="10" d="
				M658.973,273.977c12.366-0.991,23.159-6.899,30.614-15.652l-68.401-58.255c-7.454,8.753-11.569,20.349-10.579,32.715
				C612.588,257.516,634.244,275.958,658.973,273.977z"/>
			<path clip-path="url(#SVGID_4_)" fill="#F9F4F1" d="M643.95,169.951c-12.325,0.281-23.37,5.532-31.264,13.794l64.565,61.682
				c7.894-8.262,12.635-19.535,12.354-31.86C689.042,188.915,668.601,169.388,643.95,169.951"/>
			
				<path clip-path="url(#SVGID_4_)" fill="none" stroke="#000000" stroke-width="2" stroke-linecap="round" stroke-linejoin="round" stroke-miterlimit="10" d="
				M643.95,169.951c-12.325,0.281-23.37,5.532-31.264,13.794l64.565,61.682c7.894-8.262,12.635-19.535,12.354-31.86
				C689.042,188.915,668.601,169.388,643.95,169.951z"/>
			<path clip-path="url(#SVGID_4_)" fill="#F9F4F1" d="M612.529,293.062c0,2.491-2.02,4.51-4.51,4.51s-4.51-2.019-4.51-4.51
				c0-2.49,2.02-4.509,4.51-4.509S612.529,290.572,612.529,293.062"/>
			
				<circle clip-path="url(#SVGID_4_)" fill="none" stroke="#000000" stroke-width="2" stroke-linecap="round" stroke-linejoin="round" stroke-miterlimit="10" cx="608.019" cy="293.062" r="4.51"/>
			<path clip-path="url(#SVGID_4_)" fill="#F9F4F1" d="M703.202,293.062c0,2.491-2.019,4.51-4.509,4.51
				c-2.491,0-4.511-2.019-4.511-4.51c0-2.49,2.02-4.509,4.511-4.509C701.183,288.553,703.202,290.572,703.202,293.062"/>
			
				<circle clip-path="url(#SVGID_4_)" fill="none" stroke="#000000" stroke-width="2" stroke-linecap="round" stroke-linejoin="round" stroke-miterlimit="10" cx="698.692" cy="293.062" r="4.51"/>
			
				<path clip-path="url(#SVGID_4_)" fill="none" stroke="#000000" stroke-width="2" stroke-linecap="round" stroke-linejoin="round" stroke-miterlimit="10" d="
				M677.767,244.881l-27.792-22.625L677.767,244.881c1.438-1.561,2.768-3.222,3.974-4.975L649.996,222.2l31.745,17.706
				c1.225-1.779,2.324-3.65,3.285-5.603l-35.021-12.16l35.021,12.16c0.975-1.981,1.807-4.045,2.484-6.178l-37.506-6.041
				l37.506,6.041c0.685-2.161,1.213-4.391,1.562-6.68l-39.077,0.582l39.077-0.582c0.343-2.227,0.521-4.508,0.521-6.833
				c0-0.078-0.002-0.156-0.003-0.234l-39.615,7.593l39.615-7.593c-0.012-2.492-0.23-4.936-0.635-7.315l-39.009,14.858l39.009-14.858
				c-0.432-2.535-1.078-4.996-1.917-7.366l-37.13,22.179l37.13-22.179c-0.884-2.499-1.985-4.897-3.28-7.169l-33.895,29.311
				l33.895-29.311c-1.354-2.373-2.918-4.607-4.668-6.683l-29.277,35.964l29.277-35.964c-1.811-2.147-3.819-4.122-5.999-5.894
				l-23.334,41.839l23.334-41.839c-2.233-1.817-4.646-3.421-7.206-4.783L649.7,221.779l16.185-46.611
				c-2.591-1.379-5.333-2.51-8.197-3.361l-8.046,49.972l8.046-49.972c-2.848-0.847-5.816-1.418-8.872-1.681l0.767,51.664
				l-0.767-51.664c-1.278-0.109-2.57-0.17-3.879-0.17c-1.789,0-3.554,0.11-5.288,0.313l9.88,51.54l-9.88-51.54
				c-3.123,0.37-6.147,1.057-9.039,2.036l18.868,49.534l-18.868-49.534c-2.973,1.006-5.803,2.32-8.458,3.898l27.281,45.673
				l-27.281-45.673"/>
			
				<path clip-path="url(#SVGID_4_)" fill="none" stroke="#000000" stroke-width="2" stroke-linecap="round" stroke-linejoin="round" stroke-miterlimit="10" d="
				M622.108,199.152l27.793,22.625L622.108,199.152c-1.438,1.56-2.767,3.221-3.974,4.975l31.746,17.706l-31.746-17.706
				c-1.225,1.779-2.323,3.65-3.285,5.602l35.022,12.161l-35.022-12.161c-0.974,1.981-1.807,4.045-2.484,6.179l37.506,6.04
				l-37.506-6.04c-0.686,2.16-1.212,4.39-1.564,6.679l39.079-0.581l-39.079,0.581c-0.341,2.227-0.519,4.51-0.519,6.833
				c0,0.078,0.003,0.157,0.003,0.235l39.616-7.594l-39.616,7.594c0.012,2.492,0.23,4.935,0.635,7.315l39.01-14.858l-39.01,14.858
				c0.433,2.534,1.078,4.996,1.917,7.366l37.13-22.18l-37.13,22.18c0.885,2.498,1.986,4.896,3.281,7.168l33.894-29.31l-33.894,29.31
				c1.352,2.373,2.918,4.607,4.667,6.683l29.278-35.964l-29.278,35.964c1.81,2.148,3.819,4.122,6,5.895l23.333-41.839
				l-23.333,41.839c2.233,1.817,4.645,3.42,7.206,4.783l16.184-46.612l-16.184,46.612c2.591,1.378,5.333,2.509,8.195,3.36
				l8.048-49.972l-8.048,49.972c2.85,0.848,5.818,1.419,8.873,1.681l-0.767-51.663l0.767,51.663c1.279,0.111,2.571,0.17,3.879,0.17
				c1.79,0,3.555-0.109,5.288-0.313l-9.879-51.54l9.879,51.54c3.123-0.369,6.148-1.055,9.038-2.034l-18.866-49.535l18.866,49.535
				c2.974-1.007,5.805-2.322,8.46-3.899l-27.282-45.674l27.282,45.674"/>
			
				<rect x="643.434" y="167.449" transform="matrix(0.7238 -0.69 0.69 0.7238 25.5115 509.3112)" clip-path="url(#SVGID_4_)" fill="#F9F4F1" width="10.92" height="110.684"/>
			
				<rect x="643.434" y="167.449" transform="matrix(0.7238 -0.69 0.69 0.7238 25.5115 509.3112)" clip-path="url(#SVGID_4_)" fill="none" stroke="#000000" stroke-width="2" stroke-linecap="round" stroke-linejoin="round" stroke-miterlimit="10" width="10.92" height="110.684"/>
			<path clip-path="url(#SVGID_4_)" fill="#F9F4F1" d="M655.967,221.853c0,3.67-2.975,6.646-6.646,6.646
				c-3.67,0-6.646-2.976-6.646-6.646s2.976-6.645,6.646-6.645C652.992,215.208,655.967,218.183,655.967,221.853"/>
			
				<circle clip-path="url(#SVGID_4_)" fill="none" stroke="#000000" stroke-width="2" stroke-linecap="round" stroke-linejoin="round" stroke-miterlimit="10" cx="649.321" cy="221.853" r="6.646"/>
			<line clip-path="url(#SVGID_4_)" fill="#F9F4F1" x1="603.51" y1="298.997" x2="650.271" y2="222.328"/>
			
				<line clip-path="url(#SVGID_4_)" fill="none" stroke="#000000" stroke-width="2" stroke-linecap="round" stroke-linejoin="round" stroke-miterlimit="10" x1="603.51" y1="298.997" x2="650.271" y2="222.328"/>
			<path clip-path="url(#SVGID_4_)" fill="#F9F4F1" d="M603.508,300.184c-0.21,0-0.422-0.056-0.615-0.174
				c-0.561-0.342-0.738-1.071-0.397-1.631l46.762-76.669c0.341-0.56,1.07-0.736,1.631-0.395c0.559,0.342,0.737,1.072,0.394,1.631
				l-46.759,76.669C604.3,299.981,603.908,300.184,603.508,300.184"/>
			
				<path clip-path="url(#SVGID_4_)" fill="none" stroke="#000000" stroke-width="2" stroke-linecap="round" stroke-linejoin="round" stroke-miterlimit="10" d="
				M603.508,300.184c-0.21,0-0.422-0.056-0.615-0.174c-0.561-0.342-0.738-1.071-0.397-1.631l46.762-76.669
				c0.341-0.56,1.07-0.736,1.631-0.395c0.559,0.342,0.737,1.072,0.394,1.631l-46.759,76.669
				C604.3,299.981,603.908,300.184,603.508,300.184z"/>
			<line clip-path="url(#SVGID_4_)" fill="#F9F4F1" x1="649.713" y1="222.389" x2="703.202" y2="299.708"/>
			
				<line clip-path="url(#SVGID_4_)" fill="none" stroke="#000000" stroke-width="2" stroke-linecap="round" stroke-linejoin="round" stroke-miterlimit="10" x1="649.713" y1="222.389" x2="703.202" y2="299.708"/>
			<path clip-path="url(#SVGID_4_)" fill="#F9F4F1" d="M703.204,300.896c-0.377,0-0.747-0.178-0.978-0.512l-53.49-77.32
				c-0.372-0.538-0.237-1.278,0.302-1.651c0.539-0.372,1.278-0.238,1.651,0.301l53.49,77.32c0.373,0.539,0.238,1.278-0.302,1.652
				C703.672,300.828,703.436,300.896,703.204,300.896"/>
			
				<path clip-path="url(#SVGID_4_)" fill="none" stroke="#000000" stroke-width="2" stroke-linecap="round" stroke-linejoin="round" stroke-miterlimit="10" d="
				M703.204,300.896c-0.377,0-0.747-0.178-0.978-0.512l-53.49-77.32c-0.372-0.538-0.237-1.278,0.302-1.651
				c0.539-0.372,1.278-0.238,1.651,0.301l53.49,77.32c0.373,0.539,0.238,1.278-0.302,1.652
				C703.672,300.828,703.436,300.896,703.204,300.896z"/>
			<path clip-path="url(#SVGID_4_)" fill="#F9F4F1" d="M608.02,298.997c0,2.491-2.019,4.509-4.51,4.509
				c-2.49,0-4.51-2.018-4.51-4.509s2.02-4.51,4.51-4.51C606,294.487,608.02,296.506,608.02,298.997"/>
			
				<circle clip-path="url(#SVGID_4_)" fill="none" stroke="#000000" stroke-width="2" stroke-linecap="round" stroke-linejoin="round" stroke-miterlimit="10" cx="603.51" cy="298.997" r="4.51"/>
			<path clip-path="url(#SVGID_4_)" fill="#F9F4F1" d="M707.712,299.708c0,2.491-2.019,4.51-4.51,4.51
				c-2.49,0-4.509-2.019-4.509-4.51c0-2.491,2.019-4.509,4.509-4.509C705.693,295.199,707.712,297.217,707.712,299.708"/>
			
				<circle clip-path="url(#SVGID_4_)" fill="none" stroke="#000000" stroke-width="2" stroke-linecap="round" stroke-linejoin="round" stroke-miterlimit="10" cx="703.202" cy="299.708" r="4.51"/>
		</g>
	</g>
</g>
</svg>
