


<svg version="1.1" id="Layer_1" xmlns="http://www.w3.org/2000/svg" xmlns:xlink="http://www.w3.org/1999/xlink" x="0px" y="0px"
	 width="1024px" height="630px" viewBox="0 0 1024 630" enable-background="new 0 0 1024 630" xml:space="preserve">
<g>
	<g>
		<defs>
			<rect id="SVGID_9_" y="-1.5" width="1024" height="633"/>
		</defs>
		<clipPath id="SVGID_2_">
			<use xlink:href="#SVGID_9_"  overflow="visible"/>
		</clipPath>
		<rect x="138" y="81.5" clip-path="url(#SVGID_2_)" fill="#FBD7CE" width="748" height="375"/>
		<path clip-path="url(#SVGID_2_)" fill="#FFFFFF" d="M125,456.5h774H125z"/>
		
			<line clip-path="url(#SVGID_2_)" fill="none" stroke="#000000" stroke-width="2" stroke-miterlimit="10" x1="125" y1="456.5" x2="899" y2="456.5"/>
		<rect x="375" y="317.5" clip-path="url(#SVGID_2_)" fill="#FFFFFF" width="274" height="16"/>
		
			<rect x="375" y="317.5" clip-path="url(#SVGID_2_)" fill="none" stroke="#000000" stroke-width="2" stroke-linecap="round" stroke-linejoin="round" stroke-miterlimit="10" width="274" height="16"/>
		<polygon clip-path="url(#SVGID_2_)" fill="#7F7F7F" points="593.724,273.5 429.321,273.5 374.8,317.5 649.201,317.5 		"/>
		
			<polygon clip-path="url(#SVGID_2_)" fill="none" stroke="#000000" stroke-width="2" stroke-linecap="round" stroke-linejoin="round" stroke-miterlimit="10" points="
			593.724,273.5 429.321,273.5 374.8,317.5 649.201,317.5 		"/>
		<polygon clip-path="url(#SVGID_2_)" fill="#FFFFFF" points="404,103.5 404,278.306 404,310.5 624,310.5 624,278.306 624,103.5 		
			"/>
		<polygon clip-path="url(#SVGID_2_)" fill="none" stroke="#000000" stroke-width="2" stroke-miterlimit="10" points="404,103.5 
			404,278.306 404,310.5 624,310.5 624,278.306 624,103.5 		"/>
		
			<rect x="404" y="288.5" clip-path="url(#SVGID_2_)" fill="none" stroke="#000000" stroke-width="2" stroke-miterlimit="10" width="70" height="15"/>
		
			<rect x="474" y="288.5" clip-path="url(#SVGID_2_)" fill="none" stroke="#000000" stroke-width="2" stroke-miterlimit="10" width="150" height="15"/>
		<rect x="417" y="114.5" clip-path="url(#SVGID_2_)" fill="#FFFFFF" width="194" height="148"/>
		
			<rect x="417" y="114.5" clip-path="url(#SVGID_2_)" fill="none" stroke="#000000" stroke-width="2" stroke-miterlimit="10" width="194" height="148"/>
		<g clip-path="url(#SVGID_2_)">
			<defs>
				<rect id="SVGID_11_" y="-1.5" width="1024" height="633"/>
			</defs>
			<clipPath id="SVGID_4_">
				<use xlink:href="#SVGID_11_"  overflow="visible"/>
			</clipPath>
			<path clip-path="url(#SVGID_4_)" d="M603.485,243.972c-0.378,4.849-4.765,9.203-9.669,9.625
				c-52.596,4.404-104.386,4.404-156.98,0c-4.905-0.422-9.291-4.776-9.667-9.625c-2.814-36.771-2.814-73.707,0-110.48
				c0.374-4.846,4.762-9.201,9.667-9.624c52.594-4.404,104.384-4.404,156.98,0c4.904,0.423,9.291,4.778,9.669,9.624
				C606.299,170.265,606.299,207.201,603.485,243.972"/>
			
				<line clip-path="url(#SVGID_4_)" fill="none" stroke="#000000" stroke-width="2" stroke-miterlimit="10" x1="404" y1="288.5" x2="624" y2="288.5"/>
			<path clip-path="url(#SVGID_4_)" fill="#FFFFFF" d="M505.687,186.917c0,2.562-0.404,4.332-1.213,5.308
				c-0.91,1.079-2.599,1.619-5.058,1.619h-6.831v-41.053h7.792c3.541,0,5.31,1.938,5.31,5.814v7.331
				c0,2.696-0.825,4.551-2.478,5.561c1.653,0.844,2.478,2.577,2.478,5.207V186.917z M500.073,168.115v-9.566
				c0-0.941-0.404-1.412-1.214-1.412H498.2v12.335h0.659C499.669,169.472,500.073,169.02,500.073,168.115 M500.073,188.135v-12.448
				c0-0.94-0.404-1.409-1.214-1.409H498.2v15.216h0.659C499.669,189.494,500.073,189.042,500.073,188.135"/>
			<path clip-path="url(#SVGID_4_)" fill="#FFFFFF" d="M521.828,193.844h-5.616v-16.23c0-0.944-0.404-1.416-1.214-1.416h-0.656
				v17.646h-5.618V152.79h7.79c2.093,0,3.501,0.489,4.225,1.466c0.727,0.978,1.089,2.864,1.089,5.664v7.936
				c0,2.662-0.844,4.517-2.531,5.561c1.687,0.877,2.531,2.612,2.531,5.208V193.844z M516.212,170.034v-11.485
				c0-0.941-0.404-1.412-1.214-1.412h-0.656v14.257h0.656C515.808,171.394,516.212,170.942,516.212,170.034"/>
			<polygon clip-path="url(#SVGID_4_)" fill="#FFFFFF" points="542.352,158.722 537.214,158.722 537.214,193.793 531.6,193.793 
				531.6,158.868 525.684,158.94 525.684,152.79 542.352,152.79 			"/>
			<path clip-path="url(#SVGID_4_)" fill="#0D0B0D" d="M475.412,196.065c-0.797,0-1.398-0.414-1.567-1.078
				c-0.146-0.584-0.048-1.183,0.276-1.696c0.316-0.492,0.809-0.846,1.385-0.993c0.156-0.04,0.319-0.059,0.481-0.059
				c0.771,0,1.378,0.429,1.546,1.095c0.141,0.562,0.061,1.148-0.228,1.649c-0.295,0.51-0.768,0.872-1.331,1.014
				C475.789,196.044,475.601,196.065,475.412,196.065"/>
			<path clip-path="url(#SVGID_4_)" fill="#EAAE06" d="M475.412,195.771c0.164,0,0.329-0.021,0.486-0.062
				c0.489-0.122,0.898-0.433,1.15-0.874c0.252-0.434,0.321-0.941,0.2-1.429c-0.135-0.531-0.631-0.871-1.261-0.871
				c-0.138,0-0.276,0.015-0.407,0.048c-0.505,0.129-0.934,0.437-1.21,0.869c-0.28,0.442-0.365,0.96-0.239,1.463
				C474.264,195.441,474.755,195.771,475.412,195.771"/>
			<path clip-path="url(#SVGID_4_)" fill="#EAAE06" d="M567.422,173.508c2.171-3.036,3.101-5.256,2.762-6.598
				c-0.128-0.515-0.603-0.877-1.155-0.877c-0.102,0-0.201,0.013-0.3,0.037c-2.141,0.542-5.343,5.672-7.625,10.293
				c-1.399,2.836-2.723,6.012-3.436,8.516c-1.946,2.647-5.77,5.826-7.034,6.144c-0.022,0.006-0.042,0.01-0.058,0.01
				c-0.018,0-0.068,0-0.111-0.167c-0.061-0.306,0.476-2.068,0.746-2.629l4.713-9.841l-3.186,0.805l-0.381,0.792
				c-0.276-0.343-0.716-0.568-1.188-0.568c-0.119,0-0.239,0.013-0.352,0.043c-1.134,0.287-3.328,2.283-4.995,4.546
				c-0.425,0.574-0.932,1.327-1.39,2.18l-0.046,0.077c-1.634,2.839-6.45,7.957-7.799,8.3c-0.025,0.005-0.044,0.007-0.06,0.007
				c-0.018,0-0.069,0-0.11-0.165c-0.061-0.305,0.475-2.069,0.746-2.627l4.712-9.843l-3.189,0.805l-0.38,0.792
				c-0.274-0.343-0.714-0.568-1.186-0.568c-0.118,0-0.237,0.015-0.351,0.043c-1.352,0.343-4.55,3.315-6.367,6.674
				c-2.895,3.526-7.077,8.18-7.703,8.353c-0.104,0.025-0.181,0.035-0.247,0.035c-0.061,0-0.089-0.01-0.102-0.041
				c-0.131-0.513,0.702-2.064,1.511-3.561c1.325-2.468,2.827-5.266,2.376-7.054c-0.293-1.165-1.017-1.339-1.42-1.339
				c-0.13,0-0.266,0.017-0.399,0.053c-1.336,0.336-2.829,2.328-3.727,3.716c0.037-0.397,0.028-0.697-0.026-0.914
				c-0.314-1.237-1.076-1.422-1.502-1.422c-0.143,0-0.292,0.022-0.449,0.059c-1.155,0.291-4.622,3.812-6.642,7.053l-0.006,0.002
				l-0.058,0.104l-0.379,0.614l0.031-0.01c-2.295,3.98-4.323,6.583-5.352,6.842c-0.054,0.013-0.102,0.021-0.141,0.021
				c-0.077,0-0.095-0.013-0.114-0.086c-0.17-0.672,0.847-2.883,1.742-4.836c1.197-2.605,2.325-5.065,2.033-6.217
				c-0.123-0.498-0.727-0.901-1.337-0.901c-0.107,0-0.206,0.011-0.305,0.036c-0.695,0.177-1.193,0.476-1.677,0.767
				c-0.062,0.04-0.126,0.079-0.192,0.118c0.288-0.859,0.373-1.438,0.274-1.837c-0.14-0.55-0.48-0.877-0.91-0.877
				c-0.074,0-0.148,0.01-0.223,0.029c-0.827,0.209-1.901,1.967-1.54,3.397c0.09,0.352,0.283,0.748,0.583,0.974
				c-0.539,1.205-1.268,2.689-2.171,4.413c-1.754,2.994-6.493,7.679-7.823,8.015c-0.047,0.012-0.091,0.017-0.13,0.017
				c-0.088,0-0.145-0.022-0.175-0.141c-0.06-0.298,0.554-1.882,0.806-2.387l4.93-10.152l-3.295,0.832l-3.632,7.702
				c-1.289,2.77-2.759,4.914-3.494,5.1c-0.048,0.012-0.091,0.017-0.13,0.017c-0.088,0-0.145-0.022-0.174-0.141
				c-0.059-0.297,0.552-1.882,0.806-2.39l4.653-9.792l-1.971,0.498l-1.301,0.329v0.001l-0.019,0.003l-0.052,0.114
				c-0.802,1.336-6.341,8.969-7.742,9.323c-0.091,0.023-0.185,0.036-0.277,0.04c1.407-2.813,2.034-5.296,1.682-6.692
				c-0.156-0.609-0.674-1.019-1.289-1.019c-0.116,0-0.233,0.014-0.348,0.045c-1.49,0.375-3.874,2.395-5.608,4.994
				c-2.296,2.587-5.634,5.954-7.589,7.717l4.717-10.354l-3.177,0.804l-6.545,14.307c-2.125,1.974-6.877,6.767-6.161,9.587
				c0.155,0.621,0.568,0.963,1.162,0.963c0.15,0,0.314-0.02,0.484-0.064c2.387-0.602,4.764-4.837,6.34-8.283l2.177-4.785
				c1.678-1.363,4.491-3.816,6.825-6.243c-0.404,1.355-0.52,2.735-0.194,4.034c0.202,0.794,0.923,1.369,1.714,1.369
				c0.136,0,0.271-0.015,0.407-0.049c1.643-0.415,3.624-3.084,4.878-5.332c0.114,0.023,0.234,0.035,0.363,0.035
				c0.207,0,0.432-0.031,0.69-0.096c1.234-0.313,3.506-3.075,5.389-5.64l-1.005,2.237c-0.859,1.922-1.043,2.99-0.73,4.232
				c0.254,0.997,1.062,1.351,1.74,1.351c0.175,0,0.348-0.023,0.516-0.064c0.813-0.207,1.691-1.063,2.673-2.613
				c0.012,0.125,0.034,0.244,0.062,0.355c0.253,0.994,1.064,1.35,1.737,1.35c0.174,0,0.348-0.02,0.518-0.063
				c2.219-0.562,7.698-7.361,8.616-8.814l0.014-0.003l0.056-0.112l0.343-0.6l-0.041,0.012c0.826-1.616,1.452-2.91,1.906-3.935
				c0.61-0.222,1.092-0.554,1.489-0.826c0.239-0.163,0.452-0.312,0.637-0.395c-0.131,0.36-0.575,1.111-0.971,1.789
				c-1.404,2.377-3.524,5.971-2.843,8.669c0.216,0.849,0.884,1.337,1.84,1.337c0.23,0,0.472-0.031,0.695-0.088
				c1.934-0.489,4.97-5.464,6.612-8.395c1.907-3.097,5.118-5.996,5.835-6.22c0.013,0.017,0.026,0.045,0.037,0.082
				c0.101,0.409-0.099,0.814-0.274,1.172c-0.04,0.077-0.072,0.146-0.1,0.209l-5.325,11.15l3.29-0.83l3.362-6.912
				c0.92-1.928,3.517-5.973,4.507-6.224c0.017,0,0.068,0.026,0.081,0.075c0.05,0.254-0.612,1.365-1.145,2.26
				c-1.358,2.276-3.414,5.711-2.753,8.318c0.216,0.852,0.802,1.362,1.574,1.362c0.159,0,0.328-0.023,0.502-0.066
				c1.106-0.28,3.564-2.925,5.429-5.096c0.363-0.422,0.729-0.857,1.092-1.296c-0.164,0.861-0.177,1.703,0.021,2.488
				c0.222,0.871,0.927,1.48,1.718,1.48c0.13,0,0.263-0.015,0.393-0.049c1.103-0.28,2.391-2.027,3.111-3.136
				c0.024,0.25,0.067,0.494,0.132,0.749c0.205,0.809,0.836,1.292,1.688,1.292c0.174,0,0.347-0.019,0.516-0.063
				c1.497-0.379,4.443-3.716,6.462-6.258c-0.153,0.818-0.171,1.646,0.029,2.437c0.22,0.872,0.928,1.48,1.717,1.48
				c0.133,0,0.264-0.016,0.394-0.047c1.105-0.282,2.392-2.029,3.112-3.138c0.024,0.25,0.065,0.494,0.131,0.75
				c0.205,0.81,0.836,1.292,1.688,1.292c0.173,0,0.347-0.02,0.516-0.064c1.477-0.373,4.411-3.148,6.39-5.279
				c-0.12,0.751-0.136,1.376-0.025,1.817c0.249,0.997,1.062,1.35,1.735,1.35c0.176,0,0.35-0.022,0.52-0.063
				c2.436-0.617,6.802-8.174,6.987-8.496l0.345-0.603l-1.369,0.345l-0.065,0.107c-1.67,2.851-4.681,7.224-6.131,7.591
				c-0.048,0.013-0.089,0.018-0.129,0.018c-0.089,0-0.143-0.022-0.173-0.133c-0.058-0.522,1.619-4.821,3.664-9.4
				C563.273,178.605,565.507,176.184,567.422,173.508 M569.068,167.191c0.264,1.045-2.498,5.615-5.116,8.98
				c1.614-4.048,3.951-8.778,4.972-9.037c0.023-0.006,0.047-0.009,0.064-0.009C569.038,167.125,569.055,167.141,569.068,167.191
				 M550.937,182.868l-2.688,5.661c-0.199,0.444-2.139,3.311-2.918,3.51c-0.014,0-0.024,0.003-0.033,0.003
				c-0.017,0-0.058,0-0.084-0.104c-0.333-1.313,4.649-11.15,5.793-11.44c0.031-0.009,0.061-0.011,0.091-0.011
				c0.171,0,0.321,0.126,0.366,0.313C551.53,181.066,551.341,182.049,550.937,182.868 M536.885,186.416l-2.684,5.66
				c-0.202,0.444-2.14,3.315-2.919,3.51c-0.013,0.003-0.024,0.004-0.035,0.004c-0.016,0-0.056,0-0.082-0.103
				c-0.124-0.484,0.654-2.792,2.333-6.112c1.676-3.318,3.034-5.221,3.459-5.328c0.031-0.009,0.062-0.012,0.092-0.012
				c0.171,0,0.318,0.124,0.366,0.313C537.482,184.613,537.29,185.594,536.885,186.416 M483.515,197.5
				c0.045,0,0.145,0.105,0.18,0.246c0.148,0.583,0.029,1.812-0.568,3.216c-0.45,1.051-0.734,1.73-0.924,2.183
				c-0.279,0.666-0.354,0.848-0.454,1.046c-1.449,2.89-3.073,4.999-4.04,5.242c-0.016,0-0.066-0.056-0.083-0.125
				c-0.443-1.754,5.063-11.808,5.885-11.808H483.515z M463.945,216.629l-2.123,4.671c-0.465,0.84-1.166,2.11-1.59,2.219
				c-0.084,0-0.24-0.112-0.257-0.165C459.881,222.413,461.361,219.517,463.945,216.629"/>
			<rect x="375" y="317.5" clip-path="url(#SVGID_4_)" fill="#FFFFFF" width="274" height="176"/>
			
				<rect x="375" y="317.5" clip-path="url(#SVGID_4_)" fill="none" stroke="#000000" stroke-width="2" stroke-linecap="round" stroke-linejoin="round" stroke-miterlimit="10" width="274" height="176"/>
			<rect x="393" y="493.5" clip-path="url(#SVGID_4_)" fill="#7F7F7F" width="21" height="10"/>
			
				<rect x="393" y="493.5" clip-path="url(#SVGID_4_)" fill="none" stroke="#000000" stroke-width="2" stroke-linecap="round" stroke-linejoin="round" stroke-miterlimit="10" width="21" height="10"/>
			<rect x="615" y="493.5" clip-path="url(#SVGID_4_)" fill="#7F7F7F" width="21" height="10"/>
			
				<rect x="615" y="493.5" clip-path="url(#SVGID_4_)" fill="none" stroke="#000000" stroke-width="2" stroke-linecap="round" stroke-linejoin="round" stroke-miterlimit="10" width="21" height="10"/>
			<polygon clip-path="url(#SVGID_4_)" fill="#FFFFFF" points="593,377.5 636,465.913 636,330.5 388,330.5 388,466.689 
				431.246,377.5 			"/>
			
				<polygon clip-path="url(#SVGID_4_)" fill="none" stroke="#000000" stroke-width="2" stroke-linecap="round" stroke-linejoin="round" stroke-miterlimit="10" points="
				593,377.5 636,465.913 636,330.5 388,330.5 388,466.689 431.246,377.5 			"/>
			<polygon clip-path="url(#SVGID_4_)" fill="#FFFFFF" points="636,480.5 636,465.913 593,377.5 431.246,377.5 388,466.689 
				388,480.5 			"/>
			
				<polygon clip-path="url(#SVGID_4_)" fill="none" stroke="#000000" stroke-width="2" stroke-linecap="round" stroke-linejoin="round" stroke-miterlimit="10" points="
				636,480.5 636,465.913 593,377.5 431.246,377.5 388,466.689 388,480.5 			"/>
			<line clip-path="url(#SVGID_4_)" fill="#FFFFFF" x1="431" y1="377.5" x2="431" y2="330.5"/>
			
				<line clip-path="url(#SVGID_4_)" fill="none" stroke="#000000" stroke-width="2" stroke-linecap="round" stroke-linejoin="round" stroke-miterlimit="10" x1="431" y1="377.5" x2="431" y2="330.5"/>
			<line clip-path="url(#SVGID_4_)" fill="#FFFFFF" x1="593" y1="377.5" x2="593" y2="330.5"/>
			
				<line clip-path="url(#SVGID_4_)" fill="none" stroke="#000000" stroke-width="2" stroke-linecap="round" stroke-linejoin="round" stroke-miterlimit="10" x1="593" y1="377.5" x2="593" y2="330.5"/>
			<rect x="414" y="440.5" clip-path="url(#SVGID_4_)" fill="#FFFFFF" width="192" height="36"/>
			
				<rect x="414" y="440.5" clip-path="url(#SVGID_4_)" fill="none" stroke="#000000" stroke-width="2" stroke-linecap="round" stroke-linejoin="round" stroke-miterlimit="10" width="192" height="36"/>
			<rect x="414" y="401.5" clip-path="url(#SVGID_4_)" fill="#FFFFFF" width="192" height="36"/>
			
				<rect x="414" y="401.5" clip-path="url(#SVGID_4_)" fill="none" stroke="#000000" stroke-width="2" stroke-linecap="round" stroke-linejoin="round" stroke-miterlimit="10" width="192" height="36"/>
			<rect x="414" y="362.5" clip-path="url(#SVGID_4_)" fill="#FFFFFF" width="192" height="36"/>
			
				<rect x="414" y="362.5" clip-path="url(#SVGID_4_)" fill="none" stroke="#000000" stroke-width="2" stroke-linecap="round" stroke-linejoin="round" stroke-miterlimit="10" width="192" height="36"/>
			<polygon clip-path="url(#SVGID_4_)" fill="#FFFFFF" points="586.983,330.5 434.964,330.5 414,362.5 606.299,362.5 			"/>
			
				<polygon clip-path="url(#SVGID_4_)" fill="none" stroke="#000000" stroke-width="2" stroke-linecap="round" stroke-linejoin="round" stroke-miterlimit="10" points="
				586.983,330.5 434.964,330.5 414,362.5 606.299,362.5 			"/>
			<rect x="421" y="379.5" clip-path="url(#SVGID_4_)" fill="#FFFFFF" width="53" height="5"/>
			
				<rect x="421" y="379.5" clip-path="url(#SVGID_4_)" fill="none" stroke="#000000" stroke-width="2" stroke-linecap="round" stroke-linejoin="round" stroke-miterlimit="10" width="53" height="5"/>
			<path clip-path="url(#SVGID_4_)" fill="#FFFFFF" d="M512,419c0,4.971-4.029,9-9,9c-4.971,0-9-4.029-9-9s4.029-9,9-9
				C507.971,410,512,414.029,512,419"/>
			
				<circle clip-path="url(#SVGID_4_)" fill="none" stroke="#000000" stroke-width="2" stroke-linecap="round" stroke-linejoin="round" stroke-miterlimit="10" cx="503" cy="419" r="9"/>
			<path clip-path="url(#SVGID_4_)" fill="#FFFFFF" d="M545,419c0,4.971-4.029,9-9,9c-4.971,0-9-4.029-9-9s4.029-9,9-9
				C540.971,410,545,414.029,545,419"/>
			
				<circle clip-path="url(#SVGID_4_)" fill="none" stroke="#000000" stroke-width="2" stroke-linecap="round" stroke-linejoin="round" stroke-miterlimit="10" cx="536" cy="419" r="9"/>
			<path clip-path="url(#SVGID_4_)" fill="#FFFFFF" d="M578,419c0,4.971-4.029,9-9,9c-4.971,0-9-4.029-9-9s4.029-9,9-9
				C573.971,410,578,414.029,578,419"/>
			
				<circle clip-path="url(#SVGID_4_)" fill="none" stroke="#000000" stroke-width="2" stroke-linecap="round" stroke-linejoin="round" stroke-miterlimit="10" cx="569" cy="419" r="9"/>
			<rect x="425" y="446.5" clip-path="url(#SVGID_4_)" fill="#FFFFFF" width="49" height="26"/>
			
				<rect x="425" y="446.5" clip-path="url(#SVGID_4_)" fill="none" stroke="#000000" stroke-width="2" stroke-linecap="round" stroke-linejoin="round" stroke-miterlimit="10" width="49" height="26"/>
			<rect x="680" y="372.5" clip-path="url(#SVGID_4_)" fill="#FFFFFF" width="80" height="131"/>
			
				<rect x="680" y="372.5" clip-path="url(#SVGID_4_)" fill="none" stroke="#000000" stroke-width="2" stroke-linecap="round" stroke-linejoin="round" stroke-miterlimit="10" width="80" height="131"/>
			<polygon clip-path="url(#SVGID_4_)" fill="#FFFFFF" points="661,469.455 680,503.182 680,373.252 661,354.608 			"/>
			
				<polygon clip-path="url(#SVGID_4_)" fill="none" stroke="#000000" stroke-width="2" stroke-linejoin="round" stroke-miterlimit="10" points="
				661,469.455 680,503.182 680,373.252 661,354.608 			"/>
			<polygon clip-path="url(#SVGID_4_)" fill="#FFFFFF" points="760,372.5 679.401,372.5 661,354.5 732.738,354.5 			"/>
			
				<polygon clip-path="url(#SVGID_4_)" fill="none" stroke="#000000" stroke-width="2" stroke-linejoin="round" stroke-miterlimit="10" points="
				760,372.5 679.401,372.5 661,354.5 732.738,354.5 			"/>
			<path clip-path="url(#SVGID_4_)" fill="#FFFFFF" d="M739.791,406.056c0,9.91-8.033,17.944-17.943,17.944
				c-9.911,0-17.946-8.034-17.946-17.944s8.035-17.944,17.946-17.944C731.758,388.111,739.791,396.146,739.791,406.056"/>
			
				<circle clip-path="url(#SVGID_4_)" fill="none" stroke="#000000" stroke-width="2" stroke-linecap="round" stroke-linejoin="round" stroke-miterlimit="10" cx="721.847" cy="406.056" r="17.944"/>
			<path clip-path="url(#SVGID_4_)" fill="#FFFFFF" d="M749.598,464.25c0,15.325-12.426,27.75-27.75,27.75
				c-15.326,0-27.75-12.425-27.75-27.75s12.424-27.75,27.75-27.75C737.172,436.5,749.598,448.925,749.598,464.25"/>
			
				<circle clip-path="url(#SVGID_4_)" fill="none" stroke="#000000" stroke-width="2" stroke-linecap="round" stroke-linejoin="round" stroke-miterlimit="10" cx="721.848" cy="464.25" r="27.75"/>
			<path clip-path="url(#SVGID_4_)" fill="#FFFFFF" d="M320,486c0,7.456-16.118,13.5-36,13.5s-36-6.044-36-13.5s16.118-13.5,36-13.5
				S320,478.544,320,486"/>
			
				<ellipse clip-path="url(#SVGID_4_)" fill="none" stroke="#000000" stroke-width="2" stroke-linecap="round" stroke-linejoin="round" stroke-miterlimit="10" cx="284" cy="486" rx="36" ry="13.5"/>
			<path clip-path="url(#SVGID_4_)" fill="#FFFFFF" d="M334.971,103.5c-0.604-6.098-23.185-11-50.971-11
				c-27.786,0-50.367,4.902-50.971,11H233v59h102v-59H334.971z"/>
			
				<path clip-path="url(#SVGID_4_)" fill="none" stroke="#000000" stroke-width="2" stroke-linecap="round" stroke-linejoin="round" stroke-miterlimit="10" d="
				M334.971,103.5c-0.604-6.098-23.185-11-50.971-11c-27.786,0-50.367,4.902-50.971,11H233v59h102v-59H334.971z"/>
			<path clip-path="url(#SVGID_4_)" fill="#FFFFFF" d="M335,162.75c0,6.213-22.833,11.25-51,11.25s-51-5.037-51-11.25
				s22.833-11.25,51-11.25S335,156.537,335,162.75"/>
			
				<ellipse clip-path="url(#SVGID_4_)" fill="none" stroke="#000000" stroke-width="2" stroke-linejoin="round" stroke-miterlimit="10" cx="284" cy="162.75" rx="51" ry="11.25"/>
			<rect x="279" y="151.5" clip-path="url(#SVGID_4_)" fill="#FFFFFF" width="10" height="335"/>
			
				<rect x="279" y="151.5" clip-path="url(#SVGID_4_)" fill="none" stroke="#000000" stroke-width="2" stroke-linecap="round" stroke-linejoin="round" stroke-miterlimit="10" width="10" height="335"/>
			<path clip-path="url(#SVGID_4_)" fill="#FFFFFF" d="M779,111.44c0,3.347-2.713,6.06-6.059,6.06h-59.882
				c-3.346,0-6.059-2.713-6.059-6.06V53.56c0-3.347,2.713-6.059,6.059-6.059h59.882c3.346,0,6.059,2.712,6.059,6.059V111.44z"/>
			
				<path clip-path="url(#SVGID_4_)" fill="none" stroke="#000000" stroke-width="2" stroke-linecap="round" stroke-linejoin="round" stroke-miterlimit="10" d="
				M779,111.44c0,3.347-2.713,6.06-6.059,6.06h-59.882c-3.346,0-6.059-2.713-6.059-6.06V53.56c0-3.347,2.713-6.059,6.059-6.059
				h59.882c3.346,0,6.059,2.712,6.059,6.059V111.44z"/>
			
				<circle clip-path="url(#SVGID_4_)" fill="none" stroke="#000000" stroke-width="2" stroke-miterlimit="10" cx="743.34" cy="82.246" r="32.19"/>
			<path clip-path="url(#SVGID_4_)" d="M747.127,82.246c0,2.092-1.695,3.787-3.787,3.787c-2.092,0-3.787-1.695-3.787-3.787
				s1.695-3.787,3.787-3.787C745.432,78.459,747.127,80.154,747.127,82.246"/>
			
				<line clip-path="url(#SVGID_4_)" fill="none" stroke="#000000" stroke-miterlimit="10" x1="746.051" y1="51.474" x2="745.746" y2="54.37"/>
			
				<line clip-path="url(#SVGID_4_)" fill="none" stroke="#000000" stroke-miterlimit="10" x1="749.244" y1="51.924" x2="748.638" y2="54.773"/>
			
				<line clip-path="url(#SVGID_4_)" fill="none" stroke="#000000" stroke-miterlimit="10" x1="752.373" y1="52.705" x2="751.473" y2="55.475"/>
			
				<line clip-path="url(#SVGID_4_)" fill="none" stroke="#000000" stroke-miterlimit="10" x1="755.403" y1="53.809" x2="754.218" y2="56.47"/>
			
				<line clip-path="url(#SVGID_4_)" fill="none" stroke="#000000" stroke-miterlimit="10" x1="758.301" y1="55.223" x2="756.845" y2="57.745"/>
			
				<line clip-path="url(#SVGID_4_)" fill="none" stroke="#000000" stroke-miterlimit="10" x1="761.035" y1="56.933" x2="759.323" y2="59.289"/>
			
				<line clip-path="url(#SVGID_4_)" fill="none" stroke="#000000" stroke-miterlimit="10" x1="763.576" y1="58.919" x2="761.628" y2="61.084"/>
			
				<line clip-path="url(#SVGID_4_)" fill="none" stroke="#000000" stroke-miterlimit="10" x1="765.896" y1="61.16" x2="763.73" y2="63.109"/>
			
				<line clip-path="url(#SVGID_4_)" fill="none" stroke="#000000" stroke-miterlimit="10" x1="767.967" y1="63.631" x2="765.612" y2="65.343"/>
			
				<line clip-path="url(#SVGID_4_)" fill="none" stroke="#000000" stroke-miterlimit="10" x1="769.77" y1="66.305" x2="767.249" y2="67.761"/>
			
				<line clip-path="url(#SVGID_4_)" fill="none" stroke="#000000" stroke-miterlimit="10" x1="771.283" y1="69.153" x2="768.623" y2="70.338"/>
			
				<line clip-path="url(#SVGID_4_)" fill="none" stroke="#000000" stroke-miterlimit="10" x1="772.49" y1="72.144" x2="769.72" y2="73.043"/>
			
				<line clip-path="url(#SVGID_4_)" fill="none" stroke="#000000" stroke-miterlimit="10" x1="773.379" y1="75.244" x2="770.529" y2="75.85"/>
			
				<line clip-path="url(#SVGID_4_)" fill="none" stroke="#000000" stroke-miterlimit="10" x1="773.938" y1="78.42" x2="771.042" y2="78.724"/>
			<line clip-path="url(#SVGID_4_)" fill="none" stroke="#000000" stroke-miterlimit="10" x1="774" y1="82" x2="771" y2="82"/>
			
				<line clip-path="url(#SVGID_4_)" fill="none" stroke="#000000" stroke-miterlimit="10" x1="774.048" y1="84.86" x2="771.152" y2="84.556"/>
			
				<line clip-path="url(#SVGID_4_)" fill="none" stroke="#000000" stroke-miterlimit="10" x1="773.599" y1="88.054" x2="770.75" y2="87.449"/>
			
				<line clip-path="url(#SVGID_4_)" fill="none" stroke="#000000" stroke-miterlimit="10" x1="772.817" y1="91.182" x2="770.046" y2="90.282"/>
			
				<line clip-path="url(#SVGID_4_)" fill="none" stroke="#000000" stroke-miterlimit="10" x1="771.714" y1="94.212" x2="769.053" y2="93.027"/>
			
				<line clip-path="url(#SVGID_4_)" fill="none" stroke="#000000" stroke-miterlimit="10" x1="770.299" y1="97.111" x2="767.777" y2="95.654"/>
			
				<line clip-path="url(#SVGID_4_)" fill="none" stroke="#000000" stroke-miterlimit="10" x1="768.589" y1="99.845" x2="766.234" y2="98.133"/>
			
				<line clip-path="url(#SVGID_4_)" fill="none" stroke="#000000" stroke-miterlimit="10" x1="766.604" y1="102.386" x2="764.438" y2="100.437"/>
			
				<line clip-path="url(#SVGID_4_)" fill="none" stroke="#000000" stroke-miterlimit="10" x1="764.362" y1="104.706" x2="762.413" y2="102.541"/>
			
				<line clip-path="url(#SVGID_4_)" fill="none" stroke="#000000" stroke-miterlimit="10" x1="761.891" y1="106.778" x2="760.179" y2="104.421"/>
			
				<line clip-path="url(#SVGID_4_)" fill="none" stroke="#000000" stroke-miterlimit="10" x1="759.217" y1="108.58" x2="757.761" y2="106.058"/>
			
				<line clip-path="url(#SVGID_4_)" fill="none" stroke="#000000" stroke-miterlimit="10" x1="756.369" y1="110.093" x2="755.184" y2="107.433"/>
			
				<line clip-path="url(#SVGID_4_)" fill="none" stroke="#000000" stroke-miterlimit="10" x1="753.379" y1="111.301" x2="752.479" y2="108.53"/>
			
				<line clip-path="url(#SVGID_4_)" fill="none" stroke="#000000" stroke-miterlimit="10" x1="750.278" y1="112.188" x2="749.673" y2="109.339"/>
			
				<line clip-path="url(#SVGID_4_)" fill="none" stroke="#000000" stroke-miterlimit="10" x1="747.103" y1="112.748" x2="746.797" y2="109.851"/>
			
				<line clip-path="url(#SVGID_4_)" fill="none" stroke="#000000" stroke-miterlimit="10" x1="743.5" y1="113.5" x2="743.5" y2="110.5"/>
			
				<line clip-path="url(#SVGID_4_)" fill="none" stroke="#000000" stroke-miterlimit="10" x1="740.662" y1="112.858" x2="740.967" y2="109.961"/>
			
				<line clip-path="url(#SVGID_4_)" fill="none" stroke="#000000" stroke-miterlimit="10" x1="737.468" y1="112.408" x2="738.074" y2="109.559"/>
			
				<line clip-path="url(#SVGID_4_)" fill="none" stroke="#000000" stroke-miterlimit="10" x1="734.34" y1="111.627" x2="735.239" y2="108.857"/>
			
				<line clip-path="url(#SVGID_4_)" fill="none" stroke="#000000" stroke-miterlimit="10" x1="731.309" y1="110.523" x2="732.495" y2="107.862"/>
			
				<line clip-path="url(#SVGID_4_)" fill="none" stroke="#000000" stroke-miterlimit="10" x1="728.411" y1="109.109" x2="729.867" y2="106.587"/>
			
				<line clip-path="url(#SVGID_4_)" fill="none" stroke="#000000" stroke-miterlimit="10" x1="725.677" y1="107.399" x2="727.389" y2="105.042"/>
			
				<line clip-path="url(#SVGID_4_)" fill="none" stroke="#000000" stroke-miterlimit="10" x1="723.136" y1="105.413" x2="725.084" y2="103.248"/>
			
				<line clip-path="url(#SVGID_4_)" fill="none" stroke="#000000" stroke-miterlimit="10" x1="720.816" y1="103.172" x2="722.981" y2="101.223"/>
			
				<line clip-path="url(#SVGID_4_)" fill="none" stroke="#000000" stroke-miterlimit="10" x1="718.744" y1="100.701" x2="721.1" y2="98.989"/>
			
				<line clip-path="url(#SVGID_4_)" fill="none" stroke="#000000" stroke-miterlimit="10" x1="716.941" y1="98.027" x2="719.463" y2="96.57"/>
			
				<line clip-path="url(#SVGID_4_)" fill="none" stroke="#000000" stroke-miterlimit="10" x1="715.429" y1="95.179" x2="718.09" y2="93.994"/>
			
				<line clip-path="url(#SVGID_4_)" fill="none" stroke="#000000" stroke-miterlimit="10" x1="714.221" y1="92.188" x2="716.992" y2="91.289"/>
			
				<line clip-path="url(#SVGID_4_)" fill="none" stroke="#000000" stroke-miterlimit="10" x1="713.333" y1="89.088" x2="716.183" y2="88.482"/>
			
				<line clip-path="url(#SVGID_4_)" fill="none" stroke="#000000" stroke-miterlimit="10" x1="712.773" y1="85.912" x2="715.67" y2="85.606"/>
			<line clip-path="url(#SVGID_4_)" fill="none" stroke="#000000" stroke-miterlimit="10" x1="712" y1="83" x2="715" y2="83"/>
			
				<line clip-path="url(#SVGID_4_)" fill="none" stroke="#000000" stroke-miterlimit="10" x1="712.663" y1="79.471" x2="715.56" y2="79.775"/>
			
				<line clip-path="url(#SVGID_4_)" fill="none" stroke="#000000" stroke-miterlimit="10" x1="713.113" y1="76.278" x2="715.963" y2="76.883"/>
			
				<line clip-path="url(#SVGID_4_)" fill="none" stroke="#000000" stroke-miterlimit="10" x1="713.895" y1="73.149" x2="716.666" y2="74.049"/>
			
				<line clip-path="url(#SVGID_4_)" fill="none" stroke="#000000" stroke-miterlimit="10" x1="714.998" y1="70.119" x2="717.659" y2="71.304"/>
			
				<line clip-path="url(#SVGID_4_)" fill="none" stroke="#000000" stroke-miterlimit="10" x1="716.413" y1="67.22" x2="718.935" y2="68.677"/>
			
				<line clip-path="url(#SVGID_4_)" fill="none" stroke="#000000" stroke-miterlimit="10" x1="718.123" y1="64.486" x2="720.479" y2="66.198"/>
			
				<line clip-path="url(#SVGID_4_)" fill="none" stroke="#000000" stroke-miterlimit="10" x1="720.108" y1="61.945" x2="722.273" y2="63.895"/>
			
				<line clip-path="url(#SVGID_4_)" fill="none" stroke="#000000" stroke-miterlimit="10" x1="722.35" y1="59.626" x2="724.299" y2="61.791"/>
			
				<line clip-path="url(#SVGID_4_)" fill="none" stroke="#000000" stroke-miterlimit="10" x1="724.821" y1="57.554" x2="726.533" y2="59.91"/>
			
				<line clip-path="url(#SVGID_4_)" fill="none" stroke="#000000" stroke-miterlimit="10" x1="727.495" y1="55.751" x2="728.951" y2="58.273"/>
			
				<line clip-path="url(#SVGID_4_)" fill="none" stroke="#000000" stroke-miterlimit="10" x1="730.343" y1="54.238" x2="731.529" y2="56.899"/>
			
				<line clip-path="url(#SVGID_4_)" fill="none" stroke="#000000" stroke-miterlimit="10" x1="733.334" y1="53.03" x2="734.234" y2="55.801"/>
			
				<line clip-path="url(#SVGID_4_)" fill="none" stroke="#000000" stroke-miterlimit="10" x1="736.434" y1="52.143" x2="737.04" y2="54.992"/>
			
				<line clip-path="url(#SVGID_4_)" fill="none" stroke="#000000" stroke-miterlimit="10" x1="739.61" y1="51.583" x2="739.914" y2="54.48"/>
			
				<line clip-path="url(#SVGID_4_)" fill="none" stroke="#000000" stroke-miterlimit="10" x1="741.5" y1="51.5" x2="741.5" y2="54.5"/>
			<path clip-path="url(#SVGID_4_)" d="M725.677,101.75c-0.336,0-0.672-0.127-0.931-0.382c-0.521-0.514-0.527-1.353-0.012-1.874
				l17.931-18.179c0.515-0.521,1.354-0.525,1.875-0.012c0.521,0.514,0.527,1.353,0.013,1.875l-17.933,18.177
				C726.362,101.618,726.02,101.75,725.677,101.75"/>
			<path clip-path="url(#SVGID_4_)" d="M744,105.916c-0.471,0-1-0.382-1-0.853V82.341c0-0.47,0.529-0.852,1-0.852s1,0.382,1,0.852
				v22.722C745,105.534,744.471,105.916,744,105.916"/>
			<path clip-path="url(#SVGID_4_)" d="M743.229,82.5c-0.206,0-0.374-0.103-0.378-0.31l-0.442-26.375
				c-0.004-0.21,0.163-0.315,0.372-0.315h0.007c0.206,0,0.375,0.126,0.378,0.333l0.443,26.364c0.003,0.209-0.164,0.303-0.373,0.303
				H743.229z"/>
		</g>
	</g>
</g>
</svg>
