


<svg version="1.1" id="Layer_1" xmlns="http://www.w3.org/2000/svg" xmlns:xlink="http://www.w3.org/1999/xlink" x="0px" y="0px"
	 width="1024px" height="630px" viewBox="0 0 1024 630" enable-background="new 0 0 1024 630" xml:space="preserve">
<g>
	<g>
		<defs>
			<rect id="SVGID_285_" y="-1.5" width="1024" height="633"/>
		</defs>
		<clipPath id="SVGID_2_">
			<use xlink:href="#SVGID_285_"  overflow="visible"/>
		</clipPath>
		<g clip-path="url(#SVGID_2_)">
			<defs>
				<rect id="SVGID_287_" y="-1.5" width="1024" height="633"/>
			</defs>
			<clipPath id="SVGID_4_">
				<use xlink:href="#SVGID_287_"  overflow="visible"/>
			</clipPath>
			<rect x="138" y="81.5" clip-path="url(#SVGID_4_)" fill="#D3EEEB" width="748" height="375"/>
			<path clip-path="url(#SVGID_4_)" fill="#FFFFFF" d="M125,456.5h774H125z"/>
			
				<line clip-path="url(#SVGID_4_)" fill="none" stroke="#000000" stroke-width="2" stroke-miterlimit="10" x1="125" y1="456.5" x2="899" y2="456.5"/>
			<polygon clip-path="url(#SVGID_4_)" fill="#7F7F7F" points="642.895,341.5 377.861,341.5 353.737,365.5 667.377,365.5 			"/>
			<polygon clip-path="url(#SVGID_4_)" fill="none" stroke="#000000" stroke-width="2" stroke-miterlimit="10" points="
				642.895,341.5 377.861,341.5 353.737,365.5 667.377,365.5 			"/>
			<polygon clip-path="url(#SVGID_4_)" fill="#FFFFFF" points="410,158.5 410,340.5 433,340.5 433,352.5 600,352.5 600,340.5 
				623,340.5 623,158.5 			"/>
			<polygon clip-path="url(#SVGID_4_)" fill="none" stroke="#000000" stroke-width="2" stroke-miterlimit="10" points="410,158.5 
				410,340.5 433,340.5 433,352.5 600,352.5 600,340.5 623,340.5 623,158.5 			"/>
			
				<line clip-path="url(#SVGID_4_)" fill="none" stroke="#000000" stroke-width="2" stroke-miterlimit="10" x1="410" y1="328.5" x2="624" y2="328.5"/>
			<rect x="423" y="172.5" clip-path="url(#SVGID_4_)" width="187" height="141"/>
			<g clip-path="url(#SVGID_4_)">
				<defs>
					<rect id="SVGID_289_" y="-1.5" width="1024" height="633"/>
				</defs>
				<clipPath id="SVGID_6_">
					<use xlink:href="#SVGID_289_"  overflow="visible"/>
				</clipPath>
				<path clip-path="url(#SVGID_6_)" fill="#F5F5EF" d="M604.465,295.111c-0.349,4.515-4.431,8.57-8.997,8.967
					c-53.018,4.477-105.216,4.477-158.236,0c-4.567-0.397-8.646-4.452-8.998-8.967c-2.712-35.39-2.712-70.936,0-106.326
					c0.35-4.516,4.433-8.571,8.998-8.967c53.02-4.478,105.215-4.478,158.236,0c4.565,0.396,8.648,4.451,8.997,8.967
					C607.179,224.175,607.179,259.721,604.465,295.111"/>
				<path clip-path="url(#SVGID_6_)" fill="none" stroke="#000000" stroke-width="2" stroke-miterlimit="10" d="M604.465,295.111
					c-0.349,4.515-4.431,8.57-8.997,8.967c-53.018,4.477-105.216,4.477-158.236,0c-4.567-0.397-8.646-4.452-8.998-8.967
					c-2.712-35.39-2.712-70.936,0-106.326c0.35-4.516,4.433-8.571,8.998-8.967c53.02-4.478,105.215-4.478,158.236,0
					c4.565,0.396,8.648,4.451,8.997,8.967C607.179,224.175,607.179,259.721,604.465,295.111z"/>
				
					<line clip-path="url(#SVGID_6_)" fill="none" stroke="#000000" stroke-width="2" stroke-miterlimit="10" x1="433" y1="340.5" x2="600" y2="340.5"/>
				<rect x="423.445" y="173.146" clip-path="url(#SVGID_6_)" fill="#ADB9D1" width="187.487" height="139.303"/>
				<rect x="422.718" y="207.359" clip-path="url(#SVGID_6_)" fill="#6F8196" width="188.214" height="13.536"/>
				<rect x="423.786" y="271.221" clip-path="url(#SVGID_6_)" fill="#6F8196" width="187.146" height="11.455"/>
				<rect x="543.766" y="173.146" clip-path="url(#SVGID_6_)" fill="#6F8196" width="10.76" height="139.303"/>
				<rect x="474.811" y="173.146" clip-path="url(#SVGID_6_)" fill="#6F8196" width="10.759" height="139.303"/>
				<rect x="458.962" y="183.062" clip-path="url(#SVGID_6_)" fill="#020713" width="120.439" height="96.837"/>
				<rect x="460.697" y="279.9" clip-path="url(#SVGID_6_)" fill="#020713" width="115.58" height="11.646"/>
				<rect x="463.129" y="188.268" clip-path="url(#SVGID_6_)" fill="#F6F3FF" width="112.454" height="85.037"/>
				<path clip-path="url(#SVGID_6_)" fill="#403881" d="M467.704,240.558v-2.645h2.751v2.645c0,1.001,0.388,1.9,1.764,1.9
					c1.323,0,1.712-0.899,1.712-1.926v-14.176h2.905v13.996c0,2.799-1.66,4.597-4.591,4.597
					C469.313,244.949,467.704,243.409,467.704,240.558"/>
				<path clip-path="url(#SVGID_6_)" fill="#403881" d="M481.012,240.25v-9.502c0-3.056,2.127-4.673,4.956-4.673
					c2.751,0,4.929,1.412,4.929,4.519v9.579c0,3.184-2.178,4.752-4.955,4.752C483.01,244.924,481.012,243.409,481.012,240.25
					 M487.966,240.301v-9.759c0-1.208-0.752-1.978-2.024-1.978c-1.324,0-1.972,0.874-1.972,2.029v9.708
					c0,1.156,0.648,2.08,1.998,2.08C487.343,242.381,487.966,241.458,487.966,240.301"/>
				<path clip-path="url(#SVGID_6_)" fill="#403881" d="M495.074,240.404v-14.048h2.931v13.894c0,1.489,0.883,2.157,1.973,2.157
					c1.323,0,1.945-0.873,1.92-2.131v-13.92h2.777v13.92c0,2.952-2.05,4.673-4.878,4.673
					C496.968,244.949,495.074,243.511,495.074,240.404"/>
				<path clip-path="url(#SVGID_6_)" fill="#403881" d="M509.082,226.356h4.696c3.009,0,4.696,1.772,4.696,5.24
					c0,2.618-0.908,4.212-2.335,4.802l2.544,8.269h-3.011l-2.153-7.627h-1.531v7.627h-2.906V226.356z M513.596,234.883
					c1.272,0,1.972-0.976,1.972-3.057c0-1.771-0.544-3.055-2.024-3.055h-1.556v6.112H513.596z"/>
				<polygon clip-path="url(#SVGID_6_)" fill="#403881" points="522.728,226.356 525.735,226.356 530.071,237.708 530.124,237.708 
					530.124,226.356 532.691,226.356 532.691,244.667 530.044,244.667 525.348,232.16 525.295,232.16 525.295,244.667 
					522.728,244.667 				"/>
				<path clip-path="url(#SVGID_6_)" fill="#403881" d="M540.239,226.304h3.944l3.632,18.363h-2.905l-0.935-4.776h-3.919
					l-0.881,4.776h-2.7L540.239,226.304z M543.509,237.553l-1.427-7.986h-0.078l-1.479,7.986H543.509z"/>
				<path clip-path="url(#SVGID_6_)" fill="#403881" d="M554.687,226.304h3.945l3.632,18.363h-2.906l-0.934-4.776h-3.918
					l-0.883,4.776h-2.697L554.687,226.304z M557.956,237.553l-1.427-7.986h-0.077l-1.48,7.986H557.956z"/>
				<polygon clip-path="url(#SVGID_6_)" fill="#403881" points="566.077,226.356 568.955,226.356 568.955,242.201 574.198,242.201 
					574.198,244.667 566.077,244.667 				"/>
				<path clip-path="url(#SVGID_6_)" fill="#403881" d="M503.887,203.51h3.684c2.57,0,3.556,1.797,3.556,4.52
					c0,2.235-0.909,3.98-2.492,4.237v0.103c1.998,0.384,2.647,2.26,2.647,4.416c0,3.724-1.479,5.034-3.58,5.034h-3.815V203.51z
					 M507.078,211.855c1.505,0,2.725-1.104,2.725-3.697c0-2.441-0.961-3.494-2.362-3.494h-2.204v7.191H507.078z M507.494,220.665
					c1.556,0,2.414-1.336,2.414-3.956c0-2.67-1.196-3.773-2.805-3.773h-1.866v7.729H507.494z"/>
				<path clip-path="url(#SVGID_6_)" fill="#403881" d="M516.156,203.51h3.426c2.854,0,4.072,1.926,4.072,4.904
					c0,2.568-1.012,4.34-2.62,4.727l2.805,8.679h-1.403l-2.723-8.346h-2.182v8.346h-1.375V203.51z M519.659,212.37
					c1.791,0,2.595-1.464,2.595-3.776c0-1.848-0.545-3.876-2.699-3.876h-2.024v7.652H519.659z"/>
				<polygon clip-path="url(#SVGID_6_)" fill="#403881" points="530.686,204.69 527.13,204.69 527.13,203.509 535.563,203.509 
					535.563,204.69 532.035,204.69 532.035,221.819 530.686,221.819 				"/>
				<path clip-path="url(#SVGID_6_)" fill="#4ED3C5" d="M570.13,252.303c0,0.64-0.519,1.159-1.157,1.159h-96.727
					c-0.637,0-1.156-0.519-1.156-1.159c0-0.638,0.519-1.156,1.156-1.156h96.727C569.611,251.147,570.13,251.665,570.13,252.303"/>
				<path clip-path="url(#SVGID_6_)" fill="#697D68" d="M478.186,285.97c1.479,0,2.524,0.363,3.139,1.09
					c0.315,0.369,0.548,0.838,0.697,1.41c0.148,0.57,0.224,1.33,0.224,2.278v7.611c0,0.525,0.057,0.935,0.174,1.229
					c0.116,0.294,0.304,0.501,0.564,0.621c0.261,0.121,0.623,0.18,1.089,0.18v0.594c-2.009-0.074-3.27-0.112-3.781-0.112
					c-0.649,0-1.888,0.038-3.71,0.112v-0.594c0.381,0,0.683-0.059,0.906-0.18c0.222-0.12,0.386-0.327,0.489-0.621
					c0.102-0.294,0.153-0.704,0.153-1.229v-8.799c0-0.773-0.128-1.357-0.383-1.753c-0.257-0.397-0.719-0.595-1.388-0.595
					c-0.522,0-0.998,0.141-1.43,0.422c-0.432,0.281-0.775,0.668-1.026,1.161c-0.251,0.491-0.376,1.046-0.376,1.663v7.901
					c0,0.525,0.049,0.935,0.146,1.229c0.097,0.294,0.256,0.501,0.475,0.621c0.218,0.121,0.523,0.18,0.913,0.18v0.594
					c-1.822-0.074-2.999-0.112-3.529-0.112c-0.661,0-1.975,0.038-3.948,0.112v-0.594c0.456,0,0.813-0.059,1.074-0.18
					c0.261-0.12,0.451-0.327,0.572-0.621s0.182-0.704,0.182-1.229v-16.105c0-0.874-0.138-1.508-0.412-1.899
					c-0.274-0.391-0.747-0.586-1.416-0.586v-0.595c0.605,0.055,1.196,0.083,1.771,0.083c1.675,0,3.065-0.134,4.172-0.4v9.737
					C474.383,286.845,475.936,285.97,478.186,285.97"/>
				<path clip-path="url(#SVGID_6_)" fill="#697D68" d="M491.579,287.198c-0.377-0.451-0.965-0.676-1.765-0.676
					c-0.372,0-0.744,0.056-1.117,0.173c-0.371,0.115-0.678,0.287-0.92,0.517c0.53,0.176,0.944,0.449,1.242,0.822
					c0.297,0.374,0.446,0.84,0.446,1.402c0,0.386-0.096,0.734-0.286,1.043c-0.191,0.308-0.463,0.553-0.816,0.731
					c-0.354,0.181-0.758,0.269-1.214,0.269c-0.613,0-1.104-0.206-1.472-0.621c-0.367-0.414-0.55-0.935-0.55-1.56
					c0-0.977,0.53-1.768,1.589-2.375c1.163-0.636,2.614-0.953,4.353-0.953c1.952,0,3.344,0.423,4.171,1.27
					c0.399,0.396,0.669,0.888,0.81,1.478c0.139,0.59,0.209,1.413,0.209,2.472v7.693c0,0.461,0.044,0.786,0.131,0.974
					c0.089,0.189,0.245,0.283,0.468,0.283c0.307,0,0.661-0.161,1.062-0.483l0.29,0.483c-0.437,0.359-0.91,0.622-1.422,0.788
					c-0.51,0.165-1.125,0.249-1.841,0.249c-0.967,0-1.665-0.213-2.092-0.636c-0.427-0.424-0.641-0.977-0.641-1.658
					c-0.466,0.764-1.075,1.338-1.828,1.72c-0.754,0.381-1.558,0.574-2.414,0.574c-1.088,0-1.96-0.284-2.616-0.851
					c-0.656-0.566-0.982-1.355-0.982-2.368c0-0.986,0.325-1.8,0.978-2.445c0.648-0.645,1.658-1.215,3.026-1.712
					c0.149-0.056,0.632-0.237,1.45-0.547c0.819-0.308,1.41-0.624,1.773-0.945c0.362-0.322,0.543-0.677,0.543-1.064v-2.196
					C492.144,288.266,491.955,287.65,491.579,287.198 M491.551,293.034c-0.274,0.216-0.668,0.48-1.18,0.793
					c-0.604,0.415-1.078,0.883-1.423,1.404c-0.343,0.518-0.516,1.166-0.516,1.94c0,0.737,0.163,1.287,0.489,1.651
					c0.325,0.362,0.754,0.545,1.283,0.545c0.754,0,1.401-0.387,1.939-1.161v-5.801C492.022,292.608,491.824,292.818,491.551,293.034
					"/>
				<path clip-path="url(#SVGID_6_)" fill="#697D68" d="M504.183,299.588c0.117,0.294,0.307,0.501,0.572,0.621
					c0.266,0.121,0.625,0.18,1.082,0.18v0.594c-1.972-0.074-3.246-0.112-3.823-0.112c-0.661,0-1.976,0.038-3.949,0.112v-0.594
					c0.457,0,0.815-0.059,1.075-0.18c0.26-0.12,0.452-0.327,0.573-0.621c0.12-0.294,0.18-0.705,0.18-1.229v-16.132
					c0-0.874-0.136-1.508-0.411-1.9c-0.274-0.391-0.747-0.586-1.417-0.586v-0.594c0.605,0.055,1.196,0.082,1.773,0.082
					c1.674,0,3.064-0.134,4.171-0.4v19.53C504.009,298.883,504.066,299.294,504.183,299.588"/>
				<path clip-path="url(#SVGID_6_)" fill="#697D68" d="M508.208,283.601c0.117-0.742,0.306-1.373,0.566-1.894
					c0.26-0.519,0.614-0.996,1.059-1.428c0.429-0.424,0.993-0.766,1.695-1.03c0.703-0.261,1.444-0.393,2.225-0.393
					c1.191,0,2.209,0.313,3.055,0.939c0.289,0.231,0.524,0.529,0.705,0.897c0.182,0.369,0.273,0.779,0.273,1.23
					c0,0.342-0.087,0.661-0.26,0.96c-0.172,0.3-0.412,0.539-0.725,0.719c-0.31,0.179-0.662,0.269-1.052,0.269
					c-0.652,0-1.175-0.178-1.571-0.532c-0.394-0.355-0.592-0.845-0.592-1.471c0-0.498,0.144-0.933,0.432-1.305
					c0.288-0.374,0.703-0.638,1.243-0.794c-0.057-0.121-0.176-0.217-0.356-0.29c-0.182-0.073-0.403-0.11-0.664-0.11
					c-0.715,0-1.232,0.248-1.547,0.745c-0.205,0.286-0.349,0.698-0.426,1.236c-0.078,0.54-0.119,1.361-0.119,2.466v2.569h3.055
					v0.566h-3.055v11.118c0,0.875,0.224,1.48,0.671,1.816c0.446,0.337,1.12,0.505,2.022,0.505v0.594
					c-2.679-0.074-4.32-0.112-4.924-0.112c-0.577,0-1.814,0.038-3.711,0.112v-0.594c0.455,0,0.816-0.059,1.081-0.18
					c0.264-0.12,0.457-0.327,0.572-0.621c0.115-0.294,0.174-0.705,0.174-1.229V286.95h-1.938v-0.566h1.938
					C508.033,285.269,508.091,284.342,508.208,283.601"/>
				<path clip-path="url(#SVGID_6_)" fill="#697D68" d="M522.752,287.198c-0.377-0.451-0.965-0.676-1.765-0.676
					c-0.372,0-0.745,0.056-1.117,0.173c-0.372,0.115-0.678,0.287-0.919,0.517c0.529,0.176,0.943,0.449,1.24,0.822
					c0.298,0.374,0.447,0.84,0.447,1.402c0,0.386-0.096,0.734-0.287,1.043c-0.191,0.308-0.463,0.553-0.816,0.731
					c-0.353,0.181-0.758,0.269-1.214,0.269c-0.612,0-1.102-0.206-1.472-0.621c-0.365-0.414-0.549-0.935-0.549-1.56
					c0-0.977,0.529-1.768,1.589-2.375c1.162-0.636,2.614-0.953,4.353-0.953c1.953,0,3.342,0.423,4.17,1.27
					c0.4,0.396,0.67,0.888,0.811,1.478c0.139,0.59,0.208,1.413,0.208,2.472v7.693c0,0.461,0.045,0.786,0.132,0.974
					c0.089,0.189,0.245,0.283,0.468,0.283c0.307,0,0.66-0.161,1.061-0.483l0.292,0.483c-0.437,0.359-0.912,0.622-1.423,0.788
					c-0.51,0.165-1.126,0.249-1.842,0.249c-0.965,0-1.664-0.213-2.09-0.636c-0.428-0.424-0.643-0.977-0.643-1.658
					c-0.465,0.764-1.075,1.338-1.826,1.72c-0.754,0.381-1.56,0.574-2.415,0.574c-1.088,0-1.96-0.284-2.616-0.851
					c-0.655-0.566-0.982-1.355-0.982-2.368c0-0.986,0.324-1.8,0.976-2.445c0.649-0.645,1.659-1.215,3.026-1.712
					c0.15-0.056,0.633-0.237,1.45-0.547c0.821-0.308,1.412-0.624,1.772-0.945c0.364-0.322,0.545-0.677,0.545-1.064v-2.196
					C523.316,288.266,523.127,287.65,522.752,287.198 M522.724,293.034c-0.273,0.216-0.667,0.48-1.181,0.793
					c-0.601,0.415-1.076,0.883-1.421,1.404c-0.343,0.518-0.516,1.166-0.516,1.94c0,0.737,0.164,1.287,0.488,1.651
					c0.325,0.362,0.753,0.545,1.285,0.545c0.753,0,1.399-0.387,1.938-1.161v-5.801C523.195,292.608,522.998,292.818,522.724,293.034
					"/>
				<path clip-path="url(#SVGID_6_)" fill="#697D68" d="M540.942,299.083c-0.481,0.677-1.108,1.23-1.881,1.658
					c-0.772,0.429-1.675,0.641-2.706,0.641c-1.276,0-2.412-0.275-3.411-0.827c-1-0.553-1.791-1.399-2.373-2.542
					c-0.58-1.142-0.87-2.564-0.87-4.268c0-1.666,0.303-3.082,0.914-4.247c0.608-1.165,1.444-2.045,2.51-2.637
					c1.065-0.595,2.285-0.891,3.664-0.891c0.704,0,1.371,0.075,1.992,0.228c0.624,0.151,1.149,0.355,1.578,0.614
					c0.492,0.303,0.876,0.685,1.15,1.138c0.274,0.458,0.412,0.961,0.412,1.514c0,0.672-0.212,1.218-0.635,1.636
					c-0.424,0.419-0.965,0.629-1.626,0.629c-0.671,0-1.2-0.189-1.597-0.567c-0.396-0.377-0.595-0.883-0.595-1.518
					c0-0.572,0.183-1.064,0.546-1.478c0.363-0.415,0.809-0.695,1.339-0.843c-0.149-0.202-0.379-0.367-0.689-0.489
					c-0.314-0.126-0.654-0.188-1.027-0.188c-0.771,0-1.428,0.289-1.972,0.863c-0.545,0.575-0.957,1.368-1.237,2.376
					c-0.278,1.009-0.417,2.161-0.417,3.46c0,1.381,0.177,2.495,0.531,3.342c0.352,0.848,0.812,1.45,1.379,1.809
					c0.569,0.359,1.196,0.539,1.883,0.539c0.653,0,1.309-0.168,1.967-0.504c0.661-0.336,1.256-0.932,1.786-1.788l0.475,0.165
					C541.792,297.682,541.426,298.407,540.942,299.083"/>
				<path clip-path="url(#SVGID_6_)" fill="#697D68" d="M553.129,285.97c1.479,0,2.525,0.363,3.14,1.09
					c0.315,0.369,0.548,0.838,0.697,1.41c0.148,0.57,0.225,1.33,0.225,2.278v7.611c0,0.525,0.055,0.935,0.174,1.229
					c0.115,0.294,0.303,0.501,0.563,0.621c0.262,0.121,0.624,0.18,1.087,0.18v0.594c-2.007-0.074-3.268-0.112-3.779-0.112
					c-0.65,0-1.886,0.038-3.711,0.112v-0.594c0.381,0,0.683-0.059,0.907-0.18c0.222-0.12,0.385-0.327,0.49-0.621
					c0.101-0.294,0.15-0.704,0.15-1.229v-8.799c0-0.773-0.125-1.357-0.38-1.753c-0.258-0.397-0.719-0.595-1.391-0.595
					c-0.522,0-0.996,0.141-1.428,0.422c-0.432,0.281-0.774,0.668-1.025,1.161c-0.253,0.491-0.378,1.046-0.378,1.663v7.901
					c0,0.525,0.05,0.935,0.147,1.229c0.096,0.294,0.256,0.501,0.475,0.621c0.217,0.121,0.523,0.18,0.914,0.18v0.594
					c-1.823-0.074-2.999-0.112-3.529-0.112c-0.662,0-1.977,0.038-3.949,0.112v-0.594c0.456,0,0.814-0.059,1.075-0.18
					c0.259-0.12,0.45-0.327,0.571-0.621c0.12-0.294,0.182-0.704,0.182-1.229v-16.105c0-0.874-0.139-1.508-0.412-1.899
					c-0.275-0.391-0.747-0.586-1.416-0.586v-0.595c0.605,0.055,1.196,0.083,1.772,0.083c1.674,0,3.064-0.134,4.17-0.4v9.737
					C549.327,286.845,550.879,285.97,553.129,285.97"/>
				<path clip-path="url(#SVGID_6_)" fill="#697D68" d="M568.371,286.384v0.566h-3.377v11.409c0,0.561,0.104,0.961,0.308,1.194
					c0.204,0.236,0.519,0.353,0.948,0.353c0.81,0,1.455-0.566,1.938-1.699l0.49,0.263c-0.717,1.942-2.019,2.913-3.907,2.913
					c-1.255,0-2.21-0.321-2.859-0.966c-0.4-0.387-0.673-0.877-0.816-1.471c-0.144-0.594-0.216-1.416-0.216-2.465v-9.531h-2.399
					v-0.566h2.399v-3.756c1.571,0,2.942-0.305,4.114-0.912v4.668H568.371z"/>
				<g opacity="0.75" clip-path="url(#SVGID_6_)">
					<g>
						<defs>
							<rect id="SVGID_291_" x="468.584" y="278.829" width="101.094" height="22.553"/>
						</defs>
						<clipPath id="SVGID_8_">
							<use xlink:href="#SVGID_291_"  overflow="visible"/>
						</clipPath>
						<path clip-path="url(#SVGID_8_)" d="M479.186,285.97c1.479,0,2.524,0.363,3.139,1.09c0.315,0.369,0.548,0.838,0.697,1.41
							c0.148,0.57,0.224,1.33,0.224,2.278v7.611c0,0.525,0.057,0.935,0.174,1.229c0.116,0.294,0.304,0.501,0.564,0.621
							c0.261,0.121,0.623,0.18,1.089,0.18v0.594c-2.009-0.074-3.27-0.112-3.781-0.112c-0.649,0-1.888,0.038-3.71,0.112v-0.594
							c0.381,0,0.683-0.059,0.906-0.18c0.222-0.12,0.386-0.327,0.489-0.621c0.102-0.294,0.153-0.704,0.153-1.229v-8.799
							c0-0.773-0.128-1.357-0.383-1.753c-0.257-0.397-0.719-0.595-1.388-0.595c-0.522,0-0.998,0.141-1.43,0.422
							c-0.432,0.281-0.775,0.668-1.026,1.161c-0.251,0.491-0.376,1.046-0.376,1.663v7.901c0,0.525,0.049,0.935,0.146,1.229
							c0.097,0.294,0.256,0.501,0.475,0.621c0.218,0.121,0.523,0.18,0.913,0.18v0.594c-1.822-0.074-2.999-0.112-3.529-0.112
							c-0.661,0-1.975,0.038-3.948,0.112v-0.594c0.456,0,0.813-0.059,1.074-0.18c0.261-0.12,0.451-0.327,0.572-0.621
							s0.182-0.704,0.182-1.229v-16.105c0-0.874-0.138-1.508-0.412-1.899c-0.274-0.391-0.747-0.586-1.416-0.586v-0.595
							c0.605,0.055,1.196,0.083,1.771,0.083c1.675,0,3.065-0.134,4.172-0.4v9.737C475.383,286.845,476.936,285.97,479.186,285.97"/>
						<path clip-path="url(#SVGID_8_)" d="M492.579,287.198c-0.377-0.451-0.965-0.676-1.765-0.676c-0.372,0-0.744,0.056-1.117,0.173
							c-0.371,0.115-0.678,0.287-0.92,0.517c0.53,0.176,0.944,0.449,1.242,0.822c0.297,0.374,0.446,0.84,0.446,1.402
							c0,0.386-0.096,0.734-0.286,1.043c-0.191,0.308-0.463,0.553-0.816,0.731c-0.354,0.181-0.758,0.269-1.214,0.269
							c-0.613,0-1.104-0.206-1.472-0.621c-0.367-0.414-0.55-0.935-0.55-1.56c0-0.977,0.53-1.768,1.589-2.375
							c1.163-0.636,2.614-0.953,4.353-0.953c1.952,0,3.344,0.423,4.171,1.27c0.399,0.396,0.669,0.888,0.81,1.478
							c0.139,0.59,0.209,1.413,0.209,2.472v7.693c0,0.461,0.044,0.786,0.131,0.974c0.089,0.189,0.245,0.283,0.468,0.283
							c0.307,0,0.661-0.161,1.062-0.483l0.29,0.483c-0.437,0.359-0.91,0.622-1.422,0.788c-0.51,0.165-1.125,0.249-1.841,0.249
							c-0.967,0-1.665-0.213-2.092-0.636c-0.427-0.424-0.641-0.977-0.641-1.658c-0.466,0.764-1.075,1.338-1.828,1.72
							c-0.754,0.381-1.558,0.574-2.414,0.574c-1.088,0-1.96-0.284-2.616-0.851c-0.656-0.566-0.982-1.355-0.982-2.368
							c0-0.986,0.325-1.8,0.978-2.445c0.648-0.645,1.658-1.215,3.026-1.712c0.149-0.056,0.632-0.237,1.45-0.547
							c0.819-0.308,1.41-0.624,1.773-0.945c0.362-0.322,0.543-0.677,0.543-1.064v-2.196
							C493.144,288.266,492.955,287.65,492.579,287.198 M492.551,293.034c-0.274,0.216-0.668,0.48-1.18,0.793
							c-0.604,0.415-1.078,0.883-1.423,1.404c-0.343,0.518-0.516,1.166-0.516,1.94c0,0.737,0.163,1.287,0.489,1.651
							c0.325,0.362,0.754,0.545,1.283,0.545c0.754,0,1.401-0.387,1.939-1.161v-5.801
							C493.022,292.608,492.824,292.818,492.551,293.034"/>
						<path clip-path="url(#SVGID_8_)" d="M505.183,299.588c0.117,0.294,0.307,0.501,0.572,0.621c0.266,0.121,0.625,0.18,1.082,0.18
							v0.594c-1.972-0.074-3.246-0.112-3.823-0.112c-0.661,0-1.976,0.038-3.949,0.112v-0.594c0.457,0,0.815-0.059,1.075-0.18
							c0.26-0.12,0.452-0.327,0.573-0.621c0.12-0.294,0.18-0.705,0.18-1.229v-16.132c0-0.874-0.136-1.508-0.411-1.9
							c-0.274-0.391-0.747-0.586-1.417-0.586v-0.594c0.605,0.055,1.196,0.082,1.773,0.082c1.674,0,3.064-0.134,4.171-0.4v19.53
							C505.009,298.883,505.066,299.294,505.183,299.588"/>
						<path clip-path="url(#SVGID_8_)" d="M509.208,283.601c0.117-0.742,0.306-1.373,0.566-1.894
							c0.26-0.519,0.614-0.996,1.059-1.428c0.429-0.424,0.993-0.766,1.695-1.03c0.703-0.261,1.444-0.393,2.225-0.393
							c1.191,0,2.209,0.313,3.055,0.939c0.289,0.231,0.524,0.529,0.705,0.897c0.182,0.369,0.273,0.779,0.273,1.23
							c0,0.342-0.087,0.661-0.26,0.96c-0.172,0.3-0.412,0.539-0.725,0.719c-0.31,0.179-0.662,0.269-1.052,0.269
							c-0.652,0-1.175-0.178-1.571-0.532c-0.394-0.355-0.592-0.845-0.592-1.471c0-0.498,0.144-0.933,0.432-1.305
							c0.288-0.374,0.703-0.638,1.243-0.794c-0.057-0.121-0.176-0.217-0.356-0.29c-0.182-0.073-0.403-0.11-0.664-0.11
							c-0.715,0-1.232,0.248-1.547,0.745c-0.205,0.286-0.349,0.698-0.426,1.236c-0.078,0.54-0.119,1.361-0.119,2.466v2.569h3.055
							v0.566h-3.055v11.118c0,0.875,0.224,1.48,0.671,1.816c0.446,0.337,1.12,0.505,2.022,0.505v0.594
							c-2.679-0.074-4.32-0.112-4.924-0.112c-0.577,0-1.814,0.038-3.711,0.112v-0.594c0.455,0,0.816-0.059,1.081-0.18
							c0.264-0.12,0.457-0.327,0.572-0.621c0.115-0.294,0.174-0.705,0.174-1.229V286.95h-1.938v-0.566h1.938
							C509.033,285.269,509.091,284.342,509.208,283.601"/>
						<path clip-path="url(#SVGID_8_)" d="M523.752,287.198c-0.377-0.451-0.965-0.676-1.765-0.676c-0.372,0-0.745,0.056-1.117,0.173
							c-0.372,0.115-0.678,0.287-0.919,0.517c0.529,0.176,0.943,0.449,1.24,0.822c0.298,0.374,0.447,0.84,0.447,1.402
							c0,0.386-0.096,0.734-0.287,1.043c-0.191,0.308-0.463,0.553-0.816,0.731c-0.353,0.181-0.758,0.269-1.214,0.269
							c-0.612,0-1.102-0.206-1.472-0.621c-0.365-0.414-0.549-0.935-0.549-1.56c0-0.977,0.529-1.768,1.589-2.375
							c1.162-0.636,2.614-0.953,4.353-0.953c1.953,0,3.342,0.423,4.17,1.27c0.4,0.396,0.67,0.888,0.811,1.478
							c0.139,0.59,0.208,1.413,0.208,2.472v7.693c0,0.461,0.045,0.786,0.132,0.974c0.089,0.189,0.245,0.283,0.468,0.283
							c0.307,0,0.66-0.161,1.061-0.483l0.292,0.483c-0.437,0.359-0.912,0.622-1.423,0.788c-0.51,0.165-1.126,0.249-1.842,0.249
							c-0.965,0-1.664-0.213-2.09-0.636c-0.428-0.424-0.643-0.977-0.643-1.658c-0.465,0.764-1.075,1.338-1.826,1.72
							c-0.754,0.381-1.56,0.574-2.415,0.574c-1.088,0-1.96-0.284-2.616-0.851c-0.655-0.566-0.982-1.355-0.982-2.368
							c0-0.986,0.324-1.8,0.976-2.445c0.649-0.645,1.659-1.215,3.026-1.712c0.15-0.056,0.633-0.237,1.45-0.547
							c0.821-0.308,1.412-0.624,1.772-0.945c0.364-0.322,0.545-0.677,0.545-1.064v-2.196
							C524.316,288.266,524.127,287.65,523.752,287.198 M523.724,293.034c-0.273,0.216-0.667,0.48-1.181,0.793
							c-0.601,0.415-1.076,0.883-1.421,1.404c-0.343,0.518-0.516,1.166-0.516,1.94c0,0.737,0.164,1.287,0.488,1.651
							c0.325,0.362,0.753,0.545,1.285,0.545c0.753,0,1.399-0.387,1.938-1.161v-5.801
							C524.195,292.608,523.998,292.818,523.724,293.034"/>
						<path clip-path="url(#SVGID_8_)" d="M541.942,299.083c-0.481,0.677-1.108,1.23-1.881,1.658
							c-0.772,0.429-1.675,0.641-2.706,0.641c-1.276,0-2.412-0.275-3.411-0.827c-1-0.553-1.791-1.399-2.373-2.542
							c-0.58-1.142-0.87-2.564-0.87-4.268c0-1.666,0.303-3.082,0.914-4.247c0.608-1.165,1.444-2.045,2.51-2.637
							c1.065-0.595,2.285-0.891,3.664-0.891c0.704,0,1.371,0.075,1.992,0.228c0.624,0.151,1.149,0.355,1.578,0.614
							c0.492,0.303,0.876,0.685,1.15,1.138c0.274,0.458,0.412,0.961,0.412,1.514c0,0.672-0.212,1.218-0.635,1.636
							c-0.424,0.419-0.965,0.629-1.626,0.629c-0.671,0-1.2-0.189-1.597-0.567c-0.396-0.377-0.595-0.883-0.595-1.518
							c0-0.572,0.183-1.064,0.546-1.478c0.363-0.415,0.809-0.695,1.339-0.843c-0.149-0.202-0.379-0.367-0.689-0.489
							c-0.314-0.126-0.654-0.188-1.027-0.188c-0.771,0-1.428,0.289-1.972,0.863c-0.545,0.575-0.957,1.368-1.237,2.376
							c-0.278,1.009-0.417,2.161-0.417,3.46c0,1.381,0.177,2.495,0.531,3.342c0.352,0.848,0.812,1.45,1.379,1.809
							c0.569,0.359,1.196,0.539,1.883,0.539c0.653,0,1.309-0.168,1.967-0.504c0.661-0.336,1.256-0.932,1.786-1.788l0.475,0.165
							C542.792,297.682,542.426,298.407,541.942,299.083"/>
						<path clip-path="url(#SVGID_8_)" d="M554.129,285.97c1.479,0,2.525,0.363,3.14,1.09c0.315,0.369,0.548,0.838,0.697,1.41
							c0.148,0.57,0.225,1.33,0.225,2.278v7.611c0,0.525,0.055,0.935,0.174,1.229c0.115,0.294,0.303,0.501,0.563,0.621
							c0.262,0.121,0.624,0.18,1.087,0.18v0.594c-2.007-0.074-3.268-0.112-3.779-0.112c-0.65,0-1.886,0.038-3.711,0.112v-0.594
							c0.381,0,0.683-0.059,0.907-0.18c0.222-0.12,0.385-0.327,0.49-0.621c0.101-0.294,0.15-0.704,0.15-1.229v-8.799
							c0-0.773-0.125-1.357-0.38-1.753c-0.258-0.397-0.719-0.595-1.391-0.595c-0.522,0-0.996,0.141-1.428,0.422
							c-0.432,0.281-0.774,0.668-1.025,1.161c-0.253,0.491-0.378,1.046-0.378,1.663v7.901c0,0.525,0.05,0.935,0.147,1.229
							c0.096,0.294,0.256,0.501,0.475,0.621c0.217,0.121,0.523,0.18,0.914,0.18v0.594c-1.823-0.074-2.999-0.112-3.529-0.112
							c-0.662,0-1.977,0.038-3.949,0.112v-0.594c0.456,0,0.814-0.059,1.075-0.18c0.259-0.12,0.45-0.327,0.571-0.621
							c0.12-0.294,0.182-0.704,0.182-1.229v-16.105c0-0.874-0.139-1.508-0.412-1.899c-0.275-0.391-0.747-0.586-1.416-0.586v-0.595
							c0.605,0.055,1.196,0.083,1.772,0.083c1.674,0,3.064-0.134,4.17-0.4v9.737C550.327,286.845,551.879,285.97,554.129,285.97"/>
						<path clip-path="url(#SVGID_8_)" d="M569.371,286.384v0.566h-3.377v11.409c0,0.561,0.104,0.961,0.308,1.194
							c0.204,0.236,0.519,0.353,0.948,0.353c0.81,0,1.455-0.566,1.938-1.699l0.49,0.263c-0.717,1.942-2.019,2.913-3.907,2.913
							c-1.255,0-2.21-0.321-2.859-0.966c-0.4-0.387-0.673-0.877-0.816-1.471c-0.144-0.594-0.216-1.416-0.216-2.465v-9.531h-2.399
							v-0.566h2.399v-3.756c1.571,0,2.942-0.305,4.114-0.912v4.668H569.371z"/>
					</g>
				</g>
				<path clip-path="url(#SVGID_6_)" fill="#758F78" d="M478.186,285.97c1.479,0,2.524,0.363,3.139,1.09
					c0.315,0.369,0.548,0.838,0.697,1.41c0.148,0.57,0.224,1.33,0.224,2.278v7.611c0,0.525,0.057,0.935,0.174,1.229
					c0.116,0.294,0.304,0.501,0.564,0.621c0.261,0.121,0.623,0.18,1.089,0.18v0.594c-2.009-0.074-3.27-0.112-3.781-0.112
					c-0.649,0-1.888,0.038-3.71,0.112v-0.594c0.381,0,0.683-0.059,0.906-0.18c0.222-0.12,0.386-0.327,0.489-0.621
					c0.102-0.294,0.153-0.704,0.153-1.229v-8.799c0-0.773-0.128-1.357-0.383-1.753c-0.257-0.397-0.719-0.595-1.388-0.595
					c-0.522,0-0.998,0.141-1.43,0.422c-0.432,0.281-0.775,0.668-1.026,1.161c-0.251,0.491-0.376,1.046-0.376,1.663v7.901
					c0,0.525,0.049,0.935,0.146,1.229c0.097,0.294,0.256,0.501,0.475,0.621c0.218,0.121,0.523,0.18,0.913,0.18v0.594
					c-1.822-0.074-2.999-0.112-3.529-0.112c-0.661,0-1.975,0.038-3.948,0.112v-0.594c0.456,0,0.813-0.059,1.074-0.18
					c0.261-0.12,0.451-0.327,0.572-0.621s0.182-0.704,0.182-1.229v-16.105c0-0.874-0.138-1.508-0.412-1.899
					c-0.274-0.391-0.747-0.586-1.416-0.586v-0.595c0.605,0.055,1.196,0.083,1.771,0.083c1.675,0,3.065-0.134,4.172-0.4v9.737
					C474.383,286.845,475.936,285.97,478.186,285.97"/>
				<path clip-path="url(#SVGID_6_)" fill="#758F78" d="M491.579,287.198c-0.377-0.451-0.965-0.676-1.765-0.676
					c-0.372,0-0.744,0.056-1.117,0.173c-0.371,0.115-0.678,0.287-0.92,0.517c0.53,0.176,0.944,0.449,1.242,0.822
					c0.297,0.374,0.446,0.84,0.446,1.402c0,0.386-0.096,0.734-0.286,1.043c-0.191,0.308-0.463,0.553-0.816,0.731
					c-0.354,0.181-0.758,0.269-1.214,0.269c-0.613,0-1.104-0.206-1.472-0.621c-0.367-0.414-0.55-0.935-0.55-1.56
					c0-0.977,0.53-1.768,1.589-2.375c1.163-0.636,2.614-0.953,4.353-0.953c1.952,0,3.344,0.423,4.171,1.27
					c0.399,0.396,0.669,0.888,0.81,1.478c0.139,0.59,0.209,1.413,0.209,2.472v7.693c0,0.461,0.044,0.786,0.131,0.974
					c0.089,0.189,0.245,0.283,0.468,0.283c0.307,0,0.661-0.161,1.062-0.483l0.29,0.483c-0.437,0.359-0.91,0.622-1.422,0.788
					c-0.51,0.165-1.125,0.249-1.841,0.249c-0.967,0-1.665-0.213-2.092-0.636c-0.427-0.424-0.641-0.977-0.641-1.658
					c-0.466,0.764-1.075,1.338-1.828,1.72c-0.754,0.381-1.558,0.574-2.414,0.574c-1.088,0-1.96-0.284-2.616-0.851
					c-0.656-0.566-0.982-1.355-0.982-2.368c0-0.986,0.325-1.8,0.978-2.445c0.648-0.645,1.658-1.215,3.026-1.712
					c0.149-0.056,0.632-0.237,1.45-0.547c0.819-0.308,1.41-0.624,1.773-0.945c0.362-0.322,0.543-0.677,0.543-1.064v-2.196
					C492.144,288.266,491.955,287.65,491.579,287.198 M491.551,293.034c-0.274,0.216-0.668,0.48-1.18,0.793
					c-0.604,0.415-1.078,0.883-1.423,1.404c-0.343,0.518-0.516,1.166-0.516,1.94c0,0.737,0.163,1.287,0.489,1.651
					c0.325,0.362,0.754,0.545,1.283,0.545c0.754,0,1.401-0.387,1.939-1.161v-5.801C492.022,292.608,491.824,292.818,491.551,293.034
					"/>
				<path clip-path="url(#SVGID_6_)" fill="#758F78" d="M504.183,299.588c0.117,0.294,0.307,0.501,0.572,0.621
					c0.266,0.121,0.625,0.18,1.082,0.18v0.594c-1.972-0.074-3.246-0.112-3.823-0.112c-0.661,0-1.976,0.038-3.949,0.112v-0.594
					c0.457,0,0.815-0.059,1.075-0.18c0.26-0.12,0.452-0.327,0.573-0.621c0.12-0.294,0.18-0.705,0.18-1.229v-16.132
					c0-0.874-0.136-1.508-0.411-1.9c-0.274-0.391-0.747-0.586-1.417-0.586v-0.594c0.605,0.055,1.196,0.082,1.773,0.082
					c1.674,0,3.064-0.134,4.171-0.4v19.53C504.009,298.883,504.066,299.294,504.183,299.588"/>
				<path clip-path="url(#SVGID_6_)" fill="#758F78" d="M508.208,283.601c0.117-0.742,0.306-1.373,0.566-1.894
					c0.26-0.519,0.614-0.996,1.059-1.428c0.429-0.424,0.993-0.766,1.695-1.03c0.703-0.261,1.444-0.393,2.225-0.393
					c1.191,0,2.209,0.313,3.055,0.939c0.289,0.231,0.524,0.529,0.705,0.897c0.182,0.369,0.273,0.779,0.273,1.23
					c0,0.342-0.087,0.661-0.26,0.96c-0.172,0.3-0.412,0.539-0.725,0.719c-0.31,0.179-0.662,0.269-1.052,0.269
					c-0.652,0-1.175-0.178-1.571-0.532c-0.394-0.355-0.592-0.845-0.592-1.471c0-0.498,0.144-0.933,0.432-1.305
					c0.288-0.374,0.703-0.638,1.243-0.794c-0.057-0.121-0.176-0.217-0.356-0.29c-0.182-0.073-0.403-0.11-0.664-0.11
					c-0.715,0-1.232,0.248-1.547,0.745c-0.205,0.286-0.349,0.698-0.426,1.236c-0.078,0.54-0.119,1.361-0.119,2.466v2.569h3.055
					v0.566h-3.055v11.118c0,0.875,0.224,1.48,0.671,1.816c0.446,0.337,1.12,0.505,2.022,0.505v0.594
					c-2.679-0.074-4.32-0.112-4.924-0.112c-0.577,0-1.814,0.038-3.711,0.112v-0.594c0.455,0,0.816-0.059,1.081-0.18
					c0.264-0.12,0.457-0.327,0.572-0.621c0.115-0.294,0.174-0.705,0.174-1.229V286.95h-1.938v-0.566h1.938
					C508.033,285.269,508.091,284.342,508.208,283.601"/>
				<path clip-path="url(#SVGID_6_)" fill="#758F78" d="M522.752,287.198c-0.377-0.451-0.965-0.676-1.765-0.676
					c-0.372,0-0.745,0.056-1.117,0.173c-0.372,0.115-0.678,0.287-0.919,0.517c0.529,0.176,0.943,0.449,1.24,0.822
					c0.298,0.374,0.447,0.84,0.447,1.402c0,0.386-0.096,0.734-0.287,1.043c-0.191,0.308-0.463,0.553-0.816,0.731
					c-0.353,0.181-0.758,0.269-1.214,0.269c-0.612,0-1.102-0.206-1.472-0.621c-0.365-0.414-0.549-0.935-0.549-1.56
					c0-0.977,0.529-1.768,1.589-2.375c1.162-0.636,2.614-0.953,4.353-0.953c1.953,0,3.342,0.423,4.17,1.27
					c0.4,0.396,0.67,0.888,0.811,1.478c0.139,0.59,0.208,1.413,0.208,2.472v7.693c0,0.461,0.045,0.786,0.132,0.974
					c0.089,0.189,0.245,0.283,0.468,0.283c0.307,0,0.66-0.161,1.061-0.483l0.292,0.483c-0.437,0.359-0.912,0.622-1.423,0.788
					c-0.51,0.165-1.126,0.249-1.842,0.249c-0.965,0-1.664-0.213-2.09-0.636c-0.428-0.424-0.643-0.977-0.643-1.658
					c-0.465,0.764-1.075,1.338-1.826,1.72c-0.754,0.381-1.56,0.574-2.415,0.574c-1.088,0-1.96-0.284-2.616-0.851
					c-0.655-0.566-0.982-1.355-0.982-2.368c0-0.986,0.324-1.8,0.976-2.445c0.649-0.645,1.659-1.215,3.026-1.712
					c0.15-0.056,0.633-0.237,1.45-0.547c0.821-0.308,1.412-0.624,1.772-0.945c0.364-0.322,0.545-0.677,0.545-1.064v-2.196
					C523.316,288.266,523.127,287.65,522.752,287.198 M522.724,293.034c-0.273,0.216-0.667,0.48-1.181,0.793
					c-0.601,0.415-1.076,0.883-1.421,1.404c-0.343,0.518-0.516,1.166-0.516,1.94c0,0.737,0.164,1.287,0.488,1.651
					c0.325,0.362,0.753,0.545,1.285,0.545c0.753,0,1.399-0.387,1.938-1.161v-5.801C523.195,292.608,522.998,292.818,522.724,293.034
					"/>
				<path clip-path="url(#SVGID_6_)" fill="#758F78" d="M540.942,299.083c-0.481,0.677-1.108,1.23-1.881,1.658
					c-0.772,0.429-1.675,0.641-2.706,0.641c-1.276,0-2.412-0.275-3.411-0.827c-1-0.553-1.791-1.399-2.373-2.542
					c-0.58-1.142-0.87-2.564-0.87-4.268c0-1.666,0.303-3.082,0.914-4.247c0.608-1.165,1.444-2.045,2.51-2.637
					c1.065-0.595,2.285-0.891,3.664-0.891c0.704,0,1.371,0.075,1.992,0.228c0.624,0.151,1.149,0.355,1.578,0.614
					c0.492,0.303,0.876,0.685,1.15,1.138c0.274,0.458,0.412,0.961,0.412,1.514c0,0.672-0.212,1.218-0.635,1.636
					c-0.424,0.419-0.965,0.629-1.626,0.629c-0.671,0-1.2-0.189-1.597-0.567c-0.396-0.377-0.595-0.883-0.595-1.518
					c0-0.572,0.183-1.064,0.546-1.478c0.363-0.415,0.809-0.695,1.339-0.843c-0.149-0.202-0.379-0.367-0.689-0.489
					c-0.314-0.126-0.654-0.188-1.027-0.188c-0.771,0-1.428,0.289-1.972,0.863c-0.545,0.575-0.957,1.368-1.237,2.376
					c-0.278,1.009-0.417,2.161-0.417,3.46c0,1.381,0.177,2.495,0.531,3.342c0.352,0.848,0.812,1.45,1.379,1.809
					c0.569,0.359,1.196,0.539,1.883,0.539c0.653,0,1.309-0.168,1.967-0.504c0.661-0.336,1.256-0.932,1.786-1.788l0.475,0.165
					C541.792,297.682,541.426,298.407,540.942,299.083"/>
				<path clip-path="url(#SVGID_6_)" fill="#758F78" d="M553.129,285.97c1.479,0,2.525,0.363,3.14,1.09
					c0.315,0.369,0.548,0.838,0.697,1.41c0.148,0.57,0.225,1.33,0.225,2.278v7.611c0,0.525,0.055,0.935,0.174,1.229
					c0.115,0.294,0.303,0.501,0.563,0.621c0.262,0.121,0.624,0.18,1.087,0.18v0.594c-2.007-0.074-3.268-0.112-3.779-0.112
					c-0.65,0-1.886,0.038-3.711,0.112v-0.594c0.381,0,0.683-0.059,0.907-0.18c0.222-0.12,0.385-0.327,0.49-0.621
					c0.101-0.294,0.15-0.704,0.15-1.229v-8.799c0-0.773-0.125-1.357-0.38-1.753c-0.258-0.397-0.719-0.595-1.391-0.595
					c-0.522,0-0.996,0.141-1.428,0.422c-0.432,0.281-0.774,0.668-1.025,1.161c-0.253,0.491-0.378,1.046-0.378,1.663v7.901
					c0,0.525,0.05,0.935,0.147,1.229c0.096,0.294,0.256,0.501,0.475,0.621c0.217,0.121,0.523,0.18,0.914,0.18v0.594
					c-1.823-0.074-2.999-0.112-3.529-0.112c-0.662,0-1.977,0.038-3.949,0.112v-0.594c0.456,0,0.814-0.059,1.075-0.18
					c0.259-0.12,0.45-0.327,0.571-0.621c0.12-0.294,0.182-0.704,0.182-1.229v-16.105c0-0.874-0.139-1.508-0.412-1.899
					c-0.275-0.391-0.747-0.586-1.416-0.586v-0.595c0.605,0.055,1.196,0.083,1.772,0.083c1.674,0,3.064-0.134,4.17-0.4v9.737
					C549.327,286.845,550.879,285.97,553.129,285.97"/>
				<path clip-path="url(#SVGID_6_)" fill="#758F78" d="M568.371,286.384v0.566h-3.377v11.409c0,0.561,0.104,0.961,0.308,1.194
					c0.204,0.236,0.519,0.353,0.948,0.353c0.81,0,1.455-0.566,1.938-1.699l0.49,0.263c-0.717,1.942-2.019,2.913-3.907,2.913
					c-1.255,0-2.21-0.321-2.859-0.966c-0.4-0.387-0.673-0.877-0.816-1.471c-0.144-0.594-0.216-1.416-0.216-2.465v-9.531h-2.399
					v-0.566h2.399v-3.756c1.571,0,2.942-0.305,4.114-0.912v4.668H568.371z"/>
				<path clip-path="url(#SVGID_6_)" d="M422.718,314.626h188.214V173.192H422.718V314.626z M604.465,295.678
					c-0.349,4.515-4.431,8.57-8.997,8.967c-53.018,4.477-105.216,4.477-158.236,0c-4.567-0.397-8.646-4.452-8.998-8.967
					c-2.712-35.39-2.712-70.935,0-106.326c0.35-4.516,4.433-8.571,8.998-8.968c53.02-4.477,105.215-4.477,158.236,0
					c4.565,0.397,8.648,4.452,8.997,8.968C607.179,224.743,607.179,260.288,604.465,295.678"/>
				<path clip-path="url(#SVGID_6_)" fill="#FFFFFF" d="M830.403,401.874l-7.538,78.489c0,8.266-13.113,14.964-29.288,14.964
					c-16.175,0-29.287-6.698-29.287-14.964l-7.54-78.489H830.403z"/>
				<path clip-path="url(#SVGID_6_)" fill="none" stroke="#000000" stroke-width="2" stroke-miterlimit="10" d="M830.403,401.874
					l-7.538,78.489c0,8.266-13.113,14.964-29.288,14.964c-16.175,0-29.287-6.698-29.287-14.964l-7.54-78.489H830.403z"/>
				<path clip-path="url(#SVGID_6_)" fill="#FFFFFF" d="M756.75,401.874c0,6.868,16.488,12.437,36.827,12.437
					s36.826-5.568,36.826-12.437s-16.487-12.435-36.826-12.435S756.75,395.006,756.75,401.874"/>
				
					<ellipse clip-path="url(#SVGID_6_)" fill="none" stroke="#000000" stroke-width="2" stroke-miterlimit="10" cx="793.576" cy="401.874" rx="36.826" ry="12.437"/>
				<path clip-path="url(#SVGID_6_)" fill="#7F7F7F" d="M856.559,264.53c0,0,32.008,119.924-59.445,143.763"/>
				<path clip-path="url(#SVGID_6_)" fill="none" stroke="#000000" stroke-width="2" stroke-miterlimit="10" d="M856.559,264.53
					c0,0,32.008,119.924-59.445,143.763"/>
				<path clip-path="url(#SVGID_6_)" fill="#7F7F7F" d="M856.559,264.53c0,0-68.59,82.995-59.445,143.763"/>
				<path clip-path="url(#SVGID_6_)" fill="none" stroke="#000000" stroke-width="2" stroke-miterlimit="10" d="M856.559,264.53
					c0,0-68.59,82.995-59.445,143.763"/>
				<path clip-path="url(#SVGID_6_)" fill="#FFFFFF" d="M903.768,282.282c0,0-106.535,78.736-107.191,126.011
					C796.577,408.293,900.479,333.562,903.768,282.282"/>
				<path clip-path="url(#SVGID_6_)" fill="none" stroke="#000000" stroke-width="2" stroke-miterlimit="10" d="M903.768,282.282
					c0,0-106.535,78.736-107.191,126.011C796.577,408.293,900.479,333.562,903.768,282.282z"/>
				<path clip-path="url(#SVGID_6_)" fill="#FFFFFF" d="M797.246,409.036c31.94-95.289,0-221.069,0-221.069"/>
				<path clip-path="url(#SVGID_6_)" fill="none" stroke="#000000" stroke-width="2" stroke-miterlimit="10" d="M797.246,409.036
					c31.94-95.289,0-221.069,0-221.069"/>
				<path clip-path="url(#SVGID_6_)" fill="#FFFFFF" d="M797.246,187.967c0,0-25.429,141.936,0,221.068"/>
				<path clip-path="url(#SVGID_6_)" fill="none" stroke="#000000" stroke-width="2" stroke-miterlimit="10" d="M797.246,187.967
					c0,0-25.429,141.936,0,221.068"/>
				<path clip-path="url(#SVGID_6_)" fill="#7F7F7F" d="M796.555,408.565c-0.976-51.367-49.25-49.271-49.25-49.271"/>
				<path clip-path="url(#SVGID_6_)" fill="none" stroke="#000000" stroke-width="2" stroke-miterlimit="10" d="M796.555,408.565
					c-0.976-51.367-49.25-49.271-49.25-49.271"/>
				<path clip-path="url(#SVGID_6_)" fill="#7F7F7F" d="M747.305,359.294c0,0,15.495,55.622,49.25,49.271"/>
				<path clip-path="url(#SVGID_6_)" fill="none" stroke="#000000" stroke-width="2" stroke-miterlimit="10" d="M747.305,359.294
					c0,0,15.495,55.622,49.25,49.271"/>
				<path clip-path="url(#SVGID_6_)" fill="#7F7F7F" d="M739.848,240.031c0,0,71.621,124.321,56.652,167.934
					C796.5,407.965,725.969,288.602,739.848,240.031"/>
				<path clip-path="url(#SVGID_6_)" fill="none" stroke="#000000" stroke-width="2" stroke-miterlimit="10" d="M739.848,240.031
					c0,0,71.621,124.321,56.652,167.934C796.5,407.965,725.969,288.602,739.848,240.031z"/>
				<path clip-path="url(#SVGID_6_)" fill="#FFFFFF" d="M794.534,408.477c21.24-44.368-20.772-73.454-20.772-73.454"/>
				<path clip-path="url(#SVGID_6_)" fill="none" stroke="#000000" stroke-width="2" stroke-miterlimit="10" d="M794.534,408.477
					c21.24-44.368-20.772-73.454-20.772-73.454"/>
				<path clip-path="url(#SVGID_6_)" fill="#FFFFFF" d="M773.762,335.022c0,0-10.704,57.276,20.772,73.454"/>
				<path clip-path="url(#SVGID_6_)" fill="none" stroke="#000000" stroke-width="2" stroke-miterlimit="10" d="M773.762,335.022
					c0,0-10.704,57.276,20.772,73.454"/>
				<path clip-path="url(#SVGID_6_)" fill="#FFFFFF" d="M387.299,479.155c0,4.856-3.936,8.792-8.791,8.792s-8.791-3.936-8.791-8.792
					c0-4.854,3.936-8.791,8.791-8.791S387.299,474.301,387.299,479.155"/>
				
					<circle clip-path="url(#SVGID_6_)" fill="none" stroke="#000000" stroke-width="2" stroke-miterlimit="10" cx="378.508" cy="479.155" r="8.791"/>
				<path clip-path="url(#SVGID_6_)" fill="#FFFFFF" d="M651.686,479.155c0,4.856-3.935,8.792-8.791,8.792
					c-4.855,0-8.791-3.936-8.791-8.792c0-4.854,3.936-8.791,8.791-8.791C647.75,470.364,651.686,474.301,651.686,479.155"/>
				
					<circle clip-path="url(#SVGID_6_)" fill="none" stroke="#000000" stroke-width="2" stroke-miterlimit="10" cx="642.895" cy="479.155" r="8.791"/>
				<path clip-path="url(#SVGID_6_)" fill="#FFFFFF" d="M670,451.267c0,10.069-8.163,18.233-18.233,18.233H369.233
					c-10.069,0-18.233-8.164-18.233-18.233v-75.533c0-10.071,8.164-18.234,18.233-18.234h282.534
					c10.07,0,18.233,8.163,18.233,18.234V451.267z"/>
				<path clip-path="url(#SVGID_6_)" fill="#FFFFFF" d="M659,450.686c0,4.314-3.498,7.814-7.814,7.814H368.814
					c-4.315,0-7.814-3.5-7.814-7.814v-75.371c0-4.316,3.499-7.815,7.814-7.815h282.372c4.316,0,7.814,3.499,7.814,7.815V450.686z"/>
				<path clip-path="url(#SVGID_6_)" fill="none" stroke="#000000" stroke-width="2" stroke-miterlimit="10" d="M670,451.267
					c0,10.069-8.163,18.233-18.233,18.233H369.233c-10.069,0-18.233-8.164-18.233-18.233v-75.533
					c0-10.071,8.164-18.234,18.233-18.234h282.534c10.07,0,18.233,8.163,18.233,18.234V451.267z"/>
				<path clip-path="url(#SVGID_6_)" fill="none" stroke="#000000" stroke-width="2" stroke-miterlimit="10" d="M659,450.686
					c0,4.314-3.498,7.814-7.814,7.814H368.814c-4.315,0-7.814-3.5-7.814-7.814v-75.371c0-4.316,3.499-7.815,7.814-7.815h282.372
					c4.316,0,7.814,3.499,7.814,7.815V450.686z"/>
				
					<line clip-path="url(#SVGID_6_)" fill="none" stroke="#000000" stroke-width="2" stroke-miterlimit="10" x1="378" y1="367.5" x2="378" y2="425.5"/>
				
					<line clip-path="url(#SVGID_6_)" fill="none" stroke="#000000" stroke-width="2" stroke-miterlimit="10" x1="644" y1="370.5" x2="644" y2="425.5"/>
				<polygon clip-path="url(#SVGID_6_)" fill="#7F7F7F" points="643.546,426.5 376.91,426.5 360.926,452.5 659.731,452.5 				"/>
				<polygon clip-path="url(#SVGID_6_)" fill="none" stroke="#000000" stroke-width="2" stroke-miterlimit="10" points="
					643.546,426.5 376.91,426.5 360.926,452.5 659.731,452.5 				"/>
				<rect x="387" y="413.5" clip-path="url(#SVGID_6_)" fill="#FFFFFF" width="142" height="36"/>
				
					<rect x="387" y="413.5" clip-path="url(#SVGID_6_)" fill="none" stroke="#000000" stroke-width="2" stroke-miterlimit="10" width="142" height="36"/>
				<rect x="395" y="431.5" clip-path="url(#SVGID_6_)" fill="#FFFFFF" width="78" height="11"/>
				
					<rect x="395" y="431.5" clip-path="url(#SVGID_6_)" fill="none" stroke="#000000" stroke-width="2" stroke-miterlimit="10" width="78" height="11"/>
				<polygon clip-path="url(#SVGID_6_)" fill="#FFFFFF" points="527.567,396.5 398.237,396.5 388.275,413.5 529.3,413.5 				"/>
				<polygon clip-path="url(#SVGID_6_)" fill="none" stroke="#000000" stroke-width="2" stroke-miterlimit="10" points="
					527.567,396.5 398.237,396.5 388.275,413.5 529.3,413.5 				"/>
				<rect x="545" y="379.5" clip-path="url(#SVGID_6_)" fill="#FFFFFF" width="10" height="63"/>
				
					<rect x="545" y="379.5" clip-path="url(#SVGID_6_)" fill="none" stroke="#000000" stroke-width="2" stroke-miterlimit="10" width="10" height="63"/>
				<rect x="555" y="379.5" clip-path="url(#SVGID_6_)" fill="#FFFFFF" width="10" height="63"/>
				
					<rect x="555" y="379.5" clip-path="url(#SVGID_6_)" fill="none" stroke="#000000" stroke-width="2" stroke-miterlimit="10" width="10" height="63"/>
				<rect x="565" y="379.5" clip-path="url(#SVGID_6_)" fill="#FFFFFF" width="11" height="63"/>
				
					<rect x="565" y="379.5" clip-path="url(#SVGID_6_)" fill="none" stroke="#000000" stroke-width="2" stroke-miterlimit="10" width="11" height="63"/>
				<rect x="545" y="374.5" clip-path="url(#SVGID_6_)" width="31" height="6"/>
				
					<rect x="545" y="374.5" clip-path="url(#SVGID_6_)" fill="none" stroke="#000000" stroke-width="2" stroke-miterlimit="10" width="31" height="6"/>
			</g>
		</g>
	</g>
</g>
</svg>
