


<svg version="1.1" id="Layer_1" xmlns="http://www.w3.org/2000/svg" xmlns:xlink="http://www.w3.org/1999/xlink" x="0px" y="0px"
	 width="1024px" height="630px" viewBox="0 0 1024 630" enable-background="new 0 0 1024 630" xml:space="preserve">
<g>
	<g>
		<defs>
			<rect id="SVGID_293_" y="-1.5" width="1024" height="633"/>
		</defs>
		<clipPath id="SVGID_2_">
			<use xlink:href="#SVGID_293_"  overflow="visible"/>
		</clipPath>
		<path clip-path="url(#SVGID_2_)" fill="#FFFFFF" d="M125,456.5h774H125z"/>
		
			<line clip-path="url(#SVGID_2_)" fill="none" stroke="#000000" stroke-width="2" stroke-miterlimit="10" x1="125" y1="456.5" x2="899" y2="456.5"/>
		<rect x="138" y="81.5" clip-path="url(#SVGID_2_)" fill="#E3D4CF" width="748" height="375"/>
		<path clip-path="url(#SVGID_2_)" fill="#FFFFFF" d="M125,456.5h774H125z"/>
		
			<line clip-path="url(#SVGID_2_)" fill="none" stroke="#000000" stroke-width="2" stroke-miterlimit="10" x1="125" y1="456.5" x2="899" y2="456.5"/>
		<rect x="353.707" y="383.445" clip-path="url(#SVGID_2_)" fill="#FFFFFF" width="14.282" height="118.252"/>
		
			<rect x="353.707" y="383.445" clip-path="url(#SVGID_2_)" fill="none" stroke="#000000" stroke-width="2" stroke-linejoin="round" stroke-miterlimit="10" width="14.282" height="118.252"/>
		<rect x="622.447" y="365.135" clip-path="url(#SVGID_2_)" fill="#FFFFFF" width="14.282" height="104.077"/>
		
			<rect x="622.447" y="365.135" clip-path="url(#SVGID_2_)" fill="none" stroke="#000000" stroke-width="2" stroke-linejoin="round" stroke-miterlimit="10" width="14.282" height="104.077"/>
		<rect x="368.255" y="365.135" clip-path="url(#SVGID_2_)" fill="#FFFFFF" width="14.282" height="104.077"/>
		
			<rect x="368.255" y="365.135" clip-path="url(#SVGID_2_)" fill="none" stroke="#000000" stroke-width="2" stroke-linejoin="round" stroke-miterlimit="10" width="14.282" height="104.077"/>
		<rect x="636.308" y="383.204" clip-path="url(#SVGID_2_)" fill="#FFFFFF" width="14.282" height="118.251"/>
		
			<rect x="636.308" y="383.204" clip-path="url(#SVGID_2_)" fill="none" stroke="#000000" stroke-width="2" stroke-linejoin="round" stroke-miterlimit="10" width="14.282" height="118.251"/>
		<rect x="353.587" y="366.555" clip-path="url(#SVGID_2_)" fill="#FFFFFF" width="297.124" height="17.011"/>
		<path clip-path="url(#SVGID_2_)" d="M649.711,382.565H354.587v-15.011h295.124V382.565z M651.711,365.555H352.587v19.011h299.124
			V365.555z"/>
		<polygon clip-path="url(#SVGID_2_)" fill="#7F7F7F" points="651.044,366.675 353.707,366.675 367.54,351.511 639.762,351.511 		
			"/>
		
			<polygon clip-path="url(#SVGID_2_)" fill="none" stroke="#000000" stroke-width="2" stroke-linejoin="round" stroke-miterlimit="10" points="
			651.044,366.675 353.707,366.675 367.54,351.511 639.762,351.511 		"/>
		<g clip-path="url(#SVGID_2_)">
			<defs>
				<rect id="SVGID_295_" y="-1.5" width="1024" height="633"/>
			</defs>
			<clipPath id="SVGID_4_">
				<use xlink:href="#SVGID_295_"  overflow="visible"/>
			</clipPath>
			<path clip-path="url(#SVGID_4_)" fill="#FFFFFF" d="M602,333.5c0,7.18-5.82,13-13,13H423c-7.18,0-13-5.82-13-13v-127
				c0-7.18,5.82-13,13-13h166c7.18,0,13,5.82,13,13V333.5z"/>
			
				<path clip-path="url(#SVGID_4_)" fill="none" stroke="#000000" stroke-width="2" stroke-linejoin="round" stroke-miterlimit="10" d="
				M602,333.5c0,7.18-5.82,13-13,13H423c-7.18,0-13-5.82-13-13v-127c0-7.18,5.82-13,13-13h166c7.18,0,13,5.82,13,13V333.5z"/>
			<rect x="430" y="345.5" clip-path="url(#SVGID_4_)" fill="#FFFFFF" width="149" height="14"/>
			
				<rect x="430" y="345.5" clip-path="url(#SVGID_4_)" fill="none" stroke="#000000" stroke-width="2" stroke-linejoin="round" stroke-miterlimit="10" width="149" height="14"/>
		</g>
		<g clip-path="url(#SVGID_2_)">
			<defs>
				<rect id="SVGID_297_" x="430.618" y="210.374" width="151.263" height="116.484"/>
			</defs>
			<clipPath id="SVGID_6_">
				<use xlink:href="#SVGID_297_"  overflow="visible"/>
			</clipPath>
			<rect x="430.619" y="209.769" clip-path="url(#SVGID_6_)" fill="#0B4A0C" width="151.263" height="116.483"/>
			
				<circle clip-path="url(#SVGID_6_)" fill="none" stroke="#FFFFFF" stroke-linejoin="round" stroke-miterlimit="10" cx="468.208" cy="295.766" r="46.345"/>
			<rect x="462.919" y="289.032" clip-path="url(#SVGID_6_)" fill="#155643" width="118.963" height="30.095"/>
			<path clip-path="url(#SVGID_6_)" d="M474.602,296.734c-1.457,0.14-1.604,0.335-1.604,2.516v9.28c0,3.257-0.325,5.521-1.918,7.241
				c-0.682,0.825-1.436,1.257-2.139,1.509l-0.325-1.02c1.132-0.699,1.719-1.747,1.929-3.299c0.179-1.313,0.22-2.865,0.22-4.948
				v-8.763c0-2.181-0.178-2.376-1.719-2.516v-0.979h5.556V296.734z"/>
			<path clip-path="url(#SVGID_6_)" d="M482.557,295.392c3.386,0,6.268,3.452,6.268,8.75c0,5.73-2.924,9.141-6.51,9.141
				c-3.668,0-6.373-3.76-6.373-8.876c0-4.612,2.359-9.015,6.594-9.015H482.557z M482.147,296.496c-1.981,0-3.627,2.726-3.627,7.31
				c0,4.641,1.625,8.331,4.162,8.331c1.928,0,3.543-2.405,3.543-7.268c0-5.326-1.762-8.373-4.057-8.373H482.147z"/>
			<path clip-path="url(#SVGID_6_)" d="M503.611,296.734c-1.111,0.084-1.562,0.461-1.667,1.454
				c-0.063,0.782-0.136,1.775-0.136,3.955v2.488c0,2.949-0.336,5.213-1.457,6.793c-0.881,1.258-2.212,1.859-3.544,1.859
				c-1.226,0-2.4-0.35-3.301-1.328c-1.122-1.174-1.657-3.117-1.657-6.206v-6.415c0-2.292-0.168-2.46-1.677-2.6v-0.979h5.566v0.979
				c-1.478,0.14-1.656,0.308-1.656,2.6v5.926c0,4.123,1.143,6.276,3.313,6.276c2.4,0,3.406-2.53,3.406-6.933v-2.46
				c0-2.153-0.084-3.173-0.168-3.983c-0.104-0.938-0.555-1.314-1.939-1.426v-0.979h4.917V296.734z"/>
			<path clip-path="url(#SVGID_6_)" d="M516.489,313.129c-0.189,0-0.43-0.028-0.66-0.028c-2.024-0.112-2.799-0.797-3.606-2.488
				c-0.588-1.146-1.206-2.712-1.761-4.039c-0.326-0.741-0.65-1.049-1.415-1.049h-0.546v3.886c0,2.18,0.178,2.348,1.677,2.516v0.978
				h-5.576v-0.978c1.52-0.168,1.74-0.336,1.74-2.516v-10.217c0-2.153-0.199-2.321-1.656-2.46v-0.979h5.262
				c1.562,0,2.526,0.238,3.302,0.923c0.797,0.685,1.352,1.859,1.352,3.494c0,2.32-1.069,3.634-2.474,4.431
				c0.325,0.769,1.081,2.543,1.677,3.746c0.693,1.44,1.06,2.152,1.49,2.725c0.47,0.685,0.879,0.979,1.298,1.174L516.489,313.129z
				 M509.256,304.435c0.859,0,1.478-0.209,1.929-0.713c0.734-0.754,1.038-1.803,1.038-3.159c0-2.739-1.332-3.745-2.6-3.745
				c-0.514,0-0.797,0.112-0.923,0.293c-0.157,0.14-0.199,0.419-0.199,1.076v6.248H509.256z"/>
			<path clip-path="url(#SVGID_6_)" d="M530.605,296.706c-1.069,0.083-1.499,0.461-1.604,1.509
				c-0.083,0.811-0.147,2.041-0.147,4.361v10.553h-0.933l-7.914-13.25h-0.043V306c0,2.237,0.084,3.495,0.147,4.277
				c0.084,1.175,0.514,1.566,1.867,1.65v0.978h-4.833v-0.978c1.101-0.084,1.572-0.475,1.656-1.594
				c0.083-0.838,0.167-2.096,0.167-4.333v-5.632c0-1.775-0.021-2.097-0.377-2.725c-0.367-0.63-0.838-0.825-1.677-0.937v-0.951h3.344
				l7.517,12.202h0.062v-5.381c0-2.32-0.084-3.55-0.146-4.333c-0.106-1.048-0.557-1.425-1.908-1.537v-0.951h4.822V296.706z"/>
			<path clip-path="url(#SVGID_6_)" d="M538.222,312.905v-0.979c1.163-0.223,1.289-0.447,1.027-1.537
				c-0.23-0.838-0.535-2.041-0.859-3.214h-3.9c-0.241,0.838-0.493,1.774-0.713,2.837c-0.325,1.412-0.231,1.691,1.185,1.914v0.979
				h-4.403v-0.979c1.289-0.223,1.541-0.418,2.191-2.655l3.951-13.6l0.923-0.307c1.195,4.458,2.464,9.406,3.711,13.851
				c0.598,2.264,0.859,2.516,2.149,2.711v0.979H538.222z M536.503,299.655h-0.063c-0.556,2.054-1.09,4.123-1.635,6.122h3.249
				L536.503,299.655z"/>
			<path clip-path="url(#SVGID_6_)" d="M551.938,312.905v-0.979c1.164-0.223,1.29-0.447,1.027-1.537
				c-0.23-0.838-0.534-2.041-0.859-3.214h-3.9c-0.241,0.838-0.492,1.774-0.713,2.837c-0.325,1.412-0.23,1.691,1.185,1.914v0.979
				h-4.402v-0.979c1.289-0.223,1.541-0.418,2.19-2.655l3.952-13.6l0.923-0.307c1.194,4.458,2.463,9.406,3.711,13.851
				c0.597,2.264,0.859,2.516,2.148,2.711v0.979H551.938z M550.22,299.655h-0.062c-0.556,2.054-1.091,4.123-1.636,6.122h3.25
				L550.22,299.655z"/>
			<path clip-path="url(#SVGID_6_)" d="M568.172,308.53c-0.137,1.021-0.545,3.634-0.713,4.375h-9.235v-0.979
				c1.635-0.167,1.834-0.335,1.834-2.515V299.25c0-2.208-0.199-2.376-1.719-2.515v-0.979h5.64v0.979
				c-1.541,0.139-1.719,0.307-1.719,2.515v10.19c0,1.285,0.094,1.803,0.503,2.04c0.335,0.224,0.922,0.28,1.603,0.28
				c0.881,0,1.573-0.14,2.024-0.825c0.335-0.545,0.702-1.383,1.027-2.641L568.172,308.53z"/>
			<rect x="491.478" y="219.917" clip-path="url(#SVGID_6_)" fill="#C6BD88" width="90.404" height="66.28"/>
			<path clip-path="url(#SVGID_6_)" fill="#1B1A23" d="M535.312,279.947c-14.407,0-26.131-11.722-26.131-26.131
				c0-14.406,11.724-26.13,26.131-26.13c14.409,0,26.13,11.724,26.13,26.13C561.442,268.225,549.722,279.947,535.312,279.947
				 M535.312,229.361c-13.484,0-24.455,10.972-24.455,24.455c0,13.486,10.971,24.458,24.455,24.458
				c13.485,0,24.456-10.972,24.456-24.458C559.769,240.333,548.797,229.361,535.312,229.361"/>
			<path clip-path="url(#SVGID_6_)" fill="#1B1A23" d="M551.467,233.255c0.532-1.059,0.263-2.38,1.105-3.338
				c0.076-0.085,0.053-0.269,0.056-0.406c0.005-0.165,0.012-0.37-0.211-0.388c-0.144-0.014-0.286,0.124-0.288,0.258
				c-0.003,0.936-0.974,1.478-0.953,2.442c0.008,0.315-0.236,0.64-0.39,1.024c-0.252-0.393-0.211-0.738-0.082-1.029
				c0.63-1.417,0.647-2.972,1.024-4.445c0.037-0.152,0.096-0.369-0.131-0.415c-0.209-0.042-0.287,0.164-0.309,0.32
				c-0.146,1.04-1.083,1.852-0.87,3.005c0.025,0.124-0.125,0.304-0.231,0.425c-0.303,0.343-0.506,0.726-0.619,1.171"/>
			<path clip-path="url(#SVGID_6_)" fill-rule="evenodd" clip-rule="evenodd" fill="#1B1A23" d="M549.567,231.879
				c0.113-0.445,0.316-0.828,0.619-1.171c0.106-0.121,0.256-0.301,0.231-0.425c-0.213-1.152,0.724-1.965,0.87-3.004
				c0.022-0.157,0.1-0.363,0.309-0.321c0.228,0.046,0.168,0.263,0.131,0.415c-0.377,1.473-0.394,3.028-1.024,4.446
				c-0.128,0.291-0.17,0.635,0.082,1.028c0.154-0.384,0.398-0.709,0.39-1.024c-0.021-0.964,0.95-1.506,0.953-2.442
				c0.002-0.134,0.144-0.271,0.288-0.258c0.223,0.018,0.216,0.223,0.211,0.388c-0.003,0.137,0.02,0.321-0.055,0.406
				c-0.843,0.958-0.574,2.279-1.106,3.338 M550.347,235.467c-0.168-0.137-0.351-0.358-0.578-0.155
				c-0.234,0.211-0.144,0.468,0.045,0.667c0.246,0.259,0.456,0.595,0.303,0.903c-0.452,0.91-0.5,1.924-0.836,2.86
				c-0.113,0.316-0.284,0.41-0.546,0.146c-0.146-0.143-0.239-0.448-0.521-0.218c-0.219,0.178-0.245,0.447-0.145,0.692
				c0.356,0.865,0.032,1.523-0.611,2.077c-0.453,0.392-0.58,0.834-0.431,1.419c0.151,0.599,0.096,1.17-0.542,1.523
				c-0.136,0.074-0.297,0.227-0.321,0.365c-0.213,1.2-1.142,2.091-1.372,3.296c-0.126,0.658-0.146,1.328-0.339,1.972
				c-0.057,0.197-0.293,0.457-0.009,0.579c0.277,0.122,0.309-0.24,0.434-0.401c0.069-0.09,0.101-0.214,0.184-0.277
				c0.195-0.146,0.142-0.683,0.528-0.456c0.257,0.152,0.084,0.519-0.034,0.77c-0.066,0.147-0.18,0.287-0.303,0.392
				c-0.748,0.651-0.756,1.786-1.569,2.393c-0.05,0.038-0.074,0.18-0.044,0.237c0.484,0.88-0.116,1.513-0.455,2.234
				c-1.385,2.964-3.081,5.73-5.038,8.355c-1.261,1.693-2.689,3.215-4.37,4.446c-2.015,1.474-4.109,2.869-6.606,3.454
				c-0.186,0.043-0.354,0.165-0.533,0.245c-2.504,1.099-5.427-0.033-6.489-2.518c-0.163-0.378-0.251-0.783,0.101-1.082
				c0.382-0.319,0.741-0.08,1.041,0.193c0.422,0.386,0.91,0.481,1.467,0.472c1.213-0.017,2.371-0.205,3.51-0.67
				c1.707-0.698,3.338-1.481,4.851-2.583c0.961-0.7,1.772-1.523,2.622-2.316c1.347-1.257,2.514-2.669,3.554-4.193
				c1.099-1.616,2.002-3.335,2.896-5.067c1.329-2.579,2.542-5.207,3.725-7.855c0.914-2.041,1.58-4.17,2.456-6.221
				c0.846-1.974,1.525-4.011,2.28-6.018"/>
			<path clip-path="url(#SVGID_6_)" fill-rule="evenodd" clip-rule="evenodd" fill="#1B1A23" d="M548.651,235.126
				c-0.755,2.007-1.434,4.044-2.279,6.018c-0.876,2.051-1.542,4.18-2.456,6.222c-1.184,2.647-2.397,5.275-3.726,7.855
				c-0.893,1.731-1.797,3.45-2.895,5.066c-1.04,1.524-2.207,2.936-3.555,4.193c-0.85,0.793-1.66,1.616-2.621,2.316
				c-1.514,1.102-3.145,1.885-4.852,2.583c-1.138,0.465-2.297,0.653-3.51,0.671c-0.556,0.009-1.044-0.087-1.466-0.473
				c-0.301-0.272-0.66-0.512-1.041-0.192c-0.353,0.298-0.265,0.703-0.102,1.081c1.063,2.485,3.985,3.618,6.489,2.518
				c0.18-0.08,0.347-0.201,0.534-0.244c2.497-0.585,4.59-1.98,6.605-3.455c1.682-1.231,3.109-2.752,4.37-4.446
				c1.957-2.625,3.653-5.39,5.038-8.355c0.339-0.721,0.94-1.354,0.455-2.234c-0.03-0.057-0.006-0.199,0.044-0.236
				c0.814-0.607,0.822-1.743,1.57-2.394c0.123-0.105,0.236-0.245,0.302-0.391c0.118-0.252,0.291-0.619,0.034-0.77
				c-0.385-0.228-0.333,0.309-0.528,0.456c-0.083,0.062-0.115,0.187-0.183,0.276c-0.125,0.161-0.158,0.523-0.435,0.402
				c-0.284-0.123-0.048-0.383,0.01-0.58c0.192-0.643,0.213-1.314,0.339-1.971c0.229-1.206,1.158-2.096,1.372-3.296
				c0.023-0.139,0.184-0.291,0.32-0.366c0.639-0.353,0.693-0.923,0.542-1.523c-0.148-0.585-0.021-1.027,0.432-1.419
				c0.642-0.553,0.966-1.212,0.61-2.077c-0.1-0.244-0.073-0.513,0.146-0.692c0.282-0.23,0.375,0.076,0.52,0.218
				c0.263,0.264,0.434,0.171,0.546-0.145c0.336-0.937,0.385-1.951,0.836-2.861c0.153-0.308-0.057-0.644-0.303-0.903
				c-0.188-0.199-0.278-0.456-0.045-0.667c0.228-0.203,0.41,0.019,0.578,0.155"/>
		</g>
		<g clip-path="url(#SVGID_2_)">
			<defs>
				<rect id="SVGID_299_" y="-1.5" width="1024" height="633"/>
			</defs>
			<clipPath id="SVGID_8_">
				<use xlink:href="#SVGID_299_"  overflow="visible"/>
			</clipPath>
			
				<rect x="430" y="210.5" clip-path="url(#SVGID_8_)" fill="none" stroke="#000000" stroke-width="2" stroke-miterlimit="10" width="151" height="116"/>
			<polygon clip-path="url(#SVGID_8_)" fill="#7F7F7F" points="783,367.5 676.937,367.5 661,352.5 756.814,352.5 			"/>
			
				<polygon clip-path="url(#SVGID_8_)" fill="none" stroke="#000000" stroke-width="2" stroke-linejoin="round" stroke-miterlimit="10" points="
				783,367.5 676.937,367.5 661,352.5 756.814,352.5 			"/>
			<rect x="677" y="367.5" clip-path="url(#SVGID_8_)" fill="#FFFFFF" width="106" height="45"/>
			
				<rect x="677" y="367.5" clip-path="url(#SVGID_8_)" fill="none" stroke="#000000" stroke-width="2" stroke-linejoin="round" stroke-miterlimit="10" width="106" height="45"/>
			<rect x="677" y="412.5" clip-path="url(#SVGID_8_)" fill="#FFFFFF" width="106" height="44"/>
			
				<rect x="677" y="412.5" clip-path="url(#SVGID_8_)" fill="none" stroke="#000000" stroke-width="2" stroke-linejoin="round" stroke-miterlimit="10" width="106" height="44"/>
			<rect x="677" y="456.5" clip-path="url(#SVGID_8_)" fill="#FFFFFF" width="106" height="45"/>
			
				<rect x="677" y="456.5" clip-path="url(#SVGID_8_)" fill="none" stroke="#000000" stroke-width="2" stroke-linejoin="round" stroke-miterlimit="10" width="106" height="45"/>
			<polygon clip-path="url(#SVGID_8_)" fill="#FFFFFF" points="677,501.451 661,473.17 661,352.502 677,367.828 			"/>
			
				<polygon clip-path="url(#SVGID_8_)" fill="none" stroke="#000000" stroke-width="2" stroke-linejoin="round" stroke-miterlimit="10" points="
				677,501.451 661,473.17 661,352.502 677,367.828 			"/>
			<rect x="706" y="357.5" clip-path="url(#SVGID_8_)" fill="#FFFFFF" width="22" height="6"/>
			
				<rect x="706" y="357.5" clip-path="url(#SVGID_8_)" fill="none" stroke="#000000" stroke-width="2" stroke-linejoin="round" stroke-miterlimit="10" width="22" height="6"/>
			<rect x="710" y="313.5" clip-path="url(#SVGID_8_)" fill="#FFFFFF" width="15" height="47"/>
			
				<rect x="710" y="313.5" clip-path="url(#SVGID_8_)" fill="none" stroke="#000000" stroke-width="2" stroke-linejoin="round" stroke-miterlimit="10" width="15" height="47"/>
			<rect x="713" y="317.5" clip-path="url(#SVGID_8_)" fill="#FFFFFF" width="9" height="11"/>
			
				<rect x="713" y="317.5" clip-path="url(#SVGID_8_)" fill="none" stroke="#000000" stroke-width="2" stroke-linejoin="round" stroke-miterlimit="10" width="9" height="11"/>
			<rect x="720" y="299.5" clip-path="url(#SVGID_8_)" fill="#FFFFFF" width="2" height="14"/>
			
				<rect x="720" y="299.5" clip-path="url(#SVGID_8_)" fill="none" stroke="#000000" stroke-width="2" stroke-linejoin="round" stroke-miterlimit="10" width="2" height="14"/>
			<rect x="713" y="332.5" clip-path="url(#SVGID_8_)" fill="#FFFFFF" width="9" height="6"/>
			
				<rect x="713" y="332.5" clip-path="url(#SVGID_8_)" fill="none" stroke="#000000" stroke-width="2" stroke-linejoin="round" stroke-miterlimit="10" width="9" height="6"/>
			<rect x="713" y="338.5" clip-path="url(#SVGID_8_)" fill="#FFFFFF" width="9" height="7"/>
			
				<rect x="713" y="338.5" clip-path="url(#SVGID_8_)" fill="none" stroke="#000000" stroke-width="2" stroke-linejoin="round" stroke-miterlimit="10" width="9" height="7"/>
			<rect x="269" y="77.5" clip-path="url(#SVGID_8_)" fill="#FFFFFF" width="40" height="40"/>
			
				<rect x="269" y="77.5" clip-path="url(#SVGID_8_)" fill="none" stroke="#000000" stroke-width="2" stroke-linejoin="round" stroke-miterlimit="10" width="40" height="40"/>
			<rect x="278" y="70.5" clip-path="url(#SVGID_8_)" fill="#FFFFFF" width="22" height="53"/>
			
				<rect x="278" y="70.5" clip-path="url(#SVGID_8_)" fill="none" stroke="#000000" stroke-width="2" stroke-linejoin="round" stroke-miterlimit="10" width="22" height="53"/>
			<rect x="482" y="77.5" clip-path="url(#SVGID_8_)" fill="#FFFFFF" width="40" height="40"/>
			
				<rect x="482" y="77.5" clip-path="url(#SVGID_8_)" fill="none" stroke="#000000" stroke-width="2" stroke-linejoin="round" stroke-miterlimit="10" width="40" height="40"/>
			<rect x="491" y="70.5" clip-path="url(#SVGID_8_)" fill="#FFFFFF" width="22" height="53"/>
			
				<rect x="491" y="70.5" clip-path="url(#SVGID_8_)" fill="none" stroke="#000000" stroke-width="2" stroke-linejoin="round" stroke-miterlimit="10" width="22" height="53"/>
			<rect x="693" y="77.5" clip-path="url(#SVGID_8_)" fill="#FFFFFF" width="40" height="40"/>
			
				<rect x="693" y="77.5" clip-path="url(#SVGID_8_)" fill="none" stroke="#000000" stroke-width="2" stroke-linejoin="round" stroke-miterlimit="10" width="40" height="40"/>
			<rect x="702" y="70.5" clip-path="url(#SVGID_8_)" fill="#FFFFFF" width="22" height="53"/>
			
				<rect x="702" y="70.5" clip-path="url(#SVGID_8_)" fill="none" stroke="#000000" stroke-width="2" stroke-linejoin="round" stroke-miterlimit="10" width="22" height="53"/>
		</g>
	</g>
</g>
</svg>
