


<svg version="1.1" id="Layer_1" xmlns="http://www.w3.org/2000/svg" xmlns:xlink="http://www.w3.org/1999/xlink" x="0px" y="0px"
	 width="1024px" height="630px" viewBox="0 0 1024 630" enable-background="new 0 0 1024 630" xml:space="preserve">
<g>
	<g>
		<defs>
			<rect id="SVGID_327_" y="-1.5" width="1024" height="633"/>
		</defs>
		<clipPath id="SVGID_2_">
			<use xlink:href="#SVGID_327_"  overflow="visible"/>
		</clipPath>
		<rect x="138" y="81.5" clip-path="url(#SVGID_2_)" fill="#D7DED7" width="748" height="375"/>
		<path clip-path="url(#SVGID_2_)" fill="#FFFFFF" d="M125,456.5h774H125z"/>
		
			<line clip-path="url(#SVGID_2_)" fill="none" stroke="#000000" stroke-width="2" stroke-miterlimit="10" x1="125" y1="456.5" x2="899" y2="456.5"/>
		<rect x="282" y="383.5" clip-path="url(#SVGID_2_)" fill="#FFFFFF" width="459" height="93"/>
		
			<rect x="282" y="383.5" clip-path="url(#SVGID_2_)" fill="none" stroke="#000000" stroke-width="2" stroke-miterlimit="10" width="459" height="93"/>
		
			<rect x="288" y="389.5" clip-path="url(#SVGID_2_)" fill="none" stroke="#000000" stroke-width="2" stroke-miterlimit="10" width="448" height="81"/>
		
			<rect x="288" y="389.5" clip-path="url(#SVGID_2_)" fill="none" stroke="#000000" stroke-width="2" stroke-miterlimit="10" width="223" height="81"/>
		<g clip-path="url(#SVGID_2_)">
			<defs>
				<rect id="SVGID_329_" y="-1.5" width="1024" height="633"/>
			</defs>
			<clipPath id="SVGID_4_">
				<use xlink:href="#SVGID_329_"  overflow="visible"/>
			</clipPath>
			
				<circle clip-path="url(#SVGID_4_)" fill="none" stroke="#000000" stroke-width="2" stroke-miterlimit="10" cx="302.5" cy="430" r="4.5"/>
			
				<rect x="511" y="425.5" clip-path="url(#SVGID_4_)" fill="none" stroke="#000000" stroke-width="2" stroke-miterlimit="10" width="225" height="5"/>
			
				<rect x="674" y="415.5" clip-path="url(#SVGID_4_)" fill="none" stroke="#000000" stroke-width="2" stroke-miterlimit="10" width="33" height="10"/>
			
				<rect x="697" y="415.5" clip-path="url(#SVGID_4_)" fill="none" stroke="#000000" stroke-width="2" stroke-miterlimit="10" width="7" height="10"/>
			
				<rect x="677" y="415.5" clip-path="url(#SVGID_4_)" fill="none" stroke="#000000" stroke-width="2" stroke-miterlimit="10" width="7" height="10"/>
			<rect x="510" y="389.5" clip-path="url(#SVGID_4_)" fill="#FFFFFF" width="136" height="81"/>
			
				<rect x="510" y="389.5" clip-path="url(#SVGID_4_)" fill="none" stroke="#000000" stroke-width="2" stroke-miterlimit="10" width="136" height="81"/>
			
				<circle clip-path="url(#SVGID_4_)" fill="none" stroke="#000000" stroke-width="2" stroke-miterlimit="10" cx="625.5" cy="430" r="4.5"/>
			<polygon clip-path="url(#SVGID_4_)" fill="#7F7F7F" points="700.5,352.5 323.033,352.5 282,383.5 741.432,383.5 			"/>
			
				<polygon clip-path="url(#SVGID_4_)" fill="none" stroke="#000000" stroke-width="2" stroke-linejoin="round" stroke-miterlimit="10" points="
				700.5,352.5 323.033,352.5 282,383.5 741.432,383.5 			"/>
			<rect x="661" y="361.5" clip-path="url(#SVGID_4_)" fill="#FFFFFF" width="57" height="14"/>
			
				<rect x="661" y="361.5" clip-path="url(#SVGID_4_)" fill="none" stroke="#000000" stroke-width="2" stroke-miterlimit="10" width="57" height="14"/>
			<rect x="678" y="344.5" clip-path="url(#SVGID_4_)" fill="#FFFFFF" width="24" height="17"/>
			
				<rect x="678" y="344.5" clip-path="url(#SVGID_4_)" fill="none" stroke="#000000" stroke-width="2" stroke-miterlimit="10" width="24" height="17"/>
			<rect x="397" y="359.5" clip-path="url(#SVGID_4_)" fill="#FFFFFF" width="229" height="14"/>
			
				<rect x="397" y="359.5" clip-path="url(#SVGID_4_)" fill="none" stroke="#000000" stroke-width="2" stroke-miterlimit="10" width="229" height="14"/>
			<path clip-path="url(#SVGID_4_)" fill="#FFFFFF" d="M654,359.5c-95.311,2.995-190.69,2.995-286,0v-172
				c95.31-2.995,190.689-2.995,286,0V359.5z"/>
			<path clip-path="url(#SVGID_4_)" fill="none" stroke="#000000" stroke-width="2" stroke-miterlimit="10" d="M654,359.5
				c-95.311,2.995-190.69,2.995-286,0v-172c95.31-2.995,190.689-2.995,286,0V359.5z"/>
			<rect x="397" y="201.5" clip-path="url(#SVGID_4_)" fill="#FFFFFF" width="229" height="130"/>
			
				<rect x="397" y="201.5" clip-path="url(#SVGID_4_)" fill="none" stroke="#000000" stroke-width="2" stroke-miterlimit="10" width="229" height="130"/>
			<rect x="451" y="340.5" clip-path="url(#SVGID_4_)" fill="#FFFFFF" width="120" height="13"/>
			
				<rect x="451" y="340.5" clip-path="url(#SVGID_4_)" fill="none" stroke="#000000" stroke-width="2" stroke-miterlimit="10" width="120" height="13"/>
			<path clip-path="url(#SVGID_4_)" fill="none" stroke="#000000" stroke-width="2" stroke-miterlimit="10" d="M687,376.5
				c0,0,18,33,5,39"/>
			<path clip-path="url(#SVGID_4_)" fill="#030603" d="M455.253,200.5H397v81.189c3.899-0.216,7.825-0.099,11.778-0.099
				c51.657,0,98.947,18.548,135.478,49.91H626v-99.629c-19.424,16.75-44.818,26.784-72.635,26.784
				C511.008,258.655,474.382,235.5,455.253,200.5"/>
			<path clip-path="url(#SVGID_4_)" fill="#4745AF" d="M455.253,201.5c19.129,34,55.754,57.656,98.112,57.656
				c27.816,0,53.211-10.535,72.635-27.285V201.5H455.253z"/>
			<path clip-path="url(#SVGID_4_)" fill="#183A63" d="M397,281.689V331.5h147.257c-36.532-31.362-83.822-49.91-135.479-49.91
				C404.825,281.59,400.899,281.473,397,281.689"/>
			<rect x="448" y="255.5" clip-path="url(#SVGID_4_)" fill="#9CDAC3" width="138" height="37"/>
			
				<rect x="448" y="255.5" clip-path="url(#SVGID_4_)" fill="none" stroke="#000000" stroke-width="2" stroke-miterlimit="10" width="138" height="37"/>
			<path clip-path="url(#SVGID_4_)" d="M458.007,284.78c0.323,0.056,0.56,0.094,0.709,0.112c0.15,0.016,0.281,0.026,0.398,0.026
				c0.807,0,1.38-0.261,1.72-0.78c0.341-0.518,0.511-1.419,0.511-2.697v-23.529h5.432v23.493c0,2.906-0.487,5.026-1.461,6.357
				c-0.975,1.334-2.513,1.999-4.61,1.999c-0.358,0-0.725-0.029-1.098-0.085c-0.375-0.06-0.801-0.156-1.272-0.295L458.007,284.78z"/>
			<path clip-path="url(#SVGID_4_)" d="M469.892,273.932c0-2.653,0.687-4.74,2.059-6.262c1.372-1.523,3.241-2.284,5.605-2.284
				c2.353,0,4.217,0.761,5.589,2.284c1.372,1.522,2.058,3.609,2.058,6.262c0,2.642-0.683,4.718-2.049,6.227
				c-1.367,1.512-3.233,2.268-5.598,2.268c-2.375,0-4.246-0.756-5.613-2.268C470.576,278.649,469.892,276.574,469.892,273.932
				 M474.823,273.932c0,1.614,0.23,2.839,0.693,3.676c0.461,0.836,1.141,1.254,2.04,1.254c0.9,0,1.584-0.421,2.051-1.263
				c0.467-0.841,0.7-2.064,0.7-3.667c0-1.615-0.235-2.847-0.709-3.694c-0.473-0.847-1.153-1.271-2.042-1.271
				c-0.899,0-1.579,0.424-2.04,1.271C475.053,271.084,474.823,272.316,474.823,273.932"/>
			<path clip-path="url(#SVGID_4_)" d="M497.209,280.055c-0.691,0.843-1.408,1.448-2.146,1.817c-0.738,0.37-1.59,0.554-2.561,0.554
				c-1.533,0-2.702-0.542-3.511-1.627c-0.807-1.084-1.212-2.652-1.212-4.705v-10.38h4.759v9.67c0,1.189,0.147,2.034,0.442,2.535
				c0.293,0.502,0.781,0.752,1.461,0.752c0.554,0,1.047-0.195,1.479-0.588c0.433-0.391,0.862-1.031,1.289-1.92v-10.449h4.792v16.401
				h-4.724L497.209,280.055z"/>
			<path clip-path="url(#SVGID_4_)" d="M505.566,282.115v-16.401h4.584v5.449c0.6-1.914,1.258-3.35,1.973-4.307
				c0.715-0.957,1.482-1.436,2.3-1.436c0.483,0,0.966,0.087,1.444,0.26s0.955,0.432,1.428,0.778l-1.125,4.395
				c-0.299-0.255-0.607-0.442-0.925-0.564c-0.316-0.121-0.638-0.181-0.962-0.181c-1.163,0-2.104,0.848-2.818,2.543
				c-0.715,1.695-1.072,3.973-1.072,6.835v2.629H505.566z"/>
			<path clip-path="url(#SVGID_4_)" d="M518.887,282.115v-16.401h4.725l0.067,2.058c0.692-0.841,1.407-1.449,2.146-1.824
				c0.739-0.375,1.592-0.562,2.561-0.562c1.535,0,2.704,0.541,3.513,1.625c0.808,1.085,1.212,2.659,1.212,4.724v10.38h-4.794v-9.671
				c0-1.212-0.145-2.064-0.433-2.56c-0.288-0.497-0.768-0.745-1.434-0.745c-0.557,0-1.057,0.202-1.508,0.605
				c-0.449,0.405-0.882,1.045-1.296,1.921v10.45H518.887z"/>
			<path clip-path="url(#SVGID_4_)" d="M544.127,280.35c-0.828,0.762-1.59,1.312-2.281,1.653c-0.693,0.339-1.408,0.51-2.146,0.51
				c-1.212,0-2.193-0.384-2.949-1.151c-0.756-0.766-1.134-1.768-1.134-3.001c0-1.476,0.623-2.731,1.868-3.763
				c1.246-1.032,3.373-2.033,6.384-3.002v-1.349c0-0.439-0.135-0.762-0.405-0.969c-0.271-0.209-0.701-0.311-1.289-0.311
				c-0.947,0-1.877,0.199-2.795,0.596c-0.916,0.399-1.803,0.99-2.654,1.774v-3.72c0.992-0.761,2.015-1.328,3.072-1.703
				c1.053-0.374,2.163-0.563,3.328-0.563c1.936,0,3.34,0.419,4.204,1.254c0.864,0.836,1.298,2.189,1.298,4.057v7.163
				c0,0.207,0.034,0.354,0.102,0.441c0.07,0.086,0.186,0.129,0.347,0.129c0.128,0,0.295-0.046,0.502-0.138
				c0.208-0.091,0.468-0.235,0.779-0.432v3.079c-0.796,0.565-1.494,0.975-2.093,1.228c-0.6,0.255-1.154,0.381-1.662,0.381
				c-0.657,0-1.188-0.18-1.59-0.537C544.607,281.62,544.312,281.076,544.127,280.35 M543.868,277.962v-3.928
				c-1.278,0.439-2.214,0.912-2.801,1.419c-0.591,0.508-0.884,1.096-0.884,1.765c0,0.565,0.121,0.981,0.363,1.245
				c0.242,0.266,0.617,0.398,1.125,0.398c0.346,0,0.705-0.077,1.081-0.232C543.128,278.473,543.498,278.251,543.868,277.962"/>
			<path clip-path="url(#SVGID_4_)" d="M560.079,280.35c-0.831,0.762-1.591,1.312-2.282,1.653c-0.693,0.339-1.408,0.51-2.146,0.51
				c-1.212,0-2.196-0.384-2.95-1.151c-0.756-0.766-1.134-1.768-1.134-3.001c0-1.476,0.623-2.731,1.868-3.763
				c1.244-1.032,3.373-2.033,6.384-3.002v-1.349c0-0.439-0.138-0.762-0.405-0.969c-0.271-0.209-0.701-0.311-1.29-0.311
				c-0.946,0-1.877,0.199-2.794,0.596c-0.917,0.399-1.802,0.99-2.656,1.774v-3.72c0.992-0.761,2.016-1.328,3.072-1.703
				c1.055-0.374,2.165-0.563,3.329-0.563c1.937,0,3.339,0.419,4.204,1.254c0.866,0.836,1.3,2.189,1.3,4.057v7.163
				c0,0.207,0.032,0.354,0.103,0.441c0.068,0.086,0.184,0.129,0.346,0.129c0.127,0,0.293-0.046,0.503-0.138
				c0.206-0.091,0.466-0.235,0.776-0.432v3.079c-0.795,0.565-1.494,0.975-2.092,1.228c-0.601,0.255-1.154,0.381-1.664,0.381
				c-0.654,0-1.185-0.18-1.588-0.537C560.557,281.62,560.262,281.076,560.079,280.35 M559.819,277.962v-3.928
				c-1.278,0.439-2.213,0.912-2.804,1.419c-0.586,0.508-0.881,1.096-0.881,1.765c0,0.565,0.121,0.981,0.364,1.245
				c0.24,0.266,0.617,0.398,1.123,0.398c0.347,0,0.707-0.077,1.081-0.232C559.079,278.473,559.451,278.251,559.819,277.962"/>
			<rect x="568.506" y="257.912" clip-path="url(#SVGID_4_)" width="4.79" height="24.203"/>
		</g>
	</g>
</g>
</svg>
