


<svg version="1.1" id="Layer_1" xmlns="http://www.w3.org/2000/svg" xmlns:xlink="http://www.w3.org/1999/xlink" x="0px" y="0px"
	 width="1024px" height="630px" viewBox="0 0 1024 630" enable-background="new 0 0 1024 630" xml:space="preserve">
<g>
	<g>
		<defs>
			<rect id="SVGID_301_" y="-1.5" width="1024" height="633"/>
		</defs>
		<clipPath id="SVGID_2_">
			<use xlink:href="#SVGID_301_"  overflow="visible"/>
		</clipPath>
		<g clip-path="url(#SVGID_2_)">
			<defs>
				<rect id="SVGID_303_" y="-1.5" width="1024" height="633"/>
			</defs>
			<clipPath id="SVGID_4_">
				<use xlink:href="#SVGID_303_"  overflow="visible"/>
			</clipPath>
			<rect x="138" y="81.5" clip-path="url(#SVGID_4_)" fill="#D2D6E0" width="748" height="375"/>
			<path clip-path="url(#SVGID_4_)" fill="#FFFFFF" d="M125,456.5h774H125z"/>
			
				<line clip-path="url(#SVGID_4_)" fill="none" stroke="#000000" stroke-width="2" stroke-miterlimit="10" x1="125" y1="456.5" x2="899" y2="456.5"/>
			<path clip-path="url(#SVGID_4_)" fill="#FFFFFF" d="M196.368,457.066h193.566H196.368z"/>
			
				<line clip-path="url(#SVGID_4_)" fill="none" stroke="#000000" stroke-width="2" stroke-linejoin="round" stroke-miterlimit="10" x1="389.934" y1="457.066" x2="196.368" y2="457.066"/>
			<rect x="542.311" y="391.006" clip-path="url(#SVGID_4_)" fill="#FFFFFF" width="7.671" height="105.559"/>
			
				<rect x="542.311" y="391.006" clip-path="url(#SVGID_4_)" fill="none" stroke="#000000" stroke-width="2" stroke-linejoin="round" stroke-miterlimit="10" width="7.671" height="105.559"/>
			<rect x="826.07" y="390.791" clip-path="url(#SVGID_4_)" fill="#FFFFFF" width="6.63" height="105.559"/>
			
				<rect x="826.07" y="390.791" clip-path="url(#SVGID_4_)" fill="none" stroke="#000000" stroke-width="2" stroke-linejoin="round" stroke-miterlimit="10" width="6.63" height="105.559"/>
			<rect x="536.489" y="390.008" clip-path="url(#SVGID_4_)" fill="#FFFFFF" width="303.609" height="76.059"/>
			<path clip-path="url(#SVGID_4_)" d="M839.1,465.066H537.49v-74.06H839.1V465.066z M841.1,389.008H535.49v78.059H841.1V389.008z"
				/>
			<rect x="549.265" y="399.5" clip-path="url(#SVGID_4_)" fill="#D2D6E0" width="281.181" height="56.566"/>
			
				<rect x="549.265" y="399.5" clip-path="url(#SVGID_4_)" fill="none" stroke="#000000" stroke-width="2" stroke-miterlimit="10" width="281.181" height="56.566"/>
			<rect x="140.266" y="307.155" clip-path="url(#SVGID_4_)" fill="#FFFFFF" width="316" height="190.824"/>
			
				<rect x="140.266" y="307.155" clip-path="url(#SVGID_4_)" fill="none" stroke="#000000" stroke-width="2" stroke-linecap="round" stroke-linejoin="round" stroke-miterlimit="10" width="316" height="190.824"/>
			<polygon clip-path="url(#SVGID_4_)" fill="#FFFFFF" points="489.494,457.798 456.266,497.979 456.266,307.091 489.494,293.534 
							"/>
			
				<polygon clip-path="url(#SVGID_4_)" fill="none" stroke="#000000" stroke-width="2" stroke-linejoin="round" stroke-miterlimit="10" points="
				489.494,457.798 456.266,497.979 456.266,307.091 489.494,293.534 			"/>
			<polygon clip-path="url(#SVGID_4_)" fill="#CFCECB" points="489.494,293.534 217.569,293.534 140.265,307.154 456.266,307.154 
							"/>
			
				<polygon clip-path="url(#SVGID_4_)" fill="none" stroke="#000000" stroke-width="2" stroke-linejoin="round" stroke-miterlimit="10" points="
				489.494,293.534 217.569,293.534 140.265,307.154 456.266,307.154 			"/>
			<path clip-path="url(#SVGID_4_)" fill="#CFCECB" d="M307.266,497.174V308.166V497.174z"/>
			
				<line clip-path="url(#SVGID_4_)" fill="none" stroke="#000000" stroke-width="2" stroke-linejoin="round" stroke-miterlimit="10" x1="307.266" y1="308.166" x2="307.266" y2="497.174"/>
			<polygon clip-path="url(#SVGID_4_)" fill="#FFFFFF" points="233.669,239.5 320.669,239.5 325.331,296.5 238.331,296.5 			"/>
			<polygon clip-path="url(#SVGID_4_)" fill="none" stroke="#000000" stroke-width="2" stroke-miterlimit="10" points="
				233.669,239.5 320.669,239.5 325.331,296.5 238.331,296.5 			"/>
			<polygon clip-path="url(#SVGID_4_)" fill="#FFFFFF" points="320.331,239.5 233.331,239.5 228.669,300.5 315.669,300.5 			"/>
			<polygon clip-path="url(#SVGID_4_)" fill="none" stroke="#000000" stroke-width="2" stroke-miterlimit="10" points="
				320.331,239.5 233.331,239.5 228.669,300.5 315.669,300.5 			"/>
			<polygon clip-path="url(#SVGID_4_)" points="232.986,296.5 237.037,243.5 316.014,243.5 311.963,296.5 			"/>
			<g clip-path="url(#SVGID_4_)">
				<defs>
					<rect id="SVGID_305_" y="-1.5" width="1024" height="633"/>
				</defs>
				<clipPath id="SVGID_6_">
					<use xlink:href="#SVGID_305_"  overflow="visible"/>
				</clipPath>
				
					<path clip-path="url(#SVGID_6_)" fill="none" stroke="#FFFFFF" stroke-linecap="round" stroke-linejoin="round" stroke-miterlimit="10" d="
					M258.109,279.359c-3.328-2.402-4.604,0.982-5.98,2.896c-3.248-1.673-11.268-5.101-13.773-0.292
					c3.416,1.363,7.543,1.418,11.095,2.659c2.916,1.018,4.163,3.828,7.609,4.139"/>
				
					<path clip-path="url(#SVGID_6_)" fill="none" stroke="#FFFFFF" stroke-linecap="round" stroke-linejoin="round" stroke-miterlimit="10" d="
					M270.341,286.57c0.19-3.07,4.512-5.047,4.106-8.908c-0.354-3.384-3.702-5.253-6.88-4.96c-3.182,0.292-7.029,2.576-8.54,5.421
					c-0.99,1.868-0.934,3.088-1.096,5.113c-0.174,2.182-3.027-0.957-4.112-0.865"/>
				
					<path clip-path="url(#SVGID_6_)" fill="none" stroke="#FFFFFF" stroke-linecap="round" stroke-linejoin="round" stroke-miterlimit="10" d="
					M257.471,286.844c-2.374,7.084,8.604,4.867,12.81,4.718c3.158-0.11,5.527-0.644,1.525-2.922
					c-2.193-1.248-3.781-0.679-5.481,1.125"/>
				
					<path clip-path="url(#SVGID_6_)" fill="none" stroke="#FFFFFF" stroke-linecap="round" stroke-linejoin="round" stroke-miterlimit="10" d="
					M302.562,276.347c-1.542,2.211-7.14,0.772-9.195,0.229c-3.15-0.832-5.603-3.151-8.513-4.062"/>
				
					<path clip-path="url(#SVGID_6_)" fill="none" stroke="#FFFFFF" stroke-linecap="round" stroke-linejoin="round" stroke-miterlimit="10" d="
					M283.668,272.878c0.958,3.574,0.295,8.614-0.819,12.081c-1.668,5.194,1.814,1.803,3.01,5.901"/>
				
					<path clip-path="url(#SVGID_6_)" fill="none" stroke="#FFFFFF" stroke-linecap="round" stroke-linejoin="round" stroke-miterlimit="10" d="
					M301.011,254.44c9.858,1.623,0.258,8.899-0.73,6.48"/>
				
					<path clip-path="url(#SVGID_6_)" fill="none" stroke="#FFFFFF" stroke-linecap="round" stroke-linejoin="round" stroke-miterlimit="10" d="
					M278.83,254.44c2.95-3.729,8.67-2.979,12.123-0.524c2.043,1.452,3.562,3.502,4.453,5.836c0.338,0.885,0.407,4.819,1.133,5.182
					c2.206,1.102,8.027,7.698,7.482,10.309c-0.485,2.322-3.624-0.183-4.401-0.88c-1.438-1.29-2.104-1.296-3.609-0.92
					c-0.212-0.374-0.252-0.766-0.122-1.176c-0.634-0.072-1.162,0.132-1.588,0.611"/>
				
					<path clip-path="url(#SVGID_6_)" fill="none" stroke="#FFFFFF" stroke-linecap="round" stroke-linejoin="round" stroke-miterlimit="10" d="
					M274.996,274.43c0.411,4.116,0.809,8.052,0.42,12.197c-0.068,0.732-1.287,4.045,0.037,4.14c1.885,0.135,4.568,0.833,6.389,0.184
					"/>
				
					<path clip-path="url(#SVGID_6_)" fill="none" stroke="#FFFFFF" stroke-linecap="round" stroke-linejoin="round" stroke-miterlimit="10" d="
					M288.779,290.815c-0.159-2.688-5.029-2.846-6.754-3.059"/>
				
					<path clip-path="url(#SVGID_6_)" fill="none" stroke="#FFFFFF" stroke-linecap="round" stroke-linejoin="round" stroke-miterlimit="10" d="
					M281.203,257.27c0.232-1.021-4.679-5.452-5.563-3.059c-0.42,1.135-0.168,2.517-0.192,3.698
					c-0.022,1.043-1.387,1.942-1.996,2.743c-0.59,0.774-2.016,0.793-2.832,1.371c-1.663,1.176-3.229,2.494-4.649,3.955
					c-1.681,1.729-7.214,7.701-5.943,10.369"/>
				
					<path clip-path="url(#SVGID_6_)" fill="none" stroke="#FFFFFF" stroke-linecap="round" stroke-linejoin="round" stroke-miterlimit="10" d="
					M289.418,268.132c2.065,1.359,4.425,2.092,5.021,4.473"/>
				
					<path clip-path="url(#SVGID_6_)" fill="none" stroke="#FFFFFF" stroke-linecap="round" stroke-linejoin="round" stroke-miterlimit="10" d="
					M268.242,288.761c1.521,0.587,4.171,0.284,4.563,2.464"/>
				
					<path clip-path="url(#SVGID_6_)" fill="none" stroke="#FFFFFF" stroke-linecap="round" stroke-linejoin="round" stroke-miterlimit="10" d="
					M275.361,285.475c-0.91-0.247-5.838,1.207-5.933,2.099"/>
				
					<path clip-path="url(#SVGID_6_)" fill="none" stroke="#FFFFFF" stroke-linecap="round" stroke-linejoin="round" stroke-miterlimit="10" d="
					M281.934,287.756c-1.876,0.946-4.381-0.184-6.024,1.461"/>
				
					<path clip-path="url(#SVGID_6_)" fill="none" stroke="#FFFFFF" stroke-linecap="round" stroke-linejoin="round" stroke-miterlimit="10" d="
					M277.461,288.807c3.528,2.214,7.165,2.443,11.318,2.008"/>
				
					<path clip-path="url(#SVGID_6_)" fill="none" stroke="#FFFFFF" stroke-linecap="round" stroke-linejoin="round" stroke-miterlimit="10" d="
					M284.215,251.61c0.482-1.38,1.284-2.609,2.108-3.803c0.877,0.414,2.348,3.556,1.909,4.442"/>
				
					<path clip-path="url(#SVGID_6_)" fill="none" stroke="#FFFFFF" stroke-linecap="round" stroke-linejoin="round" stroke-miterlimit="10" d="
					M276.184,254.167c0.787,1.273,1.06,2.752,1.643,4.107"/>
				
					<path clip-path="url(#SVGID_6_)" fill="none" stroke="#FFFFFF" stroke-linecap="round" stroke-linejoin="round" stroke-miterlimit="10" d="
					M259.297,289.948c1.808-1.916,7.422-1.058,8.397,1.46"/>
				
					<path clip-path="url(#SVGID_6_)" fill="none" stroke="#FFFFFF" stroke-linecap="round" stroke-linejoin="round" stroke-miterlimit="10" d="
					M302.562,258.457c-0.1,1.039-1.766,2.58-2.925,2.397c-0.377-0.059-1.304,2.034-2.004,2.35"/>
				
					<path clip-path="url(#SVGID_6_)" fill="none" stroke="#FFFFFF" stroke-linecap="round" stroke-linejoin="round" stroke-miterlimit="10" d="
					M295.442,259.187c1.094-0.35,0.307-1.555,1.005-2.152c1.014-0.866,2.864,0.303,4.016-0.221"/>
				
					<path clip-path="url(#SVGID_6_)" fill="none" stroke="#FFFFFF" stroke-linecap="round" stroke-linejoin="round" stroke-miterlimit="10" d="
					M257.653,282.189c-0.807-0.08-2.386-0.605-3.012,0.273"/>
				
					<path clip-path="url(#SVGID_6_)" fill="none" stroke="#FFFFFF" stroke-linecap="round" stroke-linejoin="round" stroke-miterlimit="10" d="
					M300.646,256.448c-0.622-1.657,1.559-5.22-0.183-6.572c-1.435,0.79-3.865,5.201-3.286,6.846"/>
				
					<path clip-path="url(#SVGID_6_)" fill="none" stroke="#FFFFFF" stroke-linecap="round" stroke-linejoin="round" stroke-miterlimit="10" d="
					M300.189,262.929c-0.593,1.073-1.426,1.914-2.465,2.556"/>
				
					<path clip-path="url(#SVGID_6_)" fill="none" stroke="#FFFFFF" stroke-linecap="round" stroke-linejoin="round" stroke-miterlimit="10" d="
					M286.771,274.065c-0.625,0.958-1.409,1.714-2.557,2.009"/>
				
					<path clip-path="url(#SVGID_6_)" fill="none" stroke="#FFFFFF" stroke-linecap="round" stroke-linejoin="round" stroke-miterlimit="10" d="
					M301.103,256.22c-1.303,1.054,0.711,1.994,1.643,2.145"/>
				
					<circle clip-path="url(#SVGID_6_)" fill="none" stroke="#FFFFFF" stroke-linecap="round" stroke-linejoin="round" stroke-miterlimit="10" cx="290.594" cy="260.556" r="2.891"/>
				
					<path clip-path="url(#SVGID_6_)" fill="none" stroke="#FFFFFF" stroke-linecap="round" stroke-linejoin="round" stroke-miterlimit="10" d="
					M288.551,257.665c0,0,4.202,3.53,4.202,5.781"/>
				
					<path clip-path="url(#SVGID_6_)" fill="none" stroke="#FFFFFF" stroke-linecap="round" stroke-linejoin="round" stroke-miterlimit="10" d="
					M292.996,257.665c0,0-3.578,4.625-4.676,5.781"/>
				<polygon clip-path="url(#SVGID_6_)" fill="#CFCECB" points="814.679,375.5 533.624,375.5 535.454,390.5 840.746,390.5 				"/>
				
					<polygon clip-path="url(#SVGID_6_)" fill="none" stroke="#000000" stroke-width="2" stroke-linejoin="round" stroke-miterlimit="10" points="
					814.679,375.5 533.624,375.5 535.454,390.5 840.746,390.5 				"/>
				<path clip-path="url(#SVGID_6_)" fill="#FFFFFF" d="M824,348.365c0,10.567-8.567,19.135-19.136,19.135H562.136
					c-10.568,0-19.136-8.568-19.136-19.135v-127.73c0-10.568,8.567-19.135,19.136-19.135h242.729
					c10.568,0,19.136,8.567,19.136,19.135V348.365z"/>
				
					<path clip-path="url(#SVGID_6_)" fill="none" stroke="#000000" stroke-width="2" stroke-linecap="round" stroke-linejoin="round" stroke-miterlimit="10" d="
					M824,348.365c0,10.567-8.567,19.135-19.136,19.135H562.136c-10.568,0-19.136-8.568-19.136-19.135v-127.73
					c0-10.568,8.567-19.135,19.136-19.135h242.729c10.568,0,19.136,8.567,19.136,19.135V348.365z"/>
				<rect x="570" y="213.5" clip-path="url(#SVGID_6_)" fill="#D5A800" width="226" height="127"/>
				
					<rect x="570" y="213.5" clip-path="url(#SVGID_6_)" fill="none" stroke="#000000" stroke-width="2" stroke-miterlimit="10" width="226" height="127"/>
				<rect x="570" y="367.5" clip-path="url(#SVGID_6_)" fill="#FFFFFF" width="226" height="14"/>
				
					<rect x="570" y="367.5" clip-path="url(#SVGID_6_)" fill="none" stroke="#000000" stroke-width="2" stroke-linecap="round" stroke-linejoin="round" stroke-miterlimit="10" width="226" height="14"/>
				<g opacity="0.6" clip-path="url(#SVGID_6_)">
					<g>
						<defs>
							<rect id="SVGID_307_" x="584.227" y="213.26" width="197.034" height="120.293"/>
						</defs>
						<clipPath id="SVGID_8_">
							<use xlink:href="#SVGID_307_"  overflow="visible"/>
						</clipPath>
						<path clip-path="url(#SVGID_8_)" d="M658.98,213.26l64.357,17.822c0,0-132.181,56.932-139.111,76.735l37.624,25.736
							c0,0,100.497-86.134,143.567-83.658l15.843-22.774l-51.487-13.861H658.98z"/>
					</g>
				</g>
				<rect x="572.265" y="257.816" clip-path="url(#SVGID_6_)" fill="#BB3D00" width="74.349" height="22.772"/>
				<rect x="645.613" y="257.816" clip-path="url(#SVGID_6_)" width="111.389" height="22.772"/>
				<path clip-path="url(#SVGID_6_)" d="M718.059,297.191h-1.479v-9.432c-0.357,0.34-0.825,0.68-1.403,1.02
					c-0.578,0.34-1.097,0.595-1.558,0.765v-1.431c0.827-0.389,1.551-0.86,2.17-1.414c0.62-0.554,1.059-1.091,1.316-1.612h0.953
					V297.191z"/>
				<path clip-path="url(#SVGID_6_)" d="M722.07,294.404l1.424-0.132c0.119,0.669,0.351,1.155,0.69,1.456s0.775,0.452,1.308,0.452
					c0.455,0,0.854-0.104,1.196-0.313c0.343-0.208,0.623-0.486,0.843-0.834c0.219-0.348,0.403-0.818,0.551-1.41
					c0.148-0.593,0.222-1.195,0.222-1.81c0-0.065-0.002-0.164-0.008-0.295c-0.296,0.471-0.7,0.854-1.213,1.147
					s-1.067,0.44-1.665,0.44c-0.998,0-1.842-0.362-2.532-1.085c-0.691-0.724-1.036-1.678-1.036-2.862
					c0-1.222,0.36-2.207,1.081-2.952s1.624-1.118,2.709-1.118c0.784,0,1.501,0.211,2.15,0.633c0.649,0.422,1.144,1.023,1.48,1.804
					c0.337,0.782,0.506,1.913,0.506,3.393c0,1.54-0.168,2.767-0.502,3.679c-0.334,0.913-0.832,1.608-1.493,2.085
					c-0.66,0.476-1.435,0.715-2.322,0.715c-0.942,0-1.713-0.261-2.311-0.786C722.551,296.088,722.191,295.353,722.07,294.404
					 M728.132,289.084c0-0.85-0.228-1.524-0.679-2.022c-0.452-0.499-0.996-0.749-1.633-0.749c-0.657,0-1.23,0.268-1.718,0.805
					c-0.489,0.538-0.732,1.234-0.732,2.089c0,0.768,0.231,1.392,0.695,1.871c0.462,0.48,1.034,0.719,1.714,0.719
					c0.686,0,1.248-0.239,1.69-0.719C727.911,290.599,728.132,289.934,728.132,289.084"/>
				<rect x="732.045" y="295.506" clip-path="url(#SVGID_6_)" width="1.686" height="1.686"/>
				<path clip-path="url(#SVGID_6_)" d="M735.893,291.246c0-1.425,0.147-2.572,0.44-3.44c0.293-0.87,0.729-1.539,1.308-2.011
					c0.578-0.472,1.306-0.707,2.183-0.707c0.647,0,1.215,0.13,1.702,0.39c0.488,0.26,0.892,0.636,1.209,1.126
					c0.318,0.492,0.567,1.089,0.748,1.793c0.182,0.704,0.271,1.655,0.271,2.849c0,1.415-0.146,2.557-0.436,3.425
					c-0.291,0.869-0.725,1.541-1.303,2.014c-0.58,0.475-1.31,0.712-2.192,0.712c-1.162,0-2.074-0.417-2.737-1.25
					C736.291,295.143,735.893,293.511,735.893,291.246 M737.414,291.246c0,1.979,0.23,3.296,0.695,3.951
					c0.463,0.655,1.033,0.983,1.714,0.983c0.68,0,1.252-0.329,1.715-0.987c0.463-0.658,0.695-1.973,0.695-3.947
					c0-1.984-0.232-3.303-0.695-3.955c-0.463-0.652-1.04-0.979-1.729-0.979c-0.681,0-1.224,0.288-1.63,0.864
					C737.669,287.911,737.414,289.267,737.414,291.246"/>
				<path clip-path="url(#SVGID_6_)" d="M745.258,291.246c0-1.425,0.147-2.572,0.44-3.44c0.293-0.87,0.729-1.539,1.308-2.011
					c0.578-0.472,1.306-0.707,2.183-0.707c0.647,0,1.215,0.13,1.702,0.39c0.488,0.26,0.892,0.636,1.209,1.126
					c0.318,0.492,0.567,1.089,0.748,1.793c0.182,0.704,0.271,1.655,0.271,2.849c0,1.415-0.146,2.557-0.436,3.425
					c-0.291,0.869-0.725,1.541-1.304,2.014c-0.579,0.475-1.309,0.712-2.191,0.712c-1.162,0-2.074-0.417-2.737-1.25
					C745.656,295.143,745.258,293.511,745.258,291.246 M746.779,291.246c0,1.979,0.23,3.296,0.695,3.951
					c0.463,0.655,1.033,0.983,1.714,0.983c0.68,0,1.252-0.329,1.715-0.987c0.463-0.658,0.695-1.973,0.695-3.947
					c0-1.984-0.232-3.303-0.695-3.955c-0.463-0.652-1.04-0.979-1.729-0.979c-0.681,0-1.224,0.288-1.63,0.864
					C747.034,287.911,746.779,289.267,746.779,291.246"/>
				<path clip-path="url(#SVGID_6_)" fill="#CED1CC" d="M655.748,260.441h4.898v9.242c0,1.941-0.159,3.416-0.479,4.43
					c-0.32,1.013-0.964,1.87-1.932,2.574c-0.968,0.703-2.206,1.055-3.718,1.055c-1.597,0-2.834-0.233-3.712-0.697
					c-0.878-0.463-1.556-1.142-2.035-2.036c-0.478-0.893-0.76-1.998-0.846-3.312l4.673-0.686c0.006,0.751,0.067,1.308,0.183,1.671
					c0.114,0.364,0.31,0.658,0.583,0.883c0.188,0.147,0.453,0.22,0.799,0.22c0.547,0,0.947-0.218,1.203-0.655
					c0.255-0.437,0.383-1.173,0.383-2.209V260.441z"/>
				<path clip-path="url(#SVGID_6_)" fill="#CED1CC" d="M662.504,271.326c0-1.88,0.589-3.429,1.77-4.647
					c1.18-1.219,2.773-1.828,4.779-1.828c2.295,0,4.03,0.716,5.202,2.147c0.942,1.153,1.414,2.572,1.414,4.258
					c0,1.896-0.585,3.449-1.754,4.66c-1.169,1.21-2.786,1.815-4.851,1.815c-1.842,0-3.331-0.503-4.469-1.508
					C663.201,274.977,662.504,273.345,662.504,271.326 M666.906,271.313c0,1.099,0.207,1.911,0.621,2.438
					c0.413,0.525,0.933,0.789,1.559,0.789c0.633,0,1.153-0.26,1.56-0.778c0.406-0.518,0.609-1.35,0.609-2.495
					c0-1.067-0.205-1.862-0.614-2.385c-0.41-0.522-0.918-0.783-1.522-0.783c-0.64,0-1.169,0.266-1.586,0.795
					C667.115,269.424,666.906,270.23,666.906,271.313"/>
				<path clip-path="url(#SVGID_6_)" fill="#CED1CC" d="M689.859,277.452h-4.101v-1.996c-0.611,0.82-1.229,1.404-1.851,1.752
					c-0.622,0.348-1.387,0.522-2.293,0.522c-1.209,0-2.156-0.388-2.844-1.166c-0.687-0.777-1.03-1.974-1.03-3.591v-7.844h4.414
					v6.776c0,0.775,0.133,1.323,0.398,1.649c0.267,0.324,0.641,0.487,1.123,0.487c0.524,0,0.954-0.217,1.288-0.651
					c0.336-0.432,0.503-1.209,0.503-2.332v-5.929h4.392V277.452z"/>
				<path clip-path="url(#SVGID_6_)" fill="#CED1CC" d="M692.568,265.129h4.112v2.02c0.396-0.874,0.804-1.476,1.225-1.805
					c0.421-0.328,0.94-0.493,1.56-0.493c0.647,0,1.355,0.216,2.125,0.65l-1.359,3.364c-0.518-0.231-0.928-0.347-1.23-0.347
					c-0.575,0-1.021,0.255-1.338,0.765c-0.453,0.72-0.68,2.066-0.68,4.038v4.131h-4.414V265.129z"/>
				<path clip-path="url(#SVGID_6_)" fill="#CED1CC" d="M703.436,265.129h4.09v2.008c0.611-0.821,1.23-1.406,1.856-1.758
					c0.626-0.353,1.389-0.528,2.288-0.528c1.215,0,2.166,0.388,2.854,1.166c0.688,0.777,1.031,1.978,1.031,3.603v7.832h-4.414
					v-6.776c0-0.774-0.133-1.321-0.399-1.642c-0.266-0.321-0.641-0.482-1.122-0.482c-0.533,0-0.964,0.217-1.295,0.65
					c-0.331,0.434-0.496,1.211-0.496,2.332v5.918h-4.393V265.129z"/>
				<path clip-path="url(#SVGID_6_)" fill="#CED1CC" d="M722.18,269.122l-4.197-0.476c0.158-0.789,0.387-1.41,0.686-1.863
					c0.299-0.452,0.729-0.845,1.289-1.178c0.403-0.239,0.957-0.425,1.662-0.557c0.705-0.131,1.468-0.197,2.288-0.197
					c1.315,0,2.374,0.079,3.173,0.238c0.798,0.159,1.464,0.49,1.996,0.993c0.374,0.347,0.669,0.84,0.885,1.479
					c0.216,0.638,0.324,1.247,0.324,1.827v5.443c0,0.58,0.033,1.034,0.102,1.363c0.069,0.329,0.218,0.748,0.448,1.259h-4.122
					c-0.166-0.318-0.273-0.559-0.324-0.726c-0.05-0.166-0.101-0.427-0.15-0.783c-0.576,0.596-1.147,1.021-1.716,1.276
					c-0.777,0.341-1.68,0.511-2.709,0.511c-1.367,0-2.404-0.34-3.113-1.021c-0.709-0.68-1.063-1.52-1.063-2.518
					c0-0.936,0.256-1.706,0.767-2.309s1.453-1.052,2.827-1.346c1.647-0.356,2.716-0.605,3.205-0.748
					c0.489-0.144,1.008-0.331,1.555-0.563c0-0.58-0.112-0.986-0.335-1.219c-0.224-0.232-0.615-0.347-1.176-0.347
					c-0.72,0-1.261,0.123-1.619,0.371C722.58,268.224,722.354,268.586,722.18,269.122 M725.99,271.604
					c-0.604,0.232-1.234,0.437-1.889,0.615c-0.893,0.256-1.457,0.507-1.694,0.755c-0.245,0.255-0.367,0.545-0.367,0.87
					c0,0.371,0.12,0.675,0.361,0.91c0.241,0.237,0.596,0.355,1.063,0.355c0.489,0,0.944-0.128,1.365-0.383
					c0.421-0.256,0.719-0.566,0.895-0.934c0.177-0.368,0.266-0.845,0.266-1.433V271.604z"/>
				<path clip-path="url(#SVGID_6_)" fill="#CED1CC" d="M736.922,269.122l-4.198-0.476c0.157-0.789,0.387-1.41,0.686-1.863
					c0.299-0.452,0.729-0.845,1.289-1.178c0.403-0.239,0.957-0.425,1.662-0.557c0.705-0.131,1.468-0.197,2.288-0.197
					c1.316,0,2.374,0.079,3.173,0.238c0.798,0.159,1.464,0.49,1.996,0.993c0.374,0.347,0.669,0.84,0.885,1.479
					c0.216,0.638,0.324,1.247,0.324,1.827v5.443c0,0.58,0.033,1.034,0.103,1.363c0.068,0.329,0.217,0.748,0.447,1.259h-4.122
					c-0.166-0.318-0.273-0.559-0.325-0.726c-0.049-0.166-0.1-0.427-0.149-0.783c-0.576,0.596-1.147,1.021-1.716,1.276
					c-0.777,0.341-1.68,0.511-2.709,0.511c-1.367,0-2.404-0.34-3.113-1.021c-0.709-0.68-1.062-1.52-1.062-2.518
					c0-0.936,0.254-1.706,0.766-2.309c0.511-0.603,1.453-1.052,2.827-1.346c1.647-0.356,2.716-0.605,3.204-0.748
					c0.49-0.144,1.009-0.331,1.556-0.563c0-0.58-0.112-0.986-0.335-1.219c-0.223-0.232-0.615-0.347-1.176-0.347
					c-0.72,0-1.261,0.123-1.619,0.371C737.321,268.224,737.095,268.586,736.922,269.122 M740.731,271.604
					c-0.604,0.232-1.234,0.437-1.89,0.615c-0.892,0.256-1.456,0.507-1.693,0.755c-0.245,0.255-0.367,0.545-0.367,0.87
					c0,0.371,0.12,0.675,0.361,0.91c0.24,0.237,0.596,0.355,1.063,0.355c0.489,0,0.944-0.128,1.365-0.383
					c0.421-0.256,0.719-0.566,0.896-0.934c0.176-0.368,0.265-0.845,0.265-1.433V271.604z"/>
				<rect x="747.811" y="260.441" clip-path="url(#SVGID_6_)" fill="#CED1CC" width="4.402" height="17.011"/>
				<polygon clip-path="url(#SVGID_6_)" points="599.893,260.44 604.78,260.44 604.78,266.393 610.121,266.393 610.121,260.44 
					615.032,260.44 615.032,277.451 610.121,277.451 610.121,270.57 604.78,270.57 604.78,277.451 599.893,277.451 				"/>
				<path clip-path="url(#SVGID_6_)" d="M630.712,272.462h-8.806c0.079,0.758,0.271,1.322,0.572,1.694
					c0.425,0.533,0.979,0.8,1.662,0.8c0.432,0,0.842-0.115,1.23-0.348c0.237-0.146,0.492-0.406,0.766-0.777l4.327,0.429
					c-0.662,1.238-1.46,2.126-2.396,2.663c-0.936,0.538-2.276,0.806-4.025,0.806c-1.518,0-2.712-0.23-3.582-0.69
					c-0.871-0.46-1.592-1.192-2.164-2.194c-0.573-1-0.857-2.178-0.857-3.533c0-1.925,0.573-3.484,1.721-4.676
					c1.148-1.191,2.732-1.787,4.754-1.787c1.64,0,2.935,0.267,3.885,0.801c0.949,0.534,1.673,1.308,2.169,2.32
					c0.496,1.014,0.744,2.333,0.744,3.958V272.462z M626.245,270.199c-0.087-0.913-0.315-1.566-0.687-1.961
					c-0.37-0.394-0.857-0.592-1.461-0.592c-0.698,0-1.256,0.298-1.673,0.894c-0.267,0.371-0.436,0.924-0.508,1.659H626.245z"/>
				<path clip-path="url(#SVGID_6_)" d="M638.029,260.44v4.687h2.417v3.459h-2.417v4.366c0,0.524,0.047,0.872,0.141,1.042
					c0.144,0.262,0.396,0.393,0.756,0.393c0.323,0,0.776-0.1,1.358-0.301l0.324,3.26c-1.087,0.255-2.101,0.383-3.043,0.383
					c-1.094,0-1.899-0.15-2.418-0.452c-0.518-0.301-0.9-0.759-1.148-1.373c-0.249-0.614-0.373-1.609-0.373-2.985v-4.333h-1.618
					v-3.459h1.618v-2.262L638.029,260.44z"/>
				<polygon clip-path="url(#SVGID_6_)" fill="#CFCECB" points="535,467.065 534,446.633 534,375.5 535,389.797 				"/>
				
					<polygon clip-path="url(#SVGID_6_)" fill="none" stroke="#000000" stroke-width="2" stroke-linejoin="round" stroke-miterlimit="10" points="
					535,467.065 534,446.633 534,375.5 535,389.797 				"/>
			</g>
		</g>
	</g>
</g>
</svg>
