


<svg version="1.1" id="Layer_1" xmlns="http://www.w3.org/2000/svg" xmlns:xlink="http://www.w3.org/1999/xlink" x="0px" y="0px"
	 width="1024px" height="630px" viewBox="0 0 1024 630" enable-background="new 0 0 1024 630" xml:space="preserve">
<g>
	<g>
		<defs>
			<rect id="SVGID_323_" y="-1.5" width="1024" height="633"/>
		</defs>
		<clipPath id="SVGID_2_">
			<use xlink:href="#SVGID_323_"  overflow="visible"/>
		</clipPath>
		<rect x="138" y="81.5" clip-path="url(#SVGID_2_)" fill="#E3D1D4" width="748" height="375"/>
		<polygon clip-path="url(#SVGID_2_)" fill="#CFCECB" points="295.748,350.5 733.347,350.5 775,377.5 253.466,377.5 		"/>
		
			<polygon clip-path="url(#SVGID_2_)" fill="none" stroke="#000000" stroke-width="2" stroke-linejoin="round" stroke-miterlimit="10" points="
			295.748,350.5 733.347,350.5 775,377.5 253.466,377.5 		"/>
		<path clip-path="url(#SVGID_2_)" fill="#FFFFFF" d="M125,456.5h774H125z"/>
		
			<line clip-path="url(#SVGID_2_)" fill="none" stroke="#000000" stroke-width="2" stroke-miterlimit="10" x1="125" y1="456.5" x2="899" y2="456.5"/>
		<rect x="251" y="377.5" clip-path="url(#SVGID_2_)" fill="#FFFFFF" width="524" height="101"/>
		
			<rect x="251" y="377.5" clip-path="url(#SVGID_2_)" fill="none" stroke="#000000" stroke-width="2" stroke-linecap="round" stroke-linejoin="round" stroke-miterlimit="10" width="524" height="101"/>
		
			<rect x="256" y="381.5" clip-path="url(#SVGID_2_)" fill="none" stroke="#000000" stroke-width="2" stroke-miterlimit="10" width="126" height="93"/>
		
			<rect x="385" y="381.5" clip-path="url(#SVGID_2_)" fill="none" stroke="#000000" stroke-width="2" stroke-miterlimit="10" width="126" height="93"/>
		<rect x="382.294" y="194.512" clip-path="url(#SVGID_2_)" fill="#FFFFFF" width="264.61" height="164.992"/>
		
			<rect x="382.294" y="194.512" clip-path="url(#SVGID_2_)" fill="none" stroke="#000000" stroke-width="2" stroke-miterlimit="10" width="264.61" height="164.992"/>
		<rect x="394.407" y="209.009" clip-path="url(#SVGID_2_)" fill="#F0F1EF" width="239.276" height="137.493"/>
		
			<rect x="394.407" y="209.009" clip-path="url(#SVGID_2_)" fill="none" stroke="#000000" stroke-width="2" stroke-linecap="round" stroke-linejoin="round" stroke-miterlimit="10" width="239.276" height="137.493"/>
		<polygon clip-path="url(#SVGID_2_)" fill="#ECB671" points="552.751,263.433 552.751,274.967 574.1,274.967 550.543,312.756 
			564.773,312.756 594.467,263.433 		"/>
		<g clip-path="url(#SVGID_2_)">
			<defs>
				<rect id="SVGID_325_" y="-1.5" width="1024" height="633"/>
			</defs>
			<clipPath id="SVGID_4_">
				<use xlink:href="#SVGID_325_"  overflow="visible"/>
			</clipPath>
			<path clip-path="url(#SVGID_4_)" fill="#682111" d="M441.424,273.384h2.687v9.504c0.954-0.859,2.009-1.289,3.163-1.289
				c1.313,0,2.364,0.426,3.151,1.278c0.67,0.739,1.004,1.922,1.004,3.545v7.128h-2.687v-6.877c0-0.932-0.166-1.605-0.496-2.023
				s-0.861-0.627-1.594-0.627c-0.938,0-1.6,0.291-1.981,0.871c-0.374,0.59-0.561,1.6-0.561,3.033v5.623h-2.687V273.384z"/>
			<path clip-path="url(#SVGID_4_)" fill="#682111" d="M464.688,288.368h-8.333c0.071,0.955,0.382,1.716,0.931,2.282
				c0.55,0.556,1.254,0.834,2.113,0.834c0.669,0,1.221-0.158,1.659-0.477c0.43-0.318,0.92-0.908,1.47-1.768l2.269,1.267
				c-0.351,0.597-0.722,1.108-1.111,1.534c-0.39,0.425-0.808,0.776-1.253,1.05c-0.446,0.275-0.928,0.476-1.444,0.603
				c-0.518,0.128-1.079,0.191-1.685,0.191c-1.735,0-3.128-0.557-4.178-1.671c-1.051-1.122-1.576-2.611-1.576-4.465
				c0-1.839,0.509-3.327,1.527-4.466c1.027-1.122,2.389-1.683,4.082-1.683c1.713,0,3.065,0.545,4.062,1.636
				c0.986,1.083,1.481,2.583,1.481,4.5L464.688,288.368z M461.93,286.172c-0.375-1.434-1.276-2.149-2.71-2.149
				c-0.326,0-0.633,0.049-0.92,0.149c-0.286,0.1-0.547,0.243-0.781,0.43c-0.235,0.187-0.437,0.412-0.604,0.674
				c-0.167,0.263-0.294,0.561-0.382,0.896H461.93z"/>
			<polygon clip-path="url(#SVGID_4_)" fill="#682111" points="469.876,284.428 469.876,293.55 467.189,293.55 467.189,284.428 
				466.044,284.428 466.044,281.921 467.189,281.921 467.189,277.659 469.876,277.659 469.876,281.921 471.965,281.921 
				471.965,284.428 			"/>
			<path clip-path="url(#SVGID_4_)" fill="#682111" d="M476.566,277.731c0-0.645,0.229-1.194,0.687-1.648s1.01-0.68,1.654-0.68
				c0.668,0,1.228,0.222,1.678,0.668c0.449,0.446,0.674,0.999,0.674,1.66s-0.229,1.222-0.688,1.684
				c-0.457,0.461-1.012,0.692-1.664,0.692c-0.638,0-1.187-0.235-1.647-0.705C476.798,278.933,476.566,278.376,476.566,277.731
				 M476.782,281.492h4.262v17.384h-4.262V281.492z"/>
			<path clip-path="url(#SVGID_4_)" fill="#682111" d="M496.346,287.557c0,0.867-0.17,1.691-0.509,2.472
				c-0.338,0.779-0.83,1.48-1.475,2.1c-0.652,0.621-1.383,1.091-2.19,1.408c-0.809,0.32-1.666,0.479-2.574,0.479
				c-0.922,0-1.788-0.159-2.596-0.479c-0.808-0.317-1.531-0.787-2.167-1.408c-0.637-0.604-1.122-1.299-1.456-2.084
				c-0.335-0.783-0.501-1.612-0.501-2.488c0-0.884,0.165-1.715,0.495-2.495c0.329-0.78,0.817-1.481,1.462-2.102
				c0.629-0.613,1.347-1.075,2.155-1.384c0.808-0.311,1.678-0.466,2.607-0.466c0.933,0,1.8,0.155,2.604,0.466
				c0.803,0.309,1.523,0.771,2.16,1.384c0.653,0.629,1.146,1.333,1.48,2.114C496.177,285.854,496.346,286.681,496.346,287.557
				 M492.117,287.557c0-0.899-0.226-1.607-0.679-2.126c-0.454-0.517-1.067-0.775-1.841-0.775c-0.779,0-1.395,0.258-1.844,0.775
				c-0.449,0.519-0.674,1.227-0.674,2.126s0.222,1.605,0.669,2.119c0.444,0.513,1.062,0.77,1.849,0.77
				c0.781,0,1.396-0.257,1.847-0.77C491.894,289.162,492.117,288.456,492.117,287.557"/>
			<path clip-path="url(#SVGID_4_)" fill="#682111" d="M510.428,281.492v6.161c0,1.361-0.11,2.37-0.328,3.027
				c-0.22,0.657-0.588,1.24-1.104,1.749c-0.534,0.533-1.198,0.931-1.994,1.194c-0.796,0.262-1.73,0.393-2.807,0.393
				c-1.065,0-1.995-0.131-2.788-0.393c-0.792-0.263-1.465-0.661-2.022-1.194c-0.519-0.494-0.884-1.073-1.099-1.738
				c-0.215-0.664-0.322-1.677-0.322-3.038v-6.161h4.06v6.436c0,1.01,0.167,1.74,0.501,2.191c0.334,0.449,0.876,0.674,1.624,0.674
				c0.756,0,1.299-0.221,1.63-0.662c0.33-0.443,0.495-1.177,0.495-2.203v-6.436H510.428z"/>
			<path clip-path="url(#SVGID_4_)" fill="#682111" d="M512.774,293.55v-12.059h4.012v2.842c0.413-1.035,0.979-1.811,1.695-2.328
				c0.716-0.518,1.584-0.776,2.603-0.776c0.167,0,0.336,0.006,0.508,0.017c0.17,0.013,0.344,0.031,0.52,0.055l-0.406,3.868
				c-0.255-0.088-0.506-0.151-0.753-0.191c-0.246-0.039-0.485-0.06-0.716-0.06c-1.035,0-1.833,0.317-2.394,0.949
				c-0.562,0.633-0.842,1.531-0.842,2.693v4.99H512.774z"/>
			<path clip-path="url(#SVGID_4_)" fill="#682111" d="M522.941,293.55v-12.059h3.893v2.449c0.564-0.98,1.218-1.697,1.958-2.151
				c0.739-0.453,1.627-0.679,2.662-0.679c0.779,0,1.474,0.125,2.083,0.376s1.104,0.611,1.487,1.08
				c0.317,0.406,0.545,0.9,0.681,1.481c0.135,0.581,0.202,1.448,0.202,2.602v6.901h-4.262v-6.459c0-0.963-0.158-1.664-0.474-2.102
				c-0.313-0.437-0.816-0.656-1.509-0.656c-0.884,0-1.528,0.326-1.934,0.98c-0.406,0.652-0.609,1.71-0.609,3.175v5.062H522.941z"/>
			<path clip-path="url(#SVGID_4_)" fill="#682111" d="M551.101,281.491v12.059h-3.904v-1.958c-0.558,0.836-1.184,1.448-1.88,1.839
				c-0.697,0.39-1.516,0.585-2.454,0.585c-1.608,0-2.894-0.587-3.856-1.761c-0.963-1.175-1.444-2.749-1.444-4.722
				c0-1.966,0.503-3.528,1.51-4.686c1.007-1.159,2.362-1.737,4.066-1.737c0.906,0,1.688,0.192,2.345,0.578
				c0.658,0.386,1.221,0.982,1.69,1.785v-1.982H551.101z M547.363,287.509c0-0.938-0.25-1.683-0.752-2.232
				c-0.501-0.55-1.187-0.824-2.054-0.824c-0.868,0-1.551,0.273-2.048,0.818s-0.746,1.292-0.746,2.238
				c0,0.939,0.251,1.68,0.752,2.221c0.502,0.541,1.183,0.811,2.042,0.811c0.867,0,1.553-0.27,2.054-0.811
				C547.113,289.189,547.363,288.448,547.363,287.509"/>
			<path clip-path="url(#SVGID_4_)" fill="#682111" d="M566.509,281.491v12.059h-3.904v-1.958c-0.558,0.836-1.184,1.448-1.88,1.839
				c-0.697,0.39-1.516,0.585-2.453,0.585c-1.609,0-2.895-0.587-3.857-1.761c-0.963-1.175-1.444-2.749-1.444-4.722
				c0-1.966,0.503-3.528,1.511-4.686c1.007-1.159,2.362-1.737,4.065-1.737c0.906,0,1.688,0.192,2.346,0.578
				c0.657,0.386,1.22,0.982,1.688,1.785v-1.982H566.509z M562.771,287.509c0-0.938-0.25-1.683-0.752-2.232
				c-0.501-0.55-1.186-0.824-2.054-0.824s-1.55,0.273-2.048,0.818c-0.496,0.545-0.745,1.292-0.745,2.238
				c0,0.939,0.25,1.68,0.752,2.221c0.501,0.541,1.182,0.811,2.041,0.811c0.868,0,1.553-0.27,2.054-0.811
				C562.521,289.189,562.771,288.448,562.771,287.509"/>
			<rect x="569.106" y="275.044" clip-path="url(#SVGID_4_)" fill="#682111" width="4.262" height="18.506"/>
			<polygon clip-path="url(#SVGID_4_)" fill="#682111" points="437.722,279.056 437.722,282.077 427.525,286.268 437.722,290.422 
				437.722,293.454 423.658,287.653 423.658,284.87 			"/>
			<polygon clip-path="url(#SVGID_4_)" fill="#682111" points="579.936,293.638 579.936,290.617 590.132,286.426 579.936,282.271 
				579.936,279.24 593.999,285.041 593.999,287.824 			"/>
			<path clip-path="url(#SVGID_4_)" fill="#FFFFFF" d="M304.256,311.745h-24c0,0,2-14.21,2-18.981c0-4.773-2-18.983-2-18.983h24
				c0,0-2,14.21-2,18.983C302.256,297.535,304.256,311.745,304.256,311.745"/>
			<path clip-path="url(#SVGID_4_)" fill="none" stroke="#000000" stroke-width="2" stroke-miterlimit="10" d="M304.256,311.745h-24
				c0,0,2-14.21,2-18.981c0-4.773-2-18.983-2-18.983h24c0,0-2,14.21-2,18.983C302.256,297.535,304.256,311.745,304.256,311.745z"/>
			<path clip-path="url(#SVGID_4_)" fill="#FFFFFF" d="M325.567,234.039c0,22.336-14.914,46.442-33.312,46.442
				s-33.312-24.106-33.312-46.442c0-22.335,14.914-40.441,33.312-40.441S325.567,211.704,325.567,234.039"/>
			<path clip-path="url(#SVGID_4_)" fill="none" stroke="#000000" stroke-width="2" stroke-miterlimit="10" d="M325.567,234.039
				c0,22.336-14.914,46.442-33.312,46.442s-33.312-24.106-33.312-46.442c0-22.335,14.914-40.441,33.312-40.441
				S325.567,211.704,325.567,234.039z"/>
			<path clip-path="url(#SVGID_4_)" fill="#FFFFFF" d="M332.255,265.412c-25.377-5.351-53.214-4.562-78.688,0
				c2.329-26.994-0.016-77.568,39.345-77.568C331.845,187.844,331.212,240.09,332.255,265.412"/>
			<path clip-path="url(#SVGID_4_)" fill="none" stroke="#000000" stroke-width="2" stroke-miterlimit="10" d="M332.255,265.412
				c-25.377-5.351-53.214-4.562-78.688,0c2.329-26.994-0.016-77.568,39.345-77.568C331.845,187.844,331.212,240.09,332.255,265.412z
				"/>
			<path clip-path="url(#SVGID_4_)" fill="#FFFFFF" d="M368.857,351.17c-0.334,4.846-19.043,3.857-19.043,3.857l1.688-51.22
				C351.502,303.807,369.885,336.264,368.857,351.17"/>
			
				<path clip-path="url(#SVGID_4_)" fill="none" stroke="#000000" stroke-width="2" stroke-linejoin="round" stroke-miterlimit="10" d="
				M368.857,351.17c-0.334,4.846-19.043,3.857-19.043,3.857l1.688-51.22C351.502,303.807,369.885,336.264,368.857,351.17z"/>
			<path clip-path="url(#SVGID_4_)" fill="#FFFFFF" d="M355.64,351.465c0,7.187-5.373,13.014-12,13.014H242.568
				c-6.627,0-12-5.827-12-13.014v-38.178c0-7.187,5.373-13.014,12-13.014c0,0,37.747-1.998,50.342-2c12.692-0.002,50.729,2,50.729,2
				c6.627,0,12,5.827,12,13.014V351.465z"/>
			<path clip-path="url(#SVGID_4_)" fill="none" stroke="#000000" stroke-width="2" stroke-miterlimit="10" d="M355.64,351.465
				c0,7.187-5.373,13.014-12,13.014H242.568c-6.627,0-12-5.827-12-13.014v-38.178c0-7.187,5.373-13.014,12-13.014
				c0,0,37.747-1.998,50.342-2c12.692-0.002,50.729,2,50.729,2c6.627,0,12,5.827,12,13.014V351.465z"/>
			<rect x="413" y="359.5" clip-path="url(#SVGID_4_)" fill="#FFFFFF" width="200" height="10"/>
			
				<rect x="413" y="359.5" clip-path="url(#SVGID_4_)" fill="none" stroke="#000000" stroke-width="2" stroke-linecap="round" stroke-linejoin="round" stroke-miterlimit="10" width="200" height="10"/>
			
				<rect x="514" y="381.5" clip-path="url(#SVGID_4_)" fill="none" stroke="#000000" stroke-width="2" stroke-miterlimit="10" width="127" height="93"/>
			
				<rect x="644" y="381.5" clip-path="url(#SVGID_4_)" fill="none" stroke="#000000" stroke-width="2" stroke-miterlimit="10" width="126" height="93"/>
			<path clip-path="url(#SVGID_4_)" fill="#FFFFFF" d="M437.722,523.5c0,16.5-13.5,30-30,30H182.479c-16.5,0-30-13.5-30-30V371.504
				c0-16.5,13.5-30,30-30h225.243c16.5,0,30,13.5,30,30V523.5z"/>
			
				<path clip-path="url(#SVGID_4_)" fill="none" stroke="#000000" stroke-width="2" stroke-linecap="round" stroke-linejoin="round" stroke-miterlimit="10" d="
				M437.722,523.5c0,16.5-13.5,30-30,30H182.479c-16.5,0-30-13.5-30-30V371.504c0-16.5,13.5-30,30-30h225.243c16.5,0,30,13.5,30,30
				V523.5z"/>
			
				<rect x="656" y="425.5" clip-path="url(#SVGID_4_)" fill="none" stroke="#000000" stroke-width="2" stroke-miterlimit="10" width="32" height="49"/>
			
				<rect x="692" y="425.5" clip-path="url(#SVGID_4_)" fill="none" stroke="#000000" stroke-width="2" stroke-miterlimit="10" width="32" height="49"/>
			
				<rect x="728" y="425.5" clip-path="url(#SVGID_4_)" fill="none" stroke="#000000" stroke-width="2" stroke-miterlimit="10" width="32" height="49"/>
			
				<circle clip-path="url(#SVGID_4_)" fill="none" stroke="#000000" stroke-width="2" stroke-miterlimit="10" cx="672" cy="459.334" r="9.334"/>
			
				<circle clip-path="url(#SVGID_4_)" fill="none" stroke="#000000" stroke-width="2" stroke-miterlimit="10" cx="744" cy="459.334" r="9.334"/>
			
				<circle clip-path="url(#SVGID_4_)" fill="none" stroke="#000000" stroke-width="2" stroke-miterlimit="10" cx="715.25" cy="459.584" r="3.584"/>
			
				<circle clip-path="url(#SVGID_4_)" fill="none" stroke="#000000" stroke-width="2" stroke-miterlimit="10" cx="703.25" cy="459.584" r="3.584"/>
			
				<rect x="700" y="443.5" clip-path="url(#SVGID_4_)" fill="none" stroke="#000000" stroke-width="2" stroke-miterlimit="10" width="19" height="4"/>
		</g>
	</g>
</g>
</svg>
