


<svg version="1.1" id="Layer_1" xmlns="http://www.w3.org/2000/svg" xmlns:xlink="http://www.w3.org/1999/xlink" x="0px" y="0px"
	 width="1024px" height="630px" viewBox="0 0 1024 630" enable-background="new 0 0 1024 630" xml:space="preserve">
<g>
	<g>
		<defs>
			<rect id="SVGID_319_" y="-1.5" width="1024" height="633"/>
		</defs>
		<clipPath id="SVGID_2_">
			<use xlink:href="#SVGID_319_"  overflow="visible"/>
		</clipPath>
		<rect x="138" y="81.5" clip-path="url(#SVGID_2_)" fill="#DEDEEC" width="748" height="375"/>
		<path clip-path="url(#SVGID_2_)" fill="#FFFFFF" d="M125,456.5h774H125z"/>
		
			<line clip-path="url(#SVGID_2_)" fill="none" stroke="#000000" stroke-width="2" stroke-miterlimit="10" x1="125" y1="456.5" x2="899" y2="456.5"/>
		<polygon clip-path="url(#SVGID_2_)" fill="#CFCECB" points="666.342,363.055 159.199,363.055 115.041,380.359 685.422,380.359 		
			"/>
		
			<polygon clip-path="url(#SVGID_2_)" fill="none" stroke="#000000" stroke-width="2" stroke-linejoin="round" stroke-miterlimit="10" points="
			666.342,363.055 159.199,363.055 115.041,380.359 685.422,380.359 		"/>
		<rect x="396.235" y="209.863" clip-path="url(#SVGID_2_)" fill="#FFFFFF" width="232.101" height="144.722"/>
		
			<rect x="396.235" y="209.863" clip-path="url(#SVGID_2_)" fill="none" stroke="#000000" stroke-width="2" stroke-miterlimit="10" width="232.101" height="144.722"/>
		<rect x="406.859" y="222.579" clip-path="url(#SVGID_2_)" fill="#FFFFFF" width="209.88" height="120.602"/>
		
			<rect x="406.859" y="222.579" clip-path="url(#SVGID_2_)" fill="none" stroke="#000000" stroke-width="2" stroke-linecap="round" stroke-linejoin="round" stroke-miterlimit="10" width="209.88" height="120.602"/>
		<rect x="115.041" y="380.358" clip-path="url(#SVGID_2_)" fill="#FFFFFF" width="190.428" height="121.492"/>
		
			<rect x="115.041" y="380.358" clip-path="url(#SVGID_2_)" fill="none" stroke="#000000" stroke-width="2" stroke-linejoin="round" stroke-miterlimit="10" width="190.428" height="121.492"/>
		<rect x="305.468" y="380.358" clip-path="url(#SVGID_2_)" fill="#FFFFFF" width="190.427" height="121.492"/>
		
			<rect x="305.468" y="380.358" clip-path="url(#SVGID_2_)" fill="none" stroke="#000000" stroke-width="2" stroke-linejoin="round" stroke-miterlimit="10" width="190.427" height="121.492"/>
		<rect x="495.895" y="380.358" clip-path="url(#SVGID_2_)" fill="#FFFFFF" width="190.428" height="121.492"/>
		
			<rect x="495.895" y="380.358" clip-path="url(#SVGID_2_)" fill="none" stroke="#000000" stroke-width="2" stroke-linejoin="round" stroke-miterlimit="10" width="190.428" height="121.492"/>
		<polygon clip-path="url(#SVGID_2_)" fill="#FFFFFF" points="361.588,332.857 249.545,332.857 224.088,343.573 347.189,343.573 		
			"/>
		
			<polygon clip-path="url(#SVGID_2_)" fill="none" stroke="#000000" stroke-width="2" stroke-linejoin="round" stroke-miterlimit="10" points="
			361.588,332.857 249.545,332.857 224.088,343.573 347.189,343.573 		"/>
		<polygon clip-path="url(#SVGID_2_)" fill="#FFFFFF" points="361.588,333.857 348.821,342.811 348.821,372.856 361.588,361.614 		
			"/>
		
			<polygon clip-path="url(#SVGID_2_)" fill="none" stroke="#000000" stroke-width="2" stroke-linejoin="round" stroke-miterlimit="10" points="
			361.588,333.857 348.821,342.811 348.821,372.856 361.588,361.614 		"/>
		<rect x="223.461" y="343.573" clip-path="url(#SVGID_2_)" fill="#FFFFFF" width="125.362" height="28.282"/>
		
			<rect x="223.461" y="343.573" clip-path="url(#SVGID_2_)" fill="none" stroke="#000000" stroke-width="2" stroke-linejoin="round" stroke-miterlimit="10" width="125.362" height="28.282"/>
		<rect x="223.627" y="350.585" clip-path="url(#SVGID_2_)" width="125.029" height="14.259"/>
		
			<rect x="223.627" y="350.585" clip-path="url(#SVGID_2_)" fill="none" stroke="#000000" stroke-width="2" stroke-miterlimit="10" width="125.029" height="14.259"/>
		<polygon clip-path="url(#SVGID_2_)" fill="#F6F6F2" points="238.367,354.521 237.66,354.76 237.588,354.292 238.596,353.835 
			238.991,353.835 238.991,362.388 238.367,362.388 		"/>
		<g clip-path="url(#SVGID_2_)">
			<defs>
				<rect id="SVGID_321_" y="-1.5" width="1024" height="633"/>
			</defs>
			<clipPath id="SVGID_4_">
				<use xlink:href="#SVGID_321_"  overflow="visible"/>
			</clipPath>
			<path clip-path="url(#SVGID_4_)" fill="#F6F6F2" d="M240.659,361.009v-0.684h0.588v0.576c0,0.611,0.324,1.031,0.936,1.031
				c0.636,0,0.972-0.516,0.972-1.127v-2.446c-0.276,0.455-0.756,0.659-1.188,0.659c-0.791,0-1.355-0.492-1.355-1.356v-2.326
				c0-1.044,0.672-1.632,1.619-1.632c0.995,0,1.56,0.697,1.56,1.68v5.301c0,1.175-0.696,1.811-1.619,1.811
				C241.223,362.496,240.659,361.896,240.659,361.009 M243.154,357.423v-2.147c0-0.468-0.3-1.056-0.972-1.056
				c-0.72,0-0.96,0.624-0.96,1.08v2.267c0,0.599,0.36,0.935,0.876,0.935C242.639,358.502,243.154,357.974,243.154,357.423"/>
			<rect x="245.002" y="361.188" clip-path="url(#SVGID_4_)" fill="#F6F6F2" width="0.636" height="1.199"/>
			<path clip-path="url(#SVGID_4_)" fill="#F6F6F2" d="M246.84,360.828V355.3c0-1.056,0.804-1.596,1.703-1.596
				c0.911,0,1.655,0.515,1.655,1.548v5.589c0,1.115-0.744,1.655-1.691,1.655C247.512,362.496,246.84,361.896,246.84,360.828
				 M249.562,360.864v-5.601c0-0.515-0.348-1.019-1.031-1.019c-0.708,0-1.044,0.504-1.044,1.019v5.614
				c0,0.527,0.336,1.054,1.056,1.054C249.286,361.931,249.562,361.404,249.562,360.864"/>
			<path clip-path="url(#SVGID_4_)" fill="#F6F6F2" d="M251.399,360.828V355.3c0-1.056,0.804-1.596,1.703-1.596
				c0.911,0,1.655,0.515,1.655,1.548v5.589c0,1.115-0.744,1.655-1.691,1.655C252.071,362.496,251.399,361.896,251.399,360.828
				 M254.122,360.864v-5.601c0-0.515-0.348-1.019-1.031-1.019c-0.708,0-1.044,0.504-1.044,1.019v5.614
				c0,0.527,0.336,1.054,1.056,1.054C253.846,361.931,254.122,361.404,254.122,360.864"/>
			<rect x="422.502" y="354.585" clip-path="url(#SVGID_4_)" fill="#FFFFFF" width="187.945" height="14.033"/>
			
				<rect x="422.502" y="354.585" clip-path="url(#SVGID_4_)" fill="none" stroke="#000000" stroke-width="2" stroke-miterlimit="10" width="187.945" height="14.033"/>
			<path clip-path="url(#SVGID_4_)" fill="#FFFFFF" d="M869.502,106.872c-8.379-2.511-35.666-4.352-68.061-4.352
				s-59.682,1.841-68.059,4.352h-2.668v75.747h141.453v-75.747H869.502z"/>
			
				<path clip-path="url(#SVGID_4_)" fill="none" stroke="#000000" stroke-width="2" stroke-linejoin="round" stroke-miterlimit="10" d="
				M869.502,106.872c-8.379-2.511-35.666-4.352-68.061-4.352s-59.682,1.841-68.059,4.352h-2.668v75.747h141.453v-75.747H869.502z"/>
			<path clip-path="url(#SVGID_4_)" fill="#FFFFFF" d="M872.168,182.244c0,3.3-31.664,5.976-70.727,5.976
				c-39.061,0-70.727-2.676-70.727-5.976c0-3.302,31.666-5.977,70.727-5.977C840.504,176.267,872.168,178.942,872.168,182.244"/>
			
				<ellipse clip-path="url(#SVGID_4_)" fill="none" stroke="#000000" stroke-width="2" stroke-linejoin="round" stroke-miterlimit="10" cx="801.441" cy="182.244" rx="70.727" ry="5.976"/>
			<rect x="793.763" y="190.863" clip-path="url(#SVGID_4_)" fill="#FFFFFF" width="18.06" height="5"/>
			
				<rect x="793.763" y="190.863" clip-path="url(#SVGID_4_)" fill="none" stroke="#000000" stroke-width="2" stroke-linejoin="round" stroke-miterlimit="10" width="18.06" height="5"/>
			<rect x="797.58" y="176.616" clip-path="url(#SVGID_4_)" width="11.264" height="14.215"/>
			<line clip-path="url(#SVGID_4_)" fill="#FFFFFF" x1="801.217" y1="195.863" x2="755.836" y2="489.284"/>
			
				<line clip-path="url(#SVGID_4_)" fill="none" stroke="#000000" stroke-width="2" stroke-linecap="round" stroke-linejoin="round" stroke-miterlimit="10" x1="801.217" y1="195.863" x2="755.836" y2="489.284"/>
			<path clip-path="url(#SVGID_4_)" fill="#FFFFFF" d="M755.84,493.285c-0.203,0-0.408-0.016-0.615-0.048
				c-2.184-0.338-3.68-2.381-3.342-4.563l45.381-293.421c0.336-2.183,2.381-3.685,4.564-3.342c2.184,0.338,3.68,2.381,3.342,4.564
				l-45.381,293.42C759.482,491.871,757.779,493.285,755.84,493.285"/>
			
				<path clip-path="url(#SVGID_4_)" fill="none" stroke="#000000" stroke-width="2" stroke-linecap="round" stroke-linejoin="round" stroke-miterlimit="10" d="
				M755.84,493.285c-0.203,0-0.408-0.016-0.615-0.048c-2.184-0.338-3.68-2.381-3.342-4.563l45.381-293.421
				c0.336-2.183,2.381-3.685,4.564-3.342c2.184,0.338,3.68,2.381,3.342,4.564l-45.381,293.42
				C759.482,491.871,757.779,493.285,755.84,493.285z"/>
			<line clip-path="url(#SVGID_4_)" fill="#FFFFFF" x1="844.859" y1="491.334" x2="803.213" y2="195.863"/>
			
				<line clip-path="url(#SVGID_4_)" fill="none" stroke="#000000" stroke-width="2" stroke-linecap="round" stroke-linejoin="round" stroke-miterlimit="10" x1="844.859" y1="491.334" x2="803.213" y2="195.863"/>
			<path clip-path="url(#SVGID_4_)" fill="#FFFFFF" d="M844.854,495.335c-1.961,0-3.674-1.444-3.955-3.442l-41.646-295.471
				c-0.309-2.188,1.215-4.211,3.402-4.52c2.191-0.305,4.211,1.215,4.52,3.403l41.646,295.47c0.309,2.188-1.215,4.211-3.402,4.52
				C845.229,495.32,845.039,495.335,844.854,495.335"/>
			
				<path clip-path="url(#SVGID_4_)" fill="none" stroke="#000000" stroke-width="2" stroke-linecap="round" stroke-linejoin="round" stroke-miterlimit="10" d="
				M844.854,495.335c-1.961,0-3.674-1.444-3.955-3.442l-41.646-295.471c-0.309-2.188,1.215-4.211,3.402-4.52
				c2.191-0.305,4.211,1.215,4.52,3.403l41.646,295.47c0.309,2.188-1.215,4.211-3.402,4.52
				C845.229,495.32,845.039,495.335,844.854,495.335z"/>
			<line clip-path="url(#SVGID_4_)" fill="#FFFFFF" x1="803.213" y1="195.863" x2="801.217" y2="515.284"/>
			
				<line clip-path="url(#SVGID_4_)" fill="none" stroke="#000000" stroke-width="2" stroke-linecap="round" stroke-linejoin="round" stroke-miterlimit="10" x1="803.213" y1="195.863" x2="801.217" y2="515.284"/>
			<path clip-path="url(#SVGID_4_)" fill="#FFFFFF" d="M801.217,519.284h-0.025c-2.209-0.015-3.988-1.815-3.975-4.024l1.996-319.421
				c0.014-2.2,1.801-3.975,3.998-3.975h0.027c2.209,0.014,3.988,1.816,3.975,4.025l-1.996,319.42
				C805.203,517.51,803.414,519.284,801.217,519.284"/>
			
				<path clip-path="url(#SVGID_4_)" fill="none" stroke="#000000" stroke-width="2" stroke-linecap="round" stroke-linejoin="round" stroke-miterlimit="10" d="
				M801.217,519.284h-0.025c-2.209-0.015-3.988-1.815-3.975-4.024l1.996-319.421c0.014-2.2,1.801-3.975,3.998-3.975h0.027
				c2.209,0.014,3.988,1.816,3.975,4.025l-1.996,319.42C805.203,517.51,803.414,519.284,801.217,519.284z"/>
			<rect x="421" y="285.5" clip-path="url(#SVGID_4_)" fill="#D3080A" width="25" height="21"/>
			<rect x="421" y="309.5" clip-path="url(#SVGID_4_)" fill="#D3080A" width="58" height="21"/>
			<polygon clip-path="url(#SVGID_4_)" fill="#FFFFFF" points="429.598,301.004 428.451,301.004 428.451,296.431 426.199,296.431 
				426.199,301.004 425.053,301.004 425.053,290.924 426.199,290.924 426.199,295.341 428.451,295.341 428.451,290.924 
				429.598,290.924 			"/>
			<polygon clip-path="url(#SVGID_4_)" fill="#FFFFFF" points="435.43,301.004 431.537,301.004 431.537,290.924 435.43,290.924 
				435.43,292.014 432.685,292.014 432.685,295.398 435.062,295.398 435.062,296.487 432.685,296.487 432.685,299.914 
				435.43,299.914 			"/>
			<polygon clip-path="url(#SVGID_4_)" fill="#FFFFFF" points="440.908,292.014 439.153,292.014 439.153,301.004 438.007,301.004 
				438.007,292.014 436.236,292.014 436.236,290.924 440.908,290.924 			"/>
			<path clip-path="url(#SVGID_4_)" fill="#FFFFFF" d="M429.545,322.193c0,0.792-0.199,1.407-0.6,1.841
				c-0.412,0.453-0.995,0.68-1.75,0.68c-0.736,0-1.336-0.256-1.798-0.765l0.863-0.807c0.235,0.321,0.548,0.482,0.935,0.482
				c0.35,0,0.637-0.126,0.863-0.376s0.34-0.602,0.34-1.055v-7.674h1.146V322.193z"/>
			<path clip-path="url(#SVGID_4_)" fill="#FFFFFF" d="M435.785,316.552c0.078,0.59,0.117,1.593,0.117,3.009
				s-0.039,2.418-0.117,3.008c-0.078,0.59-0.273,1.064-0.586,1.423c-0.424,0.481-0.988,0.722-1.696,0.722
				c-0.699,0-1.26-0.241-1.683-0.722c-0.313-0.359-0.511-0.837-0.594-1.437c-0.083-0.599-0.124-1.597-0.124-2.994
				s0.041-2.395,0.124-2.995c0.083-0.599,0.28-1.078,0.594-1.437c0.423-0.481,0.983-0.722,1.683-0.722
				c0.708,0,1.272,0.241,1.696,0.722C435.512,315.487,435.707,315.961,435.785,316.552 M434.67,322.145
				c0.057-0.495,0.086-1.357,0.086-2.584c0-1.228-0.029-2.089-0.086-2.585c-0.057-0.495-0.17-0.86-0.342-1.097
				c-0.189-0.255-0.465-0.382-0.825-0.382c-0.361,0-0.636,0.127-0.826,0.382c-0.172,0.237-0.285,0.602-0.342,1.097
				c-0.058,0.496-0.085,1.357-0.085,2.585c0,1.227,0.027,2.089,0.085,2.584c0.057,0.495,0.17,0.86,0.342,1.097
				c0.19,0.255,0.465,0.382,0.826,0.382c0.36,0,0.636-0.127,0.825-0.382C434.5,323.004,434.613,322.64,434.67,322.145"/>
			<path clip-path="url(#SVGID_4_)" fill="#FFFFFF" d="M442.047,322.307c0,0.728-0.212,1.308-0.634,1.741
				c-0.432,0.445-0.978,0.666-1.639,0.666c-0.652,0-1.193-0.221-1.625-0.666c-0.422-0.433-0.634-1.013-0.634-1.741v-7.787h1.146
				v7.857c0,0.388,0.108,0.692,0.321,0.914c0.213,0.223,0.477,0.333,0.791,0.333c0.323,0,0.591-0.11,0.805-0.333
				c0.214-0.222,0.32-0.526,0.32-0.914v-7.857h1.147V322.307z"/>
			<path clip-path="url(#SVGID_4_)" fill="#FFFFFF" d="M448.827,324.601h-1.274l-1.382-4.318h-1.123v4.318h-1.146V314.52h2.217
				c0.78,0,1.361,0.215,1.742,0.645c0.381,0.429,0.571,1.173,0.571,2.23c0,0.713-0.089,1.282-0.267,1.709
				c-0.176,0.428-0.468,0.741-0.875,0.941L448.827,324.601z M447.285,317.395c0-0.586-0.084-1.029-0.25-1.331
				c-0.166-0.302-0.467-0.454-0.905-0.454h-1.082v3.583h1.082c0.438,0,0.739-0.152,0.905-0.454
				C447.201,318.437,447.285,317.988,447.285,317.395"/>
			<polygon clip-path="url(#SVGID_4_)" fill="#FFFFFF" points="455.156,324.601 454.165,324.601 451.489,317.667 451.489,324.601 
				450.343,324.601 450.343,314.52 451.404,314.52 454.01,321.265 453.995,314.52 455.156,314.52 			"/>
			<path clip-path="url(#SVGID_4_)" fill="#FFFFFF" d="M462.121,324.601h-1.177l-0.562-2.379h-2.366l-0.491,2.379h-1.266
				l2.259-10.081h1.251L462.121,324.601z M460.125,321.132l-0.934-4.645l-0.948,4.645H460.125z"/>
			<path clip-path="url(#SVGID_4_)" fill="#FFFFFF" d="M468.238,324.601h-1.178l-0.562-2.379h-2.366l-0.491,2.379h-1.266
				l2.259-10.081h1.252L468.238,324.601z M466.241,321.132l-0.934-4.645l-0.948,4.645H466.241z"/>
			<polygon clip-path="url(#SVGID_4_)" fill="#FFFFFF" points="473.107,324.601 469.215,324.601 469.215,314.52 470.361,314.52 
				470.361,323.511 473.107,323.511 			"/>
			<rect x="419" y="236.5" clip-path="url(#SVGID_4_)" fill="#D3080A" width="187" height="95"/>
			<polygon clip-path="url(#SVGID_4_)" fill="#FFFFFF" points="447.339,311.857 436.778,311.857 451.499,264.497 443.019,264.497 
				443.019,271.216 432.698,271.216 432.698,254.896 462.219,254.896 462.219,263.856 			"/>
			<rect x="625" y="361.5" clip-path="url(#SVGID_4_)" fill="#FFFFFF" width="35" height="10"/>
			
				<rect x="625" y="361.5" clip-path="url(#SVGID_4_)" fill="none" stroke="#000000" stroke-width="2" stroke-linecap="round" stroke-linejoin="round" stroke-miterlimit="10" width="35" height="10"/>
			<path clip-path="url(#SVGID_4_)" fill="#FFFFFF" d="M651,365.5c0,1.65-1.35,3-3,3h-11c-1.65,0-3-1.35-3-3v-24c0-1.65,1.35-3,3-3
				h11c1.65,0,3,1.35,3,3V365.5z"/>
			<path clip-path="url(#SVGID_4_)" fill="#FFFFFF" d="M651,365.5c0,1.65-1.35,3-3,3h-11c-1.65,0-3-1.35-3-3v-24c0-1.65,1.35-3,3-3
				h11c1.65,0,3,1.35,3,3V365.5z"/>
			
				<path clip-path="url(#SVGID_4_)" fill="none" stroke="#000000" stroke-width="2" stroke-linecap="round" stroke-linejoin="round" stroke-miterlimit="10" d="
				M651,365.5c0,1.65-1.35,3-3,3h-11c-1.65,0-3-1.35-3-3v-24c0-1.65,1.35-3,3-3h11c1.65,0,3,1.35,3,3V365.5z"/>
			<rect x="637" y="342.5" clip-path="url(#SVGID_4_)" width="11" height="10"/>
			
				<circle clip-path="url(#SVGID_4_)" fill="none" stroke="#000000" stroke-width="2" stroke-miterlimit="10" cx="642.5" cy="360.333" r="4.082"/>
		</g>
	</g>
</g>
</svg>
