


<svg version="1.1" id="Layer_1" xmlns="http://www.w3.org/2000/svg" xmlns:xlink="http://www.w3.org/1999/xlink" x="0px" y="0px"
	 width="1024px" height="630px" viewBox="0 0 1024 630" enable-background="new 0 0 1024 630" xml:space="preserve">
<g>
	<g>
		<defs>
			<rect id="SVGID_315_" y="-1.5" width="1024" height="633"/>
		</defs>
		<clipPath id="SVGID_2_">
			<use xlink:href="#SVGID_315_"  overflow="visible"/>
		</clipPath>
		<rect x="138" y="81.5" clip-path="url(#SVGID_2_)" fill="#CCEAE3" width="748" height="375"/>
		<path clip-path="url(#SVGID_2_)" fill="#FFFFFF" d="M125,456.5h774H125z"/>
		
			<line clip-path="url(#SVGID_2_)" fill="none" stroke="#000000" stroke-width="2" stroke-miterlimit="10" x1="125" y1="456.5" x2="899" y2="456.5"/>
		<rect x="421" y="358.5" clip-path="url(#SVGID_2_)" fill="#FFFFFF" width="4" height="48"/>
		
			<rect x="421" y="358.5" clip-path="url(#SVGID_2_)" fill="none" stroke="#000000" stroke-width="2" stroke-linejoin="round" stroke-miterlimit="10" width="4" height="48"/>
		<rect x="421" y="407.5" clip-path="url(#SVGID_2_)" fill="#FFFFFF" width="4" height="65"/>
		
			<rect x="421" y="407.5" clip-path="url(#SVGID_2_)" fill="none" stroke="#000000" stroke-width="2" stroke-linejoin="round" stroke-miterlimit="10" width="4" height="65"/>
		<rect x="659" y="357.5" clip-path="url(#SVGID_2_)" fill="#FFFFFF" width="4" height="48"/>
		
			<rect x="659" y="357.5" clip-path="url(#SVGID_2_)" fill="none" stroke="#000000" stroke-width="2" stroke-linejoin="round" stroke-miterlimit="10" width="4" height="48"/>
		<rect x="659" y="406.5" clip-path="url(#SVGID_2_)" fill="#FFFFFF" width="4" height="65"/>
		
			<rect x="659" y="406.5" clip-path="url(#SVGID_2_)" fill="none" stroke="#000000" stroke-width="2" stroke-linejoin="round" stroke-miterlimit="10" width="4" height="65"/>
		<rect x="153" y="356.5" clip-path="url(#SVGID_2_)" fill="#FFFFFF" width="4" height="48"/>
		
			<rect x="153" y="356.5" clip-path="url(#SVGID_2_)" fill="none" stroke="#000000" stroke-width="2" stroke-linejoin="round" stroke-miterlimit="10" width="4" height="48"/>
		<rect x="153" y="405.5" clip-path="url(#SVGID_2_)" fill="#FFFFFF" width="4" height="65"/>
		
			<rect x="153" y="405.5" clip-path="url(#SVGID_2_)" fill="none" stroke="#000000" stroke-width="2" stroke-linejoin="round" stroke-miterlimit="10" width="4" height="65"/>
		<polygon clip-path="url(#SVGID_2_)" fill="#CFCECB" points="660.706,353.645 153.563,353.645 109.405,370.947 679.786,370.947 		
			"/>
		
			<polygon clip-path="url(#SVGID_2_)" fill="none" stroke="#000000" stroke-width="2" stroke-linejoin="round" stroke-miterlimit="10" points="
			660.706,353.645 153.563,353.645 109.405,370.947 679.786,370.947 		"/>
		<rect x="378.089" y="190.453" clip-path="url(#SVGID_2_)" fill="#FFFFFF" width="264.61" height="164.992"/>
		
			<rect x="378.089" y="190.453" clip-path="url(#SVGID_2_)" fill="none" stroke="#000000" stroke-width="2" stroke-miterlimit="10" width="264.61" height="164.992"/>
		<rect x="390.202" y="204.95" clip-path="url(#SVGID_2_)" fill="#FFFFFF" width="239.276" height="137.493"/>
		
			<rect x="390.202" y="204.95" clip-path="url(#SVGID_2_)" fill="none" stroke="#000000" stroke-width="2" stroke-linecap="round" stroke-linejoin="round" stroke-miterlimit="10" width="239.276" height="137.493"/>
		<g clip-path="url(#SVGID_2_)">
			<defs>
				<rect id="SVGID_317_" y="-1.5" width="1024" height="633"/>
			</defs>
			<clipPath id="SVGID_4_">
				<use xlink:href="#SVGID_317_"  overflow="visible"/>
			</clipPath>
			<path clip-path="url(#SVGID_4_)" fill="#D3080A" d="M576.776,312.692c-51.003,6.907-102.125,11.142-153.13,12.345
				c-3.542-30.834-7.083-62.175-10.624-94.026c57.318,1.417,114.811-0.592,172.125-3.699
				C582.357,255.32,579.566,283.782,576.776,312.692"/>
			<path clip-path="url(#SVGID_4_)" fill="#FFFFFF" d="M552.65,269.196c-34.759,2.854-69.557,4.82-104.317,5.562
				c0.158,2.065,0.316,4.129,0.475,6.192c34.489-0.852,69.016-2.925,103.505-5.92C552.425,273.085,552.537,271.14,552.65,269.196"/>
			<path clip-path="url(#SVGID_4_)" fill="#FFFFFF" d="M455.989,268.526c-0.202-3.041-0.405-6.086-0.607-9.134
				c-1.206,0.022-2.415,0.042-3.622,0.061c0.217,3.055,0.433,6.106,0.648,9.154c-1.437,0.029-2.872,0.058-4.309,0.085
				c-0.556-7.3-1.111-14.618-1.668-21.956c1.477-0.009,2.953-0.018,4.427-0.029c0.207,2.939,0.415,5.877,0.623,8.81
				c1.213-0.016,2.426-0.035,3.639-0.055c-0.194-2.927-0.389-5.857-0.584-8.789c1.476-0.016,2.951-0.033,4.427-0.052
				c0.445,7.282,0.891,14.549,1.336,21.8C458.861,268.458,457.426,268.495,455.989,268.526"/>
			<path clip-path="url(#SVGID_4_)" fill="#FFFFFF" d="M463.636,268.331c-0.415-7.237-0.83-14.491-1.244-21.757
				c3.408-0.052,6.817-0.112,10.226-0.184c0.06,1.297,0.117,2.596,0.175,3.894c-1.923,0.045-3.847,0.086-5.771,0.125
				c0.084,1.637,0.17,3.274,0.255,4.91c1.645-0.038,3.289-0.078,4.934-0.121c0.06,1.298,0.12,2.594,0.179,3.89
				c-1.637,0.047-3.274,0.092-4.911,0.133c0.089,1.696,0.177,3.391,0.265,5.087c1.892-0.055,3.782-0.112,5.673-0.173
				c0.06,1.295,0.118,2.59,0.176,3.884C470.271,268.133,466.954,268.237,463.636,268.331"/>
			<path clip-path="url(#SVGID_4_)" fill="#FFFFFF" d="M482.535,250.028c0.194,5.885,0.391,11.763,0.585,17.637
				c-1.437,0.056-2.873,0.113-4.31,0.166c-0.228-5.888-0.454-11.781-0.682-17.68c-1.24,0.033-2.482,0.063-3.725,0.094
				c-0.057-1.296-0.111-2.592-0.167-3.89c3.971-0.085,7.94-0.185,11.912-0.298c0.037,1.286,0.073,2.574,0.11,3.861
				C485.019,249.956,483.777,249.993,482.535,250.028"/>
			<path clip-path="url(#SVGID_4_)" fill="#FFFFFF" d="M453.406,307.05c-1.006,1.259-2.424,1.989-4.559,2.069
				c-1.844,0.07-3.456-0.575-4.652-1.702c0.863-1.013,1.727-2.023,2.59-3.03c0.325,0.42,1.057,0.853,1.752,0.827
				c1.245-0.043,2.043-0.99,1.914-2.669c-0.398-5.157-0.796-10.322-1.193-15.499c1.405-0.04,2.809-0.081,4.21-0.124
				c0.371,5.166,0.74,10.322,1.11,15.471C454.708,304.219,454.336,305.881,453.406,307.05"/>
			<path clip-path="url(#SVGID_4_)" fill="#FFFFFF" d="M467.863,306.127c-0.889,1.225-2.101,2.259-4.406,2.37
				c-2.307,0.111-3.581-0.805-4.609-1.949c-1.791-1.991-1.946-5.926-2.146-8.85c-0.2-2.923-0.588-6.858,0.955-8.984
				c0.9-1.228,2.082-2.243,4.455-2.328c2.373-0.088,3.733,0.835,4.774,1.977c1.795,1.999,1.886,5.907,2.038,8.817
				C469.079,300.09,469.4,303.981,467.863,306.127 M463.844,291.074c-0.264-0.476-0.729-0.823-1.496-0.796
				c-0.767,0.03-1.128,0.411-1.333,0.907c-0.438,1.021-0.326,3.735-0.16,6.349c0.165,2.613,0.396,5.315,0.95,6.295
				c0.263,0.475,0.662,0.822,1.415,0.788c0.753-0.036,1.167-0.419,1.37-0.916c0.433-1.023,0.336-3.723,0.183-6.334
				C464.619,294.758,464.403,292.056,463.844,291.074"/>
			<path clip-path="url(#SVGID_4_)" fill="#FFFFFF" d="M481.921,305.715c-1.054,1.238-2.471,1.928-4.2,2.029
				c-1.729,0.1-3.199-0.421-4.351-1.541c-1.035-1.003-1.657-2.426-1.743-4.149c-0.261-5.251-0.522-10.507-0.785-15.771
				c1.405-0.058,2.809-0.121,4.213-0.183c0.235,5.321,0.473,10.638,0.709,15.95c0.062,1.389,0.866,1.89,1.794,1.836
				c0.927-0.053,1.688-0.641,1.634-2.025c-0.213-5.302-0.426-10.611-0.638-15.924c1.403-0.068,2.806-0.135,4.212-0.205
				c0.18,5.23,0.361,10.457,0.541,15.68C483.365,303.126,482.867,304.602,481.921,305.715"/>
			<path clip-path="url(#SVGID_4_)" fill="#FFFFFF" d="M494.49,306.435c-0.9-2.697-1.801-5.405-2.702-8.126
				c-0.456,0.029-0.913,0.058-1.37,0.086c0.068,2.769,0.138,5.536,0.208,8.303c-1.364,0.091-2.729,0.18-4.094,0.267
				c-0.22-7.123-0.437-14.255-0.654-21.395c2.008-0.103,4.015-0.214,6.022-0.326c4.597-0.254,5.908,2.084,5.971,6.147
				c0.034,2.271-0.287,4.322-2.281,5.745c1.055,3.014,2.113,6.012,3.168,8.995C497.335,306.233,495.913,306.336,494.49,306.435
				 M491.957,289.085c-0.59,0.034-1.181,0.067-1.771,0.102c0.045,1.791,0.09,3.58,0.136,5.37c0.586-0.035,1.172-0.073,1.758-0.109
				c1.582-0.098,1.64-1.571,1.614-2.798C493.669,290.423,493.552,288.99,491.957,289.085"/>
			<path clip-path="url(#SVGID_4_)" fill="#FFFFFF" d="M509.511,305.313c-1.471-3.313-2.942-6.653-4.413-10.021
				c0.02,3.456,0.039,6.908,0.059,10.36c-1.363,0.106-2.729,0.209-4.094,0.31c-0.079-7.078-0.158-14.16-0.236-21.245
				c1.228-0.073,2.453-0.151,3.679-0.229c1.465,3.378,2.931,6.729,4.395,10.054c-0.002-3.447-0.003-6.894-0.005-10.341
				c1.404-0.093,2.807-0.188,4.212-0.285c-0.036,7.036-0.071,14.075-0.106,21.115C511.837,305.126,510.673,305.221,509.511,305.313"
				/>
			<path clip-path="url(#SVGID_4_)" fill="#FFFFFF" d="M525.078,303.99c-0.199-1.069-0.397-2.141-0.596-3.215
				c-1.583,0.14-3.167,0.276-4.75,0.409c-0.236,1.113-0.473,2.226-0.709,3.34c-1.422,0.123-2.846,0.242-4.267,0.361
				c1.861-7.222,3.724-14.385,5.584-21.486c1.385-0.1,2.77-0.206,4.153-0.31c1.617,6.896,3.233,13.733,4.852,20.511
				C527.924,303.733,526.501,303.863,525.078,303.99 M522.31,289.412c-0.578,2.634-1.157,5.275-1.736,7.925
				c1.066-0.088,2.134-0.178,3.202-0.269C523.286,294.523,522.799,291.97,522.31,289.412"/>
			<path clip-path="url(#SVGID_4_)" fill="#FFFFFF" d="M540.24,302.55c-0.177-1.061-0.352-2.12-0.528-3.183
				c-1.582,0.154-3.166,0.306-4.748,0.455c-0.261,1.106-0.519,2.213-0.778,3.322c-1.422,0.136-2.844,0.271-4.267,0.402
				c2.007-7.187,4.014-14.31,6.021-21.364c1.384-0.114,2.767-0.229,4.15-0.347c1.472,6.816,2.944,13.576,4.416,20.282
				C543.084,302.264,541.662,302.407,540.24,302.55 M537.78,288.12c-0.634,2.617-1.266,5.243-1.897,7.877
				c1.066-0.1,2.133-0.198,3.199-0.299C538.647,293.178,538.213,290.653,537.78,288.12"/>
			<path clip-path="url(#SVGID_4_)" fill="#FFFFFF" d="M546.262,301.936c0.354-6.922,0.707-13.831,1.061-20.729
				c1.403-0.124,2.807-0.25,4.211-0.376c-0.323,5.641-0.644,11.292-0.967,16.951c1.796-0.185,3.592-0.374,5.389-0.567
				c-0.081,1.237-0.16,2.474-0.24,3.712C552.564,301.273,549.413,301.609,546.262,301.936"/>
			<polygon clip-path="url(#SVGID_4_)" fill="#FFFFFF" points="664.502,402.5 145.045,402.5 110.001,421.5 679.671,421.5 			"/>
			
				<polygon clip-path="url(#SVGID_4_)" fill="none" stroke="#000000" stroke-width="2" stroke-linejoin="round" stroke-miterlimit="10" points="
				664.502,402.5 145.045,402.5 110.001,421.5 679.671,421.5 			"/>
			<rect x="676" y="371.5" clip-path="url(#SVGID_4_)" fill="#FFFFFF" width="4" height="51"/>
			
				<rect x="676" y="371.5" clip-path="url(#SVGID_4_)" fill="none" stroke="#000000" stroke-width="2" stroke-linejoin="round" stroke-miterlimit="10" width="4" height="51"/>
			<rect x="110" y="370.5" clip-path="url(#SVGID_4_)" fill="#FFFFFF" width="4" height="51"/>
			
				<rect x="110" y="370.5" clip-path="url(#SVGID_4_)" fill="none" stroke="#000000" stroke-width="2" stroke-linejoin="round" stroke-miterlimit="10" width="4" height="51"/>
			<rect x="676" y="421.5" clip-path="url(#SVGID_4_)" fill="#FFFFFF" width="4" height="72"/>
			
				<rect x="676" y="421.5" clip-path="url(#SVGID_4_)" fill="none" stroke="#000000" stroke-width="2" stroke-linejoin="round" stroke-miterlimit="10" width="4" height="72"/>
			<rect x="110" y="421.5" clip-path="url(#SVGID_4_)" fill="#FFFFFF" width="4" height="70"/>
			
				<rect x="110" y="421.5" clip-path="url(#SVGID_4_)" fill="none" stroke="#000000" stroke-width="2" stroke-linejoin="round" stroke-miterlimit="10" width="4" height="70"/>
			<polygon clip-path="url(#SVGID_4_)" fill="#FFFFFF" points="666.666,453.5 140.481,453.5 110,473.5 679.355,473.5 			"/>
			
				<polygon clip-path="url(#SVGID_4_)" fill="none" stroke="#000000" stroke-width="2" stroke-linejoin="round" stroke-miterlimit="10" points="
				666.666,453.5 140.481,453.5 110,473.5 679.355,473.5 			"/>
			<rect x="378" y="372.5" clip-path="url(#SVGID_4_)" fill="#FFFFFF" width="4" height="51"/>
			
				<rect x="378" y="372.5" clip-path="url(#SVGID_4_)" fill="none" stroke="#000000" stroke-width="2" stroke-linejoin="round" stroke-miterlimit="10" width="4" height="51"/>
			<rect x="378" y="423.5" clip-path="url(#SVGID_4_)" fill="#FFFFFF" width="4" height="70"/>
			
				<rect x="378" y="423.5" clip-path="url(#SVGID_4_)" fill="none" stroke="#000000" stroke-width="2" stroke-linejoin="round" stroke-miterlimit="10" width="4" height="70"/>
			<polygon clip-path="url(#SVGID_4_)" fill="#FFFFFF" points="404.334,361.5 385.392,361.5 390.201,355.5 408.424,355.5 			"/>
			
				<polygon clip-path="url(#SVGID_4_)" fill="none" stroke="#000000" stroke-width="2" stroke-linejoin="round" stroke-miterlimit="10" points="
				404.334,361.5 385.392,361.5 390.201,355.5 408.424,355.5 			"/>
			<polygon clip-path="url(#SVGID_4_)" fill="#FFFFFF" points="640.828,362.5 615.062,362.5 610.471,355.5 635.089,355.5 			"/>
			
				<polygon clip-path="url(#SVGID_4_)" fill="none" stroke="#000000" stroke-width="2" stroke-linejoin="round" stroke-miterlimit="10" points="
				640.828,362.5 615.062,362.5 610.471,355.5 635.089,355.5 			"/>
			<path clip-path="url(#SVGID_4_)" fill="#FFFFFF" d="M239.826,346.632c0,12.427-12.634,15.868-25.75,15.868
				c-13.117,0-23.75-10.073-23.75-22.5c0-12.427,10.633-22.5,23.75-22.5C227.192,317.5,239.826,334.205,239.826,346.632"/>
			
				<path clip-path="url(#SVGID_4_)" fill="none" stroke="#000000" stroke-width="2" stroke-linejoin="round" stroke-miterlimit="10" d="
				M239.826,346.632c0,12.427-12.634,15.868-25.75,15.868c-13.117,0-23.75-10.073-23.75-22.5c0-12.427,10.633-22.5,23.75-22.5
				C227.192,317.5,239.826,334.205,239.826,346.632z"/>
			<path clip-path="url(#SVGID_4_)" fill="#FFFFFF" d="M232.826,338.75c0,13.117-10.634,23.75-23.75,23.75
				c-13.117,0-23.75-10.633-23.75-23.75S195.959,315,209.076,315C222.192,315,232.826,325.633,232.826,338.75"/>
			
				<circle clip-path="url(#SVGID_4_)" fill="none" stroke="#000000" stroke-width="2" stroke-linejoin="round" stroke-miterlimit="10" cx="209.076" cy="338.75" r="23.75"/>
			<polygon clip-path="url(#SVGID_4_)" points="197.459,339.3 196.741,339.476 196.525,338.245 198.135,337.622 199.067,337.622 
				199.067,347.279 197.459,347.279 			"/>
			<path clip-path="url(#SVGID_4_)" d="M200.636,345.398v-0.756h1.528v0.649c0,0.433,0.229,0.729,0.663,0.729
				c0.486,0,0.717-0.338,0.717-0.783v-2.313c-0.338,0.433-0.798,0.635-1.312,0.635c-1.068,0-1.689-0.65-1.689-1.662v-2.3
				c0-1.284,0.933-2.11,2.339-2.11c1.434,0,2.326,0.879,2.326,2.191v5.355c0,1.46-0.96,2.381-2.34,2.381
				C201.502,347.414,200.636,346.615,200.636,345.398 M203.544,341.612v-2.056c0-0.379-0.23-0.744-0.704-0.744
				c-0.513,0-0.703,0.406-0.703,0.771v2.151c0,0.459,0.312,0.676,0.663,0.676C203.191,342.41,203.544,342.086,203.544,341.612"/>
			<path clip-path="url(#SVGID_4_)" d="M206.247,340.11h1.515v1.961h-1.515V340.11z M206.247,345.305h1.515v1.974h-1.515V345.305z"
				/>
			<path clip-path="url(#SVGID_4_)" d="M208.831,345.264v-5.652c0-1.434,1.122-2.124,2.366-2.124s2.366,0.675,2.366,2.11v5.666
				c0,1.46-1.082,2.15-2.366,2.15C209.886,347.414,208.831,346.711,208.831,345.264 M211.941,345.305v-5.735
				c0-0.378-0.271-0.689-0.744-0.689c-0.474,0-0.73,0.323-0.73,0.689v5.749c0,0.364,0.244,0.716,0.73,0.716
				C211.724,346.035,211.941,345.67,211.941,345.305"/>
			<path clip-path="url(#SVGID_4_)" d="M214.658,345.264v-5.652c0-1.434,1.123-2.124,2.367-2.124c1.243,0,2.366,0.675,2.366,2.11
				v5.666c0,1.46-1.082,2.15-2.366,2.15C215.713,347.414,214.658,346.711,214.658,345.264 M217.769,345.305v-5.735
				c0-0.378-0.271-0.689-0.743-0.689c-0.474,0-0.73,0.323-0.73,0.689v5.749c0,0.364,0.244,0.716,0.73,0.716
				C217.553,346.035,217.769,345.67,217.769,345.305"/>
			<rect x="300" y="323.5" clip-path="url(#SVGID_4_)" fill="#FFFFFF" width="20" height="15"/>
			
				<rect x="300" y="323.5" clip-path="url(#SVGID_4_)" fill="none" stroke="#000000" stroke-width="2" stroke-miterlimit="10" width="20" height="15"/>
			<rect x="303" y="310.5" clip-path="url(#SVGID_4_)" fill="#FFFFFF" width="14" height="10"/>
			
				<rect x="303" y="310.5" clip-path="url(#SVGID_4_)" fill="none" stroke="#000000" stroke-width="2" stroke-miterlimit="10" width="14" height="10"/>
			<rect x="309" y="303.5" clip-path="url(#SVGID_4_)" fill="#FFFFFF" width="2" height="7"/>
			
				<rect x="309" y="303.5" clip-path="url(#SVGID_4_)" fill="none" stroke="#000000" stroke-width="2" stroke-miterlimit="10" width="2" height="7"/>
			<path clip-path="url(#SVGID_4_)" d="M308.609,313.949c0,0.834-0.676,1.51-1.511,1.51c-0.834,0-1.51-0.676-1.51-1.51
				c0-0.835,0.676-1.511,1.51-1.511C307.934,312.438,308.609,313.114,308.609,313.949"/>
			<path clip-path="url(#SVGID_4_)" d="M314.445,313.949c0,0.834-0.676,1.51-1.51,1.51c-0.835,0-1.512-0.676-1.512-1.51
				c0-0.835,0.677-1.511,1.512-1.511C313.77,312.438,314.445,313.114,314.445,313.949"/>
			<path clip-path="url(#SVGID_4_)" fill="#FFFFFF" d="M313,317.5h-6H313z"/>
			<path clip-path="url(#SVGID_4_)" fill="none" stroke="#000000" stroke-width="2" stroke-miterlimit="10" d="M313,317.5h-6H313z"
				/>
			<rect x="307" y="320.5" clip-path="url(#SVGID_4_)" fill="#FFFFFF" width="6" height="1"/>
			
				<rect x="307" y="320.5" clip-path="url(#SVGID_4_)" fill="none" stroke="#000000" stroke-width="2" stroke-miterlimit="10" width="6" height="1"/>
			<rect x="302.962" y="339.428" clip-path="url(#SVGID_4_)" fill="#FFFFFF" width="5.439" height="6.045"/>
			
				<rect x="302.962" y="339.428" clip-path="url(#SVGID_4_)" fill="none" stroke="#000000" stroke-width="2" stroke-miterlimit="10" width="5.439" height="6.045"/>
			<rect x="302.962" y="347.284" clip-path="url(#SVGID_4_)" fill="#FFFFFF" width="5.439" height="9.672"/>
			
				<rect x="302.962" y="347.284" clip-path="url(#SVGID_4_)" fill="none" stroke="#000000" stroke-width="2" stroke-miterlimit="10" width="5.439" height="9.672"/>
			<rect x="302.055" y="358.164" clip-path="url(#SVGID_4_)" fill="#FFFFFF" width="7.253" height="4.836"/>
			
				<rect x="302.055" y="358.164" clip-path="url(#SVGID_4_)" fill="none" stroke="#000000" stroke-width="2" stroke-miterlimit="10" width="7.253" height="4.836"/>
			<rect x="303.868" y="345.472" clip-path="url(#SVGID_4_)" fill="#FFFFFF" width="3.627" height="1.812"/>
			
				<rect x="303.868" y="345.472" clip-path="url(#SVGID_4_)" fill="none" stroke="#000000" stroke-width="2" stroke-miterlimit="10" width="3.627" height="1.812"/>
			<rect x="303.868" y="356.956" clip-path="url(#SVGID_4_)" fill="#FFFFFF" width="3.627" height="1.208"/>
			
				<rect x="303.868" y="356.956" clip-path="url(#SVGID_4_)" fill="none" stroke="#000000" stroke-width="2" stroke-miterlimit="10" width="3.627" height="1.208"/>
			<rect x="313.238" y="339.428" clip-path="url(#SVGID_4_)" fill="#FFFFFF" width="5.438" height="6.045"/>
			
				<rect x="313.238" y="339.428" clip-path="url(#SVGID_4_)" fill="none" stroke="#000000" stroke-width="2" stroke-miterlimit="10" width="5.438" height="6.045"/>
			<rect x="313.238" y="347.284" clip-path="url(#SVGID_4_)" fill="#FFFFFF" width="5.438" height="9.672"/>
			
				<rect x="313.238" y="347.284" clip-path="url(#SVGID_4_)" fill="none" stroke="#000000" stroke-width="2" stroke-miterlimit="10" width="5.438" height="9.672"/>
			<rect x="312.332" y="358.164" clip-path="url(#SVGID_4_)" fill="#FFFFFF" width="7.251" height="4.836"/>
			
				<rect x="312.332" y="358.164" clip-path="url(#SVGID_4_)" fill="none" stroke="#000000" stroke-width="2" stroke-miterlimit="10" width="7.251" height="4.836"/>
			<rect x="314.143" y="345.472" clip-path="url(#SVGID_4_)" fill="#FFFFFF" width="3.628" height="1.812"/>
			
				<rect x="314.143" y="345.472" clip-path="url(#SVGID_4_)" fill="none" stroke="#000000" stroke-width="2" stroke-miterlimit="10" width="3.628" height="1.812"/>
			<rect x="314.143" y="356.956" clip-path="url(#SVGID_4_)" fill="#FFFFFF" width="3.628" height="1.208"/>
			
				<rect x="314.143" y="356.956" clip-path="url(#SVGID_4_)" fill="none" stroke="#000000" stroke-width="2" stroke-miterlimit="10" width="3.628" height="1.208"/>
			<rect x="322.302" y="324.316" clip-path="url(#SVGID_4_)" fill="#FFFFFF" width="4.231" height="15.716"/>
			
				<rect x="322.302" y="324.316" clip-path="url(#SVGID_4_)" fill="none" stroke="#000000" stroke-width="2" stroke-miterlimit="10" width="4.231" height="15.716"/>
			<rect x="321.094" y="326.131" clip-path="url(#SVGID_4_)" fill="#FFFFFF" width="1.209" height="1.812"/>
			
				<rect x="321.094" y="326.131" clip-path="url(#SVGID_4_)" fill="none" stroke="#000000" stroke-width="2" stroke-miterlimit="10" width="1.209" height="1.812"/>
			<rect x="293.5" y="324.316" clip-path="url(#SVGID_4_)" fill="#FFFFFF" width="4.23" height="15.716"/>
			
				<rect x="293.5" y="324.316" clip-path="url(#SVGID_4_)" fill="none" stroke="#000000" stroke-width="2" stroke-miterlimit="10" width="4.23" height="15.716"/>
			<rect x="297.731" y="326.131" clip-path="url(#SVGID_4_)" fill="#FFFFFF" width="1.21" height="1.812"/>
			
				<rect x="297.731" y="326.131" clip-path="url(#SVGID_4_)" fill="none" stroke="#000000" stroke-width="2" stroke-miterlimit="10" width="1.21" height="1.812"/>
			<path clip-path="url(#SVGID_4_)" fill="#FFFFFF" d="M316,333.5c-3.889-0.934-7.944-0.934-11.833,0
				c-0.39-1.621-0.779-3.241-1.168-4.862c4.657-1.117,9.512-1.117,14.168,0C316.778,330.259,316.389,331.879,316,333.5"/>
			<path clip-path="url(#SVGID_4_)" fill="none" stroke="#000000" stroke-width="2" stroke-miterlimit="10" d="M316,333.5
				c-3.889-0.934-7.944-0.934-11.833,0c-0.39-1.621-0.779-3.241-1.168-4.862c4.657-1.117,9.512-1.117,14.168,0
				C316.778,330.259,316.389,331.879,316,333.5z"/>
			<rect x="714.08" y="166.259" clip-path="url(#SVGID_4_)" fill="#CFCECB" width="51.92" height="66.054"/>
			
				<rect x="714.08" y="166.259" clip-path="url(#SVGID_4_)" fill="none" stroke="#000000" stroke-width="2" stroke-linejoin="round" stroke-miterlimit="10" width="51.92" height="66.054"/>
			<rect x="719" y="171.5" clip-path="url(#SVGID_4_)" fill="#FFFFFF" width="42" height="56"/>
			
				<rect x="719" y="171.5" clip-path="url(#SVGID_4_)" fill="none" stroke="#000000" stroke-width="2" stroke-miterlimit="10" width="42" height="56"/>
			<rect x="785" y="133.232" clip-path="url(#SVGID_4_)" fill="#CFCECB" width="51.92" height="66.054"/>
			
				<rect x="785" y="133.232" clip-path="url(#SVGID_4_)" fill="none" stroke="#000000" stroke-width="2" stroke-linejoin="round" stroke-miterlimit="10" width="51.92" height="66.054"/>
			<rect x="790" y="138.5" clip-path="url(#SVGID_4_)" fill="#FFFFFF" width="42" height="56"/>
			
				<rect x="790" y="138.5" clip-path="url(#SVGID_4_)" fill="none" stroke="#000000" stroke-width="2" stroke-miterlimit="10" width="42" height="56"/>
			<rect x="785" y="218.594" clip-path="url(#SVGID_4_)" fill="#CFCECB" width="51.92" height="66.054"/>
			
				<rect x="785" y="218.594" clip-path="url(#SVGID_4_)" fill="none" stroke="#000000" stroke-width="2" stroke-linejoin="round" stroke-miterlimit="10" width="51.92" height="66.054"/>
			<rect x="790" y="223.5" clip-path="url(#SVGID_4_)" fill="#FFFFFF" width="42" height="56"/>
			
				<rect x="790" y="223.5" clip-path="url(#SVGID_4_)" fill="none" stroke="#000000" stroke-width="2" stroke-miterlimit="10" width="42" height="56"/>
		</g>
	</g>
</g>
</svg>
