


<svg version="1.1" id="Layer_1" xmlns="http://www.w3.org/2000/svg" xmlns:xlink="http://www.w3.org/1999/xlink" x="0px" y="0px"
	 width="1024px" height="630px" viewBox="0 0 1024 630" enable-background="new 0 0 1024 630" xml:space="preserve">
<g>
	<g>
		<defs>
			<rect id="SVGID_309_" y="-1.5" width="1024" height="633"/>
		</defs>
		<clipPath id="SVGID_2_">
			<use xlink:href="#SVGID_309_"  overflow="visible"/>
		</clipPath>
		<rect x="138" y="81.5" clip-path="url(#SVGID_2_)" fill="#F7CAC9" width="748" height="375"/>
		<path clip-path="url(#SVGID_2_)" fill="#FFFFFF" d="M125,456.5h774H125z"/>
		
			<line clip-path="url(#SVGID_2_)" fill="none" stroke="#000000" stroke-width="2" stroke-miterlimit="10" x1="125" y1="456.5" x2="899" y2="456.5"/>
		<path clip-path="url(#SVGID_2_)" fill="#FFFFFF" d="M200.957-1.5v110.588V-1.5z"/>
		<g clip-path="url(#SVGID_2_)">
			<defs>
				<rect id="SVGID_311_" y="-1.5" width="1024" height="633"/>
			</defs>
			<clipPath id="SVGID_4_">
				<use xlink:href="#SVGID_311_"  overflow="visible"/>
			</clipPath>
			
				<line clip-path="url(#SVGID_4_)" fill="none" stroke="#000000" stroke-width="2" stroke-linecap="round" stroke-linejoin="round" stroke-miterlimit="10" x1="200.957" y1="-14.5" x2="200.957" y2="109.089"/>
		</g>
		<rect x="196.934" y="109.089" clip-path="url(#SVGID_2_)" fill="#FFFFFF" width="8.667" height="11.744"/>
		
			<rect x="196.934" y="109.089" clip-path="url(#SVGID_2_)" fill="none" stroke="#000000" stroke-width="2" stroke-linecap="round" stroke-linejoin="round" stroke-miterlimit="10" width="8.667" height="11.744"/>
		<g clip-path="url(#SVGID_2_)">
			<defs>
				<rect id="SVGID_313_" y="-1.5" width="1024" height="633"/>
			</defs>
			<clipPath id="SVGID_6_">
				<use xlink:href="#SVGID_313_"  overflow="visible"/>
			</clipPath>
			<path clip-path="url(#SVGID_6_)" fill="#FFFFFF" d="M214.623,133.499c0,7.548-6.119,13.667-13.666,13.667
				c-7.548,0-13.667-6.119-13.667-13.667c0-7.547,6.119-13.666,13.667-13.666C208.504,119.833,214.623,125.952,214.623,133.499"/>
			
				<circle clip-path="url(#SVGID_6_)" fill="none" stroke="#000000" stroke-width="2" stroke-linecap="round" stroke-linejoin="round" stroke-miterlimit="10" cx="200.957" cy="133.499" r="13.666"/>
			<line clip-path="url(#SVGID_6_)" fill="#FFFFFF" x1="355.549" y1="-14.5" x2="355.549" y2="109.089"/>
			
				<line clip-path="url(#SVGID_6_)" fill="none" stroke="#000000" stroke-width="2" stroke-linecap="round" stroke-linejoin="round" stroke-miterlimit="10" x1="355.549" y1="-14.5" x2="355.549" y2="109.089"/>
			<rect x="351.526" y="109.089" clip-path="url(#SVGID_6_)" fill="#FFFFFF" width="8.667" height="11.744"/>
			
				<rect x="351.526" y="109.089" clip-path="url(#SVGID_6_)" fill="none" stroke="#000000" stroke-width="2" stroke-linecap="round" stroke-linejoin="round" stroke-miterlimit="10" width="8.667" height="11.744"/>
			<path clip-path="url(#SVGID_6_)" fill="#FFFFFF" d="M369.215,133.499c0,7.548-6.119,13.667-13.666,13.667
				c-7.548,0-13.667-6.119-13.667-13.667c0-7.547,6.119-13.666,13.667-13.666C363.096,119.833,369.215,125.952,369.215,133.499"/>
			
				<circle clip-path="url(#SVGID_6_)" fill="none" stroke="#000000" stroke-width="2" stroke-linecap="round" stroke-linejoin="round" stroke-miterlimit="10" cx="355.549" cy="133.499" r="13.666"/>
			<line clip-path="url(#SVGID_6_)" fill="#FFFFFF" x1="510.141" y1="-14.5" x2="510.141" y2="109.089"/>
			
				<line clip-path="url(#SVGID_6_)" fill="none" stroke="#000000" stroke-width="2" stroke-linecap="round" stroke-linejoin="round" stroke-miterlimit="10" x1="510.141" y1="-14.5" x2="510.141" y2="109.089"/>
			<rect x="506.118" y="109.089" clip-path="url(#SVGID_6_)" fill="#FFFFFF" width="8.667" height="11.744"/>
			
				<rect x="506.118" y="109.089" clip-path="url(#SVGID_6_)" fill="none" stroke="#000000" stroke-width="2" stroke-linecap="round" stroke-linejoin="round" stroke-miterlimit="10" width="8.667" height="11.744"/>
			<path clip-path="url(#SVGID_6_)" fill="#FFFFFF" d="M523.807,133.499c0,7.548-6.119,13.667-13.666,13.667
				c-7.548,0-13.667-6.119-13.667-13.667c0-7.547,6.119-13.666,13.667-13.666C517.688,119.833,523.807,125.952,523.807,133.499"/>
			
				<circle clip-path="url(#SVGID_6_)" fill="none" stroke="#000000" stroke-width="2" stroke-linecap="round" stroke-linejoin="round" stroke-miterlimit="10" cx="510.141" cy="133.499" r="13.666"/>
			<rect x="377.835" y="211.08" clip-path="url(#SVGID_6_)" fill="#FFFFFF" width="264.61" height="164.992"/>
			
				<rect x="377.835" y="211.08" clip-path="url(#SVGID_6_)" fill="none" stroke="#000000" stroke-width="2" stroke-miterlimit="10" width="264.61" height="164.992"/>
			<rect x="389.948" y="225.577" clip-path="url(#SVGID_6_)" fill="#1B2A36" width="239.276" height="137.493"/>
			
				<rect x="389.948" y="225.577" clip-path="url(#SVGID_6_)" fill="none" stroke="#000000" stroke-width="2" stroke-miterlimit="10" width="239.276" height="137.493"/>
			<rect x="109.15" y="423.5" clip-path="url(#SVGID_6_)" fill="#FFFFFF" width="533.295" height="84"/>
			
				<rect x="109.15" y="423.5" clip-path="url(#SVGID_6_)" fill="none" stroke="#000000" stroke-width="2" stroke-linejoin="round" stroke-miterlimit="10" width="533.295" height="84"/>
			<rect x="697.988" y="53.588" clip-path="url(#SVGID_6_)" fill="#FFFFFF" width="123.849" height="453.912"/>
			
				<rect x="697.988" y="53.588" clip-path="url(#SVGID_6_)" fill="none" stroke="#000000" stroke-width="2" stroke-linejoin="round" stroke-miterlimit="10" width="123.849" height="453.912"/>
			<polygon clip-path="url(#SVGID_6_)" fill="#FFFFFF" points="680.437,481.459 697.99,507.238 697.99,53.587 680.436,70.282 			"/>
			
				<polygon clip-path="url(#SVGID_6_)" fill="none" stroke="#000000" stroke-width="2" stroke-linejoin="round" stroke-miterlimit="10" points="
				680.437,481.459 697.99,507.238 697.99,53.587 680.436,70.282 			"/>
			<polygon clip-path="url(#SVGID_6_)" fill="#CFCECB" points="632.6,408.046 141.215,408.046 109.15,423.5 643.308,423.5 			"/>
			
				<polygon clip-path="url(#SVGID_6_)" fill="none" stroke="#000000" stroke-width="2" stroke-linejoin="round" stroke-miterlimit="10" points="
				632.6,408.046 141.215,408.046 109.15,423.5 643.308,423.5 			"/>
			<polygon clip-path="url(#SVGID_6_)" fill="#FEFEFE" points="423.595,310.429 423.595,302.788 415.697,302.788 415.697,310.429 
				410.794,310.429 410.794,291.412 415.697,291.412 415.697,298.512 423.595,298.512 423.595,291.412 428.499,291.412 
				428.499,310.429 			"/>
			<polygon clip-path="url(#SVGID_6_)" fill="#FEFEFE" points="431.923,310.429 431.923,291.412 445.864,291.412 445.864,295.688 
				436.826,295.688 436.826,298.655 445.665,298.655 445.665,302.931 436.826,302.931 436.826,306.153 445.864,306.153 
				445.864,310.429 			"/>
			<polygon clip-path="url(#SVGID_6_)" fill="#FEFEFE" points="452.965,310.429 452.965,295.688 447.634,295.688 447.634,291.412 
				463.173,291.412 463.173,295.688 457.869,295.688 457.869,310.429 			"/>
			<path clip-path="url(#SVGID_6_)" fill="#FEFEFE" d="M409.168,331.252l2.053-3.735c0.685,0.57,1.597,1.112,2.737,1.112
				c1.54,0,2.538-0.999,2.538-2.595v-12.431h4.903v12.488c0,4.704-2.851,6.871-7.014,6.871
				C412.476,332.962,410.594,332.506,409.168,331.252"/>
			<path clip-path="url(#SVGID_6_)" fill="#FEFEFE" d="M423.853,323.126c0-5.788,4.362-9.837,10.179-9.837s10.15,4.049,10.15,9.837
				c0,5.787-4.334,9.836-10.15,9.836S423.853,328.913,423.853,323.126 M439.192,323.126c0-3.108-2.024-5.503-5.161-5.503
				c-3.136,0-5.188,2.395-5.188,5.503c0,3.079,2.053,5.503,5.188,5.503C437.168,328.629,439.192,326.205,439.192,323.126"/>
			<path clip-path="url(#SVGID_6_)" fill="#FEFEFE" d="M446.664,324.922v-11.319h4.989v11.148c0,2.253,1.369,3.878,4.021,3.878
				c2.623,0,3.991-1.625,3.991-3.878v-11.148h4.962v11.291c0,4.733-2.852,8.068-8.953,8.068
				C449.573,332.962,446.664,329.598,446.664,324.922"/>
			<path clip-path="url(#SVGID_6_)" fill="#FEFEFE" d="M478.656,332.62l-3.193-6.387h-2.509v6.387h-4.904v-19.018h9.523
				c4.219,0,6.614,2.794,6.614,6.33c0,3.307-1.996,5.075-3.792,5.702l3.878,6.986H478.656z M479.198,319.903
				c0-1.312-1.056-2.024-2.367-2.024h-3.877v4.078h3.877C478.143,321.958,479.198,321.244,479.198,319.903"/>
			<polygon clip-path="url(#SVGID_6_)" fill="#FEFEFE" points="499.843,332.62 491.802,321.614 491.802,332.62 486.897,332.62 
				486.897,313.602 491.945,313.602 499.643,324.066 499.643,313.602 504.575,313.602 504.575,332.62 			"/>
			<path clip-path="url(#SVGID_6_)" fill="#FEFEFE" d="M520.914,332.62l-0.94-2.737h-7.499l-0.94,2.737h-5.561l7.156-19.018h6.188
				l7.156,19.018H520.914z M516.238,318.449l-2.424,7.156h4.82L516.238,318.449z"/>
			<path clip-path="url(#SVGID_6_)" fill="#FEFEFE" d="M540.789,332.62l-0.941-2.737h-7.498l-0.94,2.737h-5.561l7.156-19.018h6.188
				l7.157,19.018H540.789z M536.113,318.449l-2.424,7.156h4.82L536.113,318.449z"/>
			<polygon clip-path="url(#SVGID_6_)" fill="#FEFEFE" points="547.661,332.62 547.661,313.602 552.566,313.602 552.566,328.344 
				560.207,328.344 560.207,332.62 			"/>
			<rect x="409" y="338.5" clip-path="url(#SVGID_6_)" fill="#00C4C4" width="27" height="4"/>
			<path clip-path="url(#SVGID_6_)" fill="#FFFFFF" d="M186.391,349.05v66.724c0,2.024,4.822,3.666,10.771,3.666
				c5.949,0,10.771-1.642,10.771-3.666V349.05H186.391z"/>
			
				<path clip-path="url(#SVGID_6_)" fill="none" stroke="#000000" stroke-width="2" stroke-linejoin="round" stroke-miterlimit="10" d="
				M186.391,349.05v66.724c0,2.024,4.822,3.666,10.771,3.666c5.949,0,10.771-1.642,10.771-3.666V349.05H186.391z"/>
			<path clip-path="url(#SVGID_6_)" fill="#FFFFFF" d="M207.933,349.05c0,2.024-4.822,3.666-10.771,3.666
				c-5.948,0-10.771-1.642-10.771-3.666c0-2.025,4.822-3.667,10.771-3.667C203.11,345.383,207.933,347.025,207.933,349.05"/>
			
				<ellipse clip-path="url(#SVGID_6_)" fill="none" stroke="#000000" stroke-width="2" stroke-linejoin="round" stroke-miterlimit="10" cx="197.162" cy="349.05" rx="10.771" ry="3.666"/>
			<path clip-path="url(#SVGID_6_)" fill="none" stroke="#000000" stroke-width="2" stroke-miterlimit="10" d="M198.411,352.608
				c0,0,6.52-21.883,21.853-23.216"/>
			<path clip-path="url(#SVGID_6_)" fill="#CFCECB" d="M194.072,353.107c0,0-6.48-23.881-10.48-25.215"/>
			<path clip-path="url(#SVGID_6_)" fill="none" stroke="#000000" stroke-width="2" stroke-miterlimit="10" d="M194.072,353.107
				c0,0-6.48-23.881-10.48-25.215"/>
			<path clip-path="url(#SVGID_6_)" fill="#CFCECB" d="M195.307,352.716c0,0-2.857-31.883,2.331-31.549"/>
			<path clip-path="url(#SVGID_6_)" fill="none" stroke="#000000" stroke-width="2" stroke-miterlimit="10" d="M195.307,352.716
				c0,0-2.857-31.883,2.331-31.549"/>
			<path clip-path="url(#SVGID_6_)" fill="#CFCECB" d="M197.673,351.5c0,0-1-41.548,7.667-44.215"/>
			<path clip-path="url(#SVGID_6_)" fill="none" stroke="#000000" stroke-width="2" stroke-miterlimit="10" d="M197.673,351.5
				c0,0-1-41.548,7.667-44.215"/>
			<polygon clip-path="url(#SVGID_6_)" fill="#FFFFFF" points="227.766,329.375 223.662,330.032 226.596,332.977 222.889,331.096 
				223.534,335.201 221.641,331.5 219.746,335.201 220.393,331.096 216.686,332.977 219.619,330.032 215.516,329.375 
				219.619,328.718 216.686,325.773 220.393,327.654 219.746,323.549 221.641,327.25 223.534,323.549 222.889,327.654 
				226.596,325.773 223.662,328.718 			"/>
			
				<polygon clip-path="url(#SVGID_6_)" fill="none" stroke="#000000" stroke-width="2" stroke-linejoin="round" stroke-miterlimit="10" points="
				227.766,329.375 223.662,330.032 226.596,332.977 222.889,331.096 223.534,335.201 221.641,331.5 219.746,335.201 
				220.393,331.096 216.686,332.977 219.619,330.032 215.516,329.375 219.619,328.718 216.686,325.773 220.393,327.654 
				219.746,323.549 221.641,327.25 223.534,323.549 222.889,327.654 226.596,325.773 223.662,328.718 			"/>
			<polygon clip-path="url(#SVGID_6_)" fill="#FFFFFF" points="209.933,307.285 205.861,307.837 209.112,310.35 205.312,308.786 
				206.869,312.59 204.359,309.338 203.808,313.41 203.256,309.339 200.742,312.589 202.307,308.788 198.504,310.35 
				201.755,307.838 197.683,307.285 201.754,306.733 198.503,304.22 202.304,305.784 200.744,301.98 203.256,305.232 
				203.808,301.16 204.359,305.231 206.873,301.981 205.309,305.782 209.111,304.22 205.86,306.732 			"/>
			
				<polygon clip-path="url(#SVGID_6_)" fill="none" stroke="#000000" stroke-width="2" stroke-linejoin="round" stroke-miterlimit="10" points="
				209.933,307.285 205.861,307.837 209.112,310.35 205.312,308.786 206.869,312.59 204.359,309.338 203.808,313.41 
				203.256,309.339 200.742,312.589 202.307,308.788 198.504,310.35 201.755,307.838 197.683,307.285 201.754,306.733 
				198.503,304.22 202.304,305.784 200.744,301.98 203.256,305.232 203.808,301.16 204.359,305.231 206.873,301.981 
				205.309,305.782 209.111,304.22 205.86,306.732 			"/>
			<polygon clip-path="url(#SVGID_6_)" fill="#FFFFFF" points="204.536,321.164 200.483,321.639 203.93,323.824 200.073,322.487 
				202.229,325.953 199.332,323.08 199.773,327.137 198.411,323.289 197.048,327.137 197.489,323.079 194.59,325.951 
				196.749,322.488 192.891,323.823 196.339,321.638 192.286,321.164 196.339,320.689 192.893,318.504 196.749,319.841 
				194.593,316.375 197.49,319.248 197.049,315.191 198.411,319.039 199.774,315.191 199.333,319.249 202.232,316.377 
				200.073,319.84 203.931,318.505 200.483,320.69 			"/>
			
				<polygon clip-path="url(#SVGID_6_)" fill="none" stroke="#000000" stroke-width="2" stroke-linejoin="round" stroke-miterlimit="10" points="
				204.536,321.164 200.483,321.639 203.93,323.824 200.073,322.487 202.229,325.953 199.332,323.08 199.773,327.137 
				198.411,323.289 197.048,327.137 197.489,323.079 194.59,325.951 196.749,322.488 192.891,323.823 196.339,321.638 
				192.286,321.164 196.339,320.689 192.893,318.504 196.749,319.841 194.593,316.375 197.49,319.248 197.049,315.191 
				198.411,319.039 199.774,315.191 199.333,319.249 202.232,316.377 200.073,319.84 203.931,318.505 200.483,320.69 			"/>
			<polygon clip-path="url(#SVGID_6_)" fill="#FFFFFF" points="189.717,327.893 185.664,328.368 189.11,330.553 185.254,329.216 
				187.41,332.682 184.513,329.809 184.954,333.866 183.592,330.018 182.229,333.866 182.67,329.808 179.771,332.68 181.93,329.217 
				178.072,330.552 181.52,328.367 177.467,327.893 181.52,327.417 178.073,325.232 181.93,326.57 179.773,323.104 182.671,325.977 
				182.229,321.919 183.592,325.768 184.955,321.919 184.514,325.978 187.413,323.105 185.254,326.569 189.111,325.233 
				185.664,327.418 			"/>
			
				<polygon clip-path="url(#SVGID_6_)" fill="none" stroke="#000000" stroke-width="2" stroke-linejoin="round" stroke-miterlimit="10" points="
				189.717,327.893 185.664,328.368 189.11,330.553 185.254,329.216 187.41,332.682 184.513,329.809 184.954,333.866 
				183.592,330.018 182.229,333.866 182.67,329.808 179.771,332.68 181.93,329.217 178.072,330.552 181.52,328.367 177.467,327.893 
				181.52,327.417 178.073,325.232 181.93,326.57 179.773,323.104 182.671,325.977 182.229,321.919 183.592,325.768 
				184.955,321.919 184.514,325.978 187.413,323.105 185.254,326.569 189.111,325.233 185.664,327.418 			"/>
		</g>
	</g>
</g>
</svg>
