<?xml version="1.0" encoding="iso-8859-1"?>
<!-- Generator: Adobe Illustrator 16.0.4, SVG Export Plug-In . SVG Version: 6.00 Build 0)  -->
<!DOCTYPE svg PUBLIC "-//W3C//DTD SVG 1.1//EN" "http://www.w3.org/Graphics/SVG/1.1/DTD/svg11.dtd">
<svg version="1.1" id="Layer_1" xmlns="http://www.w3.org/2000/svg" xmlns:xlink="http://www.w3.org/1999/xlink" x="0px" y="0px"
	 width="352.5px" height="235px" viewBox="0 0 352.5 235" style="enable-background:new 0 0 352.5 235;" xml:space="preserve">
<path style="fill:none;stroke:#000000;stroke-miterlimit:10;" d="M224.896,143.482c-9.102,12.308-4.361,24.895-0.451,38.314
	c4.816,16.535,8.768,33.346,12.771,50.093"/>
<path style="fill:none;stroke:#000000;stroke-miterlimit:10;" d="M229.481,116.574c-1.988,6.039-2.318,23.842-4.586,26.909"/>
<path style="fill:none;stroke:#000000;stroke-miterlimit:10;" d="M236.969,108.563"/>
<path style="fill:none;stroke:#000000;stroke-miterlimit:10;" d="M129.499,77v42.194l-3.621-6.114l-5.086-12.229l-3.318-10.482
	l-3.975-11.792V73.5h-0.85l-1.529-1.611c0,0,5.896-65.882,57.434-66.537s68.57,22.199,70.973,34.646
	c2.402,12.447,1.966,45.604,1.966,45.604s-0.813,7.777-4.616,22.834"/>
<path style="fill:none;stroke:#000000;stroke-miterlimit:10;" d="M129.597,77.266c2.33-5.605,4.902-11.21,6.902-16.815
	c0,2.984,0,5.969,0,8.954c9-9.634,25.146-22.06,40.703-6.278c-0.799-2.711-1.558-5.423-2.358-8.134
	c3.27,0.698,14.284,5.5,15.335,9.253c-1.828-6.531-2.643-8.424-1.326-14.932c6.556,2.79,6.305,9.04,14.199,10.701
	c-1.674-5.096-3.346-10.191-5.02-15.287c3.448,6.757,8.642,12.635,11.998,19.436c6.84-4.896,1.469-4.061,10.469,1.747
	c0-2.329,0-4.659,0-6.988c11,18.018,8.043,37.067,8.968,57.652c2.578-2.796,5.119-5.594,7.697-8.391"/>
<path style="fill:none;stroke:#000000;stroke-miterlimit:10;" d="M161.129,136.664c0,0,34.067-2.184,43.239-1.528"/>
<path style="fill:none;stroke:#000000;stroke-miterlimit:10;" d="M119.231,95.439c-7.028,9.673,3.857,32.09,13.527,36.595
	c5.133,2.39,4.03,11.147,6.314,15.562c3.684,7.123,10.314,13.468,17.928,16.02c10.831,3.629,26.779,6.832,37.547,1.785
	c3.502-1.641,25.106-9.972,25.106-14.099"/>
<polyline style="fill:none;stroke:#000000;stroke-miterlimit:10;" points="144.499,154 144.499,167.237 157.108,191.259 
	163.725,224.604 "/>
<path style="fill:none;stroke:#000000;stroke-miterlimit:10;" d="M145.843,96.919c0,0,12.011-14.631,24.239,0"/>
<path style="fill:none;stroke:#000000;stroke-miterlimit:10;" d="M192.139,93.425c0,0,12.011-14.631,24.24,0"/>
<circle cx="205.241" cy="91.945" r="3.275"/>
<circle cx="157.198" cy="95.439" r="3.275"/>
<path style="fill:none;stroke:#000000;stroke-miterlimit:10;" d="M138.854,88.67c0,0,17.47-19.387,32.757,1.747"/>
<path style="fill:none;stroke:#000000;stroke-miterlimit:10;" d="M192.139,83.162c0,0,17.688-15.626,28.389,3.761"/>
<path style="fill:none;stroke:#000000;stroke-miterlimit:10;" d="M171.611,112.643c0,0-8.735,4.149-2.839,10.264"/>
<path style="fill:none;stroke:#000000;stroke-miterlimit:10;" d="M144.532,168.111l-12.666,11.646c0,0-54.188-6.067-69.589,2.039
	c-16.596,8.734-41.828,56.138-41.828,56.138"/>
<path style="fill:none;stroke:#000000;stroke-miterlimit:10;" d="M219.654,156.755c0,0,7.671,4.419,9.827,6.406
	c4.607,4.245,15.359,19.799,15.359,19.799s52.206-0.236,65.513,9.609c11.071,8.192,22.185,45.364,22.185,45.364"/>
</svg>
