<?xml version="1.0" encoding="iso-8859-1"?>
<!-- Generator: Adobe Illustrator 16.0.4, SVG Export Plug-In . SVG Version: 6.00 Build 0)  -->
<!DOCTYPE svg PUBLIC "-//W3C//DTD SVG 1.1//EN" "http://www.w3.org/Graphics/SVG/1.1/DTD/svg11.dtd">
<svg version="1.1" id="Layer_1" xmlns="http://www.w3.org/2000/svg" xmlns:xlink="http://www.w3.org/1999/xlink" x="0px" y="0px"
	 width="51px" height="40px" viewBox="0 0 51 40" style="enable-background:new 0 0 51 40;" xml:space="preserve">
<rect y="-0.302" width="788" height="41"/>
<g>
	<polyline style="fill:none;stroke:#FFFFFF;stroke-linecap:square;stroke-linejoin:round;" points="0.5,10.698 25.912,30.698 
		51.331,10.698 76.744,30.698 102.163,10.698 127.577,30.698 152.994,10.698 178.411,30.698 203.826,10.698 229.243,30.698 
		254.663,10.698 280.081,30.698 305.498,10.698 330.915,30.698 356.333,10.698 381.752,30.698 407.174,10.698 432.593,30.698 
		458.013,10.698 483.433,30.698 508.853,10.698 534.273,30.698 559.694,10.698 585.111,30.698 610.53,10.698 635.95,30.698 
		661.373,10.698 686.797,30.698 712.22,10.698 737.645,30.698 763.072,10.698 788.5,30.698 	"/>
</g>
</svg>
