<svg version="1.1" xmlns="http://www.w3.org/2000/svg" xmlns:xlink="http://www.w3.org/1999/xlink" xml:space="preserve" id="eye" viewBox="0 0 400 210" >
    <defs>
        <clipPath id="mask">
            <path
                style="#FFF"
                d="M200.592,12.89c25.391,0,50.361,6.059,76.344,18.523c20.338,9.756,40.592,23.156,61.92,40.965
      c11.766,9.824,21.51,19.283,29.793,28.92c1.719,1.999,1.865,3.113,1.869,3.407c0.008,0.65-0.588,1.701-1.596,2.808
      c-33.984,37.371-70.369,62.99-111.23,78.318c-17.59,6.6-35.58,10.086-53.461,10.359c-1.137,0.018-2.219,0.084-3.172,0.145
      c-0.312,0.02-0.623,0.039-0.934,0.057c-25.333-0.035-50.201-6.074-76.019-18.457c-25.411-12.188-49.78-29.191-74.502-51.982
      c-6.019-5.549-11.663-11.719-17.122-17.686c-1.337-1.461-2.14-2.848-2.146-3.707c-0.006-0.813,0.746-2.125,2.013-3.51
      c34.482-37.684,71.307-63.326,112.577-78.392c15.901-5.806,32.767-9.06,50.129-9.671c1.838-0.064,3.7-0.097,5.535-0.097H200.592"/>
        </clipPath>
    </defs>

    <g id="world">
        <path
            d="M228.185 109.195h35.739c-.959 12.363-5.054 23.434-12.135 33.068l-26.626-7.744c.978-8.183 1.993-16.71 3.022-25.324zM263.839 100.156h-35.651c-1.017-8.487-2.021-16.86-3.024-25.25 3.989-.957 8.219-1.797 12.339-3.013 4.39-1.296 8.684-2.915 12.995-4.467.849-.305 1.34-.325 1.906.485 6.641 9.471 10.454 19.965 11.471 31.482.018.214-.02.432-.036.763zM136.994 109.195h33.252c1.027 8.58 2.051 17.109 3.099 25.855-2.021.445-4.431.836-6.753 1.52-5.483 1.615-10.933 3.352-16.379 5.088-.804.256-1.315.418-1.911-.438-6.502-9.342-10.249-19.678-11.306-30.996-.027-.31-.002-.628-.002-1.029zM173.301 74.72c-1.024 8.527-2.024 16.856-3.044 25.375h-33.428c.376-2.593.646-5.175 1.141-7.712 1.679-8.624 5.047-16.551 10.023-23.797.454-.656.82-1.028 1.7-.667 7.499 3.053 15.273 5.161 23.215 6.678.21.042.409.128.393.123zM218.983 109.248c-.327 8.27-1.222 16.361-3.065 24.418-11.167-1.229-22.214-1.221-33.393.094-1.791-8.094-2.819-16.174-3.021-24.512h39.479zM179.523 100.127c.135-8.118 1.203-16.033 2.902-24.096 11.166 1.296 22.303 1.328 33.567.083 1.787 7.938 2.666 15.875 2.99 24.013h-39.459zM213.804 67.473c-9.771 1-19.299.97-28.947-.058.04-.414.011-.789.115-1.12 2.589-8.323 5.975-16.286 10.723-23.632 1.557-2.41 5.446-2.469 6.978-.094 4.953 7.668 8.473 15.973 11.131 24.904zM213.695 142.301c-2.703 8.973-6.307 17.359-11.45 25.037-.348.518-1.177.889-1.833.986-.956.143-1.962.018-2.937-.088-.381-.043-.879-.248-1.079-.543-5.209-7.76-8.91-16.209-11.628-25.305 9.717-1.054 19.267-1.083 28.927-.087zM223.122 66.117c-3.283-8.049-6.484-15.897-9.694-23.77 12.264 2.563 23.004 8.399 32.111 17.442-3.422 1.955-17.225 5.799-22.417 6.328zM213.394 167.006l9.625-23.371c7.325 1.197 14.766 3.229 22.326 6.098-9.128 8.97-19.746 14.681-31.951 17.273zM175.244 66.325c-6.596-1.769-13.474-3.615-20.818-5.584 8.833-9.086 18.88-14.828 30.274-17.776-3.068 7.577-6.161 15.22-9.456 23.36zM175.475 143.744c3.122 7.633 6.168 15.084 9.169 22.418-5.541.396-23.054-9.457-29.372-16.771 2.044-1.446 12.292-4.297 20.203-5.647z"
            fill-rule="evenodd"
            clip-rule="evenodd"
            fill="#fff"/>
    </g>


    <g clip-path="url(#mask)" id="inner">
        <!--<circle cx="200" cy="110" r="100"  fill="#FFF" id="circle"/>-->

        <ellipse cx="200" cy="-100" rx="200" ry="100" id="circle"></ellipse>


    </g>

    <g id="border">
        <path
            d="M200.592 12.89c25.39 0 50.362 6.059 76.344 18.523 20.337 9.756 40.591 23.156 61.92 40.965 11.765 9.824 21.51 19.283 29.792 28.92 1.719 1.999 1.865 3.113 1.869 3.407.009.65-.588 1.701-1.596 2.808-33.984 37.371-70.368 62.99-111.229 78.318-17.591 6.6-35.58 10.086-53.461 10.359-1.138.018-2.219.084-3.173.145l-.934.057c-25.333-.035-50.201-6.074-76.019-18.457-25.411-12.188-49.78-29.191-74.502-51.982-6.019-5.549-11.663-11.719-17.122-17.686-1.337-1.461-2.14-2.847-2.146-3.707-.006-.813.746-2.125 2.013-3.51 34.482-37.684 71.307-63.326 112.577-78.392 15.901-5.806 32.767-9.06 50.129-9.671 1.838-.064 3.7-.097 5.536-.097h.002m-.001-10c-1.954 0-3.918.034-5.888.104-18.289.644-36.045 4.006-53.207 10.271-45.942 16.772-83.79 45.262-116.525 81.035-6.242 6.82-6.163 13.838.133 20.719 5.729 6.262 11.49 12.541 17.722 18.285 23.191 21.381 48.399 39.951 76.956 53.646 25.458 12.211 52.143 19.441 80.567 19.441h.041c1.329-.068 2.658-.182 3.988-.201 19.595-.301 38.526-4.131 56.827-10.996 45.362-17.018 82.783-45.4 115.115-80.953 5.742-6.314 5.477-12.989-.088-19.462-9.42-10.96-19.889-20.827-30.967-30.077-19.754-16.494-40.73-31.141-64.004-42.306-25.593-12.277-52.307-19.506-80.67-19.506z"
            fill="#fff"/>
    </g>


</svg>
