<?xml version="1.0" encoding="iso-8859-1"?>
<!-- Generator: Adobe Illustrator 16.0.4, SVG Export Plug-In . SVG Version: 6.00 Build 0)  -->
<!DOCTYPE svg PUBLIC "-//W3C//DTD SVG 1.1//EN" "http://www.w3.org/Graphics/SVG/1.1/DTD/svg11.dtd">
<svg version="1.1" id="Layer_1" xmlns="http://www.w3.org/2000/svg" xmlns:xlink="http://www.w3.org/1999/xlink" x="0px" y="0px"
	 width="600px" height="250px" viewBox="0 0 600 250" style="enable-background:new 0 0 600 250;" xml:space="preserve">
<g>
	<g>
		<path style="fill-rule:evenodd;clip-rule:evenodd;" d="M300.034,37.478c39.976,0.028,72.548,32.673,72.466,72.708
			c-0.084,40.435-33.366,72.822-73.441,72.331c-38.949-0.478-72.104-32.581-71.551-73.556
			C228.034,70.174,259.497,37.711,300.034,37.478z M327.758,114.554c-1.028,8.614-2.044,17.141-3.021,25.325
			c8.739,2.541,17.598,5.118,26.626,7.743c7.081-9.634,11.176-20.704,12.135-33.068
			C351.424,114.554,339.494,114.554,327.758,114.554z M363.412,105.516c0.017-0.332,0.054-0.549,0.035-0.762
			c-1.017-11.518-4.83-22.012-11.471-31.483c-0.566-0.81-1.058-0.789-1.906-0.484c-4.312,1.552-8.605,3.17-12.995,4.466
			c-4.12,1.217-8.35,2.057-12.339,3.014c1.004,8.389,2.008,16.762,3.024,25.25C339.457,105.516,351.351,105.516,363.412,105.516z
			 M236.567,114.554c0,0.401-0.025,0.72,0.002,1.029c1.057,11.319,4.804,21.655,11.306,30.996c0.596,0.856,1.106,0.694,1.91,0.438
			c5.447-1.736,10.896-3.473,16.38-5.088c2.321-0.683,4.731-1.073,6.753-1.519c-1.048-8.747-2.072-17.276-3.099-25.856
			C258.902,114.554,247.781,114.554,236.567,114.554z M272.874,80.079c0.017,0.005-0.183-0.081-0.393-0.123
			c-7.942-1.517-15.716-3.626-23.215-6.678c-0.88-0.361-1.247,0.01-1.7,0.666c-4.977,7.245-8.345,15.173-10.023,23.797
			c-0.495,2.537-0.766,5.119-1.142,7.712c11.472,0,22.624,0,33.429,0C270.85,96.936,271.85,88.605,272.874,80.079z M318.557,114.606
			c-13.293,0-26.357,0-39.479,0c0.201,8.338,1.229,16.419,3.02,24.513c11.18-1.314,22.227-1.323,33.394-0.095
			C317.335,130.969,318.229,122.877,318.557,114.606z M279.097,105.486c13.206,0,26.281,0,39.459,0
			c-0.324-8.139-1.203-16.076-2.99-24.014c-11.264,1.244-22.401,1.213-33.567-0.083C280.3,89.453,279.232,97.367,279.097,105.486z
			 M313.377,72.831c-2.657-8.93-6.178-17.235-11.131-24.903c-1.533-2.375-5.421-2.316-6.979,0.094
			c-4.747,7.346-8.133,15.309-10.723,23.632c-0.104,0.332-0.075,0.707-0.115,1.121C294.078,73.802,303.605,73.831,313.377,72.831z
			 M313.269,147.659c-9.66-0.996-19.21-0.967-28.927,0.089c2.719,9.095,6.42,17.545,11.629,25.304
			c0.199,0.296,0.697,0.5,1.078,0.543c0.975,0.106,1.98,0.231,2.938,0.089c0.654-0.098,1.484-0.47,1.832-0.987
			C306.962,165.019,310.565,156.632,313.269,147.659z M322.695,71.476c5.192-0.528,18.995-4.372,22.417-6.327
			c-9.107-9.043-19.848-14.879-32.111-17.443C316.211,55.578,319.412,63.426,322.695,71.476z M312.967,172.364
			c12.205-2.591,22.823-8.303,31.951-17.273c-7.561-2.869-15.001-4.9-22.326-6.097C319.354,156.854,316.188,164.542,312.967,172.364
			z M274.816,71.685c3.296-8.142,6.389-15.784,9.457-23.36c-11.395,2.947-21.442,8.689-30.275,17.775
			C261.343,68.068,268.221,69.915,274.816,71.685z M275.049,149.104c-7.912,1.35-18.159,4.201-20.203,5.646
			c6.317,7.314,23.831,17.168,29.371,16.772C281.217,164.187,278.17,156.736,275.049,149.104z"/>
		<path style="fill-rule:evenodd;clip-rule:evenodd;fill:#FFFFFF;" d="M327.758,114.554c11.736,0,23.666,0,35.739,0
			c-0.959,12.364-5.054,23.435-12.135,33.068c-9.028-2.625-17.887-5.202-26.626-7.743
			C325.714,131.694,326.729,123.168,327.758,114.554z"/>
		<path style="fill-rule:evenodd;clip-rule:evenodd;fill:#FFFFFF;" d="M363.412,105.516c-12.062,0-23.955,0-35.651,0
			c-1.017-8.488-2.021-16.861-3.024-25.25c3.989-0.957,8.219-1.797,12.339-3.014c4.39-1.296,8.684-2.914,12.995-4.466
			c0.849-0.305,1.34-0.325,1.906,0.484c6.641,9.472,10.454,19.966,11.471,31.483C363.466,104.967,363.429,105.184,363.412,105.516z"
			/>
		<path style="fill-rule:evenodd;clip-rule:evenodd;fill:#FFFFFF;" d="M236.567,114.554c11.214,0,22.335,0,33.252,0
			c1.026,8.58,2.051,17.109,3.099,25.856c-2.021,0.445-4.432,0.836-6.753,1.519c-5.483,1.615-10.933,3.352-16.38,5.088
			c-0.804,0.257-1.314,0.419-1.91-0.438c-6.502-9.341-10.249-19.677-11.306-30.996C236.542,115.273,236.567,114.955,236.567,114.554
			z"/>
		<path style="fill-rule:evenodd;clip-rule:evenodd;fill:#FFFFFF;" d="M272.874,80.079c-1.024,8.526-2.024,16.856-3.044,25.374
			c-10.805,0-21.957,0-33.429,0c0.376-2.593,0.646-5.175,1.142-7.712c1.679-8.624,5.047-16.552,10.023-23.797
			c0.453-0.656,0.82-1.027,1.7-0.666c7.499,3.052,15.272,5.161,23.215,6.678C272.691,79.998,272.891,80.084,272.874,80.079z"/>
		<path style="fill-rule:evenodd;clip-rule:evenodd;fill:#FFFFFF;" d="M318.557,114.606c-0.327,8.271-1.222,16.362-3.065,24.418
			c-11.167-1.229-22.214-1.22-33.394,0.095c-1.791-8.094-2.818-16.175-3.02-24.513C292.199,114.606,305.264,114.606,318.557,114.606
			z"/>
		<path style="fill-rule:evenodd;clip-rule:evenodd;fill:#FFFFFF;" d="M279.097,105.486c0.136-8.119,1.203-16.033,2.901-24.097
			c11.166,1.296,22.304,1.327,33.567,0.083c1.787,7.938,2.666,15.875,2.99,24.014C305.378,105.486,292.303,105.486,279.097,105.486z
			"/>
		<path style="fill-rule:evenodd;clip-rule:evenodd;fill:#FFFFFF;" d="M313.377,72.831c-9.771,1-19.299,0.971-28.947-0.057
			c0.04-0.414,0.012-0.789,0.115-1.121c2.59-8.323,5.976-16.286,10.723-23.632c1.558-2.41,5.445-2.469,6.979-0.094
			C307.199,55.596,310.72,63.901,313.377,72.831z"/>
		<path style="fill-rule:evenodd;clip-rule:evenodd;fill:#FFFFFF;" d="M313.269,147.659c-2.703,8.973-6.307,17.359-11.45,25.037
			c-0.348,0.518-1.178,0.89-1.832,0.987c-0.957,0.143-1.963,0.018-2.938-0.089c-0.381-0.043-0.879-0.247-1.078-0.543
			c-5.209-7.759-8.91-16.209-11.629-25.304C294.059,146.692,303.608,146.663,313.269,147.659z"/>
		<path style="fill-rule:evenodd;clip-rule:evenodd;fill:#FFFFFF;" d="M322.695,71.476c-3.283-8.05-6.484-15.897-9.694-23.771
			c12.264,2.564,23.004,8.4,32.111,17.443C341.69,67.104,327.888,70.947,322.695,71.476z"/>
		<path style="fill-rule:evenodd;clip-rule:evenodd;fill:#FFFFFF;" d="M312.967,172.364c3.222-7.822,6.388-15.511,9.625-23.37
			c7.325,1.196,14.766,3.228,22.326,6.097C335.79,164.062,325.172,169.773,312.967,172.364z"/>
		<path style="fill-rule:evenodd;clip-rule:evenodd;fill:#FFFFFF;" d="M274.816,71.685c-6.596-1.77-13.474-3.616-20.818-5.585
			c8.833-9.086,18.881-14.828,30.275-17.775C281.205,55.9,278.112,63.543,274.816,71.685z"/>
		<path style="fill-rule:evenodd;clip-rule:evenodd;fill:#FFFFFF;" d="M275.049,149.104c3.121,7.633,6.168,15.083,9.168,22.418
			c-5.54,0.396-23.054-9.458-29.371-16.772C256.89,153.305,267.137,150.453,275.049,149.104z"/>
	</g>
	<g>
		<path d="M299.952,216.251h-0.041c-27.63,0-54.62-6.504-82.513-19.883c-26.729-12.82-52.263-30.613-78.06-54.396
			c-6.473-5.967-12.592-12.656-17.991-18.557c-7.834-8.562-7.882-18.328-0.133-26.795c36.093-39.444,74.79-66.34,118.302-82.225
			c17.334-6.328,35.702-9.875,54.59-10.541c2.008-0.07,4.042-0.106,6.047-0.106c27.61,0,54.635,6.525,82.617,19.95
			c21.436,10.283,42.678,24.318,64.941,42.908c12.385,10.341,22.688,20.35,31.496,30.598c7.141,8.308,7.142,17.574,0.004,25.423
			c-35.57,39.114-73.797,65.982-116.863,82.139c-19.154,7.187-38.782,10.982-58.339,11.282c-0.832,0.013-1.659,0.066-2.487,0.117
			c-0.446,0.028-0.893,0.056-1.339,0.079L299.952,216.251z M299.911,210.968v0.783l0.005-0.67L299.911,210.968z M300.152,12.749
			c-1.9,0-3.827,0.034-5.729,0.101c-17.94,0.633-35.376,3.998-51.821,10.002c-42.12,15.376-79.654,41.494-114.748,79.846
			c-4.649,5.08-4.61,9.46,0.133,14.643c5.536,6.051,11.261,12.308,17.452,18.016c25.13,23.167,49.941,40.471,75.851,52.897
			c26.626,12.771,52.319,18.986,78.544,18.998c0.376-0.021,0.751-0.044,1.127-0.067c0.938-0.059,1.905-0.118,2.912-0.133
			c18.519-0.285,37.129-3.888,55.312-10.71c41.698-15.644,78.781-41.735,113.367-79.768c4.064-4.471,4.012-8.634-0.171-13.501
			c-8.482-9.869-18.438-19.537-30.438-29.557C420.26,55.41,399.63,41.77,378.877,31.812
			C352.136,18.984,326.385,12.749,300.152,12.749z"/>
	</g>
</g>
</svg>
