<?xml version="1.0" encoding="iso-8859-1"?>
<!-- Generator: Adobe Illustrator 16.0.4, SVG Export Plug-In . SVG Version: 6.00 Build 0)  -->
<!DOCTYPE svg PUBLIC "-//W3C//DTD SVG 1.1//EN" "http://www.w3.org/Graphics/SVG/1.1/DTD/svg11.dtd">
<svg version="1.1" id="Layer_1" xmlns="http://www.w3.org/2000/svg" xmlns:xlink="http://www.w3.org/1999/xlink" x="0px" y="0px"
	 width="400px" height="210px" viewBox="0 0 400 210" style="enable-background:new 0 0 400 210;" xml:space="preserve">
<path style="fill:#FFFFFF;" d="M200.592,12.89c25.39,0,50.362,6.059,76.344,18.523c20.337,9.756,40.591,23.156,61.92,40.965
	c11.765,9.824,21.51,19.283,29.792,28.92c1.719,1.999,1.865,3.113,1.869,3.407c0.009,0.65-0.588,1.701-1.596,2.808
	c-33.984,37.371-70.368,62.99-111.229,78.318c-17.591,6.6-35.58,10.086-53.461,10.359c-1.138,0.018-2.219,0.084-3.173,0.145
	c-0.312,0.02-0.623,0.039-0.934,0.057c-25.333-0.035-50.201-6.074-76.019-18.457c-25.411-12.188-49.78-29.191-74.502-51.982
	c-6.019-5.549-11.663-11.719-17.122-17.686c-1.337-1.461-2.14-2.847-2.146-3.707c-0.006-0.813,0.746-2.125,2.013-3.51
	c34.482-37.684,71.307-63.326,112.577-78.392c15.901-5.806,32.767-9.06,50.129-9.671c1.838-0.064,3.7-0.097,5.536-0.097H200.592
	 M200.591,2.89c-1.954,0-3.918,0.034-5.888,0.104C176.414,3.638,158.658,7,141.496,13.265C95.554,30.037,57.706,58.527,24.971,94.3
	c-6.242,6.82-6.163,13.838,0.133,20.719c5.729,6.262,11.49,12.541,17.722,18.285c23.191,21.381,48.399,39.951,76.956,53.646
	c25.458,12.211,52.143,19.441,80.567,19.441c0.012,0,0.028,0,0.041,0c1.329-0.068,2.658-0.182,3.988-0.201
	c19.595-0.301,38.526-4.131,56.827-10.996c45.362-17.018,82.783-45.4,115.115-80.953c5.742-6.314,5.477-12.989-0.088-19.462
	c-9.42-10.96-19.889-20.827-30.967-30.077c-19.754-16.494-40.73-31.141-64.004-42.306C255.668,10.119,228.954,2.89,200.591,2.89
	L200.591,2.89z"/>
<path style="fill-rule:evenodd;clip-rule:evenodd;fill:#FFFFFF;" d="M228.185,109.195c11.736,0,23.666,0,35.739,0
	c-0.959,12.363-5.054,23.434-12.135,33.068c-9.028-2.625-17.887-5.203-26.626-7.744
	C226.141,126.336,227.156,117.809,228.185,109.195z"/>
<path style="fill-rule:evenodd;clip-rule:evenodd;fill:#FFFFFF;" d="M263.839,100.156c-12.062,0-23.955,0-35.651,0
	c-1.017-8.487-2.021-16.86-3.024-25.25c3.989-0.957,8.219-1.797,12.339-3.013c4.39-1.296,8.684-2.915,12.995-4.467
	c0.849-0.305,1.34-0.325,1.906,0.485c6.641,9.471,10.454,19.965,11.471,31.482C263.893,99.607,263.855,99.825,263.839,100.156z"/>
<path style="fill-rule:evenodd;clip-rule:evenodd;fill:#FFFFFF;" d="M136.994,109.195c11.214,0,22.335,0,33.252,0
	c1.027,8.58,2.051,17.109,3.099,25.855c-2.021,0.445-4.431,0.836-6.753,1.52c-5.483,1.615-10.933,3.352-16.379,5.088
	c-0.804,0.256-1.315,0.418-1.911-0.438c-6.502-9.342-10.249-19.678-11.306-30.996C136.969,109.914,136.994,109.596,136.994,109.195z
	"/>
<path style="fill-rule:evenodd;clip-rule:evenodd;fill:#FFFFFF;" d="M173.301,74.72c-1.024,8.527-2.024,16.856-3.044,25.375
	c-10.805,0-21.957,0-33.428,0c0.376-2.593,0.646-5.175,1.141-7.712c1.679-8.624,5.047-16.551,10.023-23.797
	c0.454-0.656,0.82-1.028,1.7-0.667c7.499,3.053,15.273,5.161,23.215,6.678C173.118,74.639,173.317,74.725,173.301,74.72z"/>
<path style="fill-rule:evenodd;clip-rule:evenodd;fill:#FFFFFF;" d="M218.983,109.248c-0.327,8.27-1.222,16.361-3.065,24.418
	c-11.167-1.229-22.214-1.221-33.393,0.094c-1.791-8.094-2.819-16.174-3.021-24.512C192.626,109.248,205.69,109.248,218.983,109.248z
	"/>
<path style="fill-rule:evenodd;clip-rule:evenodd;fill:#FFFFFF;" d="M179.523,100.127c0.135-8.118,1.203-16.033,2.902-24.096
	c11.166,1.296,22.303,1.328,33.567,0.083c1.787,7.938,2.666,15.875,2.99,24.013C205.805,100.127,192.729,100.127,179.523,100.127z"
	/>
<path style="fill-rule:evenodd;clip-rule:evenodd;fill:#FFFFFF;" d="M213.804,67.473c-9.771,1-19.299,0.97-28.947-0.058
	c0.04-0.414,0.011-0.789,0.115-1.12c2.589-8.323,5.975-16.286,10.723-23.632c1.557-2.41,5.446-2.469,6.978-0.094
	C207.626,50.237,211.146,58.542,213.804,67.473z"/>
<path style="fill-rule:evenodd;clip-rule:evenodd;fill:#FFFFFF;" d="M213.695,142.301c-2.703,8.973-6.307,17.359-11.45,25.037
	c-0.348,0.518-1.177,0.889-1.833,0.986c-0.956,0.143-1.962,0.018-2.937-0.088c-0.381-0.043-0.879-0.248-1.079-0.543
	c-5.209-7.76-8.91-16.209-11.628-25.305C194.485,141.334,204.035,141.305,213.695,142.301z"/>
<path style="fill-rule:evenodd;clip-rule:evenodd;fill:#FFFFFF;" d="M223.122,66.117c-3.283-8.049-6.484-15.897-9.694-23.77
	c12.264,2.563,23.004,8.399,32.111,17.442C242.117,61.744,228.314,65.588,223.122,66.117z"/>
<path style="fill-rule:evenodd;clip-rule:evenodd;fill:#FFFFFF;" d="M213.394,167.006c3.222-7.822,6.388-15.512,9.625-23.371
	c7.325,1.197,14.766,3.229,22.326,6.098C236.217,158.703,225.599,164.414,213.394,167.006z"/>
<path style="fill-rule:evenodd;clip-rule:evenodd;fill:#FFFFFF;" d="M175.244,66.325c-6.596-1.769-13.474-3.615-20.818-5.584
	c8.833-9.086,18.88-14.828,30.274-17.776C181.632,50.542,178.539,58.185,175.244,66.325z"/>
<path style="fill-rule:evenodd;clip-rule:evenodd;fill:#FFFFFF;" d="M175.475,143.744c3.122,7.633,6.168,15.084,9.169,22.418
	c-5.541,0.396-23.054-9.457-29.372-16.771C157.316,147.945,167.564,145.094,175.475,143.744z"/>

</svg>
