<?xml version="1.0" encoding="iso-8859-1"?>
<!-- Generator: Adobe Illustrator 16.0.4, SVG Export Plug-In . SVG Version: 6.00 Build 0)  -->
<!DOCTYPE svg PUBLIC "-//W3C//DTD SVG 1.1//EN" "http://www.w3.org/Graphics/SVG/1.1/DTD/svg11.dtd">
<svg version="1.1" id="Layer_1" xmlns="http://www.w3.org/2000/svg" xmlns:xlink="http://www.w3.org/1999/xlink" x="0px" y="0px"
	 width="400px" height="300px" viewBox="0 0 400 300" style="enable-background:new 0 0 400 300;" xml:space="preserve">
<path d="M200.39,252.751c-28.438,0.007-55.139-7.226-80.608-19.44c-28.556-13.695-53.765-32.267-76.956-53.646
	c-6.232-5.745-11.993-12.024-17.722-18.286c-6.296-6.881-6.375-13.898-0.133-20.719c32.734-35.773,70.583-64.264,116.525-81.035
	c17.162-6.266,34.917-9.627,53.207-10.271c30.562-1.076,59.201,6.279,86.559,19.403c23.273,11.165,44.25,25.812,64.004,42.306
	c11.078,9.25,21.547,19.117,30.967,30.078c5.564,6.474,5.83,13.146,0.088,19.461c-32.331,35.555-69.752,63.937-115.114,80.953
	c-18.301,6.866-37.231,10.695-56.827,10.996C203.048,252.568,201.719,252.684,200.39,252.751z"/>
<path style="fill:#FFFFFF;" d="M228.186,155.555c11.735,0,23.666,0,35.738,0c-0.959,12.363-5.054,23.435-12.135,33.067
	c-9.027-2.625-17.887-5.202-26.626-7.743C226.141,172.693,227.156,164.168,228.186,155.555z"/>
<path style="fill:#FFFFFF;" d="M263.839,146.515c-12.062,0-23.955,0-35.651,0c-1.017-8.487-2.021-16.86-3.023-25.25
	c3.988-0.957,8.219-1.797,12.339-3.013c4.39-1.296,8.685-2.915,12.995-4.467c0.85-0.305,1.34-0.325,1.906,0.485
	c6.641,9.471,10.453,19.965,11.471,31.482C263.893,145.966,263.855,146.184,263.839,146.515z"/>
<path style="fill:#FFFFFF;" d="M136.994,155.555c11.214,0,22.335,0,33.252,0c1.027,8.579,2.051,17.108,3.099,25.855
	c-2.021,0.445-4.431,0.836-6.753,1.52c-5.483,1.614-10.933,3.352-16.379,5.088c-0.804,0.256-1.315,0.418-1.911-0.438
	c-6.502-9.341-10.249-19.677-11.306-30.996C136.969,156.273,136.994,155.955,136.994,155.555z"/>
<path style="fill:#FFFFFF;" d="M173.301,121.079c-1.024,8.527-2.024,16.856-3.044,25.375c-10.805,0-21.957,0-33.428,0
	c0.376-2.593,0.646-5.175,1.141-7.712c1.679-8.624,5.047-16.551,10.023-23.797c0.454-0.656,0.82-1.028,1.7-0.667
	c7.499,3.053,15.273,5.161,23.215,6.678C173.118,120.998,173.317,121.083,173.301,121.079z"/>
<path style="fill:#FFFFFF;" d="M218.982,155.605c-0.326,8.271-1.221,16.362-3.064,24.418c-11.167-1.229-22.214-1.219-33.393,0.096
	c-1.791-8.094-2.819-16.176-3.021-24.514C192.626,155.605,205.689,155.605,218.982,155.605z"/>
<path style="fill:#FFFFFF;" d="M179.523,146.486c0.135-8.118,1.203-16.033,2.902-24.096c11.166,1.296,22.304,1.328,33.567,0.083
	c1.787,7.938,2.666,15.875,2.99,24.013C205.805,146.486,192.729,146.486,179.523,146.486z"/>
<path style="fill:#FFFFFF;" d="M213.805,113.832c-9.771,1-19.3,0.97-28.948-0.058c0.04-0.414,0.011-0.789,0.115-1.12
	c2.589-8.323,5.975-16.286,10.723-23.632c1.557-2.41,5.446-2.469,6.978-0.094C207.626,96.596,211.146,104.901,213.805,113.832z"/>
<path style="fill:#FFFFFF;" d="M213.695,188.659c-2.703,8.973-6.307,17.358-11.45,25.036c-0.349,0.519-1.177,0.891-1.833,0.988
	c-0.956,0.143-1.962,0.018-2.937-0.09c-0.381-0.043-0.879-0.246-1.079-0.543c-5.209-7.759-8.91-16.209-11.628-25.304
	C194.485,187.691,204.035,187.663,213.695,188.659z"/>
<path style="fill:#FFFFFF;" d="M223.122,112.476c-3.283-8.049-6.483-15.897-9.694-23.77c12.264,2.563,23.004,8.399,32.111,17.442
	C242.117,108.103,228.314,111.947,223.122,112.476z"/>
<path style="fill:#FFFFFF;" d="M213.395,213.363c3.222-7.821,6.388-15.51,9.625-23.369c7.324,1.195,14.766,3.229,22.326,6.097
	C236.217,205.062,225.6,210.773,213.395,213.363z"/>
<path style="fill:#FFFFFF;" d="M175.244,112.684c-6.596-1.769-13.474-3.615-20.818-5.584c8.833-9.086,18.88-14.828,30.274-17.776
	C181.632,96.901,178.539,104.543,175.244,112.684z"/>
<path style="fill:#FFFFFF;" d="M175.475,190.104c3.122,7.633,6.168,15.084,9.169,22.418c-5.541,0.396-23.054-9.457-29.372-16.771
	C157.316,194.305,167.564,191.453,175.475,190.104z"/>
</svg>
