<?xml version="1.0" encoding="iso-8859-1"?>
<!-- Generator: Adobe Illustrator 16.0.4, SVG Export Plug-In . SVG Version: 6.00 Build 0)  -->
<!DOCTYPE svg PUBLIC "-//W3C//DTD SVG 1.1//EN" "http://www.w3.org/Graphics/SVG/1.1/DTD/svg11.dtd">
<svg version="1.1" id="Layer_1" xmlns="http://www.w3.org/2000/svg" xmlns:xlink="http://www.w3.org/1999/xlink" x="0px" y="0px"
	 width="33px" height="700px" viewBox="0 0 33 700" style="enable-background:new 0 0 33 700;" xml:space="preserve">
<g>
	<path d="M-59.698,16.418c0,2.644-0.305,4.974-0.914,6.989c-0.61,2.016-1.486,3.703-2.63,5.062c-1.144,1.36-2.541,2.386-4.19,3.08
		c-1.649,0.693-3.507,1.041-5.568,1.041c-2.044,0-3.892-0.347-5.541-1.041c-1.649-0.694-3.052-1.72-4.205-3.08
		c-1.152-1.359-2.044-3.047-2.672-5.062c-0.629-2.015-0.942-4.346-0.942-6.989V6.631c0-2.644,0.31-4.974,0.928-6.989
		c0.618-2.016,1.505-3.703,2.658-5.062c1.152-1.359,2.549-2.386,4.19-3.08c1.641-0.693,3.482-1.041,5.526-1.041
		c2.062,0,3.918,0.348,5.568,1.041c1.649,0.693,3.051,1.72,4.205,3.08c1.152,1.36,2.039,3.047,2.657,5.062S-59.7,3.988-59.7,6.631
		v9.787H-59.698z M-78.485,13.044l10.913-8.128c-0.057-2.756-0.535-4.8-1.435-6.131c-0.9-1.331-2.25-1.997-4.05-1.997
		c-1.818,0-3.179,0.703-4.078,2.109c-0.9,1.407-1.351,3.572-1.351,6.497V13.044z M-67.573,10.231l-10.912,8.1
		c0.094,2.7,0.591,4.702,1.49,6.005c0.9,1.303,2.231,1.955,3.994,1.955c1.837,0,3.201-0.713,4.092-2.138s1.336-3.61,1.336-6.553
		V10.231z"/>
	<path d="M-67.208,88h-7.902V56.584l-10.351,3.713V53.49l17.832-6.44h0.421V88z"/>
	<path d="M-59.584,144h-27.929v-5.344l13.247-14.231c1.031-1.125,1.903-2.147,2.616-3.065c0.713-0.918,1.289-1.758,1.729-2.517
		s0.76-1.466,0.956-2.123c0.197-0.656,0.296-1.293,0.296-1.913c0-0.918-0.132-1.734-0.394-2.447
		c-0.264-0.713-0.633-1.317-1.111-1.814c-0.479-0.497-1.051-0.876-1.717-1.139c-0.665-0.263-1.401-0.394-2.207-0.394
		c-2.156,0-3.766,0.6-4.824,1.8s-1.588,2.878-1.588,5.034h-7.848c0-1.818,0.348-3.539,1.041-5.161s1.674-3.042,2.939-4.261
		c1.266-1.218,2.793-2.18,4.584-2.883c1.79-0.703,3.772-1.054,5.948-1.054c2.082,0,3.923,0.291,5.526,0.872
		c1.604,0.582,2.943,1.396,4.021,2.447c1.079,1.05,1.898,2.311,2.461,3.783c0.562,1.472,0.844,3.098,0.844,4.88
		c0,1.35-0.211,2.639-0.633,3.867c-0.421,1.228-1.021,2.442-1.8,3.642c-0.778,1.2-1.711,2.423-2.798,3.67
		c-1.088,1.248-2.297,2.555-3.628,3.923l-7.707,8.156h17.973V144z"/>
	<path d="M-78.485,176.094h4.247c2.138,0,3.722-0.539,4.753-1.617c1.031-1.078,1.547-2.488,1.547-4.232
		c0-0.806-0.116-1.542-0.351-2.208s-0.587-1.238-1.055-1.716c-0.469-0.478-1.064-0.848-1.785-1.111
		c-0.722-0.263-1.562-0.394-2.518-0.394c-0.787,0-1.522,0.113-2.208,0.337c-0.685,0.225-1.284,0.549-1.8,0.97
		c-0.516,0.422-0.924,0.933-1.223,1.533c-0.301,0.6-0.45,1.275-0.45,2.024h-7.82c0-1.668,0.341-3.187,1.026-4.556
		c0.684-1.368,1.626-2.546,2.826-3.53s2.611-1.748,4.232-2.292c1.622-0.544,3.371-0.816,5.246-0.816
		c2.024,0,3.882,0.249,5.568,0.746c1.688,0.497,3.132,1.237,4.331,2.222c1.2,0.984,2.133,2.203,2.799,3.656s0.998,3.136,0.998,5.049
		c0,0.882-0.131,1.749-0.394,2.602c-0.263,0.854-0.646,1.664-1.152,2.433c-0.507,0.769-1.135,1.477-1.884,2.124
		c-0.751,0.647-1.613,1.205-2.588,1.673c1.144,0.413,2.133,0.938,2.968,1.575c0.833,0.638,1.523,1.364,2.067,2.18
		s0.946,1.711,1.209,2.686c0.263,0.975,0.394,2.006,0.394,3.094c0,1.913-0.365,3.618-1.097,5.118s-1.734,2.761-3.01,3.783
		c-1.274,1.022-2.788,1.8-4.542,2.334c-1.754,0.535-3.643,0.802-5.667,0.802c-1.744,0-3.446-0.239-5.105-0.717
		s-3.136-1.2-4.43-2.166c-1.293-0.966-2.33-2.18-3.107-3.643c-0.778-1.462-1.167-3.187-1.167-5.175h7.818
		c0,0.787,0.15,1.515,0.449,2.18c0.3,0.666,0.727,1.238,1.28,1.716c0.553,0.479,1.204,0.854,1.954,1.125
		c0.75,0.272,1.575,0.408,2.476,0.408c1.987,0,3.544-0.524,4.669-1.575c1.124-1.049,1.687-2.475,1.687-4.275
		c0-1.106-0.159-2.053-0.479-2.841c-0.319-0.787-0.783-1.435-1.392-1.941c-0.609-0.506-1.341-0.881-2.193-1.125
		c-0.854-0.243-1.814-0.365-2.884-0.365h-4.247L-78.485,176.094L-78.485,176.094z"/>
	<path d="M-63.523,240.784h4.753v6.328h-4.753V256h-7.818v-8.887h-17.016l-0.31-4.894l17.213-27.169h7.931V240.784z
		 M-80.988,240.784h9.646v-15.216l-0.76,1.351L-80.988,240.784z"/>
	<path d="M-85.966,291.834l2.334-20.783h22.725v6.637h-16.283l-0.984,9c0.581-0.337,1.406-0.684,2.476-1.04
		c1.068-0.357,2.297-0.534,3.684-0.534c1.969,0,3.727,0.313,5.273,0.942c1.548,0.628,2.85,1.532,3.91,2.714
		c1.059,1.182,1.87,2.625,2.433,4.331c0.562,1.707,0.844,3.638,0.844,5.794c0,1.838-0.271,3.581-0.816,5.231
		c-0.544,1.649-1.378,3.103-2.503,4.358c-1.125,1.257-2.541,2.25-4.247,2.982c-1.706,0.73-3.723,1.097-6.047,1.097
		c-1.763,0-3.464-0.263-5.105-0.787c-1.641-0.525-3.098-1.294-4.373-2.307s-2.312-2.255-3.108-3.727
		c-0.798-1.472-1.223-3.154-1.279-5.049h7.706c0.188,1.781,0.829,3.159,1.927,4.135c1.097,0.975,2.498,1.462,4.204,1.462
		c1.05,0,1.945-0.196,2.686-0.59c0.741-0.394,1.34-0.938,1.801-1.632c0.459-0.693,0.796-1.519,1.013-2.475
		c0.215-0.956,0.323-1.987,0.323-3.094c0-1.087-0.137-2.086-0.408-2.995c-0.272-0.91-0.689-1.692-1.251-2.349
		c-0.562-0.657-1.266-1.163-2.11-1.519c-0.844-0.356-1.837-0.535-2.981-0.535c-0.769,0-1.435,0.066-1.997,0.197
		c-0.562,0.131-1.059,0.3-1.49,0.507c-0.432,0.206-0.815,0.445-1.152,0.717c-0.337,0.271-0.657,0.558-0.956,0.857L-85.966,291.834z"
		/>
	<path d="M-65.604,326.713v6.497h-0.45c-2.062,0-3.885,0.271-5.47,0.815s-2.935,1.312-4.05,2.307
		c-1.116,0.993-1.997,2.184-2.644,3.572c-0.647,1.388-1.055,2.934-1.224,4.641c0.432-0.469,0.928-0.933,1.49-1.393
		c0.562-0.459,1.195-0.871,1.898-1.237c0.703-0.365,1.467-0.661,2.292-0.886s1.716-0.337,2.672-0.337c1.95,0,3.651,0.37,5.105,1.11
		c1.452,0.741,2.667,1.744,3.642,3.01s1.702,2.738,2.181,4.416c0.479,1.679,0.717,3.446,0.717,5.302
		c0,1.987-0.319,3.835-0.956,5.541c-0.638,1.706-1.547,3.188-2.729,4.444c-1.181,1.256-2.615,2.245-4.303,2.967
		s-3.582,1.083-5.682,1.083c-2.193,0-4.172-0.408-5.935-1.223c-1.763-0.816-3.259-1.946-4.485-3.39
		c-1.229-1.443-2.176-3.154-2.841-5.132c-0.666-1.979-0.999-4.14-0.999-6.483v-3.01c0-3.244,0.44-6.249,1.322-9.015
		s2.193-5.156,3.938-7.172s3.909-3.591,6.497-4.725c2.587-1.135,5.578-1.702,8.972-1.702h1.04V326.713z M-73.367,346.963
		c-1.406,0-2.648,0.375-3.727,1.124c-1.078,0.751-1.889,1.716-2.433,2.897v2.306c0,1.5,0.154,2.813,0.464,3.938
		c0.31,1.125,0.746,2.058,1.309,2.799s1.228,1.299,1.996,1.674c0.77,0.375,1.604,0.562,2.504,0.562c0.918,0,1.753-0.192,2.503-0.577
		c0.75-0.384,1.388-0.914,1.913-1.589c0.524-0.675,0.928-1.477,1.209-2.404c0.282-0.929,0.422-1.946,0.422-3.052
		s-0.141-2.128-0.422-3.065c-0.28-0.938-0.685-1.749-1.209-2.433c-0.525-0.685-1.168-1.219-1.927-1.604
		S-72.392,346.963-73.367,346.963z"/>
	<path d="M-59.613,387.409L-75.56,424h-8.241l15.976-34.565h-20.56v-6.384h28.772V387.409z"/>
	<path d="M-60.654,449.935c0,1.987-0.502,3.754-1.505,5.302c-1.003,1.547-2.377,2.779-4.12,3.698
		c1.987,0.938,3.567,2.249,4.739,3.938c1.172,1.688,1.758,3.665,1.758,5.935c0,1.931-0.352,3.628-1.055,5.09
		c-0.703,1.463-1.669,2.686-2.896,3.671c-1.228,0.983-2.677,1.729-4.346,2.235c-1.669,0.507-3.469,0.76-5.399,0.76
		c-1.951,0-3.766-0.253-5.443-0.76c-1.678-0.506-3.136-1.251-4.373-2.235c-1.237-0.985-2.208-2.208-2.911-3.671
		c-0.703-1.462-1.055-3.159-1.055-5.09c0-1.125,0.154-2.189,0.464-3.192s0.746-1.921,1.309-2.756
		c0.562-0.834,1.241-1.584,2.039-2.25c0.797-0.665,1.691-1.232,2.686-1.701c-1.744-0.9-3.113-2.123-4.106-3.671
		c-0.994-1.547-1.49-3.313-1.49-5.301c0-1.856,0.318-3.492,0.956-4.908c0.637-1.416,1.523-2.611,2.657-3.586
		c1.135-0.975,2.484-1.711,4.05-2.208s3.276-0.745,5.133-0.745c1.855,0,3.572,0.248,5.147,0.745s2.938,1.233,4.092,2.208
		c1.152,0.976,2.053,2.171,2.7,3.586C-60.978,446.442-60.654,448.078-60.654,449.935z M-67.628,468.272
		c0-0.938-0.142-1.782-0.422-2.531c-0.281-0.75-0.68-1.393-1.195-1.927s-1.135-0.942-1.856-1.224s-1.532-0.421-2.433-0.421
		c-0.899,0-1.711,0.141-2.433,0.421c-0.722,0.282-1.336,0.689-1.843,1.224c-0.506,0.534-0.899,1.177-1.182,1.927
		c-0.281,0.749-0.421,1.593-0.421,2.531c0,1.875,0.534,3.347,1.603,4.416c1.069,1.068,2.514,1.603,4.332,1.603
		c0.862,0,1.649-0.136,2.362-0.408c0.713-0.271,1.326-0.67,1.842-1.194c0.517-0.525,0.919-1.158,1.21-1.898
		C-67.775,470.049-67.628,469.21-67.628,468.272z M-68.444,450.3c0-0.824-0.123-1.575-0.366-2.249
		c-0.244-0.676-0.586-1.252-1.026-1.73c-0.44-0.478-0.975-0.849-1.603-1.11c-0.629-0.263-1.336-0.394-2.123-0.394
		c-1.594,0-2.823,0.486-3.685,1.462c-0.862,0.976-1.294,2.316-1.294,4.021c0,0.825,0.113,1.58,0.338,2.265
		c0.225,0.684,0.558,1.27,0.998,1.757s0.975,0.867,1.604,1.14c0.628,0.271,1.336,0.408,2.123,0.408s1.49-0.137,2.11-0.408
		c0.619-0.272,1.143-0.651,1.575-1.14c0.431-0.487,0.764-1.073,0.998-1.757C-68.562,451.88-68.444,451.125-68.444,450.3z"/>
	<path d="M-80.988,529.784c2.1,0,3.918-0.225,5.456-0.676c1.536-0.449,2.826-1.102,3.867-1.954c1.04-0.853,1.846-1.894,2.418-3.121
		c0.572-1.229,0.942-2.62,1.111-4.177c-0.787,0.787-1.8,1.462-3.038,2.024c-1.237,0.562-2.737,0.844-4.5,0.844
		c-1.95,0-3.666-0.355-5.146-1.068c-1.481-0.713-2.725-1.688-3.727-2.925c-1.003-1.238-1.763-2.695-2.278-4.374
		c-0.517-1.678-0.773-3.483-0.773-5.414c0-1.987,0.313-3.857,0.942-5.611c0.628-1.753,1.532-3.285,2.714-4.599
		c1.182-1.312,2.611-2.349,4.289-3.107c1.678-0.76,3.567-1.14,5.667-1.14c2.138,0,4.06,0.413,5.766,1.237
		c1.706,0.825,3.154,1.979,4.346,3.46c1.19,1.481,2.1,3.243,2.729,5.287c0.628,2.044,0.941,4.283,0.941,6.722v2.699
		c0,3.263-0.402,6.263-1.209,9c-0.807,2.738-2.053,5.105-3.741,7.102c-1.688,1.997-3.834,3.554-6.44,4.669
		c-2.606,1.116-5.72,1.674-9.338,1.674h-0.59v-6.553L-80.988,529.784L-80.988,529.784z M-73.816,516.679
		c0.713,0,1.373-0.104,1.983-0.31c0.608-0.207,1.162-0.492,1.659-0.858c0.496-0.365,0.928-0.796,1.293-1.293
		c0.366-0.497,0.661-1.036,0.886-1.617v-2.784c0-1.5-0.154-2.812-0.464-3.938s-0.736-2.062-1.28-2.812s-1.182-1.312-1.912-1.688
		c-0.731-0.374-1.519-0.562-2.362-0.562c-0.919,0-1.739,0.221-2.461,0.661s-1.327,1.031-1.814,1.772
		c-0.488,0.74-0.862,1.593-1.125,2.559c-0.264,0.966-0.394,1.974-0.394,3.023s0.121,2.053,0.365,3.01
		c0.243,0.956,0.614,1.79,1.111,2.503s1.12,1.28,1.87,1.702C-75.71,516.467-74.829,516.679-73.816,516.679z"/>
</g>
<g>
	<g>
		<path d="M-11,701v68h-29.333v-68H-11 M-10,700h-31.333v70H-10V700L-10,700z"/>
	</g>
	<g>
		<path d="M-11,631v68h-29.333v-68H-11 M-10,630h-31.333v70H-10V630L-10,630z"/>
	</g>
	<g>
		<path d="M-11,561v68h-29.333v-68H-11 M-10,560h-31.333v70H-10V560L-10,560z"/>
	</g>
	<g>
		<path d="M-11,491v68h-29.333v-68H-11 M-10,490h-31.333v70H-10V490L-10,490z"/>
	</g>
	<g>
		<path d="M-11,421v68h-29.333v-68H-11 M-10,420h-31.333v70H-10V420L-10,420z"/>
	</g>
	<g>
		<path d="M-11,351v68h-29.333v-68H-11 M-10,350h-31.333v70H-10V350L-10,350z"/>
	</g>
	<g>
		<path d="M-11,281v68h-29.333v-68H-11 M-10,280h-31.333v70H-10V280L-10,280z"/>
	</g>
	<g>
		<path d="M-11,211v68h-29.333v-68H-11 M-10,210h-31.333v70H-10V210L-10,210z"/>
	</g>
	<g>
		<path d="M-11,141v68h-29.333v-68H-11 M-10,140h-31.333v70H-10V140L-10,140z"/>
	</g>
	<g>
		<path d="M-11,71v68h-29.333V71H-11 M-10,70h-31.333v70H-10V70L-10,70z"/>
	</g>
	<g>
		<path d="M-11,1v68h-29.333V1H-11 M-10,0h-31.333v70H-10V0L-10,0z"/>
	</g>
</g>
<g>
	<g>
		<path d="M31.904,52.961c0,2.754-0.318,5.181-0.952,7.28c-0.635,2.1-1.548,3.857-2.739,5.273c-1.191,1.417-2.647,2.486-4.365,3.208
			c-1.719,0.722-3.652,1.084-5.801,1.084c-2.129,0-4.053-0.362-5.771-1.084c-1.719-0.722-3.179-1.792-4.38-3.208
			c-1.201-1.416-2.129-3.174-2.783-5.273c-0.655-2.099-0.981-4.526-0.981-7.28V42.766c0-2.754,0.322-5.181,0.967-7.28
			c0.645-2.099,1.567-3.857,2.769-5.273c1.201-1.416,2.656-2.485,4.365-3.208c1.709-0.722,3.628-1.084,5.757-1.084
			c2.148,0,4.082,0.362,5.801,1.084c1.718,0.723,3.179,1.792,4.38,3.208c1.201,1.417,2.124,3.174,2.769,5.273
			c0.645,2.1,0.967,4.526,0.967,7.28V52.961z M12.334,49.445l11.367-8.467c-0.059-2.871-0.557-5-1.494-6.387
			c-0.938-1.387-2.344-2.08-4.219-2.08c-1.895,0-3.311,0.732-4.248,2.197s-1.406,3.721-1.406,6.768V49.445z M23.701,46.516
			l-11.367,8.438c0.098,2.812,0.615,4.897,1.553,6.255c0.938,1.358,2.324,2.036,4.16,2.036c1.914,0,3.335-0.742,4.263-2.227
			c0.927-1.484,1.392-3.76,1.392-6.826V46.516z"/>
	</g>
	<g>
		<path d="M24.082,139.191H15.85v-32.725l-10.781,3.867v-7.09l18.574-6.709h0.439V139.191z"/>
	</g>
	<g>
		<path d="M32.021,209.191H2.93v-5.566l13.799-14.824c1.074-1.172,1.982-2.236,2.725-3.193c0.742-0.957,1.343-1.831,1.802-2.622
			c0.458-0.791,0.791-1.528,0.996-2.212c0.205-0.684,0.308-1.348,0.308-1.992c0-0.957-0.137-1.806-0.41-2.549
			c-0.274-0.742-0.659-1.372-1.157-1.89c-0.498-0.517-1.094-0.913-1.787-1.187c-0.693-0.273-1.46-0.41-2.3-0.41
			c-2.246,0-3.921,0.625-5.024,1.875c-1.104,1.25-1.655,2.999-1.655,5.244H2.051c0-1.894,0.361-3.687,1.084-5.376
			c0.722-1.689,1.743-3.168,3.062-4.438c1.318-1.27,2.91-2.271,4.775-3.003c1.865-0.732,3.93-1.099,6.196-1.099
			c2.168,0,4.087,0.303,5.757,0.908c1.67,0.605,3.066,1.455,4.189,2.549c1.123,1.094,1.978,2.407,2.563,3.94
			c0.586,1.534,0.879,3.228,0.879,5.083c0,1.406-0.22,2.75-0.659,4.028c-0.439,1.279-1.065,2.544-1.875,3.794
			c-0.811,1.25-1.783,2.524-2.915,3.823c-1.133,1.299-2.393,2.662-3.779,4.087l-8.027,8.496h18.721V209.191z"/>
	</g>
	<g>
		<path d="M12.334,254.29h4.424c2.227,0,3.877-0.561,4.951-1.685c1.074-1.123,1.611-2.593,1.611-4.409
			c0-0.839-0.122-1.606-0.366-2.3c-0.245-0.693-0.611-1.289-1.099-1.787c-0.488-0.498-1.109-0.883-1.86-1.157
			c-0.752-0.273-1.626-0.41-2.622-0.41c-0.82,0-1.587,0.117-2.3,0.352c-0.713,0.234-1.338,0.571-1.875,1.011
			c-0.538,0.439-0.962,0.972-1.274,1.597c-0.312,0.625-0.469,1.329-0.469,2.109H3.311c0-1.738,0.356-3.32,1.069-4.746
			c0.713-1.425,1.694-2.651,2.944-3.677c1.25-1.025,2.72-1.821,4.409-2.388c1.689-0.566,3.511-0.85,5.464-0.85
			c2.109,0,4.043,0.259,5.801,0.776c1.758,0.518,3.262,1.289,4.512,2.314c1.25,1.025,2.222,2.295,2.915,3.809
			c0.693,1.514,1.04,3.267,1.04,5.259c0,0.918-0.137,1.821-0.41,2.71c-0.274,0.889-0.674,1.733-1.201,2.534
			c-0.527,0.801-1.182,1.538-1.963,2.212c-0.781,0.674-1.68,1.255-2.695,1.743c1.191,0.43,2.222,0.977,3.091,1.641
			c0.869,0.664,1.586,1.421,2.153,2.271c0.566,0.85,0.986,1.783,1.26,2.798c0.273,1.016,0.41,2.09,0.41,3.223
			c0,1.992-0.381,3.77-1.143,5.332s-1.807,2.876-3.135,3.94c-1.329,1.064-2.905,1.875-4.731,2.432
			c-1.827,0.557-3.794,0.835-5.903,0.835c-1.816,0-3.589-0.249-5.317-0.747s-3.267-1.25-4.614-2.256s-2.427-2.271-3.237-3.794
			c-0.811-1.523-1.216-3.32-1.216-5.391h8.145c0,0.82,0.156,1.578,0.469,2.271c0.312,0.693,0.757,1.289,1.333,1.787
			c0.576,0.498,1.255,0.89,2.036,1.172c0.781,0.283,1.641,0.425,2.578,0.425c2.07,0,3.691-0.547,4.863-1.641
			s1.758-2.578,1.758-4.453c0-1.152-0.166-2.139-0.498-2.959c-0.333-0.82-0.816-1.494-1.45-2.021
			c-0.635-0.527-1.396-0.918-2.285-1.172c-0.889-0.253-1.89-0.381-3.003-0.381h-4.424V254.29z"/>
	</g>
	<g>
		<path d="M27.92,333.342h4.951v6.592H27.92v9.258h-8.145v-9.258H2.051l-0.322-5.098l17.93-28.301h8.262V333.342z M9.727,333.342
			h10.049v-15.85l-0.791,1.406L9.727,333.342z"/>
	</g>
	<g>
		<path d="M4.541,398.186l2.432-21.65h23.672v6.914H13.682l-1.025,9.375c0.605-0.352,1.465-0.713,2.578-1.084
			s2.392-0.557,3.838-0.557c2.051,0,3.882,0.328,5.493,0.982s2.969,1.596,4.072,2.826c1.103,1.23,1.948,2.734,2.534,4.512
			s0.879,3.789,0.879,6.035c0,1.914-0.283,3.73-0.85,5.449c-0.567,1.719-1.436,3.232-2.607,4.541s-2.647,2.344-4.424,3.105
			c-1.777,0.762-3.877,1.143-6.299,1.143c-1.836,0-3.608-0.273-5.317-0.82c-1.709-0.547-3.228-1.348-4.556-2.402
			c-1.329-1.055-2.407-2.348-3.237-3.881c-0.831-1.533-1.274-3.287-1.333-5.26h8.027c0.195,1.855,0.864,3.291,2.007,4.307
			s2.603,1.523,4.38,1.523c1.094,0,2.026-0.205,2.798-0.615c0.771-0.41,1.396-0.977,1.875-1.699c0.479-0.723,0.83-1.582,1.055-2.578
			c0.224-0.996,0.337-2.07,0.337-3.223c0-1.133-0.142-2.172-0.425-3.119c-0.283-0.947-0.718-1.764-1.304-2.447
			s-1.318-1.211-2.197-1.582s-1.915-0.557-3.105-0.557c-0.801,0-1.494,0.068-2.08,0.205s-1.104,0.312-1.553,0.527
			c-0.45,0.215-0.85,0.465-1.201,0.748s-0.684,0.58-0.996,0.893L4.541,398.186z"/>
	</g>
	<g>
		<path d="M25.752,446.184v6.768h-0.469c-2.149,0-4.048,0.283-5.698,0.85c-1.651,0.566-3.057,1.367-4.219,2.402
			c-1.162,1.035-2.08,2.275-2.754,3.721s-1.099,3.057-1.274,4.834c0.449-0.488,0.967-0.971,1.553-1.449s1.245-0.908,1.978-1.289
			s1.528-0.689,2.388-0.924c0.859-0.234,1.787-0.352,2.783-0.352c2.031,0,3.804,0.387,5.317,1.158
			c1.513,0.771,2.778,1.816,3.794,3.135c1.015,1.318,1.772,2.852,2.271,4.6s0.747,3.588,0.747,5.521c0,2.07-0.333,3.994-0.996,5.771
			c-0.664,1.777-1.611,3.32-2.842,4.629s-2.725,2.34-4.482,3.092s-3.731,1.127-5.918,1.127c-2.285,0-4.346-0.424-6.182-1.273
			c-1.836-0.85-3.394-2.027-4.673-3.531c-1.279-1.504-2.266-3.285-2.959-5.346c-0.693-2.061-1.04-4.312-1.04-6.754v-3.135
			c0-3.379,0.458-6.508,1.377-9.389c0.918-2.881,2.285-5.371,4.102-7.471s4.072-3.74,6.768-4.922s5.811-1.773,9.346-1.773H25.752z
			 M17.666,467.277c-1.465,0-2.759,0.391-3.882,1.172c-1.124,0.781-1.968,1.787-2.534,3.018v2.402c0,1.562,0.161,2.93,0.483,4.102
			s0.776,2.145,1.362,2.916s1.279,1.352,2.08,1.742c0.801,0.391,1.67,0.586,2.607,0.586c0.957,0,1.826-0.199,2.607-0.6
			c0.781-0.4,1.445-0.953,1.992-1.656c0.546-0.703,0.967-1.537,1.26-2.504s0.439-2.027,0.439-3.18s-0.146-2.217-0.439-3.193
			s-0.713-1.82-1.26-2.533c-0.547-0.713-1.216-1.27-2.007-1.67S18.681,467.277,17.666,467.277z"/>
	</g>
	<g>
		<path d="M31.992,521.076l-16.611,38.115H6.797l16.641-36.006H2.021v-6.65h29.971V521.076z"/>
	</g>
	<g>
		<path d="M30.908,597.873c0,2.07-0.523,3.912-1.567,5.523c-1.045,1.611-2.476,2.895-4.292,3.852
			c2.07,0.977,3.716,2.344,4.937,4.102c1.22,1.758,1.831,3.818,1.831,6.182c0,2.012-0.366,3.779-1.099,5.303
			s-1.739,2.799-3.018,3.824c-1.279,1.025-2.788,1.801-4.526,2.328c-1.739,0.527-3.614,0.791-5.625,0.791
			c-2.032,0-3.921-0.264-5.669-0.791c-1.748-0.527-3.267-1.303-4.556-2.328s-2.3-2.301-3.032-3.824s-1.099-3.291-1.099-5.303
			c0-1.172,0.161-2.279,0.483-3.324s0.776-2.002,1.362-2.871s1.293-1.65,2.124-2.344c0.83-0.693,1.762-1.285,2.798-1.773
			c-1.816-0.938-3.242-2.211-4.277-3.822c-1.036-1.611-1.553-3.453-1.553-5.523c0-1.934,0.332-3.637,0.996-5.111
			c0.664-1.475,1.586-2.721,2.769-3.736c1.182-1.016,2.588-1.781,4.219-2.299c1.63-0.518,3.413-0.777,5.347-0.777
			s3.721,0.26,5.361,0.777s3.062,1.283,4.263,2.299s2.139,2.262,2.812,3.736S30.908,595.939,30.908,597.873z M23.643,616.975
			c0-0.977-0.146-1.855-0.439-2.637s-0.708-1.449-1.245-2.006c-0.538-0.557-1.182-0.982-1.934-1.275
			c-0.752-0.293-1.597-0.439-2.534-0.439s-1.783,0.146-2.534,0.439c-0.752,0.293-1.392,0.719-1.919,1.275s-0.938,1.225-1.23,2.006
			s-0.439,1.66-0.439,2.637c0,1.953,0.557,3.486,1.67,4.6s2.617,1.67,4.512,1.67c0.898,0,1.718-0.141,2.461-0.424
			c0.742-0.283,1.381-0.699,1.919-1.246c0.537-0.547,0.957-1.205,1.26-1.977C23.491,618.826,23.643,617.951,23.643,616.975z
			 M22.793,598.254c0-0.859-0.127-1.641-0.381-2.344c-0.254-0.703-0.611-1.303-1.069-1.801c-0.459-0.498-1.016-0.885-1.67-1.158
			c-0.655-0.273-1.392-0.41-2.212-0.41c-1.66,0-2.94,0.508-3.838,1.523c-0.898,1.016-1.348,2.412-1.348,4.189
			c0,0.859,0.117,1.646,0.352,2.359s0.581,1.322,1.04,1.83c0.458,0.508,1.015,0.904,1.67,1.188c0.654,0.283,1.392,0.424,2.212,0.424
			s1.553-0.141,2.197-0.424s1.191-0.68,1.641-1.188c0.449-0.508,0.795-1.117,1.04-1.83C22.671,599.9,22.793,599.113,22.793,598.254z
			"/>
	</g>
	<g>
		<path d="M9.727,692.717c2.187,0,4.082-0.234,5.684-0.703c1.601-0.469,2.944-1.146,4.028-2.035s1.923-1.973,2.52-3.252
			c0.596-1.279,0.981-2.73,1.157-4.352c-0.82,0.82-1.875,1.523-3.164,2.109s-2.852,0.879-4.688,0.879
			c-2.032,0-3.819-0.371-5.361-1.113c-1.543-0.742-2.837-1.758-3.882-3.047c-1.045-1.289-1.836-2.807-2.373-4.555
			c-0.538-1.748-0.806-3.629-0.806-5.641c0-2.07,0.327-4.018,0.981-5.844c0.654-1.826,1.597-3.424,2.827-4.791
			s2.72-2.445,4.468-3.236c1.748-0.791,3.716-1.188,5.903-1.188c2.227,0,4.229,0.43,6.006,1.289
			c1.777,0.859,3.286,2.061,4.526,3.604c1.24,1.543,2.187,3.379,2.842,5.508c0.654,2.129,0.981,4.463,0.981,7.002v2.812
			c0,3.398-0.42,6.523-1.26,9.375c-0.84,2.852-2.139,5.318-3.896,7.398s-3.995,3.701-6.709,4.863
			c-2.715,1.162-5.958,1.742-9.727,1.742H9.17v-6.826H9.727z M17.197,679.064c0.742,0,1.431-0.107,2.065-0.322
			c0.634-0.215,1.211-0.512,1.729-0.893c0.517-0.381,0.967-0.83,1.348-1.348s0.688-1.08,0.923-1.686v-2.9
			c0-1.562-0.161-2.93-0.483-4.102s-0.767-2.148-1.333-2.93c-0.567-0.781-1.23-1.367-1.992-1.758s-1.582-0.586-2.461-0.586
			c-0.957,0-1.812,0.23-2.563,0.689c-0.752,0.459-1.382,1.074-1.89,1.846c-0.508,0.771-0.898,1.66-1.172,2.666
			c-0.274,1.006-0.41,2.055-0.41,3.148s0.127,2.139,0.381,3.135c0.253,0.996,0.64,1.865,1.157,2.607
			c0.517,0.742,1.167,1.334,1.948,1.773C15.224,678.846,16.143,679.064,17.197,679.064z"/>
	</g>
</g>
<text transform="matrix(1 0 0 1 39 400.1914)"><tspan x="0" y="0" style="fill:none;stroke:#000000;stroke-miterlimit:10; font-family:'RobotoMono-Bold'; font-size:60;">0</tspan><tspan x="0" y="70" style="fill:none;stroke:#000000;stroke-miterlimit:10; font-family:'RobotoMono-Bold'; font-size:60;">1 </tspan><tspan x="0" y="140" style="fill:none;stroke:#000000;stroke-miterlimit:10; font-family:'RobotoMono-Bold'; font-size:60;">2 </tspan><tspan x="0" y="210" style="fill:none;stroke:#000000;stroke-miterlimit:10; font-family:'RobotoMono-Bold'; font-size:60;">3 </tspan><tspan x="0" y="280" style="fill:none;stroke:#000000;stroke-miterlimit:10; font-family:'RobotoMono-Bold'; font-size:60;">4 </tspan><tspan x="0" y="350" style="fill:none;stroke:#000000;stroke-miterlimit:10; font-family:'RobotoMono-Bold'; font-size:60;">5 </tspan><tspan x="0" y="420" style="fill:none;stroke:#000000;stroke-miterlimit:10; font-family:'RobotoMono-Bold'; font-size:60;">6 </tspan><tspan x="0" y="490" style="fill:none;stroke:#000000;stroke-miterlimit:10; font-family:'RobotoMono-Bold'; font-size:60;">7 </tspan><tspan x="0" y="560" style="fill:none;stroke:#000000;stroke-miterlimit:10; font-family:'RobotoMono-Bold'; font-size:60;">8 </tspan><tspan x="0" y="630" style="fill:none;stroke:#000000;stroke-miterlimit:10; font-family:'RobotoMono-Bold'; font-size:60;">9</tspan></text>
</svg>
