<?xml version="1.0" encoding="utf-8"?>
<!-- Generator: Adobe Illustrator 16.0.4, SVG Export Plug-In . SVG Version: 6.00 Build 0)  -->
<!DOCTYPE svg PUBLIC "-//W3C//DTD SVG 1.1//EN" "http://www.w3.org/Graphics/SVG/1.1/DTD/svg11.dtd">
<svg version="1.1" id="Logo_FIXED" xmlns="http://www.w3.org/2000/svg" xmlns:xlink="http://www.w3.org/1999/xlink" x="0px" y="0px"
	 width="281.25px" height="228.531px" viewBox="259.375 110.758 281.25 228.531"
	 enable-background="new 259.375 110.758 281.25 228.531" xml:space="preserve">
<title>Twitter_Logo_Blue</title>
<path d="M347.822,339.289c106.133,0,164.183-87.93,164.183-164.183c0-2.498,0-4.984-0.169-7.459
	c11.293-8.168,21.042-18.283,28.789-29.869c-10.531,4.667-21.703,7.727-33.143,9.079c12.046-7.211,21.062-18.554,25.369-31.916
	c-11.327,6.721-23.72,11.458-36.642,14.006c-21.854-23.237-58.406-24.359-81.644-2.506c-14.985,14.094-21.344,35.094-16.693,55.134
	c-46.396-2.326-89.623-24.24-118.923-60.289c-15.316,26.366-7.493,60.096,17.865,77.029c-9.183-0.272-18.166-2.75-26.19-7.223
	c0,0.236,0,0.484,0,0.731c0.007,27.468,19.37,51.125,46.294,56.565c-8.496,2.316-17.409,2.656-26.055,0.99
	c7.56,23.506,29.223,39.609,53.91,40.072c-20.433,16.059-45.674,24.776-71.663,24.75c-4.591-0.009-9.178-0.287-13.736-0.832
	c26.388,16.934,57.093,25.916,88.447,25.875"/>
</svg>
